<svg xmlns="http://www.w3.org/2000/svg" xmlns:xlink="http://www.w3.org/1999/xlink" xmlns:lucid="lucid" width="649.7" height="3849.2"><g transform="translate(-126.30000000000018 628.2004096888353)" lucid:page-tab-id="0_0"><path d="M280 320c0 22.1-17.9 40-40 40s-40-17.9-40-40 17.9-40 40-40 40 17.9 40 40z" stroke="#000" stroke-width="2"/><use xlink:href="#a" transform="matrix(1,0,0,1,205,285) translate(30.48568576388889 23.71527777777778)"/><use xlink:href="#b" transform="matrix(1,0,0,1,205,285) translate(5.567065972222226 55.98090277777778)"/><path d="M295.13 320.48H281.5v-.96h13.63zm52.5 0H333.5v-.96h14.12z" stroke="#3a414a" stroke-width=".05" fill="#3a414a"/><path d="M281.5 320.48h-.53l.03-.47-.02-.48h.53z" fill="#3a414a"/><path stroke="#3a414a" stroke-width=".05" fill="#3a414a"/><path d="M362.38 320l-14.26 4.63v-9.26z" fill="#3a414a"/><path d="M363.92 320l-16.28 5.3v-10.6zm-15.33 3.98l12.24-3.98-12.25-3.98z" stroke="#3a414a" stroke-width=".05" fill="#3a414a"/><use xlink:href="#c" transform="matrix(1,0,0,1,295.13293509997965,309.2447916666667) translate(0 17.22222222222222)"/><path d="M445 320c0 22.1-17.9 40-40 40s-40-17.9-40-40 17.9-40 40-40 40 17.9 40 40z" stroke="#000" stroke-width="2"/><use xlink:href="#d" transform="matrix(1,0,0,1,369.99999999999994,285) translate(28.223741319444443 43.40277777777778)"/><path d="M446.5 320h66.12" stroke="#3a414a" fill="none"/><path d="M446.5 320.48h-.53l.03-.47-.02-.48h.53z" stroke="#3a414a" stroke-width=".05" fill="#3a414a"/><path d="M527.38 320l-14.26 4.63v-9.26z" stroke="#3a414a" fill="#3a414a"/><path d="M610 320c0 22.1-17.9 40-40 40s-40-17.9-40-40 17.9-40 40-40 40 17.9 40 40z" stroke="#000" stroke-width="2"/><use xlink:href="#e" transform="matrix(1,0,0,1,534.9999999999999,285) translate(28.13693576388889 43.40277777777778)"/><path d="M330.2 145.73a6 6 0 0 1 6-6h137.6a6 6 0 0 1 6 6V214a6 6 0 0 1-6 6H336.2a6 6 0 0 1-6-6z" stroke="#000" stroke-width="2" fill="#fff"/><use xlink:href="#f" transform="matrix(1,0,0,1,335.1999999999998,144.73333333333318) translate(13.598090277777786 43.71527777777778)"/><path d="M280 460c0 22.1-17.9 40-40 40s-40-17.9-40-40 17.9-40 40-40 40 17.9 40 40z" stroke="#000" stroke-width="2"/><use xlink:href="#g" transform="matrix(1,0,0,1,204.99999999999994,425) translate(30.48068576388889 43.40277777777778)"/><path d="M281.5 460h66.12" stroke="#3a414a" fill="none"/><path d="M281.5 460.48h-.53l.03-.47-.02-.48h.53z" stroke="#3a414a" stroke-width=".05" fill="#3a414a"/><path d="M362.38 460l-14.26 4.63v-9.26z" stroke="#3a414a" fill="#3a414a"/><path d="M445 460c0 22.1-17.9 40-40 40s-40-17.9-40-40 17.9-40 40-40 40 17.9 40 40z" stroke="#000" stroke-width="2"/><use xlink:href="#h" transform="matrix(1,0,0,1,369.99999999999994,425) translate(28.228741319444445 23.71527777777778)"/><use xlink:href="#i" transform="matrix(1,0,0,1,369.99999999999994,425) translate(5.567065972222226 55.98090277777778)"/><path d="M462.78 460.48H446.5v-.96h16.28zm49.84 0h-11.47v-.96h11.47z" stroke="#3a414a" stroke-width=".05" fill="#3a414a"/><path d="M446.5 460.48h-.53l.03-.47-.02-.48h.53z" fill="#3a414a"/><path stroke="#3a414a" stroke-width=".05" fill="#3a414a"/><path d="M527.38 460l-14.26 4.63v-9.26z" fill="#3a414a"/><path d="M528.92 460l-16.28 5.3v-10.6zm-15.33 3.98l12.24-3.98-12.25-3.98z" stroke="#3a414a" stroke-width=".05" fill="#3a414a"/><use xlink:href="#j" transform="matrix(1,0,0,1,462.77829328008823,449.2447916666667) translate(0 17.22222222222222)"/><path d="M610 460c0 22.1-17.9 40-40 40s-40-17.9-40-40 17.9-40 40-40 40 17.9 40 40z" stroke="#000" stroke-width="2"/><use xlink:href="#e" transform="matrix(1,0,0,1,534.9999999999999,425) translate(28.13693576388889 43.40277777777778)"/><path d="M280 600c0 22.1-17.9 40-40 40s-40-17.9-40-40 17.9-40 40-40 40 17.9 40 40z" stroke="#000" stroke-width="2"/><use xlink:href="#g" transform="matrix(1,0,0,1,204.9999999999999,565) translate(30.48068576388889 43.40277777777778)"/><path d="M281.5 600h66.12" stroke="#3a414a" fill="none"/><path d="M281.5 600.48h-.53l.03-.47-.02-.48h.53z" stroke="#3a414a" stroke-width=".05" fill="#3a414a"/><path d="M362.38 600l-14.26 4.63v-9.26z" stroke="#3a414a" fill="#3a414a"/><path d="M445 600c0 22.1-17.9 40-40 40s-40-17.9-40-40 17.9-40 40-40 40 17.9 40 40z" stroke="#000" stroke-width="2"/><use xlink:href="#k" transform="matrix(1,0,0,1,369.99999999999994,565) translate(28.223741319444443 43.40277777777778)"/><path d="M446.5 600h66.12" stroke="#3a414a" fill="none"/><path d="M446.5 600.48h-.53l.03-.47-.02-.48h.53z" stroke="#3a414a" stroke-width=".05" fill="#3a414a"/><path d="M527.38 600l-14.26 4.63v-9.26z" stroke="#3a414a" fill="#3a414a"/><path d="M610 600c0 22.1-17.9 40-40 40s-40-17.9-40-40 17.9-40 40-40 40 17.9 40 40z" stroke="#000" stroke-width="2"/><use xlink:href="#l" transform="matrix(1,0,0,1,534.9999999999999,565) translate(28.14193576388889 23.71527777777778)"/><use xlink:href="#i" transform="matrix(1,0,0,1,534.9999999999999,565) translate(5.567065972222226 55.98090277777778)"/><path d="M280 740c0 22.1-17.9 40-40 40s-40-17.9-40-40 17.9-40 40-40 40 17.9 40 40z" stroke="#000" stroke-width="2"/><use xlink:href="#g" transform="matrix(1,0,0,1,204.99999999999983,705) translate(30.48068576388889 43.40277777777778)"/><path d="M281.5 740h66.12" stroke="#3a414a" fill="none"/><path d="M281.5 740.48h-.53l.03-.47-.02-.48h.53z" stroke="#3a414a" stroke-width=".05" fill="#3a414a"/><path d="M362.38 740l-14.26 4.63v-9.26z" stroke="#3a414a" fill="#3a414a"/><path d="M445 740c0 22.1-17.9 40-40 40s-40-17.9-40-40 17.9-40 40-40 40 17.9 40 40z" stroke="#000" stroke-width="2"/><use xlink:href="#d" transform="matrix(1,0,0,1,369.9999999999999,705) translate(28.223741319444443 43.40277777777778)"/><path d="M446.5 740h66.12" stroke="#3a414a" fill="none"/><path d="M446.5 740.48h-.53l.03-.47-.02-.48h.53z" stroke="#3a414a" stroke-width=".05" fill="#3a414a"/><path d="M527.38 740l-14.26 4.63v-9.26z" stroke="#3a414a" fill="#3a414a"/><path d="M610 740c0 22.1-17.9 40-40 40s-40-17.9-40-40 17.9-40 40-40 40 17.9 40 40z" stroke="#000" stroke-width="2"/><use xlink:href="#l" transform="matrix(1,0,0,1,534.9999999999999,705) translate(28.14193576388889 23.71527777777778)"/><use xlink:href="#i" transform="matrix(1,0,0,1,534.9999999999999,705) translate(5.567065972222226 55.98090277777778)"/><path d="M627.75 740.48H611.5v-.96h16.25zm49.87 0h-11.5v-.96h11.5z" stroke="#3a414a" stroke-width=".05" fill="#3a414a"/><path d="M611.5 740.48h-.53l.03-.47-.02-.48h.53z" fill="#3a414a"/><path stroke="#3a414a" stroke-width=".05" fill="#3a414a"/><path d="M692.38 740l-14.26 4.63v-9.26z" fill="#3a414a"/><path d="M693.92 740l-16.28 5.3v-10.6zm-15.33 3.98l12.24-3.98-12.25-3.98z" stroke="#3a414a" stroke-width=".05" fill="#3a414a"/><use xlink:href="#m" transform="matrix(1,0,0,1,640.2666666666664,729.2447916666666) translate(0 17.22222222222222)"/><use xlink:href="#c" transform="matrix(1,0,0,1,627.7449652777775,729.2447916666666) translate(0 17.22222222222222)"/><path d="M775 740c0 22.1-17.9 40-40 40s-40-17.9-40-40 17.9-40 40-40 40 17.9 40 40z" stroke="#000" stroke-width="2"/><use xlink:href="#n" transform="matrix(1,0,0,1,699.9999999999999,705) translate(27.827265625000003 25.90277777777778)"/><use xlink:href="#o" transform="matrix(1,0,0,1,699.9999999999999,705) translate(11.779088541666669 58.16840277777778)"/><path d="M340 846a6 6 0 0 1 6-6h137.6a6 6 0 0 1 6 6v68.27a6 6 0 0 1-6 6H346a6 6 0 0 1-6-6z" stroke="#000" stroke-width="2" fill="#fff"/><use xlink:href="#p" transform="matrix(1,0,0,1,345,845) translate(15.090060763888886 28.18402777777778)"/><use xlink:href="#q" transform="matrix(1,0,0,1,345,845) translate(87.96332465277777 28.18402777777778)"/><use xlink:href="#r" transform="matrix(1,0,0,1,345,845) translate(16.25651041666667 60.44965277777778)"/><path d="M464.8 1029.87c0 27.54-22.4 49.86-50 49.86s-50-22.32-50-49.86 22.4-49.87 50-49.87 50 22.33 50 49.87z" stroke="#000" stroke-width="2"/><use xlink:href="#s" transform="matrix(1,0,0,1,369.80000000000007,985) translate(40.48568576388889 35.59027777777778)"/><use xlink:href="#t" transform="matrix(1,0,0,1,369.80000000000007,985) translate(10.70052951388889 67.85590277777777)"/><path d="M340 1145.47a6 6 0 0 1 6-6h137.6a6 6 0 0 1 6 6v68.26a6 6 0 0 1-6 6H346a6 6 0 0 1-6-6z" stroke="#000" stroke-width="2" fill="#fff"/><use xlink:href="#u" transform="matrix(1,0,0,1,345,1144.4666666666662) translate(13.153211805555557 43.71527777777778)"/><path d="M372.3 1320c0 22.1-17.9 40-40 40s-40-17.9-40-40 17.9-40 40-40 40 17.9 40 40z" stroke="#000" stroke-width="2"/><use xlink:href="#d" transform="matrix(1,0,0,1,297.3000000000002,1285) translate(28.223741319444443 43.40277777777778)"/><path d="M373.8 1320h66.12" stroke="#3a414a" fill="none"/><path d="M373.8 1320.47h-.53l.03-.46-.02-.47h.53z" stroke="#3a414a" stroke-width=".05" fill="#3a414a"/><path d="M454.68 1320l-14.26 4.63v-9.27z" stroke="#3a414a" fill="#3a414a"/><path d="M537.3 1320c0 22.1-17.9 40-40 40s-40-17.9-40-40 17.9-40 40-40 40 17.9 40 40z" stroke="#000" stroke-width="2"/><use xlink:href="#e" transform="matrix(1,0,0,1,462.3,1285) translate(28.13693576388889 43.40277777777778)"/><path d="M289.8 1480c0 22.1-17.9 40-40 40s-40-17.9-40-40 17.9-40 40-40 40 17.9 40 40z" stroke="#000" stroke-width="2"/><use xlink:href="#s" transform="matrix(1,0,0,1,214.8000000000001,1445) translate(30.48568576388889 25.90277777777778)"/><use xlink:href="#v" transform="matrix(1,0,0,1,214.8000000000001,1445) translate(11.779088541666669 58.16840277777778)"/><path d="M304.93 1480.47H291.3v-.94h13.63zm52.5 0H343.3v-.94h14.12z" stroke="#3a414a" stroke-width=".05" fill="#3a414a"/><path d="M291.3 1480.47h-.53l.03-.46-.02-.47h.53z" fill="#3a414a"/><path stroke="#3a414a" stroke-width=".05" fill="#3a414a"/><path d="M372.18 1480l-14.26 4.63v-9.27z" fill="#3a414a"/><path d="M373.72 1480l-16.28 5.3v-10.6zm-15.33 3.98l12.24-3.98-12.25-3.98z" stroke="#3a414a" stroke-width=".05" fill="#3a414a"/><use xlink:href="#c" transform="matrix(1,0,0,1,304.9329350999797,1469.2447916666667) translate(0 17.22222222222222)"/><path d="M454.8 1480c0 22.1-17.9 40-40 40s-40-17.9-40-40 17.9-40 40-40 40 17.9 40 40z" stroke="#000" stroke-width="2"/><use xlink:href="#d" transform="matrix(1,0,0,1,379.80000000000007,1445) translate(28.223741319444443 43.40277777777778)"/><path d="M456.3 1480h66.1" stroke="#3a414a" fill="none"/><path d="M456.3 1480.47h-.53l.03-.46-.02-.47h.53z" stroke="#3a414a" stroke-width=".05" fill="#3a414a"/><path d="M537.18 1480l-14.26 4.63v-9.27z" stroke="#3a414a" fill="#3a414a"/><path d="M619.8 1480c0 22.1-17.9 40-40 40s-40-17.9-40-40 17.9-40 40-40 40 17.9 40 40z" stroke="#000" stroke-width="2"/><use xlink:href="#e" transform="matrix(1,0,0,1,544.8000000000001,1445) translate(28.13693576388889 43.40277777777778)"/><path d="M340 1586a6 6 0 0 1 6-6h137.6a6 6 0 0 1 6 6v68.27a6 6 0 0 1-6 6H346a6 6 0 0 1-6-6z" stroke="#000" stroke-width="2" fill="#fff"/><use xlink:href="#w" transform="matrix(1,0,0,1,345,1585) translate(12.133246527777771 43.71527777777778)"/><use xlink:href="#x" transform="matrix(1,0,0,1,345,1585) translate(106.20876736111111 43.71527777777778)"/><path d="M207.3 1760.27c0 22.1-17.9 40-40 40s-40-17.9-40-40 17.9-40 40-40 40 17.9 40 40z" stroke="#000" stroke-width="2"/><use xlink:href="#y" transform="matrix(1,0,0,1,132.30000000000018,1725.2666666666669) translate(30.48568576388889 23.71527777777778)"/><use xlink:href="#z" transform="matrix(1,0,0,1,132.30000000000018,1725.2666666666669) translate(5.567065972222226 55.98090277777778)"/><path d="M222.43 1760.74H208.8v-.95h13.63zm52.5 0H260.8v-.95h14.12z" stroke="#3a414a" stroke-width=".05" fill="#3a414a"/><path d="M208.8 1760.74h-.53l.03-.46-.02-.5h.53z" fill="#3a414a"/><path stroke="#3a414a" stroke-width=".05" fill="#3a414a"/><path d="M289.68 1760.27l-14.26 4.63v-9.27z" fill="#3a414a"/><path d="M291.22 1760.27l-16.28 5.3v-10.6zm-15.33 3.98l12.24-3.98-12.25-3.98z" stroke="#3a414a" stroke-width=".05" fill="#3a414a"/><use xlink:href="#c" transform="matrix(1,0,0,1,222.43293509997983,1749.5114583333336) translate(0 17.22222222222222)"/><path d="M372.3 1760.27c0 22.1-17.9 40-40 40s-40-17.9-40-40 17.9-40 40-40 40 17.9 40 40z" stroke="#000" stroke-width="2"/><use xlink:href="#A" transform="matrix(1,0,0,1,297.3000000000002,1725.2666666666669) translate(28.223741319444443 43.40277777777778)"/><path d="M373.8 1760.27h66.12" stroke="#3a414a" fill="none"/><path d="M373.8 1760.74h-.53l.03-.46-.02-.5h.53z" stroke="#3a414a" stroke-width=".05" fill="#3a414a"/><path d="M454.68 1760.27l-14.26 4.63v-9.27z" stroke="#3a414a" fill="#3a414a"/><path d="M537.3 1760.27c0 22.1-17.9 40-40 40s-40-17.9-40-40 17.9-40 40-40 40 17.9 40 40z" stroke="#000" stroke-width="2"/><use xlink:href="#e" transform="matrix(1,0,0,1,462.30000000000007,1725.2666666666669) translate(28.13693576388889 43.40277777777778)"/><path d="M538.8 1760.27h66.12" stroke="#3a414a" fill="none"/><path d="M538.8 1760.74h-.53l.03-.46-.02-.5h.53z" stroke="#3a414a" stroke-width=".05" fill="#3a414a"/><path d="M619.68 1760.27l-14.26 4.63v-9.27z" stroke="#3a414a" fill="#3a414a"/><path d="M702.3 1760.27c0 22.1-17.9 40-40 40s-40-17.9-40-40 17.9-40 40-40 40 17.9 40 40z" stroke="#000" stroke-width="2"/><use xlink:href="#B" transform="matrix(1,0,0,1,627.3,1725.2666666666669) translate(27.822265625 43.40277777777778)"/><path d="M207.3 1900.27c0 22.1-17.9 40-40 40s-40-17.9-40-40 17.9-40 40-40 40 17.9 40 40z" stroke="#000" stroke-width="2"/><use xlink:href="#g" transform="matrix(1,0,0,1,132.30000000000018,1865.2666666666669) translate(30.48068576388889 43.40277777777778)"/><path d="M208.8 1900.27h66.12" stroke="#3a414a" fill="none"/><path d="M208.8 1900.74h-.53l.03-.46-.02-.5h.53z" stroke="#3a414a" stroke-width=".05" fill="#3a414a"/><path d="M289.68 1900.27l-14.26 4.63v-9.27z" stroke="#3a414a" fill="#3a414a"/><path d="M372.3 1900.27c0 22.1-17.9 40-40 40s-40-17.9-40-40 17.9-40 40-40 40 17.9 40 40z" stroke="#000" stroke-width="2"/><use xlink:href="#h" transform="matrix(1,0,0,1,297.3000000000002,1865.2666666666669) translate(28.228741319444445 23.71527777777778)"/><use xlink:href="#i" transform="matrix(1,0,0,1,297.3000000000002,1865.2666666666669) translate(5.567065972222226 55.98090277777778)"/><path d="M387.75 1900.74H373.8v-.95h13.94zm52.17 0h-13.8v-.95h13.8z" stroke="#3a414a" stroke-width=".05" fill="#3a414a"/><path d="M373.8 1900.74h-.53l.03-.46-.02-.5h.53z" fill="#3a414a"/><path stroke="#3a414a" stroke-width=".05" fill="#3a414a"/><path d="M454.68 1900.27l-14.26 4.63v-9.27z" fill="#3a414a"/><path d="M456.22 1900.27l-16.28 5.3v-10.6zm-15.33 3.98l12.24-3.98-12.25-3.98z" stroke="#3a414a" stroke-width=".05" fill="#3a414a"/><use xlink:href="#c" transform="matrix(1,0,0,1,387.7449652777779,1889.5114583333336) translate(0 17.22222222222222)"/><path d="M537.3 1900.27c0 22.1-17.9 40-40 40s-40-17.9-40-40 17.9-40 40-40 40 17.9 40 40z" stroke="#000" stroke-width="2"/><use xlink:href="#h" transform="matrix(1,0,0,1,462.30000000000007,1865.2666666666669) translate(28.228741319444445 25.90277777777778)"/><use xlink:href="#v" transform="matrix(1,0,0,1,462.30000000000007,1865.2666666666669) translate(11.779088541666669 58.16840277777778)"/><path d="M538.8 1900.27h66.12" stroke="#3a414a" fill="none"/><path d="M538.8 1900.74h-.53l.03-.46-.02-.5h.53z" stroke="#3a414a" stroke-width=".05" fill="#3a414a"/><path d="M619.68 1900.27l-14.26 4.63v-9.27z" stroke="#3a414a" fill="#3a414a"/><path d="M702.3 1900.27c0 22.1-17.9 40-40 40s-40-17.9-40-40 17.9-40 40-40 40 17.9 40 40z" stroke="#000" stroke-width="2"/><use xlink:href="#C" transform="matrix(1,0,0,1,627.3,1865.2666666666669) translate(27.822265625 43.40277777777778)"/><path d="M249 2006.27a6 6 0 0 1 6-6h319.6a6 6 0 0 1 6 6V2294a6 6 0 0 1-6 6H255a6 6 0 0 1-6-6z" stroke="#000" stroke-width="2" fill="#fff"/><use xlink:href="#D" transform="matrix(1,0,0,1,254.0000000000001,2005.2666666666669) translate(26.608723958333314 39.65277777777778)"/><use xlink:href="#E" transform="matrix(1,0,0,1,254.0000000000001,2005.2666666666669) translate(87.64388020833331 39.65277777777778)"/><use xlink:href="#F" transform="matrix(1,0,0,1,254.0000000000001,2005.2666666666669) translate(164.21723090277777 39.65277777777778)"/><use xlink:href="#G" transform="matrix(1,0,0,1,254.0000000000001,2005.2666666666669) translate(208.98719618055554 39.65277777777778)"/><use xlink:href="#H" transform="matrix(1,0,0,1,254.0000000000001,2005.2666666666669) translate(242.16861979166666 39.65277777777778)"/><use xlink:href="#I" transform="matrix(1,0,0,1,254.0000000000001,2005.2666666666669) translate(262.025390625 39.65277777777778)"/><use xlink:href="#J" transform="matrix(1,0,0,1,254.0000000000001,2005.2666666666669) translate(0.3446180555555429 71.91840277777777)"/><use xlink:href="#K" transform="matrix(1,0,0,1,254.0000000000001,2005.2666666666669) translate(65.03645833333333 71.91840277777777)"/><use xlink:href="#L" transform="matrix(1,0,0,1,254.0000000000001,2005.2666666666669) translate(85.39236111111111 71.91840277777777)"/><use xlink:href="#M" transform="matrix(1,0,0,1,254.0000000000001,2005.2666666666669) translate(106.61631944444444 71.91840277777777)"/><use xlink:href="#J" transform="matrix(1,0,0,1,254.0000000000001,2005.2666666666669) translate(134.55685763888889 71.91840277777777)"/><use xlink:href="#N" transform="matrix(1,0,0,1,254.0000000000001,2005.2666666666669) translate(199.24869791666669 71.91840277777777)"/><use xlink:href="#O" transform="matrix(1,0,0,1,254.0000000000001,2005.2666666666669) translate(219.60460069444446 71.91840277777777)"/><use xlink:href="#P" transform="matrix(1,0,0,1,254.0000000000001,2005.2666666666669) translate(161 104.18402777777777)"/><use xlink:href="#Q" transform="matrix(1,0,0,1,254.0000000000001,2005.2666666666669) translate(56.12261284722223 136.44965277777777)"/><use xlink:href="#R" transform="matrix(1,0,0,1,254.0000000000001,2005.2666666666669) translate(199.1890190972222 136.44965277777777)"/><use xlink:href="#S" transform="matrix(1,0,0,1,254.0000000000001,2005.2666666666669) translate(161 168.71527777777777)"/><use xlink:href="#T" transform="matrix(1,0,0,1,254.0000000000001,2005.2666666666669) translate(57.3161892361111 200.98090277777777)"/><use xlink:href="#H" transform="matrix(1,0,0,1,254.0000000000001,2005.2666666666669) translate(118.35134548611111 200.98090277777777)"/><use xlink:href="#J" transform="matrix(1,0,0,1,254.0000000000001,2005.2666666666669) translate(138.20811631944446 200.98090277777777)"/><use xlink:href="#U" transform="matrix(1,0,0,1,254.0000000000001,2005.2666666666669) translate(202.89995659722223 200.98090277777777)"/><use xlink:href="#V" transform="matrix(1,0,0,1,254.0000000000001,2005.2666666666669) translate(238.34917534722223 200.98090277777777)"/><use xlink:href="#S" transform="matrix(1,0,0,1,254.0000000000001,2005.2666666666669) translate(161 233.24652777777777)"/><use xlink:href="#W" transform="matrix(1,0,0,1,254.0000000000001,2005.2666666666669) translate(67.83051215277777 265.51215277777777)"/><use xlink:href="#X" transform="matrix(1,0,0,1,254.0000000000001,2005.2666666666669) translate(113.55533854166666 265.51215277777777)"/><path d="M340 2366a6 6 0 0 1 6-6h137.6a6 6 0 0 1 6 6v68.27a6 6 0 0 1-6 6H346a6 6 0 0 1-6-6z" stroke="#000" stroke-width="2" fill="#fff"/><use xlink:href="#Y" transform="matrix(1,0,0,1,345,2365) translate(21.44856770833333 43.71527777777778)"/><path d="M207.3 2540.27c0 22.1-17.9 40-40 40s-40-17.9-40-40 17.9-40 40-40 40 17.9 40 40z" stroke="#000" stroke-width="2"/><use xlink:href="#s" transform="matrix(1,0,0,1,132.30000000000018,2505.266666666667) translate(30.48568576388889 23.71527777777778)"/><use xlink:href="#i" transform="matrix(1,0,0,1,132.30000000000018,2505.266666666667) translate(5.567065972222226 55.98090277777778)"/><path d="M222.43 2540.74H208.8v-.95h13.63zm52.5 0H260.8v-.95h14.12z" stroke="#3a414a" stroke-width=".05" fill="#3a414a"/><path d="M208.8 2540.74h-.53l.03-.46-.02-.5h.53z" fill="#3a414a"/><path stroke="#3a414a" stroke-width=".05" fill="#3a414a"/><path d="M289.68 2540.27l-14.26 4.63v-9.27z" fill="#3a414a"/><path d="M291.22 2540.27l-16.28 5.3v-10.6zm-15.33 3.98l12.24-3.98-12.25-4z" stroke="#3a414a" stroke-width=".05" fill="#3a414a"/><use xlink:href="#c" transform="matrix(1,0,0,1,222.43293509997983,2529.5114583333334) translate(0 17.22222222222222)"/><path d="M372.3 2540.27c0 22.1-17.9 40-40 40s-40-17.9-40-40 17.9-40 40-40 40 17.9 40 40z" stroke="#000" stroke-width="2"/><use xlink:href="#A" transform="matrix(1,0,0,1,297.3000000000002,2505.266666666667) translate(28.223741319444443 43.40277777777778)"/><path d="M373.8 2540.27h66.12" stroke="#3a414a" fill="none"/><path d="M373.8 2540.74h-.53l.03-.46-.02-.5h.53z" stroke="#3a414a" stroke-width=".05" fill="#3a414a"/><path d="M454.68 2540.27l-14.26 4.63v-9.27z" stroke="#3a414a" fill="#3a414a"/><path d="M537.3 2540.27c0 22.1-17.9 40-40 40s-40-17.9-40-40 17.9-40 40-40 40 17.9 40 40z" stroke="#000" stroke-width="2"/><use xlink:href="#e" transform="matrix(1,0,0,1,462.30000000000007,2505.266666666667) translate(28.13693576388889 43.40277777777778)"/><path d="M538.8 2540.27h66.12" stroke="#3a414a" fill="none"/><path d="M538.8 2540.74h-.53l.03-.46-.02-.5h.53z" stroke="#3a414a" stroke-width=".05" fill="#3a414a"/><path d="M619.68 2540.27l-14.26 4.63v-9.27z" stroke="#3a414a" fill="#3a414a"/><path d="M702.3 2540.27c0 22.1-17.9 40-40 40s-40-17.9-40-40 17.9-40 40-40 40 17.9 40 40z" stroke="#000" stroke-width="2"/><use xlink:href="#B" transform="matrix(1,0,0,1,627.3,2505.266666666667) translate(27.822265625 43.40277777777778)"/><path d="M207.3 2680.27c0 22.1-17.9 40-40 40s-40-17.9-40-40 17.9-40 40-40 40 17.9 40 40z" stroke="#000" stroke-width="2"/><use xlink:href="#g" transform="matrix(1,0,0,1,132.30000000000018,2645.266666666667) translate(30.48068576388889 43.40277777777778)"/><path d="M208.8 2680.27h66.12" stroke="#3a414a" fill="none"/><path d="M208.8 2680.74h-.53l.03-.46-.02-.5h.53z" stroke="#3a414a" stroke-width=".05" fill="#3a414a"/><path d="M289.68 2680.27l-14.26 4.63v-9.27z" stroke="#3a414a" fill="#3a414a"/><path d="M372.3 2680.27c0 22.1-17.9 40-40 40s-40-17.9-40-40 17.9-40 40-40 40 17.9 40 40z" stroke="#000" stroke-width="2"/><use xlink:href="#h" transform="matrix(1,0,0,1,297.3000000000002,2645.266666666667) translate(28.228741319444445 23.71527777777778)"/><use xlink:href="#i" transform="matrix(1,0,0,1,297.3000000000002,2645.266666666667) translate(5.567065972222226 55.98090277777778)"/><path d="M386.95 2680.74H373.8v-.95h13.15zm52.97 0h-14.6v-.95h14.6z" stroke="#3a414a" stroke-width=".05" fill="#3a414a"/><path d="M373.8 2680.74h-.53l.03-.46-.02-.5h.53z" fill="#3a414a"/><path stroke="#3a414a" stroke-width=".05" fill="#3a414a"/><path d="M454.68 2680.27l-14.26 4.63v-9.27z" fill="#3a414a"/><path d="M456.22 2680.27l-16.28 5.3v-10.6zm-15.33 3.98l12.24-3.98-12.25-4z" stroke="#3a414a" stroke-width=".05" fill="#3a414a"/><use xlink:href="#c" transform="matrix(1,0,0,1,386.9533100550517,2669.5114583333334) translate(0 17.22222222222222)"/><path d="M537.3 2680.27c0 22.1-17.9 40-40 40s-40-17.9-40-40 17.9-40 40-40 40 17.9 40 40z" stroke="#000" stroke-width="2"/><use xlink:href="#Z" transform="matrix(1,0,0,1,462.30000000000007,2645.266666666667) translate(28.13693576388889 43.40277777777778)"/><path d="M552.97 2680.74H538.8v-.95h14.17zm51.94 0h-13.56v-.95h13.57z" stroke="#3a414a" stroke-width=".05" fill="#3a414a"/><path d="M538.8 2680.74h-.53l.03-.46-.02-.5h.53z" fill="#3a414a"/><path stroke="#3a414a" stroke-width=".05" fill="#3a414a"/><path d="M619.68 2680.27l-14.26 4.63v-9.27z" fill="#3a414a"/><path d="M621.22 2680.27l-16.28 5.3v-10.6zm-15.33 3.98l12.24-3.98-12.25-4z" stroke="#3a414a" stroke-width=".05" fill="#3a414a"/><use xlink:href="#c" transform="matrix(1,0,0,1,552.9674266550079,2669.5114583333334) translate(0 17.22222222222222)"/><path d="M702.3 2680.27c0 22.1-17.9 40-40 40s-40-17.9-40-40 17.9-40 40-40 40 17.9 40 40z" stroke="#000" stroke-width="2"/><use xlink:href="#B" transform="matrix(1,0,0,1,627.3,2645.266666666667) translate(27.822265625 43.40277777777778)"/><path d="M207.3 2820.27c0 22.1-17.9 40-40 40s-40-17.9-40-40 17.9-40 40-40 40 17.9 40 40z" stroke="#000" stroke-width="2"/><use xlink:href="#g" transform="matrix(1,0,0,1,132.30000000000018,2785.266666666667) translate(30.48068576388889 43.40277777777778)"/><path d="M208.8 2820.27h66.12" stroke="#3a414a" fill="none"/><path d="M208.8 2820.74h-.53l.03-.46-.02-.5h.53z" stroke="#3a414a" stroke-width=".05" fill="#3a414a"/><path d="M289.68 2820.27l-14.26 4.63v-9.27z" stroke="#3a414a" fill="#3a414a"/><path d="M372.3 2820.27c0 22.1-17.9 40-40 40s-40-17.9-40-40 17.9-40 40-40 40 17.9 40 40z" stroke="#000" stroke-width="2"/><use xlink:href="#h" transform="matrix(1,0,0,1,297.3000000000002,2785.266666666667) translate(28.228741319444445 23.71527777777778)"/><use xlink:href="#i" transform="matrix(1,0,0,1,297.3000000000002,2785.266666666667) translate(5.567065972222226 55.98090277777778)"/><path d="M386.06 2820.74H373.8v-.95h12.26zm51.36 0h-12.98v-.95h12.98z" stroke="#3a414a" stroke-width=".05" fill="#3a414a"/><path d="M373.8 2820.74h-.53l.03-.46-.02-.5h.53z" fill="#3a414a"/><path stroke="#3a414a" stroke-width=".05" fill="#3a414a"/><path d="M452.18 2820.27l-14.26 4.63v-9.27z" fill="#3a414a"/><path d="M453.72 2820.27l-16.28 5.3v-10.6zm-15.33 3.98l12.24-3.98-12.25-4z" stroke="#3a414a" stroke-width=".05" fill="#3a414a"/><use xlink:href="#m" transform="matrix(1,0,0,1,399.3232411788233,2809.5114583333334) translate(0 17.22222222222222)"/><use xlink:href="#j" transform="matrix(1,0,0,1,386.0639487161233,2809.5114583333334) translate(0 17.22222222222222)"/><path d="M534.8 2820.27c0 22.1-17.9 40-40 40s-40-17.9-40-40 17.9-40 40-40 40 17.9 40 40z" stroke="#000" stroke-width="2"/><use xlink:href="#B" transform="matrix(1,0,0,1,459.80000000000007,2785.266666666667) translate(27.822265625 43.40277777777778)"/><path d="M220 2926.27a6 6 0 0 1 6-6h379a6 6 0 0 1 6 6V3214a6 6 0 0 1-6 6H226a6 6 0 0 1-6-6z" stroke="#000" stroke-width="2" fill="#fff"/><use xlink:href="#aa" transform="matrix(1,0,0,1,225,2925.266666666667) translate(2.9728732638888857 39.65277777777778)"/><use xlink:href="#ab" transform="matrix(1,0,0,1,225,2925.266666666667) translate(64.00802951388889 39.65277777777778)"/><use xlink:href="#ac" transform="matrix(1,0,0,1,225,2925.266666666667) translate(140.58138020833334 39.65277777777778)"/><use xlink:href="#ad" transform="matrix(1,0,0,1,225,2925.266666666667) translate(185.35134548611111 39.65277777777778)"/><use xlink:href="#ae" transform="matrix(1,0,0,1,225,2925.266666666667) translate(218.53276909722223 39.65277777777778)"/><use xlink:href="#af" transform="matrix(1,0,0,1,225,2925.266666666667) translate(238.38953993055557 39.65277777777778)"/><use xlink:href="#ag" transform="matrix(1,0,0,1,225,2925.266666666667) translate(278.0054253472223 39.65277777777778)"/><use xlink:href="#ah" transform="matrix(1,0,0,1,225,2925.266666666667) translate(342.697265625 39.65277777777778)"/><use xlink:href="#ai" transform="matrix(1,0,0,1,225,2925.266666666667) translate(363.0531684027778 39.65277777777778)"/><use xlink:href="#aj" transform="matrix(1,0,0,1,225,2925.266666666667) translate(75.4338107638889 71.91840277777777)"/><use xlink:href="#ag" transform="matrix(1,0,0,1,225,2925.266666666667) translate(103.37434895833334 71.91840277777777)"/><use xlink:href="#ak" transform="matrix(1,0,0,1,225,2925.266666666667) translate(168.06618923611114 71.91840277777777)"/><use xlink:href="#al" transform="matrix(1,0,0,1,225,2925.266666666667) translate(203.51540798611114 71.91840277777777)"/><use xlink:href="#am" transform="matrix(1,0,0,1,225,2925.266666666667) translate(190.5 104.18402777777777)"/><use xlink:href="#an" transform="matrix(1,0,0,1,225,2925.266666666667) translate(85.62261284722223 136.44965277777777)"/><use xlink:href="#ao" transform="matrix(1,0,0,1,225,2925.266666666667) translate(228.6890190972222 136.44965277777777)"/><use xlink:href="#ap" transform="matrix(1,0,0,1,225,2925.266666666667) translate(190.5 168.71527777777777)"/><use xlink:href="#aq" transform="matrix(1,0,0,1,225,2925.266666666667) translate(86.8161892361111 200.98090277777777)"/><use xlink:href="#ae" transform="matrix(1,0,0,1,225,2925.266666666667) translate(147.85134548611111 200.98090277777777)"/><use xlink:href="#ag" transform="matrix(1,0,0,1,225,2925.266666666667) translate(167.70811631944446 200.98090277777777)"/><use xlink:href="#ar" transform="matrix(1,0,0,1,225,2925.266666666667) translate(232.39995659722223 200.98090277777777)"/><use xlink:href="#as" transform="matrix(1,0,0,1,225,2925.266666666667) translate(267.84917534722223 200.98090277777777)"/><use xlink:href="#ap" transform="matrix(1,0,0,1,225,2925.266666666667) translate(190.5 233.24652777777777)"/><use xlink:href="#at" transform="matrix(1,0,0,1,225,2925.266666666667) translate(52.85894097222223 265.51215277777777)"/><use xlink:href="#au" transform="matrix(1,0,0,1,225,2925.266666666667) translate(130.03993055555554 265.51215277777777)"/><use xlink:href="#av" transform="matrix(1,0,0,1,225,2925.266666666667) translate(191.25954861111111 265.51215277777777)"/><use xlink:href="#aw" transform="matrix(1,0,0,1,225,2925.266666666667) translate(217.88715277777777 265.51215277777777)"/><path d="M280-166.93c0 22.1-17.9 40-40 40s-40-17.9-40-40 17.9-40 40-40 40 17.9 40 40z" stroke="#000" stroke-width="2"/><g><use xlink:href="#g" transform="matrix(1,0,0,1,204.99999999999986,-201.93374302216847) translate(30.48068576388889 43.40277777777778)"/></g><path d="M281.5-166.93h66.12" stroke="#3a414a" fill="none"/><path d="M281.5-166.46h-.53l.03-.46-.02-.5h.53z" stroke="#3a414a" stroke-width=".05" fill="#3a414a"/><path d="M362.38-166.93l-14.26 4.63v-9.27z" stroke="#3a414a" fill="#3a414a"/><path d="M445-166.93c0 22.1-17.9 40-40 40s-40-17.9-40-40 17.9-40 40-40 40 17.9 40 40z" stroke="#000" stroke-width="2"/><g><use xlink:href="#d" transform="matrix(1,0,0,1,369.9999999999999,-201.93374302216847) translate(28.223741319444443 43.40277777777778)"/></g><path d="M446.5-166.93h66.12" stroke="#3a414a" fill="none"/><path d="M446.5-166.46h-.53l.03-.46-.02-.5h.53z" stroke="#3a414a" stroke-width=".05" fill="#3a414a"/><path d="M527.38-166.93l-14.26 4.63v-9.27z" stroke="#3a414a" fill="#3a414a"/><path d="M610-166.93c0 22.1-17.9 40-40 40s-40-17.9-40-40 17.9-40 40-40 40 17.9 40 40z" stroke="#000" stroke-width="2"/><g><use xlink:href="#l" transform="matrix(1,0,0,1,534.9999999999998,-201.93374302216847) translate(28.14193576388889 23.71527777777778)"/><use xlink:href="#i" transform="matrix(1,0,0,1,534.9999999999998,-201.93374302216847) translate(5.567065972222226 55.98090277777778)"/></g><path d="M280-306.93c0 22.1-17.9 40-40 40s-40-17.9-40-40 17.9-40 40-40 40 17.9 40 40z" stroke="#000" stroke-width="2"/><g><use xlink:href="#ax" transform="matrix(1,0,0,1,204.99999999999986,-341.9337430221684) translate(30.48068576388889 43.40277777777778)"/></g><path d="M281.5-306.93h66.12" stroke="#3a414a" fill="none"/><path d="M281.5-306.46h-.53l.03-.46-.02-.5h.53z" stroke="#3a414a" stroke-width=".05" fill="#3a414a"/><path d="M362.38-306.93l-14.26 4.63v-9.27z" stroke="#3a414a" fill="#3a414a"/><path d="M445-306.93c0 22.1-17.9 40-40 40s-40-17.9-40-40 17.9-40 40-40 40 17.9 40 40z" stroke="#000" stroke-width="2"/><g><use xlink:href="#h" transform="matrix(1,0,0,1,369.9999999999999,-341.9337430221684) translate(28.228741319444445 23.71527777777778)"/><use xlink:href="#i" transform="matrix(1,0,0,1,369.9999999999999,-341.9337430221684) translate(5.567065972222226 55.98090277777778)"/></g><path d="M459.5-306.46h-13v-.95h13zm53.12 0H497.9v-.95h14.72z" stroke="#3a414a" stroke-width=".05" fill="#3a414a"/><path d="M446.5-306.46h-.53l.03-.46-.02-.5h.53z" fill="#3a414a"/><path stroke="#3a414a" stroke-width=".05" fill="#3a414a"/><path d="M527.38-306.93l-14.26 4.63v-9.27z" fill="#3a414a"/><path d="M528.92-306.93l-16.28 5.3v-10.6zm-15.33 3.98l12.24-3.98-12.25-4z" stroke="#3a414a" stroke-width=".05" fill="#3a414a"/><g><use xlink:href="#c" transform="matrix(1,0,0,1,459.51037262262207,-317.68895135550173) translate(0 17.22222222222222)"/></g><path d="M610-306.93c0 22.1-17.9 40-40 40s-40-17.9-40-40 17.9-40 40-40 40 17.9 40 40z" stroke="#000" stroke-width="2"/><g><use xlink:href="#Z" transform="matrix(1,0,0,1,534.9999999999998,-341.9337430221684) translate(28.13693576388889 43.40277777777778)"/></g><path d="M280-446.93c0 22.1-17.9 40-40 40s-40-17.9-40-40 17.9-40 40-40 40 17.9 40 40z" stroke="#000" stroke-width="2"/><g><use xlink:href="#s" transform="matrix(1,0,0,1,204.99999999999983,-481.9337430221684) translate(30.48568576388889 23.71527777777778)"/><use xlink:href="#i" transform="matrix(1,0,0,1,204.99999999999983,-481.9337430221684) translate(5.567065972222226 55.98090277777778)"/></g><path d="M295.13-446.46H281.5v-.95h13.63zm52.5 0H333.5v-.95h14.12z" stroke="#3a414a" stroke-width=".05" fill="#3a414a"/><path d="M281.5-446.46h-.53l.03-.46-.02-.5h.53z" fill="#3a414a"/><path stroke="#3a414a" stroke-width=".05" fill="#3a414a"/><path d="M362.38-446.93l-14.26 4.63v-9.27z" fill="#3a414a"/><path d="M363.92-446.93l-16.28 5.3v-10.6zm-15.33 3.98l12.24-3.98-12.25-4z" stroke="#3a414a" stroke-width=".05" fill="#3a414a"/><g><use xlink:href="#c" transform="matrix(1,0,0,1,295.1329350999795,-457.68895135550173) translate(0 17.22222222222222)"/></g><path d="M445-446.93c0 22.1-17.9 40-40 40s-40-17.9-40-40 17.9-40 40-40 40 17.9 40 40z" stroke="#000" stroke-width="2"/><g><use xlink:href="#k" transform="matrix(1,0,0,1,369.9999999999999,-481.9337430221684) translate(28.223741319444443 43.40277777777778)"/></g><path d="M446.5-446.93h66.12" stroke="#3a414a" fill="none"/><path d="M446.5-446.46h-.53l.03-.46-.02-.5h.53z" stroke="#3a414a" stroke-width=".05" fill="#3a414a"/><path d="M527.38-446.93l-14.26 4.63v-9.27z" stroke="#3a414a" fill="#3a414a"/><path d="M610-446.93c0 22.1-17.9 40-40 40s-40-17.9-40-40 17.9-40 40-40 40 17.9 40 40z" stroke="#000" stroke-width="2"/><g><use xlink:href="#e" transform="matrix(1,0,0,1,534.9999999999998,-481.9337430221684) translate(28.13693576388889 43.40277777777778)"/></g><path d="M330.2-621.2a6 6 0 0 1 6-6h137.6a6 6 0 0 1 6 6v68.27a6 6 0 0 1-6 6H336.2a6 6 0 0 1-6-6z" stroke="#000" stroke-width="2" fill="#fff"/><g><use xlink:href="#ay" transform="matrix(1,0,0,1,335.1999999999998,-622.2004096888353) translate(36.715494791666664 43.71527777777778)"/></g><path d="M202.64-60.93a6 6 0 0 1 6-6h392.72a6 6 0 0 1 6 6V73.73a6 6 0 0 1-6 6H208.64a6 6 0 0 1-6-6z" stroke="#000" stroke-width="2" fill="#fff"/><g><use xlink:href="#aa" transform="matrix(1,0,0,1,207.6392247759835,-61.93374302216847) translate(9.972873263888886 30.09027777777778)"/><use xlink:href="#ab" transform="matrix(1,0,0,1,207.6392247759835,-61.93374302216847) translate(71.00802951388889 30.09027777777778)"/><use xlink:href="#ac" transform="matrix(1,0,0,1,207.6392247759835,-61.93374302216847) translate(147.58138020833334 30.09027777777778)"/><use xlink:href="#ad" transform="matrix(1,0,0,1,207.6392247759835,-61.93374302216847) translate(192.35134548611111 30.09027777777778)"/><use xlink:href="#ae" transform="matrix(1,0,0,1,207.6392247759835,-61.93374302216847) translate(225.53276909722223 30.09027777777778)"/><use xlink:href="#af" transform="matrix(1,0,0,1,207.6392247759835,-61.93374302216847) translate(245.38953993055557 30.09027777777778)"/><use xlink:href="#ag" transform="matrix(1,0,0,1,207.6392247759835,-61.93374302216847) translate(285.0054253472223 30.09027777777778)"/><use xlink:href="#ah" transform="matrix(1,0,0,1,207.6392247759835,-61.93374302216847) translate(349.697265625 30.09027777777778)"/><use xlink:href="#ai" transform="matrix(1,0,0,1,207.6392247759835,-61.93374302216847) translate(370.0531684027778 30.09027777777778)"/><use xlink:href="#aj" transform="matrix(1,0,0,1,207.6392247759835,-61.93374302216847) translate(82.4338107638889 62.35590277777778)"/><use xlink:href="#ag" transform="matrix(1,0,0,1,207.6392247759835,-61.93374302216847) translate(110.37434895833334 62.35590277777778)"/><use xlink:href="#ak" transform="matrix(1,0,0,1,207.6392247759835,-61.93374302216847) translate(175.06618923611114 62.35590277777778)"/><use xlink:href="#al" transform="matrix(1,0,0,1,207.6392247759835,-61.93374302216847) translate(210.51540798611114 62.35590277777778)"/><use xlink:href="#am" transform="matrix(1,0,0,1,207.6392247759835,-61.93374302216847) translate(197.5 94.62152777777777)"/><use xlink:href="#az" transform="matrix(1,0,0,1,207.6392247759835,-61.93374302216847) translate(132.76475694444446 126.88715277777777)"/><use xlink:href="#aA" transform="matrix(1,0,0,1,207.6392247759835,-61.93374302216847) translate(204.71571180555557 126.88715277777777)"/></g><defs><path fill="#fff" d="M653-1490V0H466v-1314h-10L96-1047v-204l324-239h233" id="aB"/><use transform="matrix(0.010850694444444444,0,0,0.010850694444444444,0,0)" xlink:href="#aB" id="a"/><path fill="#fff" d="M218-607c0-325 108-727 258-974h175c-155 315-250 682-250 974 0 265 78 531 250 886H476C306-10 218-315 218-607" id="aC"/><path fill="#fff" d="M613 24c-304 0-509-231-509-576 0-350 205-580 509-580 216 0 392 114 453 309l-173 49c-33-115-133-197-280-197-223 0-326 196-326 419 0 220 103 415 326 415 150 0 252-85 285-206l172 49C1010-95 832 24 613 24" id="aD"/><path fill="#fff" d="M537 14c-226 0-379-139-379-422v-710h180v695c0 172 97 275 253 275 160 0 281-109 281-300v-670h181V0H879v-209C806-46 684 14 537 14" id="aE"/><path fill="#fff" d="M158 0v-1118h174v172h12c41-113 157-188 290-188 26 0 70 2 91 3v181c-11-2-60-10-108-10-161 0-279 109-279 260V0H158" id="aF"/><path fill="#fff" d="M96 279C273-86 346-350 346-607c0-292-95-659-250-974h175c150 246 258 650 258 974 0 297-91 602-258 886H96" id="aG"/><g id="b"><use transform="matrix(0.010850694444444444,0,0,0.010850694444444444,0,0)" xlink:href="#aC"/><use transform="matrix(0.010850694444444444,0,0,0.010850694444444444,7.855902777777778,0)" xlink:href="#aD"/><use transform="matrix(0.010850694444444444,0,0,0.010850694444444444,20.55121527777778,0)" xlink:href="#aE"/><use transform="matrix(0.010850694444444444,0,0,0.010850694444444444,33.69140625,0)" xlink:href="#aF"/><use transform="matrix(0.010850694444444444,0,0,0.010850694444444444,42.404513888888886,0)" xlink:href="#aF"/><use transform="matrix(0.010850694444444444,0,0,0.010850694444444444,50.77039930555556,0)" xlink:href="#aG"/></g><path fill="#333" d="M428-647V0H128v-1118h283l4 231c63-156 176-245 348-245 232 0 384 159 384 421V0H847v-659c0-139-76-222-202-222-128 0-217 86-217 234" id="aH"/><path fill="#333" d="M633 22C291 22 81-200 81-553c0-345 210-579 537-579 292 0 525 185 525 567v84H378c7 183 109 277 260 277 105 0 184-46 216-132l272 51C1071-99 893 22 633 22zM380-669h474c-15-146-94-237-233-237-143 0-229 99-241 237" id="aI"/><path fill="#333" d="M42 0l360-574-338-544h324c72 124 151 261 209 394 58-134 140-271 215-394h318L785-570 1146 0H824c-79-136-169-280-234-425C528-278 439-134 360 0H42" id="aJ"/><path fill="#333" d="M683-1118v229H474v562c0 71 29 104 102 104 23 0 73-7 95-13l43 225C647 9 580 16 520 16 296 16 174-96 174-301v-588H20v-229h154v-266h300v266h209" id="aK"/><g id="c"><use transform="matrix(0.008680555555555556,0,0,0.008680555555555556,0,0)" xlink:href="#aH"/><use transform="matrix(0.008680555555555556,0,0,0.008680555555555556,11.067708333333334,0)" xlink:href="#aI"/><use transform="matrix(0.008680555555555556,0,0,0.008680555555555556,21.302083333333336,0)" xlink:href="#aJ"/><use transform="matrix(0.008680555555555556,0,0,0.008680555555555556,31.866319444444446,0)" xlink:href="#aK"/></g><path fill="#fff" d="M154 0v-137l495-537c165-179 249-281 249-418 0-156-121-253-280-253-170 0-278 110-278 278H158c0-264 200-443 465-443 266 0 455 183 455 416 0 161-73 288-336 568L416-179v12h687V0H154" id="aL"/><use transform="matrix(0.010850694444444444,0,0,0.010850694444444444,0,0)" xlink:href="#aL" id="d"/><path fill="#fff" d="M635 20c-292 0-500-160-510-396h192c11 142 145 229 315 229 187 0 323-105 323-260 0-161-125-274-346-274H488v-165h121c174 0 294-100 294-254 0-148-104-245-266-245-152 0-291 85-297 230H157c8-234 222-395 484-395 278 0 448 188 448 400 0 168-95 291-247 336v12c190 31 301 169 301 357 0 244-216 425-508 425" id="aM"/><use transform="matrix(0.010850694444444444,0,0,0.010850694444444444,0,0)" xlink:href="#aM" id="e"/><path d="M52 0l541-1490h220L1361 0h-200l-149-416H398L254 0H52zm404-582h497c-103-290-145-390-251-756-108 377-145 460-246 756" id="aN"/><path d="M158 418v-1536h174v179h20c37-59 106-193 324-193 279 0 474 222 474 576 0 356-194 580-473 580-213 0-288-135-325-197h-14v591H158zm492-555c209 0 317-186 317-421 0-232-105-413-317-413-206 0-314 166-314 413 0 249 111 421 314 421" id="aO"/><path d="M628 24c-324 0-524-230-524-574 0-343 198-582 503-582 237 0 487 146 487 559v75H286c9 234 145 362 343 362 132 0 231-58 273-172l174 48C1024-91 857 24 628 24zM287-650h624c-17-190-120-322-304-322-192 0-309 151-320 322" id="aP"/><path d="M338-670V0H158v-1118h173l1 207c72-158 192-221 342-221 226 0 378 139 378 422V0H872v-695c0-172-96-275-252-275-161 0-282 109-282 300" id="aQ"/><path d="M577 24c-279 0-473-224-473-580 0-354 195-576 474-576 218 0 287 134 324 193h14v-551h180V0H922v-173h-20C865-111 790 24 577 24zm27-161c203 0 314-172 314-421 0-247-108-413-314-413-212 0-317 181-317 413 0 235 108 421 317 421" id="aR"/><path d="M218-607c0-325 108-727 258-974h175c-155 315-250 682-250 974 0 265 78 531 250 886H476C306-10 218-315 218-607" id="aS"/><path d="M120-303v-155l652-1032h231v1020h202v167h-202V0H821v-303H120zm702-167v-782h-12L323-482v12h499" id="aT"/><path d="M96 279C273-86 346-350 346-607c0-292-95-659-250-974h175c150 246 258 650 258 974 0 297-91 602-258 886H96" id="aU"/><g id="f"><use transform="matrix(0.010850694444444444,0,0,0.010850694444444444,0,0)" xlink:href="#aN"/><use transform="matrix(0.010850694444444444,0,0,0.010850694444444444,15.33203125,0)" xlink:href="#aO"/><use transform="matrix(0.010850694444444444,0,0,0.010850694444444444,28.938802083333332,0)" xlink:href="#aO"/><use transform="matrix(0.010850694444444444,0,0,0.010850694444444444,42.545572916666664,0)" xlink:href="#aP"/><use transform="matrix(0.010850694444444444,0,0,0.010850694444444444,55.50130208333333,0)" xlink:href="#aQ"/><use transform="matrix(0.010850694444444444,0,0,0.010850694444444444,68.6306423611111,0)" xlink:href="#aR"/><use transform="matrix(0.010850694444444444,0,0,0.010850694444444444,82.23741319444443,0)" xlink:href="#aS"/><use transform="matrix(0.010850694444444444,0,0,0.010850694444444444,90.34288194444441,0)" xlink:href="#aT"/><use transform="matrix(0.010850694444444444,0,0,0.010850694444444444,104.69835069444441,0)" xlink:href="#aU"/></g><use transform="matrix(0.010850694444444444,0,0,0.010850694444444444,0,0)" xlink:href="#aB" id="g"/><use transform="matrix(0.010850694444444444,0,0,0.010850694444444444,0,0)" xlink:href="#aL" id="h"/><g id="i"><use transform="matrix(0.010850694444444444,0,0,0.010850694444444444,0,0)" xlink:href="#aC"/><use transform="matrix(0.010850694444444444,0,0,0.010850694444444444,7.855902777777778,0)" xlink:href="#aD"/><use transform="matrix(0.010850694444444444,0,0,0.010850694444444444,20.55121527777778,0)" xlink:href="#aE"/><use transform="matrix(0.010850694444444444,0,0,0.010850694444444444,33.69140625,0)" xlink:href="#aF"/><use transform="matrix(0.010850694444444444,0,0,0.010850694444444444,42.404513888888886,0)" xlink:href="#aF"/><use transform="matrix(0.010850694444444444,0,0,0.010850694444444444,50.77039930555556,0)" xlink:href="#aG"/></g><path d="M428-647V0H128v-1118h283l4 231c63-156 176-245 348-245 232 0 384 159 384 421V0H847v-659c0-139-76-222-202-222-128 0-217 86-217 234" id="aV"/><path d="M633 22C291 22 81-200 81-553c0-345 210-579 537-579 292 0 525 185 525 567v84H378c7 183 109 277 260 277 105 0 184-46 216-132l272 51C1071-99 893 22 633 22zM380-669h474c-15-146-94-237-233-237-143 0-229 99-241 237" id="aW"/><path d="M42 0l360-574-338-544h324c72 124 151 261 209 394 58-134 140-271 215-394h318L785-570 1146 0H824c-79-136-169-280-234-425C528-278 439-134 360 0H42" id="aX"/><path d="M683-1118v229H474v562c0 71 29 104 102 104 23 0 73-7 95-13l43 225C647 9 580 16 520 16 296 16 174-96 174-301v-588H20v-229h154v-266h300v266h209" id="aY"/><g id="j"><use transform="matrix(0.008680555555555556,0,0,0.008680555555555556,0,0)" xlink:href="#aV"/><use transform="matrix(0.008680555555555556,0,0,0.008680555555555556,11.067708333333334,0)" xlink:href="#aW"/><use transform="matrix(0.008680555555555556,0,0,0.008680555555555556,21.302083333333336,0)" xlink:href="#aX"/><use transform="matrix(0.008680555555555556,0,0,0.008680555555555556,31.866319444444446,0)" xlink:href="#aY"/></g><use transform="matrix(0.010850694444444444,0,0,0.010850694444444444,0,0)" xlink:href="#aL" id="k"/><use transform="matrix(0.010850694444444444,0,0,0.010850694444444444,0,0)" xlink:href="#aM" id="l"/><path fill="#fff" d="M120-303v-155l652-1032h231v1020h202v167h-202V0H821v-303H120zm702-167v-782h-12L323-482v12h499" id="aZ"/><use transform="matrix(0.010850694444444444,0,0,0.010850694444444444,0,0)" xlink:href="#aZ" id="n"/><path fill="#fff" d="M481 0L54-1118h197c107 314 236 620 325 951 87-331 217-637 324-951h197L670 0H481" id="ba"/><path fill="#fff" d="M471 26C259 26 90-98 90-318c0-256 228-303 435-329 202-27 287-16 287-108 0-139-79-219-234-219-161 0-248 86-283 164l-173-57c86-203 278-265 451-265 150 0 419 46 419 395V0H815v-152h-12C765-73 660 26 471 26zm31-159c199 0 310-134 310-271v-155c-30 35-226 55-295 64-131 17-246 59-246 186 0 116 97 176 231 176" id="bb"/><path fill="#fff" d="M338-1490V0H158v-1490h180" id="bc"/><g id="o"><use transform="matrix(0.010850694444444444,0,0,0.010850694444444444,0,0)" xlink:href="#aC"/><use transform="matrix(0.010850694444444444,0,0,0.010850694444444444,8.10546875,0)" xlink:href="#ba"/><use transform="matrix(0.010850694444444444,0,0,0.010850694444444444,20.48611111111111,0)" xlink:href="#bb"/><use transform="matrix(0.010850694444444444,0,0,0.010850694444444444,32.96440972222222,0)" xlink:href="#bc"/><use transform="matrix(0.010850694444444444,0,0,0.010850694444444444,38.346354166666664,0)" xlink:href="#aG"/></g><path d="M180 0v-1490h908v168H370v486h669v168H370v500h727V0H180" id="bd"/><path d="M158 0v-1118h175l1 205c55-151 181-225 313-225 147 0 245 90 285 228 53-141 190-228 352-228 194 0 352 125 352 384V0h-181v-749c0-161-105-225-225-225-151 0-243 103-243 244V0H807v-767c0-124-93-207-219-207-131 0-250 92-250 270V0H158" id="be"/><path d="M598-1118v154H368v674c0 100 37 144 132 144 23 0 62-6 92-12L629-6c-37 13-88 20-134 20-193 0-307-107-307-290v-688H20v-154h168v-266h180v266h230" id="bf"/><path d="M140 405l46-156c120 36 205 19 263-150l32-93L54-1118h197c107 313 237 620 324 950 87-331 219-637 326-950h196L606 167c-68 178-176 259-334 259-64 0-113-12-132-21" id="bg"/><g id="p"><use transform="matrix(0.010850694444444444,0,0,0.010850694444444444,0,0)" xlink:href="#bd"/><use transform="matrix(0.010850694444444444,0,0,0.010850694444444444,13.35720486111111,0)" xlink:href="#be"/><use transform="matrix(0.010850694444444444,0,0,0.010850694444444444,32.82335069444444,0)" xlink:href="#aO"/><use transform="matrix(0.010850694444444444,0,0,0.010850694444444444,46.43012152777778,0)" xlink:href="#bf"/><use transform="matrix(0.010850694444444444,0,0,0.010850694444444444,54.13411458333333,0)" xlink:href="#bg"/></g><path d="M180 0v-1490h190v1322h690V0H180" id="bh"/><path d="M158 0v-1118h180V0H158zm91-1301c-68 0-125-53-125-119s57-119 125-119c69 0 126 53 126 119s-57 119-126 119" id="bi"/><path d="M538 24C308 24 148-78 108-271l171-41c32 123 123 178 257 178 156 0 256-77 256-169 0-77-54-128-164-154l-186-44c-203-48-300-148-300-305 0-192 176-326 414-326 230 0 351 112 402 269l-163 42c-31-80-94-158-238-158-133 0-233 69-233 162 0 83 57 129 188 160l169 40c203 48 298 149 298 302 0 196-179 339-441 339" id="bj"/><g id="q"><use transform="matrix(0.010850694444444444,0,0,0.010850694444444444,0,0)" xlink:href="#bh"/><use transform="matrix(0.010850694444444444,0,0,0.010850694444444444,12.565104166666666,0)" xlink:href="#bi"/><use transform="matrix(0.010850694444444444,0,0,0.010850694444444444,17.94704861111111,0)" xlink:href="#bj"/><use transform="matrix(0.010850694444444444,0,0,0.010850694444444444,29.67664930555556,0)" xlink:href="#bf"/></g><path d="M653-1490V0H466v-1314h-10L96-1047v-204l324-239h233" id="bk"/><g id="r"><use transform="matrix(0.010850694444444444,0,0,0.010850694444444444,0,0)" xlink:href="#aN"/><use transform="matrix(0.010850694444444444,0,0,0.010850694444444444,15.33203125,0)" xlink:href="#aO"/><use transform="matrix(0.010850694444444444,0,0,0.010850694444444444,28.938802083333332,0)" xlink:href="#aO"/><use transform="matrix(0.010850694444444444,0,0,0.010850694444444444,42.545572916666664,0)" xlink:href="#aP"/><use transform="matrix(0.010850694444444444,0,0,0.010850694444444444,55.50130208333333,0)" xlink:href="#aQ"/><use transform="matrix(0.010850694444444444,0,0,0.010850694444444444,68.6306423611111,0)" xlink:href="#aR"/><use transform="matrix(0.010850694444444444,0,0,0.010850694444444444,82.23741319444443,0)" xlink:href="#aS"/><use transform="matrix(0.010850694444444444,0,0,0.010850694444444444,90.34288194444441,0)" xlink:href="#bk"/><use transform="matrix(0.010850694444444444,0,0,0.010850694444444444,99.38151041666666,0)" xlink:href="#aU"/></g><use transform="matrix(0.010850694444444444,0,0,0.010850694444444444,0,0)" xlink:href="#aB" id="s"/><path fill="#fff" d="M338-670V0H158v-1490h180v566c73-149 190-208 336-208 226 0 379 139 379 422V0H872v-695c0-172-96-275-252-275-161 0-282 109-282 300" id="bl"/><path fill="#fff" d="M628 24c-324 0-524-230-524-574 0-343 198-582 503-582 237 0 487 146 487 559v75H286c9 234 145 362 343 362 132 0 231-58 273-172l174 48C1024-91 857 24 628 24zM287-650h624c-17-190-120-322-304-322-192 0-309 151-320 322" id="bm"/><path fill="#fff" d="M577 24c-279 0-473-224-473-580 0-354 195-576 474-576 218 0 287 134 324 193h14v-551h180V0H922v-173h-20C865-111 790 24 577 24zm27-161c203 0 314-172 314-421 0-247-108-413-314-413-212 0-317 181-317 413 0 235 108 421 317 421" id="bn"/><g id="t"><use transform="matrix(0.010850694444444444,0,0,0.010850694444444444,0,0)" xlink:href="#aC"/><use transform="matrix(0.010850694444444444,0,0,0.010850694444444444,8.10546875,0)" xlink:href="#bl"/><use transform="matrix(0.010850694444444444,0,0,0.010850694444444444,21.24565972222222,0)" xlink:href="#bm"/><use transform="matrix(0.010850694444444444,0,0,0.010850694444444444,34.41840277777778,0)" xlink:href="#bb"/><use transform="matrix(0.010850694444444444,0,0,0.010850694444444444,46.896701388888886,0)" xlink:href="#bn"/><use transform="matrix(0.010850694444444444,0,0,0.010850694444444444,60.50347222222221,0)" xlink:href="#aG"/></g><path d="M180 0v-1490h510c348 0 508 209 508 474 0 266-160 477-507 477H370V0H180zm190-706h312c236 0 327-133 327-310 0-176-91-307-329-307H370v617" id="bo"/><path d="M158 0v-1118h174v172h12c41-113 157-188 290-188 26 0 70 2 91 3v181c-11-2-60-10-108-10-161 0-279 109-279 260V0H158" id="bp"/><g id="u"><use transform="matrix(0.010850694444444444,0,0,0.010850694444444444,0,0)" xlink:href="#bo"/><use transform="matrix(0.010850694444444444,0,0,0.010850694444444444,14.192708333333332,0)" xlink:href="#bp"/><use transform="matrix(0.010850694444444444,0,0,0.010850694444444444,22.189670138888886,0)" xlink:href="#aP"/><use transform="matrix(0.010850694444444444,0,0,0.010850694444444444,35.14539930555555,0)" xlink:href="#aO"/><use transform="matrix(0.010850694444444444,0,0,0.010850694444444444,48.752170138888886,0)" xlink:href="#aP"/><use transform="matrix(0.010850694444444444,0,0,0.010850694444444444,61.70789930555555,0)" xlink:href="#aQ"/><use transform="matrix(0.010850694444444444,0,0,0.010850694444444444,74.83723958333333,0)" xlink:href="#aR"/><use transform="matrix(0.010850694444444444,0,0,0.010850694444444444,88.44401041666666,0)" xlink:href="#aS"/><use transform="matrix(0.010850694444444444,0,0,0.010850694444444444,96.54947916666666,0)" xlink:href="#bk"/><use transform="matrix(0.010850694444444444,0,0,0.010850694444444444,105.58810763888889,0)" xlink:href="#aU"/></g><g id="v"><use transform="matrix(0.010850694444444444,0,0,0.010850694444444444,0,0)" xlink:href="#aC"/><use transform="matrix(0.010850694444444444,0,0,0.010850694444444444,8.10546875,0)" xlink:href="#ba"/><use transform="matrix(0.010850694444444444,0,0,0.010850694444444444,20.48611111111111,0)" xlink:href="#bb"/><use transform="matrix(0.010850694444444444,0,0,0.010850694444444444,32.96440972222222,0)" xlink:href="#bc"/><use transform="matrix(0.010850694444444444,0,0,0.010850694444444444,38.346354166666664,0)" xlink:href="#aG"/></g><path d="M370-1490V0H180v-1490h190" id="bq"/><path d="M154 0v-137l495-537c165-179 249-281 249-418 0-156-121-253-280-253-170 0-278 110-278 278H158c0-264 200-443 465-443 266 0 455 183 455 416 0 161-73 288-336 568L416-179v12h687V0H154" id="br"/><path d="M128 359l88-567h206L266 359H128" id="bs"/><g id="w"><use transform="matrix(0.010850694444444444,0,0,0.010850694444444444,0,0)" xlink:href="#bq"/><use transform="matrix(0.010850694444444444,0,0,0.010850694444444444,5.967881944444445,0)" xlink:href="#aQ"/><use transform="matrix(0.010850694444444444,0,0,0.010850694444444444,19.09722222222222,0)" xlink:href="#bj"/><use transform="matrix(0.010850694444444444,0,0,0.010850694444444444,30.826822916666664,0)" xlink:href="#aP"/><use transform="matrix(0.010850694444444444,0,0,0.010850694444444444,43.78255208333333,0)" xlink:href="#bp"/><use transform="matrix(0.010850694444444444,0,0,0.010850694444444444,52.49565972222221,0)" xlink:href="#bf"/><use transform="matrix(0.010850694444444444,0,0,0.010850694444444444,59.765624999999986,0)" xlink:href="#aS"/><use transform="matrix(0.010850694444444444,0,0,0.010850694444444444,67.87109375,0)" xlink:href="#br"/><use transform="matrix(0.010850694444444444,0,0,0.010850694444444444,81.42361111111111,0)" xlink:href="#bs"/></g><g id="x"><use transform="matrix(0.010850694444444444,0,0,0.010850694444444444,0,0)" xlink:href="#br"/><use transform="matrix(0.010850694444444444,0,0,0.010850694444444444,13.55251736111111,0)" xlink:href="#aU"/></g><use transform="matrix(0.010850694444444444,0,0,0.010850694444444444,0,0)" xlink:href="#aB" id="y"/><g id="z"><use transform="matrix(0.010850694444444444,0,0,0.010850694444444444,0,0)" xlink:href="#aC"/><use transform="matrix(0.010850694444444444,0,0,0.010850694444444444,7.855902777777778,0)" xlink:href="#aD"/><use transform="matrix(0.010850694444444444,0,0,0.010850694444444444,20.55121527777778,0)" xlink:href="#aE"/><use transform="matrix(0.010850694444444444,0,0,0.010850694444444444,33.69140625,0)" xlink:href="#aF"/><use transform="matrix(0.010850694444444444,0,0,0.010850694444444444,42.404513888888886,0)" xlink:href="#aF"/><use transform="matrix(0.010850694444444444,0,0,0.010850694444444444,50.77039930555556,0)" xlink:href="#aG"/></g><use transform="matrix(0.010850694444444444,0,0,0.010850694444444444,0,0)" xlink:href="#aL" id="A"/><use transform="matrix(0.010850694444444444,0,0,0.010850694444444444,0,0)" xlink:href="#aZ" id="B"/><use transform="matrix(0.010850694444444444,0,0,0.010850694444444444,0,0)" xlink:href="#aZ" id="C"/><path d="M458 0L52-1490h194c108 439 233 855 324 1313 92-459 221-873 331-1313h216c110 438 234 854 330 1307 92-455 216-869 323-1307h196L1558 0h-221l-256-944c-26-95-50-200-73-331-22 122-44 223-73 331L680 0H458" id="bt"/><path d="M338-670V0H158v-1490h180v566c73-149 190-208 336-208 226 0 379 139 379 422V0H872v-695c0-172-96-275-252-275-161 0-282 109-282 300" id="bu"/><path d="M471 26C259 26 90-98 90-318c0-256 228-303 435-329 202-27 287-16 287-108 0-139-79-219-234-219-161 0-248 86-283 164l-173-57c86-203 278-265 451-265 150 0 419 46 419 395V0H815v-152h-12C765-73 660 26 471 26zm31-159c199 0 310-134 310-271v-155c-30 35-226 55-295 64-131 17-246 59-246 186 0 116 97 176 231 176" id="bv"/><g id="D"><use transform="matrix(0.010850694444444444,0,0,0.010850694444444444,0,0)" xlink:href="#bt"/><use transform="matrix(0.010850694444444444,0,0,0.010850694444444444,21.89670138888889,0)" xlink:href="#bu"/><use transform="matrix(0.010850694444444444,0,0,0.010850694444444444,35.036892361111114,0)" xlink:href="#bv"/><use transform="matrix(0.010850694444444444,0,0,0.010850694444444444,47.51519097222223,0)" xlink:href="#bf"/></g><path d="M613 24c-304 0-509-231-509-576 0-350 205-580 509-580 305 0 511 230 511 580 0 345-206 576-511 576zm0-161c226 0 329-195 329-415 0-222-103-419-329-419-223 0-326 196-326 419 0 220 103 415 326 415" id="bw"/><path d="M537 14c-226 0-379-139-379-422v-710h180v695c0 172 97 275 253 275 160 0 281-109 281-300v-670h181V0H879v-209C806-46 684 14 537 14" id="bx"/><path d="M338-1490V0H158v-1490h180" id="by"/><g id="E"><use transform="matrix(0.010850694444444444,0,0,0.010850694444444444,0,0)" xlink:href="#bj"/><use transform="matrix(0.010850694444444444,0,0,0.010850694444444444,11.729600694444445,0)" xlink:href="#bu"/><use transform="matrix(0.010850694444444444,0,0,0.010850694444444444,24.869791666666664,0)" xlink:href="#bw"/><use transform="matrix(0.010850694444444444,0,0,0.010850694444444444,38.19444444444444,0)" xlink:href="#bx"/><use transform="matrix(0.010850694444444444,0,0,0.010850694444444444,51.334635416666664,0)" xlink:href="#by"/><use transform="matrix(0.010850694444444444,0,0,0.010850694444444444,56.71657986111111,0)" xlink:href="#aR"/></g><g id="F"><use transform="matrix(0.010850694444444444,0,0,0.010850694444444444,0,0)" xlink:href="#bg"/><use transform="matrix(0.010850694444444444,0,0,0.010850694444444444,12.055121527777777,0)" xlink:href="#bw"/><use transform="matrix(0.010850694444444444,0,0,0.010850694444444444,25.379774305555554,0)" xlink:href="#bx"/></g><g id="G"><use transform="matrix(0.010850694444444444,0,0,0.010850694444444444,0,0)" xlink:href="#aR"/><use transform="matrix(0.010850694444444444,0,0,0.010850694444444444,13.606770833333332,0)" xlink:href="#bw"/></g><path d="M678-1118v154H420V0H240v-964H20v-154h220v-149c0-194 155-293 318-293 85 0 141 18 168 30l-50 154c-19-6-47-17-97-17-111 0-159 58-159 166v109h258" id="bz"/><g id="H"><use transform="matrix(0.010850694444444444,0,0,0.010850694444444444,0,0)" xlink:href="#bi"/><use transform="matrix(0.010850694444444444,0,0,0.010850694444444444,5.381944444444445,0)" xlink:href="#bz"/></g><g id="I"><use transform="matrix(0.010850694444444444,0,0,0.010850694444444444,0,0)" xlink:href="#bf"/><use transform="matrix(0.010850694444444444,0,0,0.010850694444444444,7.269965277777778,0)" xlink:href="#bu"/><use transform="matrix(0.010850694444444444,0,0,0.010850694444444444,20.41015625,0)" xlink:href="#aP"/></g><path d="M36 0l185-1118h300L336 0H36zm359-1264c-91 0-153-69-139-154 14-84 99-154 190-154 89 0 153 67 139 154-14 86-100 154-190 154" id="bA"/><path d="M441-638L335 0H35l186-1118h282l-30 213c87-148 206-227 368-227 241 0 374 169 330 431L1055 0H754l112-669c23-140-43-212-161-212-135 0-240 96-264 243" id="bB"/><path d="M457 19C230 19 71-139 71-426c0-345 196-706 543-706 198 0 272 121 298 211h11l94-569h300L1070 0H775l32-179h-16C734-78 632 19 457 19zm100-241c213 0 324-249 324-452 0-136-60-218-181-218-213 0-322 248-322 449 0 134 58 221 179 221" id="bC"/><path d="M552 24C254 24 71-146 71-432c0-377 264-705 643-705 236 0 413 123 413 326 0 251-270 329-766 342-10 155 35 265 213 267 113 0 207-50 245-134l269 36C1015-105 814 24 552 24zM392-650c368-7 456-43 456-146 0-71-63-115-165-115-165 0-251 126-291 261" id="bD"/><path d="M-51 0l455-574-248-544h316c52 123 108 260 144 394 81-133 184-270 280-394h326L786-570 1053 0H738c-58-135-122-278-164-425C488-279 375-135 274 0H-51" id="bE"/><g id="J"><use transform="matrix(0.010850694444444444,0,0,0.010850694444444444,0,0)" xlink:href="#bA"/><use transform="matrix(0.010850694444444444,0,0,0.010850694444444444,6.032986111111111,0)" xlink:href="#bB"/><use transform="matrix(0.010850694444444444,0,0,0.010850694444444444,19.86762152777778,0)" xlink:href="#bC"/><use transform="matrix(0.010850694444444444,0,0,0.010850694444444444,33.87586805555556,0)" xlink:href="#bD"/><use transform="matrix(0.010850694444444444,0,0,0.010850694444444444,46.53862847222223,0)" xlink:href="#bE"/></g><path d="M152-471l42-247 1091-454-46 289-741 283-2 12 647 282-47 287" id="bF"/><use transform="matrix(0.010850694444444444,0,0,0.010850694444444444,0,0)" xlink:href="#bF" id="K"/><path d="M595 20C218 20 45-261 124-744c80-483 349-766 724-766 374 0 549 282 470 765-80 485-346 765-723 765zm41-253c185 0 317-186 371-512 53-325-16-513-201-513-181 0-316 183-371 514-53 326 17 511 201 511" id="bG"/><use transform="matrix(0.010850694444444444,0,0,0.010850694444444444,0,0)" xlink:href="#bG" id="L"/><g id="M"><use transform="matrix(0.010850694444444444,0,0,0.010850694444444444,0,0)" xlink:href="#bw"/><use transform="matrix(0.010850694444444444,0,0,0.010850694444444444,13.324652777777777,0)" xlink:href="#bp"/></g><path d="M1209-471L116-19l48-287 739-282 2-13-645-282 46-289 944 454" id="bH"/><use transform="matrix(0.010850694444444444,0,0,0.010850694444444444,0,0)" xlink:href="#bH" id="N"/><path d="M490 22C212 20 43-104 37-315l281-29c11 104 65 146 186 146 109 0 214-47 222-128 5-51-29-84-119-104l-186-40c-195-42-289-149-277-303 14-232 242-359 510-359 274 2 415 119 430 308l-267 27c-11-76-56-120-162-120-98 0-203 45-211 128-6 50 24 83 118 104l194 40c196 41 291 138 279 289-15 238-265 378-545 378" id="bI"/><path d="M582-1490L335 0H35l247-1490h300" id="bJ"/><path d="M322-1118c41-343 300-502 650-420l-76 227c-27-5-65-8-112-8-109-7-152 86-162 201h242l-37 225H585L430 44c-50 320-279 458-614 393l63-234c134 31 225-1 248-143l157-953H76l37-225h209" id="bK"/><path d="M262 19C158 19 86-65 104-172c15-88 94-152 182-152 106 0 175 85 158 189-14 88-92 154-182 154" id="bL"/><path d="M27 0l30-182 657-686 2-8H189l40-242h897l-33 199-622 669-1 8h530L960 0H27" id="bM"/><path d="M383-449c-3-277 82-343 222-425 88-53 156-134 156-250 0-139-108-227-243-227-118 0-235 70-246 236H82c10-251 200-395 436-395 259 0 427 165 427 393 0 161-74 273-203 352-132 80-180 132-178 316H383zm93 462c-75 0-135-60-135-134 0-75 60-135 135-135 74 0 134 60 134 135 0 74-60 134-134 134" id="bN"/><g id="O"><use transform="matrix(0.010850694444444444,0,0,0.010850694444444444,0,0)" xlink:href="#bI"/><use transform="matrix(0.010850694444444444,0,0,0.010850694444444444,12.434895833333332,0)" xlink:href="#bD"/><use transform="matrix(0.010850694444444444,0,0,0.010850694444444444,25.54253472222222,0)" xlink:href="#bJ"/><use transform="matrix(0.010850694444444444,0,0,0.010850694444444444,31.56467013888889,0)" xlink:href="#bK"/><use transform="matrix(0.010850694444444444,0,0,0.010850694444444444,39.409722222222214,0)" xlink:href="#bL"/><use transform="matrix(0.010850694444444444,0,0,0.010850694444444444,46.83159722222221,0)" xlink:href="#bI"/><use transform="matrix(0.010850694444444444,0,0,0.010850694444444444,59.26649305555554,0)" xlink:href="#bA"/><use transform="matrix(0.010850694444444444,0,0,0.010850694444444444,65.29947916666666,0)" xlink:href="#bM"/><use transform="matrix(0.010850694444444444,0,0,0.010850694444444444,77.58246527777776,0)" xlink:href="#bD"/><use transform="matrix(0.010850694444444444,0,0,0.010850694444444444,90.69010416666664,0)" xlink:href="#bN"/></g><path d="M481 0L54-1118h197c107 314 236 620 325 951 87-331 217-637 324-951h197L670 0H481" id="bO"/><g id="Q"><use transform="matrix(0.010850694444444444,0,0,0.010850694444444444,0,0)" xlink:href="#bo"/><use transform="matrix(0.010850694444444444,0,0,0.010850694444444444,14.192708333333332,0)" xlink:href="#bp"/><use transform="matrix(0.010850694444444444,0,0,0.010850694444444444,22.189670138888886,0)" xlink:href="#aP"/><use transform="matrix(0.010850694444444444,0,0,0.010850694444444444,35.14539930555555,0)" xlink:href="#aP"/><use transform="matrix(0.010850694444444444,0,0,0.010850694444444444,48.10112847222221,0)" xlink:href="#be"/><use transform="matrix(0.010850694444444444,0,0,0.010850694444444444,67.56727430555554,0)" xlink:href="#aO"/><use transform="matrix(0.010850694444444444,0,0,0.010850694444444444,81.17404513888887,0)" xlink:href="#bf"/><use transform="matrix(0.010850694444444444,0,0,0.010850694444444444,88.44401041666664,0)" xlink:href="#bi"/><use transform="matrix(0.010850694444444444,0,0,0.010850694444444444,93.82595486111109,0)" xlink:href="#bO"/><use transform="matrix(0.010850694444444444,0,0,0.010850694444444444,105.88107638888887,0)" xlink:href="#aP"/><use transform="matrix(0.010850694444444444,0,0,0.010850694444444444,118.83680555555556,0)" xlink:href="#by"/><use transform="matrix(0.010850694444444444,0,0,0.010850694444444444,124.32725694444441,0)" xlink:href="#bg"/></g><path d="M36 0l185-1118h290l-31 195h12c83-166 210-238 399-200l-45 268c-197-55-375 37-405 219L336 0H36" id="bP"/><path d="M776-1118l-37 229H530l-93 562c-12 72 14 104 85 104 23 0 74-7 97-13l5 225C555 8 488 16 426 16 201 16 99-97 132-301l98-588H76l37-229h155l44-266h300l-44 266h208" id="bQ"/><path d="M419 14C188 14 60-144 103-407l118-711h300L412-459c-23 138 39 222 166 222 125 0 231-84 255-234l107-647h301L1056 0H772l35-232C717-74 589 14 419 14" id="bR"/><g id="R"><use transform="matrix(0.010850694444444444,0,0,0.010850694444444444,0,0)" xlink:href="#bP"/><use transform="matrix(0.010850694444444444,0,0,0.010850694444444444,8.51779513888889,0)" xlink:href="#bD"/><use transform="matrix(0.010850694444444444,0,0,0.010850694444444444,21.62543402777778,0)" xlink:href="#bQ"/><use transform="matrix(0.010850694444444444,0,0,0.010850694444444444,29.78515625,0)" xlink:href="#bR"/><use transform="matrix(0.010850694444444444,0,0,0.010850694444444444,43.630642361111114,0)" xlink:href="#bP"/><use transform="matrix(0.010850694444444444,0,0,0.010850694444444444,52.853732638888886,0)" xlink:href="#bB"/></g><g id="T"><use transform="matrix(0.010850694444444444,0,0,0.010850694444444444,0,0)" xlink:href="#bt"/><use transform="matrix(0.010850694444444444,0,0,0.010850694444444444,21.89670138888889,0)" xlink:href="#bu"/><use transform="matrix(0.010850694444444444,0,0,0.010850694444444444,35.036892361111114,0)" xlink:href="#bv"/><use transform="matrix(0.010850694444444444,0,0,0.010850694444444444,47.51519097222223,0)" xlink:href="#bf"/></g><path d="M143-230l41-252h998l-42 252H143zm79-479l43-251h997l-42 251H222" id="bS"/><g id="U"><use transform="matrix(0.010850694444444444,0,0,0.010850694444444444,0,0)" xlink:href="#bS"/><use transform="matrix(0.010850694444444444,0,0,0.010850694444444444,15.093315972222221,0)" xlink:href="#bS"/></g><g id="V"><use transform="matrix(0.010850694444444444,0,0,0.010850694444444444,0,0)" xlink:href="#bG"/><use transform="matrix(0.010850694444444444,0,0,0.010850694444444444,14.973958333333332,0)" xlink:href="#bN"/></g><path d="M783 20c-382 0-661-292-661-764 0-473 279-766 661-766 302 0 548 182 601 489h-190c-42-204-217-313-411-313-268 0-476 208-476 590 0 381 209 588 476 588 195 0 369-110 411-313h190c-52 303-296 489-601 489" id="bT"/><g id="W"><use transform="matrix(0.010850694444444444,0,0,0.010850694444444444,0,0)" xlink:href="#bT"/><use transform="matrix(0.010850694444444444,0,0,0.010850694444444444,16.23263888888889,0)" xlink:href="#bv"/><use transform="matrix(0.010850694444444444,0,0,0.010850694444444444,28.7109375,0)" xlink:href="#by"/><use transform="matrix(0.010850694444444444,0,0,0.010850694444444444,34.09288194444444,0)" xlink:href="#by"/></g><path d="M-34 418l255-1536h295l-34 188h9c56-93 162-202 343-202 221 0 385 151 385 442 0 320-177 709-544 709-191 0-269-117-296-207h-14l-99 606H-34zm624-640c223 0 323-269 323-451 0-133-57-219-180-219-214 0-324 244-324 448 0 137 61 222 181 222" id="bU"/><path d="M177-607c55-330 228-732 419-974h279c-197 312-342 675-392 973-43 262-19 511 84 887H288C164-4 128-310 177-607" id="bV"/><path d="M351 0L124-1118h306c41 293 105 569 122 885 117-311 274-592 410-885h328L692 0H351" id="bW"/><path d="M441 19C184 19 19-186 81-558c63-382 303-574 550-574 189 0 259 113 285 202h10l31-188h299L1071 0H776l29-179h-14C733-87 623 19 441 19zm133-241c154 0 263-135 296-336 34-204-31-334-185-334-159 0-264 139-296 334-33 197 29 336 185 336" id="bX"/><path d="M-73 288C132-57 252-316 298-599c53-316 21-679-63-973h287c103 233 136 630 78 974-51 310-183 616-386 886H-73" id="bY"/><g id="X"><use transform="matrix(0.010850694444444444,0,0,0.010850694444444444,0,0)" xlink:href="#bU"/><use transform="matrix(0.010850694444444444,0,0,0.010850694444444444,14.008246527777777,0)" xlink:href="#bP"/><use transform="matrix(0.010850694444444444,0,0,0.010850694444444444,22.526041666666664,0)" xlink:href="#bD"/><use transform="matrix(0.010850694444444444,0,0,0.010850694444444444,35.63368055555556,0)" xlink:href="#bU"/><use transform="matrix(0.010850694444444444,0,0,0.010850694444444444,49.64192708333333,0)" xlink:href="#bD"/><use transform="matrix(0.010850694444444444,0,0,0.010850694444444444,62.74956597222223,0)" xlink:href="#bB"/><use transform="matrix(0.010850694444444444,0,0,0.010850694444444444,76.5842013888889,0)" xlink:href="#bC"/><use transform="matrix(0.010850694444444444,0,0,0.010850694444444444,90.59244791666666,0)" xlink:href="#bV"/><use transform="matrix(0.010850694444444444,0,0,0.010850694444444444,98.9691840277778,0)" xlink:href="#bW"/><use transform="matrix(0.010850694444444444,0,0,0.010850694444444444,111.8923611111111,0)" xlink:href="#bX"/><use transform="matrix(0.010850694444444444,0,0,0.010850694444444444,125.91145833333334,0)" xlink:href="#bJ"/><use transform="matrix(0.010850694444444444,0,0,0.010850694444444444,132.33506944444446,0)" xlink:href="#bY"/></g><path d="M645 0H180v-1490h484c435 0 692 280 692 742 0 466-257 748-711 748zM370-168h263c363 0 539-218 539-580 0-358-176-574-521-574H370v1154" id="bZ"/><g id="Y"><use transform="matrix(0.010850694444444444,0,0,0.010850694444444444,0,0)" xlink:href="#bZ"/><use transform="matrix(0.010850694444444444,0,0,0.010850694444444444,16.03732638888889,0)" xlink:href="#aP"/><use transform="matrix(0.010850694444444444,0,0,0.010850694444444444,28.99305555555556,0)" xlink:href="#by"/><use transform="matrix(0.010850694444444444,0,0,0.010850694444444444,34.375,0)" xlink:href="#aP"/><use transform="matrix(0.010850694444444444,0,0,0.010850694444444444,47.330729166666664,0)" xlink:href="#bf"/><use transform="matrix(0.010850694444444444,0,0,0.010850694444444444,54.38368055555556,0)" xlink:href="#aP"/><use transform="matrix(0.010850694444444444,0,0,0.010850694444444444,67.33940972222223,0)" xlink:href="#aS"/><use transform="matrix(0.010850694444444444,0,0,0.010850694444444444,75.44487847222223,0)" xlink:href="#br"/><use transform="matrix(0.010850694444444444,0,0,0.010850694444444444,88.99739583333334,0)" xlink:href="#aU"/></g><use transform="matrix(0.010850694444444444,0,0,0.010850694444444444,0,0)" xlink:href="#aM" id="Z"/><g id="aa"><use transform="matrix(0.010850694444444444,0,0,0.010850694444444444,0,0)" xlink:href="#bt"/><use transform="matrix(0.010850694444444444,0,0,0.010850694444444444,21.89670138888889,0)" xlink:href="#bu"/><use transform="matrix(0.010850694444444444,0,0,0.010850694444444444,35.036892361111114,0)" xlink:href="#bv"/><use transform="matrix(0.010850694444444444,0,0,0.010850694444444444,47.51519097222223,0)" xlink:href="#bf"/></g><g id="ab"><use transform="matrix(0.010850694444444444,0,0,0.010850694444444444,0,0)" xlink:href="#bj"/><use transform="matrix(0.010850694444444444,0,0,0.010850694444444444,11.729600694444445,0)" xlink:href="#bu"/><use transform="matrix(0.010850694444444444,0,0,0.010850694444444444,24.869791666666664,0)" xlink:href="#bw"/><use transform="matrix(0.010850694444444444,0,0,0.010850694444444444,38.19444444444444,0)" xlink:href="#bx"/><use transform="matrix(0.010850694444444444,0,0,0.010850694444444444,51.334635416666664,0)" xlink:href="#by"/><use transform="matrix(0.010850694444444444,0,0,0.010850694444444444,56.71657986111111,0)" xlink:href="#aR"/></g><g id="ac"><use transform="matrix(0.010850694444444444,0,0,0.010850694444444444,0,0)" xlink:href="#bg"/><use transform="matrix(0.010850694444444444,0,0,0.010850694444444444,12.055121527777777,0)" xlink:href="#bw"/><use transform="matrix(0.010850694444444444,0,0,0.010850694444444444,25.379774305555554,0)" xlink:href="#bx"/></g><g id="ad"><use transform="matrix(0.010850694444444444,0,0,0.010850694444444444,0,0)" xlink:href="#aR"/><use transform="matrix(0.010850694444444444,0,0,0.010850694444444444,13.606770833333332,0)" xlink:href="#bw"/></g><g id="ae"><use transform="matrix(0.010850694444444444,0,0,0.010850694444444444,0,0)" xlink:href="#bi"/><use transform="matrix(0.010850694444444444,0,0,0.010850694444444444,5.381944444444445,0)" xlink:href="#bz"/></g><g id="af"><use transform="matrix(0.010850694444444444,0,0,0.010850694444444444,0,0)" xlink:href="#bf"/><use transform="matrix(0.010850694444444444,0,0,0.010850694444444444,7.269965277777778,0)" xlink:href="#bu"/><use transform="matrix(0.010850694444444444,0,0,0.010850694444444444,20.41015625,0)" xlink:href="#aP"/></g><g id="ag"><use transform="matrix(0.010850694444444444,0,0,0.010850694444444444,0,0)" xlink:href="#bA"/><use transform="matrix(0.010850694444444444,0,0,0.010850694444444444,6.032986111111111,0)" xlink:href="#bB"/><use transform="matrix(0.010850694444444444,0,0,0.010850694444444444,19.86762152777778,0)" xlink:href="#bC"/><use transform="matrix(0.010850694444444444,0,0,0.010850694444444444,33.87586805555556,0)" xlink:href="#bD"/><use transform="matrix(0.010850694444444444,0,0,0.010850694444444444,46.53862847222223,0)" xlink:href="#bE"/></g><use transform="matrix(0.010850694444444444,0,0,0.010850694444444444,0,0)" xlink:href="#bF" id="ah"/><use transform="matrix(0.010850694444444444,0,0,0.010850694444444444,0,0)" xlink:href="#bG" id="ai"/><g id="aj"><use transform="matrix(0.010850694444444444,0,0,0.010850694444444444,0,0)" xlink:href="#bw"/><use transform="matrix(0.010850694444444444,0,0,0.010850694444444444,13.324652777777777,0)" xlink:href="#bp"/></g><g id="ak"><use transform="matrix(0.010850694444444444,0,0,0.010850694444444444,0,0)" xlink:href="#bH"/><use transform="matrix(0.010850694444444444,0,0,0.010850694444444444,15.093315972222221,0)" xlink:href="#bS"/></g><g id="al"><use transform="matrix(0.010850694444444444,0,0,0.010850694444444444,0,0)" xlink:href="#bI"/><use transform="matrix(0.010850694444444444,0,0,0.010850694444444444,12.434895833333332,0)" xlink:href="#bD"/><use transform="matrix(0.010850694444444444,0,0,0.010850694444444444,25.54253472222222,0)" xlink:href="#bJ"/><use transform="matrix(0.010850694444444444,0,0,0.010850694444444444,31.56467013888889,0)" xlink:href="#bK"/><use transform="matrix(0.010850694444444444,0,0,0.010850694444444444,39.409722222222214,0)" xlink:href="#bL"/><use transform="matrix(0.010850694444444444,0,0,0.010850694444444444,46.83159722222221,0)" xlink:href="#bI"/><use transform="matrix(0.010850694444444444,0,0,0.010850694444444444,59.26649305555554,0)" xlink:href="#bA"/><use transform="matrix(0.010850694444444444,0,0,0.010850694444444444,65.29947916666666,0)" xlink:href="#bM"/><use transform="matrix(0.010850694444444444,0,0,0.010850694444444444,77.58246527777776,0)" xlink:href="#bD"/><use transform="matrix(0.010850694444444444,0,0,0.010850694444444444,90.69010416666664,0)" xlink:href="#bN"/></g><g id="an"><use transform="matrix(0.010850694444444444,0,0,0.010850694444444444,0,0)" xlink:href="#bo"/><use transform="matrix(0.010850694444444444,0,0,0.010850694444444444,14.192708333333332,0)" xlink:href="#bp"/><use transform="matrix(0.010850694444444444,0,0,0.010850694444444444,22.189670138888886,0)" xlink:href="#aP"/><use transform="matrix(0.010850694444444444,0,0,0.010850694444444444,35.14539930555555,0)" xlink:href="#aP"/><use transform="matrix(0.010850694444444444,0,0,0.010850694444444444,48.10112847222221,0)" xlink:href="#be"/><use transform="matrix(0.010850694444444444,0,0,0.010850694444444444,67.56727430555554,0)" xlink:href="#aO"/><use transform="matrix(0.010850694444444444,0,0,0.010850694444444444,81.17404513888887,0)" xlink:href="#bf"/><use transform="matrix(0.010850694444444444,0,0,0.010850694444444444,88.44401041666664,0)" xlink:href="#bi"/><use transform="matrix(0.010850694444444444,0,0,0.010850694444444444,93.82595486111109,0)" xlink:href="#bO"/><use transform="matrix(0.010850694444444444,0,0,0.010850694444444444,105.88107638888887,0)" xlink:href="#aP"/><use transform="matrix(0.010850694444444444,0,0,0.010850694444444444,118.83680555555556,0)" xlink:href="#by"/><use transform="matrix(0.010850694444444444,0,0,0.010850694444444444,124.32725694444441,0)" xlink:href="#bg"/></g><g id="ao"><use transform="matrix(0.010850694444444444,0,0,0.010850694444444444,0,0)" xlink:href="#bP"/><use transform="matrix(0.010850694444444444,0,0,0.010850694444444444,8.51779513888889,0)" xlink:href="#bD"/><use transform="matrix(0.010850694444444444,0,0,0.010850694444444444,21.62543402777778,0)" xlink:href="#bQ"/><use transform="matrix(0.010850694444444444,0,0,0.010850694444444444,29.78515625,0)" xlink:href="#bR"/><use transform="matrix(0.010850694444444444,0,0,0.010850694444444444,43.630642361111114,0)" xlink:href="#bP"/><use transform="matrix(0.010850694444444444,0,0,0.010850694444444444,52.853732638888886,0)" xlink:href="#bB"/></g><g id="aq"><use transform="matrix(0.010850694444444444,0,0,0.010850694444444444,0,0)" xlink:href="#bt"/><use transform="matrix(0.010850694444444444,0,0,0.010850694444444444,21.89670138888889,0)" xlink:href="#bu"/><use transform="matrix(0.010850694444444444,0,0,0.010850694444444444,35.036892361111114,0)" xlink:href="#bv"/><use transform="matrix(0.010850694444444444,0,0,0.010850694444444444,47.51519097222223,0)" xlink:href="#bf"/></g><g id="ar"><use transform="matrix(0.010850694444444444,0,0,0.010850694444444444,0,0)" xlink:href="#bS"/><use transform="matrix(0.010850694444444444,0,0,0.010850694444444444,15.093315972222221,0)" xlink:href="#bS"/></g><g id="as"><use transform="matrix(0.010850694444444444,0,0,0.010850694444444444,0,0)" xlink:href="#bG"/><use transform="matrix(0.010850694444444444,0,0,0.010850694444444444,14.973958333333332,0)" xlink:href="#bN"/></g><path d="M611 442c-248 0-391-105-460-228l146-94c47 65 117 165 314 165 178 0 307-82 307-266v-224h-17C863-141 792-18 576-18c-268 0-472-195-472-546 0-346 197-568 476-568 216 0 288 133 326 193h17v-179h175V29c0 289-215 413-487 413zm-5-620c203 0 314-146 314-390 0-237-108-403-314-403-213 0-319 180-319 403 0 230 109 390 319 390" id="ca"/><g id="at"><use transform="matrix(0.010850694444444444,0,0,0.010850694444444444,0,0)" xlink:href="#aN"/><use transform="matrix(0.010850694444444444,0,0,0.010850694444444444,15.33203125,0)" xlink:href="#bj"/><use transform="matrix(0.010850694444444444,0,0,0.010850694444444444,27.061631944444443,0)" xlink:href="#bj"/><use transform="matrix(0.010850694444444444,0,0,0.010850694444444444,38.791232638888886,0)" xlink:href="#bi"/><use transform="matrix(0.010850694444444444,0,0,0.010850694444444444,44.17317708333333,0)" xlink:href="#ca"/><use transform="matrix(0.010850694444444444,0,0,0.010850694444444444,57.80164930555555,0)" xlink:href="#aQ"/></g><path d="M442-647L335 0H35l247-1490h294l-97 584c87-145 202-226 365-226 232 0 372 159 329 421L1055 0H754l110-659c23-140-41-222-167-222s-231 85-255 234" id="cb"/><g id="au"><use transform="matrix(0.010850694444444444,0,0,0.010850694444444444,0,0)" xlink:href="#cb"/><use transform="matrix(0.010850694444444444,0,0,0.010850694444444444,13.834635416666666,0)" xlink:href="#bD"/><use transform="matrix(0.010850694444444444,0,0,0.010850694444444444,26.94227430555556,0)" xlink:href="#bX"/><use transform="matrix(0.010850694444444444,0,0,0.010850694444444444,40.96137152777778,0)" xlink:href="#bC"/></g><g id="av"><use transform="matrix(0.010850694444444444,0,0,0.010850694444444444,0,0)" xlink:href="#bf"/><use transform="matrix(0.010850694444444444,0,0,0.010850694444444444,7.052951388888888,0)" xlink:href="#bw"/></g><g id="aw"><use transform="matrix(0.010850694444444444,0,0,0.010850694444444444,0,0)" xlink:href="#cb"/><use transform="matrix(0.010850694444444444,0,0,0.010850694444444444,13.834635416666666,0)" xlink:href="#bD"/><use transform="matrix(0.010850694444444444,0,0,0.010850694444444444,26.94227430555556,0)" xlink:href="#bX"/><use transform="matrix(0.010850694444444444,0,0,0.010850694444444444,40.96137152777778,0)" xlink:href="#bC"/><use transform="matrix(0.010850694444444444,0,0,0.010850694444444444,54.96961805555556,0)" xlink:href="#bL"/><use transform="matrix(0.010850694444444444,0,0,0.010850694444444444,62.39149305555555,0)" xlink:href="#bB"/><use transform="matrix(0.010850694444444444,0,0,0.010850694444444444,76.22612847222223,0)" xlink:href="#bD"/><use transform="matrix(0.010850694444444444,0,0,0.010850694444444444,88.88888888888889,0)" xlink:href="#bE"/><use transform="matrix(0.010850694444444444,0,0,0.010850694444444444,102.09418402777777,0)" xlink:href="#bQ"/></g><use transform="matrix(0.010850694444444444,0,0,0.010850694444444444,0,0)" xlink:href="#aB" id="ax"/><path d="M789 20c-398 0-667-293-667-764 0-473 273-766 655-766 315 0 558 198 612 487h-196c-61-191-204-311-415-311-262 0-471 207-471 590 0 380 208 588 482 588 249 0 420-165 425-427H828v-166h572v163c0 370-256 606-611 606" id="cc"/><g id="ay"><use transform="matrix(0.010850694444444444,0,0,0.010850694444444444,0,0)" xlink:href="#cc"/><use transform="matrix(0.010850694444444444,0,0,0.010850694444444444,16.57986111111111,0)" xlink:href="#aP"/><use transform="matrix(0.010850694444444444,0,0,0.010850694444444444,29.535590277777775,0)" xlink:href="#bf"/><use transform="matrix(0.010850694444444444,0,0,0.010850694444444444,36.80555555555556,0)" xlink:href="#aS"/><use transform="matrix(0.010850694444444444,0,0,0.010850694444444444,44.91102430555556,0)" xlink:href="#br"/><use transform="matrix(0.010850694444444444,0,0,0.010850694444444444,58.46354166666667,0)" xlink:href="#aU"/></g><g id="az"><use transform="matrix(0.010850694444444444,0,0,0.010850694444444444,0,0)" xlink:href="#bP"/><use transform="matrix(0.010850694444444444,0,0,0.010850694444444444,8.51779513888889,0)" xlink:href="#bD"/><use transform="matrix(0.010850694444444444,0,0,0.010850694444444444,21.62543402777778,0)" xlink:href="#bQ"/><use transform="matrix(0.010850694444444444,0,0,0.010850694444444444,29.78515625,0)" xlink:href="#bR"/><use transform="matrix(0.010850694444444444,0,0,0.010850694444444444,43.630642361111114,0)" xlink:href="#bP"/><use transform="matrix(0.010850694444444444,0,0,0.010850694444444444,52.853732638888886,0)" xlink:href="#bB"/></g><path d="M42 0l247-1490h338l345 754c42 94 88 210 128 373 38-422 109-737 168-1127h312L1333 0H995C826-390 654-682 519-1121 476-661 417-410 354 0H42" id="cd"/><path d="M549 22C246 22 73-162 73-445c0-359 234-687 634-687 301 0 475 184 475 467 0 360-234 687-633 687zm10-236c223 0 322-274 322-459 0-134-61-223-185-223-223 0-322 271-322 458 0 133 61 224 185 224" id="ce"/><g id="aA"><use transform="matrix(0.010850694444444444,0,0,0.010850694444444444,0,0)" xlink:href="#cd"/><use transform="matrix(0.010850694444444444,0,0,0.010850694444444444,16.93793402777778,0)" xlink:href="#ce"/><use transform="matrix(0.010850694444444444,0,0,0.010850694444444444,30.577256944444443,0)" xlink:href="#bB"/><use transform="matrix(0.010850694444444444,0,0,0.010850694444444444,44.41189236111111,0)" xlink:href="#bD"/></g></defs></g></svg>