<svg xmlns="http://www.w3.org/2000/svg" xmlns:xlink="http://www.w3.org/1999/xlink" xmlns:lucid="lucid" width="348" height="402.33"><g transform="translate(-963.9999999999998 -498.83333333333337)" lucid:page-tab-id="0_0"><path d="M964.5 499.33h80v40h-80zM1044.5 499.33h80v40h-80z" fill="#fff"/><path d="M1124.5 499.33h80v40h-80z" fill="#edf5ff"/><path d="M1204.5 499.33h107v40h-107z" fill="#fff0fb"/><path d="M964.5 539.33h80v40h-80zM1044.5 539.33h80v40h-80z" fill="#fff"/><path d="M1124.5 539.33h80v40h-80z" fill="#edf5ff"/><path d="M1204.5 539.33h107v40h-107z" fill="#fff0fb"/><path d="M964.5 499.33v40M964.5 499.33h80M1044.5 499.33v40M1044.5 499.33h80M1124.5 499.33v40M1124.5 499.33h80M1204.5 499.33v40M1311.5 499.33v40M1204.5 499.33h107M964.5 539.33v40M964.5 539.33h80M964.5 579.33h80M1044.5 539.33v40M1044.5 539.33h80M1044.5 579.33h80M1124.5 539.33v40M1124.5 539.33h80M1124.5 579.33h80M1204.5 539.33v40M1311.5 539.33v40M1204.5 539.33h107M1204.5 579.33h107" stroke="#000" fill="none"/><use xlink:href="#a" transform="matrix(1,0,0,1,969.4999999999998,504.33333333333337) translate(6.354166666666664 23.08376736111111)"/><use xlink:href="#b" transform="matrix(1,0,0,1,1049.4999999999998,504.33333333333337) translate(27.99045138888889 23.08376736111111)"/><use xlink:href="#c" transform="matrix(1,0,0,1,1129.4999999999998,504.33333333333337) translate(16.559244791666668 23.08376736111111)"/><use xlink:href="#d" transform="matrix(1,0,0,1,1129.4999999999998,504.33333333333337) translate(31.84787326388889 23.08376736111111)"/><use xlink:href="#e" transform="matrix(1,0,0,1,1209.4999999999998,504.33333333333337) translate(2.140407986111107 23.08376736111111)"/><use xlink:href="#f" transform="matrix(1,0,0,1,1209.4999999999998,504.33333333333337) translate(21.942925347222218 23.08376736111111)"/><use xlink:href="#g" transform="matrix(1,0,0,1,969.4999999999998,544.3333333333334) translate(5.920138888888889 23.08376736111111)"/><use xlink:href="#h" transform="matrix(1,0,0,1,1049.4999999999998,544.3333333333334) translate(28.712022569444443 23.08376736111111)"/><use xlink:href="#i" transform="matrix(1,0,0,1,1129.4999999999998,544.3333333333334) translate(28.126085069444443 23.08376736111111)"/><use xlink:href="#j" transform="matrix(1,0,0,1,1209.4999999999998,544.3333333333334) translate(41.60980902777778 23.08376736111111)"/><path d="M1138.47 643.62h-.94V620h.94zm0-45.13h-.94v-18.17h.94z" stroke="#3a414a" stroke-width=".05" fill="#3a414a"/><path d="M1138.47 580.35h-.94v-.52h.94z" fill="#3a414a"/><path stroke="#3a414a" stroke-width=".05" fill="#3a414a"/><path d="M1138 658.38l-4.63-14.26h9.27z" fill="#3a414a"/><path d="M1138 659.92l-5.3-16.28h10.6zm-3.98-15.33l3.98 12.25 3.98-12.26z" stroke="#3a414a" stroke-width=".05" fill="#3a414a"/><use xlink:href="#k" transform="matrix(1,0,0,1,1113.0173611111109,598.4947916666667) translate(0 17.22222222222222)"/><use xlink:href="#l" transform="matrix(1,0,0,1,1113.0173611111109,598.4947916666667) translate(42.30034722222222 17.22222222222222)"/><path d="M968.5 660h80v40h-80zM1048.5 660h80v40h-80zM1128.5 660h80v40h-80z" fill="#fff"/><path d="M1208.5 660h99v40h-99z" fill="#fff0f0"/><path d="M968.5 700h80v40h-80zM1048.5 700h80v40h-80zM1128.5 700h80v40h-80z" fill="#fff"/><path d="M1208.5 700h99v40h-99z" fill="#fff0f0"/><path d="M968.5 660v40M968.5 660h80M1048.5 660v40M1048.5 660h80M1128.5 660v40M1128.5 660h80M1208.5 660v40M1307.5 660v40M1208.5 660h99M968.5 700v40M968.5 700h80M968.5 740h80M1048.5 700v40M1048.5 700h80M1048.5 740h80M1128.5 700v40M1128.5 700h80M1128.5 740h80M1208.5 700v40M1307.5 700v40M1208.5 700h99M1208.5 740h99" stroke="#000" fill="none"/><use xlink:href="#a" transform="matrix(1,0,0,1,973.4999999999998,665) translate(6.354166666666664 23.08376736111111)"/><use xlink:href="#b" transform="matrix(1,0,0,1,1053.4999999999998,665) translate(27.99045138888889 23.08376736111111)"/><use xlink:href="#m" transform="matrix(1,0,0,1,1133.4999999999998,665) translate(30.48068576388889 23.08376736111111)"/><use xlink:href="#e" transform="matrix(1,0,0,1,1213.4999999999998,665) translate(4.048611111111114 23.08376736111111)"/><use xlink:href="#n" transform="matrix(1,0,0,1,1213.4999999999998,665) translate(23.851128472222225 23.08376736111111)"/><use xlink:href="#o" transform="matrix(1,0,0,1,1213.4999999999998,665) translate(51.3359375 23.08376736111111)"/><use xlink:href="#p" transform="matrix(1,0,0,1,1213.4999999999998,665) translate(67.80729166666666 23.08376736111111)"/><use xlink:href="#g" transform="matrix(1,0,0,1,973.4999999999998,705) translate(5.920138888888889 23.08376736111111)"/><use xlink:href="#h" transform="matrix(1,0,0,1,1053.4999999999998,705) translate(28.712022569444443 23.08376736111111)"/><use xlink:href="#j" transform="matrix(1,0,0,1,1133.4999999999998,705) translate(28.10980902777778 23.08376736111111)"/><use xlink:href="#j" transform="matrix(1,0,0,1,1213.4999999999998,705) translate(37.60980902777778 23.08376736111111)"/><path d="M1138.47 803.62h-.94V780.5h.94zm0-44.63h-.94v-18h.94z" stroke="#3a414a" stroke-width=".05" fill="#3a414a"/><path d="M1138.47 741h-.94v-.5h.94z" fill="#3a414a"/><path stroke="#3a414a" stroke-width=".05" fill="#3a414a"/><path d="M1138 818.38l-4.63-14.26h9.27z" fill="#3a414a"/><path d="M1138 819.92l-5.3-16.28h10.6zm-3.98-15.33l3.98 12.25 3.98-12.26z" stroke="#3a414a" stroke-width=".05" fill="#3a414a"/><use xlink:href="#k" transform="matrix(1,0,0,1,1111.2508680555554,758.9947916666667) translate(0 17.22222222222222)"/><use xlink:href="#q" transform="matrix(1,0,0,1,1111.2508680555554,758.9947916666667) translate(42.30034722222222 17.22222222222222)"/><path d="M978 820.67h80v40h-80zM1058 820.67h80v40h-80zM1138 820.67h80v40h-80zM1218 820.67h80v40h-80zM978 860.67h80v40h-80zM1058 860.67h80v40h-80zM1138 860.67h80v40h-80zM1218 860.67h80v40h-80z" fill="#e3fae3"/><path d="M978 820.67v40M978 820.67h80M1058 820.67v40M1058 820.67h80M1138 820.67v40M1138 820.67h80M1218 820.67v40M1298 820.67v40M1218 820.67h80M978 860.67v40M978 860.67h80M978 900.67h80M1058 860.67v40M1058 860.67h80M1058 900.67h80M1138 860.67v40M1138 860.67h80M1138 900.67h80M1218 860.67v40M1298 860.67v40M1218 860.67h80M1218 900.67h80" stroke="#000" fill="none"/><use xlink:href="#a" transform="matrix(1,0,0,1,982.9999999999998,825.6666666666666) translate(6.354166666666664 23.08376736111111)"/><use xlink:href="#b" transform="matrix(1,0,0,1,1062.9999999999998,825.6666666666666) translate(27.99045138888889 23.08376736111111)"/><g><use xlink:href="#m" transform="matrix(1,0,0,1,1142.9999999999998,825.6666666666666) translate(30.48068576388889 23.08376736111111)"/></g><g><use xlink:href="#r" transform="matrix(1,0,0,1,1222.9999999999998,825.6666666666666) translate(28.223741319444443 23.08376736111111)"/></g><g><use xlink:href="#g" transform="matrix(1,0,0,1,982.9999999999998,865.6666666666666) translate(5.920138888888889 23.08376736111111)"/></g><g><use xlink:href="#h" transform="matrix(1,0,0,1,1062.9999999999998,865.6666666666666) translate(28.712022569444443 23.08376736111111)"/></g><g><use xlink:href="#j" transform="matrix(1,0,0,1,1142.9999999999998,865.6666666666666) translate(28.10980902777778 23.08376736111111)"/></g><g><use xlink:href="#b" transform="matrix(1,0,0,1,1222.9999999999998,865.6666666666666) translate(27.99045138888889 23.08376736111111)"/></g><defs><path d="M370-1490V0H180v-1490h190" id="s"/><path d="M338-670V0H158v-1118h173l1 207c72-158 192-221 342-221 226 0 378 139 378 422V0H872v-695c0-172-96-275-252-275-161 0-282 109-282 300" id="t"/><path d="M577 24c-279 0-473-224-473-580 0-354 195-576 474-576 218 0 287 134 324 193h14v-551h180V0H922v-173h-20C865-111 790 24 577 24zm27-161c203 0 314-172 314-421 0-247-108-413-314-413-212 0-317 181-317 413 0 235 108 421 317 421" id="u"/><path d="M628 24c-324 0-524-230-524-574 0-343 198-582 503-582 237 0 487 146 487 559v75H286c9 234 145 362 343 362 132 0 231-58 273-172l174 48C1024-91 857 24 628 24zM287-650h624c-17-190-120-322-304-322-192 0-309 151-320 322" id="v"/><path d="M65 0l393-574-370-544h210c88 136 192 297 267 435 67-142 176-302 264-435h206L661-564 1053 0H844c-94-144-206-310-287-458C484-308 366-142 273 0H65" id="w"/><g id="a"><use transform="matrix(0.010850694444444444,0,0,0.010850694444444444,0,0)" xlink:href="#s"/><use transform="matrix(0.010850694444444444,0,0,0.010850694444444444,5.967881944444445,0)" xlink:href="#t"/><use transform="matrix(0.010850694444444444,0,0,0.010850694444444444,19.09722222222222,0)" xlink:href="#u"/><use transform="matrix(0.010850694444444444,0,0,0.010850694444444444,32.70399305555556,0)" xlink:href="#v"/><use transform="matrix(0.010850694444444444,0,0,0.010850694444444444,45.16059027777778,0)" xlink:href="#w"/></g><path d="M646 20c-332 0-524-278-524-764 0-483 194-766 524-766s524 283 524 766c0 485-191 764-524 764zm0-166c218 0 341-220 341-598 0-380-123-601-341-601s-341 222-341 601c0 378 123 598 341 598" id="x"/><use transform="matrix(0.010850694444444444,0,0,0.010850694444444444,0,0)" xlink:href="#x" id="b"/><path d="M653-1490V0H466v-1314h-10L96-1047v-204l324-239h233" id="y"/><use transform="matrix(0.010850694444444444,0,0,0.010850694444444444,0,0)" xlink:href="#y" id="c"/><path d="M218-607c0-325 108-727 258-974h175c-155 315-250 682-250 974 0 265 78 531 250 886H476C306-10 218-315 218-607" id="z"/><path d="M158 0v-1118h180V0H158zm91-1301c-68 0-125-53-125-119s57-119 125-119c69 0 126 53 126 119s-57 119-126 119" id="A"/><path d="M96 279C273-86 346-350 346-607c0-292-95-659-250-974h175c150 246 258 650 258 974 0 297-91 602-258 886H96" id="B"/><g id="d"><use transform="matrix(0.010850694444444444,0,0,0.010850694444444444,0,0)" xlink:href="#z"/><use transform="matrix(0.010850694444444444,0,0,0.010850694444444444,8.10546875,0)" xlink:href="#A"/><use transform="matrix(0.010850694444444444,0,0,0.010850694444444444,13.487413194444445,0)" xlink:href="#B"/></g><path d="M154 0v-137l495-537c165-179 249-281 249-418 0-156-121-253-280-253-170 0-278 110-278 278H158c0-264 200-443 465-443 266 0 455 183 455 416 0 161-73 288-336 568L416-179v12h687V0H154" id="C"/><use transform="matrix(0.010850694444444444,0,0,0.010850694444444444,0,0)" xlink:href="#C" id="e"/><g id="f"><use transform="matrix(0.010850694444444444,0,0,0.010850694444444444,0,0)" xlink:href="#z"/><use transform="matrix(0.010850694444444444,0,0,0.010850694444444444,8.10546875,0)" xlink:href="#A"/><use transform="matrix(0.010850694444444444,0,0,0.010850694444444444,13.487413194444445,0)" xlink:href="#t"/><use transform="matrix(0.010850694444444444,0,0,0.010850694444444444,26.61675347222222,0)" xlink:href="#u"/><use transform="matrix(0.010850694444444444,0,0,0.010850694444444444,40.22352430555556,0)" xlink:href="#v"/><use transform="matrix(0.010850694444444444,0,0,0.010850694444444444,52.68012152777778,0)" xlink:href="#w"/><use transform="matrix(0.010850694444444444,0,0,0.010850694444444444,64.81119791666667,0)" xlink:href="#B"/></g><path d="M600 0L52-1490h200c166 485 304 806 458 1336 156-533 285-846 449-1336h202L819 0H600" id="D"/><path d="M471 26C259 26 90-98 90-318c0-256 228-303 435-329 202-27 287-16 287-108 0-139-79-219-234-219-161 0-248 86-283 164l-173-57c86-203 278-265 451-265 150 0 419 46 419 395V0H815v-152h-12C765-73 660 26 471 26zm31-159c199 0 310-134 310-271v-155c-30 35-226 55-295 64-131 17-246 59-246 186 0 116 97 176 231 176" id="E"/><path d="M338-1490V0H158v-1490h180" id="F"/><path d="M537 14c-226 0-379-139-379-422v-710h180v695c0 172 97 275 253 275 160 0 281-109 281-300v-670h181V0H879v-209C806-46 684 14 537 14" id="G"/><g id="g"><use transform="matrix(0.010850694444444444,0,0,0.010850694444444444,0,0)" xlink:href="#D"/><use transform="matrix(0.010850694444444444,0,0,0.010850694444444444,14.20355902777778,0)" xlink:href="#E"/><use transform="matrix(0.010850694444444444,0,0,0.010850694444444444,26.68185763888889,0)" xlink:href="#F"/><use transform="matrix(0.010850694444444444,0,0,0.010850694444444444,32.063802083333336,0)" xlink:href="#G"/><use transform="matrix(0.010850694444444444,0,0,0.010850694444444444,45.20399305555556,0)" xlink:href="#v"/></g><path d="M200 0l662-1311v-12H98v-167h963v177L400 0H200" id="H"/><use transform="matrix(0.010850694444444444,0,0,0.010850694444444444,0,0)" xlink:href="#H" id="h"/><path d="M633 20c-303 0-511-173-511-416 0-188 124-348 291-378v-8c-145-37-237-174-237-332 0-227 192-396 457-396 261 0 456 169 456 396 0 158-94 295-235 332v8c162 30 291 190 291 378 0 243-212 416-512 416zm0-165c197 0 322-103 322-261 0-165-138-283-322-283-188 0-324 118-324 283 0 158 123 261 324 261zm0-703c157 0 272-101 272-252 0-149-110-246-272-246-165 0-273 97-273 246 0 151 112 252 273 252" id="I"/><use transform="matrix(0.010850694444444444,0,0,0.010850694444444444,0,0)" xlink:href="#I" id="i"/><path d="M603 20c-253 0-434-161-469-399h188c31 132 124 231 281 231 227 0 367-207 367-568h-12c-80 122-211 199-367 199-257 0-469-206-469-493 0-278 200-505 506-500 245 4 520 158 520 706 0 527-208 824-545 824zm16-703c181 0 324-157 324-332 0-171-135-328-318-328-180 0-317 148-317 332 0 183 131 328 311 328" id="J"/><use transform="matrix(0.010850694444444444,0,0,0.010850694444444444,0,0)" xlink:href="#J" id="j"/><path fill="#333" d="M572 22C302 22 117-98 78-306l279-48c29 105 101 156 224 156 114 0 185-48 185-115 0-118-228-130-337-155-215-49-322-150-322-317 0-215 187-347 470-347 265 0 424 116 466 298l-266 47c-24-76-87-130-196-130-98 0-174 46-174 113 0 56 38 95 144 117l201 40c216 44 320 143 320 302 0 220-207 367-500 367" id="K"/><path fill="#333" d="M683-1118v229H474v562c0 71 29 104 102 104 23 0 73-7 95-13l43 225C647 9 580 16 520 16 296 16 174-96 174-301v-588H20v-229h154v-266h300v266h209" id="L"/><path fill="#333" d="M633 22C291 22 81-200 81-553c0-345 210-579 537-579 292 0 525 185 525 567v84H378c7 183 109 277 260 277 105 0 184-46 216-132l272 51C1071-99 893 22 633 22zM380-669h474c-15-146-94-237-233-237-143 0-229 99-241 237" id="M"/><path fill="#333" d="M128 418v-1536h295v188h14c41-89 129-202 319-202 248 0 453 193 453 575 0 372-197 576-455 576-183 0-275-108-317-198h-9v597H128zm534-640c156 0 240-139 240-336 0-196-83-334-240-334-154 0-241 131-241 334 0 202 88 336 241 336" id="N"/><g id="k"><use transform="matrix(0.008680555555555556,0,0,0.008680555555555556,0,0)" xlink:href="#K"/><use transform="matrix(0.008680555555555556,0,0,0.008680555555555556,9.956597222222223,0)" xlink:href="#L"/><use transform="matrix(0.008680555555555556,0,0,0.008680555555555556,16.29340277777778,0)" xlink:href="#M"/><use transform="matrix(0.008680555555555556,0,0,0.008680555555555556,26.883680555555557,0)" xlink:href="#N"/></g><path fill="#333" d="M749-1490V0H444v-1221h-10L93-980v-279l329-231h327" id="O"/><use transform="matrix(0.008680555555555556,0,0,0.008680555555555556,0,0)" xlink:href="#O" id="l"/><use transform="matrix(0.010850694444444444,0,0,0.010850694444444444,0,0)" xlink:href="#y" id="m"/><g id="n"><use transform="matrix(0.010850694444444444,0,0,0.010850694444444444,0,0)" xlink:href="#z"/><use transform="matrix(0.010850694444444444,0,0,0.010850694444444444,8.10546875,0)" xlink:href="#t"/></g><path d="M798-719v166H144v-166h654" id="P"/><use transform="matrix(0.010850694444444444,0,0,0.010850694444444444,0,0)" xlink:href="#P" id="o"/><g id="p"><use transform="matrix(0.010850694444444444,0,0,0.010850694444444444,0,0)" xlink:href="#y"/><use transform="matrix(0.010850694444444444,0,0,0.010850694444444444,9.038628472222221,0)" xlink:href="#B"/></g><path fill="#333" d="M124 0v-220l528-495c135-132 210-216 210-336 0-133-98-215-231-215-139 0-229 88-229 233H110c0-290 214-477 523-477 315 0 525 182 525 440 0 167-80 305-385 586L548-262v11h630V0H124" id="Q"/><use transform="matrix(0.008680555555555556,0,0,0.008680555555555556,0,0)" xlink:href="#Q" id="q"/><use transform="matrix(0.010850694444444444,0,0,0.010850694444444444,0,0)" xlink:href="#C" id="r"/></defs></g></svg>