<svg xmlns="http://www.w3.org/2000/svg" xmlns:xlink="http://www.w3.org/1999/xlink" xmlns:lucid="lucid" width="323.69" height="301.67"><g transform="translate(-977.4999999999998 -498.83333333333337)" lucid:page-tab-id="0_0"><path d="M978 499.33h82.7v40H978zM1060.7 499.33h80v40h-80zM1140.7 499.33h80v40h-80z" fill="#fff"/><path d="M1220.7 499.33h80v40h-80z" fill="#edf5ff"/><path d="M978 539.33h82.7v40H978zM1060.7 539.33h80v40h-80zM1140.7 539.33h80v40h-80z" fill="#fff"/><path d="M1220.7 539.33h80v40h-80z" fill="#edf5ff"/><path d="M978 579.33h82.7v40H978zM1060.7 579.33h80v40h-80zM1140.7 579.33h80v40h-80z" fill="#fff"/><path d="M1220.7 579.33h80v40h-80z" fill="#edf5ff"/><path d="M978 499.33v40M978 499.33h82.7M1060.7 499.33v40M1060.7 499.33h80M1140.7 499.33v40M1140.7 499.33h80M1220.7 499.33v40M1300.7 499.33v40M1220.7 499.33h80M978 539.33v40M978 539.33h82.7M1060.7 539.33v40M1060.7 539.33h80M1140.7 539.33v40M1140.7 539.33h80M1220.7 539.33v40M1300.7 539.33v40M1220.7 539.33h80M978 579.33v40M978 579.33h82.7M978 619.33h82.7M1060.7 579.33v40M1060.7 579.33h80M1060.7 619.33h80M1140.7 579.33v40M1140.7 579.33h80M1140.7 619.33h80M1220.7 579.33v40M1300.7 579.33v40M1220.7 579.33h80M1220.7 619.33h80" stroke="#000" fill="none"/><use xlink:href="#a" transform="matrix(1,0,0,1,982.9999999999998,504.33333333333337) translate(7.854166666666664 23.08376736111111)"/><use xlink:href="#b" transform="matrix(1,0,0,1,1065.688802083333,504.33333333333337) translate(27.99045138888889 23.08376736111111)"/><use xlink:href="#c" transform="matrix(1,0,0,1,1145.688802083333,504.33333333333337) translate(30.48068576388889 23.08376736111111)"/><use xlink:href="#d" transform="matrix(1,0,0,1,1225.688802083333,504.33333333333337) translate(28.223741319444443 23.08376736111111)"/><use xlink:href="#e" transform="matrix(1,0,0,1,982.9999999999998,544.3333333333334) translate(0.1555989583333357 23.08376736111111)"/><use xlink:href="#c" transform="matrix(1,0,0,1,1065.688802083333,544.3333333333334) translate(30.48068576388889 23.08376736111111)"/><use xlink:href="#d" transform="matrix(1,0,0,1,1145.688802083333,544.3333333333334) translate(28.223741319444443 23.08376736111111)"/><use xlink:href="#f" transform="matrix(1,0,0,1,1225.688802083333,544.3333333333334) translate(28.13693576388889 23.08376736111111)"/><use xlink:href="#g" transform="matrix(1,0,0,1,982.9999999999998,584.3333333333334) translate(7.420138888888889 23.08376736111111)"/><use xlink:href="#h" transform="matrix(1,0,0,1,1065.688802083333,584.3333333333334) translate(28.712022569444443 23.08376736111111)"/><use xlink:href="#i" transform="matrix(1,0,0,1,1145.688802083333,584.3333333333334) translate(28.126085069444443 23.08376736111111)"/><use xlink:href="#j" transform="matrix(1,0,0,1,1225.688802083333,584.3333333333334) translate(28.10980902777778 23.08376736111111)"/><path d="M978 680h82.7v40H978zM1060.7 680h80v40h-80zM1140.7 680h80v40h-80z" fill="#fff"/><path d="M1220.7 680h80v40h-80z" fill="#edf5ff"/><path d="M978 720h82.7v40H978zM1060.7 720h80v40h-80zM1140.7 720h80v40h-80z" fill="#fff"/><path d="M1220.7 720h80v40h-80z" fill="#edf5ff"/><path d="M978 760h82.7v40H978zM1060.7 760h80v40h-80zM1140.7 760h80v40h-80z" fill="#fff"/><path d="M1220.7 760h80v40h-80z" fill="#edf5ff"/><path d="M978 680v40M978 680h82.7M1060.7 680v40M1060.7 680h80M1140.7 680v40M1140.7 680h80M1220.7 680v40M1300.7 680v40M1220.7 680h80M978 720v40M978 720h82.7M1060.7 720v40M1060.7 720h80M1140.7 720v40M1140.7 720h80M1220.7 720v40M1300.7 720v40M1220.7 720h80M978 760v40M978 760h82.7M978 800h82.7M1060.7 760v40M1060.7 760h80M1060.7 800h80M1140.7 760v40M1140.7 760h80M1140.7 800h80M1220.7 760v40M1300.7 760v40M1220.7 760h80M1220.7 800h80" stroke="#000" fill="none"/><use xlink:href="#a" transform="matrix(1,0,0,1,982.9999999999998,685) translate(7.854166666666664 23.08376736111111)"/><use xlink:href="#b" transform="matrix(1,0,0,1,1065.688802083333,685) translate(27.99045138888889 23.08376736111111)"/><use xlink:href="#c" transform="matrix(1,0,0,1,1145.688802083333,685) translate(30.48068576388889 23.08376736111111)"/><use xlink:href="#d" transform="matrix(1,0,0,1,1225.688802083333,685) translate(28.223741319444443 23.08376736111111)"/><use xlink:href="#e" transform="matrix(1,0,0,1,982.9999999999998,725) translate(0.1555989583333357 23.08376736111111)"/><use xlink:href="#c" transform="matrix(1,0,0,1,1065.688802083333,725) translate(30.48068576388889 23.08376736111111)"/><use xlink:href="#d" transform="matrix(1,0,0,1,1145.688802083333,725) translate(28.223741319444443 23.08376736111111)"/><use xlink:href="#k" transform="matrix(1,0,0,1,1225.688802083333,725) translate(15.230034722222221 23.08376736111111)"/><use xlink:href="#g" transform="matrix(1,0,0,1,982.9999999999998,765) translate(7.420138888888889 23.08376736111111)"/><use xlink:href="#h" transform="matrix(1,0,0,1,1065.688802083333,765) translate(28.712022569444443 23.08376736111111)"/><use xlink:href="#i" transform="matrix(1,0,0,1,1145.688802083333,765) translate(28.126085069444443 23.08376736111111)"/><use xlink:href="#b" transform="matrix(1,0,0,1,1225.688802083333,765) translate(27.99045138888889 23.08376736111111)"/><defs><path d="M370-1490V0H180v-1490h190" id="l"/><path d="M338-670V0H158v-1118h173l1 207c72-158 192-221 342-221 226 0 378 139 378 422V0H872v-695c0-172-96-275-252-275-161 0-282 109-282 300" id="m"/><path d="M577 24c-279 0-473-224-473-580 0-354 195-576 474-576 218 0 287 134 324 193h14v-551h180V0H922v-173h-20C865-111 790 24 577 24zm27-161c203 0 314-172 314-421 0-247-108-413-314-413-212 0-317 181-317 413 0 235 108 421 317 421" id="n"/><path d="M628 24c-324 0-524-230-524-574 0-343 198-582 503-582 237 0 487 146 487 559v75H286c9 234 145 362 343 362 132 0 231-58 273-172l174 48C1024-91 857 24 628 24zM287-650h624c-17-190-120-322-304-322-192 0-309 151-320 322" id="o"/><path d="M65 0l393-574-370-544h210c88 136 192 297 267 435 67-142 176-302 264-435h206L661-564 1053 0H844c-94-144-206-310-287-458C484-308 366-142 273 0H65" id="p"/><g id="a"><use transform="matrix(0.010850694444444444,0,0,0.010850694444444444,0,0)" xlink:href="#l"/><use transform="matrix(0.010850694444444444,0,0,0.010850694444444444,5.967881944444445,0)" xlink:href="#m"/><use transform="matrix(0.010850694444444444,0,0,0.010850694444444444,19.09722222222222,0)" xlink:href="#n"/><use transform="matrix(0.010850694444444444,0,0,0.010850694444444444,32.70399305555556,0)" xlink:href="#o"/><use transform="matrix(0.010850694444444444,0,0,0.010850694444444444,45.16059027777778,0)" xlink:href="#p"/></g><path d="M646 20c-332 0-524-278-524-764 0-483 194-766 524-766s524 283 524 766c0 485-191 764-524 764zm0-166c218 0 341-220 341-598 0-380-123-601-341-601s-341 222-341 601c0 378 123 598 341 598" id="q"/><use transform="matrix(0.010850694444444444,0,0,0.010850694444444444,0,0)" xlink:href="#q" id="b"/><path d="M653-1490V0H466v-1314h-10L96-1047v-204l324-239h233" id="r"/><use transform="matrix(0.010850694444444444,0,0,0.010850694444444444,0,0)" xlink:href="#r" id="c"/><path d="M154 0v-137l495-537c165-179 249-281 249-418 0-156-121-253-280-253-170 0-278 110-278 278H158c0-264 200-443 465-443 266 0 455 183 455 416 0 161-73 288-336 568L416-179v12h687V0H154" id="s"/><use transform="matrix(0.010850694444444444,0,0,0.010850694444444444,0,0)" xlink:href="#s" id="d"/><path d="M180 0v-1490h190v1322h690V0H180" id="t"/><path d="M611 442c-248 0-391-105-460-228l146-94c47 65 117 165 314 165 178 0 307-82 307-266v-224h-17C863-141 792-18 576-18c-268 0-472-195-472-546 0-346 197-568 476-568 216 0 288 133 326 193h17v-179h175V29c0 289-215 413-487 413zm-5-620c203 0 314-146 314-390 0-237-108-403-314-403-213 0-319 180-319 403 0 230 109 390 319 390" id="u"/><path d="M598-1118v154H368v674c0 100 37 144 132 144 23 0 62-6 92-12L629-6c-37 13-88 20-134 20-193 0-307-107-307-290v-688H20v-154h168v-266h180v266h230" id="v"/><path d="M338-670V0H158v-1490h180v566c73-149 190-208 336-208 226 0 379 139 379 422V0H872v-695c0-172-96-275-252-275-161 0-282 109-282 300" id="w"/><g id="e"><use transform="matrix(0.010850694444444444,0,0,0.010850694444444444,0,0)" xlink:href="#t"/><use transform="matrix(0.010850694444444444,0,0,0.010850694444444444,12.565104166666666,0)" xlink:href="#o"/><use transform="matrix(0.010850694444444444,0,0,0.010850694444444444,25.520833333333332,0)" xlink:href="#m"/><use transform="matrix(0.010850694444444444,0,0,0.010850694444444444,38.65017361111111,0)" xlink:href="#u"/><use transform="matrix(0.010850694444444444,0,0,0.010850694444444444,52.27864583333333,0)" xlink:href="#v"/><use transform="matrix(0.010850694444444444,0,0,0.010850694444444444,59.54861111111111,0)" xlink:href="#w"/></g><path d="M635 20c-292 0-500-160-510-396h192c11 142 145 229 315 229 187 0 323-105 323-260 0-161-125-274-346-274H488v-165h121c174 0 294-100 294-254 0-148-104-245-266-245-152 0-291 85-297 230H157c8-234 222-395 484-395 278 0 448 188 448 400 0 168-95 291-247 336v12c190 31 301 169 301 357 0 244-216 425-508 425" id="x"/><use transform="matrix(0.010850694444444444,0,0,0.010850694444444444,0,0)" xlink:href="#x" id="f"/><path d="M600 0L52-1490h200c166 485 304 806 458 1336 156-533 285-846 449-1336h202L819 0H600" id="y"/><path d="M471 26C259 26 90-98 90-318c0-256 228-303 435-329 202-27 287-16 287-108 0-139-79-219-234-219-161 0-248 86-283 164l-173-57c86-203 278-265 451-265 150 0 419 46 419 395V0H815v-152h-12C765-73 660 26 471 26zm31-159c199 0 310-134 310-271v-155c-30 35-226 55-295 64-131 17-246 59-246 186 0 116 97 176 231 176" id="z"/><path d="M338-1490V0H158v-1490h180" id="A"/><path d="M537 14c-226 0-379-139-379-422v-710h180v695c0 172 97 275 253 275 160 0 281-109 281-300v-670h181V0H879v-209C806-46 684 14 537 14" id="B"/><g id="g"><use transform="matrix(0.010850694444444444,0,0,0.010850694444444444,0,0)" xlink:href="#y"/><use transform="matrix(0.010850694444444444,0,0,0.010850694444444444,14.20355902777778,0)" xlink:href="#z"/><use transform="matrix(0.010850694444444444,0,0,0.010850694444444444,26.68185763888889,0)" xlink:href="#A"/><use transform="matrix(0.010850694444444444,0,0,0.010850694444444444,32.063802083333336,0)" xlink:href="#B"/><use transform="matrix(0.010850694444444444,0,0,0.010850694444444444,45.20399305555556,0)" xlink:href="#o"/></g><path d="M200 0l662-1311v-12H98v-167h963v177L400 0H200" id="C"/><use transform="matrix(0.010850694444444444,0,0,0.010850694444444444,0,0)" xlink:href="#C" id="h"/><path d="M633 20c-303 0-511-173-511-416 0-188 124-348 291-378v-8c-145-37-237-174-237-332 0-227 192-396 457-396 261 0 456 169 456 396 0 158-94 295-235 332v8c162 30 291 190 291 378 0 243-212 416-512 416zm0-165c197 0 322-103 322-261 0-165-138-283-322-283-188 0-324 118-324 283 0 158 123 261 324 261zm0-703c157 0 272-101 272-252 0-149-110-246-272-246-165 0-273 97-273 246 0 151 112 252 273 252" id="D"/><use transform="matrix(0.010850694444444444,0,0,0.010850694444444444,0,0)" xlink:href="#D" id="i"/><path d="M603 20c-253 0-434-161-469-399h188c31 132 124 231 281 231 227 0 367-207 367-568h-12c-80 122-211 199-367 199-257 0-469-206-469-493 0-278 200-505 506-500 245 4 520 158 520 706 0 527-208 824-545 824zm16-703c181 0 324-157 324-332 0-171-135-328-318-328-180 0-317 148-317 332 0 183 131 328 311 328" id="E"/><use transform="matrix(0.010850694444444444,0,0,0.010850694444444444,0,0)" xlink:href="#E" id="j"/><path d="M180 0v-1490h224l606 953c40 63 108 177 176 312-27-437-7-821-13-1265h190V0h-226C860-448 622-778 356-1262c27 476 11 792 15 1262H180" id="F"/><path d="M692-1560L212 224H46l480-1784h166" id="G"/><path d="M52 0l541-1490h220L1361 0h-200l-149-416H398L254 0H52zm404-582h497c-103-290-145-390-251-756-108 377-145 460-246 756" id="H"/><g id="k"><use transform="matrix(0.010850694444444444,0,0,0.010850694444444444,0,0)" xlink:href="#F"/><use transform="matrix(0.010850694444444444,0,0,0.010850694444444444,16.74262152777778,0)" xlink:href="#G"/><use transform="matrix(0.010850694444444444,0,0,0.010850694444444444,24.207899305555554,0)" xlink:href="#H"/></g></defs></g></svg>