<svg xmlns="http://www.w3.org/2000/svg" xmlns:xlink="http://www.w3.org/1999/xlink" xmlns:lucid="lucid" width="321" height="81"><g transform="translate(-977.4999999999998 -498.83333333333337)" lucid:page-tab-id="0_0"><path d="M978 499.33h80v40h-80zM1058 499.33h80v40h-80zM1138 499.33h80v40h-80zM1218 499.33h80v40h-80zM978 539.33h80v40h-80zM1058 539.33h80v40h-80zM1138 539.33h80v40h-80zM1218 539.33h80v40h-80z" fill="#fff"/><path d="M978 499.33v40M978 499.33h80M1058 499.33v40M1058 499.33h80M1138 499.33v40M1138 499.33h80M1218 499.33v40M1298 499.33v40M1218 499.33h80M978 539.33v40M978 539.33h80M978 579.33h80M1058 539.33v40M1058 539.33h80M1058 579.33h80M1138 539.33v40M1138 539.33h80M1138 579.33h80M1218 539.33v40M1298 539.33v40M1218 539.33h80M1218 579.33h80" stroke="#000" fill="none"/><use xlink:href="#a" transform="matrix(1,0,0,1,982.9999999999998,504.33333333333337) translate(6.354166666666664 23.08376736111111)"/><use xlink:href="#b" transform="matrix(1,0,0,1,1062.9999999999998,504.33333333333337) translate(27.99045138888889 23.08376736111111)"/><use xlink:href="#c" transform="matrix(1,0,0,1,1142.9999999999998,504.33333333333337) translate(30.48068576388889 23.08376736111111)"/><use xlink:href="#d" transform="matrix(1,0,0,1,1222.9999999999998,504.33333333333337) translate(28.223741319444443 23.08376736111111)"/><use xlink:href="#e" transform="matrix(1,0,0,1,982.9999999999998,544.3333333333334) translate(5.920138888888889 23.08376736111111)"/><use xlink:href="#c" transform="matrix(1,0,0,1,1062.9999999999998,544.3333333333334) translate(30.48068576388889 23.08376736111111)"/><use xlink:href="#d" transform="matrix(1,0,0,1,1142.9999999999998,544.3333333333334) translate(28.223741319444443 23.08376736111111)"/><use xlink:href="#f" transform="matrix(1,0,0,1,1222.9999999999998,544.3333333333334) translate(28.13693576388889 23.08376736111111)"/><defs><path d="M370-1490V0H180v-1490h190" id="g"/><path d="M338-670V0H158v-1118h173l1 207c72-158 192-221 342-221 226 0 378 139 378 422V0H872v-695c0-172-96-275-252-275-161 0-282 109-282 300" id="h"/><path d="M577 24c-279 0-473-224-473-580 0-354 195-576 474-576 218 0 287 134 324 193h14v-551h180V0H922v-173h-20C865-111 790 24 577 24zm27-161c203 0 314-172 314-421 0-247-108-413-314-413-212 0-317 181-317 413 0 235 108 421 317 421" id="i"/><path d="M628 24c-324 0-524-230-524-574 0-343 198-582 503-582 237 0 487 146 487 559v75H286c9 234 145 362 343 362 132 0 231-58 273-172l174 48C1024-91 857 24 628 24zM287-650h624c-17-190-120-322-304-322-192 0-309 151-320 322" id="j"/><path d="M65 0l393-574-370-544h210c88 136 192 297 267 435 67-142 176-302 264-435h206L661-564 1053 0H844c-94-144-206-310-287-458C484-308 366-142 273 0H65" id="k"/><g id="a"><use transform="matrix(0.010850694444444444,0,0,0.010850694444444444,0,0)" xlink:href="#g"/><use transform="matrix(0.010850694444444444,0,0,0.010850694444444444,5.967881944444445,0)" xlink:href="#h"/><use transform="matrix(0.010850694444444444,0,0,0.010850694444444444,19.09722222222222,0)" xlink:href="#i"/><use transform="matrix(0.010850694444444444,0,0,0.010850694444444444,32.70399305555556,0)" xlink:href="#j"/><use transform="matrix(0.010850694444444444,0,0,0.010850694444444444,45.16059027777778,0)" xlink:href="#k"/></g><path d="M646 20c-332 0-524-278-524-764 0-483 194-766 524-766s524 283 524 766c0 485-191 764-524 764zm0-166c218 0 341-220 341-598 0-380-123-601-341-601s-341 222-341 601c0 378 123 598 341 598" id="l"/><use transform="matrix(0.010850694444444444,0,0,0.010850694444444444,0,0)" xlink:href="#l" id="b"/><path d="M653-1490V0H466v-1314h-10L96-1047v-204l324-239h233" id="m"/><use transform="matrix(0.010850694444444444,0,0,0.010850694444444444,0,0)" xlink:href="#m" id="c"/><path d="M154 0v-137l495-537c165-179 249-281 249-418 0-156-121-253-280-253-170 0-278 110-278 278H158c0-264 200-443 465-443 266 0 455 183 455 416 0 161-73 288-336 568L416-179v12h687V0H154" id="n"/><use transform="matrix(0.010850694444444444,0,0,0.010850694444444444,0,0)" xlink:href="#n" id="d"/><path d="M600 0L52-1490h200c166 485 304 806 458 1336 156-533 285-846 449-1336h202L819 0H600" id="o"/><path d="M471 26C259 26 90-98 90-318c0-256 228-303 435-329 202-27 287-16 287-108 0-139-79-219-234-219-161 0-248 86-283 164l-173-57c86-203 278-265 451-265 150 0 419 46 419 395V0H815v-152h-12C765-73 660 26 471 26zm31-159c199 0 310-134 310-271v-155c-30 35-226 55-295 64-131 17-246 59-246 186 0 116 97 176 231 176" id="p"/><path d="M338-1490V0H158v-1490h180" id="q"/><path d="M537 14c-226 0-379-139-379-422v-710h180v695c0 172 97 275 253 275 160 0 281-109 281-300v-670h181V0H879v-209C806-46 684 14 537 14" id="r"/><g id="e"><use transform="matrix(0.010850694444444444,0,0,0.010850694444444444,0,0)" xlink:href="#o"/><use transform="matrix(0.010850694444444444,0,0,0.010850694444444444,14.20355902777778,0)" xlink:href="#p"/><use transform="matrix(0.010850694444444444,0,0,0.010850694444444444,26.68185763888889,0)" xlink:href="#q"/><use transform="matrix(0.010850694444444444,0,0,0.010850694444444444,32.063802083333336,0)" xlink:href="#r"/><use transform="matrix(0.010850694444444444,0,0,0.010850694444444444,45.20399305555556,0)" xlink:href="#j"/></g><path d="M635 20c-292 0-500-160-510-396h192c11 142 145 229 315 229 187 0 323-105 323-260 0-161-125-274-346-274H488v-165h121c174 0 294-100 294-254 0-148-104-245-266-245-152 0-291 85-297 230H157c8-234 222-395 484-395 278 0 448 188 448 400 0 168-95 291-247 336v12c190 31 301 169 301 357 0 244-216 425-508 425" id="s"/><use transform="matrix(0.010850694444444444,0,0,0.010850694444444444,0,0)" xlink:href="#s" id="f"/></defs></g></svg>