<svg xmlns="http://www.w3.org/2000/svg" xmlns:xlink="http://www.w3.org/1999/xlink" xmlns:lucid="lucid" width="337.96" height="221"><g transform="translate(-937.4999999999998 -399.5)" lucid:page-tab-id="0_0"><path d="M938 400h96.96v40H938zM1034.96 400h80v40h-80zM1114.96 400h80v40h-80zM1194.96 400h80v40h-80zM938 440h96.96v40H938zM1034.96 440h80v40h-80zM1114.96 440h80v40h-80zM1194.96 440h80v40h-80z" fill="#fff"/><path d="M938 400v40M938 400h96.96M1034.96 400v40M1034.96 400h80M1114.96 400v40M1114.96 400h80M1194.96 400v40M1274.96 400v40M1194.96 400h80M938 440v40M938 440h96.96M938 480h96.96M1034.96 440v40M1034.96 440h80M1034.96 480h80M1114.96 440v40M1114.96 440h80M1114.96 480h80M1194.96 440v40M1274.96 440v40M1194.96 440h80M1194.96 480h80" stroke="#000" fill="none"/><use xlink:href="#a" transform="matrix(1,0,0,1,942.9999999999998,405) translate(14.42013888888889 23.08376736111111)"/><use xlink:href="#b" transform="matrix(1,0,0,1,1039.9574652777776,405) translate(30.48068576388889 23.08376736111111)"/><use xlink:href="#c" transform="matrix(1,0,0,1,1119.9574652777776,405) translate(28.223741319444443 23.08376736111111)"/><use xlink:href="#d" transform="matrix(1,0,0,1,1199.9574652777776,405) translate(28.13693576388889 23.08376736111111)"/><use xlink:href="#e" transform="matrix(1,0,0,1,942.9999999999998,445) translate(0.02126736111111427 23.08376736111111)"/><use xlink:href="#f" transform="matrix(1,0,0,1,1039.9574652777776,445) translate(20.86154513888889 23.08376736111111)"/><use xlink:href="#g" transform="matrix(1,0,0,1,1119.9574652777776,445) translate(20.693359375 23.08376736111111)"/><use xlink:href="#h" transform="matrix(1,0,0,1,1199.9574652777776,445) translate(20.997178819444443 23.08376736111111)"/><path d="M938 540h96.96v40H938zM1034.96 540h80v40h-80zM1114.96 540h80v40h-80zM1194.96 540h80v40h-80zM938 580h96.96v40H938zM1034.96 580h80v40h-80zM1114.96 580h80v40h-80zM1194.96 580h80v40h-80z" fill="#fff"/><path d="M938 540v40M938 540h96.96M1034.96 540v40M1034.96 540h80M1114.96 540v40M1114.96 540h80M1194.96 540v40M1274.96 540v40M1194.96 540h80M938 580v40M938 580h96.96M938 620h96.96M1034.96 580v40M1034.96 580h80M1034.96 620h80M1114.96 580v40M1114.96 580h80M1114.96 620h80M1194.96 580v40M1274.96 580v40M1194.96 580h80M1194.96 620h80" stroke="#000" fill="none"/><use xlink:href="#a" transform="matrix(1,0,0,1,942.9999999999998,545) translate(14.42013888888889 23.08376736111111)"/><use xlink:href="#i" transform="matrix(1,0,0,1,1039.9574652777776,545) translate(28.760850694444443 23.08376736111111)"/><use xlink:href="#j" transform="matrix(1,0,0,1,1119.9574652777776,545) translate(28.196614583333336 23.08376736111111)"/><use xlink:href="#k" transform="matrix(1,0,0,1,1199.9574652777776,545) translate(28.65234375 23.08376736111111)"/><use xlink:href="#e" transform="matrix(1,0,0,1,942.9999999999998,585) translate(0.02126736111111427 23.08376736111111)"/><use xlink:href="#f" transform="matrix(1,0,0,1,1039.9574652777776,585) translate(20.86154513888889 23.08376736111111)"/><use xlink:href="#g" transform="matrix(1,0,0,1,1119.9574652777776,585) translate(20.693359375 23.08376736111111)"/><use xlink:href="#h" transform="matrix(1,0,0,1,1199.9574652777776,585) translate(20.997178819444443 23.08376736111111)"/><defs><path d="M600 0L52-1490h200c166 485 304 806 458 1336 156-533 285-846 449-1336h202L819 0H600" id="l"/><path d="M471 26C259 26 90-98 90-318c0-256 228-303 435-329 202-27 287-16 287-108 0-139-79-219-234-219-161 0-248 86-283 164l-173-57c86-203 278-265 451-265 150 0 419 46 419 395V0H815v-152h-12C765-73 660 26 471 26zm31-159c199 0 310-134 310-271v-155c-30 35-226 55-295 64-131 17-246 59-246 186 0 116 97 176 231 176" id="m"/><path d="M338-1490V0H158v-1490h180" id="n"/><path d="M537 14c-226 0-379-139-379-422v-710h180v695c0 172 97 275 253 275 160 0 281-109 281-300v-670h181V0H879v-209C806-46 684 14 537 14" id="o"/><path d="M628 24c-324 0-524-230-524-574 0-343 198-582 503-582 237 0 487 146 487 559v75H286c9 234 145 362 343 362 132 0 231-58 273-172l174 48C1024-91 857 24 628 24zM287-650h624c-17-190-120-322-304-322-192 0-309 151-320 322" id="p"/><g id="a"><use transform="matrix(0.010850694444444444,0,0,0.010850694444444444,0,0)" xlink:href="#l"/><use transform="matrix(0.010850694444444444,0,0,0.010850694444444444,14.20355902777778,0)" xlink:href="#m"/><use transform="matrix(0.010850694444444444,0,0,0.010850694444444444,26.68185763888889,0)" xlink:href="#n"/><use transform="matrix(0.010850694444444444,0,0,0.010850694444444444,32.063802083333336,0)" xlink:href="#o"/><use transform="matrix(0.010850694444444444,0,0,0.010850694444444444,45.20399305555556,0)" xlink:href="#p"/></g><path d="M653-1490V0H466v-1314h-10L96-1047v-204l324-239h233" id="q"/><use transform="matrix(0.010850694444444444,0,0,0.010850694444444444,0,0)" xlink:href="#q" id="b"/><path d="M154 0v-137l495-537c165-179 249-281 249-418 0-156-121-253-280-253-170 0-278 110-278 278H158c0-264 200-443 465-443 266 0 455 183 455 416 0 161-73 288-336 568L416-179v12h687V0H154" id="r"/><use transform="matrix(0.010850694444444444,0,0,0.010850694444444444,0,0)" xlink:href="#r" id="c"/><path d="M635 20c-292 0-500-160-510-396h192c11 142 145 229 315 229 187 0 323-105 323-260 0-161-125-274-346-274H488v-165h121c174 0 294-100 294-254 0-148-104-245-266-245-152 0-291 85-297 230H157c8-234 222-395 484-395 278 0 448 188 448 400 0 168-95 291-247 336v12c190 31 301 169 301 357 0 244-216 425-508 425" id="s"/><use transform="matrix(0.010850694444444444,0,0,0.010850694444444444,0,0)" xlink:href="#s" id="d"/><path d="M52 0l541-1490h220L1361 0h-200l-149-416H398L254 0H52zm404-582h497c-103-290-145-390-251-756-108 377-145 460-246 756" id="t"/><path d="M577 24c-279 0-473-224-473-580 0-354 195-576 474-576 218 0 287 134 324 193h14v-551h180V0H922v-173h-20C865-111 790 24 577 24zm27-161c203 0 314-172 314-421 0-247-108-413-314-413-212 0-317 181-317 413 0 235 108 421 317 421" id="u"/><path d="M158 0v-1118h174v172h12c41-113 157-188 290-188 26 0 70 2 91 3v181c-11-2-60-10-108-10-161 0-279 109-279 260V0H158" id="v"/><path d="M538 24C308 24 148-78 108-271l171-41c32 123 123 178 257 178 156 0 256-77 256-169 0-77-54-128-164-154l-186-44c-203-48-300-148-300-305 0-192 176-326 414-326 230 0 351 112 402 269l-163 42c-31-80-94-158-238-158-133 0-233 69-233 162 0 83 57 129 188 160l169 40c203 48 298 149 298 302 0 196-179 339-441 339" id="w"/><g id="e"><use transform="matrix(0.010850694444444444,0,0,0.010850694444444444,0,0)" xlink:href="#t"/><use transform="matrix(0.010850694444444444,0,0,0.010850694444444444,15.33203125,0)" xlink:href="#u"/><use transform="matrix(0.010850694444444444,0,0,0.010850694444444444,28.938802083333332,0)" xlink:href="#u"/><use transform="matrix(0.010850694444444444,0,0,0.010850694444444444,42.545572916666664,0)" xlink:href="#v"/><use transform="matrix(0.010850694444444444,0,0,0.010850694444444444,50.54253472222221,0)" xlink:href="#p"/><use transform="matrix(0.010850694444444444,0,0,0.010850694444444444,63.49826388888888,0)" xlink:href="#w"/><use transform="matrix(0.010850694444444444,0,0,0.010850694444444444,75.22786458333333,0)" xlink:href="#w"/></g><path d="M597 218V24C309 5 132-156 116-390h195c13 149 137 227 286 243v-538c-251-59-439-189-439-406 0-230 187-390 439-415v-202h120v199c269 18 452 182 461 395H992c-15-130-125-210-275-225v505l59 16c160 44 422 134 422 412 0 229-174 409-481 430v194H597zm120-365c172-19 296-119 296-262 0-144-136-198-296-242v504zM597-868v-470c-155 21-254 115-254 238 0 142 146 201 254 232" id="x"/><path d="M646 20c-332 0-524-278-524-764 0-483 194-766 524-766s524 283 524 766c0 485-191 764-524 764zm0-166c218 0 341-220 341-598 0-380-123-601-341-601s-341 222-341 601c0 378 123 598 341 598" id="y"/><g id="f"><use transform="matrix(0.010850694444444444,0,0,0.010850694444444444,0,0)" xlink:href="#x"/><use transform="matrix(0.010850694444444444,0,0,0.010850694444444444,14.2578125,0)" xlink:href="#y"/></g><path d="M120-303v-155l652-1032h231v1020h202v167h-202V0H821v-303H120zm702-167v-782h-12L323-482v12h499" id="z"/><g id="g"><use transform="matrix(0.010850694444444444,0,0,0.010850694444444444,0,0)" xlink:href="#x"/><use transform="matrix(0.010850694444444444,0,0,0.010850694444444444,14.2578125,0)" xlink:href="#z"/></g><path d="M633 20c-303 0-511-173-511-416 0-188 124-348 291-378v-8c-145-37-237-174-237-332 0-227 192-396 457-396 261 0 456 169 456 396 0 158-94 295-235 332v8c162 30 291 190 291 378 0 243-212 416-512 416zm0-165c197 0 322-103 322-261 0-165-138-283-322-283-188 0-324 118-324 283 0 158 123 261 324 261zm0-703c157 0 272-101 272-252 0-149-110-246-272-246-165 0-273 97-273 246 0 151 112 252 273 252" id="A"/><g id="h"><use transform="matrix(0.010850694444444444,0,0,0.010850694444444444,0,0)" xlink:href="#x"/><use transform="matrix(0.010850694444444444,0,0,0.010850694444444444,14.2578125,0)" xlink:href="#A"/></g><use transform="matrix(0.010850694444444444,0,0,0.010850694444444444,0,0)" xlink:href="#m" id="i"/><path d="M677 24c-213 0-288-135-325-197h-20V0H158v-1490h180v551h14c37-59 106-193 324-193 279 0 474 222 474 576 0 356-194 580-473 580zm-27-161c209 0 317-186 317-421 0-232-105-413-317-413-206 0-314 166-314 413 0 249 111 421 314 421" id="B"/><use transform="matrix(0.010850694444444444,0,0,0.010850694444444444,0,0)" xlink:href="#B" id="j"/><path d="M613 24c-304 0-509-231-509-576 0-350 205-580 509-580 216 0 392 114 453 309l-173 49c-33-115-133-197-280-197-223 0-326 196-326 419 0 220 103 415 326 415 150 0 252-85 285-206l172 49C1010-95 832 24 613 24" id="C"/><use transform="matrix(0.010850694444444444,0,0,0.010850694444444444,0,0)" xlink:href="#C" id="k"/></defs></g></svg>