<svg xmlns="http://www.w3.org/2000/svg" xmlns:xlink="http://www.w3.org/1999/xlink" xmlns:lucid="lucid" width="302" height="468.89"><g transform="translate(-179 -139)" lucid:page-tab-id="0_0"><path d="M420 180c0 22.1-17.9 40-40 40s-40-17.9-40-40 17.9-40 40-40 40 17.9 40 40z" stroke="#3a414a" stroke-width="2" fill="#1071e5"/><use xlink:href="#a" transform="matrix(1,0,0,1,345,145) translate(30.48068576388889 43.40277777777778)"/><path d="M380 221.5V244a6 6 0 0 1-6 6h-48a6 6 0 0 0-6 6v6.62" stroke="#3a414a" fill="none"/><path d="M380 221l.48-.02v.53h-.96v-.53z" stroke="#3a414a" stroke-width=".05" fill="#3a414a"/><path d="M320 277.38l-4.63-14.26h9.26z" stroke="#3a414a" fill="#3a414a"/><path d="M360 320c0 22.1-17.9 40-40 40s-40-17.9-40-40 17.9-40 40-40 40 17.9 40 40z" stroke="#3a414a" stroke-width="2"/><use xlink:href="#b" transform="matrix(1,0,0,1,285,285) translate(28.223741319444443 43.40277777777778)"/><path d="M380 221.5V244a6 6 0 0 0 6 6h48a6 6 0 0 1 6 6v6.62" stroke="#3a414a" fill="none"/><path d="M380 221l.48-.02v.53h-.96v-.53z" stroke="#3a414a" stroke-width=".05" fill="#3a414a"/><path d="M440 277.38l-4.63-14.26h9.26z" stroke="#3a414a" fill="#3a414a"/><path d="M480 320c0 22.1-17.9 40-40 40s-40-17.9-40-40 17.9-40 40-40 40 17.9 40 40z" stroke="#3a414a" stroke-width="2" fill="#1071e5"/><use xlink:href="#c" transform="matrix(1,0,0,1,405,285) translate(28.13693576388889 43.40277777777778)"/><path d="M320 361.5V384a6 6 0 0 1-6 6h-48a6 6 0 0 0-6 6v6.62" stroke="#3a414a" fill="none"/><path d="M320 361l.48-.02v.53h-.96v-.53z" stroke="#3a414a" stroke-width=".05" fill="#3a414a"/><path d="M260 417.38l-4.63-14.26h9.26z" stroke="#3a414a" fill="#3a414a"/><path d="M300 460c0 22.1-17.9 40-40 40s-40-17.9-40-40 17.9-40 40-40 40 17.9 40 40z" stroke="#3a414a" stroke-width="2"/><use xlink:href="#d" transform="matrix(1,0,0,1,225,425) translate(27.822265625 43.40277777777778)"/><path d="M320 361.5V384a6 6 0 0 0 6 6h48a6 6 0 0 1 6 6v6.62" stroke="#3a414a" fill="none"/><path d="M320 361l.48-.02v.53h-.96v-.53z" stroke="#3a414a" stroke-width=".05" fill="#3a414a"/><path d="M380 417.38l-4.63-14.26h9.26z" stroke="#3a414a" fill="#3a414a"/><path d="M420 460c0 22.1-17.9 40-40 40s-40-17.9-40-40 17.9-40 40-40 40 17.9 40 40z" stroke="#3a414a" stroke-width="2" fill="#1071e5"/><use xlink:href="#e" transform="matrix(1,0,0,1,345,425) translate(28.245442708333336 43.40277777777778)"/><path d="M180 161a6 6 0 0 1 6-6h108a6 6 0 0 1 6 6v38a6 6 0 0 1-6 6H186a6 6 0 0 1-6-6z" stroke="#3a414a" stroke-width="2" fill="#fff"/><use xlink:href="#f" transform="matrix(1,0,0,1,185,160) translate(2.667100694444443 29.02777777777778)"/><use xlink:href="#g" transform="matrix(1,0,0,1,185,160) translate(98.29427083333333 29.02777777777778)"/><path d="M230 546a6 6 0 0 1 6-6h168a6 6 0 0 1 6 6v54.9a6 6 0 0 1-6 6H236a6 6 0 0 1-6-6z" stroke="#3a414a" stroke-width="2" fill="#fff"/><use xlink:href="#h" transform="matrix(1,0,0,1,235,545) translate(8.638237847222214 35.77777777777778)"/><use xlink:href="#i" transform="matrix(1,0,0,1,235,545) translate(84.07226562499999 35.77777777777778)"/><use xlink:href="#j" transform="matrix(1,0,0,1,235,545) translate(113.86827256944443 35.77777777777778)"/><use xlink:href="#k" transform="matrix(1,0,0,1,235,545) translate(139.74717881944446 35.77777777777778)"/><defs><path fill="#fff" d="M653-1490V0H466v-1314h-10L96-1047v-204l324-239h233" id="l"/><use transform="matrix(0.010850694444444444,0,0,0.010850694444444444,0,0)" xlink:href="#l" id="a"/><path fill="#fff" d="M154 0v-137l495-537c165-179 249-281 249-418 0-156-121-253-280-253-170 0-278 110-278 278H158c0-264 200-443 465-443 266 0 455 183 455 416 0 161-73 288-336 568L416-179v12h687V0H154" id="m"/><use transform="matrix(0.010850694444444444,0,0,0.010850694444444444,0,0)" xlink:href="#m" id="b"/><path fill="#fff" d="M635 20c-292 0-500-160-510-396h192c11 142 145 229 315 229 187 0 323-105 323-260 0-161-125-274-346-274H488v-165h121c174 0 294-100 294-254 0-148-104-245-266-245-152 0-291 85-297 230H157c8-234 222-395 484-395 278 0 448 188 448 400 0 168-95 291-247 336v12c190 31 301 169 301 357 0 244-216 425-508 425" id="n"/><use transform="matrix(0.010850694444444444,0,0,0.010850694444444444,0,0)" xlink:href="#n" id="c"/><path fill="#fff" d="M120-303v-155l652-1032h231v1020h202v167h-202V0H821v-303H120zm702-167v-782h-12L323-482v12h499" id="o"/><use transform="matrix(0.010850694444444444,0,0,0.010850694444444444,0,0)" xlink:href="#o" id="d"/><path fill="#fff" d="M626 20c-262 0-458-168-468-396h184c12 133 134 229 284 229 180 0 311-137 311-326 0-192-136-335-323-335-92 0-196 33-255 78l-178-22 88-738h784v167H429l-51 435h8c61-51 160-87 263-87 273 0 474 211 474 499 0 286-210 496-497 496" id="p"/><use transform="matrix(0.010850694444444444,0,0,0.010850694444444444,0,0)" xlink:href="#p" id="e"/><path d="M180 0v-1490h908v168H370v486h669v168H370v500h727V0H180" id="q"/><path d="M65 0l393-574-370-544h210c88 136 192 297 267 435 67-142 176-302 264-435h206L661-564 1053 0H844c-94-144-206-310-287-458C484-308 366-142 273 0H65" id="r"/><path d="M471 26C259 26 90-98 90-318c0-256 228-303 435-329 202-27 287-16 287-108 0-139-79-219-234-219-161 0-248 86-283 164l-173-57c86-203 278-265 451-265 150 0 419 46 419 395V0H815v-152h-12C765-73 660 26 471 26zm31-159c199 0 310-134 310-271v-155c-30 35-226 55-295 64-131 17-246 59-246 186 0 116 97 176 231 176" id="s"/><path d="M158 0v-1118h175l1 205c55-151 181-225 313-225 147 0 245 90 285 228 53-141 190-228 352-228 194 0 352 125 352 384V0h-181v-749c0-161-105-225-225-225-151 0-243 103-243 244V0H807v-767c0-124-93-207-219-207-131 0-250 92-250 270V0H158" id="t"/><path d="M158 418v-1536h174v179h20c37-59 106-193 324-193 279 0 474 222 474 576 0 356-194 580-473 580-213 0-288-135-325-197h-14v591H158zm492-555c209 0 317-186 317-421 0-232-105-413-317-413-206 0-314 166-314 413 0 249 111 421 314 421" id="u"/><path d="M338-1490V0H158v-1490h180" id="v"/><path d="M628 24c-324 0-524-230-524-574 0-343 198-582 503-582 237 0 487 146 487 559v75H286c9 234 145 362 343 362 132 0 231-58 273-172l174 48C1024-91 857 24 628 24zM287-650h624c-17-190-120-322-304-322-192 0-309 151-320 322" id="w"/><g id="f"><use transform="matrix(0.010850694444444444,0,0,0.010850694444444444,0,0)" xlink:href="#q"/><use transform="matrix(0.010850694444444444,0,0,0.010850694444444444,13.35720486111111,0)" xlink:href="#r"/><use transform="matrix(0.010850694444444444,0,0,0.010850694444444444,25.48828125,0)" xlink:href="#s"/><use transform="matrix(0.010850694444444444,0,0,0.010850694444444444,37.966579861111114,0)" xlink:href="#t"/><use transform="matrix(0.010850694444444444,0,0,0.010850694444444444,57.43272569444444,0)" xlink:href="#u"/><use transform="matrix(0.010850694444444444,0,0,0.010850694444444444,71.03949652777777,0)" xlink:href="#v"/><use transform="matrix(0.010850694444444444,0,0,0.010850694444444444,76.42144097222221,0)" xlink:href="#w"/></g><path d="M653-1490V0H466v-1314h-10L96-1047v-204l324-239h233" id="x"/><use transform="matrix(0.010850694444444444,0,0,0.010850694444444444,0,0)" xlink:href="#x" id="g"/><path d="M180 0v-1490h510c348 0 508 194 508 460 0 198-88 351-276 417L1256 0h-220L726-579c-117 2-238 0-356 1V0H180zm190-747h312c235 0 327-108 327-283 0-177-92-293-329-293H370v576" id="y"/><path d="M598-1118v154H368v674c0 100 37 144 132 144 23 0 62-6 92-12L629-6c-37 13-88 20-134 20-193 0-307-107-307-290v-688H20v-154h168v-266h180v266h230" id="z"/><path d="M537 14c-226 0-379-139-379-422v-710h180v695c0 172 97 275 253 275 160 0 281-109 281-300v-670h181V0H879v-209C806-46 684 14 537 14" id="A"/><path d="M158 0v-1118h174v172h12c41-113 157-188 290-188 26 0 70 2 91 3v181c-11-2-60-10-108-10-161 0-279 109-279 260V0H158" id="B"/><path d="M338-670V0H158v-1118h173l1 207c72-158 192-221 342-221 226 0 378 139 378 422V0H872v-695c0-172-96-275-252-275-161 0-282 109-282 300" id="C"/><g id="h"><use transform="matrix(0.010850694444444444,0,0,0.010850694444444444,0,0)" xlink:href="#y"/><use transform="matrix(0.010850694444444444,0,0,0.010850694444444444,13.975694444444445,0)" xlink:href="#w"/><use transform="matrix(0.010850694444444444,0,0,0.010850694444444444,26.931423611111104,0)" xlink:href="#z"/><use transform="matrix(0.010850694444444444,0,0,0.010850694444444444,34.201388888888886,0)" xlink:href="#A"/><use transform="matrix(0.010850694444444444,0,0,0.010850694444444444,47.34157986111111,0)" xlink:href="#B"/><use transform="matrix(0.010850694444444444,0,0,0.010850694444444444,56.054687499999986,0)" xlink:href="#C"/></g><path d="M226 279v-1860h398v153H398V126h226v153H226" id="D"/><path d="M128 359l88-567h206L266 359H128" id="E"/><g id="i"><use transform="matrix(0.010850694444444444,0,0,0.010850694444444444,0,0)" xlink:href="#D"/><use transform="matrix(0.010850694444444444,0,0,0.010850694444444444,8.10546875,0)" xlink:href="#x"/><use transform="matrix(0.010850694444444444,0,0,0.010850694444444444,17.14409722222222,0)" xlink:href="#E"/></g><path d="M635 20c-292 0-500-160-510-396h192c11 142 145 229 315 229 187 0 323-105 323-260 0-161-125-274-346-274H488v-165h121c174 0 294-100 294-254 0-148-104-245-266-245-152 0-291 85-297 230H157c8-234 222-395 484-395 278 0 448 188 448 400 0 168-95 291-247 336v12c190 31 301 169 301 357 0 244-216 425-508 425" id="F"/><g id="j"><use transform="matrix(0.010850694444444444,0,0,0.010850694444444444,0,0)" xlink:href="#F"/><use transform="matrix(0.010850694444444444,0,0,0.010850694444444444,13.226996527777777,0)" xlink:href="#E"/></g><path d="M626 20c-262 0-458-168-468-396h184c12 133 134 229 284 229 180 0 311-137 311-326 0-192-136-335-323-335-92 0-196 33-255 78l-178-22 88-738h784v167H429l-51 435h8c61-51 160-87 263-87 273 0 474 211 474 499 0 286-210 496-497 496" id="G"/><path d="M123 279V126h226v-1554H123v-153h398V279H123" id="H"/><g id="k"><use transform="matrix(0.010850694444444444,0,0,0.010850694444444444,0,0)" xlink:href="#G"/><use transform="matrix(0.010850694444444444,0,0,0.010850694444444444,13.509114583333332,0)" xlink:href="#H"/></g></defs></g></svg>