<svg xmlns="http://www.w3.org/2000/svg" xmlns:xlink="http://www.w3.org/1999/xlink" xmlns:lucid="lucid" width="662" height="1872.97"><g transform="translate(-99 -139)" lucid:page-tab-id="0_0"><path d="M420 180c0 22.1-17.9 40-40 40s-40-17.9-40-40 17.9-40 40-40 40 17.9 40 40z" stroke="#3a414a" stroke-width="2" fill="#1071e5"/><use xlink:href="#a" transform="matrix(1,0,0,1,345,145) translate(30.48068576388889 43.40277777777778)"/><path d="M380 221.5V244a6 6 0 0 1-6 6h-48a6 6 0 0 0-6 6v6.62" stroke="#3a414a" fill="none"/><path d="M380 221l.48-.02v.53h-.96v-.53z" stroke="#3a414a" stroke-width=".05" fill="#3a414a"/><path d="M320 277.38l-4.63-14.26h9.26z" stroke="#3a414a" fill="#3a414a"/><path d="M360 320c0 22.1-17.9 40-40 40s-40-17.9-40-40 17.9-40 40-40 40 17.9 40 40z" stroke="#3a414a" stroke-width="2"/><use xlink:href="#b" transform="matrix(1,0,0,1,285,285) translate(28.223741319444443 43.40277777777778)"/><path d="M380 221.5V244a6 6 0 0 0 6 6h48a6 6 0 0 1 6 6v6.62" stroke="#3a414a" fill="none"/><path d="M380 221l.48-.02v.53h-.96v-.53z" stroke="#3a414a" stroke-width=".05" fill="#3a414a"/><path d="M440 277.38l-4.63-14.26h9.26z" stroke="#3a414a" fill="#3a414a"/><path d="M480 320c0 22.1-17.9 40-40 40s-40-17.9-40-40 17.9-40 40-40 40 17.9 40 40z" stroke="#3a414a" stroke-width="2" fill="#1071e5"/><use xlink:href="#c" transform="matrix(1,0,0,1,405,285) translate(28.13693576388889 43.40277777777778)"/><path d="M320 361.5V384a6 6 0 0 1-6 6h-48a6 6 0 0 0-6 6v6.62" stroke="#3a414a" fill="none"/><path d="M320 361l.48-.02v.53h-.96v-.53z" stroke="#3a414a" stroke-width=".05" fill="#3a414a"/><path d="M260 417.38l-4.63-14.26h9.26z" stroke="#3a414a" fill="#3a414a"/><path d="M300 460c0 22.1-17.9 40-40 40s-40-17.9-40-40 17.9-40 40-40 40 17.9 40 40z" stroke="#3a414a" stroke-width="2"/><use xlink:href="#d" transform="matrix(1,0,0,1,225,425) translate(27.822265625 43.40277777777778)"/><path d="M320 361.5V384a6 6 0 0 0 6 6h48a6 6 0 0 1 6 6v6.62" stroke="#3a414a" fill="none"/><path d="M320 361l.48-.02v.53h-.96v-.53z" stroke="#3a414a" stroke-width=".05" fill="#3a414a"/><path d="M380 417.38l-4.63-14.26h9.26z" stroke="#3a414a" fill="#3a414a"/><path d="M420 460c0 22.1-17.9 40-40 40s-40-17.9-40-40 17.9-40 40-40 40 17.9 40 40z" stroke="#3a414a" stroke-width="2" fill="#1071e5"/><use xlink:href="#e" transform="matrix(1,0,0,1,345,425) translate(28.245442708333336 43.40277777777778)"/><path d="M180 161a6 6 0 0 1 6-6h108a6 6 0 0 1 6 6v38a6 6 0 0 1-6 6H186a6 6 0 0 1-6-6z" stroke="#3a414a" stroke-width="2" fill="#fff"/><use xlink:href="#f" transform="matrix(1,0,0,1,185,160) translate(2.667100694444443 29.02777777777778)"/><use xlink:href="#g" transform="matrix(1,0,0,1,185,160) translate(98.29427083333333 29.02777777777778)"/><path d="M230 546a6 6 0 0 1 6-6h168a6 6 0 0 1 6 6v54.9a6 6 0 0 1-6 6H236a6 6 0 0 1-6-6z" stroke="#3a414a" stroke-width="2" fill="#fff"/><use xlink:href="#h" transform="matrix(1,0,0,1,235,545) translate(8.638237847222214 35.77777777777778)"/><use xlink:href="#i" transform="matrix(1,0,0,1,235,545) translate(84.07226562499999 35.77777777777778)"/><use xlink:href="#j" transform="matrix(1,0,0,1,235,545) translate(113.86827256944443 35.77777777777778)"/><use xlink:href="#k" transform="matrix(1,0,0,1,235,545) translate(139.74717881944446 35.77777777777778)"/><path d="M420 686.9c0 22.08-17.9 40-40 40s-40-17.92-40-40c0-22.1 17.9-40 40-40s40 17.9 40 40z" stroke="#3a414a" stroke-width="2" fill="#1071e5"/><use xlink:href="#l" transform="matrix(1,0,0,1,345,651.8880208333334) translate(30.48568576388889 28.09027777777778)"/><use xlink:href="#m" transform="matrix(1,0,0,1,345,651.8880208333334) translate(6.375442708333333 54.978298611111114)"/><use xlink:href="#n" transform="matrix(1,0,0,1,345,651.8880208333334) translate(28.662769097222224 54.978298611111114)"/><use xlink:href="#o" transform="matrix(1,0,0,1,345,651.8880208333334) translate(49.615460069444445 54.978298611111114)"/><path d="M160 656.94a6 6 0 0 1 6-6h108a6 6 0 0 1 6 6v59.9a6 6 0 0 1-6 6H166a6 6 0 0 1-6-6z" stroke="#3a414a" stroke-width="2" fill="#fff"/><use xlink:href="#p" transform="matrix(1,0,0,1,165,655.9440104166666) translate(5.119357638888893 25.40277777777778)"/><use xlink:href="#q" transform="matrix(1,0,0,1,165,655.9440104166666) translate(61.467013888888886 25.40277777777778)"/><use xlink:href="#r" transform="matrix(1,0,0,1,165,655.9440104166666) translate(21.042751736111114 52.290798611111114)"/><use xlink:href="#s" transform="matrix(1,0,0,1,165,655.9440104166666) translate(47.041015625 52.290798611111114)"/><path d="M420 860c0 22.1-17.9 40-40 40s-40-17.9-40-40 17.9-40 40-40 40 17.9 40 40z" stroke="#3a414a" stroke-width="2" fill="#1071e5"/><use xlink:href="#l" transform="matrix(1,0,0,1,345,825) translate(30.48568576388889 28.09027777777778)"/><use xlink:href="#m" transform="matrix(1,0,0,1,345,825) translate(6.375442708333333 54.978298611111114)"/><use xlink:href="#n" transform="matrix(1,0,0,1,345,825) translate(28.662769097222224 54.978298611111114)"/><use xlink:href="#o" transform="matrix(1,0,0,1,345,825) translate(49.615460069444445 54.978298611111114)"/><path d="M380 901.5V924a6 6 0 0 0 6 6h48a6 6 0 0 1 6 6v6.62" stroke="#3a414a" fill="none"/><path d="M380 901l.48-.02v.53h-.96v-.53z" stroke="#3a414a" stroke-width=".05" fill="#3a414a"/><path d="M440 957.38l-4.63-14.26h9.26z" stroke="#3a414a" fill="#3a414a"/><path d="M480 1000c0 22.1-17.9 40-40 40s-40-17.9-40-40 17.9-40 40-40 40 17.9 40 40z" stroke="#3a414a" stroke-width="2" fill="#1071e5"/><use xlink:href="#t" transform="matrix(1,0,0,1,405,965) translate(28.14193576388889 30.27777777777778)"/><use xlink:href="#m" transform="matrix(1,0,0,1,405,965) translate(8.865677083333333 57.165798611111114)"/><use xlink:href="#n" transform="matrix(1,0,0,1,405,965) translate(31.153003472222224 57.165798611111114)"/><use xlink:href="#u" transform="matrix(1,0,0,1,405,965) translate(52.105694444444445 57.165798611111114)"/><path d="M120 820.67a6 6 0 0 1 6-6h168a6 6 0 0 1 6 6v78.66a6 6 0 0 1-6 6H126a6 6 0 0 1-6-6z" stroke="#3a414a" stroke-width="2" fill="#fff"/><use xlink:href="#v" transform="matrix(1,0,0,1,125,819.66796875) translate(18.984375 24.05902777777778)"/><use xlink:href="#w" transform="matrix(1,0,0,1,125,819.66796875) translate(66.45616319444444 24.05902777777778)"/><use xlink:href="#x" transform="matrix(1,0,0,1,125,819.66796875) translate(11.26953125 50.947048611111114)"/><use xlink:href="#y" transform="matrix(1,0,0,1,125,819.66796875) translate(108.91493055555556 50.947048611111114)"/><use xlink:href="#z" transform="matrix(1,0,0,1,125,819.66796875) translate(16.15776909722223 77.83506944444446)"/><use xlink:href="#A" transform="matrix(1,0,0,1,125,819.66796875) translate(96.14908854166667 77.83506944444446)"/><path d="M450 656.94a6 6 0 0 1 6-6h108a6 6 0 0 1 6 6v59.9a6 6 0 0 1-6 6H456a6 6 0 0 1-6-6z" stroke="#3a414a" stroke-width="2" fill="#fff"/><use xlink:href="#B" transform="matrix(1,0,0,1,455,655.9440104166666) translate(16.952039930555557 25.40277777777778)"/><use xlink:href="#C" transform="matrix(1,0,0,1,455,655.9440104166666) translate(55.88433159722222 25.40277777777778)"/><use xlink:href="#D" transform="matrix(1,0,0,1,455,655.9440104166666) translate(76.83702256944444 25.40277777777778)"/><use xlink:href="#E" transform="matrix(1,0,0,1,455,655.9440104166666) translate(4.099392361111114 52.290798611111114)"/><use xlink:href="#C" transform="matrix(1,0,0,1,455,655.9440104166666) translate(70.92881944444444 52.290798611111114)"/><use xlink:href="#F" transform="matrix(1,0,0,1,455,655.9440104166666) translate(91.88151041666666 52.290798611111114)"/><path d="M420 1140c0 22.1-17.9 40-40 40s-40-17.9-40-40 17.9-40 40-40 40 17.9 40 40z" stroke="#3a414a" stroke-width="2" fill="#1071e5"/><use xlink:href="#l" transform="matrix(1,0,0,1,345,1105) translate(30.48568576388889 28.09027777777778)"/><use xlink:href="#m" transform="matrix(1,0,0,1,345,1105) translate(6.375442708333333 54.978298611111114)"/><use xlink:href="#n" transform="matrix(1,0,0,1,345,1105) translate(28.662769097222224 54.978298611111114)"/><use xlink:href="#o" transform="matrix(1,0,0,1,345,1105) translate(49.615460069444445 54.978298611111114)"/><path d="M380 1181.5v22.5a6 6 0 0 1-6 6h-48a6 6 0 0 0-6 6v6.62" stroke="#3a414a" fill="none"/><path d="M380 1181l.48-.02v.53h-.96v-.53z" stroke="#3a414a" stroke-width=".05" fill="#3a414a"/><path d="M320 1237.38l-4.63-14.27 9.26.02z" stroke="#3a414a" fill="#3a414a"/><path d="M360 1280c0 22.1-17.9 40-40 40s-40-17.9-40-40 17.9-40 40-40 40 17.9 40 40z" stroke="#3a414a" stroke-width="2"/><use xlink:href="#G" transform="matrix(1,0,0,1,285,1245) translate(28.228741319444445 30.27777777777778)"/><use xlink:href="#m" transform="matrix(1,0,0,1,285,1245) translate(8.865677083333333 57.165798611111114)"/><use xlink:href="#n" transform="matrix(1,0,0,1,285,1245) translate(31.153003472222224 57.165798611111114)"/><use xlink:href="#u" transform="matrix(1,0,0,1,285,1245) translate(52.105694444444445 57.165798611111114)"/><path d="M380 1181.5v22.5a6 6 0 0 0 6 6h48a6 6 0 0 1 6 6v6.62" stroke="#3a414a" fill="none"/><path d="M380 1181l.48-.02v.53h-.96v-.53z" stroke="#3a414a" stroke-width=".05" fill="#3a414a"/><path d="M440 1237.38l-4.63-14.27 9.26.02z" stroke="#3a414a" fill="#3a414a"/><path d="M480 1280c0 22.1-17.9 40-40 40s-40-17.9-40-40 17.9-40 40-40 40 17.9 40 40z" stroke="#3a414a" stroke-width="2" fill="#1071e5"/><use xlink:href="#t" transform="matrix(1,0,0,1,405,1245) translate(28.14193576388889 30.27777777777778)"/><use xlink:href="#m" transform="matrix(1,0,0,1,405,1245) translate(8.865677083333333 57.165798611111114)"/><use xlink:href="#n" transform="matrix(1,0,0,1,405,1245) translate(31.153003472222224 57.165798611111114)"/><use xlink:href="#u" transform="matrix(1,0,0,1,405,1245) translate(52.105694444444445 57.165798611111114)"/><path d="M320 1321.5v22.5a6 6 0 0 0 6 6h48a6 6 0 0 1 6 6v6.62" stroke="#3a414a" fill="none"/><path d="M320 1321l.48-.02v.53h-.96v-.53z" stroke="#3a414a" stroke-width=".05" fill="#3a414a"/><path d="M380 1377.38l-4.63-14.27 9.26.02z" stroke="#3a414a" fill="#3a414a"/><path d="M420 1420c0 22.1-17.9 40-40 40s-40-17.9-40-40 17.9-40 40-40 40 17.9 40 40z" stroke="#3a414a" stroke-width="2" fill="#1071e5"/><use xlink:href="#H" transform="matrix(1,0,0,1,345,1385) translate(28.25044270833333 28.09027777777778)"/><use xlink:href="#m" transform="matrix(1,0,0,1,345,1385) translate(6.60873263888889 54.978298611111114)"/><use xlink:href="#n" transform="matrix(1,0,0,1,345,1385) translate(28.89605902777778 54.978298611111114)"/><use xlink:href="#I" transform="matrix(1,0,0,1,345,1385) translate(49.84875 54.978298611111114)"/><path d="M100 1100.67a6 6 0 0 1 6-6h168a6 6 0 0 1 6 6v78.66a6 6 0 0 1-6 6H106a6 6 0 0 1-6-6z" stroke="#3a414a" stroke-width="2" fill="#fff"/><g><use xlink:href="#J" transform="matrix(1,0,0,1,105,1099.66796875) translate(2.0952690972222285 34.18402777777778)"/><use xlink:href="#K" transform="matrix(1,0,0,1,105,1099.66796875) translate(82.08658854166667 34.18402777777778)"/><use xlink:href="#L" transform="matrix(1,0,0,1,105,1099.66796875) translate(121.40950520833334 34.18402777777778)"/><use xlink:href="#M" transform="matrix(1,0,0,1,105,1099.66796875) translate(57.732204861111114 61.072048611111114)"/></g><path d="M520 971.3a6 6 0 0 1 6-6h128a6 6 0 0 1 6 6v57.4a6 6 0 0 1-6 6H526a6 6 0 0 1-6-6z" stroke="#3a414a" stroke-width="2" fill="#fff"/><g><use xlink:href="#B" transform="matrix(1,0,0,1,525,970.3059895833334) translate(22.432725694444443 25.27777777777778)"/><use xlink:href="#C" transform="matrix(1,0,0,1,525,970.3059895833334) translate(61.36501736111111 25.27777777777778)"/><use xlink:href="#N" transform="matrix(1,0,0,1,525,970.3059895833334) translate(82.31770833333333 25.27777777777778)"/><use xlink:href="#E" transform="matrix(1,0,0,1,525,970.3059895833334) translate(16.589626736111114 52.165798611111114)"/><use xlink:href="#C" transform="matrix(1,0,0,1,525,970.3059895833334) translate(83.41905381944444 52.165798611111114)"/><use xlink:href="#g" transform="matrix(1,0,0,1,525,970.3059895833334) translate(104.37174479166666 52.165798611111114)"/></g><path d="M450 1391.92a6 6 0 0 1 6-6h128a6 6 0 0 1 6 6v57.4a6 6 0 0 1-6 6H456a6 6 0 0 1-6-6z" stroke="#3a414a" stroke-width="2" fill="#fff"/><g><use xlink:href="#B" transform="matrix(1,0,0,1,455,1390.9179687500002) translate(9.243706597222229 25.27777777777778)"/><use xlink:href="#C" transform="matrix(1,0,0,1,455,1390.9179687500002) translate(48.17599826388889 25.27777777777778)"/><use xlink:href="#i" transform="matrix(1,0,0,1,455,1390.9179687500002) translate(69.12868923611111 25.27777777777778)"/><use xlink:href="#O" transform="matrix(1,0,0,1,455,1390.9179687500002) translate(98.92469618055556 25.27777777777778)"/><use xlink:href="#E" transform="matrix(1,0,0,1,455,1390.9179687500002) translate(14.332682291666671 52.165798611111114)"/><use xlink:href="#C" transform="matrix(1,0,0,1,455,1390.9179687500002) translate(81.162109375 52.165798611111114)"/><use xlink:href="#P" transform="matrix(1,0,0,1,455,1390.9179687500002) translate(102.11480034722221 52.165798611111114)"/></g><path d="M420 1560c0 22.1-17.9 40-40 40s-40-17.9-40-40 17.9-40 40-40 40 17.9 40 40z" stroke="#3a414a" stroke-width="2" fill="#1071e5"/><g><use xlink:href="#l" transform="matrix(1,0,0,1,345,1525) translate(30.48568576388889 28.09027777777778)"/><use xlink:href="#m" transform="matrix(1,0,0,1,345,1525) translate(6.375442708333333 54.978298611111114)"/><use xlink:href="#n" transform="matrix(1,0,0,1,345,1525) translate(28.662769097222224 54.978298611111114)"/><use xlink:href="#o" transform="matrix(1,0,0,1,345,1525) translate(49.615460069444445 54.978298611111114)"/></g><path d="M380 1601.5v22.5a6 6 0 0 1-6 6h-48a6 6 0 0 0-6 6v6.62" stroke="#3a414a" fill="none"/><path d="M380 1601l.48-.02v.53h-.96v-.53z" stroke="#3a414a" stroke-width=".05" fill="#3a414a"/><path d="M320 1657.38l-4.63-14.27 9.26.02z" stroke="#3a414a" fill="#3a414a"/><path d="M360 1700c0 22.1-17.9 40-40 40s-40-17.9-40-40 17.9-40 40-40 40 17.9 40 40z" stroke="#3a414a" stroke-width="2"/><g><use xlink:href="#G" transform="matrix(1,0,0,1,285,1665) translate(28.228741319444445 30.27777777777778)"/><use xlink:href="#m" transform="matrix(1,0,0,1,285,1665) translate(8.865677083333333 57.165798611111114)"/><use xlink:href="#n" transform="matrix(1,0,0,1,285,1665) translate(31.153003472222224 57.165798611111114)"/><use xlink:href="#u" transform="matrix(1,0,0,1,285,1665) translate(52.105694444444445 57.165798611111114)"/></g><path d="M380 1601.5v22.5a6 6 0 0 0 6 6h48a6 6 0 0 1 6 6v6.62" stroke="#3a414a" fill="none"/><path d="M380 1601l.48-.02v.53h-.96v-.53z" stroke="#3a414a" stroke-width=".05" fill="#3a414a"/><path d="M440 1657.38l-4.63-14.27 9.26.02z" stroke="#3a414a" fill="#3a414a"/><path d="M480 1700c0 22.1-17.9 40-40 40s-40-17.9-40-40 17.9-40 40-40 40 17.9 40 40z" stroke="#3a414a" stroke-width="2" fill="#1071e5"/><g><use xlink:href="#t" transform="matrix(1,0,0,1,405,1665) translate(28.14193576388889 30.27777777777778)"/><use xlink:href="#m" transform="matrix(1,0,0,1,405,1665) translate(8.865677083333333 57.165798611111114)"/><use xlink:href="#n" transform="matrix(1,0,0,1,405,1665) translate(31.153003472222224 57.165798611111114)"/><use xlink:href="#u" transform="matrix(1,0,0,1,405,1665) translate(52.105694444444445 57.165798611111114)"/></g><path d="M320 1741.5v22.5a6 6 0 0 1-6 6h-48a6 6 0 0 0-6 6v6.62" stroke="#3a414a" fill="none"/><path d="M320 1741l.48-.02v.53h-.96v-.53z" stroke="#3a414a" stroke-width=".05" fill="#3a414a"/><path d="M260 1797.38l-4.63-14.27 9.26.02z" stroke="#3a414a" fill="#3a414a"/><path d="M300 1840c0 22.1-17.9 40-40 40s-40-17.9-40-40 17.9-40 40-40 40 17.9 40 40z" stroke="#3a414a" stroke-width="2"/><g><use xlink:href="#Q" transform="matrix(1,0,0,1,225,1805) translate(27.827265625000003 28.09027777777778)"/><use xlink:href="#m" transform="matrix(1,0,0,1,225,1805) translate(6.60873263888889 54.978298611111114)"/><use xlink:href="#n" transform="matrix(1,0,0,1,225,1805) translate(28.89605902777778 54.978298611111114)"/><use xlink:href="#I" transform="matrix(1,0,0,1,225,1805) translate(49.84875 54.978298611111114)"/></g><path d="M320 1741.5v22.5a6 6 0 0 0 6 6h48a6 6 0 0 1 6 6v6.62" stroke="#3a414a" fill="none"/><path d="M320 1741l.48-.02v.53h-.96v-.53z" stroke="#3a414a" stroke-width=".05" fill="#3a414a"/><path d="M380 1797.38l-4.63-14.27 9.26.02z" stroke="#3a414a" fill="#3a414a"/><path d="M420 1840c0 22.1-17.9 40-40 40s-40-17.9-40-40 17.9-40 40-40 40 17.9 40 40z" stroke="#3a414a" stroke-width="2" fill="#1071e5"/><g><use xlink:href="#H" transform="matrix(1,0,0,1,345,1805) translate(28.25044270833333 28.09027777777778)"/><use xlink:href="#m" transform="matrix(1,0,0,1,345,1805) translate(6.60873263888889 54.978298611111114)"/><use xlink:href="#n" transform="matrix(1,0,0,1,345,1805) translate(28.89605902777778 54.978298611111114)"/><use xlink:href="#I" transform="matrix(1,0,0,1,345,1805) translate(49.84875 54.978298611111114)"/></g><path d="M460 1800.67a6 6 0 0 1 6-6h148a6 6 0 0 1 6 6V1874a6 6 0 0 1-6 6H466a6 6 0 0 1-6-6z" stroke="#3a414a" stroke-width="2" fill="#fff"/><g><use xlink:href="#B" transform="matrix(1,0,0,1,465,1799.6679687499998) translate(6.412760416666671 33.40277777777778)"/><use xlink:href="#C" transform="matrix(1,0,0,1,465,1799.6679687499998) translate(45.345052083333336 33.40277777777778)"/><use xlink:href="#i" transform="matrix(1,0,0,1,465,1799.6679687499998) translate(66.29774305555556 33.40277777777778)"/><use xlink:href="#j" transform="matrix(1,0,0,1,465,1799.6679687499998) translate(96.09375 33.40277777777778)"/><use xlink:href="#R" transform="matrix(1,0,0,1,465,1799.6679687499998) translate(121.97265625 33.40277777777778)"/><use xlink:href="#E" transform="matrix(1,0,0,1,465,1799.6679687499998) translate(24.33268229166667 60.290798611111114)"/><use xlink:href="#C" transform="matrix(1,0,0,1,465,1799.6679687499998) translate(91.162109375 60.290798611111114)"/><use xlink:href="#P" transform="matrix(1,0,0,1,465,1799.6679687499998) translate(112.11480034722221 60.290798611111114)"/></g><path d="M480 1066a6 6 0 0 1 6-6h268a6 6 0 0 1 6 6v98.97a6 6 0 0 1-6 6H486a6 6 0 0 1-6-6z" stroke="#3a414a" stroke-width="2" fill="#fff"/><g><use xlink:href="#S" transform="matrix(1,0,0,1,485,1065) translate(26.086154513888886 30.99652777777778)"/><use xlink:href="#T" transform="matrix(1,0,0,1,485,1065) translate(82.412109375 30.99652777777778)"/><use xlink:href="#U" transform="matrix(1,0,0,1,485,1065) translate(128.82052951388889 30.99652777777778)"/><use xlink:href="#V" transform="matrix(1,0,0,1,485,1065) translate(173.59049479166666 30.99652777777778)"/><use xlink:href="#W" transform="matrix(1,0,0,1,485,1065) translate(21.4691840277778 57.884548611111114)"/><use xlink:href="#X" transform="matrix(1,0,0,1,485,1065) translate(107.10286458333334 57.884548611111114)"/><use xlink:href="#Y" transform="matrix(1,0,0,1,485,1065) translate(127.07899305555557 57.884548611111114)"/><use xlink:href="#Z" transform="matrix(1,0,0,1,485,1065) translate(153.70659722222223 57.884548611111114)"/><use xlink:href="#aa" transform="matrix(1,0,0,1,485,1065) translate(192.63888888888889 57.884548611111114)"/><use xlink:href="#ab" transform="matrix(1,0,0,1,485,1065) translate(40.79427083333334 84.77256944444446)"/><use xlink:href="#ac" transform="matrix(1,0,0,1,485,1065) translate(130.49696180555554 84.77256944444446)"/><use xlink:href="#ad" transform="matrix(1,0,0,1,485,1065) translate(165.92447916666666 84.77256944444446)"/></g><path d="M460 1486a6 6 0 0 1 6-6h268a6 6 0 0 1 6 6v98.97a6 6 0 0 1-6 6H466a6 6 0 0 1-6-6z" stroke="#3a414a" stroke-width="2" fill="#fff"/><g><use xlink:href="#S" transform="matrix(1,0,0,1,465,1485) translate(26.086154513888886 30.99652777777778)"/><use xlink:href="#T" transform="matrix(1,0,0,1,465,1485) translate(82.412109375 30.99652777777778)"/><use xlink:href="#U" transform="matrix(1,0,0,1,465,1485) translate(128.82052951388889 30.99652777777778)"/><use xlink:href="#V" transform="matrix(1,0,0,1,465,1485) translate(173.59049479166666 30.99652777777778)"/><use xlink:href="#W" transform="matrix(1,0,0,1,465,1485) translate(21.57769097222223 57.884548611111114)"/><use xlink:href="#ae" transform="matrix(1,0,0,1,465,1485) translate(107.21137152777777 57.884548611111114)"/><use xlink:href="#Y" transform="matrix(1,0,0,1,465,1485) translate(126.9704861111111 57.884548611111114)"/><use xlink:href="#Z" transform="matrix(1,0,0,1,465,1485) translate(153.59809027777777 57.884548611111114)"/><use xlink:href="#aa" transform="matrix(1,0,0,1,465,1485) translate(192.53038194444443 57.884548611111114)"/><use xlink:href="#ab" transform="matrix(1,0,0,1,465,1485) translate(40.79427083333334 84.77256944444446)"/><use xlink:href="#ac" transform="matrix(1,0,0,1,465,1485) translate(130.49696180555554 84.77256944444446)"/><use xlink:href="#ad" transform="matrix(1,0,0,1,465,1485) translate(165.92447916666666 84.77256944444446)"/></g><path d="M400 1906a6 6 0 0 1 6-6h268a6 6 0 0 1 6 6v98.97a6 6 0 0 1-6 6H406a6 6 0 0 1-6-6z" stroke="#3a414a" stroke-width="2" fill="#fff"/><g><use xlink:href="#S" transform="matrix(1,0,0,1,405,1905) translate(26.086154513888886 30.99652777777778)"/><use xlink:href="#T" transform="matrix(1,0,0,1,405,1905) translate(82.412109375 30.99652777777778)"/><use xlink:href="#U" transform="matrix(1,0,0,1,405,1905) translate(128.82052951388889 30.99652777777778)"/><use xlink:href="#V" transform="matrix(1,0,0,1,405,1905) translate(173.59049479166666 30.99652777777778)"/><use xlink:href="#af" transform="matrix(1,0,0,1,405,1905) translate(25.391710069444457 57.884548611111114)"/><use xlink:href="#W" transform="matrix(1,0,0,1,405,1905) translate(79.05924479166669 57.884548611111114)"/><use xlink:href="#ag" transform="matrix(1,0,0,1,405,1905) translate(164.69292534722223 57.884548611111114)"/><use xlink:href="#Y" transform="matrix(1,0,0,1,405,1905) translate(185.29839409722223 57.884548611111114)"/><use xlink:href="#ah" transform="matrix(1,0,0,1,405,1905) translate(211.92599826388889 57.884548611111114)"/><use xlink:href="#ai" transform="matrix(1,0,0,1,405,1905) translate(13.510199652777786 84.77256944444446)"/><use xlink:href="#ab" transform="matrix(1,0,0,1,405,1905) translate(75.65212673611111 84.77256944444446)"/><use xlink:href="#aj" transform="matrix(1,0,0,1,405,1905) translate(165.35481770833331 84.77256944444446)"/><use xlink:href="#ad" transform="matrix(1,0,0,1,405,1905) translate(193.20855034722223 84.77256944444446)"/></g><defs><path fill="#fff" d="M653-1490V0H466v-1314h-10L96-1047v-204l324-239h233" id="ak"/><use transform="matrix(0.010850694444444444,0,0,0.010850694444444444,0,0)" xlink:href="#ak" id="a"/><path fill="#fff" d="M154 0v-137l495-537c165-179 249-281 249-418 0-156-121-253-280-253-170 0-278 110-278 278H158c0-264 200-443 465-443 266 0 455 183 455 416 0 161-73 288-336 568L416-179v12h687V0H154" id="al"/><use transform="matrix(0.010850694444444444,0,0,0.010850694444444444,0,0)" xlink:href="#al" id="b"/><path fill="#fff" d="M635 20c-292 0-500-160-510-396h192c11 142 145 229 315 229 187 0 323-105 323-260 0-161-125-274-346-274H488v-165h121c174 0 294-100 294-254 0-148-104-245-266-245-152 0-291 85-297 230H157c8-234 222-395 484-395 278 0 448 188 448 400 0 168-95 291-247 336v12c190 31 301 169 301 357 0 244-216 425-508 425" id="am"/><use transform="matrix(0.010850694444444444,0,0,0.010850694444444444,0,0)" xlink:href="#am" id="c"/><path fill="#fff" d="M120-303v-155l652-1032h231v1020h202v167h-202V0H821v-303H120zm702-167v-782h-12L323-482v12h499" id="an"/><use transform="matrix(0.010850694444444444,0,0,0.010850694444444444,0,0)" xlink:href="#an" id="d"/><path fill="#fff" d="M626 20c-262 0-458-168-468-396h184c12 133 134 229 284 229 180 0 311-137 311-326 0-192-136-335-323-335-92 0-196 33-255 78l-178-22 88-738h784v167H429l-51 435h8c61-51 160-87 263-87 273 0 474 211 474 499 0 286-210 496-497 496" id="ao"/><use transform="matrix(0.010850694444444444,0,0,0.010850694444444444,0,0)" xlink:href="#ao" id="e"/><path d="M180 0v-1490h908v168H370v486h669v168H370v500h727V0H180" id="ap"/><path d="M65 0l393-574-370-544h210c88 136 192 297 267 435 67-142 176-302 264-435h206L661-564 1053 0H844c-94-144-206-310-287-458C484-308 366-142 273 0H65" id="aq"/><path d="M471 26C259 26 90-98 90-318c0-256 228-303 435-329 202-27 287-16 287-108 0-139-79-219-234-219-161 0-248 86-283 164l-173-57c86-203 278-265 451-265 150 0 419 46 419 395V0H815v-152h-12C765-73 660 26 471 26zm31-159c199 0 310-134 310-271v-155c-30 35-226 55-295 64-131 17-246 59-246 186 0 116 97 176 231 176" id="ar"/><path d="M158 0v-1118h175l1 205c55-151 181-225 313-225 147 0 245 90 285 228 53-141 190-228 352-228 194 0 352 125 352 384V0h-181v-749c0-161-105-225-225-225-151 0-243 103-243 244V0H807v-767c0-124-93-207-219-207-131 0-250 92-250 270V0H158" id="as"/><path d="M158 418v-1536h174v179h20c37-59 106-193 324-193 279 0 474 222 474 576 0 356-194 580-473 580-213 0-288-135-325-197h-14v591H158zm492-555c209 0 317-186 317-421 0-232-105-413-317-413-206 0-314 166-314 413 0 249 111 421 314 421" id="at"/><path d="M338-1490V0H158v-1490h180" id="au"/><path d="M628 24c-324 0-524-230-524-574 0-343 198-582 503-582 237 0 487 146 487 559v75H286c9 234 145 362 343 362 132 0 231-58 273-172l174 48C1024-91 857 24 628 24zM287-650h624c-17-190-120-322-304-322-192 0-309 151-320 322" id="av"/><g id="f"><use transform="matrix(0.010850694444444444,0,0,0.010850694444444444,0,0)" xlink:href="#ap"/><use transform="matrix(0.010850694444444444,0,0,0.010850694444444444,13.35720486111111,0)" xlink:href="#aq"/><use transform="matrix(0.010850694444444444,0,0,0.010850694444444444,25.48828125,0)" xlink:href="#ar"/><use transform="matrix(0.010850694444444444,0,0,0.010850694444444444,37.966579861111114,0)" xlink:href="#as"/><use transform="matrix(0.010850694444444444,0,0,0.010850694444444444,57.43272569444444,0)" xlink:href="#at"/><use transform="matrix(0.010850694444444444,0,0,0.010850694444444444,71.03949652777777,0)" xlink:href="#au"/><use transform="matrix(0.010850694444444444,0,0,0.010850694444444444,76.42144097222221,0)" xlink:href="#av"/></g><path d="M653-1490V0H466v-1314h-10L96-1047v-204l324-239h233" id="aw"/><use transform="matrix(0.010850694444444444,0,0,0.010850694444444444,0,0)" xlink:href="#aw" id="g"/><path d="M180 0v-1490h510c348 0 508 194 508 460 0 198-88 351-276 417L1256 0h-220L726-579c-117 2-238 0-356 1V0H180zm190-747h312c235 0 327-108 327-283 0-177-92-293-329-293H370v576" id="ax"/><path d="M598-1118v154H368v674c0 100 37 144 132 144 23 0 62-6 92-12L629-6c-37 13-88 20-134 20-193 0-307-107-307-290v-688H20v-154h168v-266h180v266h230" id="ay"/><path d="M537 14c-226 0-379-139-379-422v-710h180v695c0 172 97 275 253 275 160 0 281-109 281-300v-670h181V0H879v-209C806-46 684 14 537 14" id="az"/><path d="M158 0v-1118h174v172h12c41-113 157-188 290-188 26 0 70 2 91 3v181c-11-2-60-10-108-10-161 0-279 109-279 260V0H158" id="aA"/><path d="M338-670V0H158v-1118h173l1 207c72-158 192-221 342-221 226 0 378 139 378 422V0H872v-695c0-172-96-275-252-275-161 0-282 109-282 300" id="aB"/><g id="h"><use transform="matrix(0.010850694444444444,0,0,0.010850694444444444,0,0)" xlink:href="#ax"/><use transform="matrix(0.010850694444444444,0,0,0.010850694444444444,13.975694444444445,0)" xlink:href="#av"/><use transform="matrix(0.010850694444444444,0,0,0.010850694444444444,26.931423611111104,0)" xlink:href="#ay"/><use transform="matrix(0.010850694444444444,0,0,0.010850694444444444,34.201388888888886,0)" xlink:href="#az"/><use transform="matrix(0.010850694444444444,0,0,0.010850694444444444,47.34157986111111,0)" xlink:href="#aA"/><use transform="matrix(0.010850694444444444,0,0,0.010850694444444444,56.054687499999986,0)" xlink:href="#aB"/></g><path d="M226 279v-1860h398v153H398V126h226v153H226" id="aC"/><path d="M128 359l88-567h206L266 359H128" id="aD"/><g id="i"><use transform="matrix(0.010850694444444444,0,0,0.010850694444444444,0,0)" xlink:href="#aC"/><use transform="matrix(0.010850694444444444,0,0,0.010850694444444444,8.10546875,0)" xlink:href="#aw"/><use transform="matrix(0.010850694444444444,0,0,0.010850694444444444,17.14409722222222,0)" xlink:href="#aD"/></g><path d="M635 20c-292 0-500-160-510-396h192c11 142 145 229 315 229 187 0 323-105 323-260 0-161-125-274-346-274H488v-165h121c174 0 294-100 294-254 0-148-104-245-266-245-152 0-291 85-297 230H157c8-234 222-395 484-395 278 0 448 188 448 400 0 168-95 291-247 336v12c190 31 301 169 301 357 0 244-216 425-508 425" id="aE"/><g id="j"><use transform="matrix(0.010850694444444444,0,0,0.010850694444444444,0,0)" xlink:href="#aE"/><use transform="matrix(0.010850694444444444,0,0,0.010850694444444444,13.226996527777777,0)" xlink:href="#aD"/></g><path d="M626 20c-262 0-458-168-468-396h184c12 133 134 229 284 229 180 0 311-137 311-326 0-192-136-335-323-335-92 0-196 33-255 78l-178-22 88-738h784v167H429l-51 435h8c61-51 160-87 263-87 273 0 474 211 474 499 0 286-210 496-497 496" id="aF"/><path d="M123 279V126h226v-1554H123v-153h398V279H123" id="aG"/><g id="k"><use transform="matrix(0.010850694444444444,0,0,0.010850694444444444,0,0)" xlink:href="#aF"/><use transform="matrix(0.010850694444444444,0,0,0.010850694444444444,13.509114583333332,0)" xlink:href="#aG"/></g><use transform="matrix(0.010850694444444444,0,0,0.010850694444444444,0,0)" xlink:href="#ak" id="l"/><path fill="#fff" d="M645 0H180v-1490h484c435 0 692 280 692 742 0 466-257 748-711 748zM370-168h263c363 0 539-218 539-580 0-358-176-574-521-574H370v1154" id="aH"/><use transform="matrix(0.010850694444444444,0,0,0.010850694444444444,0,0)" xlink:href="#aH" id="m"/><path fill="#fff" d="M226-283v-166h904v166H226zm0-434v-166h904v166H226" id="aI"/><use transform="matrix(0.010850694444444444,0,0,0.010850694444444444,0,0)" xlink:href="#aI" id="n"/><path fill="#fff" d="M646 20c-332 0-524-278-524-764 0-483 194-766 524-766s524 283 524 766c0 485-191 764-524 764zm0-166c218 0 341-220 341-598 0-380-123-601-341-601s-341 222-341 601c0 378 123 598 341 598" id="aJ"/><use transform="matrix(0.010850694444444444,0,0,0.010850694444444444,0,0)" xlink:href="#aJ" id="o"/><path d="M657 26c-323 0-524-166-541-416h195c15 169 171 246 346 246 202 0 356-106 356-265 5-203-294-238-475-293-239-73-380-191-380-389 0-252 224-419 512-419 294 0 499 171 508 396H992c-17-145-151-228-328-228-193 0-321 102-321 242 0 156 175 211 284 241l149 41c160 44 422 134 422 412 0 244-197 432-541 432" id="aK"/><g id="p"><use transform="matrix(0.010850694444444444,0,0,0.010850694444444444,0,0)" xlink:href="#aK"/><use transform="matrix(0.010850694444444444,0,0,0.010850694444444444,14.2578125,0)" xlink:href="#ay"/><use transform="matrix(0.010850694444444444,0,0,0.010850694444444444,21.63628472222222,0)" xlink:href="#ar"/><use transform="matrix(0.010850694444444444,0,0,0.010850694444444444,34.11458333333333,0)" xlink:href="#aA"/><use transform="matrix(0.010850694444444444,0,0,0.010850694444444444,42.827690972222214,0)" xlink:href="#ay"/></g><path d="M645 0H180v-1490h484c435 0 692 280 692 742 0 466-257 748-711 748zM370-168h263c363 0 539-218 539-580 0-358-176-574-521-574H370v1154" id="aL"/><path d="M180 0v-1490h901v168H370v510h643v168H370V0H180" id="aM"/><g id="q"><use transform="matrix(0.010850694444444444,0,0,0.010850694444444444,0,0)" xlink:href="#aL"/><use transform="matrix(0.010850694444444444,0,0,0.010850694444444444,16.03732638888889,0)" xlink:href="#aM"/><use transform="matrix(0.010850694444444444,0,0,0.010850694444444444,29.15581597222222,0)" xlink:href="#aK"/></g><g id="r"><use transform="matrix(0.010850694444444444,0,0,0.010850694444444444,0,0)" xlink:href="#ar"/><use transform="matrix(0.010850694444444444,0,0,0.010850694444444444,12.47829861111111,0)" xlink:href="#ay"/></g><path d="M613 24c-304 0-509-231-509-576 0-350 205-580 509-580 305 0 511 230 511 580 0 345-206 576-511 576zm0-161c226 0 329-195 329-415 0-222-103-419-329-419-223 0-326 196-326 419 0 220 103 415 326 415" id="aN"/><g id="s"><use transform="matrix(0.010850694444444444,0,0,0.010850694444444444,0,0)" xlink:href="#aA"/><use transform="matrix(0.010850694444444444,0,0,0.010850694444444444,7.996961805555555,0)" xlink:href="#aN"/><use transform="matrix(0.010850694444444444,0,0,0.010850694444444444,21.321614583333332,0)" xlink:href="#aN"/><use transform="matrix(0.010850694444444444,0,0,0.010850694444444444,34.64626736111111,0)" xlink:href="#ay"/></g><use transform="matrix(0.010850694444444444,0,0,0.010850694444444444,0,0)" xlink:href="#am" id="t"/><use transform="matrix(0.010850694444444444,0,0,0.010850694444444444,0,0)" xlink:href="#ak" id="u"/><path d="M763 24c-353 0-583-224-583-531v-983h190v968c0 214 149 370 393 370 243 0 391-156 391-370v-968h190v983c0 307-230 531-581 531" id="aO"/><path d="M538 24C308 24 148-78 108-271l171-41c32 123 123 178 257 178 156 0 256-77 256-169 0-77-54-128-164-154l-186-44c-203-48-300-148-300-305 0-192 176-326 414-326 230 0 351 112 402 269l-163 42c-31-80-94-158-238-158-133 0-233 69-233 162 0 83 57 129 188 160l169 40c203 48 298 149 298 302 0 196-179 339-441 339" id="aP"/><g id="v"><use transform="matrix(0.010850694444444444,0,0,0.010850694444444444,0,0)" xlink:href="#aO"/><use transform="matrix(0.010850694444444444,0,0,0.010850694444444444,16.536458333333332,0)" xlink:href="#aP"/><use transform="matrix(0.010850694444444444,0,0,0.010850694444444444,28.266059027777775,0)" xlink:href="#av"/></g><path d="M481 0L54-1118h197c107 314 236 620 325 951 87-331 217-637 324-951h197L670 0H481" id="aQ"/><g id="w"><use transform="matrix(0.010850694444444444,0,0,0.010850694444444444,0,0)" xlink:href="#ax"/><use transform="matrix(0.010850694444444444,0,0,0.010850694444444444,13.975694444444445,0)" xlink:href="#av"/><use transform="matrix(0.010850694444444444,0,0,0.010850694444444444,26.49739583333333,0)" xlink:href="#aQ"/><use transform="matrix(0.010850694444444444,0,0,0.010850694444444444,38.55251736111111,0)" xlink:href="#av"/><use transform="matrix(0.010850694444444444,0,0,0.010850694444444444,51.50824652777778,0)" xlink:href="#aA"/><use transform="matrix(0.010850694444444444,0,0,0.010850694444444444,59.874131944444436,0)" xlink:href="#aP"/><use transform="matrix(0.010850694444444444,0,0,0.010850694444444444,71.60373263888889,0)" xlink:href="#av"/></g><path d="M180 0v-1490h510c348 0 508 209 508 474 0 266-160 477-507 477H370V0H180zm190-706h312c236 0 327-133 327-310 0-176-91-307-329-307H370v617" id="aR"/><path d="M577 24c-279 0-473-224-473-580 0-354 195-576 474-576 218 0 287 134 324 193h14v-551h180V0H922v-173h-20C865-111 790 24 577 24zm27-161c203 0 314-172 314-421 0-247-108-413-314-413-212 0-317 181-317 413 0 235 108 421 317 421" id="aS"/><g id="x"><use transform="matrix(0.010850694444444444,0,0,0.010850694444444444,0,0)" xlink:href="#aR"/><use transform="matrix(0.010850694444444444,0,0,0.010850694444444444,14.192708333333332,0)" xlink:href="#aA"/><use transform="matrix(0.010850694444444444,0,0,0.010850694444444444,22.189670138888886,0)" xlink:href="#av"/><use transform="matrix(0.010850694444444444,0,0,0.010850694444444444,35.14539930555555,0)" xlink:href="#aN"/><use transform="matrix(0.010850694444444444,0,0,0.010850694444444444,48.47005208333333,0)" xlink:href="#aA"/><use transform="matrix(0.010850694444444444,0,0,0.010850694444444444,56.46701388888888,0)" xlink:href="#aS"/><use transform="matrix(0.010850694444444444,0,0,0.010850694444444444,70.07378472222221,0)" xlink:href="#av"/><use transform="matrix(0.010850694444444444,0,0,0.010850694444444444,83.02951388888889,0)" xlink:href="#aA"/></g><path d="M295 13c-75 0-135-60-135-135s60-135 135-135 135 60 135 135S370 13 295 13" id="aT"/><g id="y"><use transform="matrix(0.010850694444444444,0,0,0.010850694444444444,0,0)" xlink:href="#aL"/><use transform="matrix(0.010850694444444444,0,0,0.010850694444444444,16.03732638888889,0)" xlink:href="#aM"/><use transform="matrix(0.010850694444444444,0,0,0.010850694444444444,29.15581597222222,0)" xlink:href="#aK"/><use transform="matrix(0.010850694444444444,0,0,0.010850694444444444,43.41362847222222,0)" xlink:href="#aT"/></g><path d="M613 24c-304 0-509-231-509-576 0-350 205-580 509-580 216 0 392 114 453 309l-173 49c-33-115-133-197-280-197-223 0-326 196-326 419 0 220 103 415 326 415 150 0 252-85 285-206l172 49C1010-95 832 24 613 24" id="aU"/><path d="M338-670V0H158v-1490h180v566c73-149 190-208 336-208 226 0 379 139 379 422V0H872v-695c0-172-96-275-252-275-161 0-282 109-282 300" id="aV"/><g id="z"><use transform="matrix(0.010850694444444444,0,0,0.010850694444444444,0,0)" xlink:href="#aK"/><use transform="matrix(0.010850694444444444,0,0,0.010850694444444444,14.2578125,0)" xlink:href="#av"/><use transform="matrix(0.010850694444444444,0,0,0.010850694444444444,27.43055555555556,0)" xlink:href="#ar"/><use transform="matrix(0.010850694444444444,0,0,0.010850694444444444,39.90885416666667,0)" xlink:href="#aA"/><use transform="matrix(0.010850694444444444,0,0,0.010850694444444444,47.90581597222222,0)" xlink:href="#aU"/><use transform="matrix(0.010850694444444444,0,0,0.010850694444444444,60.60112847222222,0)" xlink:href="#aV"/></g><path d="M36 0l185-1118h290l-31 195h12c83-166 210-238 399-200l-45 268c-197-55-375 37-405 219L336 0H36" id="aW"/><path d="M36 0l185-1118h300L336 0H36zm359-1264c-91 0-153-69-139-154 14-84 99-154 190-154 89 0 153 67 139 154-14 86-100 154-190 154" id="aX"/><path d="M475 442C186 442 28 316 6 158l262-52c16 60 71 118 210 118 161 0 274-79 300-226l34-196-27 2C728-104 635-16 463-16 238-16 73-154 73-436c0-339 199-696 543-696 197 0 275 122 301 211l14-2 33-195h296L1074 0c-51 303-290 442-599 442zm87-686c217 0 320-234 320-431 0-135-60-217-181-217-209 0-322 240-322 439 0 131 60 209 183 209" id="aY"/><path d="M442-647L335 0H35l247-1490h294l-97 584c87-145 202-226 365-226 232 0 372 159 329 421L1055 0H754l110-659c23-140-41-222-167-222s-231 85-255 234" id="aZ"/><path d="M776-1118l-37 229H530l-93 562c-12 72 14 104 85 104 23 0 74-7 97-13l5 225C555 8 488 16 426 16 201 16 99-97 132-301l98-588H76l37-229h155l44-266h300l-44 266h208" id="ba"/><g id="A"><use transform="matrix(0.010850694444444444,0,0,0.010850694444444444,0,0)" xlink:href="#aW"/><use transform="matrix(0.010850694444444444,0,0,0.010850694444444444,9.223090277777777,0)" xlink:href="#aX"/><use transform="matrix(0.010850694444444444,0,0,0.010850694444444444,15.256076388888888,0)" xlink:href="#aY"/><use transform="matrix(0.010850694444444444,0,0,0.010850694444444444,29.296875,0)" xlink:href="#aZ"/><use transform="matrix(0.010850694444444444,0,0,0.010850694444444444,43.131510416666664,0)" xlink:href="#ba"/><use transform="matrix(0.010850694444444444,0,0,0.010850694444444444,51.291232638888886,0)" xlink:href="#aT"/></g><g id="B"><use transform="matrix(0.010850694444444444,0,0,0.010850694444444444,0,0)" xlink:href="#aA"/><use transform="matrix(0.010850694444444444,0,0,0.010850694444444444,7.996961805555555,0)" xlink:href="#av"/><use transform="matrix(0.010850694444444444,0,0,0.010850694444444444,20.95269097222222,0)" xlink:href="#aP"/></g><path d="M226-283v-166h904v166H226zm0-434v-166h904v166H226" id="bb"/><use transform="matrix(0.010850694444444444,0,0,0.010850694444444444,0,0)" xlink:href="#bb" id="C"/><g id="D"><use transform="matrix(0.010850694444444444,0,0,0.010850694444444444,0,0)" xlink:href="#aC"/><use transform="matrix(0.010850694444444444,0,0,0.010850694444444444,8.10546875,0)" xlink:href="#aG"/></g><g id="E"><use transform="matrix(0.010850694444444444,0,0,0.010850694444444444,0,0)" xlink:href="#aS"/><use transform="matrix(0.010850694444444444,0,0,0.010850694444444444,13.606770833333332,0)" xlink:href="#av"/><use transform="matrix(0.010850694444444444,0,0,0.010850694444444444,26.5625,0)" xlink:href="#at"/><use transform="matrix(0.010850694444444444,0,0,0.010850694444444444,40.16927083333333,0)" xlink:href="#ay"/><use transform="matrix(0.010850694444444444,0,0,0.010850694444444444,47.43923611111111,0)" xlink:href="#aV"/></g><path d="M646 20c-332 0-524-278-524-764 0-483 194-766 524-766s524 283 524 766c0 485-191 764-524 764zm0-166c218 0 341-220 341-598 0-380-123-601-341-601s-341 222-341 601c0 378 123 598 341 598" id="bc"/><use transform="matrix(0.010850694444444444,0,0,0.010850694444444444,0,0)" xlink:href="#bc" id="F"/><use transform="matrix(0.010850694444444444,0,0,0.010850694444444444,0,0)" xlink:href="#al" id="G"/><use transform="matrix(0.010850694444444444,0,0,0.010850694444444444,0,0)" xlink:href="#ao" id="H"/><use transform="matrix(0.010850694444444444,0,0,0.010850694444444444,0,0)" xlink:href="#al" id="I"/><g id="J"><use transform="matrix(0.010850694444444444,0,0,0.010850694444444444,0,0)" xlink:href="#aK"/><use transform="matrix(0.010850694444444444,0,0,0.010850694444444444,14.2578125,0)" xlink:href="#av"/><use transform="matrix(0.010850694444444444,0,0,0.010850694444444444,27.43055555555556,0)" xlink:href="#ar"/><use transform="matrix(0.010850694444444444,0,0,0.010850694444444444,39.90885416666667,0)" xlink:href="#aA"/><use transform="matrix(0.010850694444444444,0,0,0.010850694444444444,47.90581597222222,0)" xlink:href="#aU"/><use transform="matrix(0.010850694444444444,0,0,0.010850694444444444,60.60112847222222,0)" xlink:href="#aV"/></g><path d="M678-1118v154H420V0H240v-964H20v-154h220v-149c0-194 155-293 318-293 85 0 141 18 168 30l-50 154c-19-6-47-17-97-17-111 0-159 58-159 166v109h258" id="bd"/><g id="K"><use transform="matrix(0.010850694444444444,0,0,0.010850694444444444,0,0)" xlink:href="#au"/><use transform="matrix(0.010850694444444444,0,0,0.010850694444444444,5.381944444444445,0)" xlink:href="#av"/><use transform="matrix(0.010850694444444444,0,0,0.010850694444444444,18.33767361111111,0)" xlink:href="#bd"/><use transform="matrix(0.010850694444444444,0,0,0.010850694444444444,25.80295138888889,0)" xlink:href="#ay"/></g><g id="L"><use transform="matrix(0.010850694444444444,0,0,0.010850694444444444,0,0)" xlink:href="#ay"/><use transform="matrix(0.010850694444444444,0,0,0.010850694444444444,7.269965277777778,0)" xlink:href="#aV"/><use transform="matrix(0.010850694444444444,0,0,0.010850694444444444,20.41015625,0)" xlink:href="#av"/><use transform="matrix(0.010850694444444444,0,0,0.010850694444444444,33.365885416666664,0)" xlink:href="#aB"/></g><path d="M158 0v-1118h180V0H158zm91-1301c-68 0-125-53-125-119s57-119 125-119c69 0 126 53 126 119s-57 119-126 119" id="be"/><path d="M611 442c-248 0-391-105-460-228l146-94c47 65 117 165 314 165 178 0 307-82 307-266v-224h-17C863-141 792-18 576-18c-268 0-472-195-472-546 0-346 197-568 476-568 216 0 288 133 326 193h17v-179h175V29c0 289-215 413-487 413zm-5-620c203 0 314-146 314-390 0-237-108-403-314-403-213 0-319 180-319 403 0 230 109 390 319 390" id="bf"/><g id="M"><use transform="matrix(0.010850694444444444,0,0,0.010850694444444444,0,0)" xlink:href="#aA"/><use transform="matrix(0.010850694444444444,0,0,0.010850694444444444,8.713107638888888,0)" xlink:href="#be"/><use transform="matrix(0.010850694444444444,0,0,0.010850694444444444,14.095052083333332,0)" xlink:href="#bf"/><use transform="matrix(0.010850694444444444,0,0,0.010850694444444444,27.723524305555554,0)" xlink:href="#aV"/><use transform="matrix(0.010850694444444444,0,0,0.010850694444444444,40.86371527777777,0)" xlink:href="#ay"/><use transform="matrix(0.010850694444444444,0,0,0.010850694444444444,48.13368055555556,0)" xlink:href="#aT"/></g><g id="N"><use transform="matrix(0.010850694444444444,0,0,0.010850694444444444,0,0)" xlink:href="#aC"/><use transform="matrix(0.010850694444444444,0,0,0.010850694444444444,8.10546875,0)" xlink:href="#aw"/><use transform="matrix(0.010850694444444444,0,0,0.010850694444444444,17.14409722222222,0)" xlink:href="#aG"/></g><g id="O"><use transform="matrix(0.010850694444444444,0,0,0.010850694444444444,0,0)" xlink:href="#aE"/><use transform="matrix(0.010850694444444444,0,0,0.010850694444444444,13.726128472222221,0)" xlink:href="#aG"/></g><path d="M154 0v-137l495-537c165-179 249-281 249-418 0-156-121-253-280-253-170 0-278 110-278 278H158c0-264 200-443 465-443 266 0 455 183 455 416 0 161-73 288-336 568L416-179v12h687V0H154" id="bg"/><use transform="matrix(0.010850694444444444,0,0,0.010850694444444444,0,0)" xlink:href="#bg" id="P"/><use transform="matrix(0.010850694444444444,0,0,0.010850694444444444,0,0)" xlink:href="#an" id="Q"/><g id="R"><use transform="matrix(0.010850694444444444,0,0,0.010850694444444444,0,0)" xlink:href="#aF"/><use transform="matrix(0.010850694444444444,0,0,0.010850694444444444,13.509114583333332,0)" xlink:href="#aG"/></g><path d="M180 0v-1490h224l606 953c40 63 108 177 176 312-27-437-7-821-13-1265h190V0h-226C860-448 622-778 356-1262c27 476 11 792 15 1262H180" id="bh"/><g id="S"><use transform="matrix(0.010850694444444444,0,0,0.010850694444444444,0,0)" xlink:href="#bh"/><use transform="matrix(0.010850694444444444,0,0,0.010850694444444444,16.74262152777778,0)" xlink:href="#aN"/><use transform="matrix(0.010850694444444444,0,0,0.010850694444444444,30.06727430555556,0)" xlink:href="#ay"/><use transform="matrix(0.010850694444444444,0,0,0.010850694444444444,37.12022569444444,0)" xlink:href="#av"/></g><g id="T"><use transform="matrix(0.010850694444444444,0,0,0.010850694444444444,0,0)" xlink:href="#ay"/><use transform="matrix(0.010850694444444444,0,0,0.010850694444444444,7.269965277777778,0)" xlink:href="#aV"/><use transform="matrix(0.010850694444444444,0,0,0.010850694444444444,20.41015625,0)" xlink:href="#ar"/><use transform="matrix(0.010850694444444444,0,0,0.010850694444444444,32.888454861111114,0)" xlink:href="#ay"/></g><path d="M140 405l46-156c120 36 205 19 263-150l32-93L54-1118h197c107 313 237 620 324 950 87-331 219-637 326-950h196L606 167c-68 178-176 259-334 259-64 0-113-12-132-21" id="bi"/><g id="U"><use transform="matrix(0.010850694444444444,0,0,0.010850694444444444,0,0)" xlink:href="#bi"/><use transform="matrix(0.010850694444444444,0,0,0.010850694444444444,12.055121527777777,0)" xlink:href="#aN"/><use transform="matrix(0.010850694444444444,0,0,0.010850694444444444,25.379774305555554,0)" xlink:href="#az"/></g><g id="V"><use transform="matrix(0.010850694444444444,0,0,0.010850694444444444,0,0)" xlink:href="#aP"/><use transform="matrix(0.010850694444444444,0,0,0.010850694444444444,11.729600694444445,0)" xlink:href="#aV"/><use transform="matrix(0.010850694444444444,0,0,0.010850694444444444,24.869791666666664,0)" xlink:href="#aN"/><use transform="matrix(0.010850694444444444,0,0,0.010850694444444444,38.19444444444444,0)" xlink:href="#az"/><use transform="matrix(0.010850694444444444,0,0,0.010850694444444444,51.334635416666664,0)" xlink:href="#au"/><use transform="matrix(0.010850694444444444,0,0,0.010850694444444444,56.71657986111111,0)" xlink:href="#aS"/></g><g id="W"><use transform="matrix(0.010850694444444444,0,0,0.010850694444444444,0,0)" xlink:href="#ar"/><use transform="matrix(0.010850694444444444,0,0,0.010850694444444444,12.47829861111111,0)" xlink:href="#at"/><use transform="matrix(0.010850694444444444,0,0,0.010850694444444444,26.085069444444443,0)" xlink:href="#at"/><use transform="matrix(0.010850694444444444,0,0,0.010850694444444444,39.69184027777777,0)" xlink:href="#av"/><use transform="matrix(0.010850694444444444,0,0,0.010850694444444444,52.647569444444436,0)" xlink:href="#aB"/><use transform="matrix(0.010850694444444444,0,0,0.010850694444444444,65.77690972222221,0)" xlink:href="#aS"/></g><use transform="matrix(0.010850694444444444,0,0,0.010850694444444444,0,0)" xlink:href="#aE" id="X"/><g id="Y"><use transform="matrix(0.010850694444444444,0,0,0.010850694444444444,0,0)" xlink:href="#ay"/><use transform="matrix(0.010850694444444444,0,0,0.010850694444444444,7.052951388888888,0)" xlink:href="#aN"/></g><g id="Z"><use transform="matrix(0.010850694444444444,0,0,0.010850694444444444,0,0)" xlink:href="#aA"/><use transform="matrix(0.010850694444444444,0,0,0.010850694444444444,7.996961805555555,0)" xlink:href="#av"/><use transform="matrix(0.010850694444444444,0,0,0.010850694444444444,20.95269097222222,0)" xlink:href="#aP"/></g><g id="aa"><use transform="matrix(0.010850694444444444,0,0,0.010850694444444444,0,0)" xlink:href="#aP"/><use transform="matrix(0.010850694444444444,0,0,0.010850694444444444,11.729600694444445,0)" xlink:href="#be"/><use transform="matrix(0.010850694444444444,0,0,0.010850694444444444,17.11154513888889,0)" xlink:href="#aB"/><use transform="matrix(0.010850694444444444,0,0,0.010850694444444444,30.240885416666664,0)" xlink:href="#aU"/><use transform="matrix(0.010850694444444444,0,0,0.010850694444444444,42.936197916666664,0)" xlink:href="#av"/></g><path d="M428-1490V0H128v-1490h300" id="bj"/><path d="M633 22C291 22 81-200 81-553c0-345 210-579 537-579 292 0 525 185 525 567v84H378c7 183 109 277 260 277 105 0 184-46 216-132l272 51C1071-99 893 22 633 22zM380-669h474c-15-146-94-237-233-237-143 0-229 99-241 237" id="bk"/><path d="M428-647V0H128v-1118h283l4 231c63-156 176-245 348-245 232 0 384 159 384 421V0H847v-659c0-139-76-222-202-222-128 0-217 86-217 234" id="bl"/><path d="M169-607c0-330 107-732 258-974h279c-145 311-231 674-231 974 0 262 67 512 231 886H427C258-1 169-307 169-607" id="bm"/><path d="M128 0v-1118h290v195h12c54-169 184-238 367-200v268c-27-8-86-15-130-15-138 0-239 95-239 234V0H128" id="bn"/><path d="M572 22C302 22 117-98 78-306l279-48c29 105 101 156 224 156 114 0 185-48 185-115 0-118-228-130-337-155-215-49-322-150-322-317 0-215 187-347 470-347 265 0 424 116 466 298l-266 47c-24-76-87-130-196-130-98 0-174 46-174 113 0 56 38 95 144 117l201 40c216 44 320 143 320 302 0 220-207 367-500 367" id="bo"/><path d="M67 279c166-379 230-627 230-886 0-300-86-663-230-974h278c151 241 258 644 258 974 0 302-90 608-258 886H67" id="bp"/><g id="ab"><use transform="matrix(0.010850694444444444,0,0,0.010850694444444444,0,0)" xlink:href="#bj"/><use transform="matrix(0.010850694444444444,0,0,0.010850694444444444,6.022135416666666,0)" xlink:href="#bk"/><use transform="matrix(0.010850694444444444,0,0,0.010850694444444444,19.259982638888886,0)" xlink:href="#bl"/><use transform="matrix(0.010850694444444444,0,0,0.010850694444444444,33.09461805555555,0)" xlink:href="#bm"/><use transform="matrix(0.010850694444444444,0,0,0.010850694444444444,41.8728298611111,0)" xlink:href="#bn"/><use transform="matrix(0.010850694444444444,0,0,0.010850694444444444,50.37977430555554,0)" xlink:href="#bk"/><use transform="matrix(0.010850694444444444,0,0,0.010850694444444444,63.617621527777764,0)" xlink:href="#bo"/><use transform="matrix(0.010850694444444444,0,0,0.010850694444444444,76.06336805555554,0)" xlink:href="#bp"/></g><path d="M197-230v-252h997v252H197zm0-479v-251h997v251H197" id="bq"/><g id="ac"><use transform="matrix(0.010850694444444444,0,0,0.010850694444444444,0,0)" xlink:href="#bq"/><use transform="matrix(0.010850694444444444,0,0,0.010850694444444444,15.082465277777777,0)" xlink:href="#bq"/></g><path d="M537 19C279 19 81-185 81-557c0-382 206-575 454-575 190 0 278 113 318 202h10v-560h300V0H868v-179h-15C812-89 719 19 537 19zm92-241c153 0 240-134 240-336 0-203-86-334-240-334-158 0-240 138-240 334 0 197 84 336 240 336" id="br"/><path d="M128 418v-1536h295v188h14c41-89 129-202 319-202 248 0 453 193 453 575 0 372-197 576-455 576-183 0-275-108-317-198h-9v597H128zm534-640c156 0 240-139 240-336 0-196-83-334-240-334-154 0-241 131-241 334 0 202 88 336 241 336" id="bs"/><path d="M683-1118v229H474v562c0 71 29 104 102 104 23 0 73-7 95-13l43 225C647 9 580 16 520 16 296 16 174-96 174-301v-588H20v-229h154v-266h300v266h209" id="bt"/><path d="M428-647V0H128v-1490h294v586c65-146 175-228 341-228 232 0 385 159 385 421V0H847v-659c0-139-76-222-202-222-128 0-217 86-217 234" id="bu"/><g id="ad"><use transform="matrix(0.010850694444444444,0,0,0.010850694444444444,0,0)" xlink:href="#br"/><use transform="matrix(0.010850694444444444,0,0,0.010850694444444444,14.008246527777777,0)" xlink:href="#bk"/><use transform="matrix(0.010850694444444444,0,0,0.010850694444444444,27.24609375,0)" xlink:href="#bs"/><use transform="matrix(0.010850694444444444,0,0,0.010850694444444444,41.25434027777778,0)" xlink:href="#bt"/><use transform="matrix(0.010850694444444444,0,0,0.010850694444444444,49.44661458333333,0)" xlink:href="#bu"/></g><use transform="matrix(0.010850694444444444,0,0,0.010850694444444444,0,0)" xlink:href="#aF" id="ae"/><path d="M784 20c-382 0-662-292-662-764 0-473 280-766 662-766s660 293 660 766c0 472-278 764-660 764zm0-176c266 0 475-207 475-588 0-383-209-590-475-590-268 0-477 208-477 590 0 380 209 588 477 588" id="bv"/><path d="M98-1322v-168h1126v168H757V0H567v-1322H98" id="bw"/><g id="af"><use transform="matrix(0.010850694444444444,0,0,0.010850694444444444,0,0)" xlink:href="#bh"/><use transform="matrix(0.010850694444444444,0,0,0.010850694444444444,16.74262152777778,0)" xlink:href="#bv"/><use transform="matrix(0.010850694444444444,0,0,0.010850694444444444,33.07291666666667,0)" xlink:href="#bw"/></g><path d="M120-303v-155l652-1032h231v1020h202v167h-202V0H821v-303H120zm702-167v-782h-12L323-482v12h499" id="bx"/><use transform="matrix(0.010850694444444444,0,0,0.010850694444444444,0,0)" xlink:href="#bx" id="ag"/><g id="ah"><use transform="matrix(0.010850694444444444,0,0,0.010850694444444444,0,0)" xlink:href="#aA"/><use transform="matrix(0.010850694444444444,0,0,0.010850694444444444,7.996961805555555,0)" xlink:href="#av"/><use transform="matrix(0.010850694444444444,0,0,0.010850694444444444,20.95269097222222,0)" xlink:href="#aP"/></g><g id="ai"><use transform="matrix(0.010850694444444444,0,0,0.010850694444444444,0,0)" xlink:href="#aP"/><use transform="matrix(0.010850694444444444,0,0,0.010850694444444444,11.729600694444445,0)" xlink:href="#be"/><use transform="matrix(0.010850694444444444,0,0,0.010850694444444444,17.11154513888889,0)" xlink:href="#aB"/><use transform="matrix(0.010850694444444444,0,0,0.010850694444444444,30.240885416666664,0)" xlink:href="#aU"/><use transform="matrix(0.010850694444444444,0,0,0.010850694444444444,42.936197916666664,0)" xlink:href="#av"/></g><path d="M206-472l-22-1018h323L485-472H206zM346 19c-104 0-177-69-177-169 0-101 73-170 177-170 105 0 178 69 178 170 0 100-73 169-178 169" id="by"/><g id="aj"><use transform="matrix(0.010850694444444444,0,0,0.010850694444444444,0,0)" xlink:href="#by"/><use transform="matrix(0.010850694444444444,0,0,0.010850694444444444,7.508680555555555,0)" xlink:href="#bq"/></g></defs></g></svg>