<svg xmlns="http://www.w3.org/2000/svg" xmlns:xlink="http://www.w3.org/1999/xlink" xmlns:lucid="lucid" width="642" height="1162"><g transform="translate(-219 -219)" lucid:page-tab-id="0_0"><path d="M406.67 384.53c0 22.1-17.9 40-40 40s-40-17.9-40-40 17.9-40 40-40 40 17.9 40 40z" stroke="#3a414a" stroke-width="2"/><use xlink:href="#a" transform="matrix(1,0,0,1,331.66666666666663,349.53333333333336) translate(30.48068576388889 43.40277777777778)"/><path d="M366.67 426.03v30.24a6 6 0 0 1-6 6H266a6 6 0 0 0-6 6v14.35" stroke="#3a414a" fill="none"/><path d="M366.65 425.53h.5v.52h-.96v-.54z" stroke="#3a414a" stroke-width=".05" fill="#3a414a"/><path d="M260 497.38l-4.63-14.26h9.26z" stroke="#3a414a" fill="#3a414a"/><path d="M300 540c0 22.1-17.9 40-40 40s-40-17.9-40-40 17.9-40 40-40 40 17.9 40 40z" stroke="#3a414a" stroke-width="2"/><use xlink:href="#b" transform="matrix(1,0,0,1,225,505) translate(28.223741319444443 43.40277777777778)"/><path d="M366.67 426.03v30.24a6 6 0 0 0 6 6H474a6 6 0 0 1 6 6v14.35" stroke="#3a414a" fill="none"/><path d="M366.65 425.53h.5v.52h-.96v-.54z" stroke="#3a414a" stroke-width=".05" fill="#3a414a"/><path d="M480 497.38l-4.63-14.26h9.26z" stroke="#3a414a" fill="#3a414a"/><path d="M520 540c0 22.1-17.9 40-40 40s-40-17.9-40-40 17.9-40 40-40 40 17.9 40 40z" stroke="#3a414a" stroke-width="2"/><use xlink:href="#c" transform="matrix(1,0,0,1,445,505) translate(28.13693576388889 43.40277777777778)"/><path d="M746.67 384.53c0 22.1-17.9 40-40 40s-40-17.9-40-40 17.9-40 40-40 40 17.9 40 40z" stroke="#3a414a" stroke-width="2"/><use xlink:href="#a" transform="matrix(1,0,0,1,671.6666666666666,349.53333333333336) translate(30.48068576388889 43.40277777777778)"/><path d="M706.67 426.03v30.24a6 6 0 0 1-6 6H606a6 6 0 0 0-6 6v14.35" stroke="#3a414a" fill="none"/><path d="M706.65 425.53h.5v.52h-.96v-.54z" stroke="#3a414a" stroke-width=".05" fill="#3a414a"/><path d="M600 497.38l-4.63-14.26h9.26z" stroke="#3a414a" fill="#3a414a"/><path d="M640 540c0 22.1-17.9 40-40 40s-40-17.9-40-40 17.9-40 40-40 40 17.9 40 40z" stroke="#3a414a" stroke-width="2"/><use xlink:href="#b" transform="matrix(1,0,0,1,565,505) translate(28.223741319444443 43.40277777777778)"/><path d="M706.67 426.03v30.24a6 6 0 0 0 6 6H814a6 6 0 0 1 6 6v14.35" stroke="#3a414a" fill="none"/><path d="M706.65 425.53h.5v.52h-.96v-.54z" stroke="#3a414a" stroke-width=".05" fill="#3a414a"/><path d="M820 497.38l-4.63-14.26h9.26z" stroke="#3a414a" fill="#3a414a"/><path d="M860 540c0 22.1-17.9 40-40 40s-40-17.9-40-40 17.9-40 40-40 40 17.9 40 40z" stroke="#3a414a" stroke-width="2"/><use xlink:href="#c" transform="matrix(1,0,0,1,785,505) translate(28.13693576388889 43.40277777777778)"/><path d="M406.67 780c0 22.1-17.9 40-40 40s-40-17.9-40-40 17.9-40 40-40 40 17.9 40 40z" stroke="#3a414a" stroke-width="2"/><use xlink:href="#a" transform="matrix(1,0,0,1,331.66666666666663,745) translate(30.48068576388889 43.40277777777778)"/><path d="M366.67 821.5v30.23a6 6 0 0 1-6 6H266a6 6 0 0 0-6 6v14.35" stroke="#3a414a" fill="none"/><path d="M366.65 821l.5-.02v.53h-.96v-.53z" stroke="#3a414a" stroke-width=".05" fill="#3a414a"/><path d="M260 892.85l-4.63-14.27h9.26z" stroke="#3a414a" fill="#3a414a"/><path d="M300 935.47c0 22.1-17.9 40-40 40s-40-17.9-40-40 17.9-40 40-40 40 17.9 40 40z" stroke="#3a414a" stroke-width="2"/><use xlink:href="#b" transform="matrix(1,0,0,1,225,900.4666666666667) translate(28.223741319444443 43.40277777777778)"/><path d="M746.67 780c0 22.1-17.9 40-40 40s-40-17.9-40-40 17.9-40 40-40 40 17.9 40 40z" stroke="#3a414a" stroke-width="2"/><use xlink:href="#a" transform="matrix(1,0,0,1,671.6666666666666,745) translate(30.48068576388889 43.40277777777778)"/><path d="M706.67 821.5v30.23a6 6 0 0 0 6 6H814a6 6 0 0 1 6 6v14.35" stroke="#3a414a" fill="none"/><path d="M706.65 821l.5-.02v.53h-.96v-.53z" stroke="#3a414a" stroke-width=".05" fill="#3a414a"/><path d="M820 892.85l-4.63-14.27h9.26z" stroke="#3a414a" fill="#3a414a"/><path d="M860 935.47c0 22.1-17.9 40-40 40s-40-17.9-40-40 17.9-40 40-40 40 17.9 40 40z" stroke="#3a414a" stroke-width="2"/><use xlink:href="#c" transform="matrix(1,0,0,1,785,900.4666666666666) translate(28.13693576388889 43.40277777777778)"/><path d="M406.67 1184.53c0 22.1-17.9 40-40 40s-40-17.9-40-40 17.9-40 40-40 40 17.9 40 40z" stroke="#3a414a" stroke-width="2"/><use xlink:href="#a" transform="matrix(1,0,0,1,331.66666666666663,1149.5333333333333) translate(30.48068576388889 43.40277777777778)"/><path d="M366.67 1226.03v30.24a6 6 0 0 1-6 6H266a6 6 0 0 0-6 6v14.35" stroke="#3a414a" fill="none"/><path d="M366.65 1225.53h.5v.52h-.96v-.54z" stroke="#3a414a" stroke-width=".05" fill="#3a414a"/><path d="M260 1297.38l-4.63-14.27 9.26.02z" stroke="#3a414a" fill="#3a414a"/><path d="M300 1340c0 22.1-17.9 40-40 40s-40-17.9-40-40 17.9-40 40-40 40 17.9 40 40z" stroke="#3a414a" stroke-width="2"/><use xlink:href="#b" transform="matrix(1,0,0,1,225,1305) translate(28.223741319444443 43.40277777777778)"/><path d="M366.67 1226.03v30.24a6 6 0 0 0 6 6H474a6 6 0 0 1 6 6v14.35" stroke="#3a414a" fill="none"/><path d="M366.65 1225.53h.5v.52h-.96v-.54z" stroke="#3a414a" stroke-width=".05" fill="#3a414a"/><path d="M480 1297.38l-4.63-14.27 9.26.02z" stroke="#3a414a" fill="#3a414a"/><path d="M520 1340c0 22.1-17.9 40-40 40s-40-17.9-40-40 17.9-40 40-40 40 17.9 40 40z" stroke="#3a414a" stroke-width="2"/><use xlink:href="#c" transform="matrix(1,0,0,1,445,1305) translate(28.13693576388889 43.40277777777778)"/><path d="M746.67 1184.53c0 22.1-17.9 40-40 40s-40-17.9-40-40 17.9-40 40-40 40 17.9 40 40z" stroke="#3a414a" stroke-width="2"/><use xlink:href="#a" transform="matrix(1,0,0,1,671.6666666666666,1149.5333333333333) translate(30.48068576388889 43.40277777777778)"/><path d="M706.67 1226.03v30.24a6 6 0 0 1-6 6H606a6 6 0 0 0-6 6v14.35" stroke="#3a414a" fill="none"/><path d="M706.65 1225.53h.5v.52h-.96v-.54z" stroke="#3a414a" stroke-width=".05" fill="#3a414a"/><path d="M600 1297.38l-4.63-14.27 9.26.02z" stroke="#3a414a" fill="#3a414a"/><path d="M640 1340c0 22.1-17.9 40-40 40s-40-17.9-40-40 17.9-40 40-40 40 17.9 40 40z" stroke="#3a414a" stroke-width="2"/><use xlink:href="#b" transform="matrix(1,0,0,1,565,1305) translate(28.223741319444443 43.40277777777778)"/><path d="M706.67 1226.03v30.24a6 6 0 0 0 6 6H814a6 6 0 0 1 6 6v14.35" stroke="#3a414a" fill="none"/><path d="M706.65 1225.53h.5v.52h-.96v-.54z" stroke="#3a414a" stroke-width=".05" fill="#3a414a"/><path d="M820 1297.38l-4.63-14.27 9.26.02z" stroke="#3a414a" fill="#3a414a"/><path d="M860 1340c0 22.1-17.9 40-40 40s-40-17.9-40-40 17.9-40 40-40 40 17.9 40 40z" stroke="#3a414a" stroke-width="2"/><use xlink:href="#d" transform="matrix(1,0,0,1,785,1305) translate(27.822265625 43.40277777777778)"/><path d="M220 226a6 6 0 0 1 6-6h133.66a6 6 0 0 1 6 6v68a6 6 0 0 1-6 6H226a6 6 0 0 1-6-6z" stroke="#3a414a" stroke-width="2" fill="#fff"/><use xlink:href="#e" transform="matrix(1,0,0,1,225,225) translate(15.667100694444443 43.40277777777778)"/><use xlink:href="#f" transform="matrix(1,0,0,1,225,225) translate(111.29427083333333 43.40277777777778)"/><path d="M220 626a6 6 0 0 1 6-6h133.66a6 6 0 0 1 6 6v68a6 6 0 0 1-6 6H226a6 6 0 0 1-6-6z" stroke="#3a414a" stroke-width="2" fill="#fff"/><use xlink:href="#e" transform="matrix(1,0,0,1,225,625) translate(13.41015625 43.40277777777778)"/><use xlink:href="#g" transform="matrix(1,0,0,1,225,625) translate(109.03732638888889 43.40277777777778)"/><path d="M220 1026a6 6 0 0 1 6-6h133.66a6 6 0 0 1 6 6v68a6 6 0 0 1-6 6H226a6 6 0 0 1-6-6z" stroke="#3a414a" stroke-width="2" fill="#fff"/><use xlink:href="#e" transform="matrix(1,0,0,1,225,1025) translate(13.323350694444443 43.40277777777778)"/><use xlink:href="#h" transform="matrix(1,0,0,1,225,1025) translate(108.95052083333333 43.40277777777778)"/><path d="M463.84 826a6 6 0 0 1 6-6H603.5a6 6 0 0 1 6 6v68a6 6 0 0 1-6 6H469.84a6 6 0 0 1-6-6z" stroke="#3a414a" stroke-width="2" fill="#fff"/><use xlink:href="#i" transform="matrix(1,0,0,1,468.838088059799,825) translate(40.439236111111114 43.40277777777778)"/><path d="M463.84 346a6 6 0 0 1 6-6H603.5a6 6 0 0 1 6 6v68a6 6 0 0 1-6 6H469.84a6 6 0 0 1-6-6z" stroke="#3a414a" stroke-width="2" fill="#fff"/><use xlink:href="#j" transform="matrix(1,0,0,1,468.838088059799,345) translate(44.22612847222223 43.40277777777778)"/><path d="M463.84 1146a6 6 0 0 1 6-6H603.5a6 6 0 0 1 6 6v68a6 6 0 0 1-6 6H469.84a6 6 0 0 1-6-6z" stroke="#3a414a" stroke-width="2" fill="#fff"/><g><use xlink:href="#i" transform="matrix(1,0,0,1,468.838088059799,1145) translate(40.439236111111114 43.40277777777778)"/></g><defs><path fill="#fff" d="M653-1490V0H466v-1314h-10L96-1047v-204l324-239h233" id="k"/><use transform="matrix(0.010850694444444444,0,0,0.010850694444444444,0,0)" xlink:href="#k" id="a"/><path fill="#fff" d="M154 0v-137l495-537c165-179 249-281 249-418 0-156-121-253-280-253-170 0-278 110-278 278H158c0-264 200-443 465-443 266 0 455 183 455 416 0 161-73 288-336 568L416-179v12h687V0H154" id="l"/><use transform="matrix(0.010850694444444444,0,0,0.010850694444444444,0,0)" xlink:href="#l" id="b"/><path fill="#fff" d="M635 20c-292 0-500-160-510-396h192c11 142 145 229 315 229 187 0 323-105 323-260 0-161-125-274-346-274H488v-165h121c174 0 294-100 294-254 0-148-104-245-266-245-152 0-291 85-297 230H157c8-234 222-395 484-395 278 0 448 188 448 400 0 168-95 291-247 336v12c190 31 301 169 301 357 0 244-216 425-508 425" id="m"/><use transform="matrix(0.010850694444444444,0,0,0.010850694444444444,0,0)" xlink:href="#m" id="c"/><path fill="#fff" d="M120-303v-155l652-1032h231v1020h202v167h-202V0H821v-303H120zm702-167v-782h-12L323-482v12h499" id="n"/><use transform="matrix(0.010850694444444444,0,0,0.010850694444444444,0,0)" xlink:href="#n" id="d"/><path d="M180 0v-1490h908v168H370v486h669v168H370v500h727V0H180" id="o"/><path d="M65 0l393-574-370-544h210c88 136 192 297 267 435 67-142 176-302 264-435h206L661-564 1053 0H844c-94-144-206-310-287-458C484-308 366-142 273 0H65" id="p"/><path d="M471 26C259 26 90-98 90-318c0-256 228-303 435-329 202-27 287-16 287-108 0-139-79-219-234-219-161 0-248 86-283 164l-173-57c86-203 278-265 451-265 150 0 419 46 419 395V0H815v-152h-12C765-73 660 26 471 26zm31-159c199 0 310-134 310-271v-155c-30 35-226 55-295 64-131 17-246 59-246 186 0 116 97 176 231 176" id="q"/><path d="M158 0v-1118h175l1 205c55-151 181-225 313-225 147 0 245 90 285 228 53-141 190-228 352-228 194 0 352 125 352 384V0h-181v-749c0-161-105-225-225-225-151 0-243 103-243 244V0H807v-767c0-124-93-207-219-207-131 0-250 92-250 270V0H158" id="r"/><path d="M158 418v-1536h174v179h20c37-59 106-193 324-193 279 0 474 222 474 576 0 356-194 580-473 580-213 0-288-135-325-197h-14v591H158zm492-555c209 0 317-186 317-421 0-232-105-413-317-413-206 0-314 166-314 413 0 249 111 421 314 421" id="s"/><path d="M338-1490V0H158v-1490h180" id="t"/><path d="M628 24c-324 0-524-230-524-574 0-343 198-582 503-582 237 0 487 146 487 559v75H286c9 234 145 362 343 362 132 0 231-58 273-172l174 48C1024-91 857 24 628 24zM287-650h624c-17-190-120-322-304-322-192 0-309 151-320 322" id="u"/><g id="e"><use transform="matrix(0.010850694444444444,0,0,0.010850694444444444,0,0)" xlink:href="#o"/><use transform="matrix(0.010850694444444444,0,0,0.010850694444444444,13.35720486111111,0)" xlink:href="#p"/><use transform="matrix(0.010850694444444444,0,0,0.010850694444444444,25.48828125,0)" xlink:href="#q"/><use transform="matrix(0.010850694444444444,0,0,0.010850694444444444,37.966579861111114,0)" xlink:href="#r"/><use transform="matrix(0.010850694444444444,0,0,0.010850694444444444,57.43272569444444,0)" xlink:href="#s"/><use transform="matrix(0.010850694444444444,0,0,0.010850694444444444,71.03949652777777,0)" xlink:href="#t"/><use transform="matrix(0.010850694444444444,0,0,0.010850694444444444,76.42144097222221,0)" xlink:href="#u"/></g><path d="M653-1490V0H466v-1314h-10L96-1047v-204l324-239h233" id="v"/><use transform="matrix(0.010850694444444444,0,0,0.010850694444444444,0,0)" xlink:href="#v" id="f"/><path d="M154 0v-137l495-537c165-179 249-281 249-418 0-156-121-253-280-253-170 0-278 110-278 278H158c0-264 200-443 465-443 266 0 455 183 455 416 0 161-73 288-336 568L416-179v12h687V0H154" id="w"/><use transform="matrix(0.010850694444444444,0,0,0.010850694444444444,0,0)" xlink:href="#w" id="g"/><path d="M635 20c-292 0-500-160-510-396h192c11 142 145 229 315 229 187 0 323-105 323-260 0-161-125-274-346-274H488v-165h121c174 0 294-100 294-254 0-148-104-245-266-245-152 0-291 85-297 230H157c8-234 222-395 484-395 278 0 448 188 448 400 0 168-95 291-247 336v12c190 31 301 169 301 357 0 244-216 425-508 425" id="x"/><use transform="matrix(0.010850694444444444,0,0,0.010850694444444444,0,0)" xlink:href="#x" id="h"/><path d="M180 0v-1490h901v168H370v510h643v168H370V0H180" id="y"/><path d="M538 24C308 24 148-78 108-271l171-41c32 123 123 178 257 178 156 0 256-77 256-169 0-77-54-128-164-154l-186-44c-203-48-300-148-300-305 0-192 176-326 414-326 230 0 351 112 402 269l-163 42c-31-80-94-158-238-158-133 0-233 69-233 162 0 83 57 129 188 160l169 40c203 48 298 149 298 302 0 196-179 339-441 339" id="z"/><g id="i"><use transform="matrix(0.010850694444444444,0,0,0.010850694444444444,0,0)" xlink:href="#y"/><use transform="matrix(0.010850694444444444,0,0,0.010850694444444444,12.57595486111111,0)" xlink:href="#q"/><use transform="matrix(0.010850694444444444,0,0,0.010850694444444444,25.05425347222222,0)" xlink:href="#t"/><use transform="matrix(0.010850694444444444,0,0,0.010850694444444444,30.436197916666664,0)" xlink:href="#z"/><use transform="matrix(0.010850694444444444,0,0,0.010850694444444444,42.16579861111111,0)" xlink:href="#u"/></g><path d="M98-1322v-168h1126v168H757V0H567v-1322H98" id="A"/><path d="M158 0v-1118h174v172h12c41-113 157-188 290-188 26 0 70 2 91 3v181c-11-2-60-10-108-10-161 0-279 109-279 260V0H158" id="B"/><path d="M537 14c-226 0-379-139-379-422v-710h180v695c0 172 97 275 253 275 160 0 281-109 281-300v-670h181V0H879v-209C806-46 684 14 537 14" id="C"/><g id="j"><use transform="matrix(0.010850694444444444,0,0,0.010850694444444444,0,0)" xlink:href="#A"/><use transform="matrix(0.010850694444444444,0,0,0.010850694444444444,13.0859375,0)" xlink:href="#B"/><use transform="matrix(0.010850694444444444,0,0,0.010850694444444444,21.451822916666664,0)" xlink:href="#C"/><use transform="matrix(0.010850694444444444,0,0,0.010850694444444444,34.592013888888886,0)" xlink:href="#u"/></g></defs></g></svg>