<svg xmlns="http://www.w3.org/2000/svg" xmlns:xlink="http://www.w3.org/1999/xlink" xmlns:lucid="lucid" width="735.33" height="2986.71"><g transform="translate(121 -32.60000000000005)" lucid:page-tab-id="0_0"><path d="M160 198.13c0 22.1-17.9 40-40 40s-40-17.9-40-40 17.9-40 40-40 40 17.9 40 40z" stroke="#3a414a" stroke-width="2"/><use xlink:href="#a" transform="matrix(1,0,0,1,84.99999999999994,163.1333333333334) translate(30.48068576388889 43.40277777777778)"/><path d="M120 239.63v30.24a6 6 0 0 1-6 6H19.33a6 6 0 0 0-6 6v14.34" stroke="#3a414a" fill="none"/><path d="M120 239.13h.47v.52h-.94v-.54z" stroke="#3a414a" stroke-width=".05" fill="#3a414a"/><path d="M13.33 310.98L8.7 296.7h9.27z" stroke="#3a414a" fill="#3a414a"/><path d="M53.33 353.6c0 22.1-17.9 40-40 40s-40-17.9-40-40 17.9-40 40-40 40 17.9 40 40z" stroke="#3a414a" stroke-width="2"/><use xlink:href="#b" transform="matrix(1,0,0,1,-21.666666666666686,318.6) translate(28.223741319444443 43.40277777777778)"/><path d="M120 239.63v30.24a6 6 0 0 0 6 6h101.33a6 6 0 0 1 6 6v14.34" stroke="#3a414a" fill="none"/><path d="M120 239.13h.47v.52h-.94v-.54z" stroke="#3a414a" stroke-width=".05" fill="#3a414a"/><path d="M233.33 310.98l-4.63-14.27h9.27z" stroke="#3a414a" fill="#3a414a"/><path d="M273.33 353.6c0 22.1-17.9 40-40 40s-40-17.9-40-40 17.9-40 40-40 40 17.9 40 40z" stroke="#3a414a" stroke-width="2"/><use xlink:href="#c" transform="matrix(1,0,0,1,198.33333333333331,318.6) translate(28.13693576388889 43.40277777777778)"/><path d="M500 198.13c0 22.1-17.9 40-40 40s-40-17.9-40-40 17.9-40 40-40 40 17.9 40 40z" stroke="#3a414a" stroke-width="2"/><use xlink:href="#a" transform="matrix(1,0,0,1,424.99999999999994,163.1333333333334) translate(30.48068576388889 43.40277777777778)"/><path d="M460 239.63v30.24a6 6 0 0 1-6 6h-94.67a6 6 0 0 0-6 6v14.34" stroke="#3a414a" fill="none"/><path d="M460 239.13h.48v.52h-.96v-.54z" stroke="#3a414a" stroke-width=".05" fill="#3a414a"/><path d="M353.33 310.98l-4.63-14.27h9.27z" stroke="#3a414a" fill="#3a414a"/><path d="M393.33 353.6c0 22.1-17.9 40-40 40s-40-17.9-40-40 17.9-40 40-40 40 17.9 40 40z" stroke="#3a414a" stroke-width="2"/><use xlink:href="#b" transform="matrix(1,0,0,1,318.3333333333333,318.6) translate(28.223741319444443 43.40277777777778)"/><path d="M460 239.63v30.24a6 6 0 0 0 6 6h101.33a6 6 0 0 1 6 6v14.34" stroke="#3a414a" fill="none"/><path d="M460 239.13h.48v.52h-.96v-.54z" stroke="#3a414a" stroke-width=".05" fill="#3a414a"/><path d="M573.33 310.98l-4.63-14.27h9.27z" stroke="#3a414a" fill="#3a414a"/><path d="M613.33 353.6c0 22.1-17.9 40-40 40s-40-17.9-40-40 17.9-40 40-40 40 17.9 40 40z" stroke="#3a414a" stroke-width="2"/><use xlink:href="#c" transform="matrix(1,0,0,1,538.3333333333333,318.6) translate(28.13693576388889 43.40277777777778)"/><path d="M-26.67 39.6a6 6 0 0 1 6-6H113a6 6 0 0 1 6 6v68a6 6 0 0 1-6 6H-20.68a6 6 0 0 1-6-6z" stroke="#3a414a" stroke-width="2" fill="#fff"/><use xlink:href="#d" transform="matrix(1,0,0,1,-21.666666666666686,38.60000000000005) translate(22.30230034722222 30.27777777777778)"/><use xlink:href="#e" transform="matrix(1,0,0,1,-21.666666666666686,38.60000000000005) translate(46.293185763888886 57.165798611111114)"/><path d="M193.33 39.6a6 6 0 0 1 6-6h181.34a6 6 0 0 1 6 6v86.78a6 6 0 0 1-6 6H199.33a6 6 0 0 1-6-6z" stroke="#3a414a" stroke-width="2" fill="#fff"/><use xlink:href="#f" transform="matrix(1,0,0,1,198.33333333333331,38.60000000000005) translate(10.923611111111114 24.30902777777778)"/><use xlink:href="#g" transform="matrix(1,0,0,1,198.33333333333331,38.60000000000005) translate(50.89756944444445 24.30902777777778)"/><use xlink:href="#h" transform="matrix(1,0,0,1,198.33333333333331,38.60000000000005) translate(91.47916666666667 24.30902777777778)"/><use xlink:href="#i" transform="matrix(1,0,0,1,198.33333333333331,38.60000000000005) translate(135.5546875 24.30902777777778)"/><use xlink:href="#j" transform="matrix(1,0,0,1,198.33333333333331,38.60000000000005) translate(11.178602430555557 51.197048611111114)"/><use xlink:href="#k" transform="matrix(1,0,0,1,198.33333333333331,38.60000000000005) translate(58.60698784722222 51.197048611111114)"/><use xlink:href="#l" transform="matrix(1,0,0,1,198.33333333333331,38.60000000000005) translate(85.23459201388889 51.197048611111114)"/><use xlink:href="#m" transform="matrix(1,0,0,1,198.33333333333331,38.60000000000005) translate(22.799696180555557 78.08506944444446)"/><use xlink:href="#n" transform="matrix(1,0,0,1,198.33333333333331,38.60000000000005) translate(62.41558159722222 78.08506944444446)"/><path d="M160 740.75c0 22.1-17.9 40-40 40s-40-17.9-40-40 17.9-40 40-40 40 17.9 40 40z" stroke="#3a414a" stroke-width="2"/><use xlink:href="#a" transform="matrix(1,0,0,1,85.00000000000001,705.7520833333332) translate(30.48068576388889 43.40277777777778)"/><path d="M500 740.75c0 22.1-17.9 40-40 40s-40-17.9-40-40 17.9-40 40-40 40 17.9 40 40z" stroke="#3a414a" stroke-width="2"/><use xlink:href="#a" transform="matrix(1,0,0,1,424.99999999999994,705.7520833333332) translate(30.48068576388889 43.40277777777778)"/><path d="M156.67 606a6 6 0 0 1 6-6h234.66a6 6 0 0 1 6 6v51.78a6 6 0 0 1-6 6H162.67a6 6 0 0 1-6-6z" stroke="#3a414a" stroke-width="2" fill="#fff"/><use xlink:href="#o" transform="matrix(1,0,0,1,161.66666666666663,605) translate(5.8046875 35.02777777777778)"/><use xlink:href="#m" transform="matrix(1,0,0,1,161.66666666666663,605) translate(48.33940972222222 35.02777777777778)"/><use xlink:href="#p" transform="matrix(1,0,0,1,161.66666666666663,605) translate(87.95529513888889 35.02777777777778)"/><use xlink:href="#q" transform="matrix(1,0,0,1,161.66666666666663,605) translate(162.27170138888889 35.02777777777778)"/><path d="M13.33 395.1v32.5a6 6 0 0 1-6 6H-74a6 6 0 0 0-6 6v16.6" stroke="#3a414a" fill="none"/><path d="M13.32 394.6l.5-.02v.53h-.96v-.53z" stroke="#3a414a" stroke-width=".05" fill="#3a414a"/><path d="M-80 470.98l-4.64-14.27h9.28z" stroke="#3a414a" fill="#3a414a"/><path d="M-40 513.6c0 22.1-17.9 40-40 40s-40-17.9-40-40 17.9-40 40-40 40 17.9 40 40z" stroke="#3a414a" stroke-width="2"/><use xlink:href="#r" transform="matrix(1,0,0,1,-115,478.6) translate(27.822265625 43.40277777777778)"/><path d="M13.33 395.1v32.5a6 6 0 0 0 6 6H94a6 6 0 0 1 6 6v16.6" stroke="#3a414a" fill="none"/><path d="M13.32 394.6l.5-.02v.53h-.96v-.53z" stroke="#3a414a" stroke-width=".05" fill="#3a414a"/><path d="M100 470.98l-4.64-14.27h9.28z" stroke="#3a414a" fill="#3a414a"/><path d="M140 513.6c0 22.1-17.9 40-40 40s-40-17.9-40-40 17.9-40 40-40 40 17.9 40 40z" stroke="#3a414a" stroke-width="2"/><use xlink:href="#s" transform="matrix(1,0,0,1,65,478.6) translate(28.245442708333336 43.40277777777778)"/><path d="M303.33 513.6c0 22.1-17.9 40-40 40s-40-17.9-40-40 17.9-40 40-40 40 17.9 40 40z" stroke="#3a414a" stroke-width="2"/><use xlink:href="#r" transform="matrix(1,0,0,1,228.33333333333331,478.5999999999999) translate(27.822265625 43.40277777777778)"/><path d="M483.33 513.6c0 22.1-17.9 40-40 40s-40-17.9-40-40 17.9-40 40-40 40 17.9 40 40z" stroke="#3a414a" stroke-width="2"/><use xlink:href="#s" transform="matrix(1,0,0,1,408.3333333333333,478.5999999999999) translate(28.245442708333336 43.40277777777778)"/><path d="M353.33 395.1v32.5a6 6 0 0 0 6 6h78a6 6 0 0 1 6 6v16.6" stroke="#3a414a" fill="none"/><path d="M353.32 394.6l.5-.02v.53h-.96v-.53z" stroke="#3a414a" stroke-width=".05" fill="#3a414a"/><path d="M443.33 470.98l-4.63-14.27h9.27z" stroke="#3a414a" fill="#3a414a"/><path d="M353.33 395.1v32.5a6 6 0 0 1-6 6h-78a6 6 0 0 0-6 6v16.6" stroke="#3a414a" fill="none"/><path d="M353.32 394.6l.5-.02v.53h-.96v-.53z" stroke="#3a414a" stroke-width=".05" fill="#3a414a"/><path d="M263.33 470.98l-4.63-14.27h9.27z" stroke="#3a414a" fill="#3a414a"/><path d="M160 978.2c0 22.1-17.9 40-40 40s-40-17.9-40-40c0-22.08 17.9-40 40-40s40 17.92 40 40z" stroke="#3a414a" stroke-width="2"/><use xlink:href="#a" transform="matrix(1,0,0,1,84.9999999999999,943.2106770833333) translate(30.48068576388889 43.40277777777778)"/><path d="M120 1019.7v30.24a6 6 0 0 1-6 6H19.33a6 6 0 0 0-6 6v14.35" stroke="#3a414a" fill="none"/><path d="M120 1019.2h.47v.52h-.94v-.54z" stroke="#3a414a" stroke-width=".05" fill="#3a414a"/><path d="M13.33 1091.06L8.7 1076.8h9.27z" stroke="#3a414a" fill="#3a414a"/><path d="M53.33 1133.68c0 22.1-17.9 40-40 40s-40-17.9-40-40 17.9-40 40-40 40 17.9 40 40z" stroke="#3a414a" stroke-width="2"/><use xlink:href="#b" transform="matrix(1,0,0,1,-21.666666666666757,1098.67734375) translate(28.223741319444443 43.40277777777778)"/><path d="M500 978.2c0 22.1-17.9 40-40 40s-40-17.9-40-40c0-22.08 17.9-40 40-40s40 17.92 40 40z" stroke="#3a414a" stroke-width="2"/><use xlink:href="#a" transform="matrix(1,0,0,1,424.99999999999994,943.2106770833333) translate(30.48068576388889 43.40277777777778)"/><path d="M460 1019.7v30.24a6 6 0 0 1-6 6h-94.67a6 6 0 0 0-6 6v14.35" stroke="#3a414a" fill="none"/><path d="M460 1019.2h.48v.52h-.96v-.54z" stroke="#3a414a" stroke-width=".05" fill="#3a414a"/><path d="M353.33 1091.06l-4.63-14.27h9.27z" stroke="#3a414a" fill="#3a414a"/><path d="M393.33 1133.68c0 22.1-17.9 40-40 40s-40-17.9-40-40 17.9-40 40-40 40 17.9 40 40z" stroke="#3a414a" stroke-width="2"/><use xlink:href="#b" transform="matrix(1,0,0,1,318.33333333333326,1098.67734375) translate(28.223741319444443 43.40277777777778)"/><path d="M160 843.12a6 6 0 0 1 6-6h234.67a6 6 0 0 1 6 6v51.77a6 6 0 0 1-6 6H166a6 6 0 0 1-6-6z" stroke="#3a414a" stroke-width="2" fill="#fff"/><use xlink:href="#o" transform="matrix(1,0,0,1,165,842.1186197916667) translate(5.8046875 35.02777777777778)"/><use xlink:href="#m" transform="matrix(1,0,0,1,165,842.1186197916667) translate(48.33940972222222 35.02777777777778)"/><use xlink:href="#p" transform="matrix(1,0,0,1,165,842.1186197916667) translate(87.95529513888889 35.02777777777778)"/><use xlink:href="#q" transform="matrix(1,0,0,1,165,842.1186197916667) translate(162.27170138888889 35.02777777777778)"/><path d="M-100 944.2a6 6 0 0 1 6-6H46.53a6 6 0 0 1 6 6v59.9a6 6 0 0 1-6 6H-94a6 6 0 0 1-6-6z" stroke="#3a414a" stroke-width="2" fill="#fff"/><use xlink:href="#t" transform="matrix(1,0,0,1,-95.00000000000003,943.2106770833333) translate(6.005208333333329 25.40277777777778)"/><use xlink:href="#u" transform="matrix(1,0,0,1,-95.00000000000003,943.2106770833333) translate(103.921875 25.40277777777778)"/><use xlink:href="#v" transform="matrix(1,0,0,1,-95.00000000000003,943.2106770833333) translate(39.349392361111114 52.290798611111114)"/><use xlink:href="#w" transform="matrix(1,0,0,1,-95.00000000000003,943.2106770833333) translate(94.61197916666667 52.290798611111114)"/><path d="M-100 714.38a6 6 0 0 1 6-6H47.33a6 6 0 0 1 6 6v52.74a6 6 0 0 1-6 6H-94a6 6 0 0 1-6-6z" stroke="#3a414a" stroke-width="2" fill="#fff"/><use xlink:href="#x" transform="matrix(1,0,0,1,-95.00000000000006,713.3800781249998) translate(9.868923611111114 35.27777777777778)"/><use xlink:href="#y" transform="matrix(1,0,0,1,-95.00000000000006,713.3800781249998) translate(66.21657986111111 35.27777777777778)"/><use xlink:href="#z" transform="matrix(1,0,0,1,-95.00000000000006,713.3800781249998) translate(92.21484375 35.27777777777778)"/><path d="M160 1380c0 22.1-17.9 40-40 40s-40-17.9-40-40 17.9-40 40-40 40 17.9 40 40z" stroke="#3a414a" stroke-width="2"/><use xlink:href="#a" transform="matrix(1,0,0,1,84.99999999999997,1345) translate(30.48068576388889 43.40277777777778)"/><path d="M120 1421.5v30.23a6 6 0 0 1-6 6H19.33a6 6 0 0 0-6 6v14.35" stroke="#3a414a" fill="none"/><path d="M120 1421l.47-.02v.53h-.94v-.53z" stroke="#3a414a" stroke-width=".05" fill="#3a414a"/><path d="M13.33 1492.85l-4.63-14.27h9.27z" stroke="#3a414a" fill="#3a414a"/><path d="M53.33 1535.47c0 22.1-17.9 40-40 40s-40-17.9-40-40 17.9-40 40-40 40 17.9 40 40z" stroke="#3a414a" stroke-width="2"/><use xlink:href="#b" transform="matrix(1,0,0,1,-21.666666666666686,1500.4666666666665) translate(28.223741319444443 43.40277777777778)"/><path d="M500 1380c0 22.1-17.9 40-40 40s-40-17.9-40-40 17.9-40 40-40 40 17.9 40 40z" stroke="#3a414a" stroke-width="2"/><use xlink:href="#a" transform="matrix(1,0,0,1,425,1345) translate(30.48068576388889 43.40277777777778)"/><path d="M460 1421.5v30.23a6 6 0 0 1-6 6h-94.67a6 6 0 0 0-6 6v14.35" stroke="#3a414a" fill="none"/><path d="M460 1421l.48-.02v.53h-.96v-.53z" stroke="#3a414a" stroke-width=".05" fill="#3a414a"/><path d="M353.33 1492.85l-4.63-14.27h9.27z" stroke="#3a414a" fill="#3a414a"/><path d="M393.33 1535.47c0 22.1-17.9 40-40 40s-40-17.9-40-40 17.9-40 40-40 40 17.9 40 40z" stroke="#3a414a" stroke-width="2"/><use xlink:href="#b" transform="matrix(1,0,0,1,318.3333333333333,1500.4666666666665) translate(28.223741319444443 43.40277777777778)"/><path d="M13.33 1576.97v32.5a6 6 0 0 1-6 6H-74a6 6 0 0 0-6 6v16.6" stroke="#3a414a" fill="none"/><path d="M13.32 1576.47l.5-.02v.53h-.96v-.54z" stroke="#3a414a" stroke-width=".05" fill="#3a414a"/><path d="M-80 1652.85l-4.64-14.27h9.28z" stroke="#3a414a" fill="#3a414a"/><path d="M-40 1695.47c0 22.1-17.9 40-40 40s-40-17.9-40-40 17.9-40 40-40 40 17.9 40 40z" stroke="#3a414a" stroke-width="2"/><use xlink:href="#r" transform="matrix(1,0,0,1,-115,1660.4666666666665) translate(27.822265625 43.40277777777778)"/><path d="M303.33 1695.47c0 22.1-17.9 40-40 40s-40-17.9-40-40 17.9-40 40-40 40 17.9 40 40z" stroke="#3a414a" stroke-width="2"/><use xlink:href="#r" transform="matrix(1,0,0,1,228.33333333333326,1660.4666666666665) translate(27.822265625 43.40277777777778)"/><path d="M353.33 1576.97v32.5a6 6 0 0 1-6 6h-78a6 6 0 0 0-6 6v16.6" stroke="#3a414a" fill="none"/><path d="M353.32 1576.47l.5-.02v.53h-.96v-.54z" stroke="#3a414a" stroke-width=".05" fill="#3a414a"/><path d="M263.33 1652.85l-4.63-14.27h9.27z" stroke="#3a414a" fill="#3a414a"/><path d="M160 1246a6 6 0 0 1 6-6h234.67a6 6 0 0 1 6 6v51.78a6 6 0 0 1-6 6H166a6 6 0 0 1-6-6z" stroke="#3a414a" stroke-width="2" fill="#fff"/><use xlink:href="#o" transform="matrix(1,0,0,1,165,1245) translate(5.8046875 35.02777777777778)"/><use xlink:href="#m" transform="matrix(1,0,0,1,165,1245) translate(48.33940972222222 35.02777777777778)"/><use xlink:href="#p" transform="matrix(1,0,0,1,165,1245) translate(87.95529513888889 35.02777777777778)"/><use xlink:href="#q" transform="matrix(1,0,0,1,165,1245) translate(162.27170138888889 35.02777777777778)"/><path d="M-100 1346a6 6 0 0 1 6-6H46.53a6 6 0 0 1 6 6v59.9a6 6 0 0 1-6 6H-94a6 6 0 0 1-6-6z" stroke="#3a414a" stroke-width="2" fill="#fff"/><use xlink:href="#t" transform="matrix(1,0,0,1,-95.00000000000004,1345) translate(6.005208333333329 25.40277777777778)"/><use xlink:href="#u" transform="matrix(1,0,0,1,-95.00000000000004,1345) translate(103.921875 25.40277777777778)"/><use xlink:href="#v" transform="matrix(1,0,0,1,-95.00000000000004,1345) translate(37.092447916666664 52.290798611111114)"/><use xlink:href="#A" transform="matrix(1,0,0,1,-95.00000000000004,1345) translate(92.35503472222223 52.290798611111114)"/><path d="M160 1928.3c0 22.1-17.9 40-40 40s-40-17.9-40-40c0-22.08 17.9-40 40-40s40 17.92 40 40z" stroke="#3a414a" stroke-width="2"/><use xlink:href="#a" transform="matrix(1,0,0,1,84.99999999999997,1893.3093750000003) translate(30.48068576388889 43.40277777777778)"/><path d="M120 1969.8v30.24a6 6 0 0 1-6 6H19.33a6 6 0 0 0-6 6v14.35" stroke="#3a414a" fill="none"/><path d="M120 1969.3h.47v.52h-.94v-.54z" stroke="#3a414a" stroke-width=".05" fill="#3a414a"/><path d="M13.33 2041.16L8.7 2026.9h9.27z" stroke="#3a414a" fill="#3a414a"/><path d="M53.33 2083.78c0 22.1-17.9 40-40 40s-40-17.9-40-40 17.9-40 40-40 40 17.9 40 40z" stroke="#3a414a" stroke-width="2"/><use xlink:href="#b" transform="matrix(1,0,0,1,-21.666666666666686,2048.7760416666665) translate(28.223741319444443 43.40277777777778)"/><path d="M500 1928.3c0 22.1-17.9 40-40 40s-40-17.9-40-40c0-22.08 17.9-40 40-40s40 17.92 40 40z" stroke="#3a414a" stroke-width="2"/><use xlink:href="#a" transform="matrix(1,0,0,1,425,1893.3093750000003) translate(30.48068576388889 43.40277777777778)"/><path d="M460 1969.8v30.24a6 6 0 0 1-6 6h-94.67a6 6 0 0 0-6 6v14.35" stroke="#3a414a" fill="none"/><path d="M460 1969.3h.48v.52h-.96v-.54z" stroke="#3a414a" stroke-width=".05" fill="#3a414a"/><path d="M353.33 2041.16l-4.63-14.27h9.27z" stroke="#3a414a" fill="#3a414a"/><path d="M393.33 2083.78c0 22.1-17.9 40-40 40s-40-17.9-40-40 17.9-40 40-40 40 17.9 40 40z" stroke="#3a414a" stroke-width="2"/><use xlink:href="#b" transform="matrix(1,0,0,1,318.3333333333333,2048.7760416666665) translate(28.223741319444443 43.40277777777778)"/><path d="M13.33 2125.28v32.5a6 6 0 0 1-6 6H-74a6 6 0 0 0-6 6v16.6" stroke="#3a414a" fill="none"/><path d="M13.32 2124.78l.5-.02v.53h-.96v-.55z" stroke="#3a414a" stroke-width=".05" fill="#3a414a"/><path d="M-80 2201.16l-4.64-14.27h9.28z" stroke="#3a414a" fill="#3a414a"/><path d="M-40 2243.78c0 22.1-17.9 40-40 40s-40-17.9-40-40 17.9-40 40-40 40 17.9 40 40z" stroke="#3a414a" stroke-width="2"/><use xlink:href="#r" transform="matrix(1,0,0,1,-115,2208.7760416666665) translate(27.822265625 43.40277777777778)"/><path d="M13.33 2125.28v32.5a6 6 0 0 0 6 6H94a6 6 0 0 1 6 6v16.6" stroke="#3a414a" fill="none"/><path d="M13.32 2124.78l.5-.02v.53h-.96v-.55z" stroke="#3a414a" stroke-width=".05" fill="#3a414a"/><path d="M100 2201.16l-4.64-14.27h9.28z" stroke="#3a414a" fill="#3a414a"/><path d="M140 2243.78c0 22.1-17.9 40-40 40s-40-17.9-40-40 17.9-40 40-40 40 17.9 40 40z" stroke="#3a414a" stroke-width="2"/><use xlink:href="#s" transform="matrix(1,0,0,1,65,2208.7760416666665) translate(28.245442708333336 43.40277777777778)"/><path d="M303.33 2243.78c0 22.1-17.9 40-40 40s-40-17.9-40-40 17.9-40 40-40 40 17.9 40 40z" stroke="#3a414a" stroke-width="2"/><use xlink:href="#r" transform="matrix(1,0,0,1,228.33333333333326,2208.7760416666665) translate(27.822265625 43.40277777777778)"/><path d="M483.33 2243.78c0 22.1-17.9 40-40 40s-40-17.9-40-40 17.9-40 40-40 40 17.9 40 40z" stroke="#3a414a" stroke-width="2"/><use xlink:href="#s" transform="matrix(1,0,0,1,408.33333333333326,2208.7760416666665) translate(28.245442708333336 43.40277777777778)"/><path d="M353.33 2125.28v32.5a6 6 0 0 0 6 6h78a6 6 0 0 1 6 6v16.6" stroke="#3a414a" fill="none"/><path d="M353.32 2124.78l.5-.02v.53h-.96v-.55z" stroke="#3a414a" stroke-width=".05" fill="#3a414a"/><path d="M443.33 2201.16l-4.63-14.27h9.27z" stroke="#3a414a" fill="#3a414a"/><path d="M353.33 2125.28v32.5a6 6 0 0 1-6 6h-78a6 6 0 0 0-6 6v16.6" stroke="#3a414a" fill="none"/><path d="M353.32 2124.78l.5-.02v.53h-.96v-.55z" stroke="#3a414a" stroke-width=".05" fill="#3a414a"/><path d="M263.33 2201.16l-4.63-14.27h9.27z" stroke="#3a414a" fill="#3a414a"/><path d="M156.67 1780.15a6 6 0 0 1 6-6h234.66a6 6 0 0 1 6 6v51.78a6 6 0 0 1-6 6H162.67a6 6 0 0 1-6-6z" stroke="#3a414a" stroke-width="2" fill="#fff"/><use xlink:href="#o" transform="matrix(1,0,0,1,161.66666666666663,1779.1546875000001) translate(5.8046875 35.02777777777778)"/><use xlink:href="#m" transform="matrix(1,0,0,1,161.66666666666663,1779.1546875000001) translate(48.33940972222222 35.02777777777778)"/><use xlink:href="#p" transform="matrix(1,0,0,1,161.66666666666663,1779.1546875000001) translate(87.95529513888889 35.02777777777778)"/><use xlink:href="#q" transform="matrix(1,0,0,1,161.66666666666663,1779.1546875000001) translate(162.27170138888889 35.02777777777778)"/><path d="M-120 1893.36a6 6 0 0 1 6-6H26.53a6 6 0 0 1 6 6v68a6 6 0 0 1-6 6H-114a6 6 0 0 1-6-6z" stroke="#3a414a" stroke-width="2" fill="#fff"/><use xlink:href="#B" transform="matrix(1,0,0,1,-115,1892.3546874999997) translate(25.666666666666664 30.27777777777778)"/><use xlink:href="#C" transform="matrix(1,0,0,1,-115,1892.3546874999997) translate(9.900607638888886 57.165798611111114)"/><use xlink:href="#v" transform="matrix(1,0,0,1,-115,1892.3546874999997) translate(64.28428819444443 57.165798611111114)"/><use xlink:href="#A" transform="matrix(1,0,0,1,-115,1892.3546874999997) translate(119.546875 57.165798611111114)"/><path d="M160 2480c0 22.1-17.9 40-40 40s-40-17.9-40-40 17.9-40 40-40 40 17.9 40 40z" stroke="#3a414a" stroke-width="2"/><use xlink:href="#a" transform="matrix(1,0,0,1,84.99999999999994,2445) translate(30.48068576388889 43.40277777777778)"/><path d="M120 2521.5v30.23a6 6 0 0 1-6 6H19.33a6 6 0 0 0-6 6v14.35" stroke="#3a414a" fill="none"/><path d="M120 2521l.47-.02v.53h-.94v-.53z" stroke="#3a414a" stroke-width=".05" fill="#3a414a"/><path d="M13.33 2592.85l-4.63-14.27h9.27z" stroke="#3a414a" fill="#3a414a"/><path d="M53.33 2635.47c0 22.1-17.9 40-40 40s-40-17.9-40-40 17.9-40 40-40 40 17.9 40 40z" stroke="#3a414a" stroke-width="2"/><use xlink:href="#b" transform="matrix(1,0,0,1,-21.666666666666686,2600.4666666666667) translate(28.223741319444443 43.40277777777778)"/><path d="M120 2521.5v30.23a6 6 0 0 0 6 6h101.33a6 6 0 0 1 6 6v14.35" stroke="#3a414a" fill="none"/><path d="M120 2521l.47-.02v.53h-.94v-.53z" stroke="#3a414a" stroke-width=".05" fill="#3a414a"/><path d="M233.33 2592.85l-4.63-14.27h9.27z" stroke="#3a414a" fill="#3a414a"/><path d="M273.33 2635.47c0 22.1-17.9 40-40 40s-40-17.9-40-40 17.9-40 40-40 40 17.9 40 40z" stroke="#3a414a" stroke-width="2"/><use xlink:href="#c" transform="matrix(1,0,0,1,198.33333333333331,2600.4666666666667) translate(28.13693576388889 43.40277777777778)"/><path d="M500 2480c0 22.1-17.9 40-40 40s-40-17.9-40-40 17.9-40 40-40 40 17.9 40 40z" stroke="#3a414a" stroke-width="2"/><use xlink:href="#a" transform="matrix(1,0,0,1,425,2445) translate(30.48068576388889 43.40277777777778)"/><path d="M460 2521.5v30.23a6 6 0 0 1-6 6h-94.67a6 6 0 0 0-6 6v14.35" stroke="#3a414a" fill="none"/><path d="M460 2521l.48-.02v.53h-.96v-.53z" stroke="#3a414a" stroke-width=".05" fill="#3a414a"/><path d="M353.33 2592.85l-4.63-14.27h9.27z" stroke="#3a414a" fill="#3a414a"/><path d="M393.33 2635.47c0 22.1-17.9 40-40 40s-40-17.9-40-40 17.9-40 40-40 40 17.9 40 40z" stroke="#3a414a" stroke-width="2"/><use xlink:href="#b" transform="matrix(1,0,0,1,318.3333333333333,2600.4666666666667) translate(28.223741319444443 43.40277777777778)"/><path d="M460 2521.5v30.23a6 6 0 0 0 6 6h101.33a6 6 0 0 1 6 6v14.35" stroke="#3a414a" fill="none"/><path d="M460 2521l.48-.02v.53h-.96v-.53z" stroke="#3a414a" stroke-width=".05" fill="#3a414a"/><path d="M573.33 2592.85l-4.63-14.27h9.27z" stroke="#3a414a" fill="#3a414a"/><path d="M613.33 2635.47c0 22.1-17.9 40-40 40s-40-17.9-40-40 17.9-40 40-40 40 17.9 40 40z" stroke="#3a414a" stroke-width="2"/><g><use xlink:href="#c" transform="matrix(1,0,0,1,538.3333333333333,2600.4666666666667) translate(28.13693576388889 43.40277777777778)"/></g><path d="M13.33 2676.97v32.5a6 6 0 0 1-6 6H-74a6 6 0 0 0-6 6v16.6" stroke="#3a414a" fill="none"/><path d="M13.32 2676.47l.5-.02v.53h-.96v-.54z" stroke="#3a414a" stroke-width=".05" fill="#3a414a"/><path d="M-80 2752.85l-4.64-14.27h9.28z" stroke="#3a414a" fill="#3a414a"/><path d="M-40 2795.47c0 22.1-17.9 40-40 40s-40-17.9-40-40 17.9-40 40-40 40 17.9 40 40z" stroke="#3a414a" stroke-width="2"/><g><use xlink:href="#r" transform="matrix(1,0,0,1,-115,2760.4666666666667) translate(27.822265625 43.40277777777778)"/></g><path d="M13.33 2676.97v32.5a6 6 0 0 0 6 6H94a6 6 0 0 1 6 6v16.6" stroke="#3a414a" fill="none"/><path d="M13.32 2676.47l.5-.02v.53h-.96v-.54z" stroke="#3a414a" stroke-width=".05" fill="#3a414a"/><path d="M100 2752.85l-4.64-14.27h9.28z" stroke="#3a414a" fill="#3a414a"/><path d="M140 2795.47c0 22.1-17.9 40-40 40s-40-17.9-40-40 17.9-40 40-40 40 17.9 40 40z" stroke="#3a414a" stroke-width="2"/><g><use xlink:href="#s" transform="matrix(1,0,0,1,65,2760.4666666666667) translate(28.245442708333336 43.40277777777778)"/></g><path d="M303.33 2795.47c0 22.1-17.9 40-40 40s-40-17.9-40-40 17.9-40 40-40 40 17.9 40 40z" stroke="#3a414a" stroke-width="2"/><g><use xlink:href="#r" transform="matrix(1,0,0,1,228.33333333333326,2760.4666666666667) translate(27.822265625 43.40277777777778)"/></g><path d="M483.33 2795.47c0 22.1-17.9 40-40 40s-40-17.9-40-40 17.9-40 40-40 40 17.9 40 40z" stroke="#3a414a" stroke-width="2"/><g><use xlink:href="#s" transform="matrix(1,0,0,1,408.33333333333326,2760.4666666666667) translate(28.245442708333336 43.40277777777778)"/></g><path d="M353.33 2676.97v32.5a6 6 0 0 0 6 6h78a6 6 0 0 1 6 6v16.6" stroke="#3a414a" fill="none"/><path d="M353.32 2676.47l.5-.02v.53h-.96v-.54z" stroke="#3a414a" stroke-width=".05" fill="#3a414a"/><path d="M443.33 2752.85l-4.63-14.27h9.27z" stroke="#3a414a" fill="#3a414a"/><path d="M353.33 2676.97v32.5a6 6 0 0 1-6 6h-78a6 6 0 0 0-6 6v16.6" stroke="#3a414a" fill="none"/><path d="M353.32 2676.47l.5-.02v.53h-.96v-.54z" stroke="#3a414a" stroke-width=".05" fill="#3a414a"/><path d="M263.33 2752.85l-4.63-14.27h9.27z" stroke="#3a414a" fill="#3a414a"/><path d="M156.67 2346a6 6 0 0 1 6-6h234.66a6 6 0 0 1 6 6v51.78a6 6 0 0 1-6 6H162.67a6 6 0 0 1-6-6z" stroke="#3a414a" stroke-width="2" fill="#fff"/><g><use xlink:href="#o" transform="matrix(1,0,0,1,161.66666666666663,2345) translate(5.8046875 35.02777777777778)"/><use xlink:href="#m" transform="matrix(1,0,0,1,161.66666666666663,2345) translate(48.33940972222222 35.02777777777778)"/><use xlink:href="#p" transform="matrix(1,0,0,1,161.66666666666663,2345) translate(87.95529513888889 35.02777777777778)"/><use xlink:href="#q" transform="matrix(1,0,0,1,161.66666666666663,2345) translate(162.27170138888889 35.02777777777778)"/></g><path d="M-120 2454.1a6 6 0 0 1 6-6H26.53a6 6 0 0 1 6 6v59.9a6 6 0 0 1-6 6H-114a6 6 0 0 1-6-6z" stroke="#3a414a" stroke-width="2" fill="#fff"/><g><use xlink:href="#B" transform="matrix(1,0,0,1,-115,2453.111979166667) translate(25.666666666666664 25.40277777777778)"/><use xlink:href="#C" transform="matrix(1,0,0,1,-115,2453.111979166667) translate(12.157552083333329 52.290798611111114)"/><use xlink:href="#v" transform="matrix(1,0,0,1,-115,2453.111979166667) translate(66.54123263888889 52.290798611111114)"/><use xlink:href="#w" transform="matrix(1,0,0,1,-115,2453.111979166667) translate(121.80381944444444 52.290798611111114)"/></g><path d="M33.33 2906a6 6 0 0 1 6-6h448a6 6 0 0 1 6 6v106.3a6 6 0 0 1-6 6h-448a6 6 0 0 1-6-6z" stroke="#3a414a" stroke-width="2" fill="#fff"/><g><use xlink:href="#D" transform="matrix(1,0,0,1,38.33333333333326,2905) translate(29.280598958333314 35.15277777777778)"/><use xlink:href="#E" transform="matrix(1,0,0,1,38.33333333333326,2905) translate(83.21940104166666 35.15277777777778)"/><use xlink:href="#F" transform="matrix(1,0,0,1,38.33333333333326,2905) translate(180.8648003472222 35.15277777777778)"/><use xlink:href="#G" transform="matrix(1,0,0,1,38.33333333333326,2905) translate(236.93033854166663 35.15277777777778)"/><use xlink:href="#H" transform="matrix(1,0,0,1,38.33333333333326,2905) translate(273.9203559027777 35.15277777777778)"/><use xlink:href="#I" transform="matrix(1,0,0,1,38.33333333333326,2905) translate(340.9450954861111 35.15277777777778)"/><use xlink:href="#J" transform="matrix(1,0,0,1,38.33333333333326,2905) translate(387.353515625 35.15277777777778)"/><use xlink:href="#K" transform="matrix(1,0,0,1,38.33333333333326,2905) translate(2.6692708333333712 62.040798611111114)"/><use xlink:href="#L" transform="matrix(1,0,0,1,38.33333333333326,2905) translate(61.82725694444448 62.040798611111114)"/><use xlink:href="#m" transform="matrix(1,0,0,1,38.33333333333326,2905) translate(101.5082465277778 62.040798611111114)"/><use xlink:href="#M" transform="matrix(1,0,0,1,38.33333333333326,2905) translate(141.12413194444446 62.040798611111114)"/><use xlink:href="#N" transform="matrix(1,0,0,1,38.33333333333326,2905) translate(210.40581597222223 62.040798611111114)"/><use xlink:href="#O" transform="matrix(1,0,0,1,38.33333333333326,2905) translate(257.0963541666667 62.040798611111114)"/><use xlink:href="#P" transform="matrix(1,0,0,1,38.33333333333326,2905) translate(354.1015625 62.040798611111114)"/><use xlink:href="#Q" transform="matrix(1,0,0,1,38.33333333333326,2905) translate(434.85243055555554 62.040798611111114)"/><use xlink:href="#R" transform="matrix(1,0,0,1,38.33333333333326,2905) translate(101.94769965277777 88.92881944444446)"/><use xlink:href="#S" transform="matrix(1,0,0,1,38.33333333333326,2905) translate(250.89518229166666 88.92881944444446)"/></g><defs><path fill="#fff" d="M653-1490V0H466v-1314h-10L96-1047v-204l324-239h233" id="T"/><use transform="matrix(0.010850694444444444,0,0,0.010850694444444444,0,0)" xlink:href="#T" id="a"/><path fill="#fff" d="M154 0v-137l495-537c165-179 249-281 249-418 0-156-121-253-280-253-170 0-278 110-278 278H158c0-264 200-443 465-443 266 0 455 183 455 416 0 161-73 288-336 568L416-179v12h687V0H154" id="U"/><use transform="matrix(0.010850694444444444,0,0,0.010850694444444444,0,0)" xlink:href="#U" id="b"/><path fill="#fff" d="M635 20c-292 0-500-160-510-396h192c11 142 145 229 315 229 187 0 323-105 323-260 0-161-125-274-346-274H488v-165h121c174 0 294-100 294-254 0-148-104-245-266-245-152 0-291 85-297 230H157c8-234 222-395 484-395 278 0 448 188 448 400 0 168-95 291-247 336v12c190 31 301 169 301 357 0 244-216 425-508 425" id="V"/><use transform="matrix(0.010850694444444444,0,0,0.010850694444444444,0,0)" xlink:href="#V" id="c"/><path d="M180 0v-1490h510c348 0 508 209 508 474 0 266-160 477-507 477H370V0H180zm190-706h312c236 0 327-133 327-310 0-176-91-307-329-307H370v617" id="W"/><path d="M158 0v-1118h174v172h12c41-113 157-188 290-188 26 0 70 2 91 3v181c-11-2-60-10-108-10-161 0-279 109-279 260V0H158" id="X"/><path d="M628 24c-324 0-524-230-524-574 0-343 198-582 503-582 237 0 487 146 487 559v75H286c9 234 145 362 343 362 132 0 231-58 273-172l174 48C1024-91 857 24 628 24zM287-650h624c-17-190-120-322-304-322-192 0-309 151-320 322" id="Y"/><path d="M613 24c-304 0-509-231-509-576 0-350 205-580 509-580 305 0 511 230 511 580 0 345-206 576-511 576zm0-161c226 0 329-195 329-415 0-222-103-419-329-419-223 0-326 196-326 419 0 220 103 415 326 415" id="Z"/><path d="M577 24c-279 0-473-224-473-580 0-354 195-576 474-576 218 0 287 134 324 193h14v-551h180V0H922v-173h-20C865-111 790 24 577 24zm27-161c203 0 314-172 314-421 0-247-108-413-314-413-212 0-317 181-317 413 0 235 108 421 317 421" id="aa"/><g id="d"><use transform="matrix(0.010850694444444444,0,0,0.010850694444444444,0,0)" xlink:href="#W"/><use transform="matrix(0.010850694444444444,0,0,0.010850694444444444,14.192708333333332,0)" xlink:href="#X"/><use transform="matrix(0.010850694444444444,0,0,0.010850694444444444,22.189670138888886,0)" xlink:href="#Y"/><use transform="matrix(0.010850694444444444,0,0,0.010850694444444444,35.14539930555555,0)" xlink:href="#Z"/><use transform="matrix(0.010850694444444444,0,0,0.010850694444444444,48.47005208333333,0)" xlink:href="#X"/><use transform="matrix(0.010850694444444444,0,0,0.010850694444444444,56.46701388888888,0)" xlink:href="#aa"/><use transform="matrix(0.010850694444444444,0,0,0.010850694444444444,70.07378472222221,0)" xlink:href="#Y"/><use transform="matrix(0.010850694444444444,0,0,0.010850694444444444,83.02951388888889,0)" xlink:href="#X"/></g><path d="M645 0H180v-1490h484c435 0 692 280 692 742 0 466-257 748-711 748zM370-168h263c363 0 539-218 539-580 0-358-176-574-521-574H370v1154" id="ab"/><path d="M180 0v-1490h901v168H370v510h643v168H370V0H180" id="ac"/><path d="M657 26c-323 0-524-166-541-416h195c15 169 171 246 346 246 202 0 356-106 356-265 5-203-294-238-475-293-239-73-380-191-380-389 0-252 224-419 512-419 294 0 499 171 508 396H992c-17-145-151-228-328-228-193 0-321 102-321 242 0 156 175 211 284 241l149 41c160 44 422 134 422 412 0 244-197 432-541 432" id="ad"/><g id="e"><use transform="matrix(0.010850694444444444,0,0,0.010850694444444444,0,0)" xlink:href="#ab"/><use transform="matrix(0.010850694444444444,0,0,0.010850694444444444,16.03732638888889,0)" xlink:href="#ac"/><use transform="matrix(0.010850694444444444,0,0,0.010850694444444444,29.15581597222222,0)" xlink:href="#ad"/></g><path d="M458 0L52-1490h194c108 439 233 855 324 1313 92-459 221-873 331-1313h216c110 438 234 854 330 1307 92-455 216-869 323-1307h196L1558 0h-221l-256-944c-26-95-50-200-73-331-22 122-44 223-73 331L680 0H458" id="ae"/><g id="f"><use transform="matrix(0.010850694444444444,0,0,0.010850694444444444,0,0)" xlink:href="#ae"/><use transform="matrix(0.010850694444444444,0,0,0.010850694444444444,20.768229166666668,0)" xlink:href="#Y"/></g><path d="M409 0L70-1118h191c89 329 165 560 243 925 75-353 154-601 240-925h192c85 325 161 564 235 922 77-354 157-598 244-922h191L1267 0h-179c-86-307-176-590-250-913C763-588 675-308 588 0H409" id="af"/><path d="M158 0v-1118h180V0H158zm91-1301c-68 0-125-53-125-119s57-119 125-119c69 0 126 53 126 119s-57 119-126 119" id="ag"/><path d="M338-1490V0H158v-1490h180" id="ah"/><g id="g"><use transform="matrix(0.010850694444444444,0,0,0.010850694444444444,0,0)" xlink:href="#af"/><use transform="matrix(0.010850694444444444,0,0,0.010850694444444444,18.18576388888889,0)" xlink:href="#ag"/><use transform="matrix(0.010850694444444444,0,0,0.010850694444444444,23.567708333333336,0)" xlink:href="#ah"/><use transform="matrix(0.010850694444444444,0,0,0.010850694444444444,28.949652777777775,0)" xlink:href="#ah"/></g><path d="M537 14c-226 0-379-139-379-422v-710h180v695c0 172 97 275 253 275 160 0 281-109 281-300v-670h181V0H879v-209C806-46 684 14 537 14" id="ai"/><path d="M538 24C308 24 148-78 108-271l171-41c32 123 123 178 257 178 156 0 256-77 256-169 0-77-54-128-164-154l-186-44c-203-48-300-148-300-305 0-192 176-326 414-326 230 0 351 112 402 269l-163 42c-31-80-94-158-238-158-133 0-233 69-233 162 0 83 57 129 188 160l169 40c203 48 298 149 298 302 0 196-179 339-441 339" id="aj"/><g id="h"><use transform="matrix(0.010850694444444444,0,0,0.010850694444444444,0,0)" xlink:href="#ai"/><use transform="matrix(0.010850694444444444,0,0,0.010850694444444444,13.140190972222221,0)" xlink:href="#aj"/><use transform="matrix(0.010850694444444444,0,0,0.010850694444444444,24.869791666666664,0)" xlink:href="#Y"/></g><path d="M598-1118v154H368v674c0 100 37 144 132 144 23 0 62-6 92-12L629-6c-37 13-88 20-134 20-193 0-307-107-307-290v-688H20v-154h168v-266h180v266h230" id="ak"/><path d="M338-670V0H158v-1490h180v566c73-149 190-208 336-208 226 0 379 139 379 422V0H872v-695c0-172-96-275-252-275-161 0-282 109-282 300" id="al"/><g id="i"><use transform="matrix(0.010850694444444444,0,0,0.010850694444444444,0,0)" xlink:href="#ak"/><use transform="matrix(0.010850694444444444,0,0,0.010850694444444444,7.269965277777778,0)" xlink:href="#al"/><use transform="matrix(0.010850694444444444,0,0,0.010850694444444444,20.41015625,0)" xlink:href="#ag"/><use transform="matrix(0.010850694444444444,0,0,0.010850694444444444,25.792100694444443,0)" xlink:href="#aj"/></g><g id="j"><use transform="matrix(0.010850694444444444,0,0,0.010850694444444444,0,0)" xlink:href="#ak"/><use transform="matrix(0.010850694444444444,0,0,0.010850694444444444,7.269965277777778,0)" xlink:href="#X"/><use transform="matrix(0.010850694444444444,0,0,0.010850694444444444,15.266927083333332,0)" xlink:href="#Y"/><use transform="matrix(0.010850694444444444,0,0,0.010850694444444444,28.22265625,0)" xlink:href="#Y"/></g><g id="k"><use transform="matrix(0.010850694444444444,0,0,0.010850694444444444,0,0)" xlink:href="#ak"/><use transform="matrix(0.010850694444444444,0,0,0.010850694444444444,7.052951388888888,0)" xlink:href="#Z"/></g><path d="M158 0v-1118h175l1 205c55-151 181-225 313-225 147 0 245 90 285 228 53-141 190-228 352-228 194 0 352 125 352 384V0h-181v-749c0-161-105-225-225-225-151 0-243 103-243 244V0H807v-767c0-124-93-207-219-207-131 0-250 92-250 270V0H158" id="am"/><path d="M471 26C259 26 90-98 90-318c0-256 228-303 435-329 202-27 287-16 287-108 0-139-79-219-234-219-161 0-248 86-283 164l-173-57c86-203 278-265 451-265 150 0 419 46 419 395V0H815v-152h-12C765-73 660 26 471 26zm31-159c199 0 310-134 310-271v-155c-30 35-226 55-295 64-131 17-246 59-246 186 0 116 97 176 231 176" id="an"/><g id="l"><use transform="matrix(0.010850694444444444,0,0,0.010850694444444444,0,0)" xlink:href="#aj"/><use transform="matrix(0.010850694444444444,0,0,0.010850694444444444,11.729600694444445,0)" xlink:href="#ag"/><use transform="matrix(0.010850694444444444,0,0,0.010850694444444444,17.11154513888889,0)" xlink:href="#am"/><use transform="matrix(0.010850694444444444,0,0,0.010850694444444444,36.57769097222222,0)" xlink:href="#ai"/><use transform="matrix(0.010850694444444444,0,0,0.010850694444444444,49.71788194444444,0)" xlink:href="#ah"/><use transform="matrix(0.010850694444444444,0,0,0.010850694444444444,55.099826388888886,0)" xlink:href="#an"/><use transform="matrix(0.010850694444444444,0,0,0.010850694444444444,67.578125,0)" xlink:href="#ak"/><use transform="matrix(0.010850694444444444,0,0,0.010850694444444444,74.63107638888889,0)" xlink:href="#Y"/></g><g id="m"><use transform="matrix(0.010850694444444444,0,0,0.010850694444444444,0,0)" xlink:href="#ak"/><use transform="matrix(0.010850694444444444,0,0,0.010850694444444444,7.269965277777778,0)" xlink:href="#al"/><use transform="matrix(0.010850694444444444,0,0,0.010850694444444444,20.41015625,0)" xlink:href="#Y"/></g><path d="M611 442c-248 0-391-105-460-228l146-94c47 65 117 165 314 165 178 0 307-82 307-266v-224h-17C863-141 792-18 576-18c-268 0-472-195-472-546 0-346 197-568 476-568 216 0 288 133 326 193h17v-179h175V29c0 289-215 413-487 413zm-5-620c203 0 314-146 314-390 0-237-108-403-314-403-213 0-319 180-319 403 0 230 109 390 319 390" id="ao"/><g id="n"><use transform="matrix(0.010850694444444444,0,0,0.010850694444444444,0,0)" xlink:href="#an"/><use transform="matrix(0.010850694444444444,0,0,0.010850694444444444,12.47829861111111,0)" xlink:href="#ah"/><use transform="matrix(0.010850694444444444,0,0,0.010850694444444444,17.860243055555557,0)" xlink:href="#ao"/><use transform="matrix(0.010850694444444444,0,0,0.010850694444444444,31.488715277777775,0)" xlink:href="#Z"/><use transform="matrix(0.010850694444444444,0,0,0.010850694444444444,44.81336805555556,0)" xlink:href="#X"/><use transform="matrix(0.010850694444444444,0,0,0.010850694444444444,53.52647569444444,0)" xlink:href="#ag"/><use transform="matrix(0.010850694444444444,0,0,0.010850694444444444,58.908420138888886,0)" xlink:href="#ak"/><use transform="matrix(0.010850694444444444,0,0,0.010850694444444444,66.17838541666666,0)" xlink:href="#al"/><use transform="matrix(0.010850694444444444,0,0,0.010850694444444444,79.31857638888889,0)" xlink:href="#am"/></g><path d="M52 0l541-1490h220L1361 0h-200l-149-416H398L254 0H52zm404-582h497c-103-290-145-390-251-756-108 377-145 460-246 756" id="ap"/><g id="o"><use transform="matrix(0.010850694444444444,0,0,0.010850694444444444,0,0)" xlink:href="#ap"/><use transform="matrix(0.010850694444444444,0,0,0.010850694444444444,15.33203125,0)" xlink:href="#X"/><use transform="matrix(0.010850694444444444,0,0,0.010850694444444444,23.328993055555554,0)" xlink:href="#Y"/></g><path d="M481 0L54-1118h197c107 314 236 620 325 951 87-331 217-637 324-951h197L670 0H481" id="aq"/><g id="p"><use transform="matrix(0.010850694444444444,0,0,0.010850694444444444,0,0)" xlink:href="#aq"/><use transform="matrix(0.010850694444444444,0,0,0.010850694444444444,12.38064236111111,0)" xlink:href="#an"/><use transform="matrix(0.010850694444444444,0,0,0.010850694444444444,24.85894097222222,0)" xlink:href="#ah"/><use transform="matrix(0.010850694444444444,0,0,0.010850694444444444,30.240885416666664,0)" xlink:href="#ai"/><use transform="matrix(0.010850694444444444,0,0,0.010850694444444444,43.381076388888886,0)" xlink:href="#Y"/><use transform="matrix(0.010850694444444444,0,0,0.010850694444444444,56.33680555555555,0)" xlink:href="#aj"/></g><path d="M1096 418H916v-591h-14C865-111 790 24 577 24c-279 0-473-224-473-580 0-354 195-576 474-576 218 0 287 134 324 193h20v-179h174V418zM604-137c203 0 314-172 314-421 0-247-108-413-314-413-212 0-317 181-317 413 0 235 108 421 317 421" id="ar"/><path d="M383-449c-3-277 82-343 222-425 88-53 156-134 156-250 0-139-108-227-243-227-118 0-235 70-246 236H82c10-251 200-395 436-395 259 0 427 165 427 393 0 161-74 273-203 352-132 80-180 132-178 316H383zm93 462c-75 0-135-60-135-134 0-75 60-135 135-135 74 0 134 60 134 135 0 74-60 134-134 134" id="as"/><g id="q"><use transform="matrix(0.010850694444444444,0,0,0.010850694444444444,0,0)" xlink:href="#Y"/><use transform="matrix(0.010850694444444444,0,0,0.010850694444444444,12.955729166666666,0)" xlink:href="#ar"/><use transform="matrix(0.010850694444444444,0,0,0.010850694444444444,26.5625,0)" xlink:href="#ai"/><use transform="matrix(0.010850694444444444,0,0,0.010850694444444444,39.70269097222222,0)" xlink:href="#an"/><use transform="matrix(0.010850694444444444,0,0,0.010850694444444444,52.18098958333333,0)" xlink:href="#ah"/><use transform="matrix(0.010850694444444444,0,0,0.010850694444444444,57.56293402777778,0)" xlink:href="#as"/></g><path fill="#fff" d="M120-303v-155l652-1032h231v1020h202v167h-202V0H821v-303H120zm702-167v-782h-12L323-482v12h499" id="at"/><use transform="matrix(0.010850694444444444,0,0,0.010850694444444444,0,0)" xlink:href="#at" id="r"/><path fill="#fff" d="M626 20c-262 0-458-168-468-396h184c12 133 134 229 284 229 180 0 311-137 311-326 0-192-136-335-323-335-92 0-196 33-255 78l-178-22 88-738h784v167H429l-51 435h8c61-51 160-87 263-87 273 0 474 211 474 499 0 286-210 496-497 496" id="au"/><use transform="matrix(0.010850694444444444,0,0,0.010850694444444444,0,0)" xlink:href="#au" id="s"/><path d="M98-1322v-168h1126v168H757V0H567v-1322H98" id="av"/><g id="t"><use transform="matrix(0.010850694444444444,0,0,0.010850694444444444,0,0)" xlink:href="#av"/><use transform="matrix(0.010850694444444444,0,0,0.010850694444444444,13.0859375,0)" xlink:href="#X"/><use transform="matrix(0.010850694444444444,0,0,0.010850694444444444,21.451822916666664,0)" xlink:href="#an"/><use transform="matrix(0.010850694444444444,0,0,0.010850694444444444,33.60460069444444,0)" xlink:href="#aq"/><use transform="matrix(0.010850694444444444,0,0,0.010850694444444444,45.65972222222222,0)" xlink:href="#Y"/><use transform="matrix(0.010850694444444444,0,0,0.010850694444444444,58.615451388888886,0)" xlink:href="#X"/><use transform="matrix(0.010850694444444444,0,0,0.010850694444444444,66.98133680555556,0)" xlink:href="#aj"/><use transform="matrix(0.010850694444444444,0,0,0.010850694444444444,78.7109375,0)" xlink:href="#Y"/></g><path d="M678-1118v154H420V0H240v-964H20v-154h220v-149c0-194 155-293 318-293 85 0 141 18 168 30l-50 154c-19-6-47-17-97-17-111 0-159 58-159 166v109h258" id="aw"/><g id="u"><use transform="matrix(0.010850694444444444,0,0,0.010850694444444444,0,0)" xlink:href="#ah"/><use transform="matrix(0.010850694444444444,0,0,0.010850694444444444,5.381944444444445,0)" xlink:href="#Y"/><use transform="matrix(0.010850694444444444,0,0,0.010850694444444444,18.33767361111111,0)" xlink:href="#aw"/><use transform="matrix(0.010850694444444444,0,0,0.010850694444444444,25.80295138888889,0)" xlink:href="#ak"/></g><g id="v"><use transform="matrix(0.010850694444444444,0,0,0.010850694444444444,0,0)" xlink:href="#aw"/><use transform="matrix(0.010850694444444444,0,0,0.010850694444444444,8.22482638888889,0)" xlink:href="#X"/><use transform="matrix(0.010850694444444444,0,0,0.010850694444444444,16.221788194444443,0)" xlink:href="#Z"/><use transform="matrix(0.010850694444444444,0,0,0.010850694444444444,29.54644097222222,0)" xlink:href="#am"/></g><path d="M653-1490V0H466v-1314h-10L96-1047v-204l324-239h233" id="ax"/><use transform="matrix(0.010850694444444444,0,0,0.010850694444444444,0,0)" xlink:href="#ax" id="w"/><g id="x"><use transform="matrix(0.010850694444444444,0,0,0.010850694444444444,0,0)" xlink:href="#ad"/><use transform="matrix(0.010850694444444444,0,0,0.010850694444444444,14.2578125,0)" xlink:href="#ak"/><use transform="matrix(0.010850694444444444,0,0,0.010850694444444444,21.63628472222222,0)" xlink:href="#an"/><use transform="matrix(0.010850694444444444,0,0,0.010850694444444444,34.11458333333333,0)" xlink:href="#X"/><use transform="matrix(0.010850694444444444,0,0,0.010850694444444444,42.827690972222214,0)" xlink:href="#ak"/></g><g id="y"><use transform="matrix(0.010850694444444444,0,0,0.010850694444444444,0,0)" xlink:href="#an"/><use transform="matrix(0.010850694444444444,0,0,0.010850694444444444,12.47829861111111,0)" xlink:href="#ak"/></g><g id="z"><use transform="matrix(0.010850694444444444,0,0,0.010850694444444444,0,0)" xlink:href="#X"/><use transform="matrix(0.010850694444444444,0,0,0.010850694444444444,7.996961805555555,0)" xlink:href="#Z"/><use transform="matrix(0.010850694444444444,0,0,0.010850694444444444,21.321614583333332,0)" xlink:href="#Z"/><use transform="matrix(0.010850694444444444,0,0,0.010850694444444444,34.64626736111111,0)" xlink:href="#ak"/></g><path d="M154 0v-137l495-537c165-179 249-281 249-418 0-156-121-253-280-253-170 0-278 110-278 278H158c0-264 200-443 465-443 266 0 455 183 455 416 0 161-73 288-336 568L416-179v12h687V0H154" id="ay"/><use transform="matrix(0.010850694444444444,0,0,0.010850694444444444,0,0)" xlink:href="#ay" id="A"/><g id="B"><use transform="matrix(0.010850694444444444,0,0,0.010850694444444444,0,0)" xlink:href="#av"/><use transform="matrix(0.010850694444444444,0,0,0.010850694444444444,13.0859375,0)" xlink:href="#X"/><use transform="matrix(0.010850694444444444,0,0,0.010850694444444444,21.451822916666664,0)" xlink:href="#an"/><use transform="matrix(0.010850694444444444,0,0,0.010850694444444444,33.60460069444444,0)" xlink:href="#aq"/><use transform="matrix(0.010850694444444444,0,0,0.010850694444444444,45.65972222222222,0)" xlink:href="#Y"/><use transform="matrix(0.010850694444444444,0,0,0.010850694444444444,58.615451388888886,0)" xlink:href="#X"/><use transform="matrix(0.010850694444444444,0,0,0.010850694444444444,66.98133680555556,0)" xlink:href="#aj"/><use transform="matrix(0.010850694444444444,0,0,0.010850694444444444,78.7109375,0)" xlink:href="#Y"/></g><g id="C"><use transform="matrix(0.010850694444444444,0,0,0.010850694444444444,0,0)" xlink:href="#X"/><use transform="matrix(0.010850694444444444,0,0,0.010850694444444444,8.713107638888888,0)" xlink:href="#ag"/><use transform="matrix(0.010850694444444444,0,0,0.010850694444444444,14.095052083333332,0)" xlink:href="#ao"/><use transform="matrix(0.010850694444444444,0,0,0.010850694444444444,27.723524305555554,0)" xlink:href="#al"/><use transform="matrix(0.010850694444444444,0,0,0.010850694444444444,40.86371527777777,0)" xlink:href="#ak"/></g><g id="D"><use transform="matrix(0.010850694444444444,0,0,0.010850694444444444,0,0)" xlink:href="#ae"/><use transform="matrix(0.010850694444444444,0,0,0.010850694444444444,21.89670138888889,0)" xlink:href="#ag"/><use transform="matrix(0.010850694444444444,0,0,0.010850694444444444,27.278645833333336,0)" xlink:href="#ak"/><use transform="matrix(0.010850694444444444,0,0,0.010850694444444444,34.548611111111114,0)" xlink:href="#al"/></g><g id="E"><use transform="matrix(0.010850694444444444,0,0,0.010850694444444444,0,0)" xlink:href="#W"/><use transform="matrix(0.010850694444444444,0,0,0.010850694444444444,14.192708333333332,0)" xlink:href="#X"/><use transform="matrix(0.010850694444444444,0,0,0.010850694444444444,22.189670138888886,0)" xlink:href="#Y"/><use transform="matrix(0.010850694444444444,0,0,0.010850694444444444,35.14539930555555,0)" xlink:href="#Z"/><use transform="matrix(0.010850694444444444,0,0,0.010850694444444444,48.47005208333333,0)" xlink:href="#X"/><use transform="matrix(0.010850694444444444,0,0,0.010850694444444444,56.46701388888888,0)" xlink:href="#aa"/><use transform="matrix(0.010850694444444444,0,0,0.010850694444444444,70.07378472222221,0)" xlink:href="#Y"/><use transform="matrix(0.010850694444444444,0,0,0.010850694444444444,83.02951388888889,0)" xlink:href="#X"/></g><path d="M128 359l88-567h206L266 359H128" id="az"/><g id="F"><use transform="matrix(0.010850694444444444,0,0,0.010850694444444444,0,0)" xlink:href="#ab"/><use transform="matrix(0.010850694444444444,0,0,0.010850694444444444,16.03732638888889,0)" xlink:href="#ac"/><use transform="matrix(0.010850694444444444,0,0,0.010850694444444444,29.15581597222222,0)" xlink:href="#ad"/><use transform="matrix(0.010850694444444444,0,0,0.010850694444444444,43.41362847222222,0)" xlink:href="#az"/></g><g id="G"><use transform="matrix(0.010850694444444444,0,0,0.010850694444444444,0,0)" xlink:href="#af"/><use transform="matrix(0.010850694444444444,0,0,0.010850694444444444,17.784288194444446,0)" xlink:href="#Y"/></g><path d="M338-670V0H158v-1118h173l1 207c72-158 192-221 342-221 226 0 378 139 378 422V0H872v-695c0-172-96-275-252-275-161 0-282 109-282 300" id="aA"/><g id="H"><use transform="matrix(0.010850694444444444,0,0,0.010850694444444444,0,0)" xlink:href="#aw"/><use transform="matrix(0.010850694444444444,0,0,0.010850694444444444,7.573784722222222,0)" xlink:href="#Z"/><use transform="matrix(0.010850694444444444,0,0,0.010850694444444444,20.8984375,0)" xlink:href="#ai"/><use transform="matrix(0.010850694444444444,0,0,0.010850694444444444,34.03862847222222,0)" xlink:href="#aA"/><use transform="matrix(0.010850694444444444,0,0,0.010850694444444444,47.16796875,0)" xlink:href="#aa"/></g><g id="I"><use transform="matrix(0.010850694444444444,0,0,0.010850694444444444,0,0)" xlink:href="#ak"/><use transform="matrix(0.010850694444444444,0,0,0.010850694444444444,7.269965277777778,0)" xlink:href="#al"/><use transform="matrix(0.010850694444444444,0,0,0.010850694444444444,20.41015625,0)" xlink:href="#an"/><use transform="matrix(0.010850694444444444,0,0,0.010850694444444444,32.888454861111114,0)" xlink:href="#ak"/></g><g id="J"><use transform="matrix(0.010850694444444444,0,0,0.010850694444444444,0,0)" xlink:href="#ak"/><use transform="matrix(0.010850694444444444,0,0,0.010850694444444444,7.269965277777778,0)" xlink:href="#al"/><use transform="matrix(0.010850694444444444,0,0,0.010850694444444444,20.41015625,0)" xlink:href="#Y"/></g><g id="K"><use transform="matrix(0.010850694444444444,0,0,0.010850694444444444,0,0)" xlink:href="#ak"/><use transform="matrix(0.010850694444444444,0,0,0.010850694444444444,7.269965277777778,0)" xlink:href="#X"/><use transform="matrix(0.010850694444444444,0,0,0.010850694444444444,15.266927083333332,0)" xlink:href="#Y"/><use transform="matrix(0.010850694444444444,0,0,0.010850694444444444,28.22265625,0)" xlink:href="#Y"/><use transform="matrix(0.010850694444444444,0,0,0.010850694444444444,41.178385416666664,0)" xlink:href="#aj"/></g><g id="L"><use transform="matrix(0.010850694444444444,0,0,0.010850694444444444,0,0)" xlink:href="#an"/><use transform="matrix(0.010850694444444444,0,0,0.010850694444444444,12.47829861111111,0)" xlink:href="#X"/><use transform="matrix(0.010850694444444444,0,0,0.010850694444444444,20.475260416666664,0)" xlink:href="#Y"/></g><path d="M295 13c-75 0-135-60-135-135s60-135 135-135 135 60 135 135S370 13 295 13" id="aB"/><g id="M"><use transform="matrix(0.010850694444444444,0,0,0.010850694444444444,0,0)" xlink:href="#aj"/><use transform="matrix(0.010850694444444444,0,0,0.010850694444444444,11.729600694444445,0)" xlink:href="#an"/><use transform="matrix(0.010850694444444444,0,0,0.010850694444444444,24.207899305555554,0)" xlink:href="#am"/><use transform="matrix(0.010850694444444444,0,0,0.010850694444444444,43.674045138888886,0)" xlink:href="#Y"/><use transform="matrix(0.010850694444444444,0,0,0.010850694444444444,56.62977430555555,0)" xlink:href="#aB"/></g><g id="N"><use transform="matrix(0.010850694444444444,0,0,0.010850694444444444,0,0)" xlink:href="#av"/><use transform="matrix(0.010850694444444444,0,0,0.010850694444444444,14.344618055555555,0)" xlink:href="#al"/><use transform="matrix(0.010850694444444444,0,0,0.010850694444444444,27.48480902777778,0)" xlink:href="#Y"/></g><g id="O"><use transform="matrix(0.010850694444444444,0,0,0.010850694444444444,0,0)" xlink:href="#ak"/><use transform="matrix(0.010850694444444444,0,0,0.010850694444444444,7.269965277777778,0)" xlink:href="#X"/><use transform="matrix(0.010850694444444444,0,0,0.010850694444444444,15.635850694444445,0)" xlink:href="#an"/><use transform="matrix(0.010850694444444444,0,0,0.010850694444444444,27.78862847222222,0)" xlink:href="#aq"/><use transform="matrix(0.010850694444444444,0,0,0.010850694444444444,39.84375,0)" xlink:href="#Y"/><use transform="matrix(0.010850694444444444,0,0,0.010850694444444444,52.799479166666664,0)" xlink:href="#X"/><use transform="matrix(0.010850694444444444,0,0,0.010850694444444444,61.16536458333333,0)" xlink:href="#aj"/><use transform="matrix(0.010850694444444444,0,0,0.010850694444444444,72.89496527777777,0)" xlink:href="#an"/><use transform="matrix(0.010850694444444444,0,0,0.010850694444444444,85.37326388888889,0)" xlink:href="#ah"/></g><g id="P"><use transform="matrix(0.010850694444444444,0,0,0.010850694444444444,0,0)" xlink:href="#aw"/><use transform="matrix(0.010850694444444444,0,0,0.010850694444444444,7.573784722222222,0)" xlink:href="#Z"/><use transform="matrix(0.010850694444444444,0,0,0.010850694444444444,20.8984375,0)" xlink:href="#ah"/><use transform="matrix(0.010850694444444444,0,0,0.010850694444444444,26.280381944444443,0)" xlink:href="#ah"/><use transform="matrix(0.010850694444444444,0,0,0.010850694444444444,31.66232638888889,0)" xlink:href="#Z"/><use transform="matrix(0.010850694444444444,0,0,0.010850694444444444,44.58550347222222,0)" xlink:href="#af"/><use transform="matrix(0.010850694444444444,0,0,0.010850694444444444,62.77126736111112,0)" xlink:href="#aj"/></g><use transform="matrix(0.010850694444444444,0,0,0.010850694444444444,0,0)" xlink:href="#an" id="Q"/><path d="M798-719v166H144v-166h654" id="aC"/><g id="R"><use transform="matrix(0.010850694444444444,0,0,0.010850694444444444,0,0)" xlink:href="#X"/><use transform="matrix(0.010850694444444444,0,0,0.010850694444444444,7.996961805555555,0)" xlink:href="#Z"/><use transform="matrix(0.010850694444444444,0,0,0.010850694444444444,21.321614583333332,0)" xlink:href="#Z"/><use transform="matrix(0.010850694444444444,0,0,0.010850694444444444,34.64626736111111,0)" xlink:href="#ak"/><use transform="matrix(0.010850694444444444,0,0,0.010850694444444444,41.48220486111111,0)" xlink:href="#aC"/><use transform="matrix(0.010850694444444444,0,0,0.010850694444444444,51.70355902777778,0)" xlink:href="#ah"/><use transform="matrix(0.010850694444444444,0,0,0.010850694444444444,57.08550347222221,0)" xlink:href="#Y"/><use transform="matrix(0.010850694444444444,0,0,0.010850694444444444,70.04123263888889,0)" xlink:href="#aw"/><use transform="matrix(0.010850694444444444,0,0,0.010850694444444444,77.50651041666666,0)" xlink:href="#ak"/><use transform="matrix(0.010850694444444444,0,0,0.010850694444444444,84.34244791666666,0)" xlink:href="#aC"/><use transform="matrix(0.010850694444444444,0,0,0.010850694444444444,94.56380208333333,0)" xlink:href="#X"/><use transform="matrix(0.010850694444444444,0,0,0.010850694444444444,103.27690972222224,0)" xlink:href="#ag"/><use transform="matrix(0.010850694444444444,0,0,0.010850694444444444,108.65885416666666,0)" xlink:href="#ao"/><use transform="matrix(0.010850694444444444,0,0,0.010850694444444444,122.28732638888889,0)" xlink:href="#al"/><use transform="matrix(0.010850694444444444,0,0,0.010850694444444444,135.42751736111111,0)" xlink:href="#ak"/></g><g id="S"><use transform="matrix(0.010850694444444444,0,0,0.010850694444444444,0,0)" xlink:href="#ak"/><use transform="matrix(0.010850694444444444,0,0,0.010850694444444444,7.269965277777778,0)" xlink:href="#X"/><use transform="matrix(0.010850694444444444,0,0,0.010850694444444444,15.635850694444445,0)" xlink:href="#an"/><use transform="matrix(0.010850694444444444,0,0,0.010850694444444444,27.78862847222222,0)" xlink:href="#aq"/><use transform="matrix(0.010850694444444444,0,0,0.010850694444444444,39.84375,0)" xlink:href="#Y"/><use transform="matrix(0.010850694444444444,0,0,0.010850694444444444,52.799479166666664,0)" xlink:href="#X"/><use transform="matrix(0.010850694444444444,0,0,0.010850694444444444,61.16536458333333,0)" xlink:href="#aj"/><use transform="matrix(0.010850694444444444,0,0,0.010850694444444444,72.89496527777777,0)" xlink:href="#an"/><use transform="matrix(0.010850694444444444,0,0,0.010850694444444444,85.37326388888889,0)" xlink:href="#ah"/><use transform="matrix(0.010850694444444444,0,0,0.010850694444444444,90.75520833333333,0)" xlink:href="#aB"/></g></defs></g></svg>