<svg xmlns="http://www.w3.org/2000/svg" xmlns:xlink="http://www.w3.org/1999/xlink" xmlns:lucid="lucid" width="662" height="740.78"><g transform="translate(81 -2.0906249999999815)" lucid:page-tab-id="0_0"><path d="M304.67 61.87c0 22.1-17.9 40-40 40s-40-17.9-40-40 17.9-40 40-40 40 17.9 40 40z" stroke="#3a414a" stroke-width="2"/><use xlink:href="#a" transform="matrix(1,0,0,1,229.66666666666666,26.866666666666646) translate(30.48068576388889 43.40277777777778)"/><path d="M264.67 103.37v32.5a6 6 0 0 1-6 6h-108a6 6 0 0 0-6 6v16.6" stroke="#3a414a" fill="none"/><path d="M264.65 102.87l.5-.02v.53h-.96v-.54z" stroke="#3a414a" stroke-width=".05" fill="#3a414a"/><path d="M144.67 179.25l-4.64-14.27h9.27z" stroke="#3a414a" fill="#3a414a"/><path d="M184.67 221.87c0 22.1-17.9 40-40 40s-40-17.9-40-40 17.9-40 40-40 40 17.9 40 40z" stroke="#3a414a" stroke-width="2"/><use xlink:href="#b" transform="matrix(1,0,0,1,109.66666666666666,186.86666666666665) translate(28.228741319444445 30.27777777777778)"/><use xlink:href="#c" transform="matrix(1,0,0,1,109.66666666666666,186.86666666666665) translate(8.344843750000004 57.165798611111114)"/><use xlink:href="#d" transform="matrix(1,0,0,1,109.66666666666666,186.86666666666665) translate(27.159947916666667 57.165798611111114)"/><use xlink:href="#e" transform="matrix(1,0,0,1,109.66666666666666,186.86666666666665) translate(48.11263888888889 57.165798611111114)"/><path d="M264.67 103.37v32.5a6 6 0 0 0 6 6h108a6 6 0 0 1 6 6v16.6" stroke="#3a414a" fill="none"/><path d="M264.65 102.87l.5-.02v.53h-.96v-.54z" stroke="#3a414a" stroke-width=".05" fill="#3a414a"/><path d="M384.67 179.25l-4.64-14.27h9.27z" stroke="#3a414a" fill="#3a414a"/><path d="M424.67 221.87c0 22.1-17.9 40-40 40s-40-17.9-40-40 17.9-40 40-40 40 17.9 40 40z" stroke="#3a414a" stroke-width="2"/><use xlink:href="#f" transform="matrix(1,0,0,1,349.66666666666663,186.86666666666665) translate(28.14193576388889 30.27777777777778)"/><use xlink:href="#g" transform="matrix(1,0,0,1,349.66666666666663,186.86666666666665) translate(7.24349826388889 57.165798611111114)"/><use xlink:href="#d" transform="matrix(1,0,0,1,349.66666666666663,186.86666666666665) translate(27.794713541666667 57.165798611111114)"/><use xlink:href="#h" transform="matrix(1,0,0,1,349.66666666666663,186.86666666666665) translate(48.74740451388889 57.165798611111114)"/><path d="M144.67 263.37v32.5a6 6 0 0 1-6 6h-48a6 6 0 0 0-6 6v16.6" stroke="#3a414a" fill="none"/><path d="M144.65 262.87l.5-.02v.53h-.96v-.54z" stroke="#3a414a" stroke-width=".05" fill="#3a414a"/><path d="M84.67 339.25l-4.64-14.27h9.27z" stroke="#3a414a" fill="#3a414a"/><path d="M124.67 381.87c0 22.1-17.9 40-40 40s-40-17.9-40-40 17.9-40 40-40 40 17.9 40 40z" stroke="#3a414a" stroke-width="2"/><use xlink:href="#i" transform="matrix(1,0,0,1,49.66666666666666,346.8666666666667) translate(27.827265625000003 30.27777777777778)"/><use xlink:href="#c" transform="matrix(1,0,0,1,49.66666666666666,346.8666666666667) translate(10.601788194444447 57.165798611111114)"/><use xlink:href="#d" transform="matrix(1,0,0,1,49.66666666666666,346.8666666666667) translate(29.41689236111111 57.165798611111114)"/><use xlink:href="#j" transform="matrix(1,0,0,1,49.66666666666666,346.8666666666667) translate(50.36958333333333 57.165798611111114)"/><path d="M144.67 263.37v32.5a6 6 0 0 0 6 6h48a6 6 0 0 1 6 6v16.6" stroke="#3a414a" fill="none"/><path d="M144.65 262.87l.5-.02v.53h-.96v-.54z" stroke="#3a414a" stroke-width=".05" fill="#3a414a"/><path d="M204.67 339.25l-4.64-14.27h9.27z" stroke="#3a414a" fill="#3a414a"/><path d="M244.67 381.87c0 22.1-17.9 40-40 40s-40-17.9-40-40 17.9-40 40-40 40 17.9 40 40z" stroke="#3a414a" stroke-width="2"/><use xlink:href="#k" transform="matrix(1,0,0,1,169.66666666666666,346.8666666666667) translate(28.25044270833333 30.27777777777778)"/><use xlink:href="#g" transform="matrix(1,0,0,1,169.66666666666666,346.8666666666667) translate(7.24349826388889 57.165798611111114)"/><use xlink:href="#d" transform="matrix(1,0,0,1,169.66666666666666,346.8666666666667) translate(27.794713541666667 57.165798611111114)"/><use xlink:href="#h" transform="matrix(1,0,0,1,169.66666666666666,346.8666666666667) translate(48.74740451388889 57.165798611111114)"/><path d="M17.07 9.1a6 6 0 0 1 6-6h135.6a6 6 0 0 1 6 6v105.54a6 6 0 0 1-6 6H23.07a6 6 0 0 1-6-6z" stroke="#3a414a" stroke-width="2" fill="#fff"/><use xlink:href="#l" transform="matrix(1,0,0,1,22.068732624570174,8.090624999999982) translate(0.5972222222222285 24.90277777777778)"/><use xlink:href="#m" transform="matrix(1,0,0,1,22.068732624570174,8.090624999999982) translate(40.571180555555564 24.90277777777778)"/><use xlink:href="#n" transform="matrix(1,0,0,1,22.068732624570174,8.090624999999982) translate(80.25217013888889 24.90277777777778)"/><use xlink:href="#o" transform="matrix(1,0,0,1,22.068732624570174,8.090624999999982) translate(1.286241319444457 51.790798611111114)"/><use xlink:href="#p" transform="matrix(1,0,0,1,22.068732624570174,8.090624999999982) translate(45.05794270833334 51.790798611111114)"/><use xlink:href="#q" transform="matrix(1,0,0,1,22.068732624570174,8.090624999999982) translate(98.88823784722223 51.790798611111114)"/><use xlink:href="#r" transform="matrix(1,0,0,1,22.068732624570174,8.090624999999982) translate(14.784505208333343 78.67881944444446)"/><use xlink:href="#s" transform="matrix(1,0,0,1,22.068732624570174,8.090624999999982) translate(66.96549479166667 78.67881944444446)"/><use xlink:href="#t" transform="matrix(1,0,0,1,22.068732624570174,8.090624999999982) translate(47.293185763888886 105.56684027777777)"/><path d="M384.67 263.37v31.56a6 6 0 0 1-6 6H326a6 6 0 0 0-6 6v15.7" stroke="#3a414a" fill="none"/><path d="M384.65 262.87l.5-.02v.53h-.96v-.54z" stroke="#3a414a" stroke-width=".05" fill="#3a414a"/><path d="M320 337.38l-4.63-14.26h9.26z" stroke="#3a414a" fill="#3a414a"/><path d="M360 380c0 22.1-17.9 40-40 40s-40-17.9-40-40 17.9-40 40-40 40 17.9 40 40z" stroke="#3a414a" stroke-width="2" fill="#1071e5"/><use xlink:href="#u" transform="matrix(1,0,0,1,285,345) translate(16.48828993055556 30.27777777777778)"/><use xlink:href="#v" transform="matrix(1,0,0,1,285,345) translate(25.37500868055556 57.165798611111114)"/><path d="M384.67 263.37v32.5a6 6 0 0 0 6 6H454a6 6 0 0 1 6 6v16.6" stroke="#3a414a" fill="none"/><path d="M384.65 262.87l.5-.02v.53h-.96v-.54z" stroke="#3a414a" stroke-width=".05" fill="#3a414a"/><path d="M460 339.25l-4.63-14.27h9.26z" stroke="#3a414a" fill="#3a414a"/><path d="M500 381.87c0 22.1-17.9 40-40 40s-40-17.9-40-40 17.9-40 40-40 40 17.9 40 40z" stroke="#3a414a" stroke-width="2" fill="#1071e5"/><use xlink:href="#u" transform="matrix(1,0,0,1,425,346.8666666666667) translate(16.48828993055556 30.27777777777778)"/><use xlink:href="#v" transform="matrix(1,0,0,1,425,346.8666666666667) translate(25.37500868055556 57.165798611111114)"/><path d="M84.67 423.37v32.5a6 6 0 0 1-6 6H26a6 6 0 0 0-6 6v16.6" stroke="#3a414a" fill="none"/><path d="M84.65 422.87l.5-.02v.53h-.96v-.54z" stroke="#3a414a" stroke-width=".05" fill="#3a414a"/><path d="M20 499.25l-4.63-14.27h9.27z" stroke="#3a414a" fill="#3a414a"/><path d="M60 541.87c0 22.1-17.9 40-40 40s-40-17.9-40-40 17.9-40 40-40 40 17.9 40 40z" stroke="#3a414a" stroke-width="2"/><use xlink:href="#w" transform="matrix(1,0,0,1,-15,506.8666666666667) translate(28.114809027777774 30.27777777777778)"/><use xlink:href="#c" transform="matrix(1,0,0,1,-15,506.8666666666667) translate(8.111553819444447 57.165798611111114)"/><use xlink:href="#d" transform="matrix(1,0,0,1,-15,506.8666666666667) translate(26.92665798611111 57.165798611111114)"/><use xlink:href="#h" transform="matrix(1,0,0,1,-15,506.8666666666667) translate(47.87934895833333 57.165798611111114)"/><path d="M84.67 423.37v32.5a6 6 0 0 0 6 6h48a6 6 0 0 1 6 6v16.6" stroke="#3a414a" fill="none"/><path d="M84.65 422.87l.5-.02v.53h-.96v-.54z" stroke="#3a414a" stroke-width=".05" fill="#3a414a"/><path d="M144.67 499.25l-4.64-14.27h9.27z" stroke="#3a414a" fill="#3a414a"/><path d="M184.67 541.87c0 22.1-17.9 40-40 40s-40-17.9-40-40 17.9-40 40-40 40 17.9 40 40z" stroke="#3a414a" stroke-width="2" fill="#1071e5"/><use xlink:href="#u" transform="matrix(1,0,0,1,109.66666666666666,506.8666666666667) translate(16.48828993055556 30.27777777777778)"/><use xlink:href="#v" transform="matrix(1,0,0,1,109.66666666666666,506.8666666666667) translate(25.37500868055556 57.165798611111114)"/><path d="M20 583.37v31.56a6 6 0 0 1-6 6h-48a6 6 0 0 0-6 6v15.7" stroke="#3a414a" fill="none"/><path d="M20 582.87l.48-.02v.53h-.96v-.54z" stroke="#3a414a" stroke-width=".05" fill="#3a414a"/><path d="M-40 657.38l-4.63-14.26h9.27z" stroke="#3a414a" fill="#3a414a"/><path d="M0 700c0 22.1-17.9 40-40 40s-40-17.9-40-40 17.9-40 40-40 40 17.9 40 40z" stroke="#3a414a" stroke-width="2" fill="#1071e5"/><use xlink:href="#u" transform="matrix(1,0,0,1,-75,665) translate(16.48828993055556 30.27777777777778)"/><use xlink:href="#v" transform="matrix(1,0,0,1,-75,665) translate(25.37500868055556 57.165798611111114)"/><path d="M20 583.37v32.5a6 6 0 0 0 6 6h48a6 6 0 0 1 6 6v16.6" stroke="#3a414a" fill="none"/><path d="M20 582.87l.48-.02v.53h-.96v-.54z" stroke="#3a414a" stroke-width=".05" fill="#3a414a"/><path d="M80 659.25l-4.64-14.27h9.28z" stroke="#3a414a" fill="#3a414a"/><path d="M120 701.87c0 22.1-17.9 40-40 40s-40-17.9-40-40 17.9-40 40-40 40 17.9 40 40z" stroke="#3a414a" stroke-width="2" fill="#1071e5"/><g><use xlink:href="#u" transform="matrix(1,0,0,1,45,666.8666666666667) translate(16.48828993055556 30.27777777777778)"/><use xlink:href="#v" transform="matrix(1,0,0,1,45,666.8666666666667) translate(25.37500868055556 57.165798611111114)"/></g><path d="M260 476.93a6 6 0 0 1 6-6h217.67a6 6 0 0 1 6 6V606.8a6 6 0 0 1-6 6H266a6 6 0 0 1-6-6z" stroke="#3a414a" stroke-width="2" fill="#fff"/><g><use xlink:href="#x" transform="matrix(1,0,0,1,265,475.9333333333334) translate(25.37543402777777 33.90277777777778)"/><use xlink:href="#y" transform="matrix(1,0,0,1,265,475.9333333333334) translate(37.593315972222214 33.90277777777778)"/><use xlink:href="#z" transform="matrix(1,0,0,1,265,475.9333333333334) translate(78.17491319444443 33.90277777777778)"/><use xlink:href="#A" transform="matrix(1,0,0,1,265,475.9333333333334) translate(122.25043402777777 33.90277777777778)"/><use xlink:href="#B" transform="matrix(1,0,0,1,265,475.9333333333334) translate(3.7879774305555713 60.790798611111114)"/><use xlink:href="#C" transform="matrix(1,0,0,1,265,475.9333333333334) translate(106.68511284722223 60.790798611111114)"/><use xlink:href="#D" transform="matrix(1,0,0,1,265,475.9333333333334) translate(133.31271701388889 60.790798611111114)"/><use xlink:href="#E" transform="matrix(1,0,0,1,265,475.9333333333334) translate(48.16731770833334 87.67881944444446)"/><use xlink:href="#F" transform="matrix(1,0,0,1,265,475.9333333333334) translate(87.783203125 87.67881944444446)"/><use xlink:href="#G" transform="matrix(1,0,0,1,265,475.9333333333334) translate(150.283203125 87.67881944444446)"/><use xlink:href="#H" transform="matrix(1,0,0,1,265,475.9333333333334) translate(13.211805555555557 114.56684027777777)"/><use xlink:href="#I" transform="matrix(1,0,0,1,265,475.9333333333334) translate(135.64019097222223 114.56684027777777)"/></g><path d="M-60 507.87a6 6 0 0 1 6-6h28a6 6 0 0 1 6 6v48a6 6 0 0 1-6 6h-28a6 6 0 0 1-6-6z" fill="none"/><g><use xlink:href="#J" transform="matrix(1,0,0,1,-60,501.8666666666667) translate(13.33224826388889 35.91362847222222)"/></g><path d="M4.67 347.87a6 6 0 0 1 6-6h28a6 6 0 0 1 6 6v48a6 6 0 0 1-6 6h-28a6 6 0 0 1-6-6z" fill="none"/><g><use xlink:href="#K" transform="matrix(1,0,0,1,4.666666666666657,341.8666666666667) translate(6.664496527777779 35.91362847222222)"/></g><path d="M204.67 426a6 6 0 0 1 6-6h28a6 6 0 0 1 6 6v48a6 6 0 0 1-6 6h-28a6 6 0 0 1-6-6z" fill="none"/><g><use xlink:href="#L" transform="matrix(1,0,0,1,204.66666666666666,420) translate(-0.003255208333332149 35.91362847222222)"/></g><path d="M64.67 187.87a6 6 0 0 1 6-6h28a6 6 0 0 1 6 6v48a6 6 0 0 1-6 6h-28a6 6 0 0 1-6-6z" fill="none"/><g><use xlink:href="#M" transform="matrix(1,0,0,1,64.66666666666666,181.86666666666665) translate(6.664496527777779 35.91362847222222)"/></g><path d="M304.67 187.87a6 6 0 0 1 6-6h28a6 6 0 0 1 6 6v48a6 6 0 0 1-6 6h-28a6 6 0 0 1-6-6z" fill="none"/><g><use xlink:href="#N" transform="matrix(1,0,0,1,304.66666666666663,181.86666666666665) translate(13.33224826388889 35.91362847222222)"/></g><path d="M184.67 27.87a6 6 0 0 1 6-6h28a6 6 0 0 1 6 6v48a6 6 0 0 1-6 6h-28a6 6 0 0 1-6-6z" fill="none"/><g><use xlink:href="#O" transform="matrix(1,0,0,1,184.66666666666666,21.866666666666646) translate(6.664496527777779 35.91362847222222)"/></g><path d="M320 27.87a6 6 0 0 1 6-6h152.67a6 6 0 0 1 6 6v69.86a6 6 0 0 1-6 6H326a6 6 0 0 1-6-6z" fill="none"/><g><use xlink:href="#P" transform="matrix(1,0,0,1,320,21.866666666666646) translate(40.56749131944444 22.19574652777777)"/><use xlink:href="#Q" transform="matrix(1,0,0,1,320,21.866666666666646) translate(109.72981770833333 22.19574652777777)"/><use xlink:href="#R" transform="matrix(1,0,0,1,320,21.866666666666646) translate(21.752387152777786 49.08376736111111)"/><use xlink:href="#S" transform="matrix(1,0,0,1,320,21.866666666666646) translate(7.917751736111114 75.97178819444444)"/><use xlink:href="#T" transform="matrix(1,0,0,1,320,21.866666666666646) translate(27.720269097222225 75.97178819444444)"/><use xlink:href="#U" transform="matrix(1,0,0,1,320,21.866666666666646) translate(48.67296006944444 75.97178819444444)"/><use xlink:href="#T" transform="matrix(1,0,0,1,320,21.866666666666646) translate(87.99587673611111 75.97178819444444)"/><use xlink:href="#V" transform="matrix(1,0,0,1,320,21.866666666666646) translate(108.94856770833334 75.97178819444444)"/></g><path d="M164.67 676.93a6 6 0 0 1 6-6h148a6 6 0 0 1 6 6v46.14a6 6 0 0 1-6 6h-148a6 6 0 0 1-6-6z" stroke="#3a414a" stroke-width="2" fill="#fff"/><g><use xlink:href="#W" transform="matrix(1,0,0,1,169.66666666666666,675.9333333333334) translate(6.9769965277777715 33.77777777777778)"/><use xlink:href="#T" transform="matrix(1,0,0,1,169.66666666666666,675.9333333333334) translate(22.265624999999993 33.77777777777778)"/><use xlink:href="#X" transform="matrix(1,0,0,1,169.66666666666666,675.9333333333334) translate(43.218315972222214 33.77777777777778)"/><use xlink:href="#Y" transform="matrix(1,0,0,1,169.66666666666666,675.9333333333334) translate(120.61631944444444 33.77777777777778)"/></g><path d="M440 195.98a6 6 0 0 1 6-6h128a6 6 0 0 1 6 6V254a6 6 0 0 1-6 6H446a6 6 0 0 1-6-6z" stroke="#3a414a" stroke-width="2" fill="#fff"/><g><use xlink:href="#W" transform="matrix(1,0,0,1,445,194.9786458333333) translate(50.00434027777778 25.34027777777778)"/><use xlink:href="#Z" transform="matrix(1,0,0,1,445,194.9786458333333) translate(65.29296875 25.34027777777778)"/><use xlink:href="#aa" transform="matrix(1,0,0,1,445,194.9786458333333) translate(9.270833333333336 52.228298611111114)"/><use xlink:href="#ab" transform="matrix(1,0,0,1,445,194.9786458333333) translate(93.36371527777777 52.228298611111114)"/></g><defs><path fill="#fff" d="M653-1490V0H466v-1314h-10L96-1047v-204l324-239h233" id="ac"/><use transform="matrix(0.010850694444444444,0,0,0.010850694444444444,0,0)" xlink:href="#ac" id="a"/><path fill="#fff" d="M154 0v-137l495-537c165-179 249-281 249-418 0-156-121-253-280-253-170 0-278 110-278 278H158c0-264 200-443 465-443 266 0 455 183 455 416 0 161-73 288-336 568L416-179v12h687V0H154" id="ad"/><use transform="matrix(0.010850694444444444,0,0,0.010850694444444444,0,0)" xlink:href="#ad" id="b"/><path fill="#fff" d="M180 0v-1490h190v1322h690V0H180" id="ae"/><use transform="matrix(0.010850694444444444,0,0,0.010850694444444444,0,0)" xlink:href="#ae" id="c"/><path fill="#fff" d="M226-283v-166h904v166H226zm0-434v-166h904v166H226" id="af"/><use transform="matrix(0.010850694444444444,0,0,0.010850694444444444,0,0)" xlink:href="#af" id="d"/><use transform="matrix(0.010850694444444444,0,0,0.010850694444444444,0,0)" xlink:href="#ad" id="e"/><path fill="#fff" d="M635 20c-292 0-500-160-510-396h192c11 142 145 229 315 229 187 0 323-105 323-260 0-161-125-274-346-274H488v-165h121c174 0 294-100 294-254 0-148-104-245-266-245-152 0-291 85-297 230H157c8-234 222-395 484-395 278 0 448 188 448 400 0 168-95 291-247 336v12c190 31 301 169 301 357 0 244-216 425-508 425" id="ag"/><use transform="matrix(0.010850694444444444,0,0,0.010850694444444444,0,0)" xlink:href="#ag" id="f"/><path fill="#fff" d="M180 0v-1490h510c348 0 508 194 508 460 0 198-88 351-276 417L1256 0h-220L726-579c-117 2-238 0-356 1V0H180zm190-747h312c235 0 327-108 327-283 0-177-92-293-329-293H370v576" id="ah"/><use transform="matrix(0.010850694444444444,0,0,0.010850694444444444,0,0)" xlink:href="#ah" id="g"/><path fill="#fff" d="M646 20c-332 0-524-278-524-764 0-483 194-766 524-766s524 283 524 766c0 485-191 764-524 764zm0-166c218 0 341-220 341-598 0-380-123-601-341-601s-341 222-341 601c0 378 123 598 341 598" id="ai"/><use transform="matrix(0.010850694444444444,0,0,0.010850694444444444,0,0)" xlink:href="#ai" id="h"/><path fill="#fff" d="M120-303v-155l652-1032h231v1020h202v167h-202V0H821v-303H120zm702-167v-782h-12L323-482v12h499" id="aj"/><use transform="matrix(0.010850694444444444,0,0,0.010850694444444444,0,0)" xlink:href="#aj" id="i"/><use transform="matrix(0.010850694444444444,0,0,0.010850694444444444,0,0)" xlink:href="#ac" id="j"/><path fill="#fff" d="M626 20c-262 0-458-168-468-396h184c12 133 134 229 284 229 180 0 311-137 311-326 0-192-136-335-323-335-92 0-196 33-255 78l-178-22 88-738h784v167H429l-51 435h8c61-51 160-87 263-87 273 0 474 211 474 499 0 286-210 496-497 496" id="ak"/><use transform="matrix(0.010850694444444444,0,0,0.010850694444444444,0,0)" xlink:href="#ak" id="k"/><path d="M458 0L52-1490h194c108 439 233 855 324 1313 92-459 221-873 331-1313h216c110 438 234 854 330 1307 92-455 216-869 323-1307h196L1558 0h-221l-256-944c-26-95-50-200-73-331-22 122-44 223-73 331L680 0H458" id="al"/><path d="M628 24c-324 0-524-230-524-574 0-343 198-582 503-582 237 0 487 146 487 559v75H286c9 234 145 362 343 362 132 0 231-58 273-172l174 48C1024-91 857 24 628 24zM287-650h624c-17-190-120-322-304-322-192 0-309 151-320 322" id="am"/><g id="l"><use transform="matrix(0.010850694444444444,0,0,0.010850694444444444,0,0)" xlink:href="#al"/><use transform="matrix(0.010850694444444444,0,0,0.010850694444444444,20.768229166666668,0)" xlink:href="#am"/></g><path d="M471 26C259 26 90-98 90-318c0-256 228-303 435-329 202-27 287-16 287-108 0-139-79-219-234-219-161 0-248 86-283 164l-173-57c86-203 278-265 451-265 150 0 419 46 419 395V0H815v-152h-12C765-73 660 26 471 26zm31-159c199 0 310-134 310-271v-155c-30 35-226 55-295 64-131 17-246 59-246 186 0 116 97 176 231 176" id="an"/><path d="M158 0v-1118h174v172h12c41-113 157-188 290-188 26 0 70 2 91 3v181c-11-2-60-10-108-10-161 0-279 109-279 260V0H158" id="ao"/><g id="m"><use transform="matrix(0.010850694444444444,0,0,0.010850694444444444,0,0)" xlink:href="#an"/><use transform="matrix(0.010850694444444444,0,0,0.010850694444444444,12.47829861111111,0)" xlink:href="#ao"/><use transform="matrix(0.010850694444444444,0,0,0.010850694444444444,20.475260416666664,0)" xlink:href="#am"/></g><path d="M611 442c-248 0-391-105-460-228l146-94c47 65 117 165 314 165 178 0 307-82 307-266v-224h-17C863-141 792-18 576-18c-268 0-472-195-472-546 0-346 197-568 476-568 216 0 288 133 326 193h17v-179h175V29c0 289-215 413-487 413zm-5-620c203 0 314-146 314-390 0-237-108-403-314-403-213 0-319 180-319 403 0 230 109 390 319 390" id="ap"/><path d="M158 0v-1118h180V0H158zm91-1301c-68 0-125-53-125-119s57-119 125-119c69 0 126 53 126 119s-57 119-126 119" id="aq"/><path d="M481 0L54-1118h197c107 314 236 620 325 951 87-331 217-637 324-951h197L670 0H481" id="ar"/><path d="M338-670V0H158v-1118h173l1 207c72-158 192-221 342-221 226 0 378 139 378 422V0H872v-695c0-172-96-275-252-275-161 0-282 109-282 300" id="as"/><g id="n"><use transform="matrix(0.010850694444444444,0,0,0.010850694444444444,0,0)" xlink:href="#ap"/><use transform="matrix(0.010850694444444444,0,0,0.010850694444444444,13.628472222222221,0)" xlink:href="#aq"/><use transform="matrix(0.010850694444444444,0,0,0.010850694444444444,19.010416666666664,0)" xlink:href="#ar"/><use transform="matrix(0.010850694444444444,0,0,0.010850694444444444,31.065538194444443,0)" xlink:href="#am"/><use transform="matrix(0.010850694444444444,0,0,0.010850694444444444,44.02126736111111,0)" xlink:href="#as"/></g><path d="M598-1118v154H368v674c0 100 37 144 132 144 23 0 62-6 92-12L629-6c-37 13-88 20-134 20-193 0-307-107-307-290v-688H20v-154h168v-266h180v266h230" id="at"/><path d="M338-670V0H158v-1490h180v566c73-149 190-208 336-208 226 0 379 139 379 422V0H872v-695c0-172-96-275-252-275-161 0-282 109-282 300" id="au"/><path d="M538 24C308 24 148-78 108-271l171-41c32 123 123 178 257 178 156 0 256-77 256-169 0-77-54-128-164-154l-186-44c-203-48-300-148-300-305 0-192 176-326 414-326 230 0 351 112 402 269l-163 42c-31-80-94-158-238-158-133 0-233 69-233 162 0 83 57 129 188 160l169 40c203 48 298 149 298 302 0 196-179 339-441 339" id="av"/><g id="o"><use transform="matrix(0.010850694444444444,0,0,0.010850694444444444,0,0)" xlink:href="#at"/><use transform="matrix(0.010850694444444444,0,0,0.010850694444444444,7.269965277777778,0)" xlink:href="#au"/><use transform="matrix(0.010850694444444444,0,0,0.010850694444444444,20.41015625,0)" xlink:href="#aq"/><use transform="matrix(0.010850694444444444,0,0,0.010850694444444444,25.792100694444443,0)" xlink:href="#av"/></g><path d="M128 359l88-567h206L266 359H128" id="aw"/><g id="p"><use transform="matrix(0.010850694444444444,0,0,0.010850694444444444,0,0)" xlink:href="#at"/><use transform="matrix(0.010850694444444444,0,0,0.010850694444444444,7.269965277777778,0)" xlink:href="#ao"/><use transform="matrix(0.010850694444444444,0,0,0.010850694444444444,15.266927083333332,0)" xlink:href="#am"/><use transform="matrix(0.010850694444444444,0,0,0.010850694444444444,28.22265625,0)" xlink:href="#am"/><use transform="matrix(0.010850694444444444,0,0,0.010850694444444444,41.178385416666664,0)" xlink:href="#aw"/></g><path d="M537 14c-226 0-379-139-379-422v-710h180v695c0 172 97 275 253 275 160 0 281-109 281-300v-670h181V0H879v-209C806-46 684 14 537 14" id="ax"/><g id="q"><use transform="matrix(0.010850694444444444,0,0,0.010850694444444444,0,0)" xlink:href="#ax"/><use transform="matrix(0.010850694444444444,0,0,0.010850694444444444,13.140190972222221,0)" xlink:href="#av"/><use transform="matrix(0.010850694444444444,0,0,0.010850694444444444,24.869791666666664,0)" xlink:href="#am"/></g><path d="M158 418v-1536h174v179h20c37-59 106-193 324-193 279 0 474 222 474 576 0 356-194 580-473 580-213 0-288-135-325-197h-14v591H158zm492-555c209 0 317-186 317-421 0-232-105-413-317-413-206 0-314 166-314 413 0 249 111 421 314 421" id="ay"/><path d="M613 24c-304 0-509-231-509-576 0-350 205-580 509-580 305 0 511 230 511 580 0 345-206 576-511 576zm0-161c226 0 329-195 329-415 0-222-103-419-329-419-223 0-326 196-326 419 0 220 103 415 326 415" id="az"/><g id="r"><use transform="matrix(0.010850694444444444,0,0,0.010850694444444444,0,0)" xlink:href="#ay"/><use transform="matrix(0.010850694444444444,0,0,0.010850694444444444,13.606770833333332,0)" xlink:href="#az"/><use transform="matrix(0.010850694444444444,0,0,0.010850694444444444,26.931423611111104,0)" xlink:href="#av"/><use transform="matrix(0.010850694444444444,0,0,0.010850694444444444,38.66102430555555,0)" xlink:href="#at"/></g><path d="M577 24c-279 0-473-224-473-580 0-354 195-576 474-576 218 0 287 134 324 193h14v-551h180V0H922v-173h-20C865-111 790 24 577 24zm27-161c203 0 314-172 314-421 0-247-108-413-314-413-212 0-317 181-317 413 0 235 108 421 317 421" id="aA"/><g id="s"><use transform="matrix(0.010850694444444444,0,0,0.010850694444444444,0,0)" xlink:href="#az"/><use transform="matrix(0.010850694444444444,0,0,0.010850694444444444,13.324652777777777,0)" xlink:href="#ao"/><use transform="matrix(0.010850694444444444,0,0,0.010850694444444444,21.321614583333332,0)" xlink:href="#aA"/><use transform="matrix(0.010850694444444444,0,0,0.010850694444444444,34.928385416666664,0)" xlink:href="#am"/><use transform="matrix(0.010850694444444444,0,0,0.010850694444444444,47.88411458333333,0)" xlink:href="#ao"/></g><path d="M645 0H180v-1490h484c435 0 692 280 692 742 0 466-257 748-711 748zM370-168h263c363 0 539-218 539-580 0-358-176-574-521-574H370v1154" id="aB"/><path d="M180 0v-1490h901v168H370v510h643v168H370V0H180" id="aC"/><path d="M657 26c-323 0-524-166-541-416h195c15 169 171 246 346 246 202 0 356-106 356-265 5-203-294-238-475-293-239-73-380-191-380-389 0-252 224-419 512-419 294 0 499 171 508 396H992c-17-145-151-228-328-228-193 0-321 102-321 242 0 156 175 211 284 241l149 41c160 44 422 134 422 412 0 244-197 432-541 432" id="aD"/><g id="t"><use transform="matrix(0.010850694444444444,0,0,0.010850694444444444,0,0)" xlink:href="#aB"/><use transform="matrix(0.010850694444444444,0,0,0.010850694444444444,16.03732638888889,0)" xlink:href="#aC"/><use transform="matrix(0.010850694444444444,0,0,0.010850694444444444,29.15581597222222,0)" xlink:href="#aD"/></g><path fill="#fff" d="M338-670V0H158v-1118h173l1 207c72-158 192-221 342-221 226 0 378 139 378 422V0H872v-695c0-172-96-275-252-275-161 0-282 109-282 300" id="aE"/><path fill="#fff" d="M537 14c-226 0-379-139-379-422v-710h180v695c0 172 97 275 253 275 160 0 281-109 281-300v-670h181V0H879v-209C806-46 684 14 537 14" id="aF"/><path fill="#fff" d="M338-1490V0H158v-1490h180" id="aG"/><g id="u"><use transform="matrix(0.010850694444444444,0,0,0.010850694444444444,0,0)" xlink:href="#aE"/><use transform="matrix(0.010850694444444444,0,0,0.010850694444444444,13.129340277777777,0)" xlink:href="#aF"/><use transform="matrix(0.010850694444444444,0,0,0.010850694444444444,26.26953125,0)" xlink:href="#aG"/><use transform="matrix(0.010850694444444444,0,0,0.010850694444444444,31.651475694444443,0)" xlink:href="#aG"/></g><path fill="#fff" d="M798-719v166H144v-166h654" id="aH"/><g id="v"><use transform="matrix(0.010850694444444444,0,0,0.010850694444444444,0,0)" xlink:href="#aH"/><use transform="matrix(0.010850694444444444,0,0,0.010850694444444444,10.221354166666666,0)" xlink:href="#ac"/></g><path fill="#fff" d="M646 20c-249 0-524-159-524-708 0-524 209-822 547-822 250 0 431 161 467 395H950c-33-129-126-227-281-227-229 0-367 208-367 566h12c80-124 212-198 367-198 255 0 467 205 467 493 0 278-198 501-502 501zm0-167c179 0 318-148 318-334 0-182-133-328-313-328-181 0-322 156-322 330 0 176 134 332 317 332" id="aI"/><use transform="matrix(0.010850694444444444,0,0,0.010850694444444444,0,0)" xlink:href="#aI" id="w"/><path d="M370-1490V0H180v-1490h190" id="aJ"/><use transform="matrix(0.010850694444444444,0,0,0.010850694444444444,0,0)" xlink:href="#aJ" id="x"/><path d="M409 0L70-1118h191c89 329 165 560 243 925 75-353 154-601 240-925h192c85 325 161 564 235 922 77-354 157-598 244-922h191L1267 0h-179c-86-307-176-590-250-913C763-588 675-308 588 0H409" id="aK"/><path d="M338-1490V0H158v-1490h180" id="aL"/><g id="y"><use transform="matrix(0.010850694444444444,0,0,0.010850694444444444,0,0)" xlink:href="#aK"/><use transform="matrix(0.010850694444444444,0,0,0.010850694444444444,18.18576388888889,0)" xlink:href="#aq"/><use transform="matrix(0.010850694444444444,0,0,0.010850694444444444,23.567708333333336,0)" xlink:href="#aL"/><use transform="matrix(0.010850694444444444,0,0,0.010850694444444444,28.949652777777775,0)" xlink:href="#aL"/></g><g id="z"><use transform="matrix(0.010850694444444444,0,0,0.010850694444444444,0,0)" xlink:href="#ax"/><use transform="matrix(0.010850694444444444,0,0,0.010850694444444444,13.140190972222221,0)" xlink:href="#av"/><use transform="matrix(0.010850694444444444,0,0,0.010850694444444444,24.869791666666664,0)" xlink:href="#am"/></g><path d="M180 0v-1490h510c348 0 508 194 508 460 0 198-88 351-276 417L1256 0h-220L726-579c-117 2-238 0-356 1V0H180zm190-747h312c235 0 327-108 327-283 0-177-92-293-329-293H370v576" id="aM"/><path d="M158 0v-1118h175l1 205c55-151 181-225 313-225 147 0 245 90 285 228 53-141 190-228 352-228 194 0 352 125 352 384V0h-181v-749c0-161-105-225-225-225-151 0-243 103-243 244V0H807v-767c0-124-93-207-219-207-131 0-250 92-250 270V0H158" id="aN"/><g id="A"><use transform="matrix(0.010850694444444444,0,0,0.010850694444444444,0,0)" xlink:href="#aM"/><use transform="matrix(0.010850694444444444,0,0,0.010850694444444444,13.975694444444445,0)" xlink:href="#az"/><use transform="matrix(0.010850694444444444,0,0,0.010850694444444444,27.30034722222222,0)" xlink:href="#aN"/><use transform="matrix(0.010850694444444444,0,0,0.010850694444444444,46.76649305555556,0)" xlink:href="#an"/><use transform="matrix(0.010850694444444444,0,0,0.010850694444444444,59.24479166666667,0)" xlink:href="#as"/></g><g id="B"><use transform="matrix(0.010850694444444444,0,0,0.010850694444444444,0,0)" xlink:href="#as"/><use transform="matrix(0.010850694444444444,0,0,0.010850694444444444,13.129340277777777,0)" xlink:href="#ax"/><use transform="matrix(0.010850694444444444,0,0,0.010850694444444444,26.26953125,0)" xlink:href="#aN"/><use transform="matrix(0.010850694444444444,0,0,0.010850694444444444,45.73567708333333,0)" xlink:href="#am"/><use transform="matrix(0.010850694444444444,0,0,0.010850694444444444,58.691406249999986,0)" xlink:href="#ao"/><use transform="matrix(0.010850694444444444,0,0,0.010850694444444444,67.05729166666666,0)" xlink:href="#an"/><use transform="matrix(0.010850694444444444,0,0,0.010850694444444444,79.53559027777777,0)" xlink:href="#aL"/><use transform="matrix(0.010850694444444444,0,0,0.010850694444444444,84.91753472222221,0)" xlink:href="#av"/></g><g id="C"><use transform="matrix(0.010850694444444444,0,0,0.010850694444444444,0,0)" xlink:href="#at"/><use transform="matrix(0.010850694444444444,0,0,0.010850694444444444,7.052951388888888,0)" xlink:href="#az"/></g><path d="M613 24c-304 0-509-231-509-576 0-350 205-580 509-580 216 0 392 114 453 309l-173 49c-33-115-133-197-280-197-223 0-326 196-326 419 0 220 103 415 326 415 150 0 252-85 285-206l172 49C1010-95 832 24 613 24" id="aO"/><g id="D"><use transform="matrix(0.010850694444444444,0,0,0.010850694444444444,0,0)" xlink:href="#aq"/><use transform="matrix(0.010850694444444444,0,0,0.010850694444444444,5.381944444444445,0)" xlink:href="#as"/><use transform="matrix(0.010850694444444444,0,0,0.010850694444444444,18.51128472222222,0)" xlink:href="#aA"/><use transform="matrix(0.010850694444444444,0,0,0.010850694444444444,32.11805555555556,0)" xlink:href="#aq"/><use transform="matrix(0.010850694444444444,0,0,0.010850694444444444,37.5,0)" xlink:href="#aO"/><use transform="matrix(0.010850694444444444,0,0,0.010850694444444444,50.412326388888886,0)" xlink:href="#an"/><use transform="matrix(0.010850694444444444,0,0,0.010850694444444444,62.890625,0)" xlink:href="#at"/><use transform="matrix(0.010850694444444444,0,0,0.010850694444444444,69.94357638888889,0)" xlink:href="#am"/></g><g id="E"><use transform="matrix(0.010850694444444444,0,0,0.010850694444444444,0,0)" xlink:href="#at"/><use transform="matrix(0.010850694444444444,0,0,0.010850694444444444,7.269965277777778,0)" xlink:href="#au"/><use transform="matrix(0.010850694444444444,0,0,0.010850694444444444,20.41015625,0)" xlink:href="#am"/></g><g id="F"><use transform="matrix(0.010850694444444444,0,0,0.010850694444444444,0,0)" xlink:href="#az"/><use transform="matrix(0.010850694444444444,0,0,0.010850694444444444,13.324652777777777,0)" xlink:href="#ao"/><use transform="matrix(0.010850694444444444,0,0,0.010850694444444444,21.321614583333332,0)" xlink:href="#aA"/><use transform="matrix(0.010850694444444444,0,0,0.010850694444444444,34.928385416666664,0)" xlink:href="#am"/><use transform="matrix(0.010850694444444444,0,0,0.010850694444444444,47.88411458333333,0)" xlink:href="#ao"/></g><path d="M678-1118v154H420V0H240v-964H20v-154h220v-149c0-194 155-293 318-293 85 0 141 18 168 30l-50 154c-19-6-47-17-97-17-111 0-159 58-159 166v109h258" id="aP"/><g id="G"><use transform="matrix(0.010850694444444444,0,0,0.010850694444444444,0,0)" xlink:href="#az"/><use transform="matrix(0.010850694444444444,0,0,0.010850694444444444,13.324652777777777,0)" xlink:href="#aP"/></g><g id="H"><use transform="matrix(0.010850694444444444,0,0,0.010850694444444444,0,0)" xlink:href="#ay"/><use transform="matrix(0.010850694444444444,0,0,0.010850694444444444,13.606770833333332,0)" xlink:href="#ao"/><use transform="matrix(0.010850694444444444,0,0,0.010850694444444444,21.603732638888886,0)" xlink:href="#az"/><use transform="matrix(0.010850694444444444,0,0,0.010850694444444444,34.928385416666664,0)" xlink:href="#aO"/><use transform="matrix(0.010850694444444444,0,0,0.010850694444444444,47.623697916666664,0)" xlink:href="#am"/><use transform="matrix(0.010850694444444444,0,0,0.010850694444444444,60.57942708333333,0)" xlink:href="#av"/><use transform="matrix(0.010850694444444444,0,0,0.010850694444444444,72.30902777777777,0)" xlink:href="#av"/><use transform="matrix(0.010850694444444444,0,0,0.010850694444444444,84.03862847222221,0)" xlink:href="#aq"/><use transform="matrix(0.010850694444444444,0,0,0.010850694444444444,89.42057291666666,0)" xlink:href="#as"/><use transform="matrix(0.010850694444444444,0,0,0.010850694444444444,102.54991319444441,0)" xlink:href="#ap"/></g><path d="M295 13c-75 0-135-60-135-135s60-135 135-135 135 60 135 135S370 13 295 13" id="aQ"/><g id="I"><use transform="matrix(0.010850694444444444,0,0,0.010850694444444444,0,0)" xlink:href="#as"/><use transform="matrix(0.010850694444444444,0,0,0.010850694444444444,13.129340277777777,0)" xlink:href="#az"/><use transform="matrix(0.010850694444444444,0,0,0.010850694444444444,26.453993055555554,0)" xlink:href="#aA"/><use transform="matrix(0.010850694444444444,0,0,0.010850694444444444,40.060763888888886,0)" xlink:href="#am"/><use transform="matrix(0.010850694444444444,0,0,0.010850694444444444,53.01649305555556,0)" xlink:href="#av"/><use transform="matrix(0.010850694444444444,0,0,0.010850694444444444,64.74609375,0)" xlink:href="#aQ"/></g><path d="M202-1349h823v156H709v1037h316V0H202v-156h316v-1037H202v-156" id="aR"/><use transform="matrix(0.010850694444444444,0,0,0.010850694444444444,0,0)" xlink:href="#aR" id="J"/><g id="K"><use transform="matrix(0.010850694444444444,0,0,0.010850694444444444,0,0)" xlink:href="#aR"/><use transform="matrix(0.010850694444444444,0,0,0.010850694444444444,13.335503472222221,0)" xlink:href="#aR"/></g><g id="L"><use transform="matrix(0.010850694444444444,0,0,0.010850694444444444,0,0)" xlink:href="#aR"/><use transform="matrix(0.010850694444444444,0,0,0.010850694444444444,13.335503472222221,0)" xlink:href="#aR"/><use transform="matrix(0.010850694444444444,0,0,0.010850694444444444,26.671006944444443,0)" xlink:href="#aR"/></g><path d="M713 0H515L10-1349h201C345-955 498-579 615-168c116-411 269-787 402-1181h201" id="aS"/><g id="M"><use transform="matrix(0.010850694444444444,0,0,0.010850694444444444,0,0)" xlink:href="#aR"/><use transform="matrix(0.010850694444444444,0,0,0.010850694444444444,13.335503472222221,0)" xlink:href="#aS"/></g><use transform="matrix(0.010850694444444444,0,0,0.010850694444444444,0,0)" xlink:href="#aS" id="N"/><g id="O"><use transform="matrix(0.010850694444444444,0,0,0.010850694444444444,0,0)" xlink:href="#aS"/><use transform="matrix(0.010850694444444444,0,0,0.010850694444444444,13.335503472222221,0)" xlink:href="#aR"/></g><path d="M226 279v-1860h398v153H398V126h226v153H226" id="aT"/><path d="M646 20c-332 0-524-278-524-764 0-483 194-766 524-766s524 283 524 766c0 485-191 764-524 764zm0-166c218 0 341-220 341-598 0-380-123-601-341-601s-341 222-341 601c0 378 123 598 341 598" id="aU"/><path d="M123 279V126h226v-1554H123v-153h398V279H123" id="aV"/><g id="P"><use transform="matrix(0.010850694444444444,0,0,0.010850694444444444,0,0)" xlink:href="#ao"/><use transform="matrix(0.010850694444444444,0,0,0.010850694444444444,7.996961805555555,0)" xlink:href="#am"/><use transform="matrix(0.010850694444444444,0,0,0.010850694444444444,20.95269097222222,0)" xlink:href="#av"/><use transform="matrix(0.010850694444444444,0,0,0.010850694444444444,32.682291666666664,0)" xlink:href="#aT"/><use transform="matrix(0.010850694444444444,0,0,0.010850694444444444,40.787760416666664,0)" xlink:href="#aU"/><use transform="matrix(0.010850694444444444,0,0,0.010850694444444444,54.806857638888886,0)" xlink:href="#aV"/></g><path d="M226-283v-166h904v166H226zm0-434v-166h904v166H226" id="aW"/><use transform="matrix(0.010850694444444444,0,0,0.010850694444444444,0,0)" xlink:href="#aW" id="Q"/><path d="M65 0l393-574-370-544h210c88 136 192 297 267 435 67-142 176-302 264-435h206L661-564 1053 0H844c-94-144-206-310-287-458C484-308 366-142 273 0H65" id="aX"/><path d="M218-607c0-325 108-727 258-974h175c-155 315-250 682-250 974 0 265 78 531 250 886H476C306-10 218-315 218-607" id="aY"/><g id="R"><use transform="matrix(0.010850694444444444,0,0,0.010850694444444444,0,0)" xlink:href="#aN"/><use transform="matrix(0.010850694444444444,0,0,0.010850694444444444,19.466145833333332,0)" xlink:href="#an"/><use transform="matrix(0.010850694444444444,0,0,0.010850694444444444,31.944444444444443,0)" xlink:href="#aX"/><use transform="matrix(0.010850694444444444,0,0,0.010850694444444444,44.07552083333333,0)" xlink:href="#aY"/><use transform="matrix(0.010850694444444444,0,0,0.010850694444444444,52.18098958333333,0)" xlink:href="#ao"/><use transform="matrix(0.010850694444444444,0,0,0.010850694444444444,60.17795138888888,0)" xlink:href="#am"/><use transform="matrix(0.010850694444444444,0,0,0.010850694444444444,73.13368055555554,0)" xlink:href="#av"/><use transform="matrix(0.010850694444444444,0,0,0.010850694444444444,84.86328124999999,0)" xlink:href="#aT"/><use transform="matrix(0.010850694444444444,0,0,0.010850694444444444,92.96874999999997,0)" xlink:href="#aU"/><use transform="matrix(0.010850694444444444,0,0,0.010850694444444444,106.9878472222222,0)" xlink:href="#aV"/><use transform="matrix(0.010850694444444444,0,0,0.010850694444444444,115.0933159722222,0)" xlink:href="#aw"/></g><path d="M154 0v-137l495-537c165-179 249-281 249-418 0-156-121-253-280-253-170 0-278 110-278 278H158c0-264 200-443 465-443 266 0 455 183 455 416 0 161-73 288-336 568L416-179v12h687V0H154" id="aZ"/><use transform="matrix(0.010850694444444444,0,0,0.010850694444444444,0,0)" xlink:href="#aZ" id="S"/><path d="M593-100v-404H195v-159h398v-403h169v403h398v159H762v404H593" id="ba"/><use transform="matrix(0.010850694444444444,0,0,0.010850694444444444,0,0)" xlink:href="#ba" id="T"/><g id="U"><use transform="matrix(0.010850694444444444,0,0,0.010850694444444444,0,0)" xlink:href="#aL"/><use transform="matrix(0.010850694444444444,0,0,0.010850694444444444,5.381944444444445,0)" xlink:href="#am"/><use transform="matrix(0.010850694444444444,0,0,0.010850694444444444,18.33767361111111,0)" xlink:href="#aP"/><use transform="matrix(0.010850694444444444,0,0,0.010850694444444444,25.80295138888889,0)" xlink:href="#at"/></g><g id="V"><use transform="matrix(0.010850694444444444,0,0,0.010850694444444444,0,0)" xlink:href="#ao"/><use transform="matrix(0.010850694444444444,0,0,0.010850694444444444,8.713107638888888,0)" xlink:href="#aq"/><use transform="matrix(0.010850694444444444,0,0,0.010850694444444444,14.095052083333332,0)" xlink:href="#ap"/><use transform="matrix(0.010850694444444444,0,0,0.010850694444444444,27.723524305555554,0)" xlink:href="#au"/><use transform="matrix(0.010850694444444444,0,0,0.010850694444444444,40.86371527777777,0)" xlink:href="#at"/></g><path d="M653-1490V0H466v-1314h-10L96-1047v-204l324-239h233" id="bb"/><use transform="matrix(0.010850694444444444,0,0,0.010850694444444444,0,0)" xlink:href="#bb" id="W"/><path d="M180 0v-1490h190v1322h690V0H180" id="bc"/><g id="X"><use transform="matrix(0.010850694444444444,0,0,0.010850694444444444,0,0)" xlink:href="#aN"/><use transform="matrix(0.010850694444444444,0,0,0.010850694444444444,19.466145833333332,0)" xlink:href="#an"/><use transform="matrix(0.010850694444444444,0,0,0.010850694444444444,31.944444444444443,0)" xlink:href="#aX"/><use transform="matrix(0.010850694444444444,0,0,0.010850694444444444,44.07552083333333,0)" xlink:href="#aY"/><use transform="matrix(0.010850694444444444,0,0,0.010850694444444444,52.18098958333333,0)" xlink:href="#bc"/><use transform="matrix(0.010850694444444444,0,0,0.010850694444444444,64.74609375,0)" xlink:href="#aw"/></g><path d="M96 279C273-86 346-350 346-607c0-292-95-659-250-974h175c150 246 258 650 258 974 0 297-91 602-258 886H96" id="bd"/><g id="Y"><use transform="matrix(0.010850694444444444,0,0,0.010850694444444444,0,0)" xlink:href="#aM"/><use transform="matrix(0.010850694444444444,0,0,0.010850694444444444,14.301215277777777,0)" xlink:href="#bd"/></g><use transform="matrix(0.010850694444444444,0,0,0.010850694444444444,0,0)" xlink:href="#ba" id="Z"/><path d="M798-719v166H144v-166h654" id="be"/><g id="aa"><use transform="matrix(0.010850694444444444,0,0,0.010850694444444444,0,0)" xlink:href="#aN"/><use transform="matrix(0.010850694444444444,0,0,0.010850694444444444,19.466145833333332,0)" xlink:href="#an"/><use transform="matrix(0.010850694444444444,0,0,0.010850694444444444,31.944444444444443,0)" xlink:href="#aX"/><use transform="matrix(0.010850694444444444,0,0,0.010850694444444444,44.07552083333333,0)" xlink:href="#aY"/><use transform="matrix(0.010850694444444444,0,0,0.010850694444444444,52.18098958333333,0)" xlink:href="#be"/><use transform="matrix(0.010850694444444444,0,0,0.010850694444444444,62.40234375,0)" xlink:href="#bb"/><use transform="matrix(0.010850694444444444,0,0,0.010850694444444444,71.44097222222221,0)" xlink:href="#aw"/></g><g id="ab"><use transform="matrix(0.010850694444444444,0,0,0.010850694444444444,0,0)" xlink:href="#be"/><use transform="matrix(0.010850694444444444,0,0,0.010850694444444444,10.221354166666666,0)" xlink:href="#bb"/><use transform="matrix(0.010850694444444444,0,0,0.010850694444444444,19.259982638888886,0)" xlink:href="#bd"/></g></defs></g></svg>