<svg xmlns="http://www.w3.org/2000/svg" xmlns:xlink="http://www.w3.org/1999/xlink" xmlns:lucid="lucid" width="722" height="992"><g transform="translate(-139 -99)" lucid:page-tab-id="0_0"><path d="M220 260c0 22.1-17.9 40-40 40s-40-17.9-40-40 17.9-40 40-40 40 17.9 40 40z" stroke="#3a414a" stroke-width="2"/><use xlink:href="#a" transform="matrix(1,0,0,1,145,225) translate(30.48568576388889 30.27777777777778)"/><use xlink:href="#b" transform="matrix(1,0,0,1,145,225) translate(18.701831597222217 57.165798611111114)"/><use xlink:href="#c" transform="matrix(1,0,0,1,145,225) translate(43.08334201388889 57.165798611111114)"/><path d="M223 260h53.26" stroke="#3a414a" stroke-width="4" fill="none"/><path d="M223.05 261.98h-2.17L221 260l-.07-1.98h2.12z" stroke="#3a414a" stroke-width=".05" fill="#3a414a"/><path d="M292.53 260l-14.27 4.63v-9.26z" stroke="#3a414a" stroke-width="4" fill="#3a414a"/><path d="M380 260c0 22.1-17.9 40-40 40s-40-17.9-40-40 17.9-40 40-40 40 17.9 40 40z" stroke="#3a414a" stroke-width="2"/><use xlink:href="#d" transform="matrix(1,0,0,1,305,225) translate(28.223741319444443 43.40277777777778)"/><path d="M383 260h53.26" stroke="#3a414a" stroke-width="4" fill="none"/><path d="M383.05 261.98h-2.17L381 260l-.07-1.98h2.12z" stroke="#3a414a" stroke-width=".05" fill="#3a414a"/><path d="M452.53 260l-14.27 4.63v-9.26z" stroke="#3a414a" stroke-width="4" fill="#3a414a"/><path d="M540 260c0 22.1-17.9 40-40 40s-40-17.9-40-40 17.9-40 40-40 40 17.9 40 40z" stroke="#3a414a" stroke-width="2" fill="#6f7681"/><use xlink:href="#e" transform="matrix(1,0,0,1,465,225) translate(28.13693576388889 43.40277777777778)"/><path d="M543 260h53.26" stroke="#3a414a" stroke-width="4" fill="none"/><path d="M543.05 261.98h-2.17L541 260l-.07-1.98h2.12z" stroke="#3a414a" stroke-width=".05" fill="#3a414a"/><path d="M612.53 260l-14.27 4.63v-9.26z" stroke="#3a414a" stroke-width="4" fill="#3a414a"/><path d="M700 260c0 22.1-17.9 40-40 40s-40-17.9-40-40 17.9-40 40-40 40 17.9 40 40z" stroke="#3a414a" stroke-width="2"/><use xlink:href="#f" transform="matrix(1,0,0,1,625,225) translate(27.822265625 43.40277777777778)"/><path d="M703 260h53.26" stroke="#3a414a" stroke-width="4" fill="none"/><path d="M703.05 261.98h-2.17L701 260l-.07-1.98h2.12z" stroke="#3a414a" stroke-width=".05" fill="#3a414a"/><path d="M772.53 260l-14.27 4.63v-9.26z" stroke="#3a414a" stroke-width="4" fill="#3a414a"/><path d="M860 260c0 22.1-17.9 40-40 40s-40-17.9-40-40 17.9-40 40-40 40 17.9 40 40z" stroke="#3a414a" stroke-width="2"/><use xlink:href="#g" transform="matrix(1,0,0,1,785,225) translate(28.245442708333336 43.40277777777778)"/><path d="M220 800c0 22.1-17.9 40-40 40s-40-17.9-40-40 17.9-40 40-40 40 17.9 40 40z" stroke="#3a414a" stroke-width="2"/><use xlink:href="#a" transform="matrix(1,0,0,1,145,765) translate(30.48568576388889 30.27777777777778)"/><use xlink:href="#b" transform="matrix(1,0,0,1,145,765) translate(18.701831597222217 57.165798611111114)"/><use xlink:href="#c" transform="matrix(1,0,0,1,145,765) translate(43.08334201388889 57.165798611111114)"/><path d="M223 800h53.26" stroke="#3a414a" stroke-width="4" fill="none"/><path d="M223.05 801.98h-2.17L221 800l-.07-1.98h2.12z" stroke="#3a414a" stroke-width=".05" fill="#3a414a"/><path d="M292.53 800l-14.27 4.63v-9.26z" stroke="#3a414a" stroke-width="4" fill="#3a414a"/><path d="M380 800c0 22.1-17.9 40-40 40s-40-17.9-40-40 17.9-40 40-40 40 17.9 40 40z" stroke="#3a414a" stroke-width="2"/><use xlink:href="#d" transform="matrix(1,0,0,1,305,765) translate(28.223741319444443 43.40277777777778)"/><path d="M383 800h53.26" stroke="#3a414a" stroke-width="4" fill="none"/><path d="M383.05 801.98h-2.17L381 800l-.07-1.98h2.12z" stroke="#3a414a" stroke-width=".05" fill="#3a414a"/><path d="M452.53 800l-14.27 4.63v-9.26z" stroke="#3a414a" stroke-width="4" fill="#3a414a"/><path d="M540 800c0 22.1-17.9 40-40 40s-40-17.9-40-40 17.9-40 40-40 40 17.9 40 40z" stroke="#3a414a" stroke-width="2" fill="#6f7681"/><use xlink:href="#e" transform="matrix(1,0,0,1,465,765) translate(28.13693576388889 43.40277777777778)"/><path d="M543 800h53.26" stroke="#3a414a" stroke-width="4" fill="none"/><path d="M543.05 801.98h-2.17L541 800l-.07-1.98h2.12z" stroke="#3a414a" stroke-width=".05" fill="#3a414a"/><path d="M612.53 800l-14.27 4.63v-9.26z" stroke="#3a414a" stroke-width="4" fill="#3a414a"/><path d="M700 800c0 22.1-17.9 40-40 40s-40-17.9-40-40 17.9-40 40-40 40 17.9 40 40z" stroke="#3a414a" stroke-width="2"/><use xlink:href="#f" transform="matrix(1,0,0,1,625,765) translate(27.822265625 43.40277777777778)"/><path d="M220 410c0 22.1-17.9 40-40 40s-40-17.9-40-40 17.9-40 40-40 40 17.9 40 40z" stroke="#3a414a" stroke-width="2"/><use xlink:href="#h" transform="matrix(1,0,0,1,145,375) translate(30.48068576388889 43.40277777777778)"/><path d="M223 410h53.26" stroke="#3a414a" stroke-width="4" fill="none"/><path d="M223.05 411.98h-2.17L221 410l-.07-1.98h2.12z" stroke="#3a414a" stroke-width=".05" fill="#3a414a"/><path d="M292.53 410l-14.27 4.63v-9.26z" stroke="#3a414a" stroke-width="4" fill="#3a414a"/><path d="M380 410c0 22.1-17.9 40-40 40s-40-17.9-40-40 17.9-40 40-40 40 17.9 40 40z" stroke="#3a414a" stroke-width="2"/><use xlink:href="#i" transform="matrix(1,0,0,1,305,375) translate(28.228741319444445 30.27777777777778)"/><use xlink:href="#j" transform="matrix(1,0,0,1,305,375) translate(29.140199652777774 57.165798611111114)"/><path d="M383 410h53.26" stroke="#3a414a" stroke-width="4" fill="none"/><path d="M383.05 411.98h-2.17L381 410l-.07-1.98h2.12z" stroke="#3a414a" stroke-width=".05" fill="#3a414a"/><path d="M452.53 410l-14.27 4.63v-9.26z" stroke="#3a414a" stroke-width="4" fill="#3a414a"/><path d="M540 410c0 22.1-17.9 40-40 40s-40-17.9-40-40 17.9-40 40-40 40 17.9 40 40z" stroke="#3a414a" stroke-width="2" fill="#6f7681"/><use xlink:href="#k" transform="matrix(1,0,0,1,465,375) translate(28.14193576388889 30.27777777777778)"/><use xlink:href="#l" transform="matrix(1,0,0,1,465,375) translate(30.892586805555553 57.165798611111114)"/><path d="M543 410h53.26" stroke="#3a414a" stroke-width="4" fill="none"/><path d="M543.05 411.98h-2.17L541 410l-.07-1.98h2.12z" stroke="#3a414a" stroke-width=".05" fill="#3a414a"/><path d="M612.53 410l-14.27 4.63v-9.26z" stroke="#3a414a" stroke-width="4" fill="#3a414a"/><path d="M700 410c0 22.1-17.9 40-40 40s-40-17.9-40-40 17.9-40 40-40 40 17.9 40 40z" stroke="#3a414a" stroke-width="2"/><use xlink:href="#f" transform="matrix(1,0,0,1,625,375) translate(27.822265625 43.40277777777778)"/><path d="M703 410h53.26" stroke="#3a414a" stroke-width="4" fill="none"/><path d="M703.05 411.98h-2.17L701 410l-.07-1.98h2.12z" stroke="#3a414a" stroke-width=".05" fill="#3a414a"/><path d="M772.53 410l-14.27 4.63v-9.26z" stroke="#3a414a" stroke-width="4" fill="#3a414a"/><path d="M860 410c0 22.1-17.9 40-40 40s-40-17.9-40-40 17.9-40 40-40 40 17.9 40 40z" stroke="#3a414a" stroke-width="2"/><use xlink:href="#g" transform="matrix(1,0,0,1,785,375) translate(28.245442708333336 43.40277777777778)"/><path d="M220 560c0 22.1-17.9 40-40 40s-40-17.9-40-40 17.9-40 40-40 40 17.9 40 40z" stroke="#3a414a" stroke-width="2"/><use xlink:href="#h" transform="matrix(1,0,0,1,145,525) translate(30.48068576388889 43.40277777777778)"/><path d="M223 560h53.26" stroke="#3a414a" stroke-width="4" fill="none"/><path d="M223.05 561.98h-2.17L221 560l-.07-1.98h2.12z" stroke="#3a414a" stroke-width=".05" fill="#3a414a"/><path d="M292.53 560l-14.27 4.63v-9.26z" stroke="#3a414a" stroke-width="4" fill="#3a414a"/><path d="M380 560c0 22.1-17.9 40-40 40s-40-17.9-40-40 17.9-40 40-40 40 17.9 40 40z" stroke="#3a414a" stroke-width="2"/><use xlink:href="#d" transform="matrix(1,0,0,1,305,525) translate(28.223741319444443 43.40277777777778)"/><path d="M383 560h53.26" stroke="#3a414a" stroke-width="4" fill="none"/><path d="M383.05 561.98h-2.17L381 560l-.07-1.98h2.12z" stroke="#3a414a" stroke-width=".05" fill="#3a414a"/><path d="M452.53 560l-14.27 4.63v-9.26z" stroke="#3a414a" stroke-width="4" fill="#3a414a"/><path d="M540 560c0 22.1-17.9 40-40 40s-40-17.9-40-40 17.9-40 40-40 40 17.9 40 40z" stroke="#3a414a" stroke-width="2" fill="#6f7681"/><use xlink:href="#k" transform="matrix(1,0,0,1,465,525) translate(28.14193576388889 30.27777777777778)"/><use xlink:href="#j" transform="matrix(1,0,0,1,465,525) translate(29.140199652777774 57.165798611111114)"/><path d="M543 560h53.26" stroke="#3a414a" stroke-width="4" fill="none"/><path d="M543.05 561.98h-2.17L541 560l-.07-1.98h2.12z" stroke="#3a414a" stroke-width=".05" fill="#3a414a"/><path d="M612.53 560l-14.27 4.63v-9.26z" stroke="#3a414a" stroke-width="4" fill="#3a414a"/><path d="M700 560c0 22.1-17.9 40-40 40s-40-17.9-40-40 17.9-40 40-40 40 17.9 40 40z" stroke="#3a414a" stroke-width="2"/><use xlink:href="#f" transform="matrix(1,0,0,1,625,525) translate(27.822265625 43.40277777777778)"/><path d="M703 560h53.26" stroke="#3a414a" stroke-width="4" fill="none"/><path d="M703.05 561.98h-2.17L701 560l-.07-1.98h2.12z" stroke="#3a414a" stroke-width=".05" fill="#3a414a"/><path d="M772.53 560l-14.27 4.63v-9.26z" stroke="#3a414a" stroke-width="4" fill="#3a414a"/><path d="M860 560c0 22.1-17.9 40-40 40s-40-17.9-40-40 17.9-40 40-40 40 17.9 40 40z" stroke="#3a414a" stroke-width="2"/><use xlink:href="#m" transform="matrix(1,0,0,1,785,525) translate(28.25044270833333 30.27777777777778)"/><use xlink:href="#l" transform="matrix(1,0,0,1,785,525) translate(30.892586805555553 57.165798611111114)"/><path d="M180 106a6 6 0 0 1 6-6h148a6 6 0 0 1 6 6v58a6 6 0 0 1-6 6H186a6 6 0 0 1-6-6z" stroke="#3a414a" stroke-width="2" fill="#fff"/><use xlink:href="#n" transform="matrix(1,0,0,1,192,112) translate(15.667100694444443 30.15277777777778)"/><use xlink:href="#o" transform="matrix(1,0,0,1,192,112) translate(111.29427083333333 30.15277777777778)"/><path d="M180 651a6 6 0 0 1 6-6h148a6 6 0 0 1 6 6v58a6 6 0 0 1-6 6H186a6 6 0 0 1-6-6z" stroke="#3a414a" stroke-width="2" fill="#fff"/><use xlink:href="#n" transform="matrix(1,0,0,1,192,657) translate(13.41015625 30.15277777777778)"/><use xlink:href="#p" transform="matrix(1,0,0,1,192,657) translate(109.03732638888889 30.15277777777778)"/><path d="M220 925c0 22.1-17.9 40-40 40s-40-17.9-40-40 17.9-40 40-40 40 17.9 40 40z" stroke="#3a414a" stroke-width="2"/><use xlink:href="#h" transform="matrix(1,0,0,1,145,890) translate(30.48068576388889 43.40277777777778)"/><path d="M223 925h53.26" stroke="#3a414a" stroke-width="4" fill="none"/><path d="M223.05 926.98h-2.17L221 925l-.07-1.98h2.12z" stroke="#3a414a" stroke-width=".05" fill="#3a414a"/><path d="M292.53 925l-14.27 4.63v-9.26z" stroke="#3a414a" stroke-width="4" fill="#3a414a"/><path d="M380 925c0 22.1-17.9 40-40 40s-40-17.9-40-40 17.9-40 40-40 40 17.9 40 40z" stroke="#3a414a" stroke-width="2"/><use xlink:href="#i" transform="matrix(1,0,0,1,305,890) translate(28.228741319444445 30.27777777777778)"/><use xlink:href="#j" transform="matrix(1,0,0,1,305,890) translate(29.140199652777774 57.165798611111114)"/><path d="M383 925h53.26" stroke="#3a414a" stroke-width="4" fill="none"/><path d="M383.05 926.98h-2.17L381 925l-.07-1.98h2.12z" stroke="#3a414a" stroke-width=".05" fill="#3a414a"/><path d="M452.53 925l-14.27 4.63v-9.26z" stroke="#3a414a" stroke-width="4" fill="#3a414a"/><path d="M540 925c0 22.1-17.9 40-40 40s-40-17.9-40-40 17.9-40 40-40 40 17.9 40 40z" stroke="#3a414a" stroke-width="2" fill="#6f7681"/><use xlink:href="#k" transform="matrix(1,0,0,1,465,890) translate(28.14193576388889 30.27777777777778)"/><use xlink:href="#l" transform="matrix(1,0,0,1,465,890) translate(30.892586805555553 57.165798611111114)"/><path d="M543 925h53.26" stroke="#3a414a" stroke-width="4" fill="none"/><path d="M543.05 926.98h-2.17L541 925l-.07-1.98h2.12z" stroke="#3a414a" stroke-width=".05" fill="#3a414a"/><path d="M612.53 925l-14.27 4.63v-9.26z" stroke="#3a414a" stroke-width="4" fill="#3a414a"/><path d="M700 925c0 22.1-17.9 40-40 40s-40-17.9-40-40 17.9-40 40-40 40 17.9 40 40z" stroke="#3a414a" stroke-width="2"/><use xlink:href="#f" transform="matrix(1,0,0,1,625,890) translate(27.822265625 43.40277777777778)"/><path d="M220 1050c0 22.1-17.9 40-40 40s-40-17.9-40-40 17.9-40 40-40 40 17.9 40 40z" stroke="#3a414a" stroke-width="2"/><use xlink:href="#h" transform="matrix(1,0,0,1,145,1015) translate(30.48068576388889 43.40277777777778)"/><path d="M223 1050h53.26" stroke="#3a414a" stroke-width="4" fill="none"/><path d="M223.05 1051.97h-2.17l.12-1.96-.07-1.97h2.12z" stroke="#3a414a" stroke-width=".05" fill="#3a414a"/><path d="M292.53 1050l-14.27 4.63v-9.27z" stroke="#3a414a" stroke-width="4" fill="#3a414a"/><path d="M380 1050c0 22.1-17.9 40-40 40s-40-17.9-40-40 17.9-40 40-40 40 17.9 40 40z" stroke="#3a414a" stroke-width="2"/><use xlink:href="#d" transform="matrix(1,0,0,1,305,1015) translate(28.223741319444443 43.40277777777778)"/><path d="M383 1050h53.26" stroke="#3a414a" stroke-width="4" fill="none"/><path d="M383.05 1051.97h-2.17l.12-1.96-.07-1.97h2.12z" stroke="#3a414a" stroke-width=".05" fill="#3a414a"/><path d="M452.53 1050l-14.27 4.63v-9.27z" stroke="#3a414a" stroke-width="4" fill="#3a414a"/><path d="M540 1050c0 22.1-17.9 40-40 40s-40-17.9-40-40 17.9-40 40-40 40 17.9 40 40z" stroke="#3a414a" stroke-width="2" fill="#6f7681"/><g><use xlink:href="#k" transform="matrix(1,0,0,1,465,1015) translate(28.14193576388889 30.27777777777778)"/><use xlink:href="#j" transform="matrix(1,0,0,1,465,1015) translate(29.140199652777774 57.165798611111114)"/></g><path d="M543 1050h53.26" stroke="#3a414a" stroke-width="4" fill="none"/><path d="M543.05 1051.97h-2.17l.12-1.96-.07-1.97h2.12z" stroke="#3a414a" stroke-width=".05" fill="#3a414a"/><path d="M612.53 1050l-14.27 4.63v-9.27z" stroke="#3a414a" stroke-width="4" fill="#3a414a"/><path d="M700 1050c0 22.1-17.9 40-40 40s-40-17.9-40-40 17.9-40 40-40 40 17.9 40 40z" stroke="#3a414a" stroke-width="2"/><g><use xlink:href="#f" transform="matrix(1,0,0,1,625,1015) translate(27.822265625 43.40277777777778)"/></g><path d="M703 1050h53.26" stroke="#3a414a" stroke-width="4" fill="none"/><path d="M703.05 1051.97h-2.17l.12-1.96-.07-1.97h2.12z" stroke="#3a414a" stroke-width=".05" fill="#3a414a"/><path d="M772.53 1050l-14.27 4.63v-9.27z" stroke="#3a414a" stroke-width="4" fill="#3a414a"/><path d="M860 1050c0 22.1-17.9 40-40 40s-40-17.9-40-40 17.9-40 40-40 40 17.9 40 40z" stroke="#3a414a" stroke-width="2"/><g><use xlink:href="#q" transform="matrix(1,0,0,1,785,1015) translate(16.48828993055556 30.27777777777778)"/><use xlink:href="#l" transform="matrix(1,0,0,1,785,1015) translate(30.892586805555553 57.165798611111114)"/></g><defs><path fill="#fff" d="M653-1490V0H466v-1314h-10L96-1047v-204l324-239h233" id="r"/><use transform="matrix(0.010850694444444444,0,0,0.010850694444444444,0,0)" xlink:href="#r" id="a"/><path fill="#fff" d="M538 24C308 24 148-78 108-271l171-41c32 123 123 178 257 178 156 0 256-77 256-169 0-77-54-128-164-154l-186-44c-203-48-300-148-300-305 0-192 176-326 414-326 230 0 351 112 402 269l-163 42c-31-80-94-158-238-158-133 0-233 69-233 162 0 83 57 129 188 160l169 40c203 48 298 149 298 302 0 196-179 339-441 339" id="s"/><path fill="#fff" d="M128 359l88-567h206L266 359H128" id="t"/><g id="b"><use transform="matrix(0.010850694444444444,0,0,0.010850694444444444,0,0)" xlink:href="#s"/><use transform="matrix(0.010850694444444444,0,0,0.010850694444444444,11.729600694444445,0)" xlink:href="#t"/></g><path fill="#fff" d="M678-1118v154H420V0H240v-964H20v-154h220v-149c0-194 155-293 318-293 85 0 141 18 168 30l-50 154c-19-6-47-17-97-17-111 0-159 58-159 166v109h258" id="u"/><use transform="matrix(0.010850694444444444,0,0,0.010850694444444444,0,0)" xlink:href="#u" id="c"/><path fill="#fff" d="M154 0v-137l495-537c165-179 249-281 249-418 0-156-121-253-280-253-170 0-278 110-278 278H158c0-264 200-443 465-443 266 0 455 183 455 416 0 161-73 288-336 568L416-179v12h687V0H154" id="v"/><use transform="matrix(0.010850694444444444,0,0,0.010850694444444444,0,0)" xlink:href="#v" id="d"/><path fill="#fff" d="M635 20c-292 0-500-160-510-396h192c11 142 145 229 315 229 187 0 323-105 323-260 0-161-125-274-346-274H488v-165h121c174 0 294-100 294-254 0-148-104-245-266-245-152 0-291 85-297 230H157c8-234 222-395 484-395 278 0 448 188 448 400 0 168-95 291-247 336v12c190 31 301 169 301 357 0 244-216 425-508 425" id="w"/><use transform="matrix(0.010850694444444444,0,0,0.010850694444444444,0,0)" xlink:href="#w" id="e"/><path fill="#fff" d="M120-303v-155l652-1032h231v1020h202v167h-202V0H821v-303H120zm702-167v-782h-12L323-482v12h499" id="x"/><use transform="matrix(0.010850694444444444,0,0,0.010850694444444444,0,0)" xlink:href="#x" id="f"/><path fill="#fff" d="M626 20c-262 0-458-168-468-396h184c12 133 134 229 284 229 180 0 311-137 311-326 0-192-136-335-323-335-92 0-196 33-255 78l-178-22 88-738h784v167H429l-51 435h8c61-51 160-87 263-87 273 0 474 211 474 499 0 286-210 496-497 496" id="y"/><use transform="matrix(0.010850694444444444,0,0,0.010850694444444444,0,0)" xlink:href="#y" id="g"/><use transform="matrix(0.010850694444444444,0,0,0.010850694444444444,0,0)" xlink:href="#r" id="h"/><use transform="matrix(0.010850694444444444,0,0,0.010850694444444444,0,0)" xlink:href="#v" id="i"/><use transform="matrix(0.010850694444444444,0,0,0.010850694444444444,0,0)" xlink:href="#s" id="j"/><use transform="matrix(0.010850694444444444,0,0,0.010850694444444444,0,0)" xlink:href="#w" id="k"/><use transform="matrix(0.010850694444444444,0,0,0.010850694444444444,0,0)" xlink:href="#u" id="l"/><use transform="matrix(0.010850694444444444,0,0,0.010850694444444444,0,0)" xlink:href="#y" id="m"/><path d="M180 0v-1490h908v168H370v486h669v168H370v500h727V0H180" id="z"/><path d="M65 0l393-574-370-544h210c88 136 192 297 267 435 67-142 176-302 264-435h206L661-564 1053 0H844c-94-144-206-310-287-458C484-308 366-142 273 0H65" id="A"/><path d="M471 26C259 26 90-98 90-318c0-256 228-303 435-329 202-27 287-16 287-108 0-139-79-219-234-219-161 0-248 86-283 164l-173-57c86-203 278-265 451-265 150 0 419 46 419 395V0H815v-152h-12C765-73 660 26 471 26zm31-159c199 0 310-134 310-271v-155c-30 35-226 55-295 64-131 17-246 59-246 186 0 116 97 176 231 176" id="B"/><path d="M158 0v-1118h175l1 205c55-151 181-225 313-225 147 0 245 90 285 228 53-141 190-228 352-228 194 0 352 125 352 384V0h-181v-749c0-161-105-225-225-225-151 0-243 103-243 244V0H807v-767c0-124-93-207-219-207-131 0-250 92-250 270V0H158" id="C"/><path d="M158 418v-1536h174v179h20c37-59 106-193 324-193 279 0 474 222 474 576 0 356-194 580-473 580-213 0-288-135-325-197h-14v591H158zm492-555c209 0 317-186 317-421 0-232-105-413-317-413-206 0-314 166-314 413 0 249 111 421 314 421" id="D"/><path d="M338-1490V0H158v-1490h180" id="E"/><path d="M628 24c-324 0-524-230-524-574 0-343 198-582 503-582 237 0 487 146 487 559v75H286c9 234 145 362 343 362 132 0 231-58 273-172l174 48C1024-91 857 24 628 24zM287-650h624c-17-190-120-322-304-322-192 0-309 151-320 322" id="F"/><g id="n"><use transform="matrix(0.010850694444444444,0,0,0.010850694444444444,0,0)" xlink:href="#z"/><use transform="matrix(0.010850694444444444,0,0,0.010850694444444444,13.35720486111111,0)" xlink:href="#A"/><use transform="matrix(0.010850694444444444,0,0,0.010850694444444444,25.48828125,0)" xlink:href="#B"/><use transform="matrix(0.010850694444444444,0,0,0.010850694444444444,37.966579861111114,0)" xlink:href="#C"/><use transform="matrix(0.010850694444444444,0,0,0.010850694444444444,57.43272569444444,0)" xlink:href="#D"/><use transform="matrix(0.010850694444444444,0,0,0.010850694444444444,71.03949652777777,0)" xlink:href="#E"/><use transform="matrix(0.010850694444444444,0,0,0.010850694444444444,76.42144097222221,0)" xlink:href="#F"/></g><path d="M653-1490V0H466v-1314h-10L96-1047v-204l324-239h233" id="G"/><use transform="matrix(0.010850694444444444,0,0,0.010850694444444444,0,0)" xlink:href="#G" id="o"/><path d="M154 0v-137l495-537c165-179 249-281 249-418 0-156-121-253-280-253-170 0-278 110-278 278H158c0-264 200-443 465-443 266 0 455 183 455 416 0 161-73 288-336 568L416-179v12h687V0H154" id="H"/><use transform="matrix(0.010850694444444444,0,0,0.010850694444444444,0,0)" xlink:href="#H" id="p"/><path fill="#fff" d="M338-670V0H158v-1118h173l1 207c72-158 192-221 342-221 226 0 378 139 378 422V0H872v-695c0-172-96-275-252-275-161 0-282 109-282 300" id="I"/><path fill="#fff" d="M537 14c-226 0-379-139-379-422v-710h180v695c0 172 97 275 253 275 160 0 281-109 281-300v-670h181V0H879v-209C806-46 684 14 537 14" id="J"/><path fill="#fff" d="M338-1490V0H158v-1490h180" id="K"/><g id="q"><use transform="matrix(0.010850694444444444,0,0,0.010850694444444444,0,0)" xlink:href="#I"/><use transform="matrix(0.010850694444444444,0,0,0.010850694444444444,13.129340277777777,0)" xlink:href="#J"/><use transform="matrix(0.010850694444444444,0,0,0.010850694444444444,26.26953125,0)" xlink:href="#K"/><use transform="matrix(0.010850694444444444,0,0,0.010850694444444444,31.651475694444443,0)" xlink:href="#K"/></g></defs></g></svg>