<svg xmlns="http://www.w3.org/2000/svg" xmlns:xlink="http://www.w3.org/1999/xlink" xmlns:lucid="lucid" width="389.83" height="637.97"><g transform="translate(-623.6666666666667 -199)" lucid:page-tab-id="0_0"><path d="M854.67 480c0 22.1-17.9 40-40 40s-40-17.9-40-40 17.9-40 40-40 40 17.9 40 40z" stroke="#000" stroke-width="3" fill="#fff"/><use xlink:href="#a" transform="matrix(1,0,0,1,779.6666666666667,445) translate(28.33224826388889 42.55208333333333)"/><path d="M814.67 523v28.73a6 6 0 0 1-6 6H746a6 6 0 0 0-6 6v9.62" stroke="#3a414a" stroke-width="3" fill="none"/><path d="M814.65 521.5l1.5-.05v1.6h-2.96v-1.64z" stroke="#3a414a" stroke-width=".05" fill="#3a414a"/><path d="M740 589.1l-4.63-14.25h9.26z" stroke="#3a414a" stroke-width="3" fill="#3a414a"/><path d="M780 635.47c0 22.1-17.9 40-40 40s-40-17.9-40-40 17.9-40 40-40 40 17.9 40 40z" stroke="#000" stroke-width="3" fill="#fff"/><use xlink:href="#b" transform="matrix(1,0,0,1,705,600.4666666666667) translate(28.33224826388889 42.55208333333333)"/><path d="M814.67 523v28.73a6 6 0 0 0 6 6H894a6 6 0 0 1 6 6v9.62" stroke="#3a414a" stroke-width="3" fill="none"/><path d="M814.65 521.5l1.5-.05v1.6h-2.96v-1.64z" stroke="#3a414a" stroke-width=".05" fill="#3a414a"/><path d="M900 589.1l-4.63-14.25h9.26z" stroke="#3a414a" stroke-width="3" fill="#3a414a"/><path d="M940 635.47c0 22.1-17.9 40-40 40s-40-17.9-40-40 17.9-40 40-40 40 17.9 40 40z" stroke="#000" stroke-width="3" fill="#fff"/><use xlink:href="#c" transform="matrix(1,0,0,1,865,600.4666666666667) translate(21.66449652777778 42.55208333333333)"/><path d="M900 678.47v31a6 6 0 0 1-6 6h-48a6 6 0 0 0-6 6v11.88" stroke="#3a414a" stroke-width="3" fill="none"/><path d="M899.98 676.97l1.5-.06v1.6h-2.96v-1.62z" stroke="#3a414a" stroke-width=".05" fill="#3a414a"/><path d="M840 749.1l-4.63-14.25h9.26z" stroke="#3a414a" stroke-width="3" fill="#3a414a"/><path d="M880 795.47c0 22.1-17.9 40-40 40s-40-17.9-40-40 17.9-40 40-40 40 17.9 40 40z" stroke="#000" stroke-width="3" fill="#fff"/><use xlink:href="#d" transform="matrix(1,0,0,1,805,760.4666666666667) translate(21.66449652777778 42.55208333333333)"/><path d="M900 678.47v31a6 6 0 0 0 6 6h48a6 6 0 0 1 6 6v11.88" stroke="#3a414a" stroke-width="3" fill="none"/><path d="M899.98 676.97l1.5-.06v1.6h-2.96v-1.62z" stroke="#3a414a" stroke-width=".05" fill="#3a414a"/><path d="M960 749.1l-4.63-14.25h9.26z" stroke="#3a414a" stroke-width="3" fill="#3a414a"/><path d="M1000 795.47c0 22.1-17.9 40-40 40s-40-17.9-40-40 17.9-40 40-40 40 17.9 40 40z" stroke="#000" stroke-width="3" fill="#fff"/><use xlink:href="#e" transform="matrix(1,0,0,1,925,760.4666666666667) translate(28.33224826388889 42.55208333333333)"/><path d="M734.67 206a6 6 0 0 1 6-6h148a6 6 0 0 1 6 6v68a6 6 0 0 1-6 6h-148a6 6 0 0 1-6-6z" stroke="#000" stroke-width="2" fill="#fff"/><use xlink:href="#f" transform="matrix(1,0,0,1,739.6666666666667,205) translate(14.990234374999986 42.55208333333333)"/><use xlink:href="#g" transform="matrix(1,0,0,1,739.6666666666667,205) translate(121.67426215277779 42.55208333333333)"/><path d="M624.67 320h84.68v40h-84.68zM709.35 320h60.63v40h-60.63zM769.98 320h60.63v40H770z" fill="#fff"/><path d="M830.6 320h60.64v40H830.6zM891.24 320h60.63v40h-60.63zM951.87 320h60.63v40h-60.63zM624.67 360h84.68v40h-84.68zM709.35 360h60.63v40h-60.63zM769.98 360h60.63v40H770z" fill="#fff"/><path d="M830.6 360h60.64v40H830.6zM891.24 360h60.63v40h-60.63zM951.87 360h60.63v40h-60.63z" fill="#fff"/><path d="M624.67 320v40M624.67 320h84.68M709.35 320v40M709.35 320h60.63M769.98 320v40M769.98 320h60.63M830.6 320v40M830.6 320h60.64M891.24 320v40M891.24 320h60.63M951.87 320v40M1012.5 320v40M951.87 320h60.63M624.67 360v40M624.67 360h84.68M624.67 400h84.68M709.35 360v40M709.35 360h60.63M709.35 400h60.63M769.98 360v40M769.98 360h60.63M769.98 400h60.63M830.6 360v40M830.6 360h60.64M830.6 400h60.64M891.24 360v40M891.24 360h60.63M891.24 400h60.63M951.87 360v40M1012.5 360v40M951.87 360h60.63M951.87 400h60.63" stroke="#000" stroke-width="2" fill="none"/><use xlink:href="#h" transform="matrix(1,0,0,1,629.6666666666667,325) translate(0.16059027777777146 19.74338107638889)"/><use xlink:href="#i" transform="matrix(1,0,0,1,714.3454861111112,325) translate(20.83257378472222 19.74338107638889)"/><use xlink:href="#j" transform="matrix(1,0,0,1,774.9762777819258,325) translate(20.83257378472222 19.74338107638889)"/><use xlink:href="#k" transform="matrix(1,0,0,1,835.6070694527402,325) translate(16.165147569444443 19.74338107638889)"/><use xlink:href="#l" transform="matrix(1,0,0,1,896.2378611235548,325) translate(16.165147569444443 19.74338107638889)"/><use xlink:href="#m" transform="matrix(1,0,0,1,956.8686527943694,325) translate(20.83257378472222 19.74338107638889)"/><use xlink:href="#n" transform="matrix(1,0,0,1,629.6666666666667,365) translate(4.82801649305555 19.74338107638889)"/><use xlink:href="#j" transform="matrix(1,0,0,1,714.3454861111112,365) translate(20.83257378472222 19.74338107638889)"/><use xlink:href="#i" transform="matrix(1,0,0,1,774.9762777819258,365) translate(20.83257378472222 19.74338107638889)"/><use xlink:href="#l" transform="matrix(1,0,0,1,835.6070694527402,365) translate(16.165147569444443 19.74338107638889)"/><use xlink:href="#k" transform="matrix(1,0,0,1,896.2378611235548,365) translate(16.165147569444443 19.74338107638889)"/><use xlink:href="#m" transform="matrix(1,0,0,1,956.8686527943694,365) translate(20.83257378472222 19.74338107638889)"/><defs><path d="M1060-1016c0 191-128 285-295 323v4c154 18 262 91 313 209 14 35 21 72 21 110 0 277-194 390-478 390-292 0-457-129-493-382l186-17c24 161 121 250 307 250 172 1 298-80 291-247-8-208-220-239-446-233v-156c217 9 409-34 409-232 0-152-102-225-264-225-159 0-264 88-278 233l-181-14c33-239 196-367 461-367 264 0 447 102 447 354" id="o"/><use transform="matrix(0.010850694444444444,0,0,0.010850694444444444,0,0)" xlink:href="#o" id="a"/><path d="M141-911c0-296 172-459 469-459 157 0 276 55 356 166s121 278 121 501c-1 324-87 567-297 677-134 70-367 56-475-22-71-52-117-126-145-226l172-27c34 111 103 176 238 176 187 0 261-138 304-298 16-65 24-141 25-227-59 121-177 199-350 199-275 0-418-184-418-460zm461 318c168 0 289-96 289-269 0-158-59-275-163-332-36-20-77-30-124-30-187 0-280 125-280 313s90 318 278 318" id="p"/><use transform="matrix(0.010850694444444444,0,0,0.010850694444444444,0,0)" xlink:href="#p" id="b"/><path d="M611-1370c266 0 451 106 451 368 0 147-77 243-154 327-132 144-316 255-451 395-42 44-75 87-96 134h723V0H144v-117c124-264 387-411 582-603 73-72 151-147 151-271 0-161-104-231-266-231-163 0-249 90-268 238l-184-17c35-233 185-369 452-369" id="q"/><path d="M1065-1013c47 164 49 500-1 665C999-130 875 20 611 20c-377 0-484-300-487-695-2-245 41-425 141-551 77-98 191-144 352-144 261 0 386 140 448 357zM741-155c199-92 203-504 159-785-26-168-96-284-283-284-281 0-308 256-311 549-2 181 18 324 80 428 46 77 115 118 227 120 47 0 90-10 128-28zM496-555v-249h235v249H496" id="r"/><g id="c"><use transform="matrix(0.010850694444444444,0,0,0.010850694444444444,0,0)" xlink:href="#q"/><use transform="matrix(0.010850694444444444,0,0,0.010850694444444444,13.335503472222221,0)" xlink:href="#r"/></g><path d="M148-1120c216-7 379-89 463-229h166v1204h353V0H157v-145h439v-1021c-79 124-254 184-448 194v-148" id="s"/><path d="M353-779c69-51 166-92 291-90 218 3 357 100 423 255 21 52 32 109 32 170 0 305-189 464-500 464-268 0-424-116-471-335l182-21c35 130 124 212 293 209 198-4 309-114 309-313 0-182-118-282-305-282-120 0-198 45-262 101H169l47-728h801v145H382" id="t"/><g id="d"><use transform="matrix(0.010850694444444444,0,0,0.010850694444444444,0,0)" xlink:href="#s"/><use transform="matrix(0.010850694444444444,0,0,0.010850694444444444,13.335503472222221,0)" xlink:href="#t"/></g><path d="M1069-1210C890-948 720-664 634-316c-25 105-38 210-38 316H408c9-385 153-667 302-925 57-98 120-190 185-279H158v-145h911v139" id="u"/><use transform="matrix(0.010850694444444444,0,0,0.010850694444444444,0,0)" xlink:href="#u" id="e"/><path d="M162 0v-1349h919v156H353v422h668v154H353v461h769V0H162" id="v"/><path d="M932 0L611-444 288 0H94l415-556-397-526h199l300 421 298-421h201L713-558 1133 0H932" id="w"/><path d="M1000-272c3 95 12 159 101 161 21 0 41-3 59-7V-6c-44 10-86 16-139 16-141 2-191-84-197-217h-6C748-76 648 20 446 20c-207 0-318-120-318-322 0-266 194-348 454-354l236-4c12-191-40-305-222-305-140 0-220 47-232 172l-188-17c33-204 181-292 423-292 255 0 401 118 401 364v466zm-683-27c0 109 63 184 175 182 166-3 259-96 306-217 24-65 20-120 20-200-232 7-501-28-501 235" id="x"/><path d="M904-1102c199 0 220 177 220 381V0H956v-686c-3-114 0-215-60-264-70-33-125-4-158 71-26 56-39 140-39 252V0H531v-686c-3-114-1-215-61-264-78-41-136 24-157 84-24 69-39 159-39 259V0H105c-3-360 6-732-6-1082h149c6 50 3 123 8 175 36-100 83-195 216-195 135 0 166 79 196 196 42-105 93-196 236-196" id="y"/><path d="M698-1104c312 3 392 244 392 558 0 315-82 566-392 566-169 0-277-65-331-184h-5c8 188 2 394 4 589H185V-858c0-76-1-156-6-224h175c6 52 9 120 10 178h4c58-122 150-202 330-200zm-49 991c225 0 255-203 255-433 0-225-32-419-253-419-236 0-285 192-285 441 0 237 53 411 283 411" id="z"/><path d="M736-142h380V0H134v-142h422v-1200H267v-142h469v1342" id="A"/><path d="M617-1102c355 0 481 238 477 599H322c5 222 84 388 301 388 144 0 244-59 284-166l158 45C1002-72 854 20 623 20c-342 0-490-220-490-568 0-346 151-554 484-554zm291 461c-18-192-90-328-289-328-194 0-287 128-295 328h584" id="B"/><g id="f"><use transform="matrix(0.010850694444444444,0,0,0.010850694444444444,0,0)" xlink:href="#v"/><use transform="matrix(0.010850694444444444,0,0,0.010850694444444444,13.335503472222221,0)" xlink:href="#w"/><use transform="matrix(0.010850694444444444,0,0,0.010850694444444444,26.671006944444443,0)" xlink:href="#x"/><use transform="matrix(0.010850694444444444,0,0,0.010850694444444444,40.006510416666664,0)" xlink:href="#y"/><use transform="matrix(0.010850694444444444,0,0,0.010850694444444444,53.342013888888886,0)" xlink:href="#z"/><use transform="matrix(0.010850694444444444,0,0,0.010850694444444444,66.67751736111111,0)" xlink:href="#A"/><use transform="matrix(0.010850694444444444,0,0,0.010850694444444444,80.01302083333334,0)" xlink:href="#B"/></g><use transform="matrix(0.010850694444444444,0,0,0.010850694444444444,0,0)" xlink:href="#s" id="g"/><path d="M622-1349c296 4 497 117 497 404 0 282-193 424-485 431H353V0H162v-1349h460zm-15 684c195-3 320-88 320-277 0-184-129-255-328-254H353v531h254" id="C"/><path d="M839-1102c70 0 148 7 206 17v167c-112-18-268-36-363 15-129 69-208 203-208 395V0H294c-10-367 32-789-52-1082h171c21 75 41 161 48 250h5c67-152 152-270 373-270" id="D"/><path d="M615-1102c343 0 484 203 482 560-1 347-147 562-488 562-336 0-475-219-479-562-4-349 156-560 485-560zm-8 989c240 0 301-180 301-429 0-245-55-427-290-427-236 0-299 181-299 427 0 243 61 429 288 429" id="E"/><path d="M865-914c-3-187-2-380-2-570h180v1261c0 76 1 155 6 223H877c-8-49-9-116-10-174h-5C801-44 708 26 530 26c-135 0-234-46-297-139s-95-232-95-419c0-377 131-566 392-566 176 0 271 63 335 184zm-286-51c-222 0-255 197-255 427 0 229 31 425 253 425 237 0 286-195 286-441 0-238-52-411-284-411" id="F"/><g id="h"><use transform="matrix(0.007595486111111112,0,0,0.007595486111111112,0,0)" xlink:href="#C"/><use transform="matrix(0.007595486111111112,0,0,0.007595486111111112,9.334852430555557,0)" xlink:href="#D"/><use transform="matrix(0.007595486111111112,0,0,0.007595486111111112,18.669704861111114,0)" xlink:href="#B"/><use transform="matrix(0.007595486111111112,0,0,0.007595486111111112,28.00455729166667,0)" xlink:href="#E"/><use transform="matrix(0.007595486111111112,0,0,0.007595486111111112,37.33940972222223,0)" xlink:href="#D"/><use transform="matrix(0.007595486111111112,0,0,0.007595486111111112,46.674262152777786,0)" xlink:href="#F"/><use transform="matrix(0.007595486111111112,0,0,0.007595486111111112,56.00911458333334,0)" xlink:href="#B"/><use transform="matrix(0.007595486111111112,0,0,0.007595486111111112,65.3439670138889,0)" xlink:href="#D"/></g><use transform="matrix(0.007595486111111112,0,0,0.007595486111111112,0,0)" xlink:href="#o" id="i"/><use transform="matrix(0.007595486111111112,0,0,0.007595486111111112,0,0)" xlink:href="#p" id="j"/><g id="k"><use transform="matrix(0.007595486111111112,0,0,0.007595486111111112,0,0)" xlink:href="#q"/><use transform="matrix(0.007595486111111112,0,0,0.007595486111111112,9.334852430555557,0)" xlink:href="#r"/></g><g id="l"><use transform="matrix(0.007595486111111112,0,0,0.007595486111111112,0,0)" xlink:href="#s"/><use transform="matrix(0.007595486111111112,0,0,0.007595486111111112,9.334852430555557,0)" xlink:href="#t"/></g><use transform="matrix(0.007595486111111112,0,0,0.007595486111111112,0,0)" xlink:href="#u" id="m"/><path d="M202-1349h823v156H709v1037h316V0H202v-156h316v-1037H202v-156" id="G"/><path d="M706-1102c241 0 344 136 343 381V0H868v-695c1-168-57-273-220-268-190 6-283 138-283 336V0H185c-3-360 6-732-6-1082h170c4 54 7 126 8 185h3c63-121 164-204 346-205" id="H"/><g id="n"><use transform="matrix(0.007595486111111112,0,0,0.007595486111111112,0,0)" xlink:href="#G"/><use transform="matrix(0.007595486111111112,0,0,0.007595486111111112,9.334852430555557,0)" xlink:href="#H"/><use transform="matrix(0.007595486111111112,0,0,0.007595486111111112,18.669704861111114,0)" xlink:href="#E"/><use transform="matrix(0.007595486111111112,0,0,0.007595486111111112,28.00455729166667,0)" xlink:href="#D"/><use transform="matrix(0.007595486111111112,0,0,0.007595486111111112,37.33940972222223,0)" xlink:href="#F"/><use transform="matrix(0.007595486111111112,0,0,0.007595486111111112,46.674262152777786,0)" xlink:href="#B"/><use transform="matrix(0.007595486111111112,0,0,0.007595486111111112,56.00911458333334,0)" xlink:href="#D"/></g></defs></g></svg>