<svg xmlns="http://www.w3.org/2000/svg" xmlns:xlink="http://www.w3.org/1999/xlink" xmlns:lucid="lucid" width="562" height="1422"><g transform="translate(-399.00000000000006 141)" lucid:page-tab-id="0_0"><path d="M675.7 313.1c0 26-20.07 47.1-44.83 47.1-24.75 0-44.83-21.1-44.83-47.1s20.08-47.1 44.83-47.1c24.76 0 44.83 21.1 44.83 47.1z" stroke="#000" stroke-width="3" fill="#fff0f0"/><use xlink:href="#a" transform="matrix(1,0,0,1,591.0440293529019,271.0064516129032) translate(33.9990234375 48.515625)"/><path d="M630.87 363.2v35.43a6 6 0 0 1-6 6H553.2a6 6 0 0 0-6 6v16.3" stroke="#000" stroke-width="3" fill="none"/><path d="M630.87 361.7l1.48-.06v1.6h-2.95v-1.62z" stroke="#000" stroke-width=".05"/><path d="M547.2 442.7l-4.64-14.26h9.27z" stroke="#000" stroke-width="3"/><path d="M592.02 496.15c0 26-20.07 47.1-44.83 47.1-24.77 0-44.84-21.1-44.84-47.1s20.07-47.1 44.83-47.1c24.75 0 44.82 21.1 44.82 47.1z" stroke="#000" stroke-width="3" fill="#e3fae3"/><use xlink:href="#b" transform="matrix(1,0,0,1,507.36157438292184,454.0559139784946) translate(33.9990234375 48.515625)"/><path d="M630.87 363.2v35.43a6 6 0 0 0 6 6h83.64a6 6 0 0 1 6 6v16.3" stroke="#000" stroke-width="3" fill="none"/><path d="M630.87 361.7l1.48-.06v1.6h-2.95v-1.62z" stroke="#000" stroke-width=".05"/><path d="M726.5 442.7l-4.62-14.26h9.27z" stroke="#000" stroke-width="3"/><path d="M771.34 496.15c0 26-20.07 47.1-44.83 47.1-24.75 0-44.82-21.1-44.82-47.1s20.07-47.1 44.83-47.1c24.77 0 44.84 21.1 44.84 47.1z" stroke="#000" stroke-width="3" fill="#edf5ff"/><use xlink:href="#c" transform="matrix(1,0,0,1,686.6811207471648,454.0559139784946) translate(27.998046875 48.515625)"/><path d="M726.5 546.25v38.1a6 6 0 0 1-6 6h-55.23a6 6 0 0 0-6 6v18.97" stroke="#000" stroke-width="3" fill="none"/><path d="M726.5 544.75l1.5-.06v1.6h-2.96v-1.63z" stroke="#000" stroke-width=".05"/><path d="M659.27 631.1l-4.64-14.28h9.27z" stroke="#000" stroke-width="3"/><path d="M704.1 684.54c0 26-20.08 47.1-44.83 47.1-24.76 0-44.83-21.1-44.83-47.1s20.07-47.1 44.83-47.1c24.75 0 44.83 21.1 44.83 47.1z" stroke="#000" stroke-width="3" fill="#fff"/><use xlink:href="#d" transform="matrix(1,0,0,1,619.4362908605736,642.4430107526881) translate(27.998046875 48.515625)"/><path d="M726.5 546.25v38.1a6 6 0 0 0 6 6h55.26a6 6 0 0 1 6 6v18.97" stroke="#000" stroke-width="3" fill="none"/><path d="M726.5 544.75l1.5-.06v1.6h-2.96v-1.63z" stroke="#000" stroke-width=".05"/><path d="M793.76 631.1l-4.64-14.28h9.27z" stroke="#000" stroke-width="3"/><path d="M838.6 684.54c0 26-20.1 47.1-44.84 47.1-24.76 0-44.83-21.1-44.83-47.1s20.07-47.1 44.83-47.1c24.75 0 44.83 21.1 44.83 47.1z" stroke="#000" stroke-width="3" fill="#fff"/><use xlink:href="#e" transform="matrix(1,0,0,1,753.9259506337559,642.4430107526881) translate(33.9990234375 48.515625)"/><path d="M499.2-134a6 6 0 0 1 6-6h349.6a6 6 0 0 1 6 6V24.52a6 6 0 0 1-6 6H505.2a6 6 0 0 1-6-6z" stroke="#000" stroke-width="2" fill="#edf5ff"/><use xlink:href="#f" transform="matrix(1,0,0,1,504.1861240827218,-135) translate(121.9912109375 36.775390625)"/><use xlink:href="#g" transform="matrix(1,0,0,1,504.1861240827218,-135) translate(218.0068359375 36.775390625)"/><use xlink:href="#h" transform="matrix(1,0,0,1,504.1861240827218,-135) translate(176 62.078125)"/><use xlink:href="#i" transform="matrix(1,0,0,1,504.1861240827218,-135) translate(19.974609375 87.37890625)"/><use xlink:href="#j" transform="matrix(1,0,0,1,504.1861240827218,-135) translate(91.986328125 87.37890625)"/><use xlink:href="#k" transform="matrix(1,0,0,1,504.1861240827218,-135) translate(224.0078125 87.37890625)"/><use xlink:href="#l" transform="matrix(1,0,0,1,504.1861240827218,-135) translate(272.015625 87.37890625)"/><use xlink:href="#m" transform="matrix(1,0,0,1,504.1861240827218,-135) translate(19.974609375 112.6796875)"/><use xlink:href="#j" transform="matrix(1,0,0,1,504.1861240827218,-135) translate(79.984375 112.6796875)"/><use xlink:href="#k" transform="matrix(1,0,0,1,504.1861240827218,-135) translate(212.005859375 112.6796875)"/><use xlink:href="#n" transform="matrix(1,0,0,1,504.1861240827218,-135) translate(260.013671875 112.6796875)"/><use xlink:href="#o" transform="matrix(1,0,0,1,504.1861240827218,-135) translate(31.9765625 137.98046875)"/><use xlink:href="#j" transform="matrix(1,0,0,1,504.1861240827218,-135) translate(79.984375 137.98046875)"/><use xlink:href="#k" transform="matrix(1,0,0,1,504.1861240827218,-135) translate(212.005859375 137.98046875)"/><use xlink:href="#p" transform="matrix(1,0,0,1,504.1861240827218,-135) translate(260.013671875 137.98046875)"/><path d="M400 87.17h138.97v47.1H400z" fill="#fff"/><path d="M538.97 87.17h83.1v47.1h-83.1z" fill="#ffd9d9"/><path d="M622.07 87.17h88.63v47.1h-88.63z" fill="#e3fae3"/><path d="M710.7 87.17h83.1v47.1h-83.1z" fill="#edf5ff"/><path d="M793.8 87.17h83.1v47.1h-83.1zM876.9 87.17H960v47.1h-83.1z" fill="#edf5ff"/><path d="M400 134.27h138.97v75.1H400z" fill="#fff"/><path d="M538.97 134.27h83.1v75.1h-83.1z" fill="#e3fae3"/><path d="M622.07 134.27h88.63v75.1h-88.63z" fill="#ffd9d9"/><path d="M710.7 134.27h83.1v75.1h-83.1z" fill="#edf5ff"/><path d="M793.8 134.27h83.1v75.1h-83.1zM876.9 134.27H960v75.1h-83.1z" fill="#edf5ff"/><path d="M400 87.17v47.1M400 87.17h138.97M538.97 87.17v47.1M538.97 87.17h83.1M622.07 87.17v47.1M622.07 87.17h88.63M710.7 87.17v47.1M710.7 87.17h83.1M793.8 87.17v47.1M793.8 87.17h83.1M876.9 87.17v47.1M960 87.17v47.1M876.9 87.17H960M400 134.27v75.1M400 134.27h138.97M400 209.36h138.97M538.97 134.27v75.1M538.97 134.27h83.1M538.97 209.36h83.1M622.07 134.27v75.1M622.07 134.27h88.63M622.07 209.36h88.63M710.7 134.27v75.1M710.7 134.27h83.1M710.7 209.36h83.1M793.8 134.27v75.1M793.8 134.27h83.1M793.8 209.36h83.1M876.9 134.27v75.1M960 134.27v75.1M876.9 134.27H960M876.9 209.36H960" stroke="#000" stroke-width="2" fill="none"/><use xlink:href="#q" transform="matrix(1,0,0,1,405.00000000000006,92.17055611559132) translate(16.4921875 25.0986328125)"/><use xlink:href="#r" transform="matrix(1,0,0,1,543.971112285978,92.17055611559132) translate(30.9990234375 25.0986328125)"/><use xlink:href="#s" transform="matrix(1,0,0,1,627.0708250439595,92.17055611559132) translate(33.4990234375 25.0986328125)"/><use xlink:href="#t" transform="matrix(1,0,0,1,715.7008617260555,92.17055611559132) translate(24.998046875 25.0986328125)"/><use xlink:href="#u" transform="matrix(1,0,0,1,798.8005744840369,92.17055611559132) translate(24.998046875 25.0986328125)"/><use xlink:href="#v" transform="matrix(1,0,0,1,881.9002872420184,92.17055611559132) translate(30.9990234375 25.0986328125)"/><use xlink:href="#w" transform="matrix(1,0,0,1,405.00000000000006,139.2673303091397) translate(22.4931640625 39.0986328125)"/><use xlink:href="#s" transform="matrix(1,0,0,1,543.971112285978,139.2673303091397) translate(30.9990234375 39.0986328125)"/><use xlink:href="#x" transform="matrix(1,0,0,1,627.0708250439595,139.2673303091397) translate(33.4990234375 28.556640625)"/><use xlink:href="#y" transform="matrix(1,0,0,1,627.0708250439595,139.2673303091397) translate(9.4951171875 49.640625)"/><use xlink:href="#u" transform="matrix(1,0,0,1,715.7008617260555,139.2673303091397) translate(24.998046875 39.0986328125)"/><use xlink:href="#t" transform="matrix(1,0,0,1,798.8005744840369,139.2673303091397) translate(24.998046875 39.0986328125)"/><use xlink:href="#v" transform="matrix(1,0,0,1,881.9002872420184,139.2673303091397) translate(30.9990234375 39.0986328125)"/><path d="M450.02 785.48h113.64v75.1H450.02zM563.66 785.48h69.26v75.1h-69.26z" fill="#d7faf5"/><path d="M632.92 785.48h69.27v75.1H632.9zM702.2 785.48h69.25v75.1H702.2zM771.45 785.48h69.26v75.1h-69.25z" fill="#d7faf5"/><path d="M840.7 785.48H910v75.1H840.7zM450.02 860.58h113.64v75.1H450.02zM563.66 860.58h69.26v75.1h-69.26z" fill="#d7faf5"/><path d="M632.92 860.58h69.27v75.1H632.9zM702.2 860.58h69.25v75.1H702.2zM771.45 860.58h69.26v75.1h-69.25z" fill="#d7faf5"/><path d="M840.7 860.58H910v75.1H840.7zM450.02 935.67h113.64v75.1H450.02zM563.66 935.67h69.26v75.1h-69.26z" fill="#d7faf5"/><path d="M632.92 935.67h69.27v75.1H632.9zM702.2 935.67h69.25v75.1H702.2zM771.45 935.67h69.26v75.1h-69.25z" fill="#d7faf5"/><path d="M840.7 935.67H910v75.1H840.7zM450.02 1010.76h113.64v75.1H450.02zM563.66 1010.76h69.26v75.1h-69.26z" fill="#d7faf5"/><path d="M632.92 1010.76h69.27v75.1H632.9zM702.2 1010.76h69.25v75.1H702.2zM771.45 1010.76h69.26v75.1h-69.25z" fill="#d7faf5"/><path d="M840.7 1010.76H910v75.1H840.7z" fill="#d7faf5"/><path d="M450.02 785.48v75.1M450.02 785.48h113.64M563.66 785.48v75.1M563.66 785.48h69.26M632.92 785.48v75.1M632.92 785.48h69.27M702.2 785.48v75.1M702.2 785.48h69.25M771.45 785.48v75.1M771.45 785.48h69.26M840.7 785.48v75.1M909.98 785.48v75.1M840.7 785.48H910M450.02 860.58v75.1M450.02 860.58h113.64M563.66 860.58v75.1M563.66 860.58h69.26M632.92 860.58v75.1M632.92 860.58h69.27M702.2 860.58v75.1M702.2 860.58h69.25M771.45 860.58v75.1M771.45 860.58h69.26M840.7 860.58v75.1M909.98 860.58v75.1M840.7 860.58H910M450.02 935.67v75.1M450.02 935.67h113.64M563.66 935.67v75.1M563.66 935.67h69.26M632.92 935.67v75.1M632.92 935.67h69.27M702.2 935.67v75.1M702.2 935.67h69.25M771.45 935.67v75.1M771.45 935.67h69.26M840.7 935.67v75.1M909.98 935.67v75.1M840.7 935.67H910M450.02 1010.76v75.1M450.02 1010.76h113.64M450.02 1085.85h113.64M563.66 1010.76v75.1M563.66 1010.76h69.26M563.66 1085.85h69.26M632.92 1010.76v75.1M632.92 1010.76h69.27M632.92 1085.85h69.27M702.2 1010.76v75.1M702.2 1010.76h69.25M702.2 1085.85h69.25M771.45 1010.76v75.1M771.45 1010.76h69.26M771.45 1085.85h69.26M840.7 1010.76v75.1M909.98 1010.76v75.1M840.7 1010.76H910M840.7 1085.85H910" stroke="#000" stroke-width="2" fill="none"/><g><use xlink:href="#z" transform="matrix(1,0,0,1,455.02285146516203,790.483870967742) translate(27.99609375 28.556640625)"/><use xlink:href="#A" transform="matrix(1,0,0,1,455.02285146516203,790.483870967742) translate(3.9921875 49.640625)"/></g><g><use xlink:href="#s" transform="matrix(1,0,0,1,568.6614577582463,790.483870967742) translate(23.9990234375 39.0986328125)"/></g><g><use xlink:href="#z" transform="matrix(1,0,0,1,455.02285146516203,865.5750168010753) translate(27.99609375 28.556640625)"/><use xlink:href="#B" transform="matrix(1,0,0,1,455.02285146516203,865.5750168010753) translate(9.9931640625 49.640625)"/></g><g><use xlink:href="#s" transform="matrix(1,0,0,1,568.6614577582463,865.5750168010753) translate(23.9990234375 39.0986328125)"/></g><g><use xlink:href="#C" transform="matrix(1,0,0,1,455.02285146516203,940.6661626344087) translate(21.9951171875 28.556640625)"/><use xlink:href="#A" transform="matrix(1,0,0,1,455.02285146516203,940.6661626344087) translate(3.9921875 49.640625)"/></g><g><use xlink:href="#t" transform="matrix(1,0,0,1,568.6614577582463,940.6661626344087) translate(17.998046875 39.0986328125)"/></g><g><use xlink:href="#u" transform="matrix(1,0,0,1,637.9245959135646,940.6661626344087) translate(17.998046875 39.0986328125)"/></g><g><use xlink:href="#v" transform="matrix(1,0,0,1,707.187734068883,940.6661626344087) translate(23.9990234375 39.0986328125)"/></g><g><use xlink:href="#C" transform="matrix(1,0,0,1,455.02285146516203,1015.757308467742) translate(21.9951171875 28.556640625)"/><use xlink:href="#B" transform="matrix(1,0,0,1,455.02285146516203,1015.757308467742) translate(9.9931640625 49.640625)"/></g><g><use xlink:href="#u" transform="matrix(1,0,0,1,568.6614577582463,1015.757308467742) translate(17.998046875 39.0986328125)"/></g><g><use xlink:href="#t" transform="matrix(1,0,0,1,637.9245959135646,1015.757308467742) translate(17.998046875 39.0986328125)"/></g><g><use xlink:href="#v" transform="matrix(1,0,0,1,707.187734068883,1015.757308467742) translate(23.9990234375 39.0986328125)"/></g><path d="M407 1145.7a6 6 0 0 1 6-6h534a6 6 0 0 1 6 6V1274a6 6 0 0 1-6 6H413a6 6 0 0 1-6-6z" stroke="#000" stroke-width="2" fill="#d7faf5"/><g><use xlink:href="#D" transform="matrix(1,0,0,1,412.0046697798532,1144.6957661290323) translate(21.9599609375 45.296875)"/><use xlink:href="#E" transform="matrix(1,0,0,1,412.0046697798532,1144.6957661290323) translate(45.9638671875 45.296875)"/><use xlink:href="#F" transform="matrix(1,0,0,1,412.0046697798532,1144.6957661290323) translate(129.9775390625 45.296875)"/><use xlink:href="#G" transform="matrix(1,0,0,1,412.0046697798532,1144.6957661290323) translate(249.9970703125 45.296875)"/><use xlink:href="#H" transform="matrix(1,0,0,1,412.0046697798532,1144.6957661290323) translate(298.0048828125 45.296875)"/><use xlink:href="#I" transform="matrix(1,0,0,1,412.0046697798532,1144.6957661290323) translate(334.0107421875 45.296875)"/><use xlink:href="#J" transform="matrix(1,0,0,1,412.0046697798532,1144.6957661290323) translate(406.0224609375 45.296875)"/><use xlink:href="#K" transform="matrix(1,0,0,1,412.0046697798532,1144.6957661290323) translate(466.0322265625 45.296875)"/><use xlink:href="#L" transform="matrix(1,0,0,1,412.0046697798532,1144.6957661290323) translate(9.9580078125 70.59765625)"/><use xlink:href="#M" transform="matrix(1,0,0,1,412.0046697798532,1144.6957661290323) translate(117.9755859375 70.59765625)"/><use xlink:href="#N" transform="matrix(1,0,0,1,412.0046697798532,1144.6957661290323) translate(165.9833984375 70.59765625)"/><use xlink:href="#O" transform="matrix(1,0,0,1,412.0046697798532,1144.6957661290323) translate(286.0029296875 70.59765625)"/><use xlink:href="#P" transform="matrix(1,0,0,1,412.0046697798532,1144.6957661290323) translate(346.0126953125 70.59765625)"/><use xlink:href="#Q" transform="matrix(1,0,0,1,412.0046697798532,1144.6957661290323) translate(382.0185546875 70.59765625)"/><use xlink:href="#R" transform="matrix(1,0,0,1,412.0046697798532,1144.6957661290323) translate(442.0283203125 70.59765625)"/><use xlink:href="#S" transform="matrix(1,0,0,1,412.0046697798532,1144.6957661290323) translate(45.9638671875 95.8984375)"/><use xlink:href="#T" transform="matrix(1,0,0,1,412.0046697798532,1144.6957661290323) translate(117.9755859375 95.8984375)"/><use xlink:href="#k" transform="matrix(1,0,0,1,412.0046697798532,1144.6957661290323) translate(177.9853515625 95.8984375)"/><use xlink:href="#U" transform="matrix(1,0,0,1,412.0046697798532,1144.6957661290323) translate(225.9931640625 95.8984375)"/><use xlink:href="#V" transform="matrix(1,0,0,1,412.0046697798532,1144.6957661290323) translate(298.0048828125 95.8984375)"/><use xlink:href="#W" transform="matrix(1,0,0,1,412.0046697798532,1144.6957661290323) translate(394.0205078125 95.8984375)"/><use xlink:href="#X" transform="matrix(1,0,0,1,412.0046697798532,1144.6957661290323) translate(430.0263671875 95.8984375)"/></g><defs><path d="M1060-1016c0 191-128 285-295 323v4c154 18 262 91 313 209 14 35 21 72 21 110 0 277-194 390-478 390-292 0-457-129-493-382l186-17c24 161 121 250 307 250 172 1 298-80 291-247-8-208-220-239-446-233v-156c217 9 409-34 409-232 0-152-102-225-264-225-159 0-264 88-278 233l-181-14c33-239 196-367 461-367 264 0 447 102 447 354" id="Y"/><use transform="matrix(0.009765625,0,0,0.009765625,0,0)" xlink:href="#Y" id="a"/><path d="M141-911c0-296 172-459 469-459 157 0 276 55 356 166s121 278 121 501c-1 324-87 567-297 677-134 70-367 56-475-22-71-52-117-126-145-226l172-27c34 111 103 176 238 176 187 0 261-138 304-298 16-65 24-141 25-227-59 121-177 199-350 199-275 0-418-184-418-460zm461 318c168 0 289-96 289-269 0-158-59-275-163-332-36-20-77-30-124-30-187 0-280 125-280 313s90 318 278 318" id="Z"/><use transform="matrix(0.009765625,0,0,0.009765625,0,0)" xlink:href="#Z" id="b"/><path d="M611-1370c266 0 451 106 451 368 0 147-77 243-154 327-132 144-316 255-451 395-42 44-75 87-96 134h723V0H144v-117c124-264 387-411 582-603 73-72 151-147 151-271 0-161-104-231-266-231-163 0-249 90-268 238l-184-17c35-233 185-369 452-369" id="aa"/><path d="M1065-1013c47 164 49 500-1 665C999-130 875 20 611 20c-377 0-484-300-487-695-2-245 41-425 141-551 77-98 191-144 352-144 261 0 386 140 448 357zM741-155c199-92 203-504 159-785-26-168-96-284-283-284-281 0-308 256-311 549-2 181 18 324 80 428 46 77 115 118 227 120 47 0 90-10 128-28zM496-555v-249h235v249H496" id="ab"/><g id="c"><use transform="matrix(0.009765625,0,0,0.009765625,0,0)" xlink:href="#aa"/><use transform="matrix(0.009765625,0,0,0.009765625,12.001953125,0)" xlink:href="#ab"/></g><path d="M148-1120c216-7 379-89 463-229h166v1204h353V0H157v-145h439v-1021c-79 124-254 184-448 194v-148" id="ac"/><path d="M353-779c69-51 166-92 291-90 218 3 357 100 423 255 21 52 32 109 32 170 0 305-189 464-500 464-268 0-424-116-471-335l182-21c35 130 124 212 293 209 198-4 309-114 309-313 0-182-118-282-305-282-120 0-198 45-262 101H169l47-728h801v145H382" id="ad"/><g id="d"><use transform="matrix(0.009765625,0,0,0.009765625,0,0)" xlink:href="#ac"/><use transform="matrix(0.009765625,0,0,0.009765625,12.001953125,0)" xlink:href="#ad"/></g><path d="M1069-1210C890-948 720-664 634-316c-25 105-38 210-38 316H408c9-385 153-667 302-925 57-98 120-190 185-279H158v-145h911v139" id="ae"/><use transform="matrix(0.009765625,0,0,0.009765625,0,0)" xlink:href="#ae" id="e"/><path d="M32 0l262-1349h968l-44 228H545l-63 324h612l-44 228H438l-67 341h714L1041 0H32" id="af"/><path d="M769 0L583-392 243 0H-56l515-559-286-523h303l173 354 308-354h305L774-562 1074 0H769" id="ag"/><path d="M708-193C620-81 523 15 330 20 129 25 18-101 60-306c48-232 215-341 485-346l224-4c7-45 20-89 20-139 1-86-39-124-117-125-111-1-152 65-180 153l-290-14c73-204 237-321 517-321 254 0 393 135 341 390-30 146-59 290-84 438-11 62 0 114 66 114 21 0 42-2 63-6l-29 152c-59 14-111 26-185 26-136 0-190-69-177-205h-6zm30-308c-139 4-289-11-346 83-19 31-40 91-40 144 0 65 32 98 96 98 184 0 263-154 290-325" id="ah"/><path d="M966-761c11-69 20-163-53-162-34 0-66 27-96 81s-55 134-76 241L624 0H396c48-253 104-503 145-761 11-69 20-166-53-162-50 3-75 49-98 93-36 67-60 156-78 248L199 0H-30c67-361 144-713 204-1082h209c-6 55-18 122-28 175h2c54-95 112-192 254-195 127-2 153 72 158 196 61-99 122-196 274-196 124 0 168 64 168 192 0 67-10 125-22 189L1049 0H821c48-253 104-503 145-761" id="ai"/><path d="M627 20c-151 0-237-72-272-191-34 202-76 398-114 596H-40C50-46 147-511 232-986c7-41 10-73 13-96h272c0 58-10 124-19 176h4c78-109 179-192 354-197 376-13 326 531 209 786C984-140 869 20 627 20zm213-563c31-152 35-378-130-368-124 7-184 95-231 195-66 140-154 545 85 545 132 0 184-99 228-203 20-47 35-103 48-169" id="aj"/><path d="M726-190h353L1042 0H13l37-190h395l215-1104H370l36-190h571" id="ak"/><path d="M1061-274C957-107 790 19 517 20 218 21 54-146 88-462c35-319 185-528 448-611 67-21 135-29 203-29 270 2 398 150 401 417 0 72-9 133-21 198H385c-33 166 14 324 183 319 116-3 193-49 233-129zM881-663c35-185-91-308-267-247-105 37-165 127-193 247h460" id="al"/><g id="f"><use transform="matrix(0.009765625,0,0,0.009765625,0,0)" xlink:href="#af"/><use transform="matrix(0.009765625,0,0,0.009765625,12.001953125,0)" xlink:href="#ag"/><use transform="matrix(0.009765625,0,0,0.009765625,24.00390625,0)" xlink:href="#ah"/><use transform="matrix(0.009765625,0,0,0.009765625,36.005859375,0)" xlink:href="#ai"/><use transform="matrix(0.009765625,0,0,0.009765625,48.0078125,0)" xlink:href="#aj"/><use transform="matrix(0.009765625,0,0,0.009765625,60.009765625,0)" xlink:href="#ak"/><use transform="matrix(0.009765625,0,0,0.009765625,72.01171875,0)" xlink:href="#al"/></g><path d="M251-1120c220-5 361-100 459-229h266L755-209h323L1037 0H44l41-209h389l173-891c-88 115-243 186-438 194" id="am"/><use transform="matrix(0.009765625,0,0,0.009765625,0,0)" xlink:href="#am" id="g"/><path fill="#008a0e" d="M655-135c108 0 195-33 260-74v-336H622v-160h479v572C981-54 839 20 639 20c-388 0-526-306-526-701 0-406 129-689 529-689 261 0 392 137 461 331l-171 56c-47-131-122-231-288-231-281 0-330 245-330 533 0 179 28 314 84 407s142 139 257 139" id="an"/><path fill="#008a0e" d="M839-1102c70 0 148 7 206 17v167c-112-18-268-36-363 15-129 69-208 203-208 395V0H294c-10-367 32-789-52-1082h171c21 75 41 161 48 250h5c67-152 152-270 373-270" id="ao"/><path fill="#008a0e" d="M617-1102c355 0 481 238 477 599H322c5 222 84 388 301 388 144 0 244-59 284-166l158 45C1002-72 854 20 623 20c-342 0-490-220-490-568 0-346 151-554 484-554zm291 461c-18-192-90-328-289-328-194 0-287 128-295 328h584" id="ap"/><path fill="#008a0e" d="M706-1102c241 0 344 136 343 381V0H868v-695c1-168-57-273-220-268-190 6-283 138-283 336V0H185c-3-360 6-732-6-1082h170c4 54 7 126 8 185h3c63-121 164-204 346-205" id="aq"/><g id="i"><use transform="matrix(0.009765625,0,0,0.009765625,0,0)" xlink:href="#an"/><use transform="matrix(0.009765625,0,0,0.009765625,12.001953125,0)" xlink:href="#ao"/><use transform="matrix(0.009765625,0,0,0.009765625,24.00390625,0)" xlink:href="#ap"/><use transform="matrix(0.009765625,0,0,0.009765625,36.005859375,0)" xlink:href="#ap"/><use transform="matrix(0.009765625,0,0,0.009765625,48.0078125,0)" xlink:href="#aq"/></g><path d="M839-1102c70 0 148 7 206 17v167c-112-18-268-36-363 15-129 69-208 203-208 395V0H294c-10-367 32-789-52-1082h171c21 75 41 161 48 250h5c67-152 152-270 373-270" id="ar"/><path d="M617-1102c355 0 481 238 477 599H322c5 222 84 388 301 388 144 0 244-59 284-166l158 45C1002-72 854 20 623 20c-342 0-490-220-490-568 0-346 151-554 484-554zm291 461c-18-192-90-328-289-328-194 0-287 128-295 328h584" id="as"/><path d="M698-1104c312 3 392 244 392 558 0 315-82 566-392 566-169 0-277-65-331-184h-5c8 188 2 394 4 589H185V-858c0-76-1-156-6-224h175c6 52 9 120 10 178h4c58-122 150-202 330-200zm-49 991c225 0 255-203 255-433 0-225-32-419-253-419-236 0-285 192-285 441 0 237 53 411 283 411" id="at"/><path d="M873-819c-18-114-119-146-250-146-163 0-245 50-245 151 0 151 170 148 294 185 182 54 388 94 388 320 0 240-189 325-439 329-245 4-410-69-454-268l159-31c24 133 136 168 295 165 144-2 270-31 270-171 0-164-195-160-331-202-167-52-350-87-350-299 0-218 173-315 413-313 220 2 373 77 412 260" id="au"/><path d="M706-1102c241 0 344 136 343 381V0H868v-695c1-168-57-273-220-268-190 6-283 138-283 336V0H185c-3-360 6-732-6-1082h170c4 54 7 126 8 185h3c63-121 164-204 346-205" id="av"/><path d="M682 16c-209 0-323-80-324-285v-671H190v-142h170l58-282h120v282h432v142H538v652c2 114 60 155 182 155 106 0 209-16 297-34v137C921-4 806 16 682 16" id="aw"/><g id="j"><use transform="matrix(0.009765625,0,0,0.009765625,0,0)" xlink:href="#ar"/><use transform="matrix(0.009765625,0,0,0.009765625,12.001953125,0)" xlink:href="#as"/><use transform="matrix(0.009765625,0,0,0.009765625,24.00390625,0)" xlink:href="#at"/><use transform="matrix(0.009765625,0,0,0.009765625,36.005859375,0)" xlink:href="#ar"/><use transform="matrix(0.009765625,0,0,0.009765625,48.0078125,0)" xlink:href="#as"/><use transform="matrix(0.009765625,0,0,0.009765625,60.009765625,0)" xlink:href="#au"/><use transform="matrix(0.009765625,0,0,0.009765625,72.01171875,0)" xlink:href="#as"/><use transform="matrix(0.009765625,0,0,0.009765625,84.013671875,0)" xlink:href="#av"/><use transform="matrix(0.009765625,0,0,0.009765625,96.015625,0)" xlink:href="#aw"/><use transform="matrix(0.009765625,0,0,0.009765625,108.017578125,0)" xlink:href="#au"/></g><path d="M648-963c-190 6-283 138-283 336V0H185v-1484h181c-2 197 6 404-9 587h3c62-120 159-205 339-205 242 0 351 135 350 381V0H868v-695c1-168-57-273-220-268" id="ax"/><g id="k"><use transform="matrix(0.009765625,0,0,0.009765625,0,0)" xlink:href="#aw"/><use transform="matrix(0.009765625,0,0,0.009765625,12.001953125,0)" xlink:href="#ax"/><use transform="matrix(0.009765625,0,0,0.009765625,24.00390625,0)" xlink:href="#as"/></g><path d="M615-1102c343 0 484 203 482 560-1 347-147 562-488 562-336 0-475-219-479-562-4-349 156-560 485-560zm-8 989c240 0 301-180 301-429 0-245-55-427-290-427-236 0-299 181-299 427 0 243 61 429 288 429" id="ay"/><path d="M496 0v-299h235V0H496" id="az"/><g id="l"><use transform="matrix(0.009765625,0,0,0.009765625,0,0)" xlink:href="#ar"/><use transform="matrix(0.009765625,0,0,0.009765625,12.001953125,0)" xlink:href="#ay"/><use transform="matrix(0.009765625,0,0,0.009765625,24.00390625,0)" xlink:href="#ay"/><use transform="matrix(0.009765625,0,0,0.009765625,36.005859375,0)" xlink:href="#aw"/><use transform="matrix(0.009765625,0,0,0.009765625,48.0078125,0)" xlink:href="#az"/></g><path fill="#1071e5" d="M802-711c201 25 350 118 350 331C1152-95 921 0 634 0H162v-1349c401 9 908-74 908 327 0 184-111 275-268 311zm-224-69c174-2 300-51 300-218 0-163-124-198-302-198H353v416h225zM353-153c281-2 612 44 606-244-5-271-329-233-606-234v478" id="aA"/><path fill="#1071e5" d="M736-142h380V0H134v-142h422v-1200H267v-142h469v1342" id="aB"/><path fill="#1071e5" d="M528 20c-247 0-343-132-343-381v-721h180v686c-4 177 45 284 224 277 194-8 279-136 279-336v-627h181c3 360-6 732 6 1082H885c-4-54-7-126-8-185h-3C809-64 714 20 528 20" id="aC"/><path fill="#1071e5" d="M617-1102c355 0 481 238 477 599H322c5 222 84 388 301 388 144 0 244-59 284-166l158 45C1002-72 854 20 623 20c-342 0-490-220-490-568 0-346 151-554 484-554zm291 461c-18-192-90-328-289-328-194 0-287 128-295 328h584" id="aD"/><g id="m"><use transform="matrix(0.009765625,0,0,0.009765625,0,0)" xlink:href="#aA"/><use transform="matrix(0.009765625,0,0,0.009765625,12.001953125,0)" xlink:href="#aB"/><use transform="matrix(0.009765625,0,0,0.009765625,24.00390625,0)" xlink:href="#aC"/><use transform="matrix(0.009765625,0,0,0.009765625,36.005859375,0)" xlink:href="#aD"/></g><path d="M745-142h380V0H143v-142h422v-798H246v-142h499v940zM545-1292v-192h200v192H545" id="aE"/><path d="M1048-32c-2 300-135 456-433 456-222-1-358-88-400-267l184-25c22 99 100 157 222 156 184-2 248-125 248-315 0-64 3-133-2-194C807-100 706-13 524-12c-306 0-381-228-381-537 0-318 85-550 400-550 164 0 271 83 325 202h3c1-60 3-134 12-185h171c-13 339-4 702-6 1050zM585-145c210-8 284-178 284-406 0-192-52-331-177-392-33-16-69-22-104-22-223 2-259 184-259 414 0 229 31 415 256 406" id="aF"/><g id="n"><use transform="matrix(0.009765625,0,0,0.009765625,0,0)" xlink:href="#ar"/><use transform="matrix(0.009765625,0,0,0.009765625,12.001953125,0)" xlink:href="#aE"/><use transform="matrix(0.009765625,0,0,0.009765625,24.00390625,0)" xlink:href="#aF"/><use transform="matrix(0.009765625,0,0,0.009765625,36.005859375,0)" xlink:href="#ax"/><use transform="matrix(0.009765625,0,0,0.009765625,48.0078125,0)" xlink:href="#aw"/><use transform="matrix(0.009765625,0,0,0.009765625,60.009765625,0)" xlink:href="#az"/></g><path fill="#e81313" d="M1121-976c0 225-142 341-344 379L1177 0H957L591-575H353V0H162v-1349h482c281 3 477 100 477 373zM633-726c181-1 296-73 296-247 0-149-101-223-304-223H353v470h280" id="aG"/><path fill="#e81313" d="M617-1102c355 0 481 238 477 599H322c5 222 84 388 301 388 144 0 244-59 284-166l158 45C1002-72 854 20 623 20c-342 0-490-220-490-568 0-346 151-554 484-554zm291 461c-18-192-90-328-289-328-194 0-287 128-295 328h584" id="aH"/><path fill="#e81313" d="M865-914c-3-187-2-380-2-570h180v1261c0 76 1 155 6 223H877c-8-49-9-116-10-174h-5C801-44 708 26 530 26c-135 0-234-46-297-139s-95-232-95-419c0-377 131-566 392-566 176 0 271 63 335 184zm-286-51c-222 0-255 197-255 427 0 229 31 425 253 425 237 0 286-195 286-441 0-238-52-411-284-411" id="aI"/><g id="o"><use transform="matrix(0.009765625,0,0,0.009765625,0,0)" xlink:href="#aG"/><use transform="matrix(0.009765625,0,0,0.009765625,12.001953125,0)" xlink:href="#aH"/><use transform="matrix(0.009765625,0,0,0.009765625,24.00390625,0)" xlink:href="#aI"/></g><path d="M736-142h380V0H134v-142h422v-1200H267v-142h469v1342" id="aJ"/><path d="M839-1335c-182-6-269 67-259 253h491v142H580V0H400v-940H138v-142h262c-15-293 132-408 418-402 94 2 200 7 281 21v145c-75-10-177-14-260-17" id="aK"/><g id="p"><use transform="matrix(0.009765625,0,0,0.009765625,0,0)" xlink:href="#aJ"/><use transform="matrix(0.009765625,0,0,0.009765625,12.001953125,0)" xlink:href="#as"/><use transform="matrix(0.009765625,0,0,0.009765625,24.00390625,0)" xlink:href="#aK"/><use transform="matrix(0.009765625,0,0,0.009765625,36.005859375,0)" xlink:href="#aw"/><use transform="matrix(0.009765625,0,0,0.009765625,48.0078125,0)" xlink:href="#az"/></g><path d="M622-1349c296 4 497 117 497 404 0 282-193 424-485 431H353V0H162v-1349h460zm-15 684c195-3 320-88 320-277 0-184-129-255-328-254H353v531h254" id="aL"/><path d="M865-914c-3-187-2-380-2-570h180v1261c0 76 1 155 6 223H877c-8-49-9-116-10-174h-5C801-44 708 26 530 26c-135 0-234-46-297-139s-95-232-95-419c0-377 131-566 392-566 176 0 271 63 335 184zm-286-51c-222 0-255 197-255 427 0 229 31 425 253 425 237 0 286-195 286-441 0-238-52-411-284-411" id="aM"/><g id="q"><use transform="matrix(0.009765625,0,0,0.009765625,0,0)" xlink:href="#aL"/><use transform="matrix(0.009765625,0,0,0.009765625,12.001953125,0)" xlink:href="#ar"/><use transform="matrix(0.009765625,0,0,0.009765625,24.00390625,0)" xlink:href="#as"/><use transform="matrix(0.009765625,0,0,0.009765625,36.005859375,0)" xlink:href="#ay"/><use transform="matrix(0.009765625,0,0,0.009765625,48.0078125,0)" xlink:href="#ar"/><use transform="matrix(0.009765625,0,0,0.009765625,60.009765625,0)" xlink:href="#aM"/><use transform="matrix(0.009765625,0,0,0.009765625,72.01171875,0)" xlink:href="#as"/><use transform="matrix(0.009765625,0,0,0.009765625,84.013671875,0)" xlink:href="#ar"/></g><use transform="matrix(0.009765625,0,0,0.009765625,0,0)" xlink:href="#Y" id="r"/><use transform="matrix(0.009765625,0,0,0.009765625,0,0)" xlink:href="#Z" id="s"/><g id="t"><use transform="matrix(0.009765625,0,0,0.009765625,0,0)" xlink:href="#aa"/><use transform="matrix(0.009765625,0,0,0.009765625,12.001953125,0)" xlink:href="#ab"/></g><g id="u"><use transform="matrix(0.009765625,0,0,0.009765625,0,0)" xlink:href="#ac"/><use transform="matrix(0.009765625,0,0,0.009765625,12.001953125,0)" xlink:href="#ad"/></g><use transform="matrix(0.009765625,0,0,0.009765625,0,0)" xlink:href="#ae" id="v"/><path d="M202-1349h823v156H709v1037h316V0H202v-156h316v-1037H202v-156" id="aN"/><g id="w"><use transform="matrix(0.009765625,0,0,0.009765625,0,0)" xlink:href="#aN"/><use transform="matrix(0.009765625,0,0,0.009765625,12.001953125,0)" xlink:href="#av"/><use transform="matrix(0.009765625,0,0,0.009765625,24.00390625,0)" xlink:href="#ay"/><use transform="matrix(0.009765625,0,0,0.009765625,36.005859375,0)" xlink:href="#ar"/><use transform="matrix(0.009765625,0,0,0.009765625,48.0078125,0)" xlink:href="#aM"/><use transform="matrix(0.009765625,0,0,0.009765625,60.009765625,0)" xlink:href="#as"/><use transform="matrix(0.009765625,0,0,0.009765625,72.01171875,0)" xlink:href="#ar"/></g><use transform="matrix(0.009765625,0,0,0.009765625,0,0)" xlink:href="#Y" id="x"/><path d="M891-1484c-201 251-362 514-362 954 0 441 161 704 362 955H701C500 176 342-90 342-532c0-440 159-704 359-952h190" id="aO"/><path d="M904-1102c199 0 220 177 220 381V0H956v-686c-3-114 0-215-60-264-70-33-125-4-158 71-26 56-39 140-39 252V0H531v-686c-3-114-1-215-61-264-78-41-136 24-157 84-24 69-39 159-39 259V0H105c-3-360 6-732-6-1082h149c6 50 3 123 8 175 36-100 83-195 216-195 135 0 166 79 196 196 42-105 93-196 236-196" id="aP"/><path d="M528-1484c201 248 357 511 357 952 0 442-156 709-357 957H336C537 174 700-89 700-530c0-440-163-703-364-954h192" id="aQ"/><g id="y"><use transform="matrix(0.009765625,0,0,0.009765625,0,0)" xlink:href="#aO"/><use transform="matrix(0.009765625,0,0,0.009765625,12.001953125,0)" xlink:href="#aP"/><use transform="matrix(0.009765625,0,0,0.009765625,24.00390625,0)" xlink:href="#aE"/><use transform="matrix(0.009765625,0,0,0.009765625,36.005859375,0)" xlink:href="#aM"/><use transform="matrix(0.009765625,0,0,0.009765625,48.0078125,0)" xlink:href="#aQ"/></g><path d="M237 0v-1349h191v1193h672V0H237" id="aR"/><g id="z"><use transform="matrix(0.009765625,0,0,0.009765625,0,0)" xlink:href="#aR"/><use transform="matrix(0.009765625,0,0,0.009765625,12.001953125,0)" xlink:href="#as"/><use transform="matrix(0.009765625,0,0,0.009765625,24.00390625,0)" xlink:href="#aK"/><use transform="matrix(0.009765625,0,0,0.009765625,36.005859375,0)" xlink:href="#aw"/></g><g id="A"><use transform="matrix(0.009765625,0,0,0.009765625,0,0)" xlink:href="#aL"/><use transform="matrix(0.009765625,0,0,0.009765625,12.001953125,0)" xlink:href="#ar"/><use transform="matrix(0.009765625,0,0,0.009765625,24.00390625,0)" xlink:href="#as"/><use transform="matrix(0.009765625,0,0,0.009765625,36.005859375,0)" xlink:href="#ay"/><use transform="matrix(0.009765625,0,0,0.009765625,48.0078125,0)" xlink:href="#ar"/><use transform="matrix(0.009765625,0,0,0.009765625,60.009765625,0)" xlink:href="#aM"/><use transform="matrix(0.009765625,0,0,0.009765625,72.01171875,0)" xlink:href="#as"/><use transform="matrix(0.009765625,0,0,0.009765625,84.013671875,0)" xlink:href="#ar"/></g><g id="B"><use transform="matrix(0.009765625,0,0,0.009765625,0,0)" xlink:href="#aN"/><use transform="matrix(0.009765625,0,0,0.009765625,12.001953125,0)" xlink:href="#av"/><use transform="matrix(0.009765625,0,0,0.009765625,24.00390625,0)" xlink:href="#ay"/><use transform="matrix(0.009765625,0,0,0.009765625,36.005859375,0)" xlink:href="#ar"/><use transform="matrix(0.009765625,0,0,0.009765625,48.0078125,0)" xlink:href="#aM"/><use transform="matrix(0.009765625,0,0,0.009765625,60.009765625,0)" xlink:href="#as"/><use transform="matrix(0.009765625,0,0,0.009765625,72.01171875,0)" xlink:href="#ar"/></g><path d="M1121-976c0 225-142 341-344 379L1177 0H957L591-575H353V0H162v-1349h482c281 3 477 100 477 373zM633-726c181-1 296-73 296-247 0-149-101-223-304-223H353v470h280" id="aS"/><g id="C"><use transform="matrix(0.009765625,0,0,0.009765625,0,0)" xlink:href="#aS"/><use transform="matrix(0.009765625,0,0,0.009765625,12.001953125,0)" xlink:href="#aE"/><use transform="matrix(0.009765625,0,0,0.009765625,24.00390625,0)" xlink:href="#aF"/><use transform="matrix(0.009765625,0,0,0.009765625,36.005859375,0)" xlink:href="#ax"/><use transform="matrix(0.009765625,0,0,0.009765625,48.0078125,0)" xlink:href="#aw"/></g><use transform="matrix(0.009765625,0,0,0.009765625,0,0)" xlink:href="#aN" id="D"/><path d="M168 279c222 39 310-114 368-290L66-1082h192c120 299 249 590 362 896 115-301 235-597 351-896h190L705 0c-65 164-130 320-275 396-67 36-177 35-262 18V279" id="aT"/><g id="E"><use transform="matrix(0.009765625,0,0,0.009765625,0,0)" xlink:href="#ax"/><use transform="matrix(0.009765625,0,0,0.009765625,12.001953125,0)" xlink:href="#aE"/><use transform="matrix(0.009765625,0,0,0.009765625,24.00390625,0)" xlink:href="#aF"/><use transform="matrix(0.009765625,0,0,0.009765625,36.005859375,0)" xlink:href="#ax"/><use transform="matrix(0.009765625,0,0,0.009765625,48.0078125,0)" xlink:href="#aJ"/><use transform="matrix(0.009765625,0,0,0.009765625,60.009765625,0)" xlink:href="#aT"/></g><path d="M631 20c-350 0-501-215-501-562 0-355 162-560 502-560 250 0 399 118 446 323l-192 14c-23-124-109-196-262-196-242 0-305 171-305 415 1 245 61 427 304 427 151 0 248-77 267-215l190 12C1039-107 883 20 631 20" id="aU"/><path d="M528 20c-247 0-343-132-343-381v-721h180v686c-4 177 45 284 224 277 194-8 279-136 279-336v-627h181c3 360-6 732 6 1082H885c-4-54-7-126-8-185h-3C809-64 714 20 528 20" id="aV"/><path d="M1000-272c3 95 12 159 101 161 21 0 41-3 59-7V-6c-44 10-86 16-139 16-141 2-191-84-197-217h-6C748-76 648 20 446 20c-207 0-318-120-318-322 0-266 194-348 454-354l236-4c12-191-40-305-222-305-140 0-220 47-232 172l-188-17c33-204 181-292 423-292 255 0 401 118 401 364v466zm-683-27c0 109 63 184 175 182 166-3 259-96 306-217 24-65 20-120 20-200-232 7-501-28-501 235" id="aW"/><g id="F"><use transform="matrix(0.009765625,0,0,0.009765625,0,0)" xlink:href="#as"/><use transform="matrix(0.009765625,0,0,0.009765625,12.001953125,0)" xlink:href="#av"/><use transform="matrix(0.009765625,0,0,0.009765625,24.00390625,0)" xlink:href="#aU"/><use transform="matrix(0.009765625,0,0,0.009765625,36.005859375,0)" xlink:href="#ay"/><use transform="matrix(0.009765625,0,0,0.009765625,48.0078125,0)" xlink:href="#aV"/><use transform="matrix(0.009765625,0,0,0.009765625,60.009765625,0)" xlink:href="#ar"/><use transform="matrix(0.009765625,0,0,0.009765625,72.01171875,0)" xlink:href="#aW"/><use transform="matrix(0.009765625,0,0,0.009765625,84.013671875,0)" xlink:href="#aF"/><use transform="matrix(0.009765625,0,0,0.009765625,96.015625,0)" xlink:href="#as"/></g><g id="G"><use transform="matrix(0.009765625,0,0,0.009765625,0,0)" xlink:href="#aT"/><use transform="matrix(0.009765625,0,0,0.009765625,12.001953125,0)" xlink:href="#ay"/><use transform="matrix(0.009765625,0,0,0.009765625,24.00390625,0)" xlink:href="#aV"/></g><g id="H"><use transform="matrix(0.009765625,0,0,0.009765625,0,0)" xlink:href="#aw"/><use transform="matrix(0.009765625,0,0,0.009765625,12.001953125,0)" xlink:href="#ay"/></g><path d="M365-904c58-129 161-200 334-200 130 0 228 46 293 138s98 233 98 420c0 189-34 331-102 425S824 20 698 20c-170 0-275-64-336-184 0 55-3 116-9 164H179c5-68 6-147 6-223v-1261h180c-2 193 4 394-4 580h4zm283 791c221 0 256-197 256-427 0-229-34-425-254-425-236 0-285 195-285 441 0 237 53 411 283 411" id="aX"/><g id="I"><use transform="matrix(0.009765625,0,0,0.009765625,0,0)" xlink:href="#aX"/><use transform="matrix(0.009765625,0,0,0.009765625,12.001953125,0)" xlink:href="#aV"/><use transform="matrix(0.009765625,0,0,0.009765625,24.00390625,0)" xlink:href="#aE"/><use transform="matrix(0.009765625,0,0,0.009765625,36.005859375,0)" xlink:href="#aJ"/><use transform="matrix(0.009765625,0,0,0.009765625,48.0078125,0)" xlink:href="#aM"/></g><g id="J"><use transform="matrix(0.009765625,0,0,0.009765625,0,0)" xlink:href="#aV"/><use transform="matrix(0.009765625,0,0,0.009765625,12.001953125,0)" xlink:href="#at"/><use transform="matrix(0.009765625,0,0,0.009765625,24.00390625,0)" xlink:href="#ay"/><use transform="matrix(0.009765625,0,0,0.009765625,36.005859375,0)" xlink:href="#av"/></g><g id="K"><use transform="matrix(0.009765625,0,0,0.009765625,0,0)" xlink:href="#aw"/><use transform="matrix(0.009765625,0,0,0.009765625,12.001953125,0)" xlink:href="#ax"/><use transform="matrix(0.009765625,0,0,0.009765625,24.00390625,0)" xlink:href="#aE"/><use transform="matrix(0.009765625,0,0,0.009765625,36.005859375,0)" xlink:href="#au"/></g><g id="L"><use transform="matrix(0.009765625,0,0,0.009765625,0,0)" xlink:href="#aM"/><use transform="matrix(0.009765625,0,0,0.009765625,12.001953125,0)" xlink:href="#aE"/><use transform="matrix(0.009765625,0,0,0.009765625,24.00390625,0)" xlink:href="#aW"/><use transform="matrix(0.009765625,0,0,0.009765625,36.005859375,0)" xlink:href="#aF"/><use transform="matrix(0.009765625,0,0,0.009765625,48.0078125,0)" xlink:href="#ar"/><use transform="matrix(0.009765625,0,0,0.009765625,60.009765625,0)" xlink:href="#aW"/><use transform="matrix(0.009765625,0,0,0.009765625,72.01171875,0)" xlink:href="#aP"/><use transform="matrix(0.009765625,0,0,0.009765625,84.013671875,0)" xlink:href="#az"/></g><path d="M709-1193V0H519v-1193H76v-156h1076v156H709" id="aY"/><g id="M"><use transform="matrix(0.009765625,0,0,0.009765625,0,0)" xlink:href="#aY"/><use transform="matrix(0.009765625,0,0,0.009765625,12.001953125,0)" xlink:href="#ax"/><use transform="matrix(0.009765625,0,0,0.009765625,24.00390625,0)" xlink:href="#as"/></g><path d="M715 0H502L69-1082h202c94 253 197 500 285 758 19 57 36 126 52 183 96-335 234-626 350-941h201" id="aZ"/><g id="N"><use transform="matrix(0.009765625,0,0,0.009765625,0,0)" xlink:href="#ar"/><use transform="matrix(0.009765625,0,0,0.009765625,12.001953125,0)" xlink:href="#as"/><use transform="matrix(0.009765625,0,0,0.009765625,24.00390625,0)" xlink:href="#aU"/><use transform="matrix(0.009765625,0,0,0.009765625,36.005859375,0)" xlink:href="#aV"/><use transform="matrix(0.009765625,0,0,0.009765625,48.0078125,0)" xlink:href="#ar"/><use transform="matrix(0.009765625,0,0,0.009765625,60.009765625,0)" xlink:href="#au"/><use transform="matrix(0.009765625,0,0,0.009765625,72.01171875,0)" xlink:href="#aE"/><use transform="matrix(0.009765625,0,0,0.009765625,84.013671875,0)" xlink:href="#aZ"/><use transform="matrix(0.009765625,0,0,0.009765625,96.015625,0)" xlink:href="#as"/></g><g id="O"><use transform="matrix(0.009765625,0,0,0.009765625,0,0)" xlink:href="#at"/><use transform="matrix(0.009765625,0,0,0.009765625,12.001953125,0)" xlink:href="#aW"/><use transform="matrix(0.009765625,0,0,0.009765625,24.00390625,0)" xlink:href="#ar"/><use transform="matrix(0.009765625,0,0,0.009765625,36.005859375,0)" xlink:href="#aw"/></g><g id="P"><use transform="matrix(0.009765625,0,0,0.009765625,0,0)" xlink:href="#ay"/><use transform="matrix(0.009765625,0,0,0.009765625,12.001953125,0)" xlink:href="#aK"/></g><g id="Q"><use transform="matrix(0.009765625,0,0,0.009765625,0,0)" xlink:href="#aw"/><use transform="matrix(0.009765625,0,0,0.009765625,12.001953125,0)" xlink:href="#ax"/><use transform="matrix(0.009765625,0,0,0.009765625,24.00390625,0)" xlink:href="#aE"/><use transform="matrix(0.009765625,0,0,0.009765625,36.005859375,0)" xlink:href="#au"/></g><g id="R"><use transform="matrix(0.009765625,0,0,0.009765625,0,0)" xlink:href="#at"/><use transform="matrix(0.009765625,0,0,0.009765625,12.001953125,0)" xlink:href="#ar"/><use transform="matrix(0.009765625,0,0,0.009765625,24.00390625,0)" xlink:href="#ay"/><use transform="matrix(0.009765625,0,0,0.009765625,36.005859375,0)" xlink:href="#aX"/><use transform="matrix(0.009765625,0,0,0.009765625,48.0078125,0)" xlink:href="#aJ"/><use transform="matrix(0.009765625,0,0,0.009765625,60.009765625,0)" xlink:href="#as"/><use transform="matrix(0.009765625,0,0,0.009765625,72.01171875,0)" xlink:href="#aP"/></g><g id="S"><use transform="matrix(0.009765625,0,0,0.009765625,0,0)" xlink:href="#aU"/><use transform="matrix(0.009765625,0,0,0.009765625,12.001953125,0)" xlink:href="#ay"/><use transform="matrix(0.009765625,0,0,0.009765625,24.00390625,0)" xlink:href="#aP"/><use transform="matrix(0.009765625,0,0,0.009765625,36.005859375,0)" xlink:href="#as"/><use transform="matrix(0.009765625,0,0,0.009765625,48.0078125,0)" xlink:href="#au"/></g><g id="T"><use transform="matrix(0.009765625,0,0,0.009765625,0,0)" xlink:href="#aK"/><use transform="matrix(0.009765625,0,0,0.009765625,12.001953125,0)" xlink:href="#ar"/><use transform="matrix(0.009765625,0,0,0.009765625,24.00390625,0)" xlink:href="#ay"/><use transform="matrix(0.009765625,0,0,0.009765625,36.005859375,0)" xlink:href="#aP"/></g><g id="U"><use transform="matrix(0.009765625,0,0,0.009765625,0,0)" xlink:href="#aw"/><use transform="matrix(0.009765625,0,0,0.009765625,12.001953125,0)" xlink:href="#aW"/><use transform="matrix(0.009765625,0,0,0.009765625,24.00390625,0)" xlink:href="#aX"/><use transform="matrix(0.009765625,0,0,0.009765625,36.005859375,0)" xlink:href="#aJ"/><use transform="matrix(0.009765625,0,0,0.009765625,48.0078125,0)" xlink:href="#as"/></g><g id="V"><use transform="matrix(0.009765625,0,0,0.009765625,0,0)" xlink:href="#aJ"/><use transform="matrix(0.009765625,0,0,0.009765625,12.001953125,0)" xlink:href="#aW"/><use transform="matrix(0.009765625,0,0,0.009765625,24.00390625,0)" xlink:href="#aX"/><use transform="matrix(0.009765625,0,0,0.009765625,36.005859375,0)" xlink:href="#as"/><use transform="matrix(0.009765625,0,0,0.009765625,48.0078125,0)" xlink:href="#aJ"/><use transform="matrix(0.009765625,0,0,0.009765625,60.009765625,0)" xlink:href="#as"/><use transform="matrix(0.009765625,0,0,0.009765625,72.01171875,0)" xlink:href="#aM"/></g><g id="W"><use transform="matrix(0.009765625,0,0,0.009765625,0,0)" xlink:href="#aE"/><use transform="matrix(0.009765625,0,0,0.009765625,12.001953125,0)" xlink:href="#av"/></g><g id="X"><use transform="matrix(0.009765625,0,0,0.009765625,0,0)" xlink:href="#aw"/><use transform="matrix(0.009765625,0,0,0.009765625,12.001953125,0)" xlink:href="#as"/><use transform="matrix(0.009765625,0,0,0.009765625,24.00390625,0)" xlink:href="#aW"/><use transform="matrix(0.009765625,0,0,0.009765625,36.005859375,0)" xlink:href="#aJ"/><use transform="matrix(0.009765625,0,0,0.009765625,48.0078125,0)" xlink:href="#az"/></g></defs></g></svg>