<svg xmlns="http://www.w3.org/2000/svg" xmlns:xlink="http://www.w3.org/1999/xlink" xmlns:lucid="lucid" width="416.35" height="1082"><g transform="translate(-606.4935478397101 -179)" lucid:page-tab-id="0_0"><path d="M772 310.53a6 6 0 0 1 6-6h73.33a6 6 0 0 1 6 6v75.93a6 6 0 0 1-6 6H778a6 6 0 0 1-6-6z" stroke="#000" stroke-width="2" fill="#fff"/><use xlink:href="#a" transform="matrix(1,0,0,1,777.0000000000001,309.53333333333336) translate(28.049913194444443 31.27777777777778)"/><use xlink:href="#b" transform="matrix(1,0,0,1,777.0000000000001,309.53333333333336) translate(11.383246527777779 63.54340277777778)"/><use xlink:href="#c" transform="matrix(1,0,0,1,777.0000000000001,309.53333333333336) translate(41.17925347222222 63.54340277777778)"/><path d="M814.67 393.96v25.08" stroke="#3a414a" fill="none"/><path d="M815.14 393.97h-.95v-.5h.94z" stroke="#3a414a" stroke-width=".05" fill="#3a414a"/><path d="M814.67 433.8l-4.64-14.26h9.27z" stroke="#3a414a" fill="#3a414a"/><path d="M772 442.42a6 6 0 0 1 6-6h73.33a6 6 0 0 1 6 6v75.92a6 6 0 0 1-6 6H778a6 6 0 0 1-6-6z" stroke="#000" stroke-width="2" fill="#fff"/><use xlink:href="#d" transform="matrix(1,0,0,1,777.0000000000001,441.41904761904766) translate(27.62673611111111 31.27777777777778)"/><use xlink:href="#e" transform="matrix(1,0,0,1,777.0000000000001,441.41904761904766) translate(6.142361111111114 63.54340277777778)"/><use xlink:href="#f" transform="matrix(1,0,0,1,777.0000000000001,441.41904761904766) translate(40.45225694444444 63.54340277777778)"/><path d="M734.67 186a6 6 0 0 1 6-6h148a6 6 0 0 1 6 6v68a6 6 0 0 1-6 6h-148a6 6 0 0 1-6-6z" stroke="#000" stroke-width="2" fill="#d7faf5"/><use xlink:href="#g" transform="matrix(1,0,0,1,739.6666666666667,185) translate(29.958767361111107 25.90277777777778)"/><use xlink:href="#h" transform="matrix(1,0,0,1,739.6666666666667,185) translate(5.056423611111114 58.16840277777778)"/><use xlink:href="#i" transform="matrix(1,0,0,1,739.6666666666667,185) translate(62.48914930555556 58.16840277777778)"/><path d="M814.67 525.84v25.08" stroke="#3a414a" fill="none"/><path d="M815.14 525.86h-.95v-.52h.94z" stroke="#3a414a" stroke-width=".05" fill="#3a414a"/><path d="M814.67 565.7l-4.64-14.28h9.27z" stroke="#3a414a" fill="#3a414a"/><path d="M772 574.3a6 6 0 0 1 6-6h73.33a6 6 0 0 1 6 6v75.93a6 6 0 0 1-6 6H778a6 6 0 0 1-6-6z" stroke="#000" stroke-width="2" fill="#fff"/><use xlink:href="#j" transform="matrix(1,0,0,1,777.0000000000001,573.3047619047619) translate(27.94140625 31.27777777777778)"/><use xlink:href="#k" transform="matrix(1,0,0,1,777.0000000000001,573.3047619047619) translate(8.003255208333332 63.54340277777778)"/><use xlink:href="#l" transform="matrix(1,0,0,1,777.0000000000001,573.3047619047619) translate(41.98763020833333 63.54340277777778)"/><path d="M814.67 657.73v25.08" stroke="#3a414a" fill="none"/><path d="M815.14 657.74h-.95v-.5h.94z" stroke="#3a414a" stroke-width=".05" fill="#3a414a"/><path d="M814.67 697.57l-4.64-14.26h9.27z" stroke="#3a414a" fill="#3a414a"/><path d="M772 706.2a6 6 0 0 1 6-6h73.33a6 6 0 0 1 6 6v75.9a6 6 0 0 1-6 6H778a6 6 0 0 1-6-6z" stroke="#000" stroke-width="2" fill="#fff"/><use xlink:href="#m" transform="matrix(1,0,0,1,777.0000000000001,705.1904761904763) translate(28.028211805555557 31.27777777777778)"/><use xlink:href="#n" transform="matrix(1,0,0,1,777.0000000000001,705.1904761904763) translate(10.797309027777779 63.54340277777778)"/><use xlink:href="#o" transform="matrix(1,0,0,1,777.0000000000001,705.1904761904763) translate(45.161458333333336 63.54340277777778)"/><path d="M814.67 789.6v25.1" stroke="#3a414a" fill="none"/><path d="M815.14 789.63h-.95v-.52h.94z" stroke="#3a414a" stroke-width=".05" fill="#3a414a"/><path d="M814.67 829.46l-4.64-14.27h9.27z" stroke="#3a414a" fill="#3a414a"/><path d="M772 838.08a6 6 0 0 1 6-6h73.33a6 6 0 0 1 6 6V914a6 6 0 0 1-6 6H778a6 6 0 0 1-6-6z" stroke="#000" stroke-width="2" fill="#edf5ff"/><use xlink:href="#p" transform="matrix(1,0,0,1,777.0000000000001,837.0761904761906) translate(33.480685763888886 31.27777777777778)"/><use xlink:href="#n" transform="matrix(1,0,0,1,777.0000000000001,837.0761904761906) translate(13.78125 63.54340277777778)"/><use xlink:href="#q" transform="matrix(1,0,0,1,777.0000000000001,837.0761904761906) translate(48.14539930555556 63.54340277777778)"/><path d="M898.8 870.06l-.07 1-.24.98-.4.94-.53.87-.66.77-.76.66-.87.53-.93.4-1 .23-1 .08h-33.5v-.94h33.48l.88-.07.84-.2.8-.34.74-.45.66-.56.56-.66.46-.73.33-.8.2-.85.06-.88v-49.17h.95zm-5.45-126.3l1 .23.92.38.87.53.77.67.67.78.53.86.4.95.23 1 .08.98v49.2h-.94v-49.16l-.07-.88-.2-.85-.35-.8-.45-.74-.56-.65-.66-.57-.74-.45-.8-.33-.84-.2-.88-.07h-17.6v-.95h17.63z" stroke="#3a414a" stroke-width=".05" fill="#3a414a"/><path d="M858.85 876.5h-.52v-.94h.52z" fill="#3a414a"/><path stroke="#3a414a" stroke-width=".05" fill="#3a414a"/><path d="M874.22 748.8l-14.27-4.65 14.27-4.63z" fill="#3a414a"/><path d="M874.7 749.44l-16.3-5.3 16.3-5.28zm-13.2-5.3l12.24 4v-7.97z" stroke="#3a414a" stroke-width=".05" fill="#3a414a"/><use xlink:href="#r" transform="matrix(1,0,0,1,894.5008177222228,799.3400297211008) translate(0.004999999999999893 17.22222222222222)"/><path d="M898.8 724.62l-.07 1-.24.98-.4.94-.53.87-.66.78-.76.66-.87.53-.93.4-1 .23-1 .08h-33.5v-.96h33.48l.88-.06.84-.2.8-.34.74-.45.66-.56.56-.65.46-.74.33-.8.2-.84.06-.88v-29.5h.95zm-5.45-112.75l1 .24.92.4.87.53.77.66.67.76.53.87.4.93.23 1 .08 1v29.5h-.94V618.3l-.07-.88-.2-.84-.35-.8-.45-.74-.56-.66-.66-.56-.74-.45-.8-.34-.84-.2-.88-.06h-17.6v-.95h17.63z" stroke="#3a414a" stroke-width=".05" fill="#3a414a"/><path d="M858.85 731.08h-.52v-.96h.52z" fill="#3a414a"/><path stroke="#3a414a" stroke-width=".05" fill="#3a414a"/><path d="M874.22 616.9l-14.27-4.63 14.27-4.64z" fill="#3a414a"/><path d="M874.7 617.56l-16.3-5.3 16.3-5.28zm-13.2-5.3l12.24 4v-7.98z" stroke="#3a414a" stroke-width=".05" fill="#3a414a"/><use xlink:href="#s" transform="matrix(1,0,0,1,872.8601927222228,647.7718852860439) translate(19.879131944444445 17.22222222222222)"/><use xlink:href="#t" transform="matrix(1,0,0,1,872.8601927222228,647.7718852860439) translate(0.004999999999999005 43.034722222222214)"/><use xlink:href="#u" transform="matrix(1,0,0,1,872.8601927222228,647.7718852860439) translate(22.114375 43.034722222222214)"/><use xlink:href="#v" transform="matrix(1,0,0,1,872.8601927222228,647.7718852860439) translate(36.26368055555555 43.034722222222214)"/><path d="M898.8 591.42l-.07 1-.24.98-.4.94-.53.87-.66.78-.76.66-.87.53-.93.4-1 .23-1 .08h-33.5v-.96h33.48l.88-.06.84-.2.8-.34.74-.45.66-.56.56-.65.46-.74.33-.8.2-.84.06-.88v-28.83h.95zm-5.45-111.44l1 .24.92.4.87.52.77.66.67.77.53.87.4.94.23 1 .08.98v28.87h-.94V486.4l-.07-.88-.2-.85-.35-.8-.45-.74-.56-.65-.66-.57-.74-.44-.8-.33-.84-.2-.88-.07h-17.6v-.95h17.63z" stroke="#3a414a" stroke-width=".05" fill="#3a414a"/><path d="M858.85 597.88h-.52v-.96h.52z" fill="#3a414a"/><path stroke="#3a414a" stroke-width=".05" fill="#3a414a"/><path d="M874.22 485.02l-14.27-4.64 14.27-4.63z" fill="#3a414a"/><path d="M874.7 485.67l-16.3-5.3 16.3-5.28zm-13.2-5.3l12.24 4v-7.97z" stroke="#3a414a" stroke-width=".05" fill="#3a414a"/><use xlink:href="#w" transform="matrix(1,0,0,1,871.1154010555562,515.2290269013444) translate(21.450312500000003 17.22222222222222)"/><use xlink:href="#x" transform="matrix(1,0,0,1,871.1154010555562,515.2290269013444) translate(0.004999999999999005 43.034722222222214)"/><use xlink:href="#u" transform="matrix(1,0,0,1,871.1154010555562,515.2290269013444) translate(22.392152777777778 43.034722222222214)"/><use xlink:href="#y" transform="matrix(1,0,0,1,871.1154010555562,515.2290269013444) translate(36.54145833333334 43.034722222222214)"/><path d="M898.8 459l-.07 1-.24 1-.4.93-.53.87-.66.77-.76.66-.87.53-.93.4-1 .22-1 .08h-33.5v-.95h33.48l.88-.06.84-.2.8-.33.74-.44.66-.57.56-.67.46-.74.33-.8.2-.85.06-.88V430.4h.95zm-5.45-110.9l1 .24.92.4.87.52.77.66.67.77.53.86.4.93.23.98.08 1v28.6h-.94V354.5l-.07-.87-.2-.84-.35-.8-.45-.75-.56-.66-.66-.57-.74-.46-.8-.33-.84-.2-.88-.07h-17.6v-.95h17.63z" stroke="#3a414a" stroke-width=".05" fill="#3a414a"/><path d="M858.85 465.46h-.52v-.95h.52z" fill="#3a414a"/><path stroke="#3a414a" stroke-width=".05" fill="#3a414a"/><path d="M874.22 353.13l-14.27-4.63 14.27-4.64z" fill="#3a414a"/><path d="M874.7 353.78l-16.3-5.28 16.3-5.3zm-13.2-5.28l12.24 3.98v-7.97z" stroke="#3a414a" stroke-width=".05" fill="#3a414a"/><g><use xlink:href="#z" transform="matrix(1,0,0,1,873.1032482777784,383.08005049672386) translate(13.763680555555553 17.22222222222222)"/><use xlink:href="#A" transform="matrix(1,0,0,1,873.1032482777784,383.08005049672386) translate(0.004999999999999005 43.034722222222214)"/><use xlink:href="#B" transform="matrix(1,0,0,1,873.1032482777784,383.08005049672386) translate(22.279305555555556 43.034722222222214)"/></g><path d="M684.55 419.04h-.95v-7.4h.95zm85.95-70.07h-80.4l-.9.07-.83.2-.8.33-.74.46-.66.56-.56.65-.45.74-.33.8-.2.83-.07.88v9.83h-.95v-9.85l.08-1 .24-1 .4-.93.52-.86.66-.78.77-.66.87-.53.94-.4.98-.23 1-.08h80.44z" stroke="#3a414a" stroke-width=".05" fill="#3a414a"/><path d="M771 348.97h-.5v-.95h.5z" fill="#3a414a"/><path stroke="#3a414a" stroke-width=".05" fill="#3a414a"/><path d="M684.08 433.8l-4.64-14.26h9.27z" fill="#3a414a"/><path d="M684.08 435.34l-5.3-16.28h10.6zm-4-15.33l4 12.26 3.98-12.25z" stroke="#3a414a" stroke-width=".05" fill="#3a414a"/><g><use xlink:href="#C" transform="matrix(1,0,0,1,651.0423382316044,364.3306487407408) translate(17.61350694444445 17.22222222222222)"/><use xlink:href="#D" transform="matrix(1,0,0,1,651.0423382316044,364.3306487407408) translate(0.005000000000002558 43.034722222222214)"/><use xlink:href="#u" transform="matrix(1,0,0,1,651.0423382316044,364.3306487407408) translate(33.85916666666667 43.034722222222214)"/><use xlink:href="#E" transform="matrix(1,0,0,1,651.0423382316044,364.3306487407408) translate(48.008472222222224 43.034722222222214)"/></g><path d="M640 442.42a6 6 0 0 1 6-6h73.33a6 6 0 0 1 6 6v75.92a6 6 0 0 1-6 6H646a6 6 0 0 1-6-6z" stroke="#000" stroke-width="2" fill="#c3f7c8"/><g><use xlink:href="#F" transform="matrix(1,0,0,1,645,441.41904761904766) translate(19.69487847222222 45.90277777777778)"/></g><path d="M607.5 966a6 6 0 0 1 6-6h402.34a6 6 0 0 1 6 6v288a6 6 0 0 1-6 6H613.5a6 6 0 0 1-6-6z" stroke="#000" stroke-width="2" fill="#fff3d9"/><g><use xlink:href="#G" transform="matrix(1,0,0,1,612.4935478397101,965) translate(4.816623263888886 39.71527777777778)"/><use xlink:href="#H" transform="matrix(1,0,0,1,612.4935478397101,965) translate(79.43684895833333 39.71527777777778)"/><use xlink:href="#I" transform="matrix(1,0,0,1,612.4935478397101,965) translate(129.93598090277777 39.71527777777778)"/><use xlink:href="#J" transform="matrix(1,0,0,1,612.4935478397101,965) translate(166.92599826388889 39.71527777777778)"/><use xlink:href="#K" transform="matrix(1,0,0,1,612.4935478397101,965) translate(264.1265190972222 39.71527777777778)"/><use xlink:href="#L" transform="matrix(1,0,0,1,612.4935478397101,965) translate(303.7424045138889 39.71527777777778)"/><use xlink:href="#M" transform="matrix(1,0,0,1,612.4935478397101,965) translate(351.17078993055554 39.71527777777778)"/><use xlink:href="#K" transform="matrix(1,0,0,1,612.4935478397101,965) translate(11.896701388888886 71.98090277777777)"/><use xlink:href="#N" transform="matrix(1,0,0,1,612.4935478397101,965) translate(51.51258680555555 71.98090277777777)"/><use xlink:href="#O" transform="matrix(1,0,0,1,612.4935478397101,965) translate(99.75477430555554 71.98090277777777)"/><use xlink:href="#P" transform="matrix(1,0,0,1,612.4935478397101,965) translate(140.02170138888889 71.98090277777777)"/><use xlink:href="#K" transform="matrix(1,0,0,1,612.4935478397101,965) translate(233.47873263888889 71.98090277777777)"/><use xlink:href="#Q" transform="matrix(1,0,0,1,612.4935478397101,965) translate(273.09461805555554 71.98090277777777)"/><use xlink:href="#M" transform="matrix(1,0,0,1,612.4935478397101,965) translate(344.09071180555554 71.98090277777777)"/><use xlink:href="#K" transform="matrix(1,0,0,1,612.4935478397101,965) translate(124.48893229166667 104.24652777777777)"/><use xlink:href="#R" transform="matrix(1,0,0,1,612.4935478397101,965) translate(164.10481770833334 104.24652777777777)"/><use xlink:href="#S" transform="matrix(1,0,0,1,612.4935478397101,965) translate(246.25542534722223 104.24652777777777)"/><use xlink:href="#T" transform="matrix(1,0,0,1,612.4935478397101,965) translate(202.5 136.51215277777777)"/><use xlink:href="#U" transform="matrix(1,0,0,1,612.4935478397101,965) translate(107.01388888888889 168.77777777777777)"/><use xlink:href="#V" transform="matrix(1,0,0,1,612.4935478397101,965) translate(159.28168402777777 168.77777777777777)"/><use xlink:href="#W" transform="matrix(1,0,0,1,612.4935478397101,965) translate(180.234375 168.77777777777777)"/><use xlink:href="#X" transform="matrix(1,0,0,1,612.4935478397101,965) translate(238.18793402777777 168.77777777777777)"/><use xlink:href="#Y" transform="matrix(1,0,0,1,612.4935478397101,965) translate(111.28363715277777 201.04340277777777)"/><use xlink:href="#V" transform="matrix(1,0,0,1,612.4935478397101,965) translate(181.15125868055554 201.04340277777777)"/><use xlink:href="#Z" transform="matrix(1,0,0,1,612.4935478397101,965) translate(202.10394965277777 201.04340277777777)"/><use xlink:href="#aa" transform="matrix(1,0,0,1,612.4935478397101,965) translate(79.58875868055554 233.30902777777777)"/><use xlink:href="#ab" transform="matrix(1,0,0,1,612.4935478397101,965) translate(169.9858940972222 233.30902777777777)"/><use xlink:href="#V" transform="matrix(1,0,0,1,612.4935478397101,965) translate(201.48546006944443 233.30902777777777)"/><use xlink:href="#ac" transform="matrix(1,0,0,1,612.4935478397101,965) translate(222.43815104166666 233.30902777777777)"/><use xlink:href="#ad" transform="matrix(1,0,0,1,612.4935478397101,965) translate(28.612196180555543 265.57465277777777)"/><use xlink:href="#ae" transform="matrix(1,0,0,1,612.4935478397101,965) translate(108.41905381944443 265.57465277777777)"/><use xlink:href="#af" transform="matrix(1,0,0,1,612.4935478397101,965) translate(203.85091145833331 265.57465277777777)"/><use xlink:href="#V" transform="matrix(1,0,0,1,612.4935478397101,965) translate(232.26888020833331 265.57465277777777)"/><use xlink:href="#ag" transform="matrix(1,0,0,1,612.4935478397101,965) translate(253.22157118055554 265.57465277777777)"/></g><defs><path d="M626 20c-262 0-458-168-468-396h184c12 133 134 229 284 229 180 0 311-137 311-326 0-192-136-335-323-335-92 0-196 33-255 78l-178-22 88-738h784v167H429l-51 435h8c61-51 160-87 263-87 273 0 474 211 474 499 0 286-210 496-497 496" id="ah"/><path d="M204-479l-12-1011h204L383-479H204zm91 492c-75 0-135-60-135-134 0-75 60-135 135-135 74 0 134 60 134 135 0 74-60 134-134 134" id="ai"/><g id="a"><use transform="matrix(0.010850694444444444,0,0,0.010850694444444444,0,0)" xlink:href="#ah"/><use transform="matrix(0.010850694444444444,0,0,0.010850694444444444,13.509114583333332,0)" xlink:href="#ai"/></g><path d="M218-607c0-325 108-727 258-974h175c-155 315-250 682-250 974 0 265 78 531 250 886H476C306-10 218-315 218-607" id="aj"/><path d="M653-1490V0H466v-1314h-10L96-1047v-204l324-239h233" id="ak"/><path d="M128 359l88-567h206L266 359H128" id="al"/><g id="b"><use transform="matrix(0.010850694444444444,0,0,0.010850694444444444,0,0)" xlink:href="#aj"/><use transform="matrix(0.010850694444444444,0,0,0.010850694444444444,8.10546875,0)" xlink:href="#ak"/><use transform="matrix(0.010850694444444444,0,0,0.010850694444444444,17.14409722222222,0)" xlink:href="#al"/></g><path d="M600 0L52-1490h200c166 485 304 806 458 1336 156-533 285-846 449-1336h202L819 0H600" id="am"/><path d="M96 279C273-86 346-350 346-607c0-292-95-659-250-974h175c150 246 258 650 258 974 0 297-91 602-258 886H96" id="an"/><g id="c"><use transform="matrix(0.010850694444444444,0,0,0.010850694444444444,0,0)" xlink:href="#am"/><use transform="matrix(0.010850694444444444,0,0,0.010850694444444444,15.33203125,0)" xlink:href="#an"/></g><path d="M120-303v-155l652-1032h231v1020h202v167h-202V0H821v-303H120zm702-167v-782h-12L323-482v12h499" id="ao"/><g id="d"><use transform="matrix(0.010850694444444444,0,0,0.010850694444444444,0,0)" xlink:href="#ao"/><use transform="matrix(0.010850694444444444,0,0,0.010850694444444444,14.35546875,0)" xlink:href="#ai"/></g><path d="M154 0v-137l495-537c165-179 249-281 249-418 0-156-121-253-280-253-170 0-278 110-278 278H158c0-264 200-443 465-443 266 0 455 183 455 416 0 161-73 288-336 568L416-179v12h687V0H154" id="ap"/><g id="e"><use transform="matrix(0.010850694444444444,0,0,0.010850694444444444,0,0)" xlink:href="#aj"/><use transform="matrix(0.010850694444444444,0,0,0.010850694444444444,8.10546875,0)" xlink:href="#ap"/><use transform="matrix(0.010850694444444444,0,0,0.010850694444444444,21.65798611111111,0)" xlink:href="#al"/></g><path d="M370-1490V0H180v-1490h190" id="aq"/><g id="f"><use transform="matrix(0.010850694444444444,0,0,0.010850694444444444,0,0)" xlink:href="#aq"/><use transform="matrix(0.010850694444444444,0,0,0.010850694444444444,5.967881944444445,0)" xlink:href="#am"/><use transform="matrix(0.010850694444444444,0,0,0.010850694444444444,21.299913194444443,0)" xlink:href="#an"/></g><path d="M180 0v-1490h901v168H370v510h643v168H370V0H180" id="ar"/><path d="M471 26C259 26 90-98 90-318c0-256 228-303 435-329 202-27 287-16 287-108 0-139-79-219-234-219-161 0-248 86-283 164l-173-57c86-203 278-265 451-265 150 0 419 46 419 395V0H815v-152h-12C765-73 660 26 471 26zm31-159c199 0 310-134 310-271v-155c-30 35-226 55-295 64-131 17-246 59-246 186 0 116 97 176 231 176" id="as"/><path d="M613 24c-304 0-509-231-509-576 0-350 205-580 509-580 216 0 392 114 453 309l-173 49c-33-115-133-197-280-197-223 0-326 196-326 419 0 220 103 415 326 415 150 0 252-85 285-206l172 49C1010-95 832 24 613 24" id="at"/><path d="M598-1118v154H368v674c0 100 37 144 132 144 23 0 62-6 92-12L629-6c-37 13-88 20-134 20-193 0-307-107-307-290v-688H20v-154h168v-266h180v266h230" id="au"/><path d="M613 24c-304 0-509-231-509-576 0-350 205-580 509-580 305 0 511 230 511 580 0 345-206 576-511 576zm0-161c226 0 329-195 329-415 0-222-103-419-329-419-223 0-326 196-326 419 0 220 103 415 326 415" id="av"/><path d="M158 0v-1118h174v172h12c41-113 157-188 290-188 26 0 70 2 91 3v181c-11-2-60-10-108-10-161 0-279 109-279 260V0H158" id="aw"/><path d="M158 0v-1118h180V0H158zm91-1301c-68 0-125-53-125-119s57-119 125-119c69 0 126 53 126 119s-57 119-126 119" id="ax"/><path d="M338-1490V0H158v-1490h180" id="ay"/><g id="g"><use transform="matrix(0.010850694444444444,0,0,0.010850694444444444,0,0)" xlink:href="#ar"/><use transform="matrix(0.010850694444444444,0,0,0.010850694444444444,12.57595486111111,0)" xlink:href="#as"/><use transform="matrix(0.010850694444444444,0,0,0.010850694444444444,25.05425347222222,0)" xlink:href="#at"/><use transform="matrix(0.010850694444444444,0,0,0.010850694444444444,37.74956597222222,0)" xlink:href="#au"/><use transform="matrix(0.010850694444444444,0,0,0.010850694444444444,44.80251736111111,0)" xlink:href="#av"/><use transform="matrix(0.010850694444444444,0,0,0.010850694444444444,58.1271701388889,0)" xlink:href="#aw"/><use transform="matrix(0.010850694444444444,0,0,0.010850694444444444,66.84027777777779,0)" xlink:href="#ax"/><use transform="matrix(0.010850694444444444,0,0,0.010850694444444444,72.22222222222223,0)" xlink:href="#as"/><use transform="matrix(0.010850694444444444,0,0,0.010850694444444444,84.70052083333334,0)" xlink:href="#ay"/></g><path d="M784 20c-382 0-662-292-662-764 0-473 280-766 662-766s660 293 660 766c0 472-278 764-660 764zm0-176c266 0 475-207 475-588 0-383-209-590-475-590-268 0-477 208-477 590 0 380 209 588 477 588" id="az"/><path d="M338-670V0H158v-1118h173l1 207c72-158 192-221 342-221 226 0 378 139 378 422V0H872v-695c0-172-96-275-252-275-161 0-282 109-282 300" id="aA"/><path d="M628 24c-324 0-524-230-524-574 0-343 198-582 503-582 237 0 487 146 487 559v75H286c9 234 145 362 343 362 132 0 231-58 273-172l174 48C1024-91 857 24 628 24zM287-650h624c-17-190-120-322-304-322-192 0-309 151-320 322" id="aB"/><g id="h"><use transform="matrix(0.010850694444444444,0,0,0.010850694444444444,0,0)" xlink:href="#aj"/><use transform="matrix(0.010850694444444444,0,0,0.010850694444444444,8.10546875,0)" xlink:href="#az"/><use transform="matrix(0.010850694444444444,0,0,0.010850694444444444,25.09765625,0)" xlink:href="#aA"/><use transform="matrix(0.010850694444444444,0,0,0.010850694444444444,38.22699652777778,0)" xlink:href="#aB"/></g><path d="M180 0v-1490h528c311 0 458 177 458 395 0 191-114 278-244 313v14c139 9 302 137 302 371 0 225-148 397-499 397H180zm190-168h350c232 0 321-102 321-231 0-149-120-277-311-277H370v508zm0-668h328c160 0 286-101 286-255 0-129-87-231-280-231H370v486" id="aC"/><path d="M338-670V0H158v-1490h180v566c73-149 190-208 336-208 226 0 379 139 379 422V0H872v-695c0-172-96-275-252-275-161 0-282 109-282 300" id="aD"/><g id="i"><use transform="matrix(0.010850694444444444,0,0,0.010850694444444444,0,0)" xlink:href="#aC"/><use transform="matrix(0.010850694444444444,0,0,0.010850694444444444,14.539930555555555,0)" xlink:href="#aw"/><use transform="matrix(0.010850694444444444,0,0,0.010850694444444444,22.90581597222222,0)" xlink:href="#as"/><use transform="matrix(0.010850694444444444,0,0,0.010850694444444444,35.38411458333333,0)" xlink:href="#aA"/><use transform="matrix(0.010850694444444444,0,0,0.010850694444444444,48.51345486111111,0)" xlink:href="#at"/><use transform="matrix(0.010850694444444444,0,0,0.010850694444444444,61.20876736111111,0)" xlink:href="#aD"/><use transform="matrix(0.010850694444444444,0,0,0.010850694444444444,74.34895833333333,0)" xlink:href="#an"/></g><path d="M635 20c-292 0-500-160-510-396h192c11 142 145 229 315 229 187 0 323-105 323-260 0-161-125-274-346-274H488v-165h121c174 0 294-100 294-254 0-148-104-245-266-245-152 0-291 85-297 230H157c8-234 222-395 484-395 278 0 448 188 448 400 0 168-95 291-247 336v12c190 31 301 169 301 357 0 244-216 425-508 425" id="aE"/><g id="j"><use transform="matrix(0.010850694444444444,0,0,0.010850694444444444,0,0)" xlink:href="#aE"/><use transform="matrix(0.010850694444444444,0,0,0.010850694444444444,13.726128472222221,0)" xlink:href="#ai"/></g><g id="k"><use transform="matrix(0.010850694444444444,0,0,0.010850694444444444,0,0)" xlink:href="#aj"/><use transform="matrix(0.010850694444444444,0,0,0.010850694444444444,8.10546875,0)" xlink:href="#aE"/><use transform="matrix(0.010850694444444444,0,0,0.010850694444444444,21.33246527777778,0)" xlink:href="#al"/></g><g id="l"><use transform="matrix(0.010850694444444444,0,0,0.010850694444444444,0,0)" xlink:href="#aq"/><use transform="matrix(0.010850694444444444,0,0,0.010850694444444444,5.967881944444445,0)" xlink:href="#aq"/><use transform="matrix(0.010850694444444444,0,0,0.010850694444444444,11.93576388888889,0)" xlink:href="#aq"/><use transform="matrix(0.010850694444444444,0,0,0.010850694444444444,17.903645833333336,0)" xlink:href="#an"/></g><g id="m"><use transform="matrix(0.010850694444444444,0,0,0.010850694444444444,0,0)" xlink:href="#ap"/><use transform="matrix(0.010850694444444444,0,0,0.010850694444444444,13.55251736111111,0)" xlink:href="#ai"/></g><g id="n"><use transform="matrix(0.010850694444444444,0,0,0.010850694444444444,0,0)" xlink:href="#aj"/><use transform="matrix(0.010850694444444444,0,0,0.010850694444444444,8.10546875,0)" xlink:href="#ao"/><use transform="matrix(0.010850694444444444,0,0,0.010850694444444444,21.712239583333332,0)" xlink:href="#al"/></g><g id="o"><use transform="matrix(0.010850694444444444,0,0,0.010850694444444444,0,0)" xlink:href="#aq"/><use transform="matrix(0.010850694444444444,0,0,0.010850694444444444,5.967881944444445,0)" xlink:href="#aq"/><use transform="matrix(0.010850694444444444,0,0,0.010850694444444444,11.93576388888889,0)" xlink:href="#an"/></g><use transform="matrix(0.010850694444444444,0,0,0.010850694444444444,0,0)" xlink:href="#ak" id="p"/><g id="q"><use transform="matrix(0.010850694444444444,0,0,0.010850694444444444,0,0)" xlink:href="#aq"/><use transform="matrix(0.010850694444444444,0,0,0.010850694444444444,5.967881944444445,0)" xlink:href="#an"/></g><path fill="#333" d="M749-1490V0H444v-1221h-10L93-980v-279l329-231h327" id="aF"/><use transform="matrix(0.008680555555555556,0,0,0.008680555555555556,0,0)" xlink:href="#aF" id="r"/><path fill="#333" d="M124 0v-220l528-495c135-132 210-216 210-336 0-133-98-215-231-215-139 0-229 88-229 233H110c0-290 214-477 523-477 315 0 525 182 525 440 0 167-80 305-385 586L548-262v11h630V0H124" id="aG"/><use transform="matrix(0.008680555555555556,0,0,0.008680555555555556,0,0)" xlink:href="#aG" id="s"/><path fill="#333" d="M169-607c0-330 107-732 258-974h279c-145 311-231 674-231 974 0 262 67 512 231 886H427C258-1 169-307 169-607" id="aH"/><g id="t"><use transform="matrix(0.008680555555555556,0,0,0.008680555555555556,0,0)" xlink:href="#aH"/><use transform="matrix(0.008680555555555556,0,0,0.008680555555555556,6.701388888888889,0)" xlink:href="#aG"/></g><path fill="#333" d="M476-652l19-284-238 159-97-168 257-125-257-125 97-170 238 159-19-284h192l-18 284 238-159 95 170-255 125 255 125-95 168-238-159 18 284H476" id="aI"/><use transform="matrix(0.008680555555555556,0,0,0.008680555555555556,0,0)" xlink:href="#aI" id="u"/><path fill="#333" d="M67 279c166-379 230-627 230-886 0-300-86-663-230-974h278c151 241 258 644 258 974 0 302-90 608-258 886H67" id="aJ"/><g id="v"><use transform="matrix(0.008680555555555556,0,0,0.008680555555555556,0,0)" xlink:href="#aF"/><use transform="matrix(0.008680555555555556,0,0,0.008680555555555556,7.986111111111112,0)" xlink:href="#aJ"/></g><path fill="#333" d="M684 20C381 20 94-164 94-710c0-501 235-800 601-800 293 0 496 188 526 433H921c-25-105-108-170-226-170-197 0-301 182-301 476h10c67-130 211-208 374-208 263 0 459 201 459 481 0 301-224 518-553 518zm-2-242c147 0 258-116 258-268 0-150-108-266-256-266-146 0-259 121-259 267 0 147 109 267 257 267" id="aK"/><use transform="matrix(0.008680555555555556,0,0,0.008680555555555556,0,0)" xlink:href="#aK" id="w"/><path fill="#333" d="M659 20C335 20 103-159 99-418h307c5 112 113 185 254 185 147 0 250-83 250-204 0-123-105-209-278-209H494v-227h138c145 0 246-81 246-200 0-115-87-193-216-193-130 0-237 73-240 189H128c4-255 233-433 536-433 306 0 510 185 510 418 0 167-114 285-279 317v11c217 29 333 162 333 347 0 254-237 437-569 437" id="aL"/><g id="x"><use transform="matrix(0.008680555555555556,0,0,0.008680555555555556,0,0)" xlink:href="#aH"/><use transform="matrix(0.008680555555555556,0,0,0.008680555555555556,6.701388888888889,0)" xlink:href="#aL"/></g><g id="y"><use transform="matrix(0.008680555555555556,0,0,0.008680555555555556,0,0)" xlink:href="#aG"/><use transform="matrix(0.008680555555555556,0,0,0.008680555555555556,11.197916666666668,0)" xlink:href="#aJ"/></g><path fill="#333" d="M101-265v-241l623-984h383v979h186v246h-186V0H814v-265H101zm719-246v-643h-12L409-523v12h411" id="aM"/><g id="z"><use transform="matrix(0.008680555555555556,0,0,0.008680555555555556,0,0)" xlink:href="#aG"/><use transform="matrix(0.008680555555555556,0,0,0.008680555555555556,10.92013888888889,0)" xlink:href="#aM"/></g><path fill="#333" d="M664 20c-306 0-529-183-535-438h297c6 117 110 196 238 196 149 0 255-108 255-266 0-159-108-270-261-270-89 0-178 39-224 98l-274-48 72-782h901v252H485l-39 377h8c53-72 165-124 294-124 269 0 467 204 467 490 0 300-224 515-551 515" id="aN"/><g id="A"><use transform="matrix(0.008680555555555556,0,0,0.008680555555555556,0,0)" xlink:href="#aH"/><use transform="matrix(0.008680555555555556,0,0,0.008680555555555556,6.701388888888889,0)" xlink:href="#aN"/></g><g id="B"><use transform="matrix(0.008680555555555556,0,0,0.008680555555555556,0,0)" xlink:href="#aI"/><use transform="matrix(0.008680555555555556,0,0,0.008680555555555556,9.93923611111111,0)" xlink:href="#aK"/><use transform="matrix(0.008680555555555556,0,0,0.008680555555555556,21.484375,0)" xlink:href="#aJ"/></g><path fill="#333" d="M690 20C314 20 94-261 94-744c0-482 221-766 596-766 376 0 597 284 597 766 0 483-219 764-597 764zm0-253c184 0 286-184 286-511 0-328-102-514-286-514-183 0-285 187-285 514s101 511 285 511" id="aO"/><g id="C"><use transform="matrix(0.008680555555555556,0,0,0.008680555555555556,0,0)" xlink:href="#aF"/><use transform="matrix(0.008680555555555556,0,0,0.008680555555555556,7.664930555555556,0)" xlink:href="#aG"/><use transform="matrix(0.008680555555555556,0,0,0.008680555555555556,18.86284722222222,0)" xlink:href="#aO"/></g><g id="D"><use transform="matrix(0.008680555555555556,0,0,0.008680555555555556,0,0)" xlink:href="#aH"/><use transform="matrix(0.008680555555555556,0,0,0.008680555555555556,6.701388888888889,0)" xlink:href="#aG"/><use transform="matrix(0.008680555555555556,0,0,0.008680555555555556,17.62152777777778,0)" xlink:href="#aM"/></g><g id="E"><use transform="matrix(0.008680555555555556,0,0,0.008680555555555556,0,0)" xlink:href="#aN"/><use transform="matrix(0.008680555555555556,0,0,0.008680555555555556,11.362847222222223,0)" xlink:href="#aJ"/></g><path d="M646 20c-332 0-524-278-524-764 0-483 194-766 524-766s524 283 524 766c0 485-191 764-524 764zm0-166c218 0 341-220 341-598 0-380-123-601-341-601s-341 222-341 601c0 378 123 598 341 598" id="aP"/><g id="F"><use transform="matrix(0.010850694444444444,0,0,0.010850694444444444,0,0)" xlink:href="#ak"/><use transform="matrix(0.010850694444444444,0,0,0.010850694444444444,9.038628472222221,0)" xlink:href="#ap"/><use transform="matrix(0.010850694444444444,0,0,0.010850694444444444,22.591145833333332,0)" xlink:href="#aP"/></g><path d="M180 0v-1490h224l606 953c40 63 108 177 176 312-27-437-7-821-13-1265h190V0h-226C860-448 622-778 356-1262c27 476 11 792 15 1262H180" id="aQ"/><g id="G"><use transform="matrix(0.010850694444444444,0,0,0.010850694444444444,0,0)" xlink:href="#aQ"/><use transform="matrix(0.010850694444444444,0,0,0.010850694444444444,16.74262152777778,0)" xlink:href="#av"/><use transform="matrix(0.010850694444444444,0,0,0.010850694444444444,30.06727430555556,0)" xlink:href="#au"/><use transform="matrix(0.010850694444444444,0,0,0.010850694444444444,37.337239583333336,0)" xlink:href="#ax"/><use transform="matrix(0.010850694444444444,0,0,0.010850694444444444,42.71918402777778,0)" xlink:href="#at"/><use transform="matrix(0.010850694444444444,0,0,0.010850694444444444,55.41449652777778,0)" xlink:href="#aB"/></g><path d="M409 0L70-1118h191c89 329 165 560 243 925 75-353 154-601 240-925h192c85 325 161 564 235 922 77-354 157-598 244-922h191L1267 0h-179c-86-307-176-590-250-913C763-588 675-308 588 0H409" id="aR"/><g id="H"><use transform="matrix(0.010850694444444444,0,0,0.010850694444444444,0,0)" xlink:href="#aD"/><use transform="matrix(0.010850694444444444,0,0,0.010850694444444444,13.140190972222221,0)" xlink:href="#av"/><use transform="matrix(0.010850694444444444,0,0,0.010850694444444444,26.063368055555554,0)" xlink:href="#aR"/></g><g id="I"><use transform="matrix(0.010850694444444444,0,0,0.010850694444444444,0,0)" xlink:href="#aR"/><use transform="matrix(0.010850694444444444,0,0,0.010850694444444444,17.784288194444446,0)" xlink:href="#aB"/></g><path d="M776-1118l-37 229H530l-93 562c-12 72 14 104 85 104 23 0 74-7 97-13l5 225C555 8 488 16 426 16 201 16 99-97 132-301l98-588H76l37-229h155l44-266h300l-44 266h208" id="aS"/><path d="M36 0l185-1118h290l-31 195h12c83-166 210-238 399-200l-45 268c-197-55-375 37-405 219L336 0H36" id="aT"/><path d="M441 19C184 19 19-186 81-558c63-382 303-574 550-574 189 0 259 113 285 202h10l31-188h299L1071 0H776l29-179h-14C733-87 623 19 441 19zm133-241c154 0 263-135 296-336 34-204-31-334-185-334-159 0-264 139-296 334-33 197 29 336 185 336" id="aU"/><path d="M351 0L124-1118h306c41 293 105 569 122 885 117-311 274-592 410-885h328L692 0H351" id="aV"/><path d="M552 24C254 24 71-146 71-432c0-377 264-705 643-705 236 0 413 123 413 326 0 251-270 329-766 342-10 155 35 265 213 267 113 0 207-50 245-134l269 36C1015-105 814 24 552 24zM392-650c368-7 456-43 456-146 0-71-63-115-165-115-165 0-251 126-291 261" id="aW"/><path d="M490 22C212 20 43-104 37-315l281-29c11 104 65 146 186 146 109 0 214-47 222-128 5-51-29-84-119-104l-186-40c-195-42-289-149-277-303 14-232 242-359 510-359 274 2 415 119 430 308l-267 27c-11-76-56-120-162-120-98 0-203 45-211 128-6 50 24 83 118 104l194 40c196 41 291 138 279 289-15 238-265 378-545 378" id="aX"/><g id="J"><use transform="matrix(0.010850694444444444,0,0,0.010850694444444444,0,0)" xlink:href="#aS"/><use transform="matrix(0.010850694444444444,0,0,0.010850694444444444,8.159722222222221,0)" xlink:href="#aT"/><use transform="matrix(0.010850694444444444,0,0,0.010850694444444444,16.67751736111111,0)" xlink:href="#aU"/><use transform="matrix(0.010850694444444444,0,0,0.010850694444444444,30.316840277777775,0)" xlink:href="#aV"/><use transform="matrix(0.010850694444444444,0,0,0.010850694444444444,43.24001736111111,0)" xlink:href="#aW"/><use transform="matrix(0.010850694444444444,0,0,0.010850694444444444,56.34765625,0)" xlink:href="#aT"/><use transform="matrix(0.010850694444444444,0,0,0.010850694444444444,65.40798611111111,0)" xlink:href="#aX"/><use transform="matrix(0.010850694444444444,0,0,0.010850694444444444,77.84288194444444,0)" xlink:href="#aW"/></g><g id="K"><use transform="matrix(0.010850694444444444,0,0,0.010850694444444444,0,0)" xlink:href="#au"/><use transform="matrix(0.010850694444444444,0,0,0.010850694444444444,7.269965277777778,0)" xlink:href="#aD"/><use transform="matrix(0.010850694444444444,0,0,0.010850694444444444,20.41015625,0)" xlink:href="#aB"/></g><g id="L"><use transform="matrix(0.010850694444444444,0,0,0.010850694444444444,0,0)" xlink:href="#au"/><use transform="matrix(0.010850694444444444,0,0,0.010850694444444444,7.269965277777778,0)" xlink:href="#aw"/><use transform="matrix(0.010850694444444444,0,0,0.010850694444444444,15.266927083333332,0)" xlink:href="#aB"/><use transform="matrix(0.010850694444444444,0,0,0.010850694444444444,28.22265625,0)" xlink:href="#aB"/></g><path d="M678-1118v154H420V0H240v-964H20v-154h220v-149c0-194 155-293 318-293 85 0 141 18 168 30l-50 154c-19-6-47-17-97-17-111 0-159 58-159 166v109h258" id="aY"/><path d="M158 0v-1118h175l1 205c55-151 181-225 313-225 147 0 245 90 285 228 53-141 190-228 352-228 194 0 352 125 352 384V0h-181v-749c0-161-105-225-225-225-151 0-243 103-243 244V0H807v-767c0-124-93-207-219-207-131 0-250 92-250 270V0H158" id="aZ"/><g id="M"><use transform="matrix(0.010850694444444444,0,0,0.010850694444444444,0,0)" xlink:href="#aY"/><use transform="matrix(0.010850694444444444,0,0,0.010850694444444444,8.22482638888889,0)" xlink:href="#aw"/><use transform="matrix(0.010850694444444444,0,0,0.010850694444444444,16.221788194444443,0)" xlink:href="#av"/><use transform="matrix(0.010850694444444444,0,0,0.010850694444444444,29.54644097222222,0)" xlink:href="#aZ"/></g><path d="M549 22C246 22 73-162 73-445c0-359 234-687 634-687 301 0 475 184 475 467 0 360-234 687-633 687zm10-236c223 0 322-274 322-459 0-134-61-223-185-223-223 0-322 271-322 458 0 133 61 224 185 224" id="ba"/><path d="M-34 418l255-1536h295l-34 188h9c56-93 162-202 343-202 221 0 385 151 385 442 0 320-177 709-544 709-191 0-269-117-296-207h-14l-99 606H-34zm624-640c223 0 323-269 323-451 0-133-57-219-180-219-214 0-324 244-324 448 0 137 61 222 181 222" id="bb"/><g id="N"><use transform="matrix(0.010850694444444444,0,0,0.010850694444444444,0,0)" xlink:href="#aS"/><use transform="matrix(0.010850694444444444,0,0,0.010850694444444444,7.942708333333332,0)" xlink:href="#ba"/><use transform="matrix(0.010850694444444444,0,0,0.010850694444444444,21.58203125,0)" xlink:href="#bb"/><use transform="matrix(0.010850694444444444,0,0,0.010850694444444444,35.59027777777778,0)" xlink:href="#al"/></g><path d="M677 24c-213 0-288-135-325-197h-20V0H158v-1490h180v551h14c37-59 106-193 324-193 279 0 474 222 474 576 0 356-194 580-473 580zm-27-161c209 0 317-186 317-421 0-232-105-413-317-413-206 0-314 166-314 413 0 249 111 421 314 421" id="bc"/><path d="M537 14c-226 0-379-139-379-422v-710h180v695c0 172 97 275 253 275 160 0 281-109 281-300v-670h181V0H879v-209C806-46 684 14 537 14" id="bd"/><g id="O"><use transform="matrix(0.010850694444444444,0,0,0.010850694444444444,0,0)" xlink:href="#bc"/><use transform="matrix(0.010850694444444444,0,0,0.010850694444444444,13.606770833333332,0)" xlink:href="#bd"/><use transform="matrix(0.010850694444444444,0,0,0.010850694444444444,26.746961805555554,0)" xlink:href="#au"/></g><path d="M548 22C250 22 73-164 73-448c0-345 220-684 633-684 269 0 447 145 451 374l-285 48c-6-116-55-186-169-186-226 0-328 261-328 457 0 135 55 225 182 225 119 0 222-77 266-198l271 56C1013-122 815 22 548 22" id="be"/><g id="P"><use transform="matrix(0.010850694444444444,0,0,0.010850694444444444,0,0)" xlink:href="#bb"/><use transform="matrix(0.010850694444444444,0,0,0.010850694444444444,14.008246527777777,0)" xlink:href="#aT"/><use transform="matrix(0.010850694444444444,0,0,0.010850694444444444,22.526041666666664,0)" xlink:href="#ba"/><use transform="matrix(0.010850694444444444,0,0,0.010850694444444444,36.16536458333333,0)" xlink:href="#be"/><use transform="matrix(0.010850694444444444,0,0,0.010850694444444444,49.22960069444444,0)" xlink:href="#aW"/><use transform="matrix(0.010850694444444444,0,0,0.010850694444444444,62.33723958333333,0)" xlink:href="#aX"/><use transform="matrix(0.010850694444444444,0,0,0.010850694444444444,74.77213541666666,0)" xlink:href="#aX"/></g><path d="M577 24c-279 0-473-224-473-580 0-354 195-576 474-576 218 0 287 134 324 193h14v-551h180V0H922v-173h-20C865-111 790 24 577 24zm27-161c203 0 314-172 314-421 0-247-108-413-314-413-212 0-317 181-317 413 0 235 108 421 317 421" id="bf"/><path d="M538 24C308 24 148-78 108-271l171-41c32 123 123 178 257 178 156 0 256-77 256-169 0-77-54-128-164-154l-186-44c-203-48-300-148-300-305 0-192 176-326 414-326 230 0 351 112 402 269l-163 42c-31-80-94-158-238-158-133 0-233 69-233 162 0 83 57 129 188 160l169 40c203 48 298 149 298 302 0 196-179 339-441 339" id="bg"/><g id="Q"><use transform="matrix(0.010850694444444444,0,0,0.010850694444444444,0,0)" xlink:href="#aA"/><use transform="matrix(0.010850694444444444,0,0,0.010850694444444444,13.129340277777777,0)" xlink:href="#av"/><use transform="matrix(0.010850694444444444,0,0,0.010850694444444444,26.453993055555554,0)" xlink:href="#bf"/><use transform="matrix(0.010850694444444444,0,0,0.010850694444444444,40.060763888888886,0)" xlink:href="#aB"/><use transform="matrix(0.010850694444444444,0,0,0.010850694444444444,53.01649305555556,0)" xlink:href="#bg"/></g><path d="M675 19C485 19 405-93 377-185h-16L330 0H35l247-1490h300l-95 560h12c57-95 153-202 335-202 221 0 385 151 385 442 0 320-177 709-544 709zm-85-241c223 0 323-269 323-451 0-133-57-219-180-219-214 0-324 244-324 448 0 137 61 222 181 222" id="bh"/><path d="M35 0l186-1118h278l-23 203c87-158 215-220 340-220 150 0 232 87 258 250 89-176 240-250 390-250 212 0 348 148 307 391L1648 0h-301l118-707c21-127-40-177-131-177-124 0-216 90-235 206L986 0H696l119-715c18-110-37-169-130-169-113 0-217 83-240 218L335 0H35" id="bi"/><g id="R"><use transform="matrix(0.010850694444444444,0,0,0.010850694444444444,0,0)" xlink:href="#bh"/><use transform="matrix(0.010850694444444444,0,0,0.010850694444444444,14.008246527777777,0)" xlink:href="#ba"/><use transform="matrix(0.010850694444444444,0,0,0.010850694444444444,27.647569444444443,0)" xlink:href="#aS"/><use transform="matrix(0.010850694444444444,0,0,0.010850694444444444,35.026041666666664,0)" xlink:href="#aS"/><use transform="matrix(0.010850694444444444,0,0,0.010850694444444444,42.96875,0)" xlink:href="#ba"/><use transform="matrix(0.010850694444444444,0,0,0.010850694444444444,56.608072916666664,0)" xlink:href="#bi"/></g><path d="M419 14C188 14 60-144 103-407l118-711h300L412-459c-23 138 39 222 166 222 125 0 231-84 255-234l107-647h301L1056 0H772l35-232C717-74 589 14 419 14" id="bj"/><path d="M295 13c-75 0-135-60-135-135s60-135 135-135 135 60 135 135S370 13 295 13" id="bk"/><g id="S"><use transform="matrix(0.010850694444444444,0,0,0.010850694444444444,0,0)" xlink:href="#bj"/><use transform="matrix(0.010850694444444444,0,0,0.010850694444444444,13.84548611111111,0)" xlink:href="#bb"/><use transform="matrix(0.010850694444444444,0,0,0.010850694444444444,27.85373263888889,0)" xlink:href="#bk"/></g><path fill="#1071e5" d="M180 0v-1490h528c311 0 458 177 458 395 0 191-114 278-244 313v14c139 9 302 137 302 371 0 225-148 397-499 397H180zm190-168h350c232 0 321-102 321-231 0-149-120-277-311-277H370v508zm0-668h328c160 0 286-101 286-255 0-129-87-231-280-231H370v486" id="bl"/><path fill="#1071e5" d="M338-1490V0H158v-1490h180" id="bm"/><path fill="#1071e5" d="M537 14c-226 0-379-139-379-422v-710h180v695c0 172 97 275 253 275 160 0 281-109 281-300v-670h181V0H879v-209C806-46 684 14 537 14" id="bn"/><path fill="#1071e5" d="M628 24c-324 0-524-230-524-574 0-343 198-582 503-582 237 0 487 146 487 559v75H286c9 234 145 362 343 362 132 0 231-58 273-172l174 48C1024-91 857 24 628 24zM287-650h624c-17-190-120-322-304-322-192 0-309 151-320 322" id="bo"/><g id="U"><use transform="matrix(0.010850694444444444,0,0,0.010850694444444444,0,0)" xlink:href="#bl"/><use transform="matrix(0.010850694444444444,0,0,0.010850694444444444,14.539930555555555,0)" xlink:href="#bm"/><use transform="matrix(0.010850694444444444,0,0,0.010850694444444444,19.921875,0)" xlink:href="#bn"/><use transform="matrix(0.010850694444444444,0,0,0.010850694444444444,33.06206597222222,0)" xlink:href="#bo"/></g><path d="M226-283v-166h904v166H226zm0-434v-166h904v166H226" id="bp"/><use transform="matrix(0.010850694444444444,0,0,0.010850694444444444,0,0)" xlink:href="#bp" id="V"/><g id="W"><use transform="matrix(0.010850694444444444,0,0,0.010850694444444444,0,0)" xlink:href="#aC"/><use transform="matrix(0.010850694444444444,0,0,0.010850694444444444,14.539930555555555,0)" xlink:href="#as"/><use transform="matrix(0.010850694444444444,0,0,0.010850694444444444,27.018229166666664,0)" xlink:href="#bg"/><use transform="matrix(0.010850694444444444,0,0,0.010850694444444444,38.74782986111111,0)" xlink:href="#aB"/></g><path d="M783 20c-382 0-661-292-661-764 0-473 279-766 661-766 302 0 548 182 601 489h-190c-42-204-217-313-411-313-268 0-476 208-476 590 0 381 209 588 476 588 195 0 369-110 411-313h190c-52 303-296 489-601 489" id="bq"/><g id="X"><use transform="matrix(0.010850694444444444,0,0,0.010850694444444444,0,0)" xlink:href="#bq"/><use transform="matrix(0.010850694444444444,0,0,0.010850694444444444,16.23263888888889,0)" xlink:href="#as"/><use transform="matrix(0.010850694444444444,0,0,0.010850694444444444,28.7109375,0)" xlink:href="#bg"/><use transform="matrix(0.010850694444444444,0,0,0.010850694444444444,40.44053819444444,0)" xlink:href="#aB"/><use transform="matrix(0.010850694444444444,0,0,0.010850694444444444,53.39626736111111,0)" xlink:href="#bk"/></g><path fill="#008a0e" d="M789 20c-398 0-667-293-667-764 0-473 273-766 655-766 315 0 558 198 612 487h-196c-61-191-204-311-415-311-262 0-471 207-471 590 0 380 208 588 482 588 249 0 420-165 425-427H828v-166h572v163c0 370-256 606-611 606" id="br"/><path fill="#008a0e" d="M158 0v-1118h174v172h12c41-113 157-188 290-188 26 0 70 2 91 3v181c-11-2-60-10-108-10-161 0-279 109-279 260V0H158" id="bs"/><path fill="#008a0e" d="M628 24c-324 0-524-230-524-574 0-343 198-582 503-582 237 0 487 146 487 559v75H286c9 234 145 362 343 362 132 0 231-58 273-172l174 48C1024-91 857 24 628 24zM287-650h624c-17-190-120-322-304-322-192 0-309 151-320 322" id="bt"/><path fill="#008a0e" d="M338-670V0H158v-1118h173l1 207c72-158 192-221 342-221 226 0 378 139 378 422V0H872v-695c0-172-96-275-252-275-161 0-282 109-282 300" id="bu"/><g id="Y"><use transform="matrix(0.010850694444444444,0,0,0.010850694444444444,0,0)" xlink:href="#br"/><use transform="matrix(0.010850694444444444,0,0,0.010850694444444444,16.57986111111111,0)" xlink:href="#bs"/><use transform="matrix(0.010850694444444444,0,0,0.010850694444444444,24.576822916666664,0)" xlink:href="#bt"/><use transform="matrix(0.010850694444444444,0,0,0.010850694444444444,37.53255208333333,0)" xlink:href="#bt"/><use transform="matrix(0.010850694444444444,0,0,0.010850694444444444,50.488281249999986,0)" xlink:href="#bu"/></g><path d="M657 26c-323 0-524-166-541-416h195c15 169 171 246 346 246 202 0 356-106 356-265 5-203-294-238-475-293-239-73-380-191-380-389 0-252 224-419 512-419 294 0 499 171 508 396H992c-17-145-151-228-328-228-193 0-321 102-321 242 0 156 175 211 284 241l149 41c160 44 422 134 422 412 0 244-197 432-541 432" id="bv"/><g id="Z"><use transform="matrix(0.010850694444444444,0,0,0.010850694444444444,0,0)" xlink:href="#bv"/><use transform="matrix(0.010850694444444444,0,0,0.010850694444444444,14.2578125,0)" xlink:href="#av"/><use transform="matrix(0.010850694444444444,0,0,0.010850694444444444,27.58246527777778,0)" xlink:href="#ay"/><use transform="matrix(0.010850694444444444,0,0,0.010850694444444444,32.96440972222222,0)" xlink:href="#bd"/><use transform="matrix(0.010850694444444444,0,0,0.010850694444444444,46.10460069444444,0)" xlink:href="#au"/><use transform="matrix(0.010850694444444444,0,0,0.010850694444444444,53.37456597222222,0)" xlink:href="#ax"/><use transform="matrix(0.010850694444444444,0,0,0.010850694444444444,58.756510416666664,0)" xlink:href="#av"/><use transform="matrix(0.010850694444444444,0,0,0.010850694444444444,72.08116319444444,0)" xlink:href="#aA"/><use transform="matrix(0.010850694444444444,0,0,0.010850694444444444,85.21050347222221,0)" xlink:href="#bk"/></g><path d="M87 0l247-1490h218l448 953c25 54 80 176 129 327 11-149 33-280 47-366l151-914h190L1270 0h-219C841-464 670-765 473-1275 414-753 352-475 278 0H87" id="bw"/><path d="M443 14C219 14 87-123 134-408l117-710h180L317-423c-28 171 49 275 206 275s300-105 332-300l110-670h181L961 0H787l35-209C722-47 590 14 443 14" id="bx"/><path d="M65 0l186-1118h175l-31 195c80-148 212-215 337-215 153 0 236 96 255 228 75-143 223-228 382-228 199 0 341 131 298 390L1543 0h-181l126-756c27-162-65-218-177-218-160 0-274 111-297 250L894 0H714l128-773c21-127-57-201-174-201-136 0-277 97-307 277L245 0H65" id="by"/><path d="M592 24c-216 0-276-130-305-197h-18L239 0H65l247-1490h180l-92 551h15c51-63 134-193 344-193 246 0 401 170 401 447 0 348-211 709-568 709zm-24-161c267 0 411-296 411-543 0-170-78-291-250-291-269 0-405 284-405 542 0 177 81 292 244 292" id="bz"/><path d="M535 24C259 24 94-144 94-427c0-392 272-715 610-715 216 0 356 119 356 305 0 244-237 344-790 350-18 199 49 349 276 352 142 0 260-66 317-173l167 47C947-85 756 24 535 24zM294-623c447-4 586-57 586-218 0-85-78-141-194-141-220 0-342 177-392 359" id="bA"/><path d="M66 0l185-1118h174l-28 172h12c78-136 219-209 411-185l-30 181c-211-47-398 67-428 250L246 0H66" id="bB"/><g id="aa"><use transform="matrix(0.010850694444444444,0,0,0.010850694444444444,0,0)" xlink:href="#bw"/><use transform="matrix(0.010850694444444444,0,0,0.010850694444444444,16.74262152777778,0)" xlink:href="#bx"/><use transform="matrix(0.010850694444444444,0,0,0.010850694444444444,29.893663194444443,0)" xlink:href="#by"/><use transform="matrix(0.010850694444444444,0,0,0.010850694444444444,49.35980902777778,0)" xlink:href="#bz"/><use transform="matrix(0.010850694444444444,0,0,0.010850694444444444,62.97743055555555,0)" xlink:href="#bA"/><use transform="matrix(0.010850694444444444,0,0,0.010850694444444444,75.77039930555554,0)" xlink:href="#bB"/></g><path d="M226-608c54-324 228-726 419-973h175c-209 318-363 684-411 972-44 264-11 530 103 888H337C213-15 178-320 226-608" id="bC"/><path d="M808-1490L561 0H375l218-1314h-10l-405 267 34-204 364-239h232" id="bD"/><path d="M-43 280C186-71 310-340 354-607c48-291 15-654-89-973h176c108 246 149 649 95 974-48 289-184 595-403 886H-43" id="bE"/><g id="ab"><use transform="matrix(0.010850694444444444,0,0,0.010850694444444444,0,0)" xlink:href="#bC"/><use transform="matrix(0.010850694444444444,0,0,0.010850694444444444,8.10546875,0)" xlink:href="#bD"/><use transform="matrix(0.010850694444444444,0,0,0.010850694444444444,17.154947916666664,0)" xlink:href="#bE"/></g><path d="M98-1322v-168h1126v168H757V0H567v-1322H98" id="bF"/><path d="M481 0L54-1118h197c107 314 236 620 325 951 87-331 217-637 324-951h197L670 0H481" id="bG"/><g id="ac"><use transform="matrix(0.010850694444444444,0,0,0.010850694444444444,0,0)" xlink:href="#bF"/><use transform="matrix(0.010850694444444444,0,0,0.010850694444444444,13.0859375,0)" xlink:href="#aw"/><use transform="matrix(0.010850694444444444,0,0,0.010850694444444444,21.451822916666664,0)" xlink:href="#as"/><use transform="matrix(0.010850694444444444,0,0,0.010850694444444444,33.60460069444444,0)" xlink:href="#bG"/><use transform="matrix(0.010850694444444444,0,0,0.010850694444444444,45.65972222222222,0)" xlink:href="#aB"/><use transform="matrix(0.010850694444444444,0,0,0.010850694444444444,58.615451388888886,0)" xlink:href="#aw"/><use transform="matrix(0.010850694444444444,0,0,0.010850694444444444,66.98133680555556,0)" xlink:href="#bg"/><use transform="matrix(0.010850694444444444,0,0,0.010850694444444444,78.7109375,0)" xlink:href="#as"/><use transform="matrix(0.010850694444444444,0,0,0.010850694444444444,91.18923611111111,0)" xlink:href="#ay"/><use transform="matrix(0.010850694444444444,0,0,0.010850694444444444,96.57118055555556,0)" xlink:href="#bk"/></g><path d="M87 0l247-1490h510c351 0 476 196 432 460-33 197-146 351-346 417L1163 0H943L728-579c-116 2-237 0-355 1L277 0H87zm314-747h311c238 0 346-110 375-283 31-185-52-293-281-293H496" id="bH"/><path d="M528 24C258 24 94-156 94-433c0-355 229-699 603-699 270 0 436 178 436 458 0 359-234 698-605 698zm4-161c275 0 420-287 420-533 0-170-77-301-260-301-271 0-418 288-418 536 0 168 77 298 258 298" id="bI"/><path d="M481 24C202 24 45-202 104-557s293-575 571-575c216 0 263 132 291 193h15l29-179h181L1006 0H831l28-173h-21C788-107 693 24 481 24zm56-161c204 0 342-174 383-422s-41-412-245-412c-215 0-350 183-388 412-39 235 39 422 250 422" id="bJ"/><path d="M356-664L245 0H65l186-1118h173l-32 197c96-152 219-211 366-211 232 0 366 145 319 428L960 0H779l117-701c29-174-48-269-198-269-165 0-310 115-342 306" id="bK"/><g id="ad"><use transform="matrix(0.010850694444444444,0,0,0.010850694444444444,0,0)" xlink:href="#bH"/><use transform="matrix(0.010850694444444444,0,0,0.010850694444444444,13.975694444444445,0)" xlink:href="#bI"/><use transform="matrix(0.010850694444444444,0,0,0.010850694444444444,27.311197916666664,0)" xlink:href="#by"/><use transform="matrix(0.010850694444444444,0,0,0.010850694444444444,46.77734375,0)" xlink:href="#bJ"/><use transform="matrix(0.010850694444444444,0,0,0.010850694444444444,60.416666666666664,0)" xlink:href="#bK"/></g><path d="M492-1490L245 0H65l247-1490h180" id="bL"/><g id="ae"><use transform="matrix(0.010850694444444444,0,0,0.010850694444444444,0,0)" xlink:href="#bw"/><use transform="matrix(0.010850694444444444,0,0,0.010850694444444444,16.74262152777778,0)" xlink:href="#bx"/><use transform="matrix(0.010850694444444444,0,0,0.010850694444444444,29.893663194444443,0)" xlink:href="#by"/><use transform="matrix(0.010850694444444444,0,0,0.010850694444444444,49.35980902777778,0)" xlink:href="#bA"/><use transform="matrix(0.010850694444444444,0,0,0.010850694444444444,62.15277777777778,0)" xlink:href="#bB"/><use transform="matrix(0.010850694444444444,0,0,0.010850694444444444,70.16059027777777,0)" xlink:href="#bJ"/><use transform="matrix(0.010850694444444444,0,0,0.010850694444444444,83.79991319444444,0)" xlink:href="#bL"/></g><path d="M524-1490L277 0H87l247-1490h190" id="bM"/><g id="af"><use transform="matrix(0.010850694444444444,0,0,0.010850694444444444,0,0)" xlink:href="#bC"/><use transform="matrix(0.010850694444444444,0,0,0.010850694444444444,8.10546875,0)" xlink:href="#bM"/><use transform="matrix(0.010850694444444444,0,0,0.010850694444444444,14.073350694444445,0)" xlink:href="#bE"/></g><path d="M180 0v-1490h510c348 0 508 209 508 474 0 266-160 477-507 477H370V0H180zm190-706h312c236 0 327-133 327-310 0-176-91-307-329-307H370v617" id="bN"/><path d="M611 442c-248 0-391-105-460-228l146-94c47 65 117 165 314 165 178 0 307-82 307-266v-224h-17C863-141 792-18 576-18c-268 0-472-195-472-546 0-346 197-568 476-568 216 0 288 133 326 193h17v-179h175V29c0 289-215 413-487 413zm-5-620c203 0 314-146 314-390 0-237-108-403-314-403-213 0-319 180-319 403 0 230 109 390 319 390" id="bO"/><g id="ag"><use transform="matrix(0.010850694444444444,0,0,0.010850694444444444,0,0)" xlink:href="#bN"/><use transform="matrix(0.010850694444444444,0,0,0.010850694444444444,14.192708333333332,0)" xlink:href="#aw"/><use transform="matrix(0.010850694444444444,0,0,0.010850694444444444,22.189670138888886,0)" xlink:href="#av"/><use transform="matrix(0.010850694444444444,0,0,0.010850694444444444,35.514322916666664,0)" xlink:href="#at"/><use transform="matrix(0.010850694444444444,0,0,0.010850694444444444,48.209635416666664,0)" xlink:href="#aB"/><use transform="matrix(0.010850694444444444,0,0,0.010850694444444444,61.16536458333333,0)" xlink:href="#bg"/><use transform="matrix(0.010850694444444444,0,0,0.010850694444444444,72.89496527777777,0)" xlink:href="#bg"/><use transform="matrix(0.010850694444444444,0,0,0.010850694444444444,84.62456597222221,0)" xlink:href="#ax"/><use transform="matrix(0.010850694444444444,0,0,0.010850694444444444,90.00651041666666,0)" xlink:href="#aA"/><use transform="matrix(0.010850694444444444,0,0,0.010850694444444444,103.13585069444441,0)" xlink:href="#bO"/><use transform="matrix(0.010850694444444444,0,0,0.010850694444444444,116.76432291666666,0)" xlink:href="#bk"/></g></defs></g></svg>