<svg xmlns="http://www.w3.org/2000/svg" xmlns:xlink="http://www.w3.org/1999/xlink" xmlns:lucid="lucid" width="561.13" height="851.07"><g transform="translate(-13.133333333333212 -29.933333333333394)" lucid:page-tab-id="0_0"><path d="M367.66 70.93c0 22.1-17.9 40-40 40s-40-17.9-40-40 17.9-40 40-40 40 17.9 40 40z" stroke="#3a414a" stroke-width="2"/><use xlink:href="#a" transform="matrix(1,0,0,1,292.66005002080306,35.933333333333394) translate(30.48568576388889 28.09027777777778)"/><use xlink:href="#b" transform="matrix(1,0,0,1,292.66005002080306,35.933333333333394) translate(6.912552083333333 54.978298611111114)"/><use xlink:href="#c" transform="matrix(1,0,0,1,292.66005002080306,35.933333333333394) translate(41.265850694444445 54.978298611111114)"/><path d="M327.66 113.93v31a6 6 0 0 1-6 6h-108a6 6 0 0 0-6 6v10.26" stroke="#3a414a" stroke-width="4" fill="none"/><path d="M327.65 111.93l2-.07V114l-3.96-.02v-2.17z" stroke="#3a414a" stroke-width=".05" fill="#3a414a"/><path d="M207.66 183.46l-4.63-14.27h9.26z" stroke="#3a414a" stroke-width="4" fill="#3a414a"/><path d="M247.66 230.93c0 22.1-17.9 40-40 40s-40-17.9-40-40 17.9-40 40-40 40 17.9 40 40z" stroke="#3a414a" stroke-width="2"/><use xlink:href="#d" transform="matrix(1,0,0,1,172.66005002080306,195.9333333333334) translate(28.228741319444445 28.09027777777778)"/><use xlink:href="#b" transform="matrix(1,0,0,1,172.66005002080306,195.9333333333334) translate(6.99935763888889 54.978298611111114)"/><use xlink:href="#e" transform="matrix(1,0,0,1,172.66005002080306,195.9333333333334) translate(41.35265625 54.978298611111114)"/><path d="M327.66 113.93v31a6 6 0 0 0 6 6h108a6 6 0 0 1 6 6v10.26" stroke="#3a414a" stroke-width="4" fill="none"/><path d="M327.65 111.93l2-.07V114l-3.96-.02v-2.17z" stroke="#3a414a" stroke-width=".05" fill="#3a414a"/><path d="M447.66 183.46l-4.64-14.27h9.28z" stroke="#3a414a" stroke-width="4" fill="#3a414a"/><path d="M487.66 230.93c0 22.1-17.9 40-40 40s-40-17.9-40-40 17.9-40 40-40 40 17.9 40 40z" stroke="#3a414a" stroke-width="2"/><use xlink:href="#f" transform="matrix(1,0,0,1,412.66005002080306,195.9333333333334) translate(28.14193576388889 30.27777777777778)"/><use xlink:href="#b" transform="matrix(1,0,0,1,412.66005002080306,195.9333333333334) translate(9.256302083333333 57.165798611111114)"/><use xlink:href="#g" transform="matrix(1,0,0,1,412.66005002080306,195.9333333333334) translate(43.609600694444445 57.165798611111114)"/><path d="M207.66 273.93v31a6 6 0 0 1-6 6h-68a6 6 0 0 0-6 6v10.26" stroke="#3a414a" stroke-width="4" fill="none"/><path d="M207.65 271.93l1.98-.07V274h-3.94v-2.2z" stroke="#3a414a" stroke-width=".05" fill="#3a414a"/><path d="M127.66 343.46l-4.63-14.26h9.26z" stroke="#3a414a" stroke-width="4" fill="#3a414a"/><path d="M167.66 390.93c0 22.1-17.9 40-40 40s-40-17.9-40-40 17.9-40 40-40 40 17.9 40 40z" stroke="#3a414a" stroke-width="2"/><use xlink:href="#h" transform="matrix(1,0,0,1,92.66005002080306,355.9333333333334) translate(27.827265625000003 30.27777777777778)"/><use xlink:href="#b" transform="matrix(1,0,0,1,92.66005002080306,355.9333333333334) translate(9.256302083333333 57.165798611111114)"/><use xlink:href="#g" transform="matrix(1,0,0,1,92.66005002080306,355.9333333333334) translate(43.609600694444445 57.165798611111114)"/><path d="M207.66 273.93v31a6 6 0 0 0 6 6h68a6 6 0 0 1 6 6v10.26" stroke="#3a414a" stroke-width="4" fill="none"/><path d="M207.65 271.93l1.98-.07V274h-3.94v-2.2z" stroke="#3a414a" stroke-width=".05" fill="#3a414a"/><path d="M287.66 343.46l-4.64-14.26h9.28z" stroke="#3a414a" stroke-width="4" fill="#3a414a"/><path d="M327.66 390.93c0 22.1-17.9 40-40 40s-40-17.9-40-40 17.9-40 40-40 40 17.9 40 40z" stroke="#3a414a" stroke-width="2"/><use xlink:href="#i" transform="matrix(1,0,0,1,252.66005002080306,355.9333333333334) translate(28.25044270833333 30.27777777777778)"/><use xlink:href="#b" transform="matrix(1,0,0,1,252.66005002080306,355.9333333333334) translate(9.256302083333333 57.165798611111114)"/><use xlink:href="#g" transform="matrix(1,0,0,1,252.66005002080306,355.9333333333334) translate(43.609600694444445 57.165798611111114)"/><path d="M87.66 36.93a6 6 0 0 1 6-6h126.8a6 6 0 0 1 6 6v68a6 6 0 0 1-6 6H93.67a6 6 0 0 1-6-6z" stroke="#3a414a" stroke-width="2" fill="#fff"/><use xlink:href="#j" transform="matrix(1,0,0,1,99.66005002080306,42.933333333333394) translate(10.565321180555557 25.02777777777778)"/><use xlink:href="#k" transform="matrix(1,0,0,1,99.66005002080306,42.933333333333394) translate(58.037109375 25.02777777777778)"/><use xlink:href="#l" transform="matrix(1,0,0,1,99.66005002080306,42.933333333333394) translate(4.543185763888893 51.915798611111114)"/><use xlink:href="#m" transform="matrix(1,0,0,1,99.66005002080306,42.933333333333394) translate(67.04318576388889 51.915798611111114)"/><path d="M127.66 433.93v31a6 6 0 0 1-6 6H60.13a6 6 0 0 0-6 6v10.26" stroke="#3a414a" stroke-width="4" fill="none"/><path d="M127.65 431.93l1.98-.07V434h-3.94l-.02-2.2z" stroke="#3a414a" stroke-width=".05" fill="#3a414a"/><path d="M54.13 503.46L49.5 489.2h9.27z" stroke="#3a414a" stroke-width="4" fill="#3a414a"/><path d="M94.13 550.93c0 22.1-17.9 40-40 40s-40-17.9-40-40 17.9-40 40-40 40 17.9 40 40z" stroke="#3a414a" stroke-width="2" fill="#1071e5"/><use xlink:href="#n" transform="matrix(1,0,0,1,19.133333333333212,515.9333333333334) translate(16.48828993055556 28.09027777777778)"/><use xlink:href="#b" transform="matrix(1,0,0,1,19.133333333333212,515.9333333333334) translate(6.766067708333333 54.978298611111114)"/><use xlink:href="#o" transform="matrix(1,0,0,1,19.133333333333212,515.9333333333334) translate(41.119366319444445 54.978298611111114)"/><path d="M127.66 433.93v31a6 6 0 0 0 6 6h17.4a6 6 0 0 1 6 6v10.26" stroke="#3a414a" stroke-width="4" fill="none"/><path d="M127.65 431.93l1.98-.07V434h-3.94l-.02-2.2z" stroke="#3a414a" stroke-width=".05" fill="#3a414a"/><path d="M157.07 503.46l-4.64-14.26h9.27z" stroke="#3a414a" stroke-width="4" fill="#3a414a"/><path d="M197.07 550.93c0 22.1-17.9 40-40 40s-40-17.9-40-40 17.9-40 40-40 40 17.9 40 40z" stroke="#3a414a" stroke-width="2" fill="#1071e5"/><use xlink:href="#n" transform="matrix(1,0,0,1,122.0666666666666,515.9333333333334) translate(16.48828993055556 28.09027777777778)"/><use xlink:href="#b" transform="matrix(1,0,0,1,122.0666666666666,515.9333333333334) translate(6.766067708333333 54.978298611111114)"/><use xlink:href="#o" transform="matrix(1,0,0,1,122.0666666666666,515.9333333333334) translate(41.119366319444445 54.978298611111114)"/><path d="M287.66 433.93v31a6 6 0 0 1-6 6H266a6 6 0 0 0-6 6v10.26" stroke="#3a414a" stroke-width="4" fill="none"/><path d="M287.65 431.93l2-.07V434h-3.96v-2.2z" stroke="#3a414a" stroke-width=".05" fill="#3a414a"/><path d="M260 503.46l-4.63-14.26h9.26z" stroke="#3a414a" stroke-width="4" fill="#3a414a"/><path d="M300 550.93c0 22.1-17.9 40-40 40s-40-17.9-40-40 17.9-40 40-40 40 17.9 40 40z" stroke="#3a414a" stroke-width="2" fill="#1071e5"/><use xlink:href="#n" transform="matrix(1,0,0,1,225,515.9333333333334) translate(16.48828993055556 28.09027777777778)"/><use xlink:href="#b" transform="matrix(1,0,0,1,225,515.9333333333334) translate(6.766067708333333 54.978298611111114)"/><use xlink:href="#o" transform="matrix(1,0,0,1,225,515.9333333333334) translate(41.119366319444445 54.978298611111114)"/><path d="M287.66 433.93v31a6 6 0 0 0 6 6h63.27a6 6 0 0 1 6 6v10.26" stroke="#3a414a" stroke-width="4" fill="none"/><path d="M287.65 431.93l2-.07V434h-3.96v-2.2z" stroke="#3a414a" stroke-width=".05" fill="#3a414a"/><path d="M362.93 503.46l-4.63-14.26h9.27z" stroke="#3a414a" stroke-width="4" fill="#3a414a"/><path d="M402.93 550.93c0 22.1-17.9 40-40 40s-40-17.9-40-40 17.9-40 40-40 40 17.9 40 40z" stroke="#3a414a" stroke-width="2" fill="#1071e5"/><use xlink:href="#n" transform="matrix(1,0,0,1,327.9333333333334,515.9333333333334) translate(16.48828993055556 28.09027777777778)"/><use xlink:href="#b" transform="matrix(1,0,0,1,327.9333333333334,515.9333333333334) translate(6.766067708333333 54.978298611111114)"/><use xlink:href="#o" transform="matrix(1,0,0,1,327.9333333333334,515.9333333333334) translate(41.119366319444445 54.978298611111114)"/><path d="M447.66 273.93v31a6 6 0 0 1-6 6H386a6 6 0 0 0-6 6v10.26" stroke="#3a414a" stroke-width="4" fill="none"/><path d="M447.65 271.93l2-.07V274h-3.96v-2.2z" stroke="#3a414a" stroke-width=".05" fill="#3a414a"/><path d="M380 343.46l-4.63-14.26h9.26z" stroke="#3a414a" stroke-width="4" fill="#3a414a"/><path d="M420 390.93c0 22.1-17.9 40-40 40s-40-17.9-40-40 17.9-40 40-40 40 17.9 40 40z" stroke="#3a414a" stroke-width="2" fill="#1071e5"/><g><use xlink:href="#n" transform="matrix(1,0,0,1,345,355.9333333333334) translate(16.48828993055556 28.09027777777778)"/><use xlink:href="#b" transform="matrix(1,0,0,1,345,355.9333333333334) translate(6.766067708333333 54.978298611111114)"/><use xlink:href="#o" transform="matrix(1,0,0,1,345,355.9333333333334) translate(41.119366319444445 54.978298611111114)"/></g><path d="M447.66 273.93v31a6 6 0 0 0 6 6H514a6 6 0 0 1 6 6v10.26" stroke="#3a414a" stroke-width="4" fill="none"/><path d="M447.65 271.93l2-.07V274h-3.96v-2.2z" stroke="#3a414a" stroke-width=".05" fill="#3a414a"/><path d="M520 343.46l-4.63-14.26h9.26z" stroke="#3a414a" stroke-width="4" fill="#3a414a"/><path d="M560 390.93c0 22.1-17.9 40-40 40s-40-17.9-40-40 17.9-40 40-40 40 17.9 40 40z" stroke="#3a414a" stroke-width="2" fill="#1071e5"/><g><use xlink:href="#n" transform="matrix(1,0,0,1,485,355.9333333333334) translate(16.48828993055556 28.09027777777778)"/><use xlink:href="#b" transform="matrix(1,0,0,1,485,355.9333333333334) translate(6.766067708333333 54.978298611111114)"/><use xlink:href="#o" transform="matrix(1,0,0,1,485,355.9333333333334) translate(41.119366319444445 54.978298611111114)"/></g><path d="M47.66 356.93a6 6 0 0 1 6-6h28a6 6 0 0 1 6 6V394a6 6 0 0 1-6 6h-28a6 6 0 0 1-6-6z" fill="none"/><g><use xlink:href="#p" transform="matrix(1,0,0,1,47.660050020803055,350.9333333333334) translate(13.33224826388889 30.91362847222222)"/></g><path d="M207.66 356.93a6 6 0 0 1 6-6h28a6 6 0 0 1 6 6V394a6 6 0 0 1-6 6h-28a6 6 0 0 1-6-6z" fill="none"/><g><use xlink:href="#q" transform="matrix(1,0,0,1,207.66005002080306,350.9333333333334) translate(6.664496527777779 30.91362847222222)"/></g><path d="M120 196.93a6 6 0 0 1 6-6h28a6 6 0 0 1 6 6V234a6 6 0 0 1-6 6h-28a6 6 0 0 1-6-6z" fill="none"/><g><use xlink:href="#r" transform="matrix(1,0,0,1,120,190.9333333333334) translate(-0.003255208333332149 30.91362847222222)"/></g><path d="M367.66 196.93a6 6 0 0 1 6-6h28a6 6 0 0 1 6 6V234a6 6 0 0 1-6 6h-28a6 6 0 0 1-6-6z" fill="none"/><g><use xlink:href="#s" transform="matrix(1,0,0,1,367.66005002080306,190.9333333333334) translate(6.664496527777779 30.91362847222222)"/></g><path d="M367.66 36.93a6 6 0 0 1 6-6h28a6 6 0 0 1 6 6V74a6 6 0 0 1-6 6h-28a6 6 0 0 1-6-6z" fill="none"/><g><use xlink:href="#t" transform="matrix(1,0,0,1,367.66005002080306,30.933333333333394) translate(13.33224826388889 30.91362847222222)"/></g><path d="M14.13 646a6 6 0 0 1 6-6H294a6 6 0 0 1 6 6v228a6 6 0 0 1-6 6H20.13a6 6 0 0 1-6-6z" stroke="#3a414a" stroke-width="2" fill="#fff"/><g><use xlink:href="#u" transform="matrix(1,0,0,1,19.133333333333212,645) translate(2.1004774305555713 28.71527777777778)"/><use xlink:href="#v" transform="matrix(1,0,0,1,19.133333333333212,645) translate(14.318359375000016 28.71527777777778)"/><use xlink:href="#w" transform="matrix(1,0,0,1,19.133333333333212,645) translate(72.00065104166667 28.71527777777778)"/><use xlink:href="#x" transform="matrix(1,0,0,1,19.133333333333212,645) translate(150.62478298611111 28.71527777777778)"/><use xlink:href="#y" transform="matrix(1,0,0,1,19.133333333333212,645) translate(253.52191840277777 28.71527777777778)"/><use xlink:href="#z" transform="matrix(1,0,0,1,19.133333333333212,645) translate(22.74392361111113 55.603298611111114)"/><use xlink:href="#A" transform="matrix(1,0,0,1,19.133333333333212,645) translate(129.59071180555554 55.603298611111114)"/><use xlink:href="#l" transform="matrix(1,0,0,1,19.133333333333212,645) translate(169.20659722222223 55.603298611111114)"/><use xlink:href="#B" transform="matrix(1,0,0,1,19.133333333333212,645) translate(231.70659722222223 55.603298611111114)"/><use xlink:href="#C" transform="matrix(1,0,0,1,19.133333333333212,645) translate(57.12434895833334 82.49131944444446)"/><use xlink:href="#D" transform="matrix(1,0,0,1,19.133333333333212,645) translate(114.44856770833334 82.49131944444446)"/><use xlink:href="#E" transform="matrix(1,0,0,1,19.133333333333212,645) translate(185.44466145833334 82.49131944444446)"/><use xlink:href="#F" transform="matrix(1,0,0,1,19.133333333333212,645) translate(20.904730902777786 109.37934027777777)"/><use xlink:href="#G" transform="matrix(1,0,0,1,19.133333333333212,645) translate(144.15776909722223 109.37934027777777)"/><use xlink:href="#H" transform="matrix(1,0,0,1,19.133333333333212,645) translate(202.07877604166669 109.37934027777777)"/><use xlink:href="#I" transform="matrix(1,0,0,1,19.133333333333212,645) translate(6.185763888888886 136.26736111111111)"/><use xlink:href="#J" transform="matrix(1,0,0,1,19.133333333333212,645) translate(145.24826388888886 136.26736111111111)"/><use xlink:href="#K" transform="matrix(1,0,0,1,19.133333333333212,645) translate(195.4761284722222 136.26736111111111)"/><use xlink:href="#L" transform="matrix(1,0,0,1,19.133333333333212,645) translate(214.20442708333331 136.26736111111111)"/><use xlink:href="#M" transform="matrix(1,0,0,1,19.133333333333212,645) translate(248.56857638888889 136.26736111111111)"/><use xlink:href="#N" transform="matrix(1,0,0,1,19.133333333333212,645) translate(39.117621527777786 163.15538194444446)"/><use xlink:href="#O" transform="matrix(1,0,0,1,19.133333333333212,645) translate(85.41753472222223 163.15538194444446)"/><use xlink:href="#P" transform="matrix(1,0,0,1,19.133333333333212,645) translate(224.4040798611111 163.15538194444446)"/><use xlink:href="#Q" transform="matrix(1,0,0,1,19.133333333333212,645) translate(5.317708333333343 190.0434027777778)"/><use xlink:href="#R" transform="matrix(1,0,0,1,19.133333333333212,645) translate(122.24479166666667 190.0434027777778)"/><use xlink:href="#S" transform="matrix(1,0,0,1,19.133333333333212,645) translate(225.04427083333334 190.0434027777778)"/><use xlink:href="#T" transform="matrix(1,0,0,1,19.133333333333212,645) translate(14.687282986111128 216.93142361111114)"/><use xlink:href="#U" transform="matrix(1,0,0,1,19.133333333333212,645) translate(104.31401909722223 216.93142361111114)"/><use xlink:href="#A" transform="matrix(1,0,0,1,19.133333333333212,645) translate(149.77842881944446 216.93142361111114)"/><use xlink:href="#V" transform="matrix(1,0,0,1,19.133333333333212,645) translate(189.3943142361111 216.93142361111114)"/></g><path d="M322.06 706a6 6 0 0 1 6-6h239.2a6 6 0 0 1 6 6v88a6 6 0 0 1-6 6h-239.2a6 6 0 0 1-6-6z" stroke="#3a414a" stroke-width="2" fill="#fff"/><g><use xlink:href="#W" transform="matrix(1,0,0,1,327.06005002080315,705) translate(7.555989583333329 41.43402777777778)"/><use xlink:href="#X" transform="matrix(1,0,0,1,327.06005002080315,705) translate(26.94618055555555 41.43402777777778)"/><use xlink:href="#Y" transform="matrix(1,0,0,1,327.06005002080315,705) translate(47.89887152777777 41.43402777777778)"/><use xlink:href="#Z" transform="matrix(1,0,0,1,327.06005002080315,705) translate(63.18749999999999 41.43402777777778)"/><use xlink:href="#aa" transform="matrix(1,0,0,1,327.06005002080315,705) translate(84.14019097222221 41.43402777777778)"/><use xlink:href="#ab" transform="matrix(1,0,0,1,327.06005002080315,705) translate(186.78776041666669 41.43402777777778)"/><use xlink:href="#ac" transform="matrix(1,0,0,1,327.06005002080315,705) translate(31.07486979166667 68.32204861111111)"/><use xlink:href="#X" transform="matrix(1,0,0,1,327.06005002080315,705) translate(50.931640625 68.32204861111111)"/><use xlink:href="#ad" transform="matrix(1,0,0,1,327.06005002080315,705) translate(71.88433159722223 68.32204861111111)"/><use xlink:href="#U" transform="matrix(1,0,0,1,327.06005002080315,705) translate(120.92947048611111 68.32204861111111)"/><use xlink:href="#ae" transform="matrix(1,0,0,1,327.06005002080315,705) translate(166.39388020833331 68.32204861111111)"/></g><defs><path fill="#fff" d="M653-1490V0H466v-1314h-10L96-1047v-204l324-239h233" id="af"/><use transform="matrix(0.010850694444444444,0,0,0.010850694444444444,0,0)" xlink:href="#af" id="a"/><path fill="#fff" d="M226 279v-1860h398v153H398V126h226v153H226" id="ag"/><path fill="#fff" d="M98-1322v-168h1126v168H757V0H567v-1322H98" id="ah"/><path fill="#fff" d="M128 359l88-567h206L266 359H128" id="ai"/><g id="b"><use transform="matrix(0.010850694444444444,0,0,0.010850694444444444,0,0)" xlink:href="#ag"/><use transform="matrix(0.010850694444444444,0,0,0.010850694444444444,8.10546875,0)" xlink:href="#ah"/><use transform="matrix(0.010850694444444444,0,0,0.010850694444444444,21.70138888888889,0)" xlink:href="#ai"/></g><path fill="#fff" d="M635 20c-292 0-500-160-510-396h192c11 142 145 229 315 229 187 0 323-105 323-260 0-161-125-274-346-274H488v-165h121c174 0 294-100 294-254 0-148-104-245-266-245-152 0-291 85-297 230H157c8-234 222-395 484-395 278 0 448 188 448 400 0 168-95 291-247 336v12c190 31 301 169 301 357 0 244-216 425-508 425" id="aj"/><path fill="#fff" d="M123 279V126h226v-1554H123v-153h398V279H123" id="ak"/><g id="c"><use transform="matrix(0.010850694444444444,0,0,0.010850694444444444,0,0)" xlink:href="#aj"/><use transform="matrix(0.010850694444444444,0,0,0.010850694444444444,13.726128472222221,0)" xlink:href="#ak"/></g><path fill="#fff" d="M154 0v-137l495-537c165-179 249-281 249-418 0-156-121-253-280-253-170 0-278 110-278 278H158c0-264 200-443 465-443 266 0 455 183 455 416 0 161-73 288-336 568L416-179v12h687V0H154" id="al"/><use transform="matrix(0.010850694444444444,0,0,0.010850694444444444,0,0)" xlink:href="#al" id="d"/><g id="e"><use transform="matrix(0.010850694444444444,0,0,0.010850694444444444,0,0)" xlink:href="#al"/><use transform="matrix(0.010850694444444444,0,0,0.010850694444444444,13.55251736111111,0)" xlink:href="#ak"/></g><use transform="matrix(0.010850694444444444,0,0,0.010850694444444444,0,0)" xlink:href="#aj" id="f"/><g id="g"><use transform="matrix(0.010850694444444444,0,0,0.010850694444444444,0,0)" xlink:href="#af"/><use transform="matrix(0.010850694444444444,0,0,0.010850694444444444,9.038628472222221,0)" xlink:href="#ak"/></g><path fill="#fff" d="M120-303v-155l652-1032h231v1020h202v167h-202V0H821v-303H120zm702-167v-782h-12L323-482v12h499" id="am"/><use transform="matrix(0.010850694444444444,0,0,0.010850694444444444,0,0)" xlink:href="#am" id="h"/><path fill="#fff" d="M626 20c-262 0-458-168-468-396h184c12 133 134 229 284 229 180 0 311-137 311-326 0-192-136-335-323-335-92 0-196 33-255 78l-178-22 88-738h784v167H429l-51 435h8c61-51 160-87 263-87 273 0 474 211 474 499 0 286-210 496-497 496" id="an"/><use transform="matrix(0.010850694444444444,0,0,0.010850694444444444,0,0)" xlink:href="#an" id="i"/><path d="M763 24c-353 0-583-224-583-531v-983h190v968c0 214 149 370 393 370 243 0 391-156 391-370v-968h190v983c0 307-230 531-581 531" id="ao"/><path d="M538 24C308 24 148-78 108-271l171-41c32 123 123 178 257 178 156 0 256-77 256-169 0-77-54-128-164-154l-186-44c-203-48-300-148-300-305 0-192 176-326 414-326 230 0 351 112 402 269l-163 42c-31-80-94-158-238-158-133 0-233 69-233 162 0 83 57 129 188 160l169 40c203 48 298 149 298 302 0 196-179 339-441 339" id="ap"/><path d="M628 24c-324 0-524-230-524-574 0-343 198-582 503-582 237 0 487 146 487 559v75H286c9 234 145 362 343 362 132 0 231-58 273-172l174 48C1024-91 857 24 628 24zM287-650h624c-17-190-120-322-304-322-192 0-309 151-320 322" id="aq"/><g id="j"><use transform="matrix(0.010850694444444444,0,0,0.010850694444444444,0,0)" xlink:href="#ao"/><use transform="matrix(0.010850694444444444,0,0,0.010850694444444444,16.536458333333332,0)" xlink:href="#ap"/><use transform="matrix(0.010850694444444444,0,0,0.010850694444444444,28.266059027777775,0)" xlink:href="#aq"/></g><path d="M180 0v-1490h510c348 0 508 209 508 474 0 266-160 477-507 477H370V0H180zm190-706h312c236 0 327-133 327-310 0-176-91-307-329-307H370v617" id="ar"/><path d="M613 24c-304 0-509-231-509-576 0-350 205-580 509-580 305 0 511 230 511 580 0 345-206 576-511 576zm0-161c226 0 329-195 329-415 0-222-103-419-329-419-223 0-326 196-326 419 0 220 103 415 326 415" id="as"/><path d="M598-1118v154H368v674c0 100 37 144 132 144 23 0 62-6 92-12L629-6c-37 13-88 20-134 20-193 0-307-107-307-290v-688H20v-154h168v-266h180v266h230" id="at"/><g id="k"><use transform="matrix(0.010850694444444444,0,0,0.010850694444444444,0,0)" xlink:href="#ar"/><use transform="matrix(0.010850694444444444,0,0,0.010850694444444444,14.073350694444445,0)" xlink:href="#as"/><use transform="matrix(0.010850694444444444,0,0,0.010850694444444444,27.39800347222222,0)" xlink:href="#ap"/><use transform="matrix(0.010850694444444444,0,0,0.010850694444444444,39.127604166666664,0)" xlink:href="#at"/></g><path d="M158 0v-1118h174v172h12c41-113 157-188 290-188 26 0 70 2 91 3v181c-11-2-60-10-108-10-161 0-279 109-279 260V0H158" id="au"/><path d="M577 24c-279 0-473-224-473-580 0-354 195-576 474-576 218 0 287 134 324 193h14v-551h180V0H922v-173h-20C865-111 790 24 577 24zm27-161c203 0 314-172 314-421 0-247-108-413-314-413-212 0-317 181-317 413 0 235 108 421 317 421" id="av"/><g id="l"><use transform="matrix(0.010850694444444444,0,0,0.010850694444444444,0,0)" xlink:href="#as"/><use transform="matrix(0.010850694444444444,0,0,0.010850694444444444,13.324652777777777,0)" xlink:href="#au"/><use transform="matrix(0.010850694444444444,0,0,0.010850694444444444,21.321614583333332,0)" xlink:href="#av"/><use transform="matrix(0.010850694444444444,0,0,0.010850694444444444,34.928385416666664,0)" xlink:href="#aq"/><use transform="matrix(0.010850694444444444,0,0,0.010850694444444444,47.88411458333333,0)" xlink:href="#au"/></g><path d="M645 0H180v-1490h484c435 0 692 280 692 742 0 466-257 748-711 748zM370-168h263c363 0 539-218 539-580 0-358-176-574-521-574H370v1154" id="aw"/><path d="M180 0v-1490h901v168H370v510h643v168H370V0H180" id="ax"/><path d="M657 26c-323 0-524-166-541-416h195c15 169 171 246 346 246 202 0 356-106 356-265 5-203-294-238-475-293-239-73-380-191-380-389 0-252 224-419 512-419 294 0 499 171 508 396H992c-17-145-151-228-328-228-193 0-321 102-321 242 0 156 175 211 284 241l149 41c160 44 422 134 422 412 0 244-197 432-541 432" id="ay"/><g id="m"><use transform="matrix(0.010850694444444444,0,0,0.010850694444444444,0,0)" xlink:href="#aw"/><use transform="matrix(0.010850694444444444,0,0,0.010850694444444444,16.03732638888889,0)" xlink:href="#ax"/><use transform="matrix(0.010850694444444444,0,0,0.010850694444444444,29.15581597222222,0)" xlink:href="#ay"/></g><path fill="#fff" d="M338-670V0H158v-1118h173l1 207c72-158 192-221 342-221 226 0 378 139 378 422V0H872v-695c0-172-96-275-252-275-161 0-282 109-282 300" id="az"/><path fill="#fff" d="M537 14c-226 0-379-139-379-422v-710h180v695c0 172 97 275 253 275 160 0 281-109 281-300v-670h181V0H879v-209C806-46 684 14 537 14" id="aA"/><path fill="#fff" d="M338-1490V0H158v-1490h180" id="aB"/><g id="n"><use transform="matrix(0.010850694444444444,0,0,0.010850694444444444,0,0)" xlink:href="#az"/><use transform="matrix(0.010850694444444444,0,0,0.010850694444444444,13.129340277777777,0)" xlink:href="#aA"/><use transform="matrix(0.010850694444444444,0,0,0.010850694444444444,26.26953125,0)" xlink:href="#aB"/><use transform="matrix(0.010850694444444444,0,0,0.010850694444444444,31.651475694444443,0)" xlink:href="#aB"/></g><path fill="#fff" d="M646 20c-332 0-524-278-524-764 0-483 194-766 524-766s524 283 524 766c0 485-191 764-524 764zm0-166c218 0 341-220 341-598 0-380-123-601-341-601s-341 222-341 601c0 378 123 598 341 598" id="aC"/><g id="o"><use transform="matrix(0.010850694444444444,0,0,0.010850694444444444,0,0)" xlink:href="#aC"/><use transform="matrix(0.010850694444444444,0,0,0.010850694444444444,14.019097222222221,0)" xlink:href="#ak"/></g><path d="M202-1349h823v156H709v1037h316V0H202v-156h316v-1037H202v-156" id="aD"/><use transform="matrix(0.010850694444444444,0,0,0.010850694444444444,0,0)" xlink:href="#aD" id="p"/><g id="q"><use transform="matrix(0.010850694444444444,0,0,0.010850694444444444,0,0)" xlink:href="#aD"/><use transform="matrix(0.010850694444444444,0,0,0.010850694444444444,13.335503472222221,0)" xlink:href="#aD"/></g><g id="r"><use transform="matrix(0.010850694444444444,0,0,0.010850694444444444,0,0)" xlink:href="#aD"/><use transform="matrix(0.010850694444444444,0,0,0.010850694444444444,13.335503472222221,0)" xlink:href="#aD"/><use transform="matrix(0.010850694444444444,0,0,0.010850694444444444,26.671006944444443,0)" xlink:href="#aD"/></g><path d="M713 0H515L10-1349h201C345-955 498-579 615-168c116-411 269-787 402-1181h201" id="aE"/><g id="s"><use transform="matrix(0.010850694444444444,0,0,0.010850694444444444,0,0)" xlink:href="#aD"/><use transform="matrix(0.010850694444444444,0,0,0.010850694444444444,13.335503472222221,0)" xlink:href="#aE"/></g><use transform="matrix(0.010850694444444444,0,0,0.010850694444444444,0,0)" xlink:href="#aE" id="t"/><path d="M370-1490V0H180v-1490h190" id="aF"/><use transform="matrix(0.010850694444444444,0,0,0.010850694444444444,0,0)" xlink:href="#aF" id="u"/><path d="M537 14c-226 0-379-139-379-422v-710h180v695c0 172 97 275 253 275 160 0 281-109 281-300v-670h181V0H879v-209C806-46 684 14 537 14" id="aG"/><g id="v"><use transform="matrix(0.010850694444444444,0,0,0.010850694444444444,0,0)" xlink:href="#aG"/><use transform="matrix(0.010850694444444444,0,0,0.010850694444444444,13.140190972222221,0)" xlink:href="#ap"/><use transform="matrix(0.010850694444444444,0,0,0.010850694444444444,24.869791666666664,0)" xlink:href="#aq"/><use transform="matrix(0.010850694444444444,0,0,0.010850694444444444,37.82552083333333,0)" xlink:href="#av"/></g><path d="M180 0v-1490h510c348 0 508 194 508 460 0 198-88 351-276 417L1256 0h-220L726-579c-117 2-238 0-356 1V0H180zm190-747h312c235 0 327-108 327-283 0-177-92-293-329-293H370v576" id="aH"/><path d="M158 0v-1118h175l1 205c55-151 181-225 313-225 147 0 245 90 285 228 53-141 190-228 352-228 194 0 352 125 352 384V0h-181v-749c0-161-105-225-225-225-151 0-243 103-243 244V0H807v-767c0-124-93-207-219-207-131 0-250 92-250 270V0H158" id="aI"/><path d="M471 26C259 26 90-98 90-318c0-256 228-303 435-329 202-27 287-16 287-108 0-139-79-219-234-219-161 0-248 86-283 164l-173-57c86-203 278-265 451-265 150 0 419 46 419 395V0H815v-152h-12C765-73 660 26 471 26zm31-159c199 0 310-134 310-271v-155c-30 35-226 55-295 64-131 17-246 59-246 186 0 116 97 176 231 176" id="aJ"/><path d="M338-670V0H158v-1118h173l1 207c72-158 192-221 342-221 226 0 378 139 378 422V0H872v-695c0-172-96-275-252-275-161 0-282 109-282 300" id="aK"/><g id="w"><use transform="matrix(0.010850694444444444,0,0,0.010850694444444444,0,0)" xlink:href="#aH"/><use transform="matrix(0.010850694444444444,0,0,0.010850694444444444,13.975694444444445,0)" xlink:href="#as"/><use transform="matrix(0.010850694444444444,0,0,0.010850694444444444,27.30034722222222,0)" xlink:href="#aI"/><use transform="matrix(0.010850694444444444,0,0,0.010850694444444444,46.76649305555556,0)" xlink:href="#aJ"/><use transform="matrix(0.010850694444444444,0,0,0.010850694444444444,59.24479166666667,0)" xlink:href="#aK"/></g><path d="M338-1490V0H158v-1490h180" id="aL"/><g id="x"><use transform="matrix(0.010850694444444444,0,0,0.010850694444444444,0,0)" xlink:href="#aK"/><use transform="matrix(0.010850694444444444,0,0,0.010850694444444444,13.129340277777777,0)" xlink:href="#aG"/><use transform="matrix(0.010850694444444444,0,0,0.010850694444444444,26.26953125,0)" xlink:href="#aI"/><use transform="matrix(0.010850694444444444,0,0,0.010850694444444444,45.73567708333333,0)" xlink:href="#aq"/><use transform="matrix(0.010850694444444444,0,0,0.010850694444444444,58.691406249999986,0)" xlink:href="#au"/><use transform="matrix(0.010850694444444444,0,0,0.010850694444444444,67.05729166666666,0)" xlink:href="#aJ"/><use transform="matrix(0.010850694444444444,0,0,0.010850694444444444,79.53559027777777,0)" xlink:href="#aL"/><use transform="matrix(0.010850694444444444,0,0,0.010850694444444444,84.91753472222221,0)" xlink:href="#ap"/></g><g id="y"><use transform="matrix(0.010850694444444444,0,0,0.010850694444444444,0,0)" xlink:href="#at"/><use transform="matrix(0.010850694444444444,0,0,0.010850694444444444,7.052951388888888,0)" xlink:href="#as"/></g><path d="M158 418v-1536h174v179h20c37-59 106-193 324-193 279 0 474 222 474 576 0 356-194 580-473 580-213 0-288-135-325-197h-14v591H158zm492-555c209 0 317-186 317-421 0-232-105-413-317-413-206 0-314 166-314 413 0 249 111 421 314 421" id="aM"/><g id="z"><use transform="matrix(0.010850694444444444,0,0,0.010850694444444444,0,0)" xlink:href="#au"/><use transform="matrix(0.010850694444444444,0,0,0.010850694444444444,7.996961805555555,0)" xlink:href="#aq"/><use transform="matrix(0.010850694444444444,0,0,0.010850694444444444,20.95269097222222,0)" xlink:href="#aM"/><use transform="matrix(0.010850694444444444,0,0,0.010850694444444444,34.55946180555556,0)" xlink:href="#au"/><use transform="matrix(0.010850694444444444,0,0,0.010850694444444444,42.55642361111111,0)" xlink:href="#aq"/><use transform="matrix(0.010850694444444444,0,0,0.010850694444444444,55.51215277777778,0)" xlink:href="#ap"/><use transform="matrix(0.010850694444444444,0,0,0.010850694444444444,67.24175347222221,0)" xlink:href="#aq"/><use transform="matrix(0.010850694444444444,0,0,0.010850694444444444,80.19748263888889,0)" xlink:href="#aK"/><use transform="matrix(0.010850694444444444,0,0,0.010850694444444444,93.32682291666666,0)" xlink:href="#at"/></g><path d="M338-670V0H158v-1490h180v566c73-149 190-208 336-208 226 0 379 139 379 422V0H872v-695c0-172-96-275-252-275-161 0-282 109-282 300" id="aN"/><g id="A"><use transform="matrix(0.010850694444444444,0,0,0.010850694444444444,0,0)" xlink:href="#at"/><use transform="matrix(0.010850694444444444,0,0,0.010850694444444444,7.269965277777778,0)" xlink:href="#aN"/><use transform="matrix(0.010850694444444444,0,0,0.010850694444444444,20.41015625,0)" xlink:href="#aq"/></g><path d="M678-1118v154H420V0H240v-964H20v-154h220v-149c0-194 155-293 318-293 85 0 141 18 168 30l-50 154c-19-6-47-17-97-17-111 0-159 58-159 166v109h258" id="aO"/><g id="B"><use transform="matrix(0.010850694444444444,0,0,0.010850694444444444,0,0)" xlink:href="#as"/><use transform="matrix(0.010850694444444444,0,0,0.010850694444444444,13.324652777777777,0)" xlink:href="#aO"/></g><path d="M409 0L70-1118h191c89 329 165 560 243 925 75-353 154-601 240-925h192c85 325 161 564 235 922 77-354 157-598 244-922h191L1267 0h-179c-86-307-176-590-250-913C763-588 675-308 588 0H409" id="aP"/><g id="C"><use transform="matrix(0.010850694444444444,0,0,0.010850694444444444,0,0)" xlink:href="#aP"/><use transform="matrix(0.010850694444444444,0,0,0.010850694444444444,18.18576388888889,0)" xlink:href="#aN"/><use transform="matrix(0.010850694444444444,0,0,0.010850694444444444,31.32595486111111,0)" xlink:href="#aJ"/><use transform="matrix(0.010850694444444444,0,0,0.010850694444444444,43.80425347222222,0)" xlink:href="#at"/></g><g id="D"><use transform="matrix(0.010850694444444444,0,0,0.010850694444444444,0,0)" xlink:href="#aK"/><use transform="matrix(0.010850694444444444,0,0,0.010850694444444444,13.129340277777777,0)" xlink:href="#as"/><use transform="matrix(0.010850694444444444,0,0,0.010850694444444444,26.453993055555554,0)" xlink:href="#av"/><use transform="matrix(0.010850694444444444,0,0,0.010850694444444444,40.060763888888886,0)" xlink:href="#aq"/><use transform="matrix(0.010850694444444444,0,0,0.010850694444444444,53.01649305555556,0)" xlink:href="#ap"/></g><g id="E"><use transform="matrix(0.010850694444444444,0,0,0.010850694444444444,0,0)" xlink:href="#aJ"/><use transform="matrix(0.010850694444444444,0,0,0.010850694444444444,12.47829861111111,0)" xlink:href="#au"/><use transform="matrix(0.010850694444444444,0,0,0.010850694444444444,20.475260416666664,0)" xlink:href="#aq"/></g><path d="M613 24c-304 0-509-231-509-576 0-350 205-580 509-580 216 0 392 114 453 309l-173 49c-33-115-133-197-280-197-223 0-326 196-326 419 0 220 103 415 326 415 150 0 252-85 285-206l172 49C1010-95 832 24 613 24" id="aQ"/><path d="M295 13c-75 0-135-60-135-135s60-135 135-135 135 60 135 135S370 13 295 13" id="aR"/><g id="F"><use transform="matrix(0.010850694444444444,0,0,0.010850694444444444,0,0)" xlink:href="#aM"/><use transform="matrix(0.010850694444444444,0,0,0.010850694444444444,13.606770833333332,0)" xlink:href="#au"/><use transform="matrix(0.010850694444444444,0,0,0.010850694444444444,21.603732638888886,0)" xlink:href="#as"/><use transform="matrix(0.010850694444444444,0,0,0.010850694444444444,34.928385416666664,0)" xlink:href="#aQ"/><use transform="matrix(0.010850694444444444,0,0,0.010850694444444444,47.623697916666664,0)" xlink:href="#aq"/><use transform="matrix(0.010850694444444444,0,0,0.010850694444444444,60.57942708333333,0)" xlink:href="#ap"/><use transform="matrix(0.010850694444444444,0,0,0.010850694444444444,72.30902777777777,0)" xlink:href="#ap"/><use transform="matrix(0.010850694444444444,0,0,0.010850694444444444,84.03862847222221,0)" xlink:href="#aq"/><use transform="matrix(0.010850694444444444,0,0,0.010850694444444444,96.99435763888889,0)" xlink:href="#av"/><use transform="matrix(0.010850694444444444,0,0,0.010850694444444444,110.60112847222221,0)" xlink:href="#aR"/></g><path d="M180 0v-1490h908v168H370v486h669v168H370v500h727V0H180" id="aS"/><g id="G"><use transform="matrix(0.010850694444444444,0,0,0.010850694444444444,0,0)" xlink:href="#aS"/><use transform="matrix(0.010850694444444444,0,0,0.010850694444444444,13.35720486111111,0)" xlink:href="#aJ"/><use transform="matrix(0.010850694444444444,0,0,0.010850694444444444,25.83550347222222,0)" xlink:href="#aQ"/><use transform="matrix(0.010850694444444444,0,0,0.010850694444444444,38.53081597222222,0)" xlink:href="#aN"/></g><g id="H"><use transform="matrix(0.010850694444444444,0,0,0.010850694444444444,0,0)" xlink:href="#aK"/><use transform="matrix(0.010850694444444444,0,0,0.010850694444444444,13.129340277777777,0)" xlink:href="#as"/><use transform="matrix(0.010850694444444444,0,0,0.010850694444444444,26.453993055555554,0)" xlink:href="#av"/><use transform="matrix(0.010850694444444444,0,0,0.010850694444444444,40.060763888888886,0)" xlink:href="#aq"/></g><g id="I"><use transform="matrix(0.010850694444444444,0,0,0.010850694444444444,0,0)" xlink:href="#aQ"/><use transform="matrix(0.010850694444444444,0,0,0.010850694444444444,12.6953125,0)" xlink:href="#as"/><use transform="matrix(0.010850694444444444,0,0,0.010850694444444444,26.01996527777778,0)" xlink:href="#au"/><use transform="matrix(0.010850694444444444,0,0,0.010850694444444444,34.733072916666664,0)" xlink:href="#au"/><use transform="matrix(0.010850694444444444,0,0,0.010850694444444444,42.730034722222214,0)" xlink:href="#aq"/><use transform="matrix(0.010850694444444444,0,0,0.010850694444444444,55.68576388888888,0)" xlink:href="#ap"/><use transform="matrix(0.010850694444444444,0,0,0.010850694444444444,67.41536458333333,0)" xlink:href="#aM"/><use transform="matrix(0.010850694444444444,0,0,0.010850694444444444,81.02213541666666,0)" xlink:href="#as"/><use transform="matrix(0.010850694444444444,0,0,0.010850694444444444,94.34678819444441,0)" xlink:href="#aK"/><use transform="matrix(0.010850694444444444,0,0,0.010850694444444444,107.4761284722222,0)" xlink:href="#av"/><use transform="matrix(0.010850694444444444,0,0,0.010850694444444444,121.08289930555553,0)" xlink:href="#ap"/></g><path d="M158 0v-1118h180V0H158zm91-1301c-68 0-125-53-125-119s57-119 125-119c69 0 126 53 126 119s-57 119-126 119" id="aT"/><g id="J"><use transform="matrix(0.010850694444444444,0,0,0.010850694444444444,0,0)" xlink:href="#aP"/><use transform="matrix(0.010850694444444444,0,0,0.010850694444444444,18.18576388888889,0)" xlink:href="#aT"/><use transform="matrix(0.010850694444444444,0,0,0.010850694444444444,23.567708333333336,0)" xlink:href="#at"/><use transform="matrix(0.010850694444444444,0,0,0.010850694444444444,30.837673611111114,0)" xlink:href="#aN"/></g><use transform="matrix(0.010850694444444444,0,0,0.010850694444444444,0,0)" xlink:href="#aJ" id="K"/><path d="M226 279v-1860h398v153H398V126h226v153H226" id="aU"/><path d="M677 24c-213 0-288-135-325-197h-20V0H158v-1490h180v551h14c37-59 106-193 324-193 279 0 474 222 474 576 0 356-194 580-473 580zm-27-161c209 0 317-186 317-421 0-232-105-413-317-413-206 0-314 166-314 413 0 249 111 421 314 421" id="aV"/><path d="M128 359l88-567h206L266 359H128" id="aW"/><g id="L"><use transform="matrix(0.010850694444444444,0,0,0.010850694444444444,0,0)" xlink:href="#aU"/><use transform="matrix(0.010850694444444444,0,0,0.010850694444444444,8.10546875,0)" xlink:href="#aV"/><use transform="matrix(0.010850694444444444,0,0,0.010850694444444444,21.712239583333332,0)" xlink:href="#aW"/></g><path d="M123 279V126h226v-1554H123v-153h398V279H123" id="aX"/><g id="M"><use transform="matrix(0.010850694444444444,0,0,0.010850694444444444,0,0)" xlink:href="#aN"/><use transform="matrix(0.010850694444444444,0,0,0.010850694444444444,13.140190972222221,0)" xlink:href="#aX"/></g><g id="N"><use transform="matrix(0.010850694444444444,0,0,0.010850694444444444,0,0)" xlink:href="#aM"/><use transform="matrix(0.010850694444444444,0,0,0.010850694444444444,13.823784722222221,0)" xlink:href="#aJ"/><use transform="matrix(0.010850694444444444,0,0,0.010850694444444444,26.302083333333332,0)" xlink:href="#aT"/><use transform="matrix(0.010850694444444444,0,0,0.010850694444444444,31.684027777777775,0)" xlink:href="#au"/></g><path d="M611 442c-248 0-391-105-460-228l146-94c47 65 117 165 314 165 178 0 307-82 307-266v-224h-17C863-141 792-18 576-18c-268 0-472-195-472-546 0-346 197-568 476-568 216 0 288 133 326 193h17v-179h175V29c0 289-215 413-487 413zm-5-620c203 0 314-146 314-390 0-237-108-403-314-403-213 0-319 180-319 403 0 230 109 390 319 390" id="aY"/><g id="O"><use transform="matrix(0.010850694444444444,0,0,0.010850694444444444,0,0)" xlink:href="#au"/><use transform="matrix(0.010850694444444444,0,0,0.010850694444444444,7.996961805555555,0)" xlink:href="#aq"/><use transform="matrix(0.010850694444444444,0,0,0.010850694444444444,20.95269097222222,0)" xlink:href="#aM"/><use transform="matrix(0.010850694444444444,0,0,0.010850694444444444,34.55946180555556,0)" xlink:href="#au"/><use transform="matrix(0.010850694444444444,0,0,0.010850694444444444,42.55642361111111,0)" xlink:href="#aq"/><use transform="matrix(0.010850694444444444,0,0,0.010850694444444444,55.51215277777778,0)" xlink:href="#ap"/><use transform="matrix(0.010850694444444444,0,0,0.010850694444444444,67.24175347222221,0)" xlink:href="#aq"/><use transform="matrix(0.010850694444444444,0,0,0.010850694444444444,80.19748263888889,0)" xlink:href="#aK"/><use transform="matrix(0.010850694444444444,0,0,0.010850694444444444,93.32682291666666,0)" xlink:href="#at"/><use transform="matrix(0.010850694444444444,0,0,0.010850694444444444,100.59678819444441,0)" xlink:href="#aT"/><use transform="matrix(0.010850694444444444,0,0,0.010850694444444444,105.97873263888887,0)" xlink:href="#aK"/><use transform="matrix(0.010850694444444444,0,0,0.010850694444444444,119.10807291666664,0)" xlink:href="#aY"/></g><use transform="matrix(0.010850694444444444,0,0,0.010850694444444444,0,0)" xlink:href="#aJ" id="P"/><path d="M98-1322v-168h1126v168H757V0H567v-1322H98" id="aZ"/><path d="M692-1560L212 224H46l480-1784h166" id="ba"/><g id="Q"><use transform="matrix(0.010850694444444444,0,0,0.010850694444444444,0,0)" xlink:href="#aZ"/><use transform="matrix(0.010850694444444444,0,0,0.010850694444444444,13.0859375,0)" xlink:href="#au"/><use transform="matrix(0.010850694444444444,0,0,0.010850694444444444,21.451822916666664,0)" xlink:href="#aG"/><use transform="matrix(0.010850694444444444,0,0,0.010850694444444444,34.592013888888886,0)" xlink:href="#aq"/><use transform="matrix(0.010850694444444444,0,0,0.010850694444444444,47.54774305555556,0)" xlink:href="#ba"/><use transform="matrix(0.010850694444444444,0,0,0.010850694444444444,55.55555555555556,0)" xlink:href="#ax"/><use transform="matrix(0.010850694444444444,0,0,0.010850694444444444,68.13151041666666,0)" xlink:href="#aJ"/><use transform="matrix(0.010850694444444444,0,0,0.010850694444444444,80.60980902777777,0)" xlink:href="#aL"/><use transform="matrix(0.010850694444444444,0,0,0.010850694444444444,85.99175347222221,0)" xlink:href="#ap"/><use transform="matrix(0.010850694444444444,0,0,0.010850694444444444,97.72135416666666,0)" xlink:href="#aq"/></g><g id="R"><use transform="matrix(0.010850694444444444,0,0,0.010850694444444444,0,0)" xlink:href="#aV"/><use transform="matrix(0.010850694444444444,0,0,0.010850694444444444,13.823784722222221,0)" xlink:href="#aJ"/><use transform="matrix(0.010850694444444444,0,0,0.010850694444444444,26.302083333333332,0)" xlink:href="#aL"/><use transform="matrix(0.010850694444444444,0,0,0.010850694444444444,31.684027777777775,0)" xlink:href="#aJ"/><use transform="matrix(0.010850694444444444,0,0,0.010850694444444444,44.162326388888886,0)" xlink:href="#aK"/><use transform="matrix(0.010850694444444444,0,0,0.010850694444444444,57.291666666666664,0)" xlink:href="#aQ"/><use transform="matrix(0.010850694444444444,0,0,0.010850694444444444,69.98697916666666,0)" xlink:href="#aq"/><use transform="matrix(0.010850694444444444,0,0,0.010850694444444444,82.94270833333333,0)" xlink:href="#av"/></g><g id="S"><use transform="matrix(0.010850694444444444,0,0,0.010850694444444444,0,0)" xlink:href="#aV"/><use transform="matrix(0.010850694444444444,0,0,0.010850694444444444,13.606770833333332,0)" xlink:href="#as"/><use transform="matrix(0.010850694444444444,0,0,0.010850694444444444,26.931423611111104,0)" xlink:href="#as"/><use transform="matrix(0.010850694444444444,0,0,0.010850694444444444,40.256076388888886,0)" xlink:href="#aL"/></g><path d="M481 0L54-1118h197c107 314 236 620 325 951 87-331 217-637 324-951h197L670 0H481" id="bb"/><g id="T"><use transform="matrix(0.010850694444444444,0,0,0.010850694444444444,0,0)" xlink:href="#bb"/><use transform="matrix(0.010850694444444444,0,0,0.010850694444444444,12.38064236111111,0)" xlink:href="#aJ"/><use transform="matrix(0.010850694444444444,0,0,0.010850694444444444,24.85894097222222,0)" xlink:href="#au"/><use transform="matrix(0.010850694444444444,0,0,0.010850694444444444,33.57204861111111,0)" xlink:href="#aT"/><use transform="matrix(0.010850694444444444,0,0,0.010850694444444444,38.95399305555555,0)" xlink:href="#aJ"/><use transform="matrix(0.010850694444444444,0,0,0.010850694444444444,51.43229166666666,0)" xlink:href="#aV"/><use transform="matrix(0.010850694444444444,0,0,0.010850694444444444,65.03906249999999,0)" xlink:href="#aL"/><use transform="matrix(0.010850694444444444,0,0,0.010850694444444444,70.42100694444443,0)" xlink:href="#aq"/></g><g id="U"><use transform="matrix(0.010850694444444444,0,0,0.010850694444444444,0,0)" xlink:href="#aJ"/><use transform="matrix(0.010850694444444444,0,0,0.010850694444444444,12.47829861111111,0)" xlink:href="#aK"/><use transform="matrix(0.010850694444444444,0,0,0.010850694444444444,25.60763888888889,0)" xlink:href="#av"/></g><g id="V"><use transform="matrix(0.010850694444444444,0,0,0.010850694444444444,0,0)" xlink:href="#aN"/><use transform="matrix(0.010850694444444444,0,0,0.010850694444444444,13.140190972222221,0)" xlink:href="#aq"/><use transform="matrix(0.010850694444444444,0,0,0.010850694444444444,26.09592013888889,0)" xlink:href="#aT"/><use transform="matrix(0.010850694444444444,0,0,0.010850694444444444,31.47786458333333,0)" xlink:href="#aY"/><use transform="matrix(0.010850694444444444,0,0,0.010850694444444444,45.10633680555556,0)" xlink:href="#aN"/><use transform="matrix(0.010850694444444444,0,0,0.010850694444444444,58.24652777777778,0)" xlink:href="#at"/><use transform="matrix(0.010850694444444444,0,0,0.010850694444444444,65.51649305555554,0)" xlink:href="#aR"/></g><use transform="matrix(0.010850694444444444,0,0,0.010850694444444444,0,0)" xlink:href="#aN" id="W"/><path d="M226-283v-166h904v166H226zm0-434v-166h904v166H226" id="bc"/><use transform="matrix(0.010850694444444444,0,0,0.010850694444444444,0,0)" xlink:href="#bc" id="X"/><path d="M653-1490V0H466v-1314h-10L96-1047v-204l324-239h233" id="bd"/><use transform="matrix(0.010850694444444444,0,0,0.010850694444444444,0,0)" xlink:href="#bd" id="Y"/><path d="M593-100v-404H195v-159h398v-403h169v403h398v159H762v404H593" id="be"/><use transform="matrix(0.010850694444444444,0,0,0.010850694444444444,0,0)" xlink:href="#be" id="Z"/><path d="M65 0l393-574-370-544h210c88 136 192 297 267 435 67-142 176-302 264-435h206L661-564 1053 0H844c-94-144-206-310-287-458C484-308 366-142 273 0H65" id="bf"/><path d="M218-607c0-325 108-727 258-974h175c-155 315-250 682-250 974 0 265 78 531 250 886H476C306-10 218-315 218-607" id="bg"/><path d="M180 0v-1490h190v1322h690V0H180" id="bh"/><g id="aa"><use transform="matrix(0.010850694444444444,0,0,0.010850694444444444,0,0)" xlink:href="#aI"/><use transform="matrix(0.010850694444444444,0,0,0.010850694444444444,19.466145833333332,0)" xlink:href="#aJ"/><use transform="matrix(0.010850694444444444,0,0,0.010850694444444444,31.944444444444443,0)" xlink:href="#bf"/><use transform="matrix(0.010850694444444444,0,0,0.010850694444444444,44.07552083333333,0)" xlink:href="#bg"/><use transform="matrix(0.010850694444444444,0,0,0.010850694444444444,52.18098958333333,0)" xlink:href="#bh"/><use transform="matrix(0.010850694444444444,0,0,0.010850694444444444,64.74609375,0)" xlink:href="#aU"/><use transform="matrix(0.010850694444444444,0,0,0.010850694444444444,72.8515625,0)" xlink:href="#bd"/><use transform="matrix(0.010850694444444444,0,0,0.010850694444444444,81.89019097222223,0)" xlink:href="#aX"/><use transform="matrix(0.010850694444444444,0,0,0.010850694444444444,89.99565972222221,0)" xlink:href="#aW"/></g><path d="M96 279C273-86 346-350 346-607c0-292-95-659-250-974h175c150 246 258 650 258 974 0 297-91 602-258 886H96" id="bi"/><g id="ab"><use transform="matrix(0.010850694444444444,0,0,0.010850694444444444,0,0)" xlink:href="#aH"/><use transform="matrix(0.010850694444444444,0,0,0.010850694444444444,14.301215277777777,0)" xlink:href="#aU"/><use transform="matrix(0.010850694444444444,0,0,0.010850694444444444,22.40668402777778,0)" xlink:href="#bd"/><use transform="matrix(0.010850694444444444,0,0,0.010850694444444444,31.4453125,0)" xlink:href="#aX"/><use transform="matrix(0.010850694444444444,0,0,0.010850694444444444,39.55078125,0)" xlink:href="#bi"/></g><use transform="matrix(0.010850694444444444,0,0,0.010850694444444444,0,0)" xlink:href="#aV" id="ac"/><path d="M646 20c-332 0-524-278-524-764 0-483 194-766 524-766s524 283 524 766c0 485-191 764-524 764zm0-166c218 0 341-220 341-598 0-380-123-601-341-601s-341 222-341 601c0 378 123 598 341 598" id="bj"/><g id="ad"><use transform="matrix(0.010850694444444444,0,0,0.010850694444444444,0,0)" xlink:href="#bh"/><use transform="matrix(0.010850694444444444,0,0,0.010850694444444444,12.565104166666666,0)" xlink:href="#aU"/><use transform="matrix(0.010850694444444444,0,0,0.010850694444444444,20.670572916666664,0)" xlink:href="#bj"/><use transform="matrix(0.010850694444444444,0,0,0.010850694444444444,34.689670138888886,0)" xlink:href="#aX"/></g><g id="ae"><use transform="matrix(0.010850694444444444,0,0,0.010850694444444444,0,0)" xlink:href="#aH"/><use transform="matrix(0.010850694444444444,0,0,0.010850694444444444,14.301215277777777,0)" xlink:href="#aU"/><use transform="matrix(0.010850694444444444,0,0,0.010850694444444444,22.40668402777778,0)" xlink:href="#bj"/><use transform="matrix(0.010850694444444444,0,0,0.010850694444444444,36.42578125,0)" xlink:href="#aX"/></g></defs></g></svg>