<svg xmlns="http://www.w3.org/2000/svg" xmlns:xlink="http://www.w3.org/1999/xlink" xmlns:lucid="lucid" width="477.2" height="3462"><g transform="translate(-70.46875 -159)" lucid:page-tab-id="0_0"><path d="M220 166a6 6 0 0 1 6-6h181.33a6 6 0 0 1 6 6v63.47a6 6 0 0 1-6 6H226a6 6 0 0 1-6-6z" stroke="#000" stroke-width="2" fill="#fff"/><use xlink:href="#a" transform="matrix(1,0,0,1,225,165) translate(14.55859375 25.65277777777778)"/><use xlink:href="#b" transform="matrix(1,0,0,1,225,165) translate(80.57421875 25.65277777777778)"/><use xlink:href="#c" transform="matrix(1,0,0,1,225,165) translate(126.29904513888889 25.65277777777778)"/><use xlink:href="#d" transform="matrix(1,0,0,1,225,165) translate(47.23546006944444 57.91840277777778)"/><path d="M356.67 320c0 22.1-17.9 40-40 40s-40-17.9-40-40 17.9-40 40-40 40 17.9 40 40z" stroke="#000" stroke-width="2" fill="#fff"/><use xlink:href="#e" transform="matrix(1,0,0,1,281.6666666666667,285) translate(28.245442708333336 43.40277777777778)"/><path d="M191.94 400.48h-5.92l-.88.06-.85.2-.8.34-.75.45-.66.56-.57.65-.45.74-.33.8-.2.84-.08.88v16.6h-.94v-16.64l.07-1 .24-.98.4-.94.52-.87.66-.78.77-.66.86-.53.94-.4 1-.23.98-.08h5.96zm125.2-6.46l-.08 1-.23.98-.4.94-.52.87-.65.78-.78.66-.86.53-.93.4-1 .23-1 .08h-5.94v-.96h5.92l.88-.06.84-.2.8-.34.74-.45.67-.56.56-.65.46-.74.32-.8.2-.84.07-.88V361.5h.94z" stroke="#3a414a" stroke-width=".05" fill="#3a414a"/><path d="M316.65 361l.5-.02v.53h-.96v-.53z" fill="#3a414a"/><path stroke="#3a414a" stroke-width=".05" fill="#3a414a"/><path d="M180 437.38l-4.63-14.26h9.26z" fill="#3a414a"/><path d="M180 438.92l-5.3-16.28h10.6zm-3.98-15.33l3.98 12.24 3.98-12.25z" stroke="#3a414a" stroke-width=".05" fill="#3a414a"/><use xlink:href="#f" transform="matrix(1,0,0,1,191.9357638888889,389.2447916666667) translate(0 17.22222222222222)"/><use xlink:href="#g" transform="matrix(1,0,0,1,191.9357638888889,389.2447916666667) translate(29.835069444444443 17.22222222222222)"/><use xlink:href="#h" transform="matrix(1,0,0,1,191.9357638888889,389.2447916666667) translate(46.111111111111114 17.22222222222222)"/><path d="M220 480c0 22.1-17.9 40-40 40s-40-17.9-40-40 17.9-40 40-40 40 17.9 40 40z" stroke="#000" stroke-width="2" fill="#fff"/><use xlink:href="#i" transform="matrix(1,0,0,1,145,445) translate(28.13693576388889 43.40277777777778)"/><path d="M316.67 361.5V394a6 6 0 0 0 6 6H454a6 6 0 0 1 6 6v16.62" stroke="#3a414a" fill="none"/><path d="M316.65 361l.5-.02v.53h-.96v-.53z" stroke="#3a414a" stroke-width=".05" fill="#3a414a"/><path d="M460 437.38l-4.63-14.26h9.26z" stroke="#3a414a" fill="#3a414a"/><path d="M500 480c0 22.1-17.9 40-40 40s-40-17.9-40-40 17.9-40 40-40 40 17.9 40 40z" stroke="#000" stroke-width="2" fill="#fff"/><use xlink:href="#j" transform="matrix(1,0,0,1,425,445) translate(28.712022569444443 43.40277777777778)"/><path d="M120.47 622.6h-.94v-31.85h.94zm60-53.36h-.94V521.5h.94z" stroke="#3a414a" stroke-width=".05" fill="#3a414a"/><path d="M180 521l.47-.02v.53h-.94v-.53z" fill="#3a414a"/><path stroke="#3a414a" stroke-width=".05" fill="#3a414a"/><path d="M120 637.38l-4.64-14.26h9.28z" fill="#3a414a"/><path d="M120 638.92l-5.3-16.28h10.6zm-3.98-15.33l3.98 12.24 3.98-12.25z" stroke="#3a414a" stroke-width=".05" fill="#3a414a"/><use xlink:href="#f" transform="matrix(1,0,0,1,75.32176557158421,569.2447916666666) translate(0 17.22222222222222)"/><use xlink:href="#g" transform="matrix(1,0,0,1,75.32176557158421,569.2447916666666) translate(29.835069444444443 17.22222222222222)"/><use xlink:href="#h" transform="matrix(1,0,0,1,75.32176557158421,569.2447916666666) translate(46.111111111111114 17.22222222222222)"/><path d="M160 680c0 22.1-17.9 40-40 40s-40-17.9-40-40 17.9-40 40-40 40 17.9 40 40z" stroke="#000" stroke-width="2" fill="#fff"/><use xlink:href="#k" transform="matrix(1,0,0,1,85,645) translate(30.48068576388889 43.40277777777778)"/><path d="M460 521.5V554a6 6 0 0 1-6 6h-68a6 6 0 0 0-6 6v16.62" stroke="#3a414a" fill="none"/><path d="M460 521l.48-.02v.53h-.96v-.53z" stroke="#3a414a" stroke-width=".05" fill="#3a414a"/><path d="M380 597.38l-4.63-14.26h9.26z" stroke="#3a414a" fill="#3a414a"/><path d="M420 640c0 22.1-17.9 40-40 40s-40-17.9-40-40 17.9-40 40-40 40 17.9 40 40z" stroke="#000" stroke-width="2" fill="#fff"/><use xlink:href="#l" transform="matrix(1,0,0,1,345,605) translate(28.10980902777778 43.40277777777778)"/><path d="M460 521.5V554a6 6 0 0 0 6 6h28a6 6 0 0 1 6 6v16.62" stroke="#3a414a" fill="none"/><path d="M460 521l.48-.02v.53h-.96v-.53z" stroke="#3a414a" stroke-width=".05" fill="#3a414a"/><path d="M500 597.38l-4.63-14.26h9.26z" stroke="#3a414a" fill="#3a414a"/><path d="M540 640c0 22.1-17.9 40-40 40s-40-17.9-40-40 17.9-40 40-40 40 17.9 40 40z" stroke="#000" stroke-width="2" fill="#fff"/><use xlink:href="#m" transform="matrix(1,0,0,1,465,605) translate(28.126085069444443 43.40277777777778)"/><path d="M180.47 553.98l.07.88.2.85.34.8.45.75.56.66.65.57.74.45.8.33.84.2.88.07h68l1 .08.98.24.94.4.87.52.78.66.66.77.53.86.4.94.23 1 .08.98v16.63h-.96v-16.58l-.06-.88-.2-.85-.34-.8-.45-.75-.56-.66-.65-.57-.74-.45-.8-.33-.84-.2-.88-.07h-68l-1-.08-.98-.24-.94-.4-.87-.52-.78-.66-.66-.77-.53-.86-.4-.94-.23-1-.07-.98V521.5h.94z" stroke="#3a414a" stroke-width=".05" fill="#3a414a"/><path d="M180 521l.47-.02v.53h-.94v-.53z" fill="#3a414a"/><path stroke="#3a414a" stroke-width=".05" fill="#3a414a"/><path d="M260 597.38l-4.63-14.26h9.26z" fill="#3a414a"/><path d="M260 598.92l-5.3-16.28h10.6zm-3.98-15.33l3.98 12.24 3.98-12.25z" stroke="#3a414a" stroke-width=".05" fill="#3a414a"/><path d="M300 640c0 22.1-17.9 40-40 40s-40-17.9-40-40 17.9-40 40-40 40 17.9 40 40z" stroke="#000" stroke-width="2" fill="#fff"/><use xlink:href="#n" transform="matrix(1,0,0,1,225,605) translate(27.822265625 43.40277777777778)"/><path d="M254.02 759.52l1 .08.98.24.94.4.87.52.78.66.66.77.53.86.4.94.23 1 .08.98v16.63h-.96v-16.58l-.06-.88-.2-.85-.34-.8-.45-.75-.56-.66-.65-.57-.74-.45-.8-.33-.84-.2-.88-.07h-7.58v-.96zm-133.48-4.66l.2.85.34.8.45.75.56.66.65.57.74.45.8.33.84.2.88.07h7.58v.96h-7.62l-1-.08-.98-.24-.94-.4-.87-.52-.78-.66-.66-.77-.53-.86-.4-.94-.23-1-.07-.98V721.5h.94v32.48z" stroke="#3a414a" stroke-width=".05" fill="#3a414a"/><path d="M120 721l.47-.02v.53h-.94v-.53z" fill="#3a414a"/><path stroke="#3a414a" stroke-width=".05" fill="#3a414a"/><path d="M260 797.38l-4.63-14.26h9.26z" fill="#3a414a"/><path d="M260 798.92l-5.3-16.28h10.6zm-3.98-15.33l3.98 12.24 3.98-12.25z" stroke="#3a414a" stroke-width=".05" fill="#3a414a"/><use xlink:href="#f" transform="matrix(1,0,0,1,133.60243055555554,749.2447916666666) translate(0 17.22222222222222)"/><use xlink:href="#o" transform="matrix(1,0,0,1,133.60243055555554,749.2447916666666) translate(29.835069444444443 17.22222222222222)"/><use xlink:href="#h" transform="matrix(1,0,0,1,133.60243055555554,749.2447916666666) translate(46.111111111111114 17.22222222222222)"/><path d="M300 840c0 22.1-17.9 40-40 40s-40-17.9-40-40 17.9-40 40-40 40 17.9 40 40z" stroke="#000" stroke-width="2" fill="#c3f7c8"/><use xlink:href="#p" transform="matrix(1,0,0,1,225,805) translate(28.223741319444443 43.40277777777778)"/><path d="M220 930.53a6 6 0 0 1 6-6h181.33a6 6 0 0 1 6 6V994a6 6 0 0 1-6 6H226a6 6 0 0 1-6-6z" stroke="#000" stroke-width="2" fill="#fff"/><use xlink:href="#q" transform="matrix(1,0,0,1,225,929.5333333333333) translate(6.002821180555557 25.65277777777778)"/><use xlink:href="#r" transform="matrix(1,0,0,1,225,929.5333333333333) translate(79.59223090277779 25.65277777777778)"/><use xlink:href="#s" transform="matrix(1,0,0,1,225,929.5333333333333) translate(134.85481770833331 25.65277777777778)"/><use xlink:href="#t" transform="matrix(1,0,0,1,225,929.5333333333333) translate(43.36176215277777 57.91840277777778)"/><path d="M363.33 1084.53c0 22.1-17.9 40-40 40s-40-17.9-40-40 17.9-40 40-40 40 17.9 40 40z" stroke="#000" stroke-width="2" fill="#fff"/><use xlink:href="#u" transform="matrix(1,0,0,1,288.33333333333337,1049.5333333333333) translate(28.245442708333336 43.40277777777778)"/><path d="M198.6 1165h-5.9l-.9.08-.84.2-.8.33-.74.47-.66.56-.56.66-.45.73-.34.8-.2.84-.06.88v16.6h-.95v-16.63l.07-1 .24-1 .4-.93.53-.87.66-.78.76-.66.87-.54.94-.4.98-.22 1-.08h5.95zm125.2-6.45l-.07 1-.24 1-.4.92-.53.87-.66.77-.76.67-.87.53-.94.4-.98.23-1 .08h-5.95v-.94h5.92l.88-.07.84-.2.8-.35.74-.45.66-.56.56-.66.45-.74.34-.8.2-.84.06-.88v-32.5h.95z" stroke="#3a414a" stroke-width=".05" fill="#3a414a"/><path d="M323.32 1125.53h.5v.52h-.96v-.54z" fill="#3a414a"/><path stroke="#3a414a" stroke-width=".05" fill="#3a414a"/><path d="M186.67 1201.9l-4.64-14.25h9.27z" fill="#3a414a"/><path d="M186.67 1203.45l-5.3-16.28h10.6zm-3.98-15.33l3.97 12.26 3.98-12.26z" stroke="#3a414a" stroke-width=".05" fill="#3a414a"/><use xlink:href="#f" transform="matrix(1,0,0,1,198.6024305555556,1153.778125) translate(0 17.22222222222222)"/><use xlink:href="#g" transform="matrix(1,0,0,1,198.6024305555556,1153.778125) translate(29.835069444444443 17.22222222222222)"/><use xlink:href="#h" transform="matrix(1,0,0,1,198.6024305555556,1153.778125) translate(46.111111111111114 17.22222222222222)"/><path d="M226.67 1244.53c0 22.1-17.9 40-40 40s-40-17.9-40-40 17.9-40 40-40 40 17.9 40 40z" stroke="#000" stroke-width="2" fill="#c3f7c8"/><use xlink:href="#v" transform="matrix(1,0,0,1,151.66666666666669,1209.5333333333333) translate(28.13693576388889 43.40277777777778)"/><path d="M323.33 1126.03v32.5a6 6 0 0 0 6 6h131.34a6 6 0 0 1 6 6v16.62" stroke="#3a414a" fill="none"/><path d="M323.32 1125.53h.5v.52h-.96v-.54z" stroke="#3a414a" stroke-width=".05" fill="#3a414a"/><path d="M466.67 1201.9l-4.64-14.25h9.27z" stroke="#3a414a" fill="#3a414a"/><path d="M506.67 1244.53c0 22.1-17.9 40-40 40s-40-17.9-40-40 17.9-40 40-40 40 17.9 40 40z" stroke="#000" stroke-width="2" fill="#fff"/><use xlink:href="#w" transform="matrix(1,0,0,1,431.6666666666667,1209.5333333333333) translate(28.712022569444443 43.40277777777778)"/><path d="M186.67 1286.03v32.5a6 6 0 0 1-6 6h-28a6 6 0 0 0-6 6v16.62" stroke="#3a414a" fill="none"/><path d="M186.65 1285.53h.5v.52h-.96v-.54z" stroke="#3a414a" stroke-width=".05" fill="#3a414a"/><path d="M146.67 1361.9l-4.64-14.25h9.27z" stroke="#3a414a" fill="#3a414a"/><path d="M186.67 1404.53c0 22.1-17.9 40-40 40s-40-17.9-40-40 17.9-40 40-40 40 17.9 40 40z" stroke="#000" stroke-width="2" fill="#fff"/><use xlink:href="#x" transform="matrix(1,0,0,1,111.66666666666669,1369.5333333333333) translate(30.48068576388889 43.40277777777778)"/><path d="M466.67 1286.03v32.5a6 6 0 0 1-6 6h-68a6 6 0 0 0-6 6v16.62" stroke="#3a414a" fill="none"/><path d="M466.65 1285.53h.5v.52h-.96v-.54z" stroke="#3a414a" stroke-width=".05" fill="#3a414a"/><path d="M386.67 1361.9l-4.64-14.25h9.27z" stroke="#3a414a" fill="#3a414a"/><path d="M426.67 1404.53c0 22.1-17.9 40-40 40s-40-17.9-40-40 17.9-40 40-40 40 17.9 40 40z" stroke="#000" stroke-width="2" fill="#fff"/><use xlink:href="#y" transform="matrix(1,0,0,1,351.6666666666667,1369.5333333333333) translate(28.10980902777778 43.40277777777778)"/><path d="M466.67 1286.03v32.5a6 6 0 0 0 6 6h28a6 6 0 0 1 6 6v16.62" stroke="#3a414a" fill="none"/><path d="M466.65 1285.53h.5v.52h-.96v-.54z" stroke="#3a414a" stroke-width=".05" fill="#3a414a"/><path d="M506.67 1361.9l-4.64-14.25h9.27z" stroke="#3a414a" fill="#3a414a"/><path d="M546.67 1404.53c0 22.1-17.9 40-40 40s-40-17.9-40-40 17.9-40 40-40 40 17.9 40 40z" stroke="#000" stroke-width="2" fill="#fff"/><use xlink:href="#z" transform="matrix(1,0,0,1,471.6666666666667,1369.5333333333333) translate(28.126085069444443 43.40277777777778)"/><path d="M260.7 1324.06l.98.08 1 .23.93.4.87.52.78.65.66.78.54.86.4.93.22 1 .08 1v16.62h-.95v-16.6l-.08-.88-.2-.84-.33-.8-.47-.74-.56-.67-.66-.57-.73-.45-.8-.32-.84-.2-.88-.07h-15.9v-.94zm-73.5-4.66l.2.84.34.8.46.74.56.66.66.56.74.45.8.34.84.2.88.06h15.92v.95h-15.95l-1-.07-1-.24-.92-.4-.87-.53-.77-.66-.67-.76-.53-.87-.4-.93-.23-1-.08-1v-32.5h.94v32.48z" stroke="#3a414a" stroke-width=".05" fill="#3a414a"/><path d="M186.65 1285.53h.5v.52h-.96v-.54z" fill="#3a414a"/><path stroke="#3a414a" stroke-width=".05" fill="#3a414a"/><path d="M266.67 1361.9l-4.64-14.25h9.27z" fill="#3a414a"/><path d="M266.67 1363.45l-5.3-16.28h10.6zm-4-15.33l4 12.26 3.98-12.26z" stroke="#3a414a" stroke-width=".05" fill="#3a414a"/><use xlink:href="#A" transform="matrix(1,0,0,1,208.5980902777778,1313.778125) translate(0 17.22222222222222)"/><path d="M306.67 1404.53c0 22.1-17.9 40-40 40s-40-17.9-40-40 17.9-40 40-40 40 17.9 40 40z" stroke="#000" stroke-width="2" fill="#54c45e"/><use xlink:href="#B" transform="matrix(1,0,0,1,231.66666666666669,1369.5333333333333) translate(27.822265625 43.40277777777778)"/><path d="M363.33 1520c0 22.1-17.9 40-40 40s-40-17.9-40-40 17.9-40 40-40 40 17.9 40 40z" stroke="#000" stroke-width="2" fill="#fff"/><use xlink:href="#u" transform="matrix(1,0,0,1,288.3333333333335,1485) translate(28.245442708333336 43.40277777777778)"/><path d="M198.6 1600.47h-5.9l-.9.07-.84.2-.8.34-.74.45-.66.56-.56.65-.45.74-.34.8-.2.84-.06.88v16.6h-.95v-16.64l.07-1 .24-.98.4-.94.53-.87.66-.78.76-.66.87-.53.94-.4.98-.23 1-.07h5.95zm125.2-6.45l-.07 1-.24.98-.4.94-.53.87-.66.78-.76.66-.87.53-.94.4-.98.23-1 .07h-5.95v-.94h5.92l.88-.07.84-.2.8-.34.74-.45.66-.56.56-.65.45-.74.34-.8.2-.84.06-.88v-32.48h.95z" stroke="#3a414a" stroke-width=".05" fill="#3a414a"/><path d="M323.32 1561l.5-.02v.53h-.96v-.53z" fill="#3a414a"/><path stroke="#3a414a" stroke-width=".05" fill="#3a414a"/><path d="M186.67 1637.38l-4.64-14.27 9.27.02z" fill="#3a414a"/><path d="M186.67 1638.92l-5.3-16.28h10.6zm-3.98-15.33l3.97 12.24 3.98-12.25z" stroke="#3a414a" stroke-width=".05" fill="#3a414a"/><use xlink:href="#f" transform="matrix(1,0,0,1,198.6024305555557,1589.2447916666667) translate(0 17.22222222222222)"/><use xlink:href="#g" transform="matrix(1,0,0,1,198.6024305555557,1589.2447916666667) translate(29.835069444444443 17.22222222222222)"/><use xlink:href="#h" transform="matrix(1,0,0,1,198.6024305555557,1589.2447916666667) translate(46.111111111111114 17.22222222222222)"/><path d="M226.67 1680c0 22.1-17.9 40-40 40s-40-17.9-40-40 17.9-40 40-40 40 17.9 40 40z" stroke="#000" stroke-width="2" fill="#c3f7c8"/><use xlink:href="#B" transform="matrix(1,0,0,1,151.6666666666668,1645) translate(27.822265625 43.40277777777778)"/><path d="M323.33 1561.5v32.5a6 6 0 0 0 6 6h131.34a6 6 0 0 1 6 6v16.62" stroke="#3a414a" fill="none"/><path d="M323.32 1561l.5-.02v.53h-.96v-.53z" stroke="#3a414a" stroke-width=".05" fill="#3a414a"/><path d="M466.67 1637.38l-4.64-14.27 9.27.02z" stroke="#3a414a" fill="#3a414a"/><path d="M506.67 1680c0 22.1-17.9 40-40 40s-40-17.9-40-40 17.9-40 40-40 40 17.9 40 40z" stroke="#000" stroke-width="2" fill="#fff"/><use xlink:href="#C" transform="matrix(1,0,0,1,431.66666666666674,1645) translate(28.712022569444443 43.40277777777778)"/><path d="M186.67 1721.5v32.5a6 6 0 0 1-6 6h-28a6 6 0 0 0-6 6v16.62" stroke="#3a414a" fill="none"/><path d="M186.65 1721l.5-.02v.53h-.96v-.53z" stroke="#3a414a" stroke-width=".05" fill="#3a414a"/><path d="M146.67 1797.38l-4.64-14.27 9.27.02z" stroke="#3a414a" fill="#3a414a"/><path d="M186.67 1840c0 22.1-17.9 40-40 40s-40-17.9-40-40 17.9-40 40-40 40 17.9 40 40z" stroke="#000" stroke-width="2" fill="#fff"/><use xlink:href="#x" transform="matrix(1,0,0,1,111.6666666666668,1805) translate(30.48068576388889 43.40277777777778)"/><path d="M466.67 1721.5v32.5a6 6 0 0 1-6 6h-68a6 6 0 0 0-6 6v16.62" stroke="#3a414a" fill="none"/><path d="M466.65 1721l.5-.02v.53h-.96v-.53z" stroke="#3a414a" stroke-width=".05" fill="#3a414a"/><path d="M386.67 1797.38l-4.64-14.27 9.27.02z" stroke="#3a414a" fill="#3a414a"/><path d="M426.67 1840c0 22.1-17.9 40-40 40s-40-17.9-40-40 17.9-40 40-40 40 17.9 40 40z" stroke="#000" stroke-width="2" fill="#fff"/><use xlink:href="#y" transform="matrix(1,0,0,1,351.6666666666668,1805) translate(28.10980902777778 43.40277777777778)"/><path d="M466.67 1721.5v32.5a6 6 0 0 0 6 6h28a6 6 0 0 1 6 6v16.62" stroke="#3a414a" fill="none"/><path d="M466.65 1721l.5-.02v.53h-.96v-.53z" stroke="#3a414a" stroke-width=".05" fill="#3a414a"/><path d="M506.67 1797.38l-4.64-14.27 9.27.02z" stroke="#3a414a" fill="#3a414a"/><path d="M546.67 1840c0 22.1-17.9 40-40 40s-40-17.9-40-40 17.9-40 40-40 40 17.9 40 40z" stroke="#000" stroke-width="2" fill="#fff"/><use xlink:href="#z" transform="matrix(1,0,0,1,471.66666666666674,1805) translate(28.126085069444443 43.40277777777778)"/><path d="M260.7 1759.53l.98.07 1 .24.93.4.87.52.78.66.66.77.54.86.4.94.22 1 .08.98v16.63l-.95.02v-16.6l-.08-.88-.2-.85-.33-.8-.47-.75-.56-.66-.66-.57-.73-.45-.8-.33-.84-.2-.88-.08h-15.9v-.94zm-73.5-4.67l.2.85.34.8.46.75.56.66.66.57.74.45.8.33.84.2.88.08h15.92v.94h-15.95l-1-.07-1-.24-.92-.4-.87-.52-.77-.66-.67-.77-.53-.86-.4-.94-.23-1-.08-.98v-32.52h.94v32.48z" stroke="#3a414a" stroke-width=".05" fill="#3a414a"/><path d="M186.65 1721l.5-.02v.53h-.96v-.53z" fill="#3a414a"/><path stroke="#3a414a" stroke-width=".05" fill="#3a414a"/><path d="M266.67 1797.38l-4.64-14.27 9.27.02z" fill="#3a414a"/><path d="M266.67 1798.92l-5.3-16.28h10.6zm-4-15.33l4 12.24 3.98-12.25z" stroke="#3a414a" stroke-width=".05" fill="#3a414a"/><use xlink:href="#A" transform="matrix(1,0,0,1,208.5980902777779,1749.2447916666667) translate(0 17.22222222222222)"/><path d="M306.67 1840c0 22.1-17.9 40-40 40s-40-17.9-40-40 17.9-40 40-40 40 17.9 40 40z" stroke="#000" stroke-width="2" fill="#54c45e"/><use xlink:href="#B" transform="matrix(1,0,0,1,231.6666666666668,1805) translate(27.822265625 43.40277777777778)"/><path d="M363.33 1960c0 22.1-17.9 40-40 40s-40-17.9-40-40 17.9-40 40-40 40 17.9 40 40z" stroke="#000" stroke-width="2" fill="#fff"/><use xlink:href="#u" transform="matrix(1,0,0,1,288.3333333333335,1925) translate(28.245442708333336 43.40277777777778)"/><path d="M192.57 2040.48l-.77.06-.84.2-.8.34-.74.45-.66.56-.56.65-.45.74-.34.8-.2.84-.06.88v16.6h-.95v-16.64l.07-1 .24-.98.4-.94.53-.87.66-.78.76-.66.87-.53.94-.4.98-.23.92-.07zm131.24-6.46l-.07 1-.24.98-.4.94-.53.87-.66.78-.76.66-.87.53-.94.4-.98.23-.92.07v-.95l.77-.06.84-.2.8-.34.74-.45.66-.56.56-.65.45-.74.34-.8.2-.84.06-.88v-32.48h.95z" stroke="#3a414a" stroke-width=".05" fill="#3a414a"/><path d="M323.32 2001l.5-.02v.53h-.96v-.53z" fill="#3a414a"/><path stroke="#3a414a" stroke-width=".05" fill="#3a414a"/><path d="M186.67 2077.38l-4.64-14.27h9.27z" fill="#3a414a"/><path d="M186.67 2078.92l-5.3-16.28h10.6zm-3.98-15.33l3.97 12.24 3.98-12.25z" stroke="#3a414a" stroke-width=".05" fill="#3a414a"/><use xlink:href="#f" transform="matrix(1,0,0,1,192.56944444444457,2029.2447916666667) translate(0 17.22222222222222)"/><use xlink:href="#D" transform="matrix(1,0,0,1,192.56944444444457,2029.2447916666667) translate(29.835069444444443 17.22222222222222)"/><use xlink:href="#h" transform="matrix(1,0,0,1,192.56944444444457,2029.2447916666667) translate(58.177083333333336 17.22222222222222)"/><path d="M226.67 2120c0 22.1-17.9 40-40 40s-40-17.9-40-40 17.9-40 40-40 40 17.9 40 40z" stroke="#000" stroke-width="2" fill="#c3f7c8"/><use xlink:href="#B" transform="matrix(1,0,0,1,151.6666666666668,2085) translate(27.822265625 43.40277777777778)"/><path d="M323.33 2001.5v32.5a6 6 0 0 0 6 6h131.34a6 6 0 0 1 6 6v16.6" stroke="#3a414a" fill="none"/><path d="M323.32 2001l.5-.02v.53h-.96v-.53z" stroke="#3a414a" stroke-width=".05" fill="#3a414a"/><path d="M466.67 2077.38l-4.64-14.27h9.27z" stroke="#3a414a" fill="#3a414a"/><path d="M506.67 2120c0 22.1-17.9 40-40 40s-40-17.9-40-40 17.9-40 40-40 40 17.9 40 40z" stroke="#000" stroke-width="2" fill="#fff"/><use xlink:href="#E" transform="matrix(1,0,0,1,431.66666666666674,2085) translate(28.712022569444443 43.40277777777778)"/><path d="M186.67 2161.5v32.5a6 6 0 0 1-6 6h-28a6 6 0 0 0-6 6v16.6" stroke="#3a414a" fill="none"/><path d="M186.65 2161l.5-.02v.53h-.96v-.53z" stroke="#3a414a" stroke-width=".05" fill="#3a414a"/><path d="M146.67 2237.38l-4.64-14.27h9.27z" stroke="#3a414a" fill="#3a414a"/><path d="M186.67 2280c0 22.1-17.9 40-40 40s-40-17.9-40-40 17.9-40 40-40 40 17.9 40 40z" stroke="#000" stroke-width="2" fill="#fff"/><use xlink:href="#x" transform="matrix(1,0,0,1,111.6666666666668,2245) translate(30.48068576388889 43.40277777777778)"/><path d="M466.67 2161.5v32.5a6 6 0 0 1-6 6h-68a6 6 0 0 0-6 6v16.6" stroke="#3a414a" fill="none"/><path d="M466.65 2161l.5-.02v.53h-.96v-.53z" stroke="#3a414a" stroke-width=".05" fill="#3a414a"/><path d="M386.67 2237.38l-4.64-14.27h9.27z" stroke="#3a414a" fill="#3a414a"/><path d="M426.67 2280c0 22.1-17.9 40-40 40s-40-17.9-40-40 17.9-40 40-40 40 17.9 40 40z" stroke="#000" stroke-width="2" fill="#fff"/><use xlink:href="#y" transform="matrix(1,0,0,1,351.6666666666668,2245) translate(28.10980902777778 43.40277777777778)"/><path d="M466.67 2161.5v32.5a6 6 0 0 0 6 6h28a6 6 0 0 1 6 6v16.6" stroke="#3a414a" fill="none"/><path d="M466.65 2161l.5-.02v.53h-.96v-.53z" stroke="#3a414a" stroke-width=".05" fill="#3a414a"/><path d="M506.67 2237.38l-4.64-14.27h9.27z" stroke="#3a414a" fill="#3a414a"/><path d="M546.67 2280c0 22.1-17.9 40-40 40s-40-17.9-40-40 17.9-40 40-40 40 17.9 40 40z" stroke="#000" stroke-width="2" fill="#fff"/><use xlink:href="#z" transform="matrix(1,0,0,1,471.66666666666674,2245) translate(28.126085069444443 43.40277777777778)"/><path d="M226.67 2366a6 6 0 0 1 6-6H414a6 6 0 0 1 6 6v63.47a6 6 0 0 1-6 6H232.67a6 6 0 0 1-6-6z" stroke="#000" stroke-width="2" fill="#fff"/><use xlink:href="#F" transform="matrix(1,0,0,1,231.66666666666663,2365) translate(12.024956597222229 40.09027777777778)"/><use xlink:href="#G" transform="matrix(1,0,0,1,231.66666666666663,2365) translate(92.01627604166667 40.09027777777778)"/><use xlink:href="#H" transform="matrix(1,0,0,1,231.66666666666663,2365) translate(141.40863715277777 40.09027777777778)"/><path d="M360 2520c0 22.1-17.9 40-40 40s-40-17.9-40-40 17.9-40 40-40 40 17.9 40 40z" stroke="#000" stroke-width="2" fill="#fff"/><use xlink:href="#u" transform="matrix(1,0,0,1,285.00000000000017,2485) translate(28.245442708333336 43.40277777777778)"/><path d="M195.27 2600.47h-5.92l-.88.07-.84.2-.8.34-.74.45-.67.56-.56.65-.46.74-.32.8-.2.84-.07.88v16.6h-.94v-16.64l.08-1 .23-.98.4-.94.52-.87.65-.78.78-.66.86-.53.93-.4 1-.23.98-.07h5.97zm125.2-6.45l-.07 1-.24.98-.4.94-.52.87-.66.78-.77.66-.86.53-.94.4-1 .23-.98.07h-5.96v-.94h5.92l.88-.07.85-.2.8-.34.75-.45.66-.56.57-.65.45-.74.33-.8.2-.84.07-.88v-32.48h.96z" stroke="#3a414a" stroke-width=".05" fill="#3a414a"/><path d="M320 2561l.48-.02v.53h-.96v-.53z" fill="#3a414a"/><path stroke="#3a414a" stroke-width=".05" fill="#3a414a"/><path d="M183.33 2637.38l-4.63-14.27h9.27z" fill="#3a414a"/><path d="M183.33 2638.92l-5.3-16.28h10.6zm-3.98-15.33l3.98 12.24 3.98-12.25z" stroke="#3a414a" stroke-width=".05" fill="#3a414a"/><use xlink:href="#f" transform="matrix(1,0,0,1,195.2690972222224,2589.2447916666665) translate(0 17.22222222222222)"/><use xlink:href="#g" transform="matrix(1,0,0,1,195.2690972222224,2589.2447916666665) translate(29.835069444444443 17.22222222222222)"/><use xlink:href="#h" transform="matrix(1,0,0,1,195.2690972222224,2589.2447916666665) translate(46.111111111111114 17.22222222222222)"/><path d="M223.33 2680c0 22.1-17.9 40-40 40s-40-17.9-40-40 17.9-40 40-40 40 17.9 40 40z" stroke="#000" stroke-width="2" fill="#fff"/><use xlink:href="#v" transform="matrix(1,0,0,1,148.33333333333348,2645) translate(28.13693576388889 43.40277777777778)"/><path d="M320 2561.5v32.5a6 6 0 0 0 6 6h131.33a6 6 0 0 1 6 6v16.6" stroke="#3a414a" fill="none"/><path d="M320 2561l.48-.02v.53h-.96v-.53z" stroke="#3a414a" stroke-width=".05" fill="#3a414a"/><path d="M463.33 2637.38l-4.63-14.27h9.27z" stroke="#3a414a" fill="#3a414a"/><path d="M503.33 2680c0 22.1-17.9 40-40 40s-40-17.9-40-40 17.9-40 40-40 40 17.9 40 40z" stroke="#000" stroke-width="2" fill="#fff"/><use xlink:href="#C" transform="matrix(1,0,0,1,428.3333333333335,2645) translate(28.712022569444443 43.40277777777778)"/><path d="M183.8 2754.02l-.07 1-.24.98-.4.94-.53.87-.66.78-.76.66-.87.53-.94.4-.98.23-1 .07h-28l-.88.07-.84.2-.8.34-.74.45-.67.56-.56.65-.46.74-.32.8-.2.84-.07.88v16.6h-.94v-16.64l.08-1 .23-.98.4-.94.52-.87.65-.78.78-.66.86-.53.93-.4 1-.23.98-.07h28l.9-.07.84-.2.8-.34.74-.45.66-.56.56-.65.45-.74.34-.8.2-.84.06-.88v-32.48h.95z" stroke="#3a414a" stroke-width=".05" fill="#3a414a"/><path d="M183.32 2721l.5-.02v.53h-.96v-.53z" fill="#3a414a"/><path stroke="#3a414a" stroke-width=".05" fill="#3a414a"/><path d="M143.33 2797.38l-4.63-14.27h9.27z" fill="#3a414a"/><path d="M143.33 2798.92l-5.3-16.28h10.6zm-3.98-15.33l3.98 12.24 3.98-12.25z" stroke="#3a414a" stroke-width=".05" fill="#3a414a"/><path d="M183.33 2840c0 22.1-17.9 40-40 40s-40-17.9-40-40 17.9-40 40-40 40 17.9 40 40z" stroke="#000" stroke-width="2" fill="#fff"/><use xlink:href="#x" transform="matrix(1,0,0,1,108.33333333333348,2805) translate(30.48068576388889 43.40277777777778)"/><path d="M463.33 2721.5v32.5a6 6 0 0 1-6 6h-68a6 6 0 0 0-6 6v16.6" stroke="#3a414a" fill="none"/><path d="M463.32 2721l.5-.02v.53h-.96v-.53z" stroke="#3a414a" stroke-width=".05" fill="#3a414a"/><path d="M383.33 2797.38l-4.63-14.27h9.27z" stroke="#3a414a" fill="#3a414a"/><path d="M423.33 2840c0 22.1-17.9 40-40 40s-40-17.9-40-40 17.9-40 40-40 40 17.9 40 40z" stroke="#000" stroke-width="2" fill="#fff"/><use xlink:href="#y" transform="matrix(1,0,0,1,348.3333333333335,2805) translate(28.10980902777778 43.40277777777778)"/><path d="M463.33 2721.5v32.5a6 6 0 0 0 6 6h28a6 6 0 0 1 6 6v16.6" stroke="#3a414a" fill="none"/><path d="M463.32 2721l.5-.02v.53h-.96v-.53z" stroke="#3a414a" stroke-width=".05" fill="#3a414a"/><path d="M503.33 2797.38l-4.63-14.27h9.27z" stroke="#3a414a" fill="#3a414a"/><path d="M543.33 2840c0 22.1-17.9 40-40 40s-40-17.9-40-40 17.9-40 40-40 40 17.9 40 40z" stroke="#000" stroke-width="2" fill="#fff"/><use xlink:href="#z" transform="matrix(1,0,0,1,468.3333333333335,2805) translate(28.126085069444443 43.40277777777778)"/><path d="M267.14 2822.6h-.95v-31.84h.94zm-83.33-53.36h-.94v-47.74h.95z" stroke="#3a414a" stroke-width=".05" fill="#3a414a"/><path d="M183.32 2721l.5-.02v.53h-.96v-.53z" fill="#3a414a"/><path stroke="#3a414a" stroke-width=".05" fill="#3a414a"/><path d="M266.67 2837.38l-4.64-14.27h9.27z" fill="#3a414a"/><path d="M266.67 2838.92l-5.3-16.28h10.6zm-4-15.33l4 12.24 3.98-12.25z" stroke="#3a414a" stroke-width=".05" fill="#3a414a"/><use xlink:href="#I" transform="matrix(1,0,0,1,172.81250000000014,2769.2447916666665) translate(0 17.22222222222222)"/><path d="M306.67 2880c0 22.1-17.9 40-40 40s-40-17.9-40-40 17.9-40 40-40 40 17.9 40 40z" stroke="#000" stroke-width="2" fill="#c3f7c8"/><use xlink:href="#B" transform="matrix(1,0,0,1,231.6666666666668,2845) translate(27.822265625 43.40277777777778)"/><path d="M223.33 2966a6 6 0 0 1 6-6h181.34a6 6 0 0 1 6 6v63.47a6 6 0 0 1-6 6H229.33a6 6 0 0 1-6-6z" stroke="#000" stroke-width="2" fill="#fff"/><use xlink:href="#J" transform="matrix(1,0,0,1,228.33333333333348,2965) translate(31.870876736111114 40.09027777777778)"/><use xlink:href="#K" transform="matrix(1,0,0,1,228.33333333333348,2965) translate(81.18728298611111 40.09027777777778)"/><use xlink:href="#L" transform="matrix(1,0,0,1,228.33333333333348,2965) translate(108.98676215277777 40.09027777777778)"/><path d="M356.67 3115.47c0 22.1-17.9 40-40 40s-40-17.9-40-40 17.9-40 40-40 40 17.9 40 40z" stroke="#000" stroke-width="2" fill="#fff"/><use xlink:href="#u" transform="matrix(1,0,0,1,281.66666666666686,3080.4666666666667) translate(28.245442708333336 43.40277777777778)"/><path d="M180.47 3282.6h-.94v-34.57h.94zm136.67-93.1l-.08.98-.23 1-.4.93-.52.87-.65.78-.78.66-.86.54-.93.4-1 .22-1 .08H186.03l-.88.07-.85.2-.8.35-.75.45-.66.56-.57.66-.45.74-.33.8-.2.84-.08.9v25.02h-.94v-25.07l.07-1 .24-.98.4-.94.52-.87.66-.77.77-.67.86-.53.94-.4 1-.23.98-.08h124.67l.88-.08.84-.2.8-.33.74-.47.67-.56.56-.66.46-.73.32-.8.2-.84.07-.88v-32.48h.94z" stroke="#3a414a" stroke-width=".05" fill="#3a414a"/><path d="M316.65 3156.47l.5-.02v.53h-.96v-.54z" fill="#3a414a"/><path stroke="#3a414a" stroke-width=".05" fill="#3a414a"/><path d="M180 3297.38l-4.63-14.27h9.26z" fill="#3a414a"/><path d="M180 3298.92l-5.3-16.28h10.6zm-3.98-15.33l3.98 12.24 3.98-12.25z" stroke="#3a414a" stroke-width=".05" fill="#3a414a"/><use xlink:href="#M" transform="matrix(1,0,0,1,70.46875,3226.5200653658144) translate(0 17.22222222222222)"/><use xlink:href="#N" transform="matrix(1,0,0,1,70.46875,3226.5200653658144) translate(54.001736111111114 17.22222222222222)"/><use xlink:href="#O" transform="matrix(1,0,0,1,70.46875,3226.5200653658144) translate(82.10069444444446 17.22222222222222)"/><use xlink:href="#P" transform="matrix(1,0,0,1,70.46875,3226.5200653658144) translate(136.10243055555557 17.22222222222222)"/><use xlink:href="#Q" transform="matrix(1,0,0,1,70.46875,3226.5200653658144) translate(152.37847222222223 17.22222222222222)"/><path d="M220 3340c0 22.1-17.9 40-40 40s-40-17.9-40-40 17.9-40 40-40 40 17.9 40 40z" stroke="#000" stroke-width="2" fill="#c3f7c8"/><g><use xlink:href="#v" transform="matrix(1,0,0,1,145,3305) translate(28.13693576388889 43.40277777777778)"/></g><path d="M316.67 3156.97v32.5a6 6 0 0 0 6 6H454a6 6 0 0 1 6 6v16.6" stroke="#3a414a" fill="none"/><path d="M316.65 3156.47l.5-.02v.53h-.96v-.54z" stroke="#3a414a" stroke-width=".05" fill="#3a414a"/><path d="M460 3232.85l-4.63-14.27h9.26z" stroke="#3a414a" fill="#3a414a"/><path d="M500 3275.47c0 22.1-17.9 40-40 40s-40-17.9-40-40 17.9-40 40-40 40 17.9 40 40z" stroke="#000" stroke-width="2" fill="#fff"/><g><use xlink:href="#w" transform="matrix(1,0,0,1,425.00000000000017,3240.4666666666667) translate(28.712022569444443 43.40277777777778)"/></g><path d="M180 3381.5v72.5a6 6 0 0 1-6 6h-28a6 6 0 0 0-6 6v56.6" stroke="#3a414a" fill="none"/><path d="M180 3381l.47-.02v.53h-.94v-.53z" stroke="#3a414a" stroke-width=".05" fill="#3a414a"/><path d="M140 3537.38l-4.63-14.27h9.26z" stroke="#3a414a" fill="#3a414a"/><path d="M180 3580c0 22.1-17.9 40-40 40s-40-17.9-40-40 17.9-40 40-40 40 17.9 40 40z" stroke="#000" stroke-width="2" fill="#cfe4ff"/><g><use xlink:href="#R" transform="matrix(1,0,0,1,105,3545) translate(17.351345486111114 43.40277777777778)"/><use xlink:href="#S" transform="matrix(1,0,0,1,105,3545) translate(39.04188368055556 43.40277777777778)"/></g><path d="M460 3316.97v32.5a6 6 0 0 1-6 6h-68a6 6 0 0 0-6 6v16.6" stroke="#3a414a" fill="none"/><path d="M460 3316.47l.48-.02v.53h-.96v-.54z" stroke="#3a414a" stroke-width=".05" fill="#3a414a"/><path d="M380 3392.85l-4.63-14.27h9.26z" stroke="#3a414a" fill="#3a414a"/><path d="M420 3435.47c0 22.1-17.9 40-40 40s-40-17.9-40-40 17.9-40 40-40 40 17.9 40 40z" stroke="#000" stroke-width="2" fill="#fff"/><g><use xlink:href="#y" transform="matrix(1,0,0,1,345.00000000000017,3400.4666666666667) translate(28.10980902777778 43.40277777777778)"/></g><path d="M460 3316.97v32.5a6 6 0 0 0 6 6h28a6 6 0 0 1 6 6v16.6" stroke="#3a414a" fill="none"/><path d="M460 3316.47l.48-.02v.53h-.96v-.54z" stroke="#3a414a" stroke-width=".05" fill="#3a414a"/><path d="M500 3392.85l-4.63-14.27h9.26z" stroke="#3a414a" fill="#3a414a"/><path d="M540 3435.47c0 22.1-17.9 40-40 40s-40-17.9-40-40 17.9-40 40-40 40 17.9 40 40z" stroke="#000" stroke-width="2" fill="#fff"/><g><use xlink:href="#T" transform="matrix(1,0,0,1,465.00000000000017,3400.4666666666667) translate(28.126085069444443 43.40277777777778)"/></g><path d="M180 3381.5v72.5a6 6 0 0 0 6 6h68a6 6 0 0 1 6 6v56.6" stroke="#3a414a" fill="none"/><path d="M180 3381l.47-.02v.53h-.94v-.53z" stroke="#3a414a" stroke-width=".05" fill="#3a414a"/><path d="M260 3537.38l-4.63-14.27h9.26z" stroke="#3a414a" fill="#3a414a"/><path d="M300 3580c0 22.1-17.9 40-40 40s-40-17.9-40-40 17.9-40 40-40 40 17.9 40 40z" stroke="#000" stroke-width="2" fill="#ffd9d9"/><g><use xlink:href="#U" transform="matrix(1,0,0,1,225,3545) translate(15.067274305555557 43.40277777777778)"/><use xlink:href="#V" transform="matrix(1,0,0,1,225,3545) translate(41.325954861111114 43.40277777777778)"/></g><defs><path d="M370-1490V0H180v-1490h190" id="W"/><path d="M338-670V0H158v-1118h173l1 207c72-158 192-221 342-221 226 0 378 139 378 422V0H872v-695c0-172-96-275-252-275-161 0-282 109-282 300" id="X"/><path d="M538 24C308 24 148-78 108-271l171-41c32 123 123 178 257 178 156 0 256-77 256-169 0-77-54-128-164-154l-186-44c-203-48-300-148-300-305 0-192 176-326 414-326 230 0 351 112 402 269l-163 42c-31-80-94-158-238-158-133 0-233 69-233 162 0 83 57 129 188 160l169 40c203 48 298 149 298 302 0 196-179 339-441 339" id="Y"/><path d="M628 24c-324 0-524-230-524-574 0-343 198-582 503-582 237 0 487 146 487 559v75H286c9 234 145 362 343 362 132 0 231-58 273-172l174 48C1024-91 857 24 628 24zM287-650h624c-17-190-120-322-304-322-192 0-309 151-320 322" id="Z"/><path d="M158 0v-1118h174v172h12c41-113 157-188 290-188 26 0 70 2 91 3v181c-11-2-60-10-108-10-161 0-279 109-279 260V0H158" id="aa"/><path d="M598-1118v154H368v674c0 100 37 144 132 144 23 0 62-6 92-12L629-6c-37 13-88 20-134 20-193 0-307-107-307-290v-688H20v-154h168v-266h180v266h230" id="ab"/><g id="a"><use transform="matrix(0.010850694444444444,0,0,0.010850694444444444,0,0)" xlink:href="#W"/><use transform="matrix(0.010850694444444444,0,0,0.010850694444444444,5.967881944444445,0)" xlink:href="#X"/><use transform="matrix(0.010850694444444444,0,0,0.010850694444444444,19.09722222222222,0)" xlink:href="#Y"/><use transform="matrix(0.010850694444444444,0,0,0.010850694444444444,30.826822916666664,0)" xlink:href="#Z"/><use transform="matrix(0.010850694444444444,0,0,0.010850694444444444,43.78255208333333,0)" xlink:href="#aa"/><use transform="matrix(0.010850694444444444,0,0,0.010850694444444444,52.49565972222221,0)" xlink:href="#ab"/></g><path d="M613 24c-304 0-509-231-509-576 0-350 205-580 509-580 305 0 511 230 511 580 0 345-206 576-511 576zm0-161c226 0 329-195 329-415 0-222-103-419-329-419-223 0-326 196-326 419 0 220 103 415 326 415" id="ac"/><g id="b"><use transform="matrix(0.010850694444444444,0,0,0.010850694444444444,0,0)" xlink:href="#W"/><use transform="matrix(0.010850694444444444,0,0,0.010850694444444444,5.967881944444445,0)" xlink:href="#X"/><use transform="matrix(0.010850694444444444,0,0,0.010850694444444444,19.09722222222222,0)" xlink:href="#ab"/><use transform="matrix(0.010850694444444444,0,0,0.010850694444444444,26.15017361111111,0)" xlink:href="#ac"/></g><path d="M180 0v-1490h528c311 0 458 177 458 395 0 191-114 278-244 313v14c139 9 302 137 302 371 0 225-148 397-499 397H180zm190-168h350c232 0 321-102 321-231 0-149-120-277-311-277H370v508zm0-668h328c160 0 286-101 286-255 0-129-87-231-280-231H370v486" id="ad"/><path d="M657 26c-323 0-524-166-541-416h195c15 169 171 246 346 246 202 0 356-106 356-265 5-203-294-238-475-293-239-73-380-191-380-389 0-252 224-419 512-419 294 0 499 171 508 396H992c-17-145-151-228-328-228-193 0-321 102-321 242 0 156 175 211 284 241l149 41c160 44 422 134 422 412 0 244-197 432-541 432" id="ae"/><path d="M98-1322v-168h1126v168H757V0H567v-1322H98" id="af"/><g id="c"><use transform="matrix(0.010850694444444444,0,0,0.010850694444444444,0,0)" xlink:href="#ad"/><use transform="matrix(0.010850694444444444,0,0,0.010850694444444444,14.539930555555555,0)" xlink:href="#ae"/><use transform="matrix(0.010850694444444444,0,0,0.010850694444444444,28.79774305555556,0)" xlink:href="#af"/></g><path d="M218-607c0-325 108-727 258-974h175c-155 315-250 682-250 974 0 265 78 531 250 886H476C306-10 218-315 218-607" id="ag"/><path d="M154 0v-137l495-537c165-179 249-281 249-418 0-156-121-253-280-253-170 0-278 110-278 278H158c0-264 200-443 465-443 266 0 455 183 455 416 0 161-73 288-336 568L416-179v12h687V0H154" id="ah"/><path d="M96 279C273-86 346-350 346-607c0-292-95-659-250-974h175c150 246 258 650 258 974 0 297-91 602-258 886H96" id="ai"/><g id="d"><use transform="matrix(0.010850694444444444,0,0,0.010850694444444444,0,0)" xlink:href="#W"/><use transform="matrix(0.010850694444444444,0,0,0.010850694444444444,5.967881944444445,0)" xlink:href="#X"/><use transform="matrix(0.010850694444444444,0,0,0.010850694444444444,19.09722222222222,0)" xlink:href="#Y"/><use transform="matrix(0.010850694444444444,0,0,0.010850694444444444,30.826822916666664,0)" xlink:href="#Z"/><use transform="matrix(0.010850694444444444,0,0,0.010850694444444444,43.78255208333333,0)" xlink:href="#aa"/><use transform="matrix(0.010850694444444444,0,0,0.010850694444444444,52.49565972222221,0)" xlink:href="#ab"/><use transform="matrix(0.010850694444444444,0,0,0.010850694444444444,59.765624999999986,0)" xlink:href="#ag"/><use transform="matrix(0.010850694444444444,0,0,0.010850694444444444,67.87109375,0)" xlink:href="#ah"/><use transform="matrix(0.010850694444444444,0,0,0.010850694444444444,81.42361111111111,0)" xlink:href="#ai"/></g><path d="M626 20c-262 0-458-168-468-396h184c12 133 134 229 284 229 180 0 311-137 311-326 0-192-136-335-323-335-92 0-196 33-255 78l-178-22 88-738h784v167H429l-51 435h8c61-51 160-87 263-87 273 0 474 211 474 499 0 286-210 496-497 496" id="aj"/><use transform="matrix(0.010850694444444444,0,0,0.010850694444444444,0,0)" xlink:href="#aj" id="e"/><path fill="#333" d="M443 0L31-1118h319c90 293 199 572 268 885 66-313 175-593 264-885h315L784 0H443" id="ak"/><path fill="#333" d="M440 22C227 22 68-92 68-313c0-250 202-322 422-343 195-21 271-24 271-105 0-95-63-149-175-149-116 0-187 57-211 129l-275-46c57-194 237-305 487-305 240 0 474 108 474 379V0H777v-155h-10C713-51 605 22 440 22zm85-211c140 0 238-93 238-211v-121c-37 26-156 42-222 51-111 16-185 59-185 149 0 87 70 132 169 132" id="al"/><path fill="#333" d="M428-1490V0H128v-1490h300" id="am"/><g id="f"><use transform="matrix(0.008680555555555556,0,0,0.008680555555555556,0,0)" xlink:href="#ak"/><use transform="matrix(0.008680555555555556,0,0,0.008680555555555556,10.48611111111111,0)" xlink:href="#al"/><use transform="matrix(0.008680555555555556,0,0,0.008680555555555556,20.807291666666668,0)" xlink:href="#am"/></g><path fill="#333" d="M166-471v-247l1019-454v289L492-601v13l693 282v287" id="an"/><use transform="matrix(0.008680555555555556,0,0,0.008680555555555556,0,0)" xlink:href="#an" id="g"/><path fill="#333" d="M128 0v-1118h290v195h12c54-169 184-238 367-200v268c-27-8-86-15-130-15-138 0-239 95-239 234V0H128" id="ao"/><path fill="#333" d="M628 22C291 22 81-210 81-554c0-346 210-578 547-578 336 0 547 232 547 578 0 344-211 576-547 576zm0-236c160 0 242-146 242-341 0-197-82-341-242-341S387-753 387-555c0 195 81 341 241 341" id="ap"/><path fill="#333" d="M683-1118v229H474v562c0 71 29 104 102 104 23 0 73-7 95-13l43 225C647 9 580 16 520 16 296 16 174-96 174-301v-588H20v-229h154v-266h300v266h209" id="aq"/><path fill="#333" d="M342 19c-98 0-173-75-173-172s75-172 173-172 173 75 173 172S440 19 342 19" id="ar"/><g id="h"><use transform="matrix(0.008680555555555556,0,0,0.008680555555555556,0,0)" xlink:href="#ao"/><use transform="matrix(0.008680555555555556,0,0,0.008680555555555556,6.805555555555556,0)" xlink:href="#ap"/><use transform="matrix(0.008680555555555556,0,0,0.008680555555555556,17.708333333333336,0)" xlink:href="#ap"/><use transform="matrix(0.008680555555555556,0,0,0.008680555555555556,28.61111111111111,0)" xlink:href="#aq"/><use transform="matrix(0.008680555555555556,0,0,0.008680555555555556,35.12152777777778,0)" xlink:href="#ar"/><use transform="matrix(0.008680555555555556,0,0,0.008680555555555556,41.05902777777778,0)" xlink:href="#ak"/><use transform="matrix(0.008680555555555556,0,0,0.008680555555555556,51.545138888888886,0)" xlink:href="#al"/><use transform="matrix(0.008680555555555556,0,0,0.008680555555555556,61.866319444444436,0)" xlink:href="#am"/></g><path d="M635 20c-292 0-500-160-510-396h192c11 142 145 229 315 229 187 0 323-105 323-260 0-161-125-274-346-274H488v-165h121c174 0 294-100 294-254 0-148-104-245-266-245-152 0-291 85-297 230H157c8-234 222-395 484-395 278 0 448 188 448 400 0 168-95 291-247 336v12c190 31 301 169 301 357 0 244-216 425-508 425" id="as"/><use transform="matrix(0.010850694444444444,0,0,0.010850694444444444,0,0)" xlink:href="#as" id="i"/><path d="M200 0l662-1311v-12H98v-167h963v177L400 0H200" id="at"/><use transform="matrix(0.010850694444444444,0,0,0.010850694444444444,0,0)" xlink:href="#at" id="j"/><path d="M653-1490V0H466v-1314h-10L96-1047v-204l324-239h233" id="au"/><use transform="matrix(0.010850694444444444,0,0,0.010850694444444444,0,0)" xlink:href="#au" id="k"/><path d="M646 20c-249 0-524-159-524-708 0-524 209-822 547-822 250 0 431 161 467 395H950c-33-129-126-227-281-227-229 0-367 208-367 566h12c80-124 212-198 367-198 255 0 467 205 467 493 0 278-198 501-502 501zm0-167c179 0 318-148 318-334 0-182-133-328-313-328-181 0-322 156-322 330 0 176 134 332 317 332" id="av"/><use transform="matrix(0.010850694444444444,0,0,0.010850694444444444,0,0)" xlink:href="#av" id="l"/><path d="M633 20c-303 0-511-173-511-416 0-188 124-348 291-378v-8c-145-37-237-174-237-332 0-227 192-396 457-396 261 0 456 169 456 396 0 158-94 295-235 332v8c162 30 291 190 291 378 0 243-212 416-512 416zm0-165c197 0 322-103 322-261 0-165-138-283-322-283-188 0-324 118-324 283 0 158 123 261 324 261zm0-703c157 0 272-101 272-252 0-149-110-246-272-246-165 0-273 97-273 246 0 151 112 252 273 252" id="aw"/><use transform="matrix(0.010850694444444444,0,0,0.010850694444444444,0,0)" xlink:href="#aw" id="m"/><path d="M120-303v-155l652-1032h231v1020h202v167h-202V0H821v-303H120zm702-167v-782h-12L323-482v12h499" id="ax"/><use transform="matrix(0.010850694444444444,0,0,0.010850694444444444,0,0)" xlink:href="#ax" id="n"/><path fill="#333" d="M1224-471L205-19v-287l694-281v-14L205-883v-289l1019 454v247" id="ay"/><use transform="matrix(0.008680555555555556,0,0,0.008680555555555556,0,0)" xlink:href="#ay" id="o"/><use transform="matrix(0.010850694444444444,0,0,0.010850694444444444,0,0)" xlink:href="#ah" id="p"/><path d="M645 0H180v-1490h484c435 0 692 280 692 742 0 466-257 748-711 748zM370-168h263c363 0 539-218 539-580 0-358-176-574-521-574H370v1154" id="az"/><path d="M338-1490V0H158v-1490h180" id="aA"/><g id="q"><use transform="matrix(0.010850694444444444,0,0,0.010850694444444444,0,0)" xlink:href="#az"/><use transform="matrix(0.010850694444444444,0,0,0.010850694444444444,16.03732638888889,0)" xlink:href="#Z"/><use transform="matrix(0.010850694444444444,0,0,0.010850694444444444,28.99305555555556,0)" xlink:href="#aA"/><use transform="matrix(0.010850694444444444,0,0,0.010850694444444444,34.375,0)" xlink:href="#Z"/><use transform="matrix(0.010850694444444444,0,0,0.010850694444444444,47.330729166666664,0)" xlink:href="#ab"/><use transform="matrix(0.010850694444444444,0,0,0.010850694444444444,54.38368055555556,0)" xlink:href="#Z"/></g><path d="M678-1118v154H420V0H240v-964H20v-154h220v-149c0-194 155-293 318-293 85 0 141 18 168 30l-50 154c-19-6-47-17-97-17-111 0-159 58-159 166v109h258" id="aB"/><path d="M158 0v-1118h175l1 205c55-151 181-225 313-225 147 0 245 90 285 228 53-141 190-228 352-228 194 0 352 125 352 384V0h-181v-749c0-161-105-225-225-225-151 0-243 103-243 244V0H807v-767c0-124-93-207-219-207-131 0-250 92-250 270V0H158" id="aC"/><g id="r"><use transform="matrix(0.010850694444444444,0,0,0.010850694444444444,0,0)" xlink:href="#aB"/><use transform="matrix(0.010850694444444444,0,0,0.010850694444444444,8.22482638888889,0)" xlink:href="#aa"/><use transform="matrix(0.010850694444444444,0,0,0.010850694444444444,16.221788194444443,0)" xlink:href="#ac"/><use transform="matrix(0.010850694444444444,0,0,0.010850694444444444,29.54644097222222,0)" xlink:href="#aC"/></g><g id="s"><use transform="matrix(0.010850694444444444,0,0,0.010850694444444444,0,0)" xlink:href="#ad"/><use transform="matrix(0.010850694444444444,0,0,0.010850694444444444,14.539930555555555,0)" xlink:href="#ae"/><use transform="matrix(0.010850694444444444,0,0,0.010850694444444444,28.79774305555556,0)" xlink:href="#af"/></g><g id="t"><use transform="matrix(0.010850694444444444,0,0,0.010850694444444444,0,0)" xlink:href="#az"/><use transform="matrix(0.010850694444444444,0,0,0.010850694444444444,16.03732638888889,0)" xlink:href="#Z"/><use transform="matrix(0.010850694444444444,0,0,0.010850694444444444,28.99305555555556,0)" xlink:href="#aA"/><use transform="matrix(0.010850694444444444,0,0,0.010850694444444444,34.375,0)" xlink:href="#Z"/><use transform="matrix(0.010850694444444444,0,0,0.010850694444444444,47.330729166666664,0)" xlink:href="#ab"/><use transform="matrix(0.010850694444444444,0,0,0.010850694444444444,54.38368055555556,0)" xlink:href="#Z"/><use transform="matrix(0.010850694444444444,0,0,0.010850694444444444,67.33940972222223,0)" xlink:href="#ag"/><use transform="matrix(0.010850694444444444,0,0,0.010850694444444444,75.44487847222223,0)" xlink:href="#as"/><use transform="matrix(0.010850694444444444,0,0,0.010850694444444444,89.17100694444446,0)" xlink:href="#ai"/></g><use transform="matrix(0.010850694444444444,0,0,0.010850694444444444,0,0)" xlink:href="#aj" id="u"/><use transform="matrix(0.010850694444444444,0,0,0.010850694444444444,0,0)" xlink:href="#as" id="v"/><use transform="matrix(0.010850694444444444,0,0,0.010850694444444444,0,0)" xlink:href="#at" id="w"/><use transform="matrix(0.010850694444444444,0,0,0.010850694444444444,0,0)" xlink:href="#au" id="x"/><use transform="matrix(0.010850694444444444,0,0,0.010850694444444444,0,0)" xlink:href="#av" id="y"/><use transform="matrix(0.010850694444444444,0,0,0.010850694444444444,0,0)" xlink:href="#aw" id="z"/><path fill="#333" d="M628 22C291 22 81-210 81-554c0-346 210-578 547-578 265 0 455 142 497 372l-279 52c-25-116-99-188-215-188-160 0-244 139-244 341 0 200 84 341 244 341 116 0 193-74 217-195l279 51C1085-123 896 22 628 22" id="aD"/><path fill="#333" d="M513 14c-232 0-385-159-385-421v-711h300v659c0 139 76 222 202 222 127 0 217-86 217-234v-647h301V0H864l-4-232C797-74 683 14 513 14" id="aE"/><g id="A"><use transform="matrix(0.008680555555555556,0,0,0.008680555555555556,0,0)" xlink:href="#aD"/><use transform="matrix(0.008680555555555556,0,0,0.008680555555555556,10.460069444444445,0)" xlink:href="#aE"/><use transform="matrix(0.008680555555555556,0,0,0.008680555555555556,21.52777777777778,0)" xlink:href="#ao"/><use transform="matrix(0.008680555555555556,0,0,0.008680555555555556,28.897569444444443,0)" xlink:href="#ao"/></g><use transform="matrix(0.010850694444444444,0,0,0.010850694444444444,0,0)" xlink:href="#ax" id="B"/><use transform="matrix(0.010850694444444444,0,0,0.010850694444444444,0,0)" xlink:href="#at" id="C"/><path fill="#333" d="M197-230v-252h997v252H197zm0-479v-251h997v251H197" id="aF"/><g id="D"><use transform="matrix(0.008680555555555556,0,0,0.008680555555555556,0,0)" xlink:href="#aF"/><use transform="matrix(0.008680555555555556,0,0,0.008680555555555556,12.065972222222223,0)" xlink:href="#aF"/></g><use transform="matrix(0.010850694444444444,0,0,0.010850694444444444,0,0)" xlink:href="#at" id="E"/><path d="M471 26C259 26 90-98 90-318c0-256 228-303 435-329 202-27 287-16 287-108 0-139-79-219-234-219-161 0-248 86-283 164l-173-57c86-203 278-265 451-265 150 0 419 46 419 395V0H815v-152h-12C765-73 660 26 471 26zm31-159c199 0 310-134 310-271v-155c-30 35-226 55-295 64-131 17-246 59-246 186 0 116 97 176 231 176" id="aG"/><path d="M613 24c-304 0-509-231-509-576 0-350 205-580 509-580 216 0 392 114 453 309l-173 49c-33-115-133-197-280-197-223 0-326 196-326 419 0 220 103 415 326 415 150 0 252-85 285-206l172 49C1010-95 832 24 613 24" id="aH"/><path d="M338-670V0H158v-1490h180v566c73-149 190-208 336-208 226 0 379 139 379 422V0H872v-695c0-172-96-275-252-275-161 0-282 109-282 300" id="aI"/><g id="F"><use transform="matrix(0.010850694444444444,0,0,0.010850694444444444,0,0)" xlink:href="#ae"/><use transform="matrix(0.010850694444444444,0,0,0.010850694444444444,14.2578125,0)" xlink:href="#Z"/><use transform="matrix(0.010850694444444444,0,0,0.010850694444444444,27.43055555555556,0)" xlink:href="#aG"/><use transform="matrix(0.010850694444444444,0,0,0.010850694444444444,39.90885416666667,0)" xlink:href="#aa"/><use transform="matrix(0.010850694444444444,0,0,0.010850694444444444,47.90581597222222,0)" xlink:href="#aH"/><use transform="matrix(0.010850694444444444,0,0,0.010850694444444444,60.60112847222222,0)" xlink:href="#aI"/></g><g id="G"><use transform="matrix(0.010850694444444444,0,0,0.010850694444444444,0,0)" xlink:href="#ad"/><use transform="matrix(0.010850694444444444,0,0,0.010850694444444444,14.539930555555555,0)" xlink:href="#ae"/><use transform="matrix(0.010850694444444444,0,0,0.010850694444444444,28.79774305555556,0)" xlink:href="#af"/></g><g id="H"><use transform="matrix(0.010850694444444444,0,0,0.010850694444444444,0,0)" xlink:href="#ag"/><use transform="matrix(0.010850694444444444,0,0,0.010850694444444444,8.10546875,0)" xlink:href="#ax"/><use transform="matrix(0.010850694444444444,0,0,0.010850694444444444,22.4609375,0)" xlink:href="#ai"/></g><g id="I"><use transform="matrix(0.008680555555555556,0,0,0.008680555555555556,0,0)" xlink:href="#ak"/><use transform="matrix(0.008680555555555556,0,0,0.008680555555555556,10.48611111111111,0)" xlink:href="#al"/><use transform="matrix(0.008680555555555556,0,0,0.008680555555555556,20.807291666666668,0)" xlink:href="#am"/><use transform="matrix(0.008680555555555556,0,0,0.008680555555555556,25.625,0)" xlink:href="#ay"/><use transform="matrix(0.008680555555555556,0,0,0.008680555555555556,37.69097222222222,0)" xlink:href="#ao"/><use transform="matrix(0.008680555555555556,0,0,0.008680555555555556,44.49652777777778,0)" xlink:href="#ap"/><use transform="matrix(0.008680555555555556,0,0,0.008680555555555556,55.39930555555556,0)" xlink:href="#ap"/><use transform="matrix(0.008680555555555556,0,0,0.008680555555555556,66.30208333333334,0)" xlink:href="#aq"/><use transform="matrix(0.008680555555555556,0,0,0.008680555555555556,72.81250000000001,0)" xlink:href="#ar"/><use transform="matrix(0.008680555555555556,0,0,0.008680555555555556,78.75000000000001,0)" xlink:href="#ak"/><use transform="matrix(0.008680555555555556,0,0,0.008680555555555556,89.23611111111113,0)" xlink:href="#al"/><use transform="matrix(0.008680555555555556,0,0,0.008680555555555556,99.55729166666669,0)" xlink:href="#am"/></g><path d="M180 0v-1490h190v1322h690V0H180" id="aJ"/><path d="M783 20c-382 0-661-292-661-764 0-473 279-766 661-766 302 0 548 182 601 489h-190c-42-204-217-313-411-313-268 0-476 208-476 590 0 381 209 588 476 588 195 0 369-110 411-313h190c-52 303-296 489-601 489" id="aK"/><path d="M52 0l541-1490h220L1361 0h-200l-149-416H398L254 0H52zm404-582h497c-103-290-145-390-251-756-108 377-145 460-246 756" id="aL"/><g id="J"><use transform="matrix(0.010850694444444444,0,0,0.010850694444444444,0,0)" xlink:href="#aJ"/><use transform="matrix(0.010850694444444444,0,0,0.010850694444444444,11.93576388888889,0)" xlink:href="#aK"/><use transform="matrix(0.010850694444444444,0,0,0.010850694444444444,27.734375,0)" xlink:href="#aL"/></g><g id="K"><use transform="matrix(0.010850694444444444,0,0,0.010850694444444444,0,0)" xlink:href="#ac"/><use transform="matrix(0.010850694444444444,0,0,0.010850694444444444,13.324652777777777,0)" xlink:href="#aB"/></g><g id="L"><use transform="matrix(0.010850694444444444,0,0,0.010850694444444444,0,0)" xlink:href="#ad"/><use transform="matrix(0.010850694444444444,0,0,0.010850694444444444,14.539930555555555,0)" xlink:href="#ae"/><use transform="matrix(0.010850694444444444,0,0,0.010850694444444444,28.79774305555556,0)" xlink:href="#af"/></g><path d="M169-607c0-330 107-732 258-974h279c-145 311-231 674-231 974 0 262 67 512 231 886H427C258-1 169-307 169-607" id="aM"/><path d="M128 418v-1536h295v188h14c41-89 129-202 319-202 248 0 453 193 453 575 0 372-197 576-455 576-183 0-275-108-317-198h-9v597H128zm534-640c156 0 240-139 240-336 0-196-83-334-240-334-154 0-241 131-241 334 0 202 88 336 241 336" id="aN"/><path d="M342 19c-98 0-173-75-173-172s75-172 173-172 173 75 173 172S440 19 342 19" id="aO"/><path d="M443 0L31-1118h319c90 293 199 572 268 885 66-313 175-593 264-885h315L784 0H443" id="aP"/><path d="M440 22C227 22 68-92 68-313c0-250 202-322 422-343 195-21 271-24 271-105 0-95-63-149-175-149-116 0-187 57-211 129l-275-46c57-194 237-305 487-305 240 0 474 108 474 379V0H777v-155h-10C713-51 605 22 440 22zm85-211c140 0 238-93 238-211v-121c-37 26-156 42-222 51-111 16-185 59-185 149 0 87 70 132 169 132" id="aQ"/><path d="M428-1490V0H128v-1490h300" id="aR"/><g id="M"><use transform="matrix(0.008680555555555556,0,0,0.008680555555555556,0,0)" xlink:href="#aM"/><use transform="matrix(0.008680555555555556,0,0,0.008680555555555556,7.022569444444445,0)" xlink:href="#aN"/><use transform="matrix(0.008680555555555556,0,0,0.008680555555555556,18.229166666666668,0)" xlink:href="#aO"/><use transform="matrix(0.008680555555555556,0,0,0.008680555555555556,24.166666666666668,0)" xlink:href="#aP"/><use transform="matrix(0.008680555555555556,0,0,0.008680555555555556,34.65277777777778,0)" xlink:href="#aQ"/><use transform="matrix(0.008680555555555556,0,0,0.008680555555555556,44.973958333333336,0)" xlink:href="#aR"/></g><path d="M579 22C270 22 81-162 81-393c0-177 110-281 274-393-80-101-143-210-143-345 0-213 160-377 403-377 238 0 385 158 385 351 0 138-76 251-198 340l-89 64 251 289c39-73 63-161 63-258h251c0 203-53 358-134 465L1367 0h-316l-91-101C852-17 708 22 579 22zm-69-628c-83 57-139 119-136 201 0 113 86 185 214 185 72 0 145-22 210-63zm56-319c74-50 193-114 190-218 0-69-50-123-139-123s-146 55-146 138c0 67 36 129 95 203" id="aS"/><g id="N"><use transform="matrix(0.008680555555555556,0,0,0.008680555555555556,0,0)" xlink:href="#aS"/><use transform="matrix(0.008680555555555556,0,0,0.008680555555555556,11.944444444444445,0)" xlink:href="#aS"/></g><path d="M1163 418H863v-597h-10C812-89 719 19 537 19 279 19 81-185 81-557c0-382 206-575 454-575 190 0 278 113 318 202h15v-188h295V418zM629-222c153 0 240-134 240-336 0-203-86-334-240-334-158 0-240 138-240 334 0 197 84 336 240 336" id="aT"/><path d="M67 279c166-379 230-627 230-886 0-300-86-663-230-974h278c151 241 258 644 258 974 0 302-90 608-258 886H67" id="aU"/><g id="O"><use transform="matrix(0.008680555555555556,0,0,0.008680555555555556,0,0)" xlink:href="#aT"/><use transform="matrix(0.008680555555555556,0,0,0.008680555555555556,11.206597222222223,0)" xlink:href="#aO"/><use transform="matrix(0.008680555555555556,0,0,0.008680555555555556,17.14409722222222,0)" xlink:href="#aP"/><use transform="matrix(0.008680555555555556,0,0,0.008680555555555556,27.630208333333336,0)" xlink:href="#aQ"/><use transform="matrix(0.008680555555555556,0,0,0.008680555555555556,37.95138888888889,0)" xlink:href="#aR"/><use transform="matrix(0.008680555555555556,0,0,0.008680555555555556,43.090277777777786,0)" xlink:href="#aU"/></g><path d="M166-471v-247l1019-454v289L492-601v13l693 282v287" id="aV"/><use transform="matrix(0.008680555555555556,0,0,0.008680555555555556,0,0)" xlink:href="#aV" id="P"/><path d="M128 0v-1118h290v195h12c54-169 184-238 367-200v268c-27-8-86-15-130-15-138 0-239 95-239 234V0H128" id="aW"/><path d="M628 22C291 22 81-210 81-554c0-346 210-578 547-578 336 0 547 232 547 578 0 344-211 576-547 576zm0-236c160 0 242-146 242-341 0-197-82-341-242-341S387-753 387-555c0 195 81 341 241 341" id="aX"/><path d="M683-1118v229H474v562c0 71 29 104 102 104 23 0 73-7 95-13l43 225C647 9 580 16 520 16 296 16 174-96 174-301v-588H20v-229h154v-266h300v266h209" id="aY"/><g id="Q"><use transform="matrix(0.008680555555555556,0,0,0.008680555555555556,0,0)" xlink:href="#aW"/><use transform="matrix(0.008680555555555556,0,0,0.008680555555555556,6.805555555555556,0)" xlink:href="#aX"/><use transform="matrix(0.008680555555555556,0,0,0.008680555555555556,17.708333333333336,0)" xlink:href="#aX"/><use transform="matrix(0.008680555555555556,0,0,0.008680555555555556,28.61111111111111,0)" xlink:href="#aY"/><use transform="matrix(0.008680555555555556,0,0,0.008680555555555556,35.12152777777778,0)" xlink:href="#aO"/><use transform="matrix(0.008680555555555556,0,0,0.008680555555555556,41.05902777777778,0)" xlink:href="#aP"/><use transform="matrix(0.008680555555555556,0,0,0.008680555555555556,51.545138888888886,0)" xlink:href="#aQ"/><use transform="matrix(0.008680555555555556,0,0,0.008680555555555556,61.866319444444436,0)" xlink:href="#aR"/></g><path d="M128 359l88-567h206L266 359H128" id="aZ"/><g id="R"><use transform="matrix(0.010850694444444444,0,0,0.010850694444444444,0,0)" xlink:href="#au"/><use transform="matrix(0.010850694444444444,0,0,0.010850694444444444,9.038628472222221,0)" xlink:href="#aZ"/></g><path d="M158 418v-1536h174v179h20c37-59 106-193 324-193 279 0 474 222 474 576 0 356-194 580-473 580-213 0-288-135-325-197h-14v591H158zm492-555c209 0 317-186 317-421 0-232-105-413-317-413-206 0-314 166-314 413 0 249 111 421 314 421" id="ba"/><use transform="matrix(0.010850694444444444,0,0,0.010850694444444444,0,0)" xlink:href="#ba" id="S"/><use transform="matrix(0.010850694444444444,0,0,0.010850694444444444,0,0)" xlink:href="#aw" id="T"/><g id="U"><use transform="matrix(0.010850694444444444,0,0,0.010850694444444444,0,0)" xlink:href="#ax"/><use transform="matrix(0.010850694444444444,0,0,0.010850694444444444,13.606770833333332,0)" xlink:href="#aZ"/></g><path d="M1096 418H916v-591h-14C865-111 790 24 577 24c-279 0-473-224-473-580 0-354 195-576 474-576 218 0 287 134 324 193h20v-179h174V418zM604-137c203 0 314-172 314-421 0-247-108-413-314-413-212 0-317 181-317 413 0 235 108 421 317 421" id="bb"/><use transform="matrix(0.010850694444444444,0,0,0.010850694444444444,0,0)" xlink:href="#bb" id="V"/></defs></g></svg>