<svg xmlns="http://www.w3.org/2000/svg" xmlns:xlink="http://www.w3.org/1999/xlink" xmlns:lucid="lucid" width="702" height="4842"><g transform="translate(-39 -219)" lucid:page-tab-id="0_0"><path d="M394.2 383.6c0 22.1-17.9 40-40 40s-40-17.9-40-40 17.9-40 40-40 40 17.9 40 40z" stroke="#000" stroke-width="2" fill="#cfe4ff"/><use xlink:href="#a" transform="matrix(1,0,0,1,319.20000000000005,348.59999999999997) translate(30.48568576388889 23.71527777777778)"/><use xlink:href="#b" transform="matrix(1,0,0,1,319.20000000000005,348.59999999999997) translate(6.3700173611111115 55.98090277777778)"/><use xlink:href="#c" transform="matrix(1,0,0,1,319.20000000000005,348.59999999999997) translate(29.134774305555553 55.98090277777778)"/><use xlink:href="#d" transform="matrix(1,0,0,1,319.20000000000005,348.59999999999997) translate(50.087465277777774 55.98090277777778)"/><path d="M354.2 425.1v30.7a6 6 0 0 1-6 6H226a6 6 0 0 0-6 6v14.8" stroke="#3a414a" fill="none"/><path d="M354.2 424.6l.48-.02v.53h-.95v-.53z" stroke="#3a414a" stroke-width=".05" fill="#3a414a"/><path d="M220 497.38l-4.63-14.26h9.26z" stroke="#3a414a" fill="#3a414a"/><path d="M260 540c0 22.1-17.9 40-40 40s-40-17.9-40-40 17.9-40 40-40 40 17.9 40 40z" stroke="#000" stroke-width="2" fill="#fff"/><use xlink:href="#e" transform="matrix(1,0,0,1,185,505) translate(28.228741319444445 23.71527777777778)"/><use xlink:href="#b" transform="matrix(1,0,0,1,185,505) translate(6.3700173611111115 55.98090277777778)"/><use xlink:href="#c" transform="matrix(1,0,0,1,185,505) translate(29.134774305555553 55.98090277777778)"/><use xlink:href="#d" transform="matrix(1,0,0,1,185,505) translate(50.087465277777774 55.98090277777778)"/><path d="M354.2 425.1v30.7a6 6 0 0 0 6 6H494a6 6 0 0 1 6 6v14.8" stroke="#3a414a" fill="none"/><path d="M354.2 424.6l.48-.02v.53h-.95v-.53z" stroke="#3a414a" stroke-width=".05" fill="#3a414a"/><path d="M500 497.38l-4.63-14.26h9.26z" stroke="#3a414a" fill="#3a414a"/><path d="M540 540c0 22.1-17.9 40-40 40s-40-17.9-40-40 17.9-40 40-40 40 17.9 40 40z" stroke="#000" stroke-width="2" fill="#fff"/><use xlink:href="#f" transform="matrix(1,0,0,1,465,505) translate(28.14193576388889 23.71527777777778)"/><use xlink:href="#b" transform="matrix(1,0,0,1,465,505) translate(6.3700173611111115 55.98090277777778)"/><use xlink:href="#c" transform="matrix(1,0,0,1,465,505) translate(29.134774305555553 55.98090277777778)"/><use xlink:href="#d" transform="matrix(1,0,0,1,465,505) translate(50.087465277777774 55.98090277777778)"/><path d="M220 581.5V614a6 6 0 0 1-6 6h-68a6 6 0 0 0-6 6v16.62" stroke="#3a414a" fill="none"/><path d="M220 581l.47-.02v.53h-.94v-.53z" stroke="#3a414a" stroke-width=".05" fill="#3a414a"/><path d="M140 657.38l-4.63-14.26h9.26z" stroke="#3a414a" fill="#3a414a"/><path d="M180 700c0 22.1-17.9 40-40 40s-40-17.9-40-40 17.9-40 40-40 40 17.9 40 40z" stroke="#000" stroke-width="2" fill="#fff"/><use xlink:href="#g" transform="matrix(1,0,0,1,105,665) translate(27.827265625000003 25.90277777777778)"/><use xlink:href="#b" transform="matrix(1,0,0,1,105,665) translate(8.626961805555558 58.16840277777778)"/><use xlink:href="#c" transform="matrix(1,0,0,1,105,665) translate(31.39171875 58.16840277777778)"/><use xlink:href="#h" transform="matrix(1,0,0,1,105,665) translate(52.344409722222224 58.16840277777778)"/><path d="M500 581.5V614a6 6 0 0 0 6 6h68a6 6 0 0 1 6 6v16.62" stroke="#3a414a" fill="none"/><path d="M500 581l.48-.02v.53h-.96v-.53z" stroke="#3a414a" stroke-width=".05" fill="#3a414a"/><path d="M580 657.38l-4.63-14.26h9.26z" stroke="#3a414a" fill="#3a414a"/><path d="M620 700c0 22.1-17.9 40-40 40s-40-17.9-40-40 17.9-40 40-40 40 17.9 40 40z" stroke="#000" stroke-width="2" fill="#fff"/><use xlink:href="#i" transform="matrix(1,0,0,1,545,665) translate(28.25044270833333 25.90277777777778)"/><use xlink:href="#b" transform="matrix(1,0,0,1,545,665) translate(8.626961805555558 58.16840277777778)"/><use xlink:href="#c" transform="matrix(1,0,0,1,545,665) translate(31.39171875 58.16840277777778)"/><use xlink:href="#h" transform="matrix(1,0,0,1,545,665) translate(52.344409722222224 58.16840277777778)"/><path d="M220 581.5V614a6 6 0 0 0 6 6h68a6 6 0 0 1 6 6v16.62" stroke="#3a414a" fill="none"/><path d="M220 581l.47-.02v.53h-.94v-.53z" stroke="#3a414a" stroke-width=".05" fill="#3a414a"/><path d="M300 657.38l-4.63-14.26h9.26z" stroke="#3a414a" fill="#3a414a"/><path d="M340 700c0 22.1-17.9 40-40 40s-40-17.9-40-40 17.9-40 40-40 40 17.9 40 40z" stroke="#000" stroke-width="2" fill="#ffd9d9"/><use xlink:href="#j" transform="matrix(1,0,0,1,265,665) translate(6.923828125 26.95095486111111)"/><use xlink:href="#k" transform="matrix(1,0,0,1,265,665) translate(6.131727430555557 59.21657986111111)"/><use xlink:href="#l" transform="matrix(1,0,0,1,265,665) translate(28.896484375 59.21657986111111)"/><use xlink:href="#m" transform="matrix(1,0,0,1,265,665) translate(49.84917534722222 59.21657986111111)"/><path d="M500 581.5V614a6 6 0 0 1-6 6h-68a6 6 0 0 0-6 6v16.62" stroke="#3a414a" fill="none"/><path d="M500 581l.48-.02v.53h-.96v-.53z" stroke="#3a414a" stroke-width=".05" fill="#3a414a"/><path d="M420 657.38l-4.63-14.26h9.26z" stroke="#3a414a" fill="#3a414a"/><path d="M460 700c0 22.1-17.9 40-40 40s-40-17.9-40-40 17.9-40 40-40 40 17.9 40 40z" stroke="#000" stroke-width="2" fill="#ffd9d9"/><use xlink:href="#j" transform="matrix(1,0,0,1,385,665) translate(6.923828125 26.95095486111111)"/><use xlink:href="#k" transform="matrix(1,0,0,1,385,665) translate(6.131727430555557 59.21657986111111)"/><use xlink:href="#l" transform="matrix(1,0,0,1,385,665) translate(28.896484375 59.21657986111111)"/><use xlink:href="#m" transform="matrix(1,0,0,1,385,665) translate(49.84917534722222 59.21657986111111)"/><path d="M140 741.5V774a6 6 0 0 1-6 6H86a6 6 0 0 0-6 6v16.62" stroke="#3a414a" fill="none"/><path d="M140 741l.47-.02v.53h-.94v-.53z" stroke="#3a414a" stroke-width=".05" fill="#3a414a"/><path d="M80 817.38l-4.64-14.26h9.28z" stroke="#3a414a" fill="#3a414a"/><path d="M120 860c0 22.1-17.9 40-40 40s-40-17.9-40-40 17.9-40 40-40 40 17.9 40 40z" stroke="#000" stroke-width="2" fill="#ffd9d9"/><use xlink:href="#j" transform="matrix(1,0,0,1,45,825) translate(6.923828125 26.95095486111111)"/><use xlink:href="#k" transform="matrix(1,0,0,1,45,825) translate(6.131727430555557 59.21657986111111)"/><use xlink:href="#l" transform="matrix(1,0,0,1,45,825) translate(28.896484375 59.21657986111111)"/><use xlink:href="#m" transform="matrix(1,0,0,1,45,825) translate(49.84917534722222 59.21657986111111)"/><path d="M140 741.5V774a6 6 0 0 0 6 6h48a6 6 0 0 1 6 6v16.62" stroke="#3a414a" fill="none"/><path d="M140 741l.47-.02v.53h-.94v-.53z" stroke="#3a414a" stroke-width=".05" fill="#3a414a"/><path d="M200 817.38l-4.63-14.26h9.26z" stroke="#3a414a" fill="#3a414a"/><path d="M240 860c0 22.1-17.9 40-40 40s-40-17.9-40-40 17.9-40 40-40 40 17.9 40 40z" stroke="#000" stroke-width="2" fill="#ffd9d9"/><use xlink:href="#j" transform="matrix(1,0,0,1,165,825) translate(6.923828125 26.95095486111111)"/><use xlink:href="#k" transform="matrix(1,0,0,1,165,825) translate(6.131727430555557 59.21657986111111)"/><use xlink:href="#l" transform="matrix(1,0,0,1,165,825) translate(28.896484375 59.21657986111111)"/><use xlink:href="#m" transform="matrix(1,0,0,1,165,825) translate(49.84917534722222 59.21657986111111)"/><path d="M580 741.5V774a6 6 0 0 1-6 6h-48a6 6 0 0 0-6 6v16.62" stroke="#3a414a" fill="none"/><path d="M580 741l.48-.02v.53h-.96v-.53z" stroke="#3a414a" stroke-width=".05" fill="#3a414a"/><path d="M520 817.38l-4.63-14.26h9.26z" stroke="#3a414a" fill="#3a414a"/><path d="M560 860c0 22.1-17.9 40-40 40s-40-17.9-40-40 17.9-40 40-40 40 17.9 40 40z" stroke="#000" stroke-width="2" fill="#ffd9d9"/><use xlink:href="#j" transform="matrix(1,0,0,1,485,825) translate(6.923828125 26.95095486111111)"/><use xlink:href="#k" transform="matrix(1,0,0,1,485,825) translate(6.131727430555557 59.21657986111111)"/><use xlink:href="#l" transform="matrix(1,0,0,1,485,825) translate(28.896484375 59.21657986111111)"/><use xlink:href="#m" transform="matrix(1,0,0,1,485,825) translate(49.84917534722222 59.21657986111111)"/><path d="M580 741.5V774a6 6 0 0 0 6 6h48a6 6 0 0 1 6 6v16.62" stroke="#3a414a" fill="none"/><path d="M580 741l.48-.02v.53h-.96v-.53z" stroke="#3a414a" stroke-width=".05" fill="#3a414a"/><path d="M640 817.38l-4.63-14.26h9.26z" stroke="#3a414a" fill="#3a414a"/><path d="M680 860c0 22.1-17.9 40-40 40s-40-17.9-40-40 17.9-40 40-40 40 17.9 40 40z" stroke="#000" stroke-width="2" fill="#ffd9d9"/><use xlink:href="#j" transform="matrix(1,0,0,1,605,825) translate(6.923828125 26.95095486111111)"/><use xlink:href="#k" transform="matrix(1,0,0,1,605,825) translate(6.131727430555557 59.21657986111111)"/><use xlink:href="#l" transform="matrix(1,0,0,1,605,825) translate(28.896484375 59.21657986111111)"/><use xlink:href="#m" transform="matrix(1,0,0,1,605,825) translate(49.84917534722222 59.21657986111111)"/><path d="M281.3 226a6 6 0 0 1 6-6h133.8a6 6 0 0 1 6 6v68a6 6 0 0 1-6 6H287.3a6 6 0 0 1-6-6z" stroke="#000" stroke-width="2" fill="#fff"/><use xlink:href="#n" transform="matrix(1,0,0,1,286.30000000000007,225) translate(33.554470486111114 43.40277777777778)"/><path d="M264.85 966a6 6 0 0 1 6-6h166.7a6 6 0 0 1 6 6v98.7a6 6 0 0 1-6 6h-166.7a6 6 0 0 1-6-6z" stroke="#000" stroke-width="2" fill="#fff"/><use xlink:href="#o" transform="matrix(1,0,0,1,269.8500000000001,965) translate(30.186848958333336 43.62152777777778)"/><use xlink:href="#p" transform="matrix(1,0,0,1,269.8500000000001,965) translate(12.337456597222229 75.88715277777777)"/><use xlink:href="#q" transform="matrix(1,0,0,1,269.8500000000001,965) translate(79.666015625 75.88715277777777)"/><path d="M394.2 1160c0 22.1-17.9 40-40 40s-40-17.9-40-40 17.9-40 40-40 40 17.9 40 40z" stroke="#000" stroke-width="2" fill="#cfe4ff"/><use xlink:href="#r" transform="matrix(1,0,0,1,319.20000000000005,1125) translate(30.48568576388889 23.71527777777778)"/><use xlink:href="#s" transform="matrix(1,0,0,1,319.20000000000005,1125) translate(6.99935763888889 55.98090277777778)"/><use xlink:href="#t" transform="matrix(1,0,0,1,319.20000000000005,1125) translate(41.35265625 55.98090277777778)"/><path d="M354.2 1201.5v30.7a6 6 0 0 1-6 6H226a6 6 0 0 0-6 6v14.82" stroke="#3a414a" fill="none"/><path d="M354.2 1201l.48-.02v.53h-.95v-.53z" stroke="#3a414a" stroke-width=".05" fill="#3a414a"/><path d="M220 1273.78l-4.63-14.26h9.26z" stroke="#3a414a" fill="#3a414a"/><path d="M260 1316.4c0 22.1-17.9 40-40 40s-40-17.9-40-40 17.9-40 40-40 40 17.9 40 40z" stroke="#000" stroke-width="2" fill="#fff"/><use xlink:href="#u" transform="matrix(1,0,0,1,185,1281.4) translate(28.228741319444445 25.90277777777778)"/><use xlink:href="#s" transform="matrix(1,0,0,1,185,1281.4) translate(9.256302083333333 58.16840277777778)"/><use xlink:href="#v" transform="matrix(1,0,0,1,185,1281.4) translate(43.609600694444445 58.16840277777778)"/><path d="M354.2 1201.5v30.7a6 6 0 0 0 6 6H494a6 6 0 0 1 6 6v14.82" stroke="#3a414a" fill="none"/><path d="M354.2 1201l.48-.02v.53h-.95v-.53z" stroke="#3a414a" stroke-width=".05" fill="#3a414a"/><path d="M500 1273.78l-4.63-14.26h9.26z" stroke="#3a414a" fill="#3a414a"/><path d="M540 1316.4c0 22.1-17.9 40-40 40s-40-17.9-40-40 17.9-40 40-40 40 17.9 40 40z" stroke="#000" stroke-width="2" fill="#fff"/><use xlink:href="#w" transform="matrix(1,0,0,1,465,1281.4) translate(28.14193576388889 25.90277777777778)"/><use xlink:href="#s" transform="matrix(1,0,0,1,465,1281.4) translate(9.256302083333333 58.16840277777778)"/><use xlink:href="#v" transform="matrix(1,0,0,1,465,1281.4) translate(43.609600694444445 58.16840277777778)"/><path d="M220 1357.9v32.5a6 6 0 0 1-6 6h-68a6 6 0 0 0-6 6v16.62" stroke="#3a414a" fill="none"/><path d="M220 1357.4l.47-.02v.53h-.94v-.53z" stroke="#3a414a" stroke-width=".05" fill="#3a414a"/><path d="M140 1433.78l-4.63-14.26h9.26z" stroke="#3a414a" fill="#3a414a"/><path d="M180 1476.4c0 22.1-17.9 40-40 40s-40-17.9-40-40 17.9-40 40-40 40 17.9 40 40z" stroke="#000" stroke-width="2" fill="#ffd9d9"/><use xlink:href="#j" transform="matrix(1,0,0,1,105,1441.4) translate(6.923828125 26.95095486111111)"/><use xlink:href="#s" transform="matrix(1,0,0,1,105,1441.4) translate(6.761067708333332 59.21657986111111)"/><use xlink:href="#x" transform="matrix(1,0,0,1,105,1441.4) translate(41.11436631944444 59.21657986111111)"/><path d="M500 1357.9v32.5a6 6 0 0 0 6 6h68a6 6 0 0 1 6 6v16.62" stroke="#3a414a" fill="none"/><path d="M500 1357.4l.48-.02v.53h-.96v-.53z" stroke="#3a414a" stroke-width=".05" fill="#3a414a"/><path d="M580 1433.78l-4.63-14.26h9.26z" stroke="#3a414a" fill="#3a414a"/><path d="M620 1476.4c0 22.1-17.9 40-40 40s-40-17.9-40-40 17.9-40 40-40 40 17.9 40 40z" stroke="#000" stroke-width="2" fill="#fff"/><use xlink:href="#y" transform="matrix(1,0,0,1,545,1441.4) translate(28.717022569444445 25.90277777777778)"/><use xlink:href="#s" transform="matrix(1,0,0,1,545,1441.4) translate(9.256302083333333 58.16840277777778)"/><use xlink:href="#v" transform="matrix(1,0,0,1,545,1441.4) translate(43.609600694444445 58.16840277777778)"/><path d="M220 1357.9v32.5a6 6 0 0 0 6 6h68a6 6 0 0 1 6 6v16.62" stroke="#3a414a" fill="none"/><path d="M220 1357.4l.47-.02v.53h-.94v-.53z" stroke="#3a414a" stroke-width=".05" fill="#3a414a"/><path d="M300 1433.78l-4.63-14.26h9.26z" stroke="#3a414a" fill="#3a414a"/><path d="M340 1476.4c0 22.1-17.9 40-40 40s-40-17.9-40-40 17.9-40 40-40 40 17.9 40 40z" stroke="#000" stroke-width="2" fill="#ffd9d9"/><use xlink:href="#z" transform="matrix(1,0,0,1,265,1441.4) translate(6.923828125 26.95095486111111)"/><use xlink:href="#A" transform="matrix(1,0,0,1,265,1441.4) translate(6.761067708333332 59.21657986111111)"/><use xlink:href="#B" transform="matrix(1,0,0,1,265,1441.4) translate(41.11436631944444 59.21657986111111)"/><path d="M500 1357.9v32.5a6 6 0 0 1-6 6h-68a6 6 0 0 0-6 6v16.62" stroke="#3a414a" fill="none"/><path d="M500 1357.4l.48-.02v.53h-.96v-.53z" stroke="#3a414a" stroke-width=".05" fill="#3a414a"/><path d="M420 1433.78l-4.63-14.26h9.26z" stroke="#3a414a" fill="#3a414a"/><path d="M460 1476.4c0 22.1-17.9 40-40 40s-40-17.9-40-40 17.9-40 40-40 40 17.9 40 40z" stroke="#000" stroke-width="2" fill="#fff"/><use xlink:href="#C" transform="matrix(1,0,0,1,385,1441.4) translate(28.114809027777774 25.90277777777778)"/><use xlink:href="#s" transform="matrix(1,0,0,1,385,1441.4) translate(9.256302083333333 58.16840277777778)"/><use xlink:href="#v" transform="matrix(1,0,0,1,385,1441.4) translate(43.609600694444445 58.16840277777778)"/><path d="M420 1517.9v32.5a6 6 0 0 1-6 6H306a6 6 0 0 0-6 6v16.62" stroke="#3a414a" fill="none"/><path d="M420 1517.4l.48-.02v.53h-.96v-.53z" stroke="#3a414a" stroke-width=".05" fill="#3a414a"/><path d="M300 1593.78l-4.63-14.26h9.26z" stroke="#3a414a" fill="#3a414a"/><path d="M340 1636.4c0 22.1-17.9 40-40 40s-40-17.9-40-40 17.9-40 40-40 40 17.9 40 40z" stroke="#000" stroke-width="2" fill="#ffd9d9"/><use xlink:href="#j" transform="matrix(1,0,0,1,265,1601.4) translate(6.923828125 26.95095486111111)"/><use xlink:href="#s" transform="matrix(1,0,0,1,265,1601.4) translate(6.761067708333332 59.21657986111111)"/><use xlink:href="#x" transform="matrix(1,0,0,1,265,1601.4) translate(41.11436631944444 59.21657986111111)"/><path d="M420 1517.9v61.12" stroke="#3a414a" fill="none"/><path d="M420 1517.4l.48-.02v.53h-.96v-.53z" stroke="#3a414a" stroke-width=".05" fill="#3a414a"/><path d="M420 1593.78l-4.63-14.26h9.26z" stroke="#3a414a" fill="#3a414a"/><path d="M460 1636.4c0 22.1-17.9 40-40 40s-40-17.9-40-40 17.9-40 40-40 40 17.9 40 40z" stroke="#000" stroke-width="2" fill="#ffd9d9"/><use xlink:href="#j" transform="matrix(1,0,0,1,385,1601.4) translate(6.923828125 26.95095486111111)"/><use xlink:href="#s" transform="matrix(1,0,0,1,385,1601.4) translate(6.761067708333332 59.21657986111111)"/><use xlink:href="#x" transform="matrix(1,0,0,1,385,1601.4) translate(41.11436631944444 59.21657986111111)"/><path d="M580 1517.9v61.12" stroke="#3a414a" fill="none"/><path d="M580 1517.4l.48-.02v.53h-.96v-.53z" stroke="#3a414a" stroke-width=".05" fill="#3a414a"/><path d="M580 1593.78l-4.63-14.26h9.26z" stroke="#3a414a" fill="#3a414a"/><path d="M620 1636.4c0 22.1-17.9 40-40 40s-40-17.9-40-40 17.9-40 40-40 40 17.9 40 40z" stroke="#000" stroke-width="2" fill="#ffd9d9"/><use xlink:href="#j" transform="matrix(1,0,0,1,545,1601.4) translate(6.923828125 26.95095486111111)"/><use xlink:href="#s" transform="matrix(1,0,0,1,545,1601.4) translate(6.761067708333332 59.21657986111111)"/><use xlink:href="#x" transform="matrix(1,0,0,1,545,1601.4) translate(41.11436631944444 59.21657986111111)"/><path d="M580 1517.9v32.5a6 6 0 0 0 6 6h108a6 6 0 0 1 6 6v16.62" stroke="#3a414a" fill="none"/><path d="M580 1517.4l.48-.02v.53h-.96v-.53z" stroke="#3a414a" stroke-width=".05" fill="#3a414a"/><path d="M700 1593.78l-4.63-14.26h9.26z" stroke="#3a414a" fill="#3a414a"/><path d="M740 1636.4c0 22.1-17.9 40-40 40s-40-17.9-40-40 17.9-40 40-40 40 17.9 40 40z" stroke="#000" stroke-width="2" fill="#ffd9d9"/><use xlink:href="#j" transform="matrix(1,0,0,1,665,1601.4) translate(6.923828125 26.95095486111111)"/><use xlink:href="#s" transform="matrix(1,0,0,1,665,1601.4) translate(6.761067708333332 59.21657986111111)"/><use xlink:href="#x" transform="matrix(1,0,0,1,665,1601.4) translate(41.11436631944444 59.21657986111111)"/><path d="M264.85 1762.4a6 6 0 0 1 6-6h166.7a6 6 0 0 1 6 6v98.7a6 6 0 0 1-6 6h-166.7a6 6 0 0 1-6-6z" stroke="#000" stroke-width="2" fill="#fff"/><use xlink:href="#D" transform="matrix(1,0,0,1,269.8500000000001,1761.4) translate(32.12912326388889 59.40277777777778)"/><use xlink:href="#E" transform="matrix(1,0,0,1,269.8500000000001,1761.4) translate(81.44552951388889 59.40277777777778)"/><use xlink:href="#F" transform="matrix(1,0,0,1,269.8500000000001,1761.4) translate(109.24500868055554 59.40277777777778)"/><path d="M394.2 1960c0 22.1-17.9 40-40 40s-40-17.9-40-40 17.9-40 40-40 40 17.9 40 40z" stroke="#000" stroke-width="2" fill="#fff"/><use xlink:href="#a" transform="matrix(1,0,0,1,319.20000000000005,1925) translate(30.48568576388889 25.90277777777778)"/><use xlink:href="#G" transform="matrix(1,0,0,1,319.20000000000005,1925) translate(8.003046875000004 58.16840277777778)"/><use xlink:href="#d" transform="matrix(1,0,0,1,319.20000000000005,1925) translate(48.45443576388889 58.16840277777778)"/><path d="M354.2 2001.5v32.5a6 6 0 0 1-6 6H266a6 6 0 0 0-6 6v16.6" stroke="#3a414a" fill="none"/><path d="M354.2 2001l.48-.02v.53h-.95v-.53z" stroke="#3a414a" stroke-width=".05" fill="#3a414a"/><path d="M260 2077.38l-4.63-14.27h9.26z" stroke="#3a414a" fill="#3a414a"/><path d="M300 2120c0 22.1-17.9 40-40 40s-40-17.9-40-40 17.9-40 40-40 40 17.9 40 40z" stroke="#000" stroke-width="2" fill="#fff"/><use xlink:href="#e" transform="matrix(1,0,0,1,225,2085) translate(28.228741319444445 25.90277777777778)"/><use xlink:href="#G" transform="matrix(1,0,0,1,225,2085) translate(8.003046875000004 58.16840277777778)"/><use xlink:href="#d" transform="matrix(1,0,0,1,225,2085) translate(48.45443576388889 58.16840277777778)"/><path d="M354.2 2001.5v32.5a6 6 0 0 0 6 6H454a6 6 0 0 1 6 6v16.6" stroke="#3a414a" fill="none"/><path d="M354.2 2001l.48-.02v.53h-.95v-.53z" stroke="#3a414a" stroke-width=".05" fill="#3a414a"/><path d="M460 2077.38l-4.63-14.27h9.26z" stroke="#3a414a" fill="#3a414a"/><path d="M500 2120c0 22.1-17.9 40-40 40s-40-17.9-40-40 17.9-40 40-40 40 17.9 40 40z" stroke="#000" stroke-width="2" fill="#fff"/><use xlink:href="#f" transform="matrix(1,0,0,1,425,2085) translate(28.14193576388889 23.71527777777778)"/><use xlink:href="#H" transform="matrix(1,0,0,1,425,2085) translate(6.928828125000001 55.98090277777778)"/><path d="M260 2161.5v32.5a6 6 0 0 1-6 6h-88a6 6 0 0 0-6 6v16.6" stroke="#3a414a" fill="none"/><path d="M260 2161l.48-.02v.53h-.96v-.53z" stroke="#3a414a" stroke-width=".05" fill="#3a414a"/><path d="M160 2237.38l-4.63-14.27h9.26z" stroke="#3a414a" fill="#3a414a"/><path d="M200 2280c0 22.1-17.9 40-40 40s-40-17.9-40-40 17.9-40 40-40 40 17.9 40 40z" stroke="#000" stroke-width="2" fill="#cfe4ff"/><use xlink:href="#I" transform="matrix(1,0,0,1,125,2245) translate(15.072274305555554 25.90277777777778)"/><use xlink:href="#J" transform="matrix(1,0,0,1,125,2245) translate(41.33095486111111 25.90277777777778)"/><use xlink:href="#K" transform="matrix(1,0,0,1,125,2245) translate(7.601571180555558 58.16840277777778)"/><use xlink:href="#L" transform="matrix(1,0,0,1,125,2245) translate(48.05296006944444 58.16840277777778)"/><path d="M260 2161.5v32.5a6 6 0 0 0 6 6h82.2a6 6 0 0 1 6 6v16.6" stroke="#3a414a" fill="none"/><path d="M260 2161l.48-.02v.53h-.96v-.53z" stroke="#3a414a" stroke-width=".05" fill="#3a414a"/><path d="M354.2 2237.38l-4.63-14.27h9.26z" stroke="#3a414a" fill="#3a414a"/><path d="M394.2 2280c0 22.1-17.9 40-40 40s-40-17.9-40-40 17.9-40 40-40 40 17.9 40 40z" stroke="#000" stroke-width="2" fill="#c3f7c8"/><use xlink:href="#M" transform="matrix(1,0,0,1,319.20000000000005,2245) translate(15.121102430555554 25.90277777777778)"/><use xlink:href="#N" transform="matrix(1,0,0,1,319.20000000000005,2245) translate(41.28212673611111 25.90277777777778)"/><use xlink:href="#K" transform="matrix(1,0,0,1,319.20000000000005,2245) translate(8.02474826388889 58.16840277777778)"/><use xlink:href="#O" transform="matrix(1,0,0,1,319.20000000000005,2245) translate(48.476137152777774 58.16840277777778)"/><path d="M160 2321.5v61.1" stroke="#3a414a" fill="none"/><path d="M160 2321l.47-.02v.53h-.94v-.53z" stroke="#3a414a" stroke-width=".05" fill="#3a414a"/><path d="M160 2397.38l-4.63-14.27h9.26z" stroke="#3a414a" fill="#3a414a"/><path d="M200 2440c0 22.1-17.9 40-40 40s-40-17.9-40-40 17.9-40 40-40 40 17.9 40 40z" stroke="#000" stroke-width="2" fill="#fff"/><use xlink:href="#P" transform="matrix(1,0,0,1,125,2405) translate(28.114809027777774 23.71527777777778)"/><use xlink:href="#Q" transform="matrix(1,0,0,1,125,2405) translate(6.928828125000001 55.98090277777778)"/><path d="M264.85 2526a6 6 0 0 1 6-6h166.7a6 6 0 0 1 6 6v98.7a6 6 0 0 1-6 6h-166.7a6 6 0 0 1-6-6z" stroke="#000" stroke-width="2" fill="#fff"/><use xlink:href="#R" transform="matrix(1,0,0,1,269.8500000000001,2525) translate(15.646918402777771 59.40277777777778)"/><use xlink:href="#S" transform="matrix(1,0,0,1,269.8500000000001,2525) translate(84.99370659722221 59.40277777777778)"/><path d="M388.4 2710.7c0 22.1-17.9 40-40 40s-40-17.9-40-40c0-22.08 17.9-40 40-40s40 17.92 40 40z" stroke="#000" stroke-width="2" fill="#fff"/><use xlink:href="#a" transform="matrix(1,0,0,1,313.4000000000001,2675.7096354166665) translate(30.48568576388889 23.71527777777778)"/><use xlink:href="#T" transform="matrix(1,0,0,1,313.4000000000001,2675.7096354166665) translate(6.99935763888889 55.98090277777778)"/><use xlink:href="#c" transform="matrix(1,0,0,1,313.4000000000001,2675.7096354166665) translate(29.48199652777778 55.98090277777778)"/><use xlink:href="#U" transform="matrix(1,0,0,1,313.4000000000001,2675.7096354166665) translate(50.4346875 55.98090277777778)"/><path d="M348.4 2752.2v32.5a6 6 0 0 1-6 6H240.2a6 6 0 0 0-6 6v16.63" stroke="#3a414a" fill="none"/><path d="M348.4 2751.7h.48v.52h-.95v-.54z" stroke="#3a414a" stroke-width=".05" fill="#3a414a"/><path d="M234.2 2828.1l-4.63-14.28h9.27z" stroke="#3a414a" fill="#3a414a"/><path d="M274.2 2870.7c0 22.1-17.9 40-40 40s-40-17.9-40-40c0-22.08 17.9-40 40-40s40 17.92 40 40z" stroke="#000" stroke-width="2" fill="#fff"/><use xlink:href="#e" transform="matrix(1,0,0,1,199.20000000000005,2835.7096354166665) translate(28.228741319444445 23.71527777777778)"/><use xlink:href="#T" transform="matrix(1,0,0,1,199.20000000000005,2835.7096354166665) translate(6.424270833333333 55.98090277777778)"/><use xlink:href="#c" transform="matrix(1,0,0,1,199.20000000000005,2835.7096354166665) translate(28.906909722222224 55.98090277777778)"/><use xlink:href="#V" transform="matrix(1,0,0,1,199.20000000000005,2835.7096354166665) translate(49.859600694444445 55.98090277777778)"/><path d="M348.4 2752.2v32.5a6 6 0 0 0 6 6h113.8a6 6 0 0 1 6 6v16.63" stroke="#3a414a" fill="none"/><path d="M348.4 2751.7h.48v.52h-.95v-.54z" stroke="#3a414a" stroke-width=".05" fill="#3a414a"/><path d="M474.2 2828.1l-4.63-14.28h9.26z" stroke="#3a414a" fill="#3a414a"/><path d="M514.2 2870.7c0 22.1-17.9 40-40 40s-40-17.9-40-40c0-22.08 17.9-40 40-40s40 17.92 40 40z" stroke="#000" stroke-width="2" fill="#fff"/><use xlink:href="#W" transform="matrix(1,0,0,1,439.20000000000005,2835.7096354166665) translate(28.14193576388889 23.71527777777778)"/><use xlink:href="#X" transform="matrix(1,0,0,1,439.20000000000005,2835.7096354166665) translate(6.424270833333333 55.98090277777778)"/><use xlink:href="#Y" transform="matrix(1,0,0,1,439.20000000000005,2835.7096354166665) translate(28.906909722222224 55.98090277777778)"/><use xlink:href="#Z" transform="matrix(1,0,0,1,439.20000000000005,2835.7096354166665) translate(49.859600694444445 55.98090277777778)"/><path d="M234.2 2912.2v32.5a6 6 0 0 1-6 6h-48a6 6 0 0 0-6 6v16.63" stroke="#3a414a" fill="none"/><path d="M234.2 2911.7h.48v.52h-.96v-.54z" stroke="#3a414a" stroke-width=".05" fill="#3a414a"/><path d="M174.2 2988.1l-4.63-14.28h9.27z" stroke="#3a414a" fill="#3a414a"/><path d="M214.2 3030.7c0 22.1-17.9 40-40 40s-40-17.9-40-40c0-22.08 17.9-40 40-40s40 17.92 40 40z" stroke="#000" stroke-width="2" fill="#fff"/><use xlink:href="#g" transform="matrix(1,0,0,1,139.20000000000005,2995.7096354166665) translate(27.827265625000003 25.90277777777778)"/><use xlink:href="#aa" transform="matrix(1,0,0,1,139.20000000000005,2995.7096354166665) translate(8.768020833333333 58.16840277777778)"/><use xlink:href="#l" transform="matrix(1,0,0,1,139.20000000000005,2995.7096354166665) translate(31.250659722222224 58.16840277777778)"/><use xlink:href="#ab" transform="matrix(1,0,0,1,139.20000000000005,2995.7096354166665) translate(52.203350694444445 58.16840277777778)"/><path d="M234.2 2912.2v32.5a6 6 0 0 0 6 6h48a6 6 0 0 1 6 6v16.63" stroke="#3a414a" fill="none"/><path d="M234.2 2911.7h.48v.52h-.96v-.54z" stroke="#3a414a" stroke-width=".05" fill="#3a414a"/><path d="M294.2 2988.1l-4.63-14.28h9.26z" stroke="#3a414a" fill="#3a414a"/><path d="M334.2 3030.7c0 22.1-17.9 40-40 40s-40-17.9-40-40c0-22.08 17.9-40 40-40s40 17.92 40 40z" stroke="#000" stroke-width="2" fill="#fff"/><use xlink:href="#i" transform="matrix(1,0,0,1,259.20000000000005,2995.7096354166665) translate(28.25044270833333 25.90277777777778)"/><use xlink:href="#T" transform="matrix(1,0,0,1,259.20000000000005,2995.7096354166665) translate(8.768020833333333 58.16840277777778)"/><use xlink:href="#c" transform="matrix(1,0,0,1,259.20000000000005,2995.7096354166665) translate(31.250659722222224 58.16840277777778)"/><use xlink:href="#h" transform="matrix(1,0,0,1,259.20000000000005,2995.7096354166665) translate(52.203350694444445 58.16840277777778)"/><path d="M474.2 2912.2v32.5a6 6 0 0 1-6 6h-48a6 6 0 0 0-6 6v16.63" stroke="#3a414a" fill="none"/><path d="M474.2 2911.7h.48v.52h-.95v-.54z" stroke="#3a414a" stroke-width=".05" fill="#3a414a"/><path d="M414.2 2988.1l-4.63-14.28h9.26z" stroke="#3a414a" fill="#3a414a"/><path d="M454.2 3030.7c0 22.1-17.9 40-40 40s-40-17.9-40-40c0-22.08 17.9-40 40-40s40 17.92 40 40z" stroke="#000" stroke-width="2" fill="#fff"/><use xlink:href="#P" transform="matrix(1,0,0,1,379.20000000000005,2995.7096354166665) translate(28.114809027777774 25.90277777777778)"/><use xlink:href="#T" transform="matrix(1,0,0,1,379.20000000000005,2995.7096354166665) translate(8.768020833333333 58.16840277777778)"/><use xlink:href="#c" transform="matrix(1,0,0,1,379.20000000000005,2995.7096354166665) translate(31.250659722222224 58.16840277777778)"/><use xlink:href="#h" transform="matrix(1,0,0,1,379.20000000000005,2995.7096354166665) translate(52.203350694444445 58.16840277777778)"/><path d="M474.2 2912.2v32.5a6 6 0 0 0 6 6h48a6 6 0 0 1 6 6v16.63" stroke="#3a414a" fill="none"/><path d="M474.2 2911.7h.48v.52h-.95v-.54z" stroke="#3a414a" stroke-width=".05" fill="#3a414a"/><path d="M534.2 2988.1l-4.63-14.28h9.26z" stroke="#3a414a" fill="#3a414a"/><path d="M574.2 3030.7c0 22.1-17.9 40-40 40s-40-17.9-40-40c0-22.08 17.9-40 40-40s40 17.92 40 40z" stroke="#000" stroke-width="2" fill="#fff"/><use xlink:href="#ac" transform="matrix(1,0,0,1,499.20000000000005,2995.7096354166665) translate(28.717022569444445 25.90277777777778)"/><use xlink:href="#T" transform="matrix(1,0,0,1,499.20000000000005,2995.7096354166665) translate(8.768020833333333 58.16840277777778)"/><use xlink:href="#c" transform="matrix(1,0,0,1,499.20000000000005,2995.7096354166665) translate(31.250659722222224 58.16840277777778)"/><use xlink:href="#h" transform="matrix(1,0,0,1,499.20000000000005,2995.7096354166665) translate(52.203350694444445 58.16840277777778)"/><path d="M264.85 3126a6 6 0 0 1 6-6h166.7a6 6 0 0 1 6 6v98.7a6 6 0 0 1-6 6h-166.7a6 6 0 0 1-6-6z" stroke="#000" stroke-width="2" fill="#fff"/><use xlink:href="#R" transform="matrix(1,0,0,1,269.8500000000001,3125) translate(12.511067708333343 59.40277777777778)"/><use xlink:href="#ad" transform="matrix(1,0,0,1,269.8500000000001,3125) translate(81.85785590277779 59.40277777777778)"/><path d="M394.2 3320c0 22.1-17.9 40-40 40s-40-17.9-40-40 17.9-40 40-40 40 17.9 40 40z" stroke="#000" stroke-width="2" fill="#fff"/><use xlink:href="#r" transform="matrix(1,0,0,1,319.20000000000005,3285) translate(30.48568576388889 23.71527777777778)"/><use xlink:href="#ae" transform="matrix(1,0,0,1,319.20000000000005,3285) translate(6.109600694444444 55.98090277777778)"/><use xlink:href="#l" transform="matrix(1,0,0,1,319.20000000000005,3285) translate(28.592239583333335 55.98090277777778)"/><use xlink:href="#L" transform="matrix(1,0,0,1,319.20000000000005,3285) translate(49.54493055555555 55.98090277777778)"/><path d="M354.2 3361.5v32.5a6 6 0 0 1-6 6H246a6 6 0 0 0-6 6v16.6" stroke="#3a414a" fill="none"/><path d="M354.2 3361l.48-.02v.53h-.95v-.53z" stroke="#3a414a" stroke-width=".05" fill="#3a414a"/><path d="M240 3437.38l-4.63-14.27h9.26z" stroke="#3a414a" fill="#3a414a"/><path d="M280 3480c0 22.1-17.9 40-40 40s-40-17.9-40-40 17.9-40 40-40 40 17.9 40 40z" stroke="#000" stroke-width="2" fill="#fff"/><use xlink:href="#u" transform="matrix(1,0,0,1,205,3445) translate(28.228741319444445 23.71527777777778)"/><use xlink:href="#ae" transform="matrix(1,0,0,1,205,3445) translate(6.51107638888889 55.98090277777778)"/><use xlink:href="#l" transform="matrix(1,0,0,1,205,3445) translate(28.99371527777778 55.98090277777778)"/><use xlink:href="#af" transform="matrix(1,0,0,1,205,3445) translate(49.94640625 55.98090277777778)"/><path d="M354.2 3361.5v32.5a6 6 0 0 0 6 6H474a6 6 0 0 1 6 6v16.6" stroke="#3a414a" fill="none"/><path d="M354.2 3361l.48-.02v.53h-.95v-.53z" stroke="#3a414a" stroke-width=".05" fill="#3a414a"/><path d="M480 3437.38l-4.63-14.27h9.26z" stroke="#3a414a" fill="#3a414a"/><path d="M520 3480c0 22.1-17.9 40-40 40s-40-17.9-40-40 17.9-40 40-40 40 17.9 40 40z" stroke="#000" stroke-width="2" fill="#fff"/><use xlink:href="#ag" transform="matrix(1,0,0,1,445,3445) translate(28.14193576388889 23.71527777777778)"/><use xlink:href="#ah" transform="matrix(1,0,0,1,445,3445) translate(6.51107638888889 55.98090277777778)"/><use xlink:href="#ai" transform="matrix(1,0,0,1,445,3445) translate(28.99371527777778 55.98090277777778)"/><use xlink:href="#aj" transform="matrix(1,0,0,1,445,3445) translate(49.94640625 55.98090277777778)"/><path d="M240 3521.5v32.5a6 6 0 0 1-6 6h-48a6 6 0 0 0-6 6v16.6" stroke="#3a414a" fill="none"/><path d="M240 3521l.47-.02v.53h-.94v-.53z" stroke="#3a414a" stroke-width=".05" fill="#3a414a"/><path d="M180 3597.38l-4.63-14.27h9.26z" stroke="#3a414a" fill="#3a414a"/><path d="M220 3640c0 22.1-17.9 40-40 40s-40-17.9-40-40 17.9-40 40-40 40 17.9 40 40z" stroke="#000" stroke-width="2" fill="#fff"/><g><use xlink:href="#g" transform="matrix(1,0,0,1,145,3605) translate(27.827265625000003 25.90277777777778)"/><use xlink:href="#aa" transform="matrix(1,0,0,1,145,3605) translate(8.768020833333333 58.16840277777778)"/><use xlink:href="#l" transform="matrix(1,0,0,1,145,3605) translate(31.250659722222224 58.16840277777778)"/><use xlink:href="#ab" transform="matrix(1,0,0,1,145,3605) translate(52.203350694444445 58.16840277777778)"/></g><path d="M240 3521.5v32.5a6 6 0 0 0 6 6h48a6 6 0 0 1 6 6v16.6" stroke="#3a414a" fill="none"/><path d="M240 3521l.47-.02v.53h-.94v-.53z" stroke="#3a414a" stroke-width=".05" fill="#3a414a"/><path d="M300 3597.38l-4.63-14.27h9.26z" stroke="#3a414a" fill="#3a414a"/><path d="M340 3640c0 22.1-17.9 40-40 40s-40-17.9-40-40 17.9-40 40-40 40 17.9 40 40z" stroke="#000" stroke-width="2" fill="#fff"/><g><use xlink:href="#ak" transform="matrix(1,0,0,1,265,3605) translate(28.25044270833333 25.90277777777778)"/><use xlink:href="#ae" transform="matrix(1,0,0,1,265,3605) translate(8.768020833333333 58.16840277777778)"/><use xlink:href="#l" transform="matrix(1,0,0,1,265,3605) translate(31.250659722222224 58.16840277777778)"/><use xlink:href="#ab" transform="matrix(1,0,0,1,265,3605) translate(52.203350694444445 58.16840277777778)"/></g><path d="M480 3521.5v32.5a6 6 0 0 1-6 6h-48a6 6 0 0 0-6 6v16.6" stroke="#3a414a" fill="none"/><path d="M480 3521l.48-.02v.53h-.96v-.53z" stroke="#3a414a" stroke-width=".05" fill="#3a414a"/><path d="M420 3597.38l-4.63-14.27h9.26z" stroke="#3a414a" fill="#3a414a"/><path d="M460 3640c0 22.1-17.9 40-40 40s-40-17.9-40-40 17.9-40 40-40 40 17.9 40 40z" stroke="#000" stroke-width="2" fill="#fff"/><g><use xlink:href="#C" transform="matrix(1,0,0,1,385,3605) translate(28.114809027777774 25.90277777777778)"/><use xlink:href="#ae" transform="matrix(1,0,0,1,385,3605) translate(8.768020833333333 58.16840277777778)"/><use xlink:href="#l" transform="matrix(1,0,0,1,385,3605) translate(31.250659722222224 58.16840277777778)"/><use xlink:href="#ab" transform="matrix(1,0,0,1,385,3605) translate(52.203350694444445 58.16840277777778)"/></g><path d="M480 3521.5v32.5a6 6 0 0 0 6 6h48a6 6 0 0 1 6 6v16.6" stroke="#3a414a" fill="none"/><path d="M480 3521l.48-.02v.53h-.96v-.53z" stroke="#3a414a" stroke-width=".05" fill="#3a414a"/><path d="M540 3597.38l-4.63-14.27h9.26z" stroke="#3a414a" fill="#3a414a"/><path d="M580 3640c0 22.1-17.9 40-40 40s-40-17.9-40-40 17.9-40 40-40 40 17.9 40 40z" stroke="#000" stroke-width="2" fill="#fff"/><g><use xlink:href="#y" transform="matrix(1,0,0,1,505,3605) translate(28.717022569444445 25.90277777777778)"/><use xlink:href="#ae" transform="matrix(1,0,0,1,505,3605) translate(8.768020833333333 58.16840277777778)"/><use xlink:href="#l" transform="matrix(1,0,0,1,505,3605) translate(31.250659722222224 58.16840277777778)"/><use xlink:href="#ab" transform="matrix(1,0,0,1,505,3605) translate(52.203350694444445 58.16840277777778)"/></g><path d="M264.85 3746a6 6 0 0 1 6-6h166.7a6 6 0 0 1 6 6v98.7a6 6 0 0 1-6 6h-166.7a6 6 0 0 1-6-6z" stroke="#000" stroke-width="2" fill="#fff"/><g><use xlink:href="#al" transform="matrix(1,0,0,1,269.8500000000001,3745) translate(28.298828125 59.40277777777778)"/><use xlink:href="#am" transform="matrix(1,0,0,1,269.8500000000001,3745) translate(93.70681423611111 59.40277777777778)"/></g><path d="M280 3940c0 22.1-17.9 40-40 40s-40-17.9-40-40 17.9-40 40-40 40 17.9 40 40z" stroke="#000" stroke-width="2" fill="#ffd9d9"/><g><use xlink:href="#a" transform="matrix(1,0,0,1,205,3905) translate(30.48568576388889 25.90277777777778)"/><use xlink:href="#an" transform="matrix(1,0,0,1,205,3905) translate(26.05317708333333 58.16840277777778)"/></g><path d="M240 3981.5v32.5a6 6 0 0 1-6 6h-48a6 6 0 0 0-6 6v16.6" stroke="#3a414a" fill="none"/><path d="M240 3981l.47-.02v.53h-.94v-.53z" stroke="#3a414a" stroke-width=".05" fill="#3a414a"/><path d="M180 4057.38l-4.63-14.27h9.26z" stroke="#3a414a" fill="#3a414a"/><path d="M220 4100c0 22.1-17.9 40-40 40s-40-17.9-40-40 17.9-40 40-40 40 17.9 40 40z" stroke="#000" stroke-width="2" fill="#c3f7c8"/><g><use xlink:href="#e" transform="matrix(1,0,0,1,145,4065) translate(28.228741319444445 25.90277777777778)"/><use xlink:href="#ao" transform="matrix(1,0,0,1,145,4065) translate(32.021059027777774 58.16840277777778)"/></g><path d="M240 3981.5v32.5a6 6 0 0 0 6 6h48a6 6 0 0 1 6 6v16.6" stroke="#3a414a" fill="none"/><path d="M240 3981l.47-.02v.53h-.94v-.53z" stroke="#3a414a" stroke-width=".05" fill="#3a414a"/><path d="M300 4057.38l-4.63-14.27h9.26z" stroke="#3a414a" fill="#3a414a"/><path d="M340 4100c0 22.1-17.9 40-40 40s-40-17.9-40-40 17.9-40 40-40 40 17.9 40 40z" stroke="#000" stroke-width="2" fill="#cfe4ff"/><g><use xlink:href="#f" transform="matrix(1,0,0,1,265,4065) translate(28.14193576388889 25.90277777777778)"/><use xlink:href="#ap" transform="matrix(1,0,0,1,265,4065) translate(29.037118055555553 58.16840277777778)"/></g><path d="M520 3940c0 22.1-17.9 40-40 40s-40-17.9-40-40 17.9-40 40-40 40 17.9 40 40z" stroke="#000" stroke-width="2" fill="#ffd9d9"/><g><use xlink:href="#r" transform="matrix(1,0,0,1,445,3905) translate(30.48568576388889 25.90277777777778)"/><use xlink:href="#aq" transform="matrix(1,0,0,1,445,3905) translate(26.05317708333333 58.16840277777778)"/></g><path d="M480 3981.5v32.5a6 6 0 0 1-6 6h-48a6 6 0 0 0-6 6v16.6" stroke="#3a414a" fill="none"/><path d="M480 3981l.48-.02v.53h-.96v-.53z" stroke="#3a414a" stroke-width=".05" fill="#3a414a"/><path d="M420 4057.38l-4.63-14.27h9.26z" stroke="#3a414a" fill="#3a414a"/><path d="M460 4100c0 22.1-17.9 40-40 40s-40-17.9-40-40 17.9-40 40-40 40 17.9 40 40z" stroke="#000" stroke-width="2" fill="#c3f7c8"/><g><use xlink:href="#u" transform="matrix(1,0,0,1,385,4065) translate(28.228741319444445 25.90277777777778)"/><use xlink:href="#ar" transform="matrix(1,0,0,1,385,4065) translate(32.021059027777774 58.16840277777778)"/></g><path d="M480 3981.5v32.5a6 6 0 0 0 6 6h48a6 6 0 0 1 6 6v16.6" stroke="#3a414a" fill="none"/><path d="M480 3981l.48-.02v.53h-.96v-.53z" stroke="#3a414a" stroke-width=".05" fill="#3a414a"/><path d="M540 4057.38l-4.63-14.27h9.26z" stroke="#3a414a" fill="#3a414a"/><path d="M580 4100c0 22.1-17.9 40-40 40s-40-17.9-40-40 17.9-40 40-40 40 17.9 40 40z" stroke="#000" stroke-width="2" fill="#cfe4ff"/><g><use xlink:href="#w" transform="matrix(1,0,0,1,505,4065) translate(28.14193576388889 25.90277777777778)"/><use xlink:href="#as" transform="matrix(1,0,0,1,505,4065) translate(29.037118055555553 58.16840277777778)"/></g><path d="M264.85 4206a6 6 0 0 1 6-6h166.7a6 6 0 0 1 6 6v98.7a6 6 0 0 1-6 6h-166.7a6 6 0 0 1-6-6z" stroke="#000" stroke-width="2" fill="#fff"/><g><use xlink:href="#at" transform="matrix(1,0,0,1,269.8500000000001,4205) translate(25.75434027777778 59.40277777777778)"/><use xlink:href="#au" transform="matrix(1,0,0,1,269.8500000000001,4205) translate(49.70182291666667 59.40277777777778)"/></g><path d="M394.2 4400c0 22.1-17.9 40-40 40s-40-17.9-40-40 17.9-40 40-40 40 17.9 40 40z" stroke="#000" stroke-width="2" fill="#fff"/><g><use xlink:href="#a" transform="matrix(1,0,0,1,319.20000000000005,4365) translate(30.48568576388889 25.90277777777778)"/><use xlink:href="#av" transform="matrix(1,0,0,1,319.20000000000005,4365) translate(21.37110243055556 58.16840277777778)"/></g><path d="M354.2 4441.5v32.5a6 6 0 0 1-6 6h-108a6 6 0 0 0-6 6v16.6" stroke="#3a414a" fill="none"/><path d="M354.2 4441l.48-.02v.53h-.95v-.53z" stroke="#3a414a" stroke-width=".05" fill="#3a414a"/><path d="M234.2 4517.38l-4.63-14.27h9.27z" stroke="#3a414a" fill="#3a414a"/><path d="M274.2 4560c0 22.1-17.9 40-40 40s-40-17.9-40-40 17.9-40 40-40 40 17.9 40 40z" stroke="#000" stroke-width="2" fill="#fff"/><g><use xlink:href="#e" transform="matrix(1,0,0,1,199.20000000000005,4525) translate(28.228741319444445 25.90277777777778)"/><use xlink:href="#an" transform="matrix(1,0,0,1,199.20000000000005,4525) translate(26.05317708333333 58.16840277777778)"/></g><path d="M354.2 4441.5v32.5a6 6 0 0 0 6 6h108a6 6 0 0 1 6 6v16.6" stroke="#3a414a" fill="none"/><path d="M354.2 4441l.48-.02v.53h-.95v-.53z" stroke="#3a414a" stroke-width=".05" fill="#3a414a"/><path d="M474.2 4517.38l-4.63-14.27h9.26z" stroke="#3a414a" fill="#3a414a"/><path d="M514.2 4560c0 22.1-17.9 40-40 40s-40-17.9-40-40 17.9-40 40-40 40 17.9 40 40z" stroke="#000" stroke-width="2" fill="#c3f7c8"/><g><use xlink:href="#f" transform="matrix(1,0,0,1,439.20000000000005,4525) translate(28.14193576388889 25.90277777777778)"/><use xlink:href="#aw" transform="matrix(1,0,0,1,439.20000000000005,4525) translate(24.35504340277778 58.16840277777778)"/></g><path d="M234.2 4601.5v32.5a6 6 0 0 1-6 6H166a6 6 0 0 0-6 6v16.6" stroke="#3a414a" fill="none"/><path d="M234.2 4601l.48-.02v.53h-.96v-.53z" stroke="#3a414a" stroke-width=".05" fill="#3a414a"/><path d="M160 4677.38l-4.63-14.27h9.26z" stroke="#3a414a" fill="#3a414a"/><path d="M200 4720c0 22.1-17.9 40-40 40s-40-17.9-40-40 17.9-40 40-40 40 17.9 40 40z" stroke="#000" stroke-width="2" fill="#fff"/><g><use xlink:href="#g" transform="matrix(1,0,0,1,125,4685) translate(27.827265625000003 25.90277777777778)"/><use xlink:href="#ao" transform="matrix(1,0,0,1,125,4685) translate(32.021059027777774 58.16840277777778)"/></g><path d="M474.2 4601.5v32.5a6 6 0 0 0 6 6H544a6 6 0 0 1 6 6v16.6" stroke="#3a414a" fill="none"/><path d="M474.2 4601l.48-.02v.53h-.95v-.53z" stroke="#3a414a" stroke-width=".05" fill="#3a414a"/><path d="M550 4677.38l-4.63-14.27h9.26z" stroke="#3a414a" fill="#3a414a"/><path d="M590 4720c0 22.1-17.9 40-40 40s-40-17.9-40-40 17.9-40 40-40 40 17.9 40 40z" stroke="#000" stroke-width="2" fill="#c3f7c8"/><g><use xlink:href="#ac" transform="matrix(1,0,0,1,515,4685) translate(28.717022569444445 25.90277777777778)"/><use xlink:href="#ax" transform="matrix(1,0,0,1,515,4685) translate(27.338984375000003 58.16840277777778)"/></g><path d="M474.2 4601.5v32.5a6 6 0 0 1-6 6H426a6 6 0 0 0-6 6v16.6" stroke="#3a414a" fill="none"/><path d="M474.2 4601l.48-.02v.53h-.95v-.53z" stroke="#3a414a" stroke-width=".05" fill="#3a414a"/><path d="M420 4677.38l-4.63-14.27h9.26z" stroke="#3a414a" fill="#3a414a"/><path d="M460 4720c0 22.1-17.9 40-40 40s-40-17.9-40-40 17.9-40 40-40 40 17.9 40 40z" stroke="#000" stroke-width="2" fill="#c3f7c8"/><g><use xlink:href="#P" transform="matrix(1,0,0,1,385,4685) translate(28.114809027777774 25.90277777777778)"/><use xlink:href="#ay" transform="matrix(1,0,0,1,385,4685) translate(24.35504340277778 58.16840277777778)"/></g><path d="M234.2 4601.5v32.5a6 6 0 0 0 6 6H284a6 6 0 0 1 6 6v16.6" stroke="#3a414a" fill="none"/><path d="M234.2 4601l.48-.02v.53h-.96v-.53z" stroke="#3a414a" stroke-width=".05" fill="#3a414a"/><path d="M290 4677.38l-4.63-14.27h9.26z" stroke="#3a414a" fill="#3a414a"/><path d="M330 4720c0 22.1-17.9 40-40 40s-40-17.9-40-40 17.9-40 40-40 40 17.9 40 40z" stroke="#000" stroke-width="2" fill="#fff"/><g><use xlink:href="#i" transform="matrix(1,0,0,1,255,4685) translate(28.25044270833333 25.90277777777778)"/><use xlink:href="#ap" transform="matrix(1,0,0,1,255,4685) translate(29.037118055555553 58.16840277777778)"/></g><path d="M394.2 4860c0 22.1-17.9 40-40 40s-40-17.9-40-40 17.9-40 40-40 40 17.9 40 40z" stroke="#000" stroke-width="2" fill="#c3f7c8"/><g><use xlink:href="#w" transform="matrix(1,0,0,1,319.20000000000005,4825) translate(28.14193576388889 25.90277777777778)"/><use xlink:href="#aq" transform="matrix(1,0,0,1,319.20000000000005,4825) translate(26.05317708333333 58.16840277777778)"/></g><path d="M354.2 4901.5v32.5a6 6 0 0 0 6 6H424a6 6 0 0 1 6 6v16.6" stroke="#3a414a" fill="none"/><path d="M354.2 4901l.48-.02v.53h-.95v-.53z" stroke="#3a414a" stroke-width=".05" fill="#3a414a"/><path d="M430 4977.38l-4.63-14.27h9.26z" stroke="#3a414a" fill="#3a414a"/><path d="M470 5020c0 22.1-17.9 40-40 40s-40-17.9-40-40 17.9-40 40-40 40 17.9 40 40z" stroke="#000" stroke-width="2" fill="#c3f7c8"/><g><use xlink:href="#y" transform="matrix(1,0,0,1,395,4985) translate(28.717022569444445 25.90277777777778)"/><use xlink:href="#as" transform="matrix(1,0,0,1,395,4985) translate(29.037118055555553 58.16840277777778)"/></g><path d="M354.2 4901.5v32.5a6 6 0 0 1-6 6H306a6 6 0 0 0-6 6v16.6" stroke="#3a414a" fill="none"/><path d="M354.2 4901l.48-.02v.53h-.95v-.53z" stroke="#3a414a" stroke-width=".05" fill="#3a414a"/><path d="M300 4977.38l-4.63-14.27h9.26z" stroke="#3a414a" fill="#3a414a"/><path d="M340 5020c0 22.1-17.9 40-40 40s-40-17.9-40-40 17.9-40 40-40 40 17.9 40 40z" stroke="#000" stroke-width="2" fill="#c3f7c8"/><g><use xlink:href="#C" transform="matrix(1,0,0,1,265,4985) translate(28.114809027777774 25.90277777777778)"/><use xlink:href="#ar" transform="matrix(1,0,0,1,265,4985) translate(32.021059027777774 58.16840277777778)"/></g><path d="M181.25 4369a6 6 0 0 1 6-6h60.95a6 6 0 0 1 6 6v62a6 6 0 0 1-6 6h-60.95a6 6 0 0 1-6-6z" stroke="#000" stroke-width="2" fill="#6f7681"/><g><use xlink:href="#az" transform="matrix(1,0,0,1,186.2499375336795,4367.997611583526) translate(24.403645833333336 23.55902777777778)"/><use xlink:href="#aA" transform="matrix(1,0,0,1,186.2499375336795,4367.997611583526) translate(10.541883680555557 55.82465277777778)"/></g><path d="M160 4826a6 6 0 0 1 6-6h82.25a6 6 0 0 1 6 6v68a6 6 0 0 1-6 6H166a6 6 0 0 1-6-6z" stroke="#000" stroke-width="2" fill="#6f7681"/><g><use xlink:href="#aB" transform="matrix(1,0,0,1,165,4825) translate(34.00390625 26.95095486111111)"/><use xlink:href="#aC" transform="matrix(1,0,0,1,165,4825) translate(-0.6857638888888786 59.21657986111111)"/></g><path d="M454.2 4860.48h-42.62v-.95h42.62zM615 4559.6l1 .24.94.4.87.52.78.66.66.77.53.86.4.94.23 1 .08.98v288.04l-.08 1-.24.98-.4.94-.52.87-.66.78-.77.66-.86.53-.94.4-1 .23-.98.08h-68v-.95H614l.88-.07.85-.2.8-.34.75-.45.66-.56.57-.65.45-.74.33-.8.2-.84.07-.88v-287.96l-.06-.88-.2-.85-.34-.8-.45-.75-.56-.66-.65-.57-.74-.45-.8-.33-.84-.2-.88-.07h-33.62v-.95h33.66zm-99.3.88v-.95h29.54v.95z" stroke="#3a414a" stroke-width=".05" fill="#3a414a"/><path d="M515.7 4560.48h-.53l.03-.47-.02-.48h.53z" fill="#3a414a"/><path stroke="#3a414a" stroke-width=".05" fill="#3a414a"/><path d="M411.08 4864.64l-14.26-4.64 14.26-4.64z" fill="#3a414a"/><path d="M411.56 4865.3l-16.28-5.3 16.28-5.3zm-13.2-5.3l12.25 3.98v-7.96z" stroke="#3a414a" stroke-width=".05" fill="#3a414a"/><g><use xlink:href="#aD" transform="matrix(1,0,0,1,454.20172764625727,4849.244791666667) translate(0 17.22222222222222)"/><use xlink:href="#aE" transform="matrix(1,0,0,1,454.20172764625727,4849.244791666667) translate(52.986111111111114 17.22222222222222)"/></g><g><use xlink:href="#aF" transform="matrix(1,0,0,1,545.2392361111106,4549.244791666667) translate(0 17.22222222222222)"/></g><defs><path d="M653-1490V0H466v-1314h-10L96-1047v-204l324-239h233" id="aG"/><use transform="matrix(0.010850694444444444,0,0,0.010850694444444444,0,0)" xlink:href="#aG" id="a"/><path d="M180 0v-1490h190v644h782v-644h190V0h-190v-678H370V0H180" id="aH"/><use transform="matrix(0.010850694444444444,0,0,0.010850694444444444,0,0)" xlink:href="#aH" id="b"/><path d="M226-283v-166h904v166H226zm0-434v-166h904v166H226" id="aI"/><use transform="matrix(0.010850694444444444,0,0,0.010850694444444444,0,0)" xlink:href="#aI" id="c"/><path d="M154 0v-137l495-537c165-179 249-281 249-418 0-156-121-253-280-253-170 0-278 110-278 278H158c0-264 200-443 465-443 266 0 455 183 455 416 0 161-73 288-336 568L416-179v12h687V0H154" id="aJ"/><use transform="matrix(0.010850694444444444,0,0,0.010850694444444444,0,0)" xlink:href="#aJ" id="d"/><use transform="matrix(0.010850694444444444,0,0,0.010850694444444444,0,0)" xlink:href="#aJ" id="e"/><path d="M635 20c-292 0-500-160-510-396h192c11 142 145 229 315 229 187 0 323-105 323-260 0-161-125-274-346-274H488v-165h121c174 0 294-100 294-254 0-148-104-245-266-245-152 0-291 85-297 230H157c8-234 222-395 484-395 278 0 448 188 448 400 0 168-95 291-247 336v12c190 31 301 169 301 357 0 244-216 425-508 425" id="aK"/><use transform="matrix(0.010850694444444444,0,0,0.010850694444444444,0,0)" xlink:href="#aK" id="f"/><path d="M120-303v-155l652-1032h231v1020h202v167h-202V0H821v-303H120zm702-167v-782h-12L323-482v12h499" id="aL"/><use transform="matrix(0.010850694444444444,0,0,0.010850694444444444,0,0)" xlink:href="#aL" id="g"/><use transform="matrix(0.010850694444444444,0,0,0.010850694444444444,0,0)" xlink:href="#aG" id="h"/><path d="M626 20c-262 0-458-168-468-396h184c12 133 134 229 284 229 180 0 311-137 311-326 0-192-136-335-323-335-92 0-196 33-255 78l-178-22 88-738h784v167H429l-51 435h8c61-51 160-87 263-87 273 0 474 211 474 499 0 286-210 496-497 496" id="aM"/><use transform="matrix(0.010850694444444444,0,0,0.010850694444444444,0,0)" xlink:href="#aM" id="i"/><path d="M180 0v-1490h224l606 953c40 63 108 177 176 312-27-437-7-821-13-1265h190V0h-226C860-448 622-778 356-1262c27 476 11 792 15 1262H180" id="aN"/><path d="M613 24c-304 0-509-231-509-576 0-350 205-580 509-580 305 0 511 230 511 580 0 345-206 576-511 576zm0-161c226 0 329-195 329-415 0-222-103-419-329-419-223 0-326 196-326 419 0 220 103 415 326 415" id="aO"/><path d="M338-670V0H158v-1118h173l1 207c72-158 192-221 342-221 226 0 378 139 378 422V0H872v-695c0-172-96-275-252-275-161 0-282 109-282 300" id="aP"/><path d="M628 24c-324 0-524-230-524-574 0-343 198-582 503-582 237 0 487 146 487 559v75H286c9 234 145 362 343 362 132 0 231-58 273-172l174 48C1024-91 857 24 628 24zM287-650h624c-17-190-120-322-304-322-192 0-309 151-320 322" id="aQ"/><g id="j"><use transform="matrix(0.010850694444444444,0,0,0.010850694444444444,0,0)" xlink:href="#aN"/><use transform="matrix(0.010850694444444444,0,0,0.010850694444444444,16.74262152777778,0)" xlink:href="#aO"/><use transform="matrix(0.010850694444444444,0,0,0.010850694444444444,30.06727430555556,0)" xlink:href="#aP"/><use transform="matrix(0.010850694444444444,0,0,0.010850694444444444,43.196614583333336,0)" xlink:href="#aQ"/></g><use transform="matrix(0.010850694444444444,0,0,0.010850694444444444,0,0)" xlink:href="#aH" id="k"/><use transform="matrix(0.010850694444444444,0,0,0.010850694444444444,0,0)" xlink:href="#aI" id="l"/><path d="M646 20c-332 0-524-278-524-764 0-483 194-766 524-766s524 283 524 766c0 485-191 764-524 764zm0-166c218 0 341-220 341-598 0-380-123-601-341-601s-341 222-341 601c0 378 123 598 341 598" id="aR"/><use transform="matrix(0.010850694444444444,0,0,0.010850694444444444,0,0)" xlink:href="#aR" id="m"/><path d="M158 0v-1118h180V0H158zm91-1301c-68 0-125-53-125-119s57-119 125-119c69 0 126 53 126 119s-57 119-126 119" id="aS"/><path d="M611 442c-248 0-391-105-460-228l146-94c47 65 117 165 314 165 178 0 307-82 307-266v-224h-17C863-141 792-18 576-18c-268 0-472-195-472-546 0-346 197-568 476-568 216 0 288 133 326 193h17v-179h175V29c0 289-215 413-487 413zm-5-620c203 0 314-146 314-390 0-237-108-403-314-403-213 0-319 180-319 403 0 230 109 390 319 390" id="aT"/><path d="M338-670V0H158v-1490h180v566c73-149 190-208 336-208 226 0 379 139 379 422V0H872v-695c0-172-96-275-252-275-161 0-282 109-282 300" id="aU"/><path d="M598-1118v154H368v674c0 100 37 144 132 144 23 0 62-6 92-12L629-6c-37 13-88 20-134 20-193 0-307-107-307-290v-688H20v-154h168v-266h180v266h230" id="aV"/><g id="n"><use transform="matrix(0.010850694444444444,0,0,0.010850694444444444,0,0)" xlink:href="#aH"/><use transform="matrix(0.010850694444444444,0,0,0.010850694444444444,16.514756944444443,0)" xlink:href="#aQ"/><use transform="matrix(0.010850694444444444,0,0,0.010850694444444444,29.470486111111104,0)" xlink:href="#aS"/><use transform="matrix(0.010850694444444444,0,0,0.010850694444444444,34.85243055555555,0)" xlink:href="#aT"/><use transform="matrix(0.010850694444444444,0,0,0.010850694444444444,48.48090277777778,0)" xlink:href="#aU"/><use transform="matrix(0.010850694444444444,0,0,0.010850694444444444,61.62109375,0)" xlink:href="#aV"/></g><path d="M180 0v-1490h528c311 0 458 177 458 395 0 191-114 278-244 313v14c139 9 302 137 302 371 0 225-148 397-499 397H180zm190-168h350c232 0 321-102 321-231 0-149-120-277-311-277H370v508zm0-668h328c160 0 286-101 286-255 0-129-87-231-280-231H370v486" id="aW"/><path d="M471 26C259 26 90-98 90-318c0-256 228-303 435-329 202-27 287-16 287-108 0-139-79-219-234-219-161 0-248 86-283 164l-173-57c86-203 278-265 451-265 150 0 419 46 419 395V0H815v-152h-12C765-73 660 26 471 26zm31-159c199 0 310-134 310-271v-155c-30 35-226 55-295 64-131 17-246 59-246 186 0 116 97 176 231 176" id="aX"/><path d="M338-1490V0H158v-1490h180" id="aY"/><path d="M613 24c-304 0-509-231-509-576 0-350 205-580 509-580 216 0 392 114 453 309l-173 49c-33-115-133-197-280-197-223 0-326 196-326 419 0 220 103 415 326 415 150 0 252-85 285-206l172 49C1010-95 832 24 613 24" id="aZ"/><path d="M577 24c-279 0-473-224-473-580 0-354 195-576 474-576 218 0 287 134 324 193h14v-551h180V0H922v-173h-20C865-111 790 24 577 24zm27-161c203 0 314-172 314-421 0-247-108-413-314-413-212 0-317 181-317 413 0 235 108 421 317 421" id="ba"/><path d="M383-449c-3-277 82-343 222-425 88-53 156-134 156-250 0-139-108-227-243-227-118 0-235 70-246 236H82c10-251 200-395 436-395 259 0 427 165 427 393 0 161-74 273-203 352-132 80-180 132-178 316H383zm93 462c-75 0-135-60-135-134 0-75 60-135 135-135 74 0 134 60 134 135 0 74-60 134-134 134" id="bb"/><g id="o"><use transform="matrix(0.010850694444444444,0,0,0.010850694444444444,0,0)" xlink:href="#aW"/><use transform="matrix(0.010850694444444444,0,0,0.010850694444444444,14.539930555555555,0)" xlink:href="#aX"/><use transform="matrix(0.010850694444444444,0,0,0.010850694444444444,27.018229166666664,0)" xlink:href="#aY"/><use transform="matrix(0.010850694444444444,0,0,0.010850694444444444,32.40017361111111,0)" xlink:href="#aX"/><use transform="matrix(0.010850694444444444,0,0,0.010850694444444444,44.87847222222221,0)" xlink:href="#aP"/><use transform="matrix(0.010850694444444444,0,0,0.010850694444444444,58.007812499999986,0)" xlink:href="#aZ"/><use transform="matrix(0.010850694444444444,0,0,0.010850694444444444,70.703125,0)" xlink:href="#aQ"/><use transform="matrix(0.010850694444444444,0,0,0.010850694444444444,83.65885416666667,0)" xlink:href="#ba"/><use transform="matrix(0.010850694444444444,0,0,0.010850694444444444,97.265625,0)" xlink:href="#bb"/></g><path d="M218-607c0-325 108-727 258-974h175c-155 315-250 682-250 974 0 265 78 531 250 886H476C306-10 218-315 218-607" id="bc"/><path d="M128 359l88-567h206L266 359H128" id="bd"/><g id="p"><use transform="matrix(0.010850694444444444,0,0,0.010850694444444444,0,0)" xlink:href="#bc"/><use transform="matrix(0.010850694444444444,0,0,0.010850694444444444,8.10546875,0)" xlink:href="#aW"/><use transform="matrix(0.010850694444444444,0,0,0.010850694444444444,22.645399305555554,0)" xlink:href="#aO"/><use transform="matrix(0.010850694444444444,0,0,0.010850694444444444,35.970052083333336,0)" xlink:href="#aO"/><use transform="matrix(0.010850694444444444,0,0,0.010850694444444444,49.29470486111111,0)" xlink:href="#aY"/><use transform="matrix(0.010850694444444444,0,0,0.010850694444444444,54.67664930555556,0)" xlink:href="#bd"/></g><path d="M96 279C273-86 346-350 346-607c0-292-95-659-250-974h175c150 246 258 650 258 974 0 297-91 602-258 886H96" id="be"/><g id="q"><use transform="matrix(0.010850694444444444,0,0,0.010850694444444444,0,0)" xlink:href="#aH"/><use transform="matrix(0.010850694444444444,0,0,0.010850694444444444,16.514756944444443,0)" xlink:href="#aQ"/><use transform="matrix(0.010850694444444444,0,0,0.010850694444444444,29.470486111111104,0)" xlink:href="#aS"/><use transform="matrix(0.010850694444444444,0,0,0.010850694444444444,34.85243055555555,0)" xlink:href="#aT"/><use transform="matrix(0.010850694444444444,0,0,0.010850694444444444,48.48090277777778,0)" xlink:href="#aU"/><use transform="matrix(0.010850694444444444,0,0,0.010850694444444444,61.62109375,0)" xlink:href="#aV"/><use transform="matrix(0.010850694444444444,0,0,0.010850694444444444,68.89105902777777,0)" xlink:href="#be"/></g><use transform="matrix(0.010850694444444444,0,0,0.010850694444444444,0,0)" xlink:href="#aG" id="r"/><path d="M226 279v-1860h398v153H398V126h226v153H226" id="bf"/><path d="M98-1322v-168h1126v168H757V0H567v-1322H98" id="bg"/><g id="s"><use transform="matrix(0.010850694444444444,0,0,0.010850694444444444,0,0)" xlink:href="#bf"/><use transform="matrix(0.010850694444444444,0,0,0.010850694444444444,8.10546875,0)" xlink:href="#bg"/><use transform="matrix(0.010850694444444444,0,0,0.010850694444444444,21.70138888888889,0)" xlink:href="#bd"/></g><path d="M123 279V126h226v-1554H123v-153h398V279H123" id="bh"/><g id="t"><use transform="matrix(0.010850694444444444,0,0,0.010850694444444444,0,0)" xlink:href="#aJ"/><use transform="matrix(0.010850694444444444,0,0,0.010850694444444444,13.55251736111111,0)" xlink:href="#bh"/></g><use transform="matrix(0.010850694444444444,0,0,0.010850694444444444,0,0)" xlink:href="#aJ" id="u"/><g id="v"><use transform="matrix(0.010850694444444444,0,0,0.010850694444444444,0,0)" xlink:href="#aG"/><use transform="matrix(0.010850694444444444,0,0,0.010850694444444444,9.038628472222221,0)" xlink:href="#bh"/></g><use transform="matrix(0.010850694444444444,0,0,0.010850694444444444,0,0)" xlink:href="#aK" id="w"/><g id="x"><use transform="matrix(0.010850694444444444,0,0,0.010850694444444444,0,0)" xlink:href="#aR"/><use transform="matrix(0.010850694444444444,0,0,0.010850694444444444,14.019097222222221,0)" xlink:href="#bh"/></g><path d="M200 0l662-1311v-12H98v-167h963v177L400 0H200" id="bi"/><use transform="matrix(0.010850694444444444,0,0,0.010850694444444444,0,0)" xlink:href="#bi" id="y"/><g id="z"><use transform="matrix(0.010850694444444444,0,0,0.010850694444444444,0,0)" xlink:href="#aN"/><use transform="matrix(0.010850694444444444,0,0,0.010850694444444444,16.74262152777778,0)" xlink:href="#aO"/><use transform="matrix(0.010850694444444444,0,0,0.010850694444444444,30.06727430555556,0)" xlink:href="#aP"/><use transform="matrix(0.010850694444444444,0,0,0.010850694444444444,43.196614583333336,0)" xlink:href="#aQ"/></g><g id="A"><use transform="matrix(0.010850694444444444,0,0,0.010850694444444444,0,0)" xlink:href="#bf"/><use transform="matrix(0.010850694444444444,0,0,0.010850694444444444,8.10546875,0)" xlink:href="#bg"/><use transform="matrix(0.010850694444444444,0,0,0.010850694444444444,21.70138888888889,0)" xlink:href="#bd"/></g><g id="B"><use transform="matrix(0.010850694444444444,0,0,0.010850694444444444,0,0)" xlink:href="#aR"/><use transform="matrix(0.010850694444444444,0,0,0.010850694444444444,14.019097222222221,0)" xlink:href="#bh"/></g><path d="M646 20c-249 0-524-159-524-708 0-524 209-822 547-822 250 0 431 161 467 395H950c-33-129-126-227-281-227-229 0-367 208-367 566h12c80-124 212-198 367-198 255 0 467 205 467 493 0 278-198 501-502 501zm0-167c179 0 318-148 318-334 0-182-133-328-313-328-181 0-322 156-322 330 0 176 134 332 317 332" id="bj"/><use transform="matrix(0.010850694444444444,0,0,0.010850694444444444,0,0)" xlink:href="#bj" id="C"/><path d="M180 0v-1490h190v1322h690V0H180" id="bk"/><path d="M783 20c-382 0-661-292-661-764 0-473 279-766 661-766 302 0 548 182 601 489h-190c-42-204-217-313-411-313-268 0-476 208-476 590 0 381 209 588 476 588 195 0 369-110 411-313h190c-52 303-296 489-601 489" id="bl"/><path d="M52 0l541-1490h220L1361 0h-200l-149-416H398L254 0H52zm404-582h497c-103-290-145-390-251-756-108 377-145 460-246 756" id="bm"/><g id="D"><use transform="matrix(0.010850694444444444,0,0,0.010850694444444444,0,0)" xlink:href="#bk"/><use transform="matrix(0.010850694444444444,0,0,0.010850694444444444,11.93576388888889,0)" xlink:href="#bl"/><use transform="matrix(0.010850694444444444,0,0,0.010850694444444444,27.734375,0)" xlink:href="#bm"/></g><path d="M678-1118v154H420V0H240v-964H20v-154h220v-149c0-194 155-293 318-293 85 0 141 18 168 30l-50 154c-19-6-47-17-97-17-111 0-159 58-159 166v109h258" id="bn"/><g id="E"><use transform="matrix(0.010850694444444444,0,0,0.010850694444444444,0,0)" xlink:href="#aO"/><use transform="matrix(0.010850694444444444,0,0,0.010850694444444444,13.324652777777777,0)" xlink:href="#bn"/></g><g id="F"><use transform="matrix(0.010850694444444444,0,0,0.010850694444444444,0,0)" xlink:href="#aW"/><use transform="matrix(0.010850694444444444,0,0,0.010850694444444444,13.28125,0)" xlink:href="#bg"/></g><path d="M180 0v-1490h510c348 0 508 194 508 460 0 198-88 351-276 417L1256 0h-220L726-579c-117 2-238 0-356 1V0H180zm190-747h312c235 0 327-108 327-283 0-177-92-293-329-293H370v576" id="bo"/><g id="G"><use transform="matrix(0.010850694444444444,0,0,0.010850694444444444,0,0)" xlink:href="#bo"/><use transform="matrix(0.010850694444444444,0,0,0.010850694444444444,13.975694444444445,0)" xlink:href="#aQ"/><use transform="matrix(0.010850694444444444,0,0,0.010850694444444444,26.931423611111104,0)" xlink:href="#aV"/></g><g id="H"><use transform="matrix(0.010850694444444444,0,0,0.010850694444444444,0,0)" xlink:href="#aN"/><use transform="matrix(0.010850694444444444,0,0,0.010850694444444444,16.74262152777778,0)" xlink:href="#aO"/><use transform="matrix(0.010850694444444444,0,0,0.010850694444444444,30.06727430555556,0)" xlink:href="#aP"/><use transform="matrix(0.010850694444444444,0,0,0.010850694444444444,43.196614583333336,0)" xlink:href="#aQ"/></g><g id="I"><use transform="matrix(0.010850694444444444,0,0,0.010850694444444444,0,0)" xlink:href="#aL"/><use transform="matrix(0.010850694444444444,0,0,0.010850694444444444,13.606770833333332,0)" xlink:href="#bd"/></g><path d="M158 418v-1536h174v179h20c37-59 106-193 324-193 279 0 474 222 474 576 0 356-194 580-473 580-213 0-288-135-325-197h-14v591H158zm492-555c209 0 317-186 317-421 0-232-105-413-317-413-206 0-314 166-314 413 0 249 111 421 314 421" id="bp"/><use transform="matrix(0.010850694444444444,0,0,0.010850694444444444,0,0)" xlink:href="#bp" id="J"/><g id="K"><use transform="matrix(0.010850694444444444,0,0,0.010850694444444444,0,0)" xlink:href="#bo"/><use transform="matrix(0.010850694444444444,0,0,0.010850694444444444,13.975694444444445,0)" xlink:href="#aQ"/><use transform="matrix(0.010850694444444444,0,0,0.010850694444444444,26.931423611111104,0)" xlink:href="#aV"/></g><use transform="matrix(0.010850694444444444,0,0,0.010850694444444444,0,0)" xlink:href="#aL" id="L"/><g id="M"><use transform="matrix(0.010850694444444444,0,0,0.010850694444444444,0,0)" xlink:href="#aM"/><use transform="matrix(0.010850694444444444,0,0,0.010850694444444444,13.509114583333332,0)" xlink:href="#bd"/></g><path d="M1096 418H916v-591h-14C865-111 790 24 577 24c-279 0-473-224-473-580 0-354 195-576 474-576 218 0 287 134 324 193h20v-179h174V418zM604-137c203 0 314-172 314-421 0-247-108-413-314-413-212 0-317 181-317 413 0 235 108 421 317 421" id="bq"/><use transform="matrix(0.010850694444444444,0,0,0.010850694444444444,0,0)" xlink:href="#bq" id="N"/><use transform="matrix(0.010850694444444444,0,0,0.010850694444444444,0,0)" xlink:href="#aM" id="O"/><use transform="matrix(0.010850694444444444,0,0,0.010850694444444444,0,0)" xlink:href="#bj" id="P"/><g id="Q"><use transform="matrix(0.010850694444444444,0,0,0.010850694444444444,0,0)" xlink:href="#aN"/><use transform="matrix(0.010850694444444444,0,0,0.010850694444444444,16.74262152777778,0)" xlink:href="#aO"/><use transform="matrix(0.010850694444444444,0,0,0.010850694444444444,30.06727430555556,0)" xlink:href="#aP"/><use transform="matrix(0.010850694444444444,0,0,0.010850694444444444,43.196614583333336,0)" xlink:href="#aQ"/></g><path d="M537 14c-226 0-379-139-379-422v-710h180v695c0 172 97 275 253 275 160 0 281-109 281-300v-670h181V0H879v-209C806-46 684 14 537 14" id="br"/><g id="R"><use transform="matrix(0.010850694444444444,0,0,0.010850694444444444,0,0)" xlink:href="#bl"/><use transform="matrix(0.010850694444444444,0,0,0.010850694444444444,16.23263888888889,0)" xlink:href="#aO"/><use transform="matrix(0.010850694444444444,0,0,0.010850694444444444,29.557291666666664,0)" xlink:href="#br"/><use transform="matrix(0.010850694444444444,0,0,0.010850694444444444,42.697482638888886,0)" xlink:href="#aP"/><use transform="matrix(0.010850694444444444,0,0,0.010850694444444444,55.826822916666664,0)" xlink:href="#aV"/></g><path d="M538 24C308 24 148-78 108-271l171-41c32 123 123 178 257 178 156 0 256-77 256-169 0-77-54-128-164-154l-186-44c-203-48-300-148-300-305 0-192 176-326 414-326 230 0 351 112 402 269l-163 42c-31-80-94-158-238-158-133 0-233 69-233 162 0 83 57 129 188 160l169 40c203 48 298 149 298 302 0 196-179 339-441 339" id="bs"/><g id="S"><use transform="matrix(0.010850694444444444,0,0,0.010850694444444444,0,0)" xlink:href="#aN"/><use transform="matrix(0.010850694444444444,0,0,0.010850694444444444,16.74262152777778,0)" xlink:href="#aO"/><use transform="matrix(0.010850694444444444,0,0,0.010850694444444444,30.06727430555556,0)" xlink:href="#ba"/><use transform="matrix(0.010850694444444444,0,0,0.010850694444444444,43.674045138888886,0)" xlink:href="#aQ"/><use transform="matrix(0.010850694444444444,0,0,0.010850694444444444,56.62977430555555,0)" xlink:href="#bs"/></g><use transform="matrix(0.010850694444444444,0,0,0.010850694444444444,0,0)" xlink:href="#bl" id="T"/><use transform="matrix(0.010850694444444444,0,0,0.010850694444444444,0,0)" xlink:href="#bi" id="U"/><use transform="matrix(0.010850694444444444,0,0,0.010850694444444444,0,0)" xlink:href="#aK" id="V"/><use transform="matrix(0.010850694444444444,0,0,0.010850694444444444,0,0)" xlink:href="#aK" id="W"/><use transform="matrix(0.010850694444444444,0,0,0.010850694444444444,0,0)" xlink:href="#bl" id="X"/><use transform="matrix(0.010850694444444444,0,0,0.010850694444444444,0,0)" xlink:href="#aI" id="Y"/><use transform="matrix(0.010850694444444444,0,0,0.010850694444444444,0,0)" xlink:href="#aK" id="Z"/><use transform="matrix(0.010850694444444444,0,0,0.010850694444444444,0,0)" xlink:href="#bl" id="aa"/><use transform="matrix(0.010850694444444444,0,0,0.010850694444444444,0,0)" xlink:href="#aG" id="ab"/><use transform="matrix(0.010850694444444444,0,0,0.010850694444444444,0,0)" xlink:href="#bi" id="ac"/><path d="M481 0L54-1118h197c107 314 236 620 325 951 87-331 217-637 324-951h197L670 0H481" id="bt"/><g id="ad"><use transform="matrix(0.010850694444444444,0,0,0.010850694444444444,0,0)" xlink:href="#bk"/><use transform="matrix(0.010850694444444444,0,0,0.010850694444444444,12.565104166666666,0)" xlink:href="#aQ"/><use transform="matrix(0.010850694444444444,0,0,0.010850694444444444,25.73784722222222,0)" xlink:href="#aX"/><use transform="matrix(0.010850694444444444,0,0,0.010850694444444444,37.890625,0)" xlink:href="#bt"/><use transform="matrix(0.010850694444444444,0,0,0.010850694444444444,49.94574652777778,0)" xlink:href="#aQ"/><use transform="matrix(0.010850694444444444,0,0,0.010850694444444444,62.90147569444444,0)" xlink:href="#bs"/></g><use transform="matrix(0.010850694444444444,0,0,0.010850694444444444,0,0)" xlink:href="#bl" id="ae"/><use transform="matrix(0.010850694444444444,0,0,0.010850694444444444,0,0)" xlink:href="#aJ" id="af"/><use transform="matrix(0.010850694444444444,0,0,0.010850694444444444,0,0)" xlink:href="#aK" id="ag"/><use transform="matrix(0.010850694444444444,0,0,0.010850694444444444,0,0)" xlink:href="#bl" id="ah"/><use transform="matrix(0.010850694444444444,0,0,0.010850694444444444,0,0)" xlink:href="#aI" id="ai"/><use transform="matrix(0.010850694444444444,0,0,0.010850694444444444,0,0)" xlink:href="#aJ" id="aj"/><use transform="matrix(0.010850694444444444,0,0,0.010850694444444444,0,0)" xlink:href="#aM" id="ak"/><path d="M657 26c-323 0-524-166-541-416h195c15 169 171 246 346 246 202 0 356-106 356-265 5-203-294-238-475-293-239-73-380-191-380-389 0-252 224-419 512-419 294 0 499 171 508 396H992c-17-145-151-228-328-228-193 0-321 102-321 242 0 156 175 211 284 241l149 41c160 44 422 134 422 412 0 244-197 432-541 432" id="bu"/><path d="M158 0v-1118h175l1 205c55-151 181-225 313-225 147 0 245 90 285 228 53-141 190-228 352-228 194 0 352 125 352 384V0h-181v-749c0-161-105-225-225-225-151 0-243 103-243 244V0H807v-767c0-124-93-207-219-207-131 0-250 92-250 270V0H158" id="bv"/><g id="al"><use transform="matrix(0.010850694444444444,0,0,0.010850694444444444,0,0)" xlink:href="#bu"/><use transform="matrix(0.010850694444444444,0,0,0.010850694444444444,14.2578125,0)" xlink:href="#aX"/><use transform="matrix(0.010850694444444444,0,0,0.010850694444444444,26.73611111111111,0)" xlink:href="#bv"/><use transform="matrix(0.010850694444444444,0,0,0.010850694444444444,46.20225694444444,0)" xlink:href="#aQ"/></g><path d="M158 0v-1118h174v172h12c41-113 157-188 290-188 26 0 70 2 91 3v181c-11-2-60-10-108-10-161 0-279 109-279 260V0H158" id="bw"/><g id="am"><use transform="matrix(0.010850694444444444,0,0,0.010850694444444444,0,0)" xlink:href="#bg"/><use transform="matrix(0.010850694444444444,0,0,0.010850694444444444,13.0859375,0)" xlink:href="#bw"/><use transform="matrix(0.010850694444444444,0,0,0.010850694444444444,21.082899305555557,0)" xlink:href="#aQ"/><use transform="matrix(0.010850694444444444,0,0,0.010850694444444444,34.03862847222222,0)" xlink:href="#aQ"/></g><path d="M370-1490V0H180v-1490h190" id="bx"/><g id="an"><use transform="matrix(0.010850694444444444,0,0,0.010850694444444444,0,0)" xlink:href="#bx"/><use transform="matrix(0.010850694444444444,0,0,0.010850694444444444,5.967881944444445,0)" xlink:href="#bx"/><use transform="matrix(0.010850694444444444,0,0,0.010850694444444444,11.93576388888889,0)" xlink:href="#bx"/></g><use transform="matrix(0.010850694444444444,0,0,0.010850694444444444,0,0)" xlink:href="#bx" id="ao"/><g id="ap"><use transform="matrix(0.010850694444444444,0,0,0.010850694444444444,0,0)" xlink:href="#bx"/><use transform="matrix(0.010850694444444444,0,0,0.010850694444444444,5.967881944444445,0)" xlink:href="#bx"/></g><g id="aq"><use transform="matrix(0.010850694444444444,0,0,0.010850694444444444,0,0)" xlink:href="#bx"/><use transform="matrix(0.010850694444444444,0,0,0.010850694444444444,5.967881944444445,0)" xlink:href="#bx"/><use transform="matrix(0.010850694444444444,0,0,0.010850694444444444,11.93576388888889,0)" xlink:href="#bx"/></g><use transform="matrix(0.010850694444444444,0,0,0.010850694444444444,0,0)" xlink:href="#bx" id="ar"/><g id="as"><use transform="matrix(0.010850694444444444,0,0,0.010850694444444444,0,0)" xlink:href="#bx"/><use transform="matrix(0.010850694444444444,0,0,0.010850694444444444,5.967881944444445,0)" xlink:href="#bx"/></g><g id="at"><use transform="matrix(0.010850694444444444,0,0,0.010850694444444444,0,0)" xlink:href="#bx"/><use transform="matrix(0.010850694444444444,0,0,0.010850694444444444,5.967881944444445,0)" xlink:href="#bs"/></g><path d="M677 24c-213 0-288-135-325-197h-20V0H158v-1490h180v551h14c37-59 106-193 324-193 279 0 474 222 474 576 0 356-194 580-473 580zm-27-161c209 0 317-186 317-421 0-232-105-413-317-413-206 0-314 166-314 413 0 249 111 421 314 421" id="by"/><g id="au"><use transform="matrix(0.010850694444444444,0,0,0.010850694444444444,0,0)" xlink:href="#bu"/><use transform="matrix(0.010850694444444444,0,0,0.010850694444444444,14.2578125,0)" xlink:href="#br"/><use transform="matrix(0.010850694444444444,0,0,0.010850694444444444,27.39800347222222,0)" xlink:href="#by"/><use transform="matrix(0.010850694444444444,0,0,0.010850694444444444,41.00477430555556,0)" xlink:href="#aV"/><use transform="matrix(0.010850694444444444,0,0,0.010850694444444444,48.27473958333333,0)" xlink:href="#bw"/><use transform="matrix(0.010850694444444444,0,0,0.010850694444444444,56.271701388888886,0)" xlink:href="#aQ"/><use transform="matrix(0.010850694444444444,0,0,0.010850694444444444,69.22743055555556,0)" xlink:href="#aQ"/><use transform="matrix(0.010850694444444444,0,0,0.010850694444444444,82.18315972222223,0)" xlink:href="#bb"/></g><path d="M600 0L52-1490h200c166 485 304 806 458 1336 156-533 285-846 449-1336h202L819 0H600" id="bz"/><g id="av"><use transform="matrix(0.010850694444444444,0,0,0.010850694444444444,0,0)" xlink:href="#bz"/><use transform="matrix(0.010850694444444444,0,0,0.010850694444444444,15.33203125,0)" xlink:href="#bx"/><use transform="matrix(0.010850694444444444,0,0,0.010850694444444444,21.299913194444443,0)" xlink:href="#bx"/></g><g id="aw"><use transform="matrix(0.010850694444444444,0,0,0.010850694444444444,0,0)" xlink:href="#bz"/><use transform="matrix(0.010850694444444444,0,0,0.010850694444444444,15.33203125,0)" xlink:href="#bx"/></g><use transform="matrix(0.010850694444444444,0,0,0.010850694444444444,0,0)" xlink:href="#bz" id="ax"/><g id="ay"><use transform="matrix(0.010850694444444444,0,0,0.010850694444444444,0,0)" xlink:href="#bx"/><use transform="matrix(0.010850694444444444,0,0,0.010850694444444444,5.967881944444445,0)" xlink:href="#bz"/></g><path fill="#fff" d="M180 0v-1490h510c348 0 508 209 508 474 0 266-160 477-507 477H370V0H180zm190-706h312c236 0 327-133 327-310 0-176-91-307-329-307H370v617" id="bA"/><use transform="matrix(0.010850694444444444,0,0,0.010850694444444444,0,0)" xlink:href="#bA" id="az"/><path fill="#fff" d="M158 0v-1118h174v172h12c41-113 157-188 290-188 26 0 70 2 91 3v181c-11-2-60-10-108-10-161 0-279 109-279 260V0H158" id="bB"/><path fill="#fff" d="M613 24c-304 0-509-231-509-576 0-350 205-580 509-580 305 0 511 230 511 580 0 345-206 576-511 576zm0-161c226 0 329-195 329-415 0-222-103-419-329-419-223 0-326 196-326 419 0 220 103 415 326 415" id="bC"/><path fill="#fff" d="M598-1118v154H368v674c0 100 37 144 132 144 23 0 62-6 92-12L629-6c-37 13-88 20-134 20-193 0-307-107-307-290v-688H20v-154h168v-266h180v266h230" id="bD"/><g id="aA"><use transform="matrix(0.010850694444444444,0,0,0.010850694444444444,0,0)" xlink:href="#bB"/><use transform="matrix(0.010850694444444444,0,0,0.010850694444444444,7.996961805555555,0)" xlink:href="#bC"/><use transform="matrix(0.010850694444444444,0,0,0.010850694444444444,21.321614583333332,0)" xlink:href="#bC"/><use transform="matrix(0.010850694444444444,0,0,0.010850694444444444,34.64626736111111,0)" xlink:href="#bD"/></g><path fill="#fff" d="M784 20c-382 0-662-292-662-764 0-473 280-766 662-766s660 293 660 766c0 282-99 499-260 629l192 255h-198L1049-33C969 2 880 20 784 20zm-62-486h198l156 205c112-98 183-261 183-483 0-383-209-590-475-590-268 0-477 208-477 590 0 380 209 588 477 588 54 0 106-9 154-25" id="bE"/><use transform="matrix(0.010850694444444444,0,0,0.010850694444444444,0,0)" xlink:href="#bE" id="aB"/><path fill="#fff" d="M538 24C308 24 148-78 108-271l171-41c32 123 123 178 257 178 156 0 256-77 256-169 0-77-54-128-164-154l-186-44c-203-48-300-148-300-305 0-192 176-326 414-326 230 0 351 112 402 269l-163 42c-31-80-94-158-238-158-133 0-233 69-233 162 0 83 57 129 188 160l169 40c203 48 298 149 298 302 0 196-179 339-441 339" id="bF"/><path fill="#fff" d="M537 14c-226 0-379-139-379-422v-710h180v695c0 172 97 275 253 275 160 0 281-109 281-300v-670h181V0H879v-209C806-46 684 14 537 14" id="bG"/><path fill="#fff" d="M677 24c-213 0-288-135-325-197h-20V0H158v-1490h180v551h14c37-59 106-193 324-193 279 0 474 222 474 576 0 356-194 580-473 580zm-27-161c209 0 317-186 317-421 0-232-105-413-317-413-206 0-314 166-314 413 0 249 111 421 314 421" id="bH"/><path fill="#fff" d="M180 0v-1490h510c348 0 508 194 508 460 0 198-88 351-276 417L1256 0h-220L726-579c-117 2-238 0-356 1V0H180zm190-747h312c235 0 327-108 327-283 0-177-92-293-329-293H370v576" id="bI"/><g id="aC"><use transform="matrix(0.010850694444444444,0,0,0.010850694444444444,0,0)" xlink:href="#bF"/><use transform="matrix(0.010850694444444444,0,0,0.010850694444444444,11.729600694444445,0)" xlink:href="#bG"/><use transform="matrix(0.010850694444444444,0,0,0.010850694444444444,24.869791666666664,0)" xlink:href="#bH"/><use transform="matrix(0.010850694444444444,0,0,0.010850694444444444,38.4765625,0)" xlink:href="#bI"/><use transform="matrix(0.010850694444444444,0,0,0.010850694444444444,52.45225694444444,0)" xlink:href="#bC"/><use transform="matrix(0.010850694444444444,0,0,0.010850694444444444,65.77690972222221,0)" xlink:href="#bC"/><use transform="matrix(0.010850694444444444,0,0,0.010850694444444444,79.10156249999999,0)" xlink:href="#bD"/></g><path fill="#333" d="M681 22C323 22 94-145 85-462h297c10 151 131 226 296 226 163 0 271-77 271-190 0-102-95-149-257-189l-164-41c-252-61-403-188-403-405 0-269 236-449 560-449 330 0 546 183 551 445H941c-11-119-106-188-259-188-156 0-244 72-244 172-3 156 226 185 373 221 250 61 445 186 445 436 0 271-213 446-575 446" id="bJ"/><path fill="#333" d="M440 22C227 22 68-92 68-313c0-250 202-322 422-343 195-21 271-24 271-105 0-95-63-149-175-149-116 0-187 57-211 129l-275-46c57-194 237-305 487-305 240 0 474 108 474 379V0H777v-155h-10C713-51 605 22 440 22zm85-211c140 0 238-93 238-211v-121c-37 26-156 42-222 51-111 16-185 59-185 149 0 87 70 132 169 132" id="bK"/><path fill="#333" d="M128 0v-1118h278l12 217c60-163 185-234 319-234 143 0 236 81 288 251 63-172 205-251 359-251 205 0 357 138 357 381V0h-301v-697c0-126-76-187-177-187-114 0-184 79-184 196V0H789v-705c0-109-72-179-174-179-106 0-187 74-187 208V0H128" id="bL"/><path fill="#333" d="M633 22C291 22 81-200 81-553c0-345 210-579 537-579 292 0 525 185 525 567v84H378c7 183 109 277 260 277 105 0 184-46 216-132l272 51C1071-99 893 22 633 22zM380-669h474c-15-146-94-237-233-237-143 0-229 99-241 237" id="bM"/><g id="aD"><use transform="matrix(0.008680555555555556,0,0,0.008680555555555556,0,0)" xlink:href="#bJ"/><use transform="matrix(0.008680555555555556,0,0,0.008680555555555556,11.640625,0)" xlink:href="#bK"/><use transform="matrix(0.008680555555555556,0,0,0.008680555555555556,21.961805555555557,0)" xlink:href="#bL"/><use transform="matrix(0.008680555555555556,0,0,0.008680555555555556,38.18576388888889,0)" xlink:href="#bM"/></g><path fill="#333" d="M75-1237v-253h1217v253H837V0H531v-1237H75" id="bN"/><path fill="#333" d="M128 0v-1118h290v195h12c54-169 184-238 367-200v268c-27-8-86-15-130-15-138 0-239 95-239 234V0H128" id="bO"/><g id="aE"><use transform="matrix(0.008680555555555556,0,0,0.008680555555555556,0,0)" xlink:href="#bN"/><use transform="matrix(0.008680555555555556,0,0,0.008680555555555556,10.859375,0)" xlink:href="#bO"/><use transform="matrix(0.008680555555555556,0,0,0.008680555555555556,17.664930555555557,0)" xlink:href="#bM"/><use transform="matrix(0.008680555555555556,0,0,0.008680555555555556,28.255208333333336,0)" xlink:href="#bM"/></g><path fill="#333" d="M628 22C291 22 81-210 81-554c0-346 210-578 547-578 336 0 547 232 547 578 0 344-211 576-547 576zm0-236c160 0 242-146 242-341 0-197-82-341-242-341S387-753 387-555c0 195 81 341 241 341" id="bP"/><path fill="#333" d="M683-1118v229H474v562c0 71 29 104 102 104 23 0 73-7 95-13l43 225C647 9 580 16 520 16 296 16 174-96 174-301v-588H20v-229h154v-266h300v266h209" id="bQ"/><g id="aF"><use transform="matrix(0.008680555555555556,0,0,0.008680555555555556,0,0)" xlink:href="#bO"/><use transform="matrix(0.008680555555555556,0,0,0.008680555555555556,6.805555555555556,0)" xlink:href="#bP"/><use transform="matrix(0.008680555555555556,0,0,0.008680555555555556,17.708333333333336,0)" xlink:href="#bP"/><use transform="matrix(0.008680555555555556,0,0,0.008680555555555556,28.61111111111111,0)" xlink:href="#bQ"/></g></defs></g></svg>