<svg xmlns="http://www.w3.org/2000/svg" xmlns:xlink="http://www.w3.org/1999/xlink" xmlns:lucid="lucid" width="561" height="482.33"><g transform="translate(-857.4999999999998 -498.83333333333337)" lucid:page-tab-id="0_0"><path d="M978 499.33h80v40h-80zM1058 499.33h80v40h-80zM1138 499.33h80v40h-80zM1218 499.33h80v40h-80zM978 539.33h80v40h-80zM1058 539.33h80v40h-80zM1138 539.33h80v40h-80zM1218 539.33h80v40h-80z" fill="#fff"/><path d="M978 499.33v40M978 499.33h80M1058 499.33v40M1058 499.33h80M1138 499.33v40M1138 499.33h80M1218 499.33v40M1298 499.33v40M1218 499.33h80M978 539.33v40M978 539.33h80M978 579.33h80M1058 539.33v40M1058 539.33h80M1058 579.33h80M1138 539.33v40M1138 539.33h80M1138 579.33h80M1218 539.33v40M1298 539.33v40M1218 539.33h80M1218 579.33h80" stroke="#000" fill="none"/><use xlink:href="#a" transform="matrix(1,0,0,1,982.9999999999998,504.33333333333337) translate(6.354166666666664 23.08376736111111)"/><use xlink:href="#b" transform="matrix(1,0,0,1,1062.9999999999998,504.33333333333337) translate(27.99045138888889 23.08376736111111)"/><use xlink:href="#c" transform="matrix(1,0,0,1,1142.9999999999998,504.33333333333337) translate(30.48068576388889 23.08376736111111)"/><use xlink:href="#d" transform="matrix(1,0,0,1,1222.9999999999998,504.33333333333337) translate(28.223741319444443 23.08376736111111)"/><use xlink:href="#e" transform="matrix(1,0,0,1,982.9999999999998,544.3333333333334) translate(5.920138888888889 23.08376736111111)"/><use xlink:href="#f" transform="matrix(1,0,0,1,1062.9999999999998,544.3333333333334) translate(28.712022569444443 23.08376736111111)"/><use xlink:href="#g" transform="matrix(1,0,0,1,1142.9999999999998,544.3333333333334) translate(28.126085069444443 23.08376736111111)"/><use xlink:href="#h" transform="matrix(1,0,0,1,1222.9999999999998,544.3333333333334) translate(28.10980902777778 23.08376736111111)"/><path d="M1138.47 683.62h-.94v-34.34h.94zm0-81.67h-.94v-21.62h.94z" stroke="#3a414a" stroke-width=".05" fill="#3a414a"/><path d="M1138.47 580.35h-.94v-.52h.94z" fill="#3a414a"/><path stroke="#3a414a" stroke-width=".05" fill="#3a414a"/><path d="M1138 698.38l-4.63-14.26h9.27z" fill="#3a414a"/><path d="M1138 699.92l-5.3-16.28h10.6zm-3.98-15.33l3.98 12.25 3.98-12.26z" stroke="#3a414a" stroke-width=".05" fill="#3a414a"/><use xlink:href="#i" transform="matrix(1,0,0,1,1084.2499999999998,601.9526269057518) translate(32.24024305555555 17.22222222222222)"/><use xlink:href="#j" transform="matrix(1,0,0,1,1084.2499999999998,601.9526269057518) translate(47.51802083333333 17.22222222222222)"/><use xlink:href="#k" transform="matrix(1,0,0,1,1084.2499999999998,601.9526269057518) translate(63.794062499999995 17.22222222222222)"/><use xlink:href="#l" transform="matrix(1,0,0,1,1084.2499999999998,601.9526269057518) translate(0.005000000000002558 43.034722222222214)"/><use xlink:href="#j" transform="matrix(1,0,0,1,1084.2499999999998,601.9526269057518) translate(79.75326388888888 43.034722222222214)"/><use xlink:href="#m" transform="matrix(1,0,0,1,1084.2499999999998,601.9526269057518) translate(96.02930555555557 43.034722222222214)"/><path d="M858 700h80v40h-80zM938 700h80v40h-80zM1018 700h80v40h-80zM1098 700h80v40h-80z" fill="#fff"/><path d="M1178 700h80v40h-80zM1258 700h80v40h-80zM1338 700h80v40h-80z" fill="#edf5ff"/><path d="M858 740h80v40h-80zM938 740h80v40h-80zM1018 740h80v40h-80zM1098 740h80v40h-80z" fill="#fff"/><path d="M1178 740h80v40h-80zM1258 740h80v40h-80zM1338 740h80v40h-80z" fill="#edf5ff"/><path d="M858 700v40M858 700h80M938 700v40M938 700h80M1018 700v40M1018 700h80M1098 700v40M1098 700h80M1178 700v40M1178 700h80M1258 700v40M1258 700h80M1338 700v40M1418 700v40M1338 700h80M858 740v40M858 740h80M858 780h80M938 740v40M938 740h80M938 780h80M1018 740v40M1018 740h80M1018 780h80M1098 740v40M1098 740h80M1098 780h80M1178 740v40M1178 740h80M1178 780h80M1258 740v40M1258 740h80M1258 780h80M1338 740v40M1418 740v40M1338 740h80M1338 780h80" stroke="#000" fill="none"/><use xlink:href="#a" transform="matrix(1,0,0,1,862.9999999999998,705) translate(6.354166666666664 23.08376736111111)"/><use xlink:href="#b" transform="matrix(1,0,0,1,942.9999999999998,705) translate(27.99045138888889 23.08376736111111)"/><use xlink:href="#c" transform="matrix(1,0,0,1,1022.9999999999998,705) translate(30.48068576388889 23.08376736111111)"/><use xlink:href="#d" transform="matrix(1,0,0,1,1102.9999999999998,705) translate(28.223741319444443 23.08376736111111)"/><use xlink:href="#n" transform="matrix(1,0,0,1,1182.9999999999998,705) translate(10.341796875 23.08376736111111)"/><use xlink:href="#o" transform="matrix(1,0,0,1,1182.9999999999998,705) translate(30.31792534722222 23.08376736111111)"/><use xlink:href="#p" transform="matrix(1,0,0,1,1262.9999999999998,705) translate(27.822265625 23.08376736111111)"/><use xlink:href="#q" transform="matrix(1,0,0,1,1342.9999999999998,705) translate(28.245442708333336 23.08376736111111)"/><use xlink:href="#e" transform="matrix(1,0,0,1,862.9999999999998,745) translate(5.920138888888889 23.08376736111111)"/><use xlink:href="#f" transform="matrix(1,0,0,1,942.9999999999998,745) translate(28.712022569444443 23.08376736111111)"/><use xlink:href="#g" transform="matrix(1,0,0,1,1022.9999999999998,745) translate(28.126085069444443 23.08376736111111)"/><use xlink:href="#h" transform="matrix(1,0,0,1,1102.9999999999998,745) translate(28.10980902777778 23.08376736111111)"/><use xlink:href="#b" transform="matrix(1,0,0,1,1182.9999999999998,745) translate(27.99045138888889 23.08376736111111)"/><use xlink:href="#b" transform="matrix(1,0,0,1,1262.9999999999998,745) translate(27.99045138888889 23.08376736111111)"/><use xlink:href="#b" transform="matrix(1,0,0,1,1342.9999999999998,745) translate(27.99045138888889 23.08376736111111)"/><path d="M1140.47 884.28h-.94v-34.34h.94zm0-81.66h-.94V781h.94z" stroke="#3a414a" stroke-width=".05" fill="#3a414a"/><path d="M1140.47 781h-.94v-.5h.94z" fill="#3a414a"/><path stroke="#3a414a" stroke-width=".05" fill="#3a414a"/><path d="M1140 899.05l-4.63-14.27h9.27z" fill="#3a414a"/><path d="M1140 900.6l-5.3-16.3h10.6zm-3.98-15.34l3.98 12.25 3.98-12.24z" stroke="#3a414a" stroke-width=".05" fill="#3a414a"/><use xlink:href="#i" transform="matrix(1,0,0,1,1086.2152777777778,802.6192935724185) translate(32.27496527777778 17.22222222222222)"/><use xlink:href="#j" transform="matrix(1,0,0,1,1086.2152777777778,802.6192935724185) translate(47.55274305555556 17.22222222222222)"/><use xlink:href="#k" transform="matrix(1,0,0,1,1086.2152777777778,802.6192935724185) translate(63.828784722222224 17.22222222222222)"/><use xlink:href="#l" transform="matrix(1,0,0,1,1086.2152777777778,802.6192935724185) translate(0.005000000000002558 43.034722222222214)"/><use xlink:href="#j" transform="matrix(1,0,0,1,1086.2152777777778,802.6192935724185) translate(79.75326388888888 43.034722222222214)"/><use xlink:href="#r" transform="matrix(1,0,0,1,1086.2152777777778,802.6192935724185) translate(96.02930555555557 43.034722222222214)"/><path d="M858 900.67h80v40h-80zM938 900.67h80v40h-80zM1018 900.67h80v40h-80zM1098 900.67h80v40h-80z" fill="#fff"/><path d="M1178 900.67h80v40h-80z" fill="#e3fae3"/><path d="M1258 900.67h80v40h-80zM1338 900.67h80v40h-80zM858 940.67h80v40h-80zM938 940.67h80v40h-80zM1018 940.67h80v40h-80zM1098 940.67h80v40h-80z" fill="#fff"/><path d="M1178 940.67h80v40h-80z" fill="#e3fae3"/><path d="M1258 940.67h80v40h-80zM1338 940.67h80v40h-80z" fill="#fff"/><path d="M858 900.67v40M858 900.67h80M938 900.67v40M938 900.67h80M1018 900.67v40M1018 900.67h80M1098 900.67v40M1098 900.67h80M1178 900.67v40M1178 900.67h80M1258 900.67v40M1258 900.67h80M1338 900.67v40M1418 900.67v40M1338 900.67h80M858 940.67v40M858 940.67h80M858 980.67h80M938 940.67v40M938 940.67h80M938 980.67h80M1018 940.67v40M1018 940.67h80M1018 980.67h80M1098 940.67v40M1098 940.67h80M1098 980.67h80M1178 940.67v40M1178 940.67h80M1178 980.67h80M1258 940.67v40M1258 940.67h80M1258 980.67h80M1338 940.67v40M1418 940.67v40M1338 940.67h80M1338 980.67h80" stroke="#000" fill="none"/><use xlink:href="#a" transform="matrix(1,0,0,1,862.9999999999998,905.6666666666666) translate(6.354166666666664 23.08376736111111)"/><use xlink:href="#b" transform="matrix(1,0,0,1,942.9999999999998,905.6666666666666) translate(27.99045138888889 23.08376736111111)"/><use xlink:href="#c" transform="matrix(1,0,0,1,1022.9999999999998,905.6666666666666) translate(30.48068576388889 23.08376736111111)"/><use xlink:href="#d" transform="matrix(1,0,0,1,1102.9999999999998,905.6666666666666) translate(28.223741319444443 23.08376736111111)"/><g><use xlink:href="#s" transform="matrix(1,0,0,1,1182.9999999999998,905.6666666666666) translate(28.13693576388889 23.08376736111111)"/></g><g><use xlink:href="#t" transform="matrix(1,0,0,1,1262.9999999999998,905.6666666666666) translate(10.02712673611111 23.08376736111111)"/><use xlink:href="#o" transform="matrix(1,0,0,1,1262.9999999999998,905.6666666666666) translate(30.63259548611111 23.08376736111111)"/></g><g><use xlink:href="#q" transform="matrix(1,0,0,1,1342.9999999999998,905.6666666666666) translate(28.245442708333336 23.08376736111111)"/></g><g><use xlink:href="#e" transform="matrix(1,0,0,1,862.9999999999998,945.6666666666666) translate(5.920138888888889 23.08376736111111)"/></g><g><use xlink:href="#f" transform="matrix(1,0,0,1,942.9999999999998,945.6666666666666) translate(28.712022569444443 23.08376736111111)"/></g><g><use xlink:href="#g" transform="matrix(1,0,0,1,1022.9999999999998,945.6666666666666) translate(28.126085069444443 23.08376736111111)"/></g><g><use xlink:href="#h" transform="matrix(1,0,0,1,1102.9999999999998,945.6666666666666) translate(28.10980902777778 23.08376736111111)"/></g><g><use xlink:href="#u" transform="matrix(1,0,0,1,1182.9999999999998,945.6666666666666) translate(23.47113715277778 23.08376736111111)"/></g><g><use xlink:href="#b" transform="matrix(1,0,0,1,1262.9999999999998,945.6666666666666) translate(27.99045138888889 23.08376736111111)"/></g><g><use xlink:href="#b" transform="matrix(1,0,0,1,1342.9999999999998,945.6666666666666) translate(27.99045138888889 23.08376736111111)"/></g><defs><path d="M370-1490V0H180v-1490h190" id="v"/><path d="M338-670V0H158v-1118h173l1 207c72-158 192-221 342-221 226 0 378 139 378 422V0H872v-695c0-172-96-275-252-275-161 0-282 109-282 300" id="w"/><path d="M577 24c-279 0-473-224-473-580 0-354 195-576 474-576 218 0 287 134 324 193h14v-551h180V0H922v-173h-20C865-111 790 24 577 24zm27-161c203 0 314-172 314-421 0-247-108-413-314-413-212 0-317 181-317 413 0 235 108 421 317 421" id="x"/><path d="M628 24c-324 0-524-230-524-574 0-343 198-582 503-582 237 0 487 146 487 559v75H286c9 234 145 362 343 362 132 0 231-58 273-172l174 48C1024-91 857 24 628 24zM287-650h624c-17-190-120-322-304-322-192 0-309 151-320 322" id="y"/><path d="M65 0l393-574-370-544h210c88 136 192 297 267 435 67-142 176-302 264-435h206L661-564 1053 0H844c-94-144-206-310-287-458C484-308 366-142 273 0H65" id="z"/><g id="a"><use transform="matrix(0.010850694444444444,0,0,0.010850694444444444,0,0)" xlink:href="#v"/><use transform="matrix(0.010850694444444444,0,0,0.010850694444444444,5.967881944444445,0)" xlink:href="#w"/><use transform="matrix(0.010850694444444444,0,0,0.010850694444444444,19.09722222222222,0)" xlink:href="#x"/><use transform="matrix(0.010850694444444444,0,0,0.010850694444444444,32.70399305555556,0)" xlink:href="#y"/><use transform="matrix(0.010850694444444444,0,0,0.010850694444444444,45.16059027777778,0)" xlink:href="#z"/></g><path d="M646 20c-332 0-524-278-524-764 0-483 194-766 524-766s524 283 524 766c0 485-191 764-524 764zm0-166c218 0 341-220 341-598 0-380-123-601-341-601s-341 222-341 601c0 378 123 598 341 598" id="A"/><use transform="matrix(0.010850694444444444,0,0,0.010850694444444444,0,0)" xlink:href="#A" id="b"/><path d="M653-1490V0H466v-1314h-10L96-1047v-204l324-239h233" id="B"/><use transform="matrix(0.010850694444444444,0,0,0.010850694444444444,0,0)" xlink:href="#B" id="c"/><path d="M154 0v-137l495-537c165-179 249-281 249-418 0-156-121-253-280-253-170 0-278 110-278 278H158c0-264 200-443 465-443 266 0 455 183 455 416 0 161-73 288-336 568L416-179v12h687V0H154" id="C"/><use transform="matrix(0.010850694444444444,0,0,0.010850694444444444,0,0)" xlink:href="#C" id="d"/><path d="M600 0L52-1490h200c166 485 304 806 458 1336 156-533 285-846 449-1336h202L819 0H600" id="D"/><path d="M471 26C259 26 90-98 90-318c0-256 228-303 435-329 202-27 287-16 287-108 0-139-79-219-234-219-161 0-248 86-283 164l-173-57c86-203 278-265 451-265 150 0 419 46 419 395V0H815v-152h-12C765-73 660 26 471 26zm31-159c199 0 310-134 310-271v-155c-30 35-226 55-295 64-131 17-246 59-246 186 0 116 97 176 231 176" id="E"/><path d="M338-1490V0H158v-1490h180" id="F"/><path d="M537 14c-226 0-379-139-379-422v-710h180v695c0 172 97 275 253 275 160 0 281-109 281-300v-670h181V0H879v-209C806-46 684 14 537 14" id="G"/><g id="e"><use transform="matrix(0.010850694444444444,0,0,0.010850694444444444,0,0)" xlink:href="#D"/><use transform="matrix(0.010850694444444444,0,0,0.010850694444444444,14.20355902777778,0)" xlink:href="#E"/><use transform="matrix(0.010850694444444444,0,0,0.010850694444444444,26.68185763888889,0)" xlink:href="#F"/><use transform="matrix(0.010850694444444444,0,0,0.010850694444444444,32.063802083333336,0)" xlink:href="#G"/><use transform="matrix(0.010850694444444444,0,0,0.010850694444444444,45.20399305555556,0)" xlink:href="#y"/></g><path d="M200 0l662-1311v-12H98v-167h963v177L400 0H200" id="H"/><use transform="matrix(0.010850694444444444,0,0,0.010850694444444444,0,0)" xlink:href="#H" id="f"/><path d="M633 20c-303 0-511-173-511-416 0-188 124-348 291-378v-8c-145-37-237-174-237-332 0-227 192-396 457-396 261 0 456 169 456 396 0 158-94 295-235 332v8c162 30 291 190 291 378 0 243-212 416-512 416zm0-165c197 0 322-103 322-261 0-165-138-283-322-283-188 0-324 118-324 283 0 158 123 261 324 261zm0-703c157 0 272-101 272-252 0-149-110-246-272-246-165 0-273 97-273 246 0 151 112 252 273 252" id="I"/><use transform="matrix(0.010850694444444444,0,0,0.010850694444444444,0,0)" xlink:href="#I" id="g"/><path d="M603 20c-253 0-434-161-469-399h188c31 132 124 231 281 231 227 0 367-207 367-568h-12c-80 122-211 199-367 199-257 0-469-206-469-493 0-278 200-505 506-500 245 4 520 158 520 706 0 527-208 824-545 824zm16-703c181 0 324-157 324-332 0-171-135-328-318-328-180 0-317 148-317 332 0 183 131 328 311 328" id="J"/><use transform="matrix(0.010850694444444444,0,0,0.010850694444444444,0,0)" xlink:href="#J" id="h"/><path fill="#333" d="M428-647V0H128v-1118h283l4 231c63-156 176-245 348-245 232 0 384 159 384 421V0H847v-659c0-139-76-222-202-222-128 0-217 86-217 234" id="K"/><use transform="matrix(0.008680555555555556,0,0,0.008680555555555556,0,0)" xlink:href="#K" id="i"/><path fill="#333" d="M197-230v-252h997v252H197zm0-479v-251h997v251H197" id="L"/><use transform="matrix(0.008680555555555556,0,0,0.008680555555555556,0,0)" xlink:href="#L" id="j"/><path fill="#333" d="M659 20C335 20 103-159 99-418h307c5 112 113 185 254 185 147 0 250-83 250-204 0-123-105-209-278-209H494v-227h138c145 0 246-81 246-200 0-115-87-193-216-193-130 0-237 73-240 189H128c4-255 233-433 536-433 306 0 510 185 510 418 0 167-114 285-279 317v11c217 29 333 162 333 347 0 254-237 437-569 437" id="M"/><use transform="matrix(0.008680555555555556,0,0,0.008680555555555556,0,0)" xlink:href="#M" id="k"/><path fill="#333" d="M628 22C291 22 81-210 81-554c0-346 210-578 547-578 265 0 455 142 497 372l-279 52c-25-116-99-188-215-188-160 0-244 139-244 341 0 200 84 341 244 341 116 0 193-74 217-195l279 51C1085-123 896 22 628 22" id="N"/><path fill="#333" d="M440 22C227 22 68-92 68-313c0-250 202-322 422-343 195-21 271-24 271-105 0-95-63-149-175-149-116 0-187 57-211 129l-275-46c57-194 237-305 487-305 240 0 474 108 474 379V0H777v-155h-10C713-51 605 22 440 22zm85-211c140 0 238-93 238-211v-121c-37 26-156 42-222 51-111 16-185 59-185 149 0 87 70 132 169 132" id="O"/><path fill="#333" d="M128 418v-1536h295v188h14c41-89 129-202 319-202 248 0 453 193 453 575 0 372-197 576-455 576-183 0-275-108-317-198h-9v597H128zm534-640c156 0 240-139 240-336 0-196-83-334-240-334-154 0-241 131-241 334 0 202 88 336 241 336" id="P"/><path fill="#333" d="M128 0v-1118h300V0H128zm150-1264c-91 0-165-68-165-154 0-85 74-154 165-154 90 0 165 69 165 154 0 86-75 154-165 154" id="Q"/><path fill="#333" d="M683-1118v229H474v562c0 71 29 104 102 104 23 0 73-7 95-13l43 225C647 9 580 16 520 16 296 16 174-96 174-301v-588H20v-229h154v-266h300v266h209" id="R"/><path fill="#333" d="M120 396l69-226c123 42 245 23 254-107l8-60L31-1118h319c87 288 199 559 259 872 72-308 185-583 277-872h315L726 132c-68 181-186 294-410 294-79 0-153-13-196-30" id="S"/><g id="l"><use transform="matrix(0.008680555555555556,0,0,0.008680555555555556,0,0)" xlink:href="#N"/><use transform="matrix(0.008680555555555556,0,0,0.008680555555555556,10.633680555555555,0)" xlink:href="#O"/><use transform="matrix(0.008680555555555556,0,0,0.008680555555555556,20.95486111111111,0)" xlink:href="#P"/><use transform="matrix(0.008680555555555556,0,0,0.008680555555555556,32.33506944444444,0)" xlink:href="#O"/><use transform="matrix(0.008680555555555556,0,0,0.008680555555555556,42.65625,0)" xlink:href="#N"/><use transform="matrix(0.008680555555555556,0,0,0.008680555555555556,53.11631944444445,0)" xlink:href="#Q"/><use transform="matrix(0.008680555555555556,0,0,0.008680555555555556,57.93402777777778,0)" xlink:href="#R"/><use transform="matrix(0.008680555555555556,0,0,0.008680555555555556,64.83506944444444,0)" xlink:href="#S"/></g><use transform="matrix(0.008680555555555556,0,0,0.008680555555555556,0,0)" xlink:href="#M" id="m"/><path d="M635 20c-292 0-500-160-510-396h192c11 142 145 229 315 229 187 0 323-105 323-260 0-161-125-274-346-274H488v-165h121c174 0 294-100 294-254 0-148-104-245-266-245-152 0-291 85-297 230H157c8-234 222-395 484-395 278 0 448 188 448 400 0 168-95 291-247 336v12c190 31 301 169 301 357 0 244-216 425-508 425" id="T"/><use transform="matrix(0.010850694444444444,0,0,0.010850694444444444,0,0)" xlink:href="#T" id="n"/><path d="M218-607c0-325 108-727 258-974h175c-155 315-250 682-250 974 0 265 78 531 250 886H476C306-10 218-315 218-607" id="U"/><path d="M96 279C273-86 346-350 346-607c0-292-95-659-250-974h175c150 246 258 650 258 974 0 297-91 602-258 886H96" id="V"/><g id="o"><use transform="matrix(0.010850694444444444,0,0,0.010850694444444444,0,0)" xlink:href="#U"/><use transform="matrix(0.010850694444444444,0,0,0.010850694444444444,8.10546875,0)" xlink:href="#w"/><use transform="matrix(0.010850694444444444,0,0,0.010850694444444444,21.23480902777778,0)" xlink:href="#V"/></g><path d="M120-303v-155l652-1032h231v1020h202v167h-202V0H821v-303H120zm702-167v-782h-12L323-482v12h499" id="W"/><use transform="matrix(0.010850694444444444,0,0,0.010850694444444444,0,0)" xlink:href="#W" id="p"/><path d="M626 20c-262 0-458-168-468-396h184c12 133 134 229 284 229 180 0 311-137 311-326 0-192-136-335-323-335-92 0-196 33-255 78l-178-22 88-738h784v167H429l-51 435h8c61-51 160-87 263-87 273 0 474 211 474 499 0 286-210 496-497 496" id="X"/><use transform="matrix(0.010850694444444444,0,0,0.010850694444444444,0,0)" xlink:href="#X" id="q"/><path fill="#333" d="M684 20C381 20 94-164 94-710c0-501 235-800 601-800 293 0 496 188 526 433H921c-25-105-108-170-226-170-197 0-301 182-301 476h10c67-130 211-208 374-208 263 0 459 201 459 481 0 301-224 518-553 518zm-2-242c147 0 258-116 258-268 0-150-108-266-256-266-146 0-259 121-259 267 0 147 109 267 257 267" id="Y"/><use transform="matrix(0.008680555555555556,0,0,0.008680555555555556,0,0)" xlink:href="#Y" id="r"/><use transform="matrix(0.010850694444444444,0,0,0.010850694444444444,0,0)" xlink:href="#T" id="s"/><use transform="matrix(0.010850694444444444,0,0,0.010850694444444444,0,0)" xlink:href="#W" id="t"/><g id="u"><use transform="matrix(0.010850694444444444,0,0,0.010850694444444444,0,0)" xlink:href="#B"/><use transform="matrix(0.010850694444444444,0,0,0.010850694444444444,9.038628472222221,0)" xlink:href="#A"/></g></defs></g></svg>