<svg xmlns="http://www.w3.org/2000/svg" xmlns:xlink="http://www.w3.org/1999/xlink" xmlns:lucid="lucid" width="401" height="602.17"><g transform="translate(-857.4999999999998 -498.83333333333337)" lucid:page-tab-id="0_0"><path d="M978 499.33h80v40h-80zM1058 499.33h80v40h-80zM978 539.33h80v40h-80zM1058 539.33h80v40h-80z" fill="#fff"/><path d="M978 499.33v40M978 499.33h80M1058 499.33v40M1138 499.33v40M1058 499.33h80M978 539.33v40M978 539.33h80M978 579.33h80M1058 539.33v40M1138 539.33v40M1058 539.33h80M1058 579.33h80" stroke="#000" fill="none"/><use xlink:href="#a" transform="matrix(1,0,0,1,982.9999999999998,504.33333333333337) translate(6.354166666666664 23.08376736111111)"/><use xlink:href="#b" transform="matrix(1,0,0,1,1062.9999999999998,504.33333333333337) translate(27.99045138888889 23.08376736111111)"/><use xlink:href="#c" transform="matrix(1,0,0,1,982.9999999999998,544.3333333333334) translate(5.920138888888889 23.08376736111111)"/><use xlink:href="#d" transform="matrix(1,0,0,1,1062.9999999999998,544.3333333333334) translate(30.48068576388889 23.08376736111111)"/><path d="M1058.47 663.95h-.94v-36.17h.94zm0-57.68h-.94v-25.94h.94z" stroke="#3a414a" stroke-width=".05" fill="#3a414a"/><path d="M1058.47 580.35h-.94v-.52h.94z" fill="#3a414a"/><path stroke="#3a414a" stroke-width=".05" fill="#3a414a"/><path d="M1058 678.7l-4.63-14.25h9.27z" fill="#3a414a"/><path d="M1058 680.25l-5.3-16.28h10.6zm-3.98-15.33l3.98 12.26 3.98-12.26z" stroke="#3a414a" stroke-width=".05" fill="#3a414a"/><use xlink:href="#e" transform="matrix(1,0,0,1,1006.1553819444442,606.2693931912681) translate(0.005000000000002558 17.22222222222222)"/><use xlink:href="#f" transform="matrix(1,0,0,1,1006.1553819444442,606.2693931912681) translate(79.75326388888888 17.22222222222222)"/><use xlink:href="#g" transform="matrix(1,0,0,1,1006.1553819444442,606.2693931912681) translate(96.02930555555557 17.22222222222222)"/><path d="M938 680h80v40h-80zM1018 680h80v40h-80z" fill="#fff"/><path d="M1098 680h80v40h-80z" fill="#edf5ff"/><path d="M938 720h80v40h-80zM1018 720h80v40h-80z" fill="#fff"/><path d="M1098 720h80v40h-80z" fill="#edf5ff"/><path d="M938 680v40M938 680h80M1018 680v40M1018 680h80M1098 680v40M1178 680v40M1098 680h80M938 720v40M938 720h80M938 760h80M1018 720v40M1018 720h80M1018 760h80M1098 720v40M1178 720v40M1098 720h80M1098 760h80" stroke="#000" fill="none"/><use xlink:href="#a" transform="matrix(1,0,0,1,942.9999999999998,685) translate(6.354166666666664 23.08376736111111)"/><use xlink:href="#b" transform="matrix(1,0,0,1,1022.9999999999998,685) translate(27.99045138888889 23.08376736111111)"/><use xlink:href="#d" transform="matrix(1,0,0,1,1102.9999999999998,685) translate(30.48068576388889 23.08376736111111)"/><use xlink:href="#c" transform="matrix(1,0,0,1,942.9999999999998,725) translate(5.920138888888889 23.08376736111111)"/><use xlink:href="#d" transform="matrix(1,0,0,1,1022.9999999999998,725) translate(30.48068576388889 23.08376736111111)"/><use xlink:href="#b" transform="matrix(1,0,0,1,1102.9999999999998,725) translate(27.99045138888889 23.08376736111111)"/><path d="M1058.47 844.12h-.94v-36.17h.94zm0-57.68h-.94V760.5h.94zM1058.47 760.5h-.94v-.5h.94z" stroke="#3a414a" stroke-width=".05" fill="#3a414a"/><path d="M1058 858.88l-4.63-14.26h9.27z" fill="#3a414a"/><path d="M1058 860.42l-5.3-16.28h10.6zm-3.98-15.33l3.98 12.25 3.98-12.26z" stroke="#3a414a" stroke-width=".05" fill="#3a414a"/><use xlink:href="#e" transform="matrix(1,0,0,1,1004.3888888888887,786.4360598579348) translate(0.005000000000002558 17.22222222222222)"/><use xlink:href="#f" transform="matrix(1,0,0,1,1004.3888888888887,786.4360598579348) translate(79.75326388888888 17.22222222222222)"/><use xlink:href="#h" transform="matrix(1,0,0,1,1004.3888888888887,786.4360598579348) translate(96.02930555555557 17.22222222222222)"/><path d="M858 860.67h80v40h-80zM938 860.67h80v40h-80zM1018 860.67h80v40h-80z" fill="#fff"/><path d="M1098 860.67h80v40h-80zM1178 860.67h80v40h-80z" fill="#edf5ff"/><path d="M858 900.67h80v40h-80zM938 900.67h80v40h-80zM1018 900.67h80v40h-80z" fill="#fff"/><path d="M1098 900.67h80v40h-80zM1178 900.67h80v40h-80z" fill="#edf5ff"/><path d="M858 860.67v40M858 860.67h80M938 860.67v40M938 860.67h80M1018 860.67v40M1018 860.67h80M1098 860.67v40M1098 860.67h80M1178 860.67v40M1258 860.67v40M1178 860.67h80M858 900.67v40M858 900.67h80M858 940.67h80M938 900.67v40M938 900.67h80M938 940.67h80M1018 900.67v40M1018 900.67h80M1018 940.67h80M1098 900.67v40M1098 900.67h80M1098 940.67h80M1178 900.67v40M1258 900.67v40M1178 900.67h80M1178 940.67h80" stroke="#000" fill="none"/><use xlink:href="#a" transform="matrix(1,0,0,1,862.9999999999998,865.6666666666666) translate(6.354166666666664 23.08376736111111)"/><use xlink:href="#b" transform="matrix(1,0,0,1,942.9999999999998,865.6666666666666) translate(27.99045138888889 23.08376736111111)"/><use xlink:href="#d" transform="matrix(1,0,0,1,1022.9999999999998,865.6666666666666) translate(30.48068576388889 23.08376736111111)"/><use xlink:href="#i" transform="matrix(1,0,0,1,1102.9999999999998,865.6666666666666) translate(28.223741319444443 23.08376736111111)"/><use xlink:href="#j" transform="matrix(1,0,0,1,1182.9999999999998,865.6666666666666) translate(28.13693576388889 23.08376736111111)"/><use xlink:href="#c" transform="matrix(1,0,0,1,862.9999999999998,905.6666666666666) translate(5.920138888888889 23.08376736111111)"/><use xlink:href="#d" transform="matrix(1,0,0,1,942.9999999999998,905.6666666666666) translate(30.48068576388889 23.08376736111111)"/><use xlink:href="#b" transform="matrix(1,0,0,1,1022.9999999999998,905.6666666666666) translate(27.99045138888889 23.08376736111111)"/><use xlink:href="#b" transform="matrix(1,0,0,1,1102.9999999999998,905.6666666666666) translate(27.99045138888889 23.08376736111111)"/><use xlink:href="#b" transform="matrix(1,0,0,1,1182.9999999999998,905.6666666666666) translate(27.99045138888889 23.08376736111111)"/><path d="M978 1026a6 6 0 0 1 6-6h148a6 6 0 0 1 6 6v68a6 6 0 0 1-6 6H984a6 6 0 0 1-6-6z" stroke="#000" stroke-width="2" fill="#fff"/><use xlink:href="#k" transform="matrix(1,0,0,1,982.9999999999998,1025) translate(14.85460069444445 25.90277777777778)"/><use xlink:href="#l" transform="matrix(1,0,0,1,982.9999999999998,1025) translate(120.78993055555554 25.90277777777778)"/><use xlink:href="#m" transform="matrix(1,0,0,1,982.9999999999998,1025) translate(4.193793402777786 58.16840277777778)"/><use xlink:href="#n" transform="matrix(1,0,0,1,982.9999999999998,1025) translate(132.080078125 58.16840277777778)"/><path d="M1058 941.67v60.95" stroke="#3a414a" fill="none"/><path d="M1058.47 941.68h-.94v-.5h.94z" stroke="#3a414a" stroke-width=".05" fill="#3a414a"/><path d="M1058 1017.38l-4.63-14.26h9.27z" stroke="#3a414a" fill="#3a414a"/><defs><path d="M370-1490V0H180v-1490h190" id="o"/><path d="M338-670V0H158v-1118h173l1 207c72-158 192-221 342-221 226 0 378 139 378 422V0H872v-695c0-172-96-275-252-275-161 0-282 109-282 300" id="p"/><path d="M577 24c-279 0-473-224-473-580 0-354 195-576 474-576 218 0 287 134 324 193h14v-551h180V0H922v-173h-20C865-111 790 24 577 24zm27-161c203 0 314-172 314-421 0-247-108-413-314-413-212 0-317 181-317 413 0 235 108 421 317 421" id="q"/><path d="M628 24c-324 0-524-230-524-574 0-343 198-582 503-582 237 0 487 146 487 559v75H286c9 234 145 362 343 362 132 0 231-58 273-172l174 48C1024-91 857 24 628 24zM287-650h624c-17-190-120-322-304-322-192 0-309 151-320 322" id="r"/><path d="M65 0l393-574-370-544h210c88 136 192 297 267 435 67-142 176-302 264-435h206L661-564 1053 0H844c-94-144-206-310-287-458C484-308 366-142 273 0H65" id="s"/><g id="a"><use transform="matrix(0.010850694444444444,0,0,0.010850694444444444,0,0)" xlink:href="#o"/><use transform="matrix(0.010850694444444444,0,0,0.010850694444444444,5.967881944444445,0)" xlink:href="#p"/><use transform="matrix(0.010850694444444444,0,0,0.010850694444444444,19.09722222222222,0)" xlink:href="#q"/><use transform="matrix(0.010850694444444444,0,0,0.010850694444444444,32.70399305555556,0)" xlink:href="#r"/><use transform="matrix(0.010850694444444444,0,0,0.010850694444444444,45.16059027777778,0)" xlink:href="#s"/></g><path d="M646 20c-332 0-524-278-524-764 0-483 194-766 524-766s524 283 524 766c0 485-191 764-524 764zm0-166c218 0 341-220 341-598 0-380-123-601-341-601s-341 222-341 601c0 378 123 598 341 598" id="t"/><use transform="matrix(0.010850694444444444,0,0,0.010850694444444444,0,0)" xlink:href="#t" id="b"/><path d="M600 0L52-1490h200c166 485 304 806 458 1336 156-533 285-846 449-1336h202L819 0H600" id="u"/><path d="M471 26C259 26 90-98 90-318c0-256 228-303 435-329 202-27 287-16 287-108 0-139-79-219-234-219-161 0-248 86-283 164l-173-57c86-203 278-265 451-265 150 0 419 46 419 395V0H815v-152h-12C765-73 660 26 471 26zm31-159c199 0 310-134 310-271v-155c-30 35-226 55-295 64-131 17-246 59-246 186 0 116 97 176 231 176" id="v"/><path d="M338-1490V0H158v-1490h180" id="w"/><path d="M537 14c-226 0-379-139-379-422v-710h180v695c0 172 97 275 253 275 160 0 281-109 281-300v-670h181V0H879v-209C806-46 684 14 537 14" id="x"/><g id="c"><use transform="matrix(0.010850694444444444,0,0,0.010850694444444444,0,0)" xlink:href="#u"/><use transform="matrix(0.010850694444444444,0,0,0.010850694444444444,14.20355902777778,0)" xlink:href="#v"/><use transform="matrix(0.010850694444444444,0,0,0.010850694444444444,26.68185763888889,0)" xlink:href="#w"/><use transform="matrix(0.010850694444444444,0,0,0.010850694444444444,32.063802083333336,0)" xlink:href="#x"/><use transform="matrix(0.010850694444444444,0,0,0.010850694444444444,45.20399305555556,0)" xlink:href="#r"/></g><path d="M653-1490V0H466v-1314h-10L96-1047v-204l324-239h233" id="y"/><use transform="matrix(0.010850694444444444,0,0,0.010850694444444444,0,0)" xlink:href="#y" id="d"/><path fill="#008a0e" d="M628 22C291 22 81-210 81-554c0-346 210-578 547-578 265 0 455 142 497 372l-279 52c-25-116-99-188-215-188-160 0-244 139-244 341 0 200 84 341 244 341 116 0 193-74 217-195l279 51C1085-123 896 22 628 22" id="z"/><path fill="#008a0e" d="M440 22C227 22 68-92 68-313c0-250 202-322 422-343 195-21 271-24 271-105 0-95-63-149-175-149-116 0-187 57-211 129l-275-46c57-194 237-305 487-305 240 0 474 108 474 379V0H777v-155h-10C713-51 605 22 440 22zm85-211c140 0 238-93 238-211v-121c-37 26-156 42-222 51-111 16-185 59-185 149 0 87 70 132 169 132" id="A"/><path fill="#008a0e" d="M128 418v-1536h295v188h14c41-89 129-202 319-202 248 0 453 193 453 575 0 372-197 576-455 576-183 0-275-108-317-198h-9v597H128zm534-640c156 0 240-139 240-336 0-196-83-334-240-334-154 0-241 131-241 334 0 202 88 336 241 336" id="B"/><path fill="#008a0e" d="M128 0v-1118h300V0H128zm150-1264c-91 0-165-68-165-154 0-85 74-154 165-154 90 0 165 69 165 154 0 86-75 154-165 154" id="C"/><path fill="#008a0e" d="M683-1118v229H474v562c0 71 29 104 102 104 23 0 73-7 95-13l43 225C647 9 580 16 520 16 296 16 174-96 174-301v-588H20v-229h154v-266h300v266h209" id="D"/><path fill="#008a0e" d="M120 396l69-226c123 42 245 23 254-107l8-60L31-1118h319c87 288 199 559 259 872 72-308 185-583 277-872h315L726 132c-68 181-186 294-410 294-79 0-153-13-196-30" id="E"/><g id="e"><use transform="matrix(0.008680555555555556,0,0,0.008680555555555556,0,0)" xlink:href="#z"/><use transform="matrix(0.008680555555555556,0,0,0.008680555555555556,10.633680555555555,0)" xlink:href="#A"/><use transform="matrix(0.008680555555555556,0,0,0.008680555555555556,20.95486111111111,0)" xlink:href="#B"/><use transform="matrix(0.008680555555555556,0,0,0.008680555555555556,32.33506944444444,0)" xlink:href="#A"/><use transform="matrix(0.008680555555555556,0,0,0.008680555555555556,42.65625,0)" xlink:href="#z"/><use transform="matrix(0.008680555555555556,0,0,0.008680555555555556,53.11631944444445,0)" xlink:href="#C"/><use transform="matrix(0.008680555555555556,0,0,0.008680555555555556,57.93402777777778,0)" xlink:href="#D"/><use transform="matrix(0.008680555555555556,0,0,0.008680555555555556,64.83506944444444,0)" xlink:href="#E"/></g><path fill="#008a0e" d="M197-230v-252h997v252H197zm0-479v-251h997v251H197" id="F"/><use transform="matrix(0.008680555555555556,0,0,0.008680555555555556,0,0)" xlink:href="#F" id="f"/><path fill="#008a0e" d="M749-1490V0H444v-1221h-10L93-980v-279l329-231h327" id="G"/><use transform="matrix(0.008680555555555556,0,0,0.008680555555555556,0,0)" xlink:href="#G" id="g"/><path fill="#008a0e" d="M124 0v-220l528-495c135-132 210-216 210-336 0-133-98-215-231-215-139 0-229 88-229 233H110c0-290 214-477 523-477 315 0 525 182 525 440 0 167-80 305-385 586L548-262v11h630V0H124" id="H"/><use transform="matrix(0.008680555555555556,0,0,0.008680555555555556,0,0)" xlink:href="#H" id="h"/><path d="M154 0v-137l495-537c165-179 249-281 249-418 0-156-121-253-280-253-170 0-278 110-278 278H158c0-264 200-443 465-443 266 0 455 183 455 416 0 161-73 288-336 568L416-179v12h687V0H154" id="I"/><use transform="matrix(0.010850694444444444,0,0,0.010850694444444444,0,0)" xlink:href="#I" id="i"/><path d="M635 20c-292 0-500-160-510-396h192c11 142 145 229 315 229 187 0 323-105 323-260 0-161-125-274-346-274H488v-165h121c174 0 294-100 294-254 0-148-104-245-266-245-152 0-291 85-297 230H157c8-234 222-395 484-395 278 0 448 188 448 400 0 168-95 291-247 336v12c190 31 301 169 301 357 0 244-216 425-508 425" id="J"/><use transform="matrix(0.010850694444444444,0,0,0.010850694444444444,0,0)" xlink:href="#J" id="j"/><path fill="#008a0e" d="M783 20c-382 0-661-292-661-764 0-473 279-766 661-766 302 0 548 182 601 489h-190c-42-204-217-313-411-313-268 0-476 208-476 590 0 381 209 588 476 588 195 0 369-110 411-313h190c-52 303-296 489-601 489" id="K"/><path fill="#008a0e" d="M471 26C259 26 90-98 90-318c0-256 228-303 435-329 202-27 287-16 287-108 0-139-79-219-234-219-161 0-248 86-283 164l-173-57c86-203 278-265 451-265 150 0 419 46 419 395V0H815v-152h-12C765-73 660 26 471 26zm31-159c199 0 310-134 310-271v-155c-30 35-226 55-295 64-131 17-246 59-246 186 0 116 97 176 231 176" id="L"/><path fill="#008a0e" d="M158 418v-1536h174v179h20c37-59 106-193 324-193 279 0 474 222 474 576 0 356-194 580-473 580-213 0-288-135-325-197h-14v591H158zm492-555c209 0 317-186 317-421 0-232-105-413-317-413-206 0-314 166-314 413 0 249 111 421 314 421" id="M"/><path fill="#008a0e" d="M613 24c-304 0-509-231-509-576 0-350 205-580 509-580 216 0 392 114 453 309l-173 49c-33-115-133-197-280-197-223 0-326 196-326 419 0 220 103 415 326 415 150 0 252-85 285-206l172 49C1010-95 832 24 613 24" id="N"/><path fill="#008a0e" d="M158 0v-1118h180V0H158zm91-1301c-68 0-125-53-125-119s57-119 125-119c69 0 126 53 126 119s-57 119-126 119" id="O"/><path fill="#008a0e" d="M598-1118v154H368v674c0 100 37 144 132 144 23 0 62-6 92-12L629-6c-37 13-88 20-134 20-193 0-307-107-307-290v-688H20v-154h168v-266h180v266h230" id="P"/><path fill="#008a0e" d="M140 405l46-156c120 36 205 19 263-150l32-93L54-1118h197c107 313 237 620 324 950 87-331 219-637 326-950h196L606 167c-68 178-176 259-334 259-64 0-113-12-132-21" id="Q"/><path fill="#008a0e" d="M295 13c-75 0-135-60-135-135s60-135 135-135 135 60 135 135S370 13 295 13zm0-809c-75 0-135-60-135-135s60-135 135-135 135 60 135 135-60 135-135 135" id="R"/><g id="k"><use transform="matrix(0.010850694444444444,0,0,0.010850694444444444,0,0)" xlink:href="#K"/><use transform="matrix(0.010850694444444444,0,0,0.010850694444444444,16.23263888888889,0)" xlink:href="#L"/><use transform="matrix(0.010850694444444444,0,0,0.010850694444444444,28.7109375,0)" xlink:href="#M"/><use transform="matrix(0.010850694444444444,0,0,0.010850694444444444,42.53472222222222,0)" xlink:href="#L"/><use transform="matrix(0.010850694444444444,0,0,0.010850694444444444,55.01302083333333,0)" xlink:href="#N"/><use transform="matrix(0.010850694444444444,0,0,0.010850694444444444,67.70833333333333,0)" xlink:href="#O"/><use transform="matrix(0.010850694444444444,0,0,0.010850694444444444,73.09027777777777,0)" xlink:href="#P"/><use transform="matrix(0.010850694444444444,0,0,0.010850694444444444,80.79427083333331,0)" xlink:href="#Q"/><use transform="matrix(0.010850694444444444,0,0,0.010850694444444444,93.28342013888887,0)" xlink:href="#R"/></g><path fill="#008a0e" d="M120-303v-155l652-1032h231v1020h202v167h-202V0H821v-303H120zm702-167v-782h-12L323-482v12h499" id="S"/><use transform="matrix(0.010850694444444444,0,0,0.010850694444444444,0,0)" xlink:href="#S" id="l"/><path fill="#1071e5" d="M784 20c-382 0-662-292-662-764 0-473 280-766 662-766s660 293 660 766c0 472-278 764-660 764zm0-176c266 0 475-207 475-588 0-383-209-590-475-590-268 0-477 208-477 590 0 380 209 588 477 588" id="T"/><path fill="#1071e5" d="M158 418v-1536h174v179h20c37-59 106-193 324-193 279 0 474 222 474 576 0 356-194 580-473 580-213 0-288-135-325-197h-14v591H158zm492-555c209 0 317-186 317-421 0-232-105-413-317-413-206 0-314 166-314 413 0 249 111 421 314 421" id="U"/><path fill="#1071e5" d="M628 24c-324 0-524-230-524-574 0-343 198-582 503-582 237 0 487 146 487 559v75H286c9 234 145 362 343 362 132 0 231-58 273-172l174 48C1024-91 857 24 628 24zM287-650h624c-17-190-120-322-304-322-192 0-309 151-320 322" id="V"/><path fill="#1071e5" d="M158 0v-1118h174v172h12c41-113 157-188 290-188 26 0 70 2 91 3v181c-11-2-60-10-108-10-161 0-279 109-279 260V0H158" id="W"/><path fill="#1071e5" d="M471 26C259 26 90-98 90-318c0-256 228-303 435-329 202-27 287-16 287-108 0-139-79-219-234-219-161 0-248 86-283 164l-173-57c86-203 278-265 451-265 150 0 419 46 419 395V0H815v-152h-12C765-73 660 26 471 26zm31-159c199 0 310-134 310-271v-155c-30 35-226 55-295 64-131 17-246 59-246 186 0 116 97 176 231 176" id="X"/><path fill="#1071e5" d="M598-1118v154H368v674c0 100 37 144 132 144 23 0 62-6 92-12L629-6c-37 13-88 20-134 20-193 0-307-107-307-290v-688H20v-154h168v-266h180v266h230" id="Y"/><path fill="#1071e5" d="M158 0v-1118h180V0H158zm91-1301c-68 0-125-53-125-119s57-119 125-119c69 0 126 53 126 119s-57 119-126 119" id="Z"/><path fill="#1071e5" d="M613 24c-304 0-509-231-509-576 0-350 205-580 509-580 305 0 511 230 511 580 0 345-206 576-511 576zm0-161c226 0 329-195 329-415 0-222-103-419-329-419-223 0-326 196-326 419 0 220 103 415 326 415" id="aa"/><path fill="#1071e5" d="M338-670V0H158v-1118h173l1 207c72-158 192-221 342-221 226 0 378 139 378 422V0H872v-695c0-172-96-275-252-275-161 0-282 109-282 300" id="ab"/><path fill="#1071e5" d="M538 24C308 24 148-78 108-271l171-41c32 123 123 178 257 178 156 0 256-77 256-169 0-77-54-128-164-154l-186-44c-203-48-300-148-300-305 0-192 176-326 414-326 230 0 351 112 402 269l-163 42c-31-80-94-158-238-158-133 0-233 69-233 162 0 83 57 129 188 160l169 40c203 48 298 149 298 302 0 196-179 339-441 339" id="ac"/><path fill="#1071e5" d="M295 13c-75 0-135-60-135-135s60-135 135-135 135 60 135 135S370 13 295 13zm0-809c-75 0-135-60-135-135s60-135 135-135 135 60 135 135-60 135-135 135" id="ad"/><g id="m"><use transform="matrix(0.010850694444444444,0,0,0.010850694444444444,0,0)" xlink:href="#T"/><use transform="matrix(0.010850694444444444,0,0,0.010850694444444444,16.9921875,0)" xlink:href="#U"/><use transform="matrix(0.010850694444444444,0,0,0.010850694444444444,30.598958333333332,0)" xlink:href="#V"/><use transform="matrix(0.010850694444444444,0,0,0.010850694444444444,43.5546875,0)" xlink:href="#W"/><use transform="matrix(0.010850694444444444,0,0,0.010850694444444444,51.920572916666664,0)" xlink:href="#X"/><use transform="matrix(0.010850694444444444,0,0,0.010850694444444444,64.39887152777777,0)" xlink:href="#Y"/><use transform="matrix(0.010850694444444444,0,0,0.010850694444444444,71.66883680555554,0)" xlink:href="#Z"/><use transform="matrix(0.010850694444444444,0,0,0.010850694444444444,77.05078124999999,0)" xlink:href="#aa"/><use transform="matrix(0.010850694444444444,0,0,0.010850694444444444,90.37543402777776,0)" xlink:href="#ab"/><use transform="matrix(0.010850694444444444,0,0,0.010850694444444444,103.50477430555553,0)" xlink:href="#ac"/><use transform="matrix(0.010850694444444444,0,0,0.010850694444444444,115.23437499999997,0)" xlink:href="#ad"/></g><path fill="#1071e5" d="M635 20c-292 0-500-160-510-396h192c11 142 145 229 315 229 187 0 323-105 323-260 0-161-125-274-346-274H488v-165h121c174 0 294-100 294-254 0-148-104-245-266-245-152 0-291 85-297 230H157c8-234 222-395 484-395 278 0 448 188 448 400 0 168-95 291-247 336v12c190 31 301 169 301 357 0 244-216 425-508 425" id="ae"/><use transform="matrix(0.010850694444444444,0,0,0.010850694444444444,0,0)" xlink:href="#ae" id="n"/></defs></g></svg>