<svg xmlns="http://www.w3.org/2000/svg" xmlns:xlink="http://www.w3.org/1999/xlink" xmlns:lucid="lucid" width="522" height="1257.21"><g transform="translate(-553.6666666666667 -303.5333333333333)" lucid:page-tab-id="0_0"><path d="M723.1 310.53a6 6 0 0 1 6-6h148a6 6 0 0 1 6 6V394a6 6 0 0 1-6 6h-148a6 6 0 0 1-6-6z" stroke="#000" stroke-width="2" fill="#d7faf5"/><use xlink:href="#a" transform="matrix(1,0,0,1,728.1111111111111,309.5333333333333) translate(29.768880208333343 34.86414930555556)"/><use xlink:href="#b" transform="matrix(1,0,0,1,728.1111111111111,309.5333333333333) translate(13.113064236111114 63.275607638888886)"/><use xlink:href="#c" transform="matrix(1,0,0,1,728.1111111111111,309.5333333333333) translate(64.51280381944446 63.275607638888886)"/><path d="M759.78 446a6 6 0 0 1 6-6h74.66a6 6 0 0 1 6 6v93.7a6 6 0 0 1-6 6h-74.66a6 6 0 0 1-6-6z" stroke="#000" stroke-width="2" fill="#e3fae3"/><use xlink:href="#d" transform="matrix(1,0,0,1,764.7777777777777,445) translate(25.38693576388889 27.739149305555554)"/><use xlink:href="#e" transform="matrix(1,0,0,1,764.7777777777777,445) translate(9.951822916666668 56.150607638888886)"/><use xlink:href="#f" transform="matrix(1,0,0,1,764.7777777777777,445) translate(31.49045138888889 56.150607638888886)"/><use xlink:href="#g" transform="matrix(1,0,0,1,764.7777777777777,445) translate(33.11805555555556 84.56206597222221)"/><path d="M803.1 547.7v18.44a6 6 0 0 1-6 6h-52.27a6 6 0 0 0-6 6v.93" stroke="#3a414a" stroke-width="2" fill="none"/><path d="M804.1 547.74h-1.96v-1.03h1.95z" stroke="#3a414a" stroke-width=".05" fill="#3a414a"/><path d="M738.83 594.34l-4.63-14.27h9.27z" stroke="#3a414a" stroke-width="2" fill="#3a414a"/><path d="M695.5 604.57a6 6 0 0 1 6-6h74.67a6 6 0 0 1 6 6v93.72a6 6 0 0 1-6 6H701.5a6 6 0 0 1-6-6z" stroke="#000" stroke-width="2" fill="#fff"/><use xlink:href="#h" transform="matrix(1,0,0,1,700.5000000000001,603.5714285714288) translate(25.869791666666668 27.739149305555554)"/><use xlink:href="#i" transform="matrix(1,0,0,1,700.5000000000001,603.5714285714288) translate(6.050998263888886 56.150607638888886)"/><use xlink:href="#j" transform="matrix(1,0,0,1,700.5000000000001,603.5714285714288) translate(34.36046006944444 56.150607638888886)"/><use xlink:href="#k" transform="matrix(1,0,0,1,700.5000000000001,603.5714285714288) translate(32.906467013888886 84.56206597222221)"/><path d="M803.1 547.7v18.44a6 6 0 0 0 6 6h53.73a6 6 0 0 1 6 6v.93" stroke="#3a414a" stroke-width="2" fill="none"/><path d="M804.1 547.74h-1.96v-1.03h1.95z" stroke="#3a414a" stroke-width=".05" fill="#3a414a"/><path d="M868.83 594.34l-4.63-14.27h9.27z" stroke="#3a414a" stroke-width="2" fill="#3a414a"/><path d="M825.5 604.57a6 6 0 0 1 6-6h74.67a6 6 0 0 1 6 6v93.72a6 6 0 0 1-6 6H831.5a6 6 0 0 1-6-6z" stroke="#000" stroke-width="2" fill="#fff"/><use xlink:href="#l" transform="matrix(1,0,0,1,830.4999999999999,603.5714285714288) translate(25.17534722222222 27.739149305555554)"/><use xlink:href="#m" transform="matrix(1,0,0,1,830.4999999999999,603.5714285714288) translate(5.839409722222221 56.150607638888886)"/><use xlink:href="#n" transform="matrix(1,0,0,1,830.4999999999999,603.5714285714288) translate(34.05121527777778 56.150607638888886)"/><use xlink:href="#o" transform="matrix(1,0,0,1,830.4999999999999,603.5714285714288) translate(32.857638888888886 84.56206597222221)"/><path d="M738.83 706.3v18.4a6 6 0 0 1-6 6h-53a6 6 0 0 0-6 6v.94" stroke="#3a414a" stroke-width="2" fill="none"/><path d="M739.8 706.3h-1.94v-1h1.95z" stroke="#3a414a" stroke-width=".05" fill="#3a414a"/><path d="M673.83 752.9l-4.63-14.26h9.27z" stroke="#3a414a" stroke-width="2" fill="#3a414a"/><path d="M630.5 763.14a6 6 0 0 1 6-6h74.67a6 6 0 0 1 6 6v93.72a6 6 0 0 1-6 6H636.5a6 6 0 0 1-6-6z" stroke="#000" stroke-width="2" fill="#fff"/><use xlink:href="#l" transform="matrix(1,0,0,1,635.4999999999999,762.1428571428571) translate(25.17534722222222 27.739149305555554)"/><use xlink:href="#p" transform="matrix(1,0,0,1,635.4999999999999,762.1428571428571) translate(16.755208333333336 56.150607638888886)"/><use xlink:href="#q" transform="matrix(1,0,0,1,635.4999999999999,762.1428571428571) translate(43.578125 56.150607638888886)"/><use xlink:href="#o" transform="matrix(1,0,0,1,635.4999999999999,762.1428571428571) translate(32.857638888888886 84.56206597222221)"/><path d="M738.83 706.3v18.4a6 6 0 0 0 6 6h28.1a6 6 0 0 1 6 6v.94" stroke="#3a414a" stroke-width="2" fill="none"/><path d="M739.8 706.3h-1.94v-1h1.95z" stroke="#3a414a" stroke-width=".05" fill="#3a414a"/><path d="M778.92 752.9l-4.64-14.26h9.27z" stroke="#3a414a" stroke-width="2" fill="#3a414a"/><path d="M735.58 763.14a6 6 0 0 1 6-6h74.67a6 6 0 0 1 6 6v93.72a6 6 0 0 1-6 6h-74.67a6 6 0 0 1-6-6z" stroke="#000" stroke-width="2" fill="#fff"/><use xlink:href="#r" transform="matrix(1,0,0,1,740.5833333333334,762.1428571428571) translate(25.12651909722222 27.739149305555554)"/><use xlink:href="#s" transform="matrix(1,0,0,1,740.5833333333334,762.1428571428571) translate(9.631727430555557 56.150607638888886)"/><use xlink:href="#t" transform="matrix(1,0,0,1,740.5833333333334,762.1428571428571) translate(37.42035590277778 56.150607638888886)"/><use xlink:href="#u" transform="matrix(1,0,0,1,740.5833333333334,762.1428571428571) translate(36.24305555555556 84.56206597222221)"/><path d="M868.83 706.3v18.4a6 6 0 0 0 6 6H878a6 6 0 0 1 6 6v.94" stroke="#3a414a" stroke-width="2" fill="none"/><path d="M869.8 706.3h-1.94v-1h1.95z" stroke="#3a414a" stroke-width=".05" fill="#3a414a"/><path d="M884 752.9l-4.63-14.26h9.26z" stroke="#3a414a" stroke-width="2" fill="#3a414a"/><path d="M840.67 763.14a6 6 0 0 1 6-6h74.66a6 6 0 0 1 6 6v93.72a6 6 0 0 1-6 6h-74.66a6 6 0 0 1-6-6z" stroke="#000" stroke-width="2" fill="#fff"/><use xlink:href="#r" transform="matrix(1,0,0,1,845.6666666666666,762.1428571428571) translate(25.12651909722222 27.739149305555554)"/><use xlink:href="#v" transform="matrix(1,0,0,1,845.6666666666666,762.1428571428571) translate(12.518012152777779 56.150607638888886)"/><use xlink:href="#w" transform="matrix(1,0,0,1,845.6666666666666,762.1428571428571) translate(40.65386284722222 56.150607638888886)"/><use xlink:href="#u" transform="matrix(1,0,0,1,845.6666666666666,762.1428571428571) translate(36.24305555555556 84.56206597222221)"/><path d="M868.83 706.3v18.4a6 6 0 0 0 6 6h108.25a6 6 0 0 1 6 6v.94" stroke="#3a414a" stroke-width="2" fill="none"/><path d="M869.8 706.3h-1.94v-1h1.95z" stroke="#3a414a" stroke-width=".05" fill="#3a414a"/><path d="M989.08 752.9l-4.63-14.26h9.27z" stroke="#3a414a" stroke-width="2" fill="#3a414a"/><path d="M945.75 763.14a6 6 0 0 1 6-6h74.67a6 6 0 0 1 6 6v93.72a6 6 0 0 1-6 6h-74.67a6 6 0 0 1-6-6z" stroke="#000" stroke-width="2" fill="#edf5ff"/><use xlink:href="#x" transform="matrix(1,0,0,1,950.7500000000001,762.1428571428571) translate(28.51193576388889 27.739149305555554)"/><use xlink:href="#y" transform="matrix(1,0,0,1,950.7500000000001,762.1428571428571) translate(9.089192708333332 56.150607638888886)"/><use xlink:href="#z" transform="matrix(1,0,0,1,950.7500000000001,762.1428571428571) translate(37.44205729166667 56.150607638888886)"/><use xlink:href="#A" transform="matrix(1,0,0,1,950.7500000000001,762.1428571428571) translate(36.24305555555556 84.56206597222221)"/><path d="M673.83 864.86v18.43a6 6 0 0 1-6 6H604a6 6 0 0 0-6 6v.9" stroke="#3a414a" stroke-width="2" fill="none"/><path d="M674.8 864.88h-1.94v-1.02h1.95z" stroke="#3a414a" stroke-width=".05" fill="#3a414a"/><path d="M598 911.48l-4.63-14.27h9.26z" stroke="#3a414a" stroke-width="2" fill="#3a414a"/><path d="M554.67 921.7a6 6 0 0 1 6-6h74.66a6 6 0 0 1 6 6v93.73a6 6 0 0 1-6 6h-74.66a6 6 0 0 1-6-6z" stroke="#000" stroke-width="2" fill="#fff"/><use xlink:href="#r" transform="matrix(1,0,0,1,559.6666666666667,920.7142857142857) translate(25.12651909722222 27.739149305555554)"/><use xlink:href="#B" transform="matrix(1,0,0,1,559.6666666666667,920.7142857142857) translate(11.942925347222221 56.150607638888886)"/><use xlink:href="#C" transform="matrix(1,0,0,1,559.6666666666667,920.7142857142857) translate(40.19813368055556 56.150607638888886)"/><use xlink:href="#u" transform="matrix(1,0,0,1,559.6666666666667,920.7142857142857) translate(36.24305555555556 84.56206597222221)"/><path d="M673.83 864.86v18.43a6 6 0 0 0 6 6h20.5a6 6 0 0 1 6 6v.9" stroke="#3a414a" stroke-width="2" fill="none"/><path d="M674.8 864.88h-1.94v-1.02h1.95z" stroke="#3a414a" stroke-width=".05" fill="#3a414a"/><path d="M706.33 911.48l-4.63-14.27h9.27z" stroke="#3a414a" stroke-width="2" fill="#3a414a"/><path d="M663 921.7a6 6 0 0 1 6-6h74.67a6 6 0 0 1 6 6v93.73a6 6 0 0 1-6 6H669a6 6 0 0 1-6-6z" stroke="#000" stroke-width="2" fill="#edf5ff"/><use xlink:href="#x" transform="matrix(1,0,0,1,668.0000000000001,920.7142857142857) translate(28.51193576388889 27.739149305555554)"/><use xlink:href="#D" transform="matrix(1,0,0,1,668.0000000000001,920.7142857142857) translate(12.794704861111114 56.150607638888886)"/><use xlink:href="#E" transform="matrix(1,0,0,1,668.0000000000001,920.7142857142857) translate(40.89800347222223 56.150607638888886)"/><use xlink:href="#A" transform="matrix(1,0,0,1,668.0000000000001,920.7142857142857) translate(36.24305555555556 84.56206597222221)"/><path d="M778.92 864.86v18.43a6 6 0 0 0 6 6h23.75a6 6 0 0 1 6 6v.9" stroke="#3a414a" stroke-width="2" fill="none"/><path d="M779.9 864.88h-1.96v-1.02h1.95z" stroke="#3a414a" stroke-width=".05" fill="#3a414a"/><path d="M814.67 911.48l-4.64-14.27h9.27z" stroke="#3a414a" stroke-width="2" fill="#3a414a"/><path d="M771.33 921.7a6 6 0 0 1 6-6H852a6 6 0 0 1 6 6v93.73a6 6 0 0 1-6 6h-74.67a6 6 0 0 1-6-6z" stroke="#000" stroke-width="2" fill="#edf5ff"/><g><use xlink:href="#x" transform="matrix(1,0,0,1,776.3333333333334,920.7142857142857) translate(28.51193576388889 27.739149305555554)"/><use xlink:href="#F" transform="matrix(1,0,0,1,776.3333333333334,920.7142857142857) translate(10.711371527777779 56.150607638888886)"/><use xlink:href="#G" transform="matrix(1,0,0,1,776.3333333333334,920.7142857142857) translate(42.98133680555556 56.150607638888886)"/><use xlink:href="#u" transform="matrix(1,0,0,1,776.3333333333334,920.7142857142857) translate(36.24305555555556 84.56206597222221)"/></g><path d="M884 864.86v18.43a6 6 0 0 0 6 6h27a6 6 0 0 1 6 6v.9" stroke="#3a414a" stroke-width="2" fill="none"/><path d="M884.98 864.88H883v-1.02H885z" stroke="#3a414a" stroke-width=".05" fill="#3a414a"/><path d="M923 911.48l-4.63-14.27h9.26z" stroke="#3a414a" stroke-width="2" fill="#3a414a"/><path d="M879.67 921.7a6 6 0 0 1 6-6h74.66a6 6 0 0 1 6 6v93.73a6 6 0 0 1-6 6h-74.66a6 6 0 0 1-6-6z" stroke="#000" stroke-width="2" fill="#edf5ff"/><g><use xlink:href="#x" transform="matrix(1,0,0,1,884.6666666666667,920.7142857142857) translate(28.51193576388889 27.739149305555554)"/><use xlink:href="#H" transform="matrix(1,0,0,1,884.6666666666667,920.7142857142857) translate(13.559678819444443 56.150607638888886)"/><use xlink:href="#I" transform="matrix(1,0,0,1,884.6666666666667,920.7142857142857) translate(39.61219618055556 56.150607638888886)"/><use xlink:href="#A" transform="matrix(1,0,0,1,884.6666666666667,920.7142857142857) translate(36.24305555555556 84.56206597222221)"/></g><path d="M884 864.86v18.43a6 6 0 0 0 6 6h135.33a6 6 0 0 1 6 6v.9" stroke="#3a414a" stroke-width="2" fill="none"/><path d="M884.98 864.88H883v-1.02H885z" stroke="#3a414a" stroke-width=".05" fill="#3a414a"/><path d="M1031.33 911.48l-4.63-14.27h9.27z" stroke="#3a414a" stroke-width="2" fill="#3a414a"/><path d="M988 921.7a6 6 0 0 1 6-6h74.67a6 6 0 0 1 6 6v93.73a6 6 0 0 1-6 6H994a6 6 0 0 1-6-6z" stroke="#000" stroke-width="2" fill="#edf5ff"/><g><use xlink:href="#J" transform="matrix(1,0,0,1,993.0000000000001,920.7142857142857) translate(25.403211805555557 27.739149305555554)"/><use xlink:href="#K" transform="matrix(1,0,0,1,993.0000000000001,920.7142857142857) translate(13.494574652777779 56.150607638888886)"/><use xlink:href="#L" transform="matrix(1,0,0,1,993.0000000000001,920.7142857142857) translate(46.31792534722222 56.150607638888886)"/><use xlink:href="#M" transform="matrix(1,0,0,1,993.0000000000001,920.7142857142857) translate(33.13433159722222 84.56206597222221)"/></g><path d="M598 1023.43v31.35" stroke="#3a414a" stroke-width="2" fill="none"/><path d="M598.98 1023.45H597v-1.02H599z" stroke="#3a414a" stroke-width=".05" fill="#3a414a"/><path d="M598 1070.05l-4.63-14.27h9.26z" stroke="#3a414a" stroke-width="2" fill="#3a414a"/><path d="M554.67 1080.3a6 6 0 0 1 6-6h74.66a6 6 0 0 1 6 6v93.7a6 6 0 0 1-6 6h-74.66a6 6 0 0 1-6-6z" stroke="#000" stroke-width="2" fill="#edf5ff"/><g><use xlink:href="#x" transform="matrix(1,0,0,1,559.6666666666667,1079.2857142857144) translate(28.51193576388889 27.739149305555554)"/><use xlink:href="#N" transform="matrix(1,0,0,1,559.6666666666667,1079.2857142857144) translate(16.348307291666668 56.150607638888886)"/><use xlink:href="#O" transform="matrix(1,0,0,1,559.6666666666667,1079.2857142857144) translate(49.074001736111114 56.150607638888886)"/><use xlink:href="#u" transform="matrix(1,0,0,1,559.6666666666667,1079.2857142857144) translate(36.24305555555556 84.56206597222221)"/></g><path d="M598 1023.43v18.43a6 6 0 0 0 6 6h93.08a6 6 0 0 1 6 6v.92" stroke="#3a414a" stroke-width="2" fill="none"/><path d="M598.98 1023.45H597v-1.02H599z" stroke="#3a414a" stroke-width=".05" fill="#3a414a"/><path d="M703.08 1070.05l-4.63-14.27h9.27z" stroke="#3a414a" stroke-width="2" fill="#3a414a"/><path d="M659.75 1080.3a6 6 0 0 1 6-6h74.67a6 6 0 0 1 6 6v93.7a6 6 0 0 1-6 6h-74.67a6 6 0 0 1-6-6z" stroke="#000" stroke-width="2" fill="#edf5ff"/><g><use xlink:href="#J" transform="matrix(1,0,0,1,664.75,1079.2857142857144) translate(25.403211805555557 27.739149305555554)"/><use xlink:href="#P" transform="matrix(1,0,0,1,664.75,1079.2857142857144) translate(13.722439236111114 56.150607638888886)"/><use xlink:href="#Q" transform="matrix(1,0,0,1,664.75,1079.2857142857144) translate(45.05924479166667 56.150607638888886)"/><use xlink:href="#M" transform="matrix(1,0,0,1,664.75,1079.2857142857144) translate(33.13433159722222 84.56206597222221)"/></g><path d="M580 1238.86a6 6 0 0 1 6-6h465.33a6 6 0 0 1 6 6v314.9a6 6 0 0 1-6 5.98H586a6 6 0 0 1-6-6z" stroke="#000" stroke-width="2" fill="#fff0fb"/><g><use xlink:href="#R" transform="matrix(1,0,0,1,585,1237.8571428571431) translate(8.0180121527778 23.692274305555554)"/><use xlink:href="#S" transform="matrix(1,0,0,1,585,1237.8571428571431) translate(59.5805121527778 23.692274305555554)"/><use xlink:href="#T" transform="matrix(1,0,0,1,585,1237.8571428571431) translate(105.62000868055557 23.692274305555554)"/><use xlink:href="#U" transform="matrix(1,0,0,1,585,1237.8571428571431) translate(143.87955729166669 23.692274305555554)"/><use xlink:href="#V" transform="matrix(1,0,0,1,585,1237.8571428571431) translate(238.931640625 23.692274305555554)"/><use xlink:href="#W" transform="matrix(1,0,0,1,585,1237.8571428571431) translate(325.3140190972222 23.692274305555554)"/><use xlink:href="#X" transform="matrix(1,0,0,1,585,1237.8571428571431) translate(366.275390625 23.692274305555554)"/><use xlink:href="#Y" transform="matrix(1,0,0,1,585,1237.8571428571431) translate(9.835503472222229 52.44227430555556)"/><use xlink:href="#Z" transform="matrix(1,0,0,1,585,1237.8571428571431) translate(45.72960069444445 52.44227430555556)"/><use xlink:href="#T" transform="matrix(1,0,0,1,585,1237.8571428571431) translate(115.87934027777777 52.44227430555556)"/><use xlink:href="#aa" transform="matrix(1,0,0,1,585,1237.8571428571431) translate(154.13888888888889 52.44227430555556)"/><use xlink:href="#ab" transform="matrix(1,0,0,1,585,1237.8571428571431) translate(217.94097222222223 52.44227430555556)"/><use xlink:href="#ac" transform="matrix(1,0,0,1,585,1237.8571428571431) translate(269.5143229166667 52.44227430555556)"/><use xlink:href="#T" transform="matrix(1,0,0,1,585,1237.8571428571431) translate(363.39453125 52.44227430555556)"/><use xlink:href="#ad" transform="matrix(1,0,0,1,585,1237.8571428571431) translate(401.6540798611111 52.44227430555556)"/><use xlink:href="#ae" transform="matrix(1,0,0,1,585,1237.8571428571431) translate(19.34613715277777 81.19227430555556)"/><use xlink:href="#af" transform="matrix(1,0,0,1,585,1237.8571428571431) translate(44.67165798611111 81.19227430555556)"/><use xlink:href="#ag" transform="matrix(1,0,0,1,585,1237.8571428571431) translate(162.6404079861111 81.19227430555556)"/><use xlink:href="#ah" transform="matrix(1,0,0,1,585,1237.8571428571431) translate(243.99891493055551 81.19227430555556)"/><use xlink:href="#ai" transform="matrix(1,0,0,1,585,1237.8571428571431) translate(300.4876302083333 81.19227430555556)"/><use xlink:href="#aj" transform="matrix(1,0,0,1,585,1237.8571428571431) translate(343.60828993055554 81.19227430555556)"/><use xlink:href="#ak" transform="matrix(1,0,0,1,585,1237.8571428571431) translate(380.88042534722223 81.19227430555556)"/><use xlink:href="#al" transform="matrix(1,0,0,1,585,1237.8571428571431) translate(433.4303385416667 81.19227430555556)"/><use xlink:href="#am" transform="matrix(1,0,0,1,585,1237.8571428571431) translate(10.041666666666686 109.94227430555556)"/><use xlink:href="#an" transform="matrix(1,0,0,1,585,1237.8571428571431) translate(124.19097222222223 109.94227430555556)"/><use xlink:href="#T" transform="matrix(1,0,0,1,585,1237.8571428571431) translate(174.57074652777777 109.94227430555556)"/><use xlink:href="#ao" transform="matrix(1,0,0,1,585,1237.8571428571431) translate(212.83029513888889 109.94227430555556)"/><use xlink:href="#ap" transform="matrix(1,0,0,1,585,1237.8571428571431) translate(267.74565972222223 109.94227430555556)"/><use xlink:href="#ai" transform="matrix(1,0,0,1,585,1237.8571428571431) translate(324.52734375 109.94227430555556)"/><use xlink:href="#aq" transform="matrix(1,0,0,1,585,1237.8571428571431) translate(367.64800347222223 109.94227430555556)"/><use xlink:href="#ar" transform="matrix(1,0,0,1,585,1237.8571428571431) translate(440.48871527777777 109.94227430555556)"/><use xlink:href="#T" transform="matrix(1,0,0,1,585,1237.8571428571431) translate(17.4906684027778 138.69227430555554)"/><use xlink:href="#as" transform="matrix(1,0,0,1,585,1237.8571428571431) translate(55.75021701388891 138.69227430555554)"/><use xlink:href="#at" transform="matrix(1,0,0,1,585,1237.8571428571431) translate(97.02625868055557 138.69227430555554)"/><use xlink:href="#T" transform="matrix(1,0,0,1,585,1237.8571428571431) translate(120.1056857638889 138.69227430555554)"/><use xlink:href="#au" transform="matrix(1,0,0,1,585,1237.8571428571431) translate(158.365234375 138.69227430555554)"/><use xlink:href="#ae" transform="matrix(1,0,0,1,585,1237.8571428571431) translate(206.58572048611111 138.69227430555554)"/><use xlink:href="#av" transform="matrix(1,0,0,1,585,1237.8571428571431) translate(231.91124131944446 138.69227430555554)"/><use xlink:href="#aw" transform="matrix(1,0,0,1,585,1237.8571428571431) translate(287.9116753472223 138.69227430555554)"/><use xlink:href="#at" transform="matrix(1,0,0,1,585,1237.8571428571431) translate(309.048828125 138.69227430555554)"/><use xlink:href="#ax" transform="matrix(1,0,0,1,585,1237.8571428571431) translate(332.12825520833337 138.69227430555554)"/><use xlink:href="#ay" transform="matrix(1,0,0,1,585,1237.8571428571431) translate(431.6616753472222 138.69227430555554)"/><use xlink:href="#az" transform="matrix(1,0,0,1,585,1237.8571428571431) translate(4.621744791666686 167.44227430555554)"/><use xlink:href="#aA" transform="matrix(1,0,0,1,585,1237.8571428571431) translate(57.50802951388891 167.44227430555554)"/><use xlink:href="#T" transform="matrix(1,0,0,1,585,1237.8571428571431) translate(83.05056423611113 167.44227430555554)"/><use xlink:href="#aB" transform="matrix(1,0,0,1,585,1237.8571428571431) translate(121.31011284722223 167.44227430555554)"/><use xlink:href="#aC" transform="matrix(1,0,0,1,585,1237.8571428571431) translate(196.1799045138889 167.44227430555554)"/><use xlink:href="#aD" transform="matrix(1,0,0,1,585,1237.8571428571431) translate(266.69856770833337 167.44227430555554)"/><use xlink:href="#aE" transform="matrix(1,0,0,1,585,1237.8571428571431) translate(381.0540364583333 167.44227430555554)"/><use xlink:href="#aF" transform="matrix(1,0,0,1,585,1237.8571428571431) translate(234 196.19227430555554)"/><use xlink:href="#aG" transform="matrix(1,0,0,1,585,1237.8571428571431) translate(86.42513020833334 224.60373263888886)"/><use xlink:href="#aH" transform="matrix(1,0,0,1,585,1237.8571428571431) translate(151.60525173611111 224.60373263888886)"/><use xlink:href="#T" transform="matrix(1,0,0,1,585,1237.8571428571431) translate(265.5483940972222 224.60373263888886)"/><use xlink:href="#aI" transform="matrix(1,0,0,1,585,1237.8571428571431) translate(303.8079427083333 224.60373263888886)"/><use xlink:href="#aJ" transform="matrix(1,0,0,1,585,1237.8571428571431) translate(76.02473958333334 253.01519097222217)"/><use xlink:href="#aH" transform="matrix(1,0,0,1,585,1237.8571428571431) translate(123.37717013888889 253.01519097222217)"/><use xlink:href="#T" transform="matrix(1,0,0,1,585,1237.8571428571431) translate(237.32031249999997 253.01519097222217)"/><use xlink:href="#aK" transform="matrix(1,0,0,1,585,1237.8571428571431) translate(275.5798611111111 253.01519097222217)"/><use xlink:href="#aL" transform="matrix(1,0,0,1,585,1237.8571428571431) translate(330.4409722222222 253.01519097222217)"/><use xlink:href="#aM" transform="matrix(1,0,0,1,585,1237.8571428571431) translate(71.51627604166669 281.4266493055555)"/><use xlink:href="#aN" transform="matrix(1,0,0,1,585,1237.8571428571431) translate(165.62434895833334 281.4266493055555)"/><use xlink:href="#T" transform="matrix(1,0,0,1,585,1237.8571428571431) translate(268.68424479166663 281.4266493055555)"/><use xlink:href="#aO" transform="matrix(1,0,0,1,585,1237.8571428571431) translate(306.94379340277777 281.4266493055555)"/><use xlink:href="#aP" transform="matrix(1,0,0,1,585,1237.8571428571431) translate(40.73828125 310.1766493055555)"/><use xlink:href="#aQ" transform="matrix(1,0,0,1,585,1237.8571428571431) translate(114.51215277777779 310.1766493055555)"/><use xlink:href="#aN" transform="matrix(1,0,0,1,585,1237.8571428571431) translate(213.47048611111114 310.1766493055555)"/><use xlink:href="#aR" transform="matrix(1,0,0,1,585,1237.8571428571431) translate(316.53038194444446 310.1766493055555)"/></g><defs><path d="M865-1355v130H204v424h531v134H204V0H74v-1355h791" id="aS"/><path d="M240-1205c-40 0-79-36-79-76s39-76 79-76c41 0 78 35 78 76s-37 76-78 76zM47-957h257V0H174v-827H47v-130" id="aT"/><path d="M922-478c0-187-188-371-375-371S209-669 209-478c0 190 155 370 343 370 187 0 370-183 370-370zm130 0c0 255-245 500-500 500-147 0-263-65-348-196V0H72v-1355h132v572c82-131 196-196 343-196 256 0 505 245 505 501" id="aU"/><path d="M881-477c0-189-160-372-351-372-189 0-348 181-348 372s160 369 348 369 351-180 351-369zm-829-1c0-256 220-501 478-501 257 0 481 246 481 502S785 22 530 22C276 22 52-223 52-478" id="aV"/><path d="M545-849c-196 0-341 171-341 371V0H74v-957h130v174c77-131 190-196 341-196 285 0 449 200 449 493V0H862v-478c2-219-106-371-317-371" id="aW"/><path d="M497-108c108 0 303-51 303-143v-220c-2 23-338 19-365 38-104 20-200 82-200 182 0 95 87 143 262 143zm28-871c161 0 405 100 405 248v579c0 27 16 41 48 44-1 21-3 64-5 129-72-4-122-33-151-87-82 59-188 88-318 88C233 22 97-70 97-253c0-145 124-253 248-288 70-20 368-9 427-58 17-9 27-25 29-46-1 7-1-13-1-60 0-84-168-147-260-147-166 0-269 58-309 174l-126-27c31-178 203-274 420-274" id="aX"/><path d="M51-478c0-256 221-509 478-501 201 6 353 126 426 274H803c-71-96-163-144-274-144-189 0-348 180-348 372 0 191 160 369 348 369 100 0 189-44 266-132h155C852-65 712 22 529 22 275 22 51-223 51-478" id="aY"/><g id="a"><use transform="matrix(0.010850694444444444,0,0,0.010850694444444444,0,0)" xlink:href="#aS"/><use transform="matrix(0.010850694444444444,0,0,0.010850694444444444,10.015190972222221,0)" xlink:href="#aT"/><use transform="matrix(0.010850694444444444,0,0,0.010850694444444444,14.35546875,0)" xlink:href="#aU"/><use transform="matrix(0.010850694444444444,0,0,0.010850694444444444,26.70355902777778,0)" xlink:href="#aV"/><use transform="matrix(0.010850694444444444,0,0,0.010850694444444444,38.91059027777778,0)" xlink:href="#aW"/><use transform="matrix(0.010850694444444444,0,0,0.010850694444444444,51.03081597222222,0)" xlink:href="#aX"/><use transform="matrix(0.010850694444444444,0,0,0.010850694444444444,62.59765625,0)" xlink:href="#aY"/><use transform="matrix(0.010850694444444444,0,0,0.010850694444444444,74.35980902777777,0)" xlink:href="#aY"/><use transform="matrix(0.010850694444444444,0,0,0.010850694444444444,86.12196180555554,0)" xlink:href="#aT"/></g><path d="M132 24c-76-289-76-715 0-1004 58-221 148-346 273-375v109c-131 55-197 311-197 768s66 713 197 768v109C280 370 190 245 132 24" id="aZ"/><path d="M558-1225V0H428v-1225H21v-130h954v130H558" id="ba"/><path d="M395 0L60-957h137l259 739 167-476-93-263h137l262 744 258-744h138L991 0H866L692-498 516 0H395" id="bb"/><g id="b"><use transform="matrix(0.010850694444444444,0,0,0.010850694444444444,0,0)" xlink:href="#aZ"/><use transform="matrix(0.010850694444444444,0,0,0.010850694444444444,5.262586805555555,0)" xlink:href="#ba"/><use transform="matrix(0.010850694444444444,0,0,0.010850694444444444,16.764322916666664,0)" xlink:href="#bb"/><use transform="matrix(0.010850694444444444,0,0,0.010850694444444444,31.336805555555554,0)" xlink:href="#aV"/></g><path d="M880-366c0-134-176-225-319-225H204v461h357c139 5 319-103 319-236zm-69-609c0-143-156-250-304-250H204v500h299c154 4 308-103 308-250zm195 609C1006-152 783 0 561 0H74v-1355h426c233-5 441 155 441 380 0 122-53 220-159 294 149 71 224 176 224 315" id="bc"/><path d="M550-827c-191 0-346 159-346 349V0H72v-957h132v174c85-116 198-174 339-174h204v174c-69-29-134-44-197-44" id="bd"/><path d="M543-849c-184 0-339 185-339 371V0H74v-1355h130v572c84-131 197-196 339-196 250 0 421 235 421 493V0H834v-478c4-195-107-371-291-371" id="be"/><path d="M329-978c76 289 76 715 0 1004-58 221-148 346-273 375V292c131-55 197-311 197-768s-66-713-197-768v-109c125 29 215 154 273 375" id="bf"/><g id="c"><use transform="matrix(0.010850694444444444,0,0,0.010850694444444444,0,0)" xlink:href="#bc"/><use transform="matrix(0.010850694444444444,0,0,0.010850694444444444,12.152777777777777,0)" xlink:href="#bd"/><use transform="matrix(0.010850694444444444,0,0,0.010850694444444444,20.58376736111111,0)" xlink:href="#aX"/><use transform="matrix(0.010850694444444444,0,0,0.010850694444444444,32.150607638888886,0)" xlink:href="#aW"/><use transform="matrix(0.010850694444444444,0,0,0.010850694444444444,44.27083333333333,0)" xlink:href="#aY"/><use transform="matrix(0.010850694444444444,0,0,0.010850694444444444,56.03298611111111,0)" xlink:href="#be"/><use transform="matrix(0.010850694444444444,0,0,0.010850694444444444,67.43706597222221,0)" xlink:href="#bf"/></g><path d="M431-1222c-103-2-191 65-188 167v98h188v130H243V0H111v-827H33v-130h78c-7-146 8-241 94-317 61-53 135-81 226-81v133" id="bg"/><path d="M767-88c0-183-157-292-347-292-99 0-178 30-239 91H74v-668h673v130H204v366c308-152 693 59 693 373 0 280-200 487-480 487-131 0-247-48-347-145V50c60 112 190 215 345 219 198 5 352-159 352-357" id="bh"/><g id="d"><use transform="matrix(0.010850694444444444,0,0,0.010850694444444444,0,0)" xlink:href="#bg"/><use transform="matrix(0.010850694444444444,0,0,0.010850694444444444,5.262586805555555,0)" xlink:href="#aZ"/><use transform="matrix(0.010850694444444444,0,0,0.010850694444444444,10.52517361111111,0)" xlink:href="#bh"/><use transform="matrix(0.010850694444444444,0,0,0.010850694444444444,21.2890625,0)" xlink:href="#bf"/></g><path d="M53-760v-98c81 0 124-33 128-99h90v827h70V0H53v-130h88v-630H53" id="bi"/><path d="M86-101c0-65 55-113 120-113 56 0 111 53 111 109 0 139-105 285-233 290l-15-58c81-31 123-70 126-115-60-2-109-50-109-113" id="bj"/><g id="e"><use transform="matrix(0.010850694444444444,0,0,0.010850694444444444,0,0)" xlink:href="#aZ"/><use transform="matrix(0.010850694444444444,0,0,0.010850694444444444,5.262586805555555,0)" xlink:href="#bi"/><use transform="matrix(0.010850694444444444,0,0,0.010850694444444444,9.776475694444443,0)" xlink:href="#bj"/></g><path d="M216-1355l315 543 320-543h152L612-684 1006 0H855L531-551 213 0H57l399-684-391-671h151" id="bk"/><path d="M49-130h171v-1096H49v-129h479v129H352v1096h176V0H49v-130" id="bl"/><path d="M170-1355L508-232l343-1123h134L580 0H439L33-1355h137" id="bm"/><g id="f"><use transform="matrix(0.010850694444444444,0,0,0.010850694444444444,0,0)" xlink:href="#bk"/><use transform="matrix(0.010850694444444444,0,0,0.010850694444444444,12.250434027777777,0)" xlink:href="#bl"/><use transform="matrix(0.010850694444444444,0,0,0.010850694444444444,18.89105902777778,0)" xlink:href="#bm"/><use transform="matrix(0.010850694444444444,0,0,0.010850694444444444,30.62065972222222,0)" xlink:href="#bf"/></g><use transform="matrix(0.010850694444444444,0,0,0.010850694444444444,0,0)" xlink:href="#bh" id="g"/><path d="M572-130v-673L154-130h418zm130-827v827h100V0H702v399H572V0H11v-130l504-827h187" id="bn"/><g id="h"><use transform="matrix(0.010850694444444444,0,0,0.010850694444444444,0,0)" xlink:href="#bg"/><use transform="matrix(0.010850694444444444,0,0,0.010850694444444444,5.262586805555555,0)" xlink:href="#aZ"/><use transform="matrix(0.010850694444444444,0,0,0.010850694444444444,10.52517361111111,0)" xlink:href="#bn"/><use transform="matrix(0.010850694444444444,0,0,0.010850694444444444,20.323350694444443,0)" xlink:href="#bf"/></g><path d="M494-979c203 0 420 127 420 319 0 109-70 192-210 251-53 22-170 52-351 90-101 22-152 85-152 189h701V0H68v-130c0-167 83-269 250-305 133-28 223-50 271-67 129-45 194-97 194-158 0-133-117-186-288-189-126-2-301 76-294 193H69c-7-196 219-323 425-323" id="bo"/><g id="i"><use transform="matrix(0.010850694444444444,0,0,0.010850694444444444,0,0)" xlink:href="#aZ"/><use transform="matrix(0.010850694444444444,0,0,0.010850694444444444,5.262586805555555,0)" xlink:href="#bo"/><use transform="matrix(0.010850694444444444,0,0,0.010850694444444444,16.54730902777778,0)" xlink:href="#bj"/></g><g id="j"><use transform="matrix(0.010850694444444444,0,0,0.010850694444444444,0,0)" xlink:href="#bm"/><use transform="matrix(0.010850694444444444,0,0,0.010850694444444444,11.729600694444445,0)" xlink:href="#bl"/><use transform="matrix(0.010850694444444444,0,0,0.010850694444444444,18.370225694444443,0)" xlink:href="#bl"/><use transform="matrix(0.010850694444444444,0,0,0.010850694444444444,25.010850694444443,0)" xlink:href="#bl"/><use transform="matrix(0.010850694444444444,0,0,0.010850694444444444,31.651475694444443,0)" xlink:href="#bf"/></g><path d="M698-616c0-135-113-233-251-233-70 0-129 20-177 60h-4l-109-75c79-77 175-115 289-115 214 0 384 152 384 363 0 119-80 231-181 250C799-318 912-188 916 0c4 226-207 387-438 387S33 226 40 0h132c0 56 22 112 65 170s124 87 241 87c163 0 308-108 308-264 0-184-169-294-362-290v-127c144 1 274-60 274-192" id="bp"/><use transform="matrix(0.010850694444444444,0,0,0.010850694444444444,0,0)" xlink:href="#bp" id="k"/><g id="l"><use transform="matrix(0.010850694444444444,0,0,0.010850694444444444,0,0)" xlink:href="#bg"/><use transform="matrix(0.010850694444444444,0,0,0.010850694444444444,5.262586805555555,0)" xlink:href="#aZ"/><use transform="matrix(0.010850694444444444,0,0,0.010850694444444444,10.52517361111111,0)" xlink:href="#bp"/><use transform="matrix(0.010850694444444444,0,0,0.010850694444444444,21.712239583333332,0)" xlink:href="#bf"/></g><g id="m"><use transform="matrix(0.010850694444444444,0,0,0.010850694444444444,0,0)" xlink:href="#aZ"/><use transform="matrix(0.010850694444444444,0,0,0.010850694444444444,5.262586805555555,0)" xlink:href="#bp"/><use transform="matrix(0.010850694444444444,0,0,0.010850694444444444,16.44965277777778,0)" xlink:href="#bj"/></g><g id="n"><use transform="matrix(0.010850694444444444,0,0,0.010850694444444444,0,0)" xlink:href="#bk"/><use transform="matrix(0.010850694444444444,0,0,0.010850694444444444,12.250434027777777,0)" xlink:href="#bl"/><use transform="matrix(0.010850694444444444,0,0,0.010850694444444444,18.89105902777778,0)" xlink:href="#bl"/><use transform="matrix(0.010850694444444444,0,0,0.010850694444444444,25.53168402777778,0)" xlink:href="#bl"/><use transform="matrix(0.010850694444444444,0,0,0.010850694444444444,32.17230902777778,0)" xlink:href="#bf"/></g><use transform="matrix(0.010850694444444444,0,0,0.010850694444444444,0,0)" xlink:href="#bo" id="o"/><g id="p"><use transform="matrix(0.010850694444444444,0,0,0.010850694444444444,0,0)" xlink:href="#aZ"/><use transform="matrix(0.010850694444444444,0,0,0.010850694444444444,5.262586805555555,0)" xlink:href="#bn"/><use transform="matrix(0.010850694444444444,0,0,0.010850694444444444,15.060763888888888,0)" xlink:href="#bj"/></g><g id="q"><use transform="matrix(0.010850694444444444,0,0,0.010850694444444444,0,0)" xlink:href="#bm"/><use transform="matrix(0.010850694444444444,0,0,0.010850694444444444,11.729600694444445,0)" xlink:href="#bf"/></g><g id="r"><use transform="matrix(0.010850694444444444,0,0,0.010850694444444444,0,0)" xlink:href="#bg"/><use transform="matrix(0.010850694444444444,0,0,0.010850694444444444,5.262586805555555,0)" xlink:href="#aZ"/><use transform="matrix(0.010850694444444444,0,0,0.010850694444444444,10.52517361111111,0)" xlink:href="#bo"/><use transform="matrix(0.010850694444444444,0,0,0.010850694444444444,21.809895833333332,0)" xlink:href="#bf"/></g><g id="s"><use transform="matrix(0.010850694444444444,0,0,0.010850694444444444,0,0)" xlink:href="#aZ"/><use transform="matrix(0.010850694444444444,0,0,0.010850694444444444,5.262586805555555,0)" xlink:href="#bh"/><use transform="matrix(0.010850694444444444,0,0,0.010850694444444444,16.026475694444443,0)" xlink:href="#bj"/></g><g id="t"><use transform="matrix(0.010850694444444444,0,0,0.010850694444444444,0,0)" xlink:href="#bm"/><use transform="matrix(0.010850694444444444,0,0,0.010850694444444444,11.729600694444445,0)" xlink:href="#bl"/><use transform="matrix(0.010850694444444444,0,0,0.010850694444444444,18.370225694444443,0)" xlink:href="#bl"/><use transform="matrix(0.010850694444444444,0,0,0.010850694444444444,25.010850694444443,0)" xlink:href="#bf"/></g><use transform="matrix(0.010850694444444444,0,0,0.010850694444444444,0,0)" xlink:href="#bi" id="u"/><path d="M927-391C927-171 712 0 485 0 296 0 164-73 89-218c-32-63-48-167-48-312 0-411 280-838 676-823v130c-274-7-516 282-536 544 110-73 211-110 304-110 245 0 442 160 442 398zm-132-6c0-146-132-262-277-262-180 0-337 85-337 253 0 175 126 276 305 276 171 0 309-101 309-267" id="bq"/><g id="v"><use transform="matrix(0.010850694444444444,0,0,0.010850694444444444,0,0)" xlink:href="#aZ"/><use transform="matrix(0.010850694444444444,0,0,0.010850694444444444,5.262586805555555,0)" xlink:href="#bq"/><use transform="matrix(0.010850694444444444,0,0,0.010850694444444444,16.373697916666664,0)" xlink:href="#bj"/></g><g id="w"><use transform="matrix(0.010850694444444444,0,0,0.010850694444444444,0,0)" xlink:href="#bk"/><use transform="matrix(0.010850694444444444,0,0,0.010850694444444444,12.250434027777777,0)" xlink:href="#bl"/><use transform="matrix(0.010850694444444444,0,0,0.010850694444444444,18.89105902777778,0)" xlink:href="#bf"/></g><g id="x"><use transform="matrix(0.010850694444444444,0,0,0.010850694444444444,0,0)" xlink:href="#bg"/><use transform="matrix(0.010850694444444444,0,0,0.010850694444444444,5.262586805555555,0)" xlink:href="#aZ"/><use transform="matrix(0.010850694444444444,0,0,0.010850694444444444,10.52517361111111,0)" xlink:href="#bi"/><use transform="matrix(0.010850694444444444,0,0,0.010850694444444444,15.0390625,0)" xlink:href="#bf"/></g><path d="M36-957h935L296 399H148L753-827H36v-130" id="br"/><g id="y"><use transform="matrix(0.010850694444444444,0,0,0.010850694444444444,0,0)" xlink:href="#aZ"/><use transform="matrix(0.010850694444444444,0,0,0.010850694444444444,5.262586805555555,0)" xlink:href="#br"/><use transform="matrix(0.010850694444444444,0,0,0.010850694444444444,16.590711805555557,0)" xlink:href="#bj"/></g><g id="z"><use transform="matrix(0.010850694444444444,0,0,0.010850694444444444,0,0)" xlink:href="#bk"/><use transform="matrix(0.010850694444444444,0,0,0.010850694444444444,12.250434027777777,0)" xlink:href="#bl"/><use transform="matrix(0.010850694444444444,0,0,0.010850694444444444,18.89105902777778,0)" xlink:href="#bl"/><use transform="matrix(0.010850694444444444,0,0,0.010850694444444444,25.53168402777778,0)" xlink:href="#bf"/></g><use transform="matrix(0.010850694444444444,0,0,0.010850694444444444,0,0)" xlink:href="#bi" id="A"/><path d="M485-783c132 0 237-91 237-220 0-114-122-222-237-222s-237 108-237 222c0 129 105 220 237 220zm306 392c0-149-151-257-306-257-156 0-306 107-306 257 0 149 153 261 306 261s306-112 306-261zm130 0C921-164 717 0 485 0S49-164 49-391c0-146 69-257 208-334-93-70-139-163-139-278 0-189 176-352 367-352s367 163 367 352c0 115-46 208-139 278 139 77 208 188 208 334" id="bs"/><g id="B"><use transform="matrix(0.010850694444444444,0,0,0.010850694444444444,0,0)" xlink:href="#aZ"/><use transform="matrix(0.010850694444444444,0,0,0.010850694444444444,5.262586805555555,0)" xlink:href="#bs"/><use transform="matrix(0.010850694444444444,0,0,0.010850694444444444,16.493055555555557,0)" xlink:href="#bj"/></g><g id="C"><use transform="matrix(0.010850694444444444,0,0,0.010850694444444444,0,0)" xlink:href="#bl"/><use transform="matrix(0.010850694444444444,0,0,0.010850694444444444,6.640625,0)" xlink:href="#bl"/><use transform="matrix(0.010850694444444444,0,0,0.010850694444444444,13.28125,0)" xlink:href="#bl"/><use transform="matrix(0.010850694444444444,0,0,0.010850694444444444,19.921875,0)" xlink:href="#bf"/></g><path d="M40-588c0-220 215-391 442-391 173 0 303 74 390 222 36 61 54 167 54 318 0 416-275 855-674 840V271c275 8 514-306 534-571-110 73-211 110-304 110-245 0-442-160-442-398zm132 6c0 146 132 262 277 262 180 0 337-85 337-253 0-158-144-276-305-276-171 0-309 101-309 267" id="bt"/><g id="D"><use transform="matrix(0.010850694444444444,0,0,0.010850694444444444,0,0)" xlink:href="#aZ"/><use transform="matrix(0.010850694444444444,0,0,0.010850694444444444,5.262586805555555,0)" xlink:href="#bt"/><use transform="matrix(0.010850694444444444,0,0,0.010850694444444444,16.341145833333332,0)" xlink:href="#bj"/></g><g id="E"><use transform="matrix(0.010850694444444444,0,0,0.010850694444444444,0,0)" xlink:href="#bl"/><use transform="matrix(0.010850694444444444,0,0,0.010850694444444444,6.640625,0)" xlink:href="#bm"/><use transform="matrix(0.010850694444444444,0,0,0.010850694444444444,18.370225694444443,0)" xlink:href="#bf"/></g><path d="M466-979c200 0 408 176 408 373v255C884-154 666 22 466 22 264 22 59-152 59-351v-255c-8-199 205-373 407-373zm-1 871c134 0 279-110 279-241v-255c6-134-142-245-279-245-135 0-276 104-276 235v274c-6 127 146 232 276 232" id="bu"/><g id="F"><use transform="matrix(0.010850694444444444,0,0,0.010850694444444444,0,0)" xlink:href="#aZ"/><use transform="matrix(0.010850694444444444,0,0,0.010850694444444444,5.262586805555555,0)" xlink:href="#bi"/><use transform="matrix(0.010850694444444444,0,0,0.010850694444444444,9.776475694444443,0)" xlink:href="#bu"/><use transform="matrix(0.010850694444444444,0,0,0.010850694444444444,20.5078125,0)" xlink:href="#bj"/></g><g id="G"><use transform="matrix(0.010850694444444444,0,0,0.010850694444444444,0,0)" xlink:href="#bm"/><use transform="matrix(0.010850694444444444,0,0,0.010850694444444444,11.729600694444445,0)" xlink:href="#bl"/><use transform="matrix(0.010850694444444444,0,0,0.010850694444444444,18.370225694444443,0)" xlink:href="#bf"/></g><g id="H"><use transform="matrix(0.010850694444444444,0,0,0.010850694444444444,0,0)" xlink:href="#aZ"/><use transform="matrix(0.010850694444444444,0,0,0.010850694444444444,5.262586805555555,0)" xlink:href="#bi"/><use transform="matrix(0.010850694444444444,0,0,0.010850694444444444,9.776475694444443,0)" xlink:href="#bi"/><use transform="matrix(0.010850694444444444,0,0,0.010850694444444444,14.290364583333332,0)" xlink:href="#bj"/></g><g id="I"><use transform="matrix(0.010850694444444444,0,0,0.010850694444444444,0,0)" xlink:href="#bl"/><use transform="matrix(0.010850694444444444,0,0,0.010850694444444444,6.640625,0)" xlink:href="#bk"/><use transform="matrix(0.010850694444444444,0,0,0.010850694444444444,18.89105902777778,0)" xlink:href="#bf"/></g><g id="J"><use transform="matrix(0.010850694444444444,0,0,0.010850694444444444,0,0)" xlink:href="#bg"/><use transform="matrix(0.010850694444444444,0,0,0.010850694444444444,5.262586805555555,0)" xlink:href="#aZ"/><use transform="matrix(0.010850694444444444,0,0,0.010850694444444444,10.52517361111111,0)" xlink:href="#bu"/><use transform="matrix(0.010850694444444444,0,0,0.010850694444444444,21.256510416666664,0)" xlink:href="#bf"/></g><g id="K"><use transform="matrix(0.010850694444444444,0,0,0.010850694444444444,0,0)" xlink:href="#aZ"/><use transform="matrix(0.010850694444444444,0,0,0.010850694444444444,5.262586805555555,0)" xlink:href="#bi"/><use transform="matrix(0.010850694444444444,0,0,0.010850694444444444,9.776475694444443,0)" xlink:href="#bo"/><use transform="matrix(0.010850694444444444,0,0,0.010850694444444444,21.061197916666664,0)" xlink:href="#bj"/></g><g id="L"><use transform="matrix(0.010850694444444444,0,0,0.010850694444444444,0,0)" xlink:href="#bk"/><use transform="matrix(0.010850694444444444,0,0,0.010850694444444444,12.250434027777777,0)" xlink:href="#bf"/></g><use transform="matrix(0.010850694444444444,0,0,0.010850694444444444,0,0)" xlink:href="#bu" id="M"/><g id="N"><use transform="matrix(0.010850694444444444,0,0,0.010850694444444444,0,0)" xlink:href="#aZ"/><use transform="matrix(0.010850694444444444,0,0,0.010850694444444444,5.262586805555555,0)" xlink:href="#bi"/><use transform="matrix(0.010850694444444444,0,0,0.010850694444444444,9.776475694444443,0)" xlink:href="#bp"/><use transform="matrix(0.010850694444444444,0,0,0.010850694444444444,20.963541666666664,0)" xlink:href="#bj"/></g><g id="O"><use transform="matrix(0.010850694444444444,0,0,0.010850694444444444,0,0)" xlink:href="#bl"/><use transform="matrix(0.010850694444444444,0,0,0.010850694444444444,6.640625,0)" xlink:href="#bf"/></g><g id="P"><use transform="matrix(0.010850694444444444,0,0,0.010850694444444444,0,0)" xlink:href="#aZ"/><use transform="matrix(0.010850694444444444,0,0,0.010850694444444444,5.262586805555555,0)" xlink:href="#bi"/><use transform="matrix(0.010850694444444444,0,0,0.010850694444444444,9.776475694444443,0)" xlink:href="#bn"/><use transform="matrix(0.010850694444444444,0,0,0.010850694444444444,19.574652777777775,0)" xlink:href="#bj"/></g><g id="Q"><use transform="matrix(0.010850694444444444,0,0,0.010850694444444444,0,0)" xlink:href="#bl"/><use transform="matrix(0.010850694444444444,0,0,0.010850694444444444,6.640625,0)" xlink:href="#bl"/><use transform="matrix(0.010850694444444444,0,0,0.010850694444444444,13.28125,0)" xlink:href="#bf"/></g><path d="M227-1355L895-225v-1130h132V0H873L204-1135V0H72v-1355h155" id="bv"/><path d="M406 0C279 4 176-105 176-232v-595H26v-130c75 0 120-17 137-51 9-17 13-69 13-155h130v206h241v130H306v595c0 70 49 105 146 105 18 0 78-3 95-3V0H406" id="bw"/><path d="M52-478c0-256 228-501 485-501 264 0 489 248 480 516H180c0 180 174 355 357 355 148 0 301-110 347-219l130 23C955-140 749 17 537 22 280 28 52-222 52-478zm815-115c-38-129-172-257-330-256-158 0-295 130-340 256h670" id="bx"/><g id="R"><use transform="matrix(0.010850694444444444,0,0,0.010850694444444444,0,0)" xlink:href="#bv"/><use transform="matrix(0.010850694444444444,0,0,0.010850694444444444,12.651909722222221,0)" xlink:href="#aV"/><use transform="matrix(0.010850694444444444,0,0,0.010850694444444444,24.85894097222222,0)" xlink:href="#bw"/><use transform="matrix(0.010850694444444444,0,0,0.010850694444444444,31.49956597222222,0)" xlink:href="#bx"/></g><g id="S"><use transform="matrix(0.010850694444444444,0,0,0.010850694444444444,0,0)" xlink:href="#be"/><use transform="matrix(0.010850694444444444,0,0,0.010850694444444444,11.40407986111111,0)" xlink:href="#aV"/><use transform="matrix(0.010850694444444444,0,0,0.010850694444444444,22.569444444444443,0)" xlink:href="#bb"/></g><g id="T"><use transform="matrix(0.010850694444444444,0,0,0.010850694444444444,0,0)" xlink:href="#bw"/><use transform="matrix(0.010850694444444444,0,0,0.010850694444444444,6.640625,0)" xlink:href="#be"/><use transform="matrix(0.010850694444444444,0,0,0.010850694444444444,18.196614583333332,0)" xlink:href="#bx"/></g><path d="M290 0C167 2 80-98 108-232l123-595H81l27-130c75 0 124-16 147-49 13-19 29-71 46-157h130l-43 206h241l-27 130H361c-41 207-94 408-126 619-16 106 129 73 223 78L431 0H290" id="by"/><path d="M337-783c109-116 234-174 375-174h204l-36 174c-163-76-329-52-456 57-80 68-130 151-150 248L175 0H43l198-957h132" id="bz"/><path d="M189-379c0 145 106 274 248 272 229-3 373-133 416-329l89-403c-203-10-373 23-516 98-158 83-237 204-237 362zM449 21C225 21 60-154 60-380c0-199 92-352 277-459 153-89 336-133 549-133 140 0 211 22 197 90L893 16 762 0l17-83C684-14 574 21 449 21" id="bA"/><path d="M154-984l256 823 346-478c53-73 79-133 79-182 0-36-16-60-48-72l48-120c163 55 160 264 61 396C762-437 603-205 443 14 409 61 342 55 325 0L34-936" id="bB"/><path d="M641-849c-221 0-456 191-484 383 143-37 356-95 641-171 51-14 80-60 83-113l-9-24c-37-50-114-75-231-75zm-19-130c198 0 391 67 391 241 0 95-79 199-171 224-152 42-381 102-686 183 24 136 145 221 307 221 142 0 269-65 382-194l92 92C836-90 661 18 462 23 221 29 21-155 21-393c0-288 314-586 601-586" id="bC"/><path d="M417 20C223 20 19-66 41-254l118-27c-25 122 145 170 269 170 125 0 323-70 323-182 0-39-36-66-101-94-47-20-331-58-380-77-69-27-135-100-136-186-3-220 224-325 465-325 187 0 408 88 380 274l-119 27c-3-116-105-174-305-174-134 0-287 61-287 181 0 55 39 95 119 109 82 15 166 20 249 34 104 17 176 58 217 115 20 28 30 63 30 104 0 197-256 325-466 325" id="bD"/><path d="M292-1355h132L143 0H11" id="bE"/><g id="U"><use transform="matrix(0.010850694444444444,0,0,0.010850694444444444,0,0)" xlink:href="#by"/><use transform="matrix(0.010850694444444444,0,0,0.010850694444444444,6.911892361111111,0)" xlink:href="#bz"/><use transform="matrix(0.010850694444444444,0,0,0.010850694444444444,15.37543402777778,0)" xlink:href="#bA"/><use transform="matrix(0.010850694444444444,0,0,0.010850694444444444,27.77777777777778,0)" xlink:href="#bB"/><use transform="matrix(0.010850694444444444,0,0,0.010850694444444444,38.27039930555556,0)" xlink:href="#bC"/><use transform="matrix(0.010850694444444444,0,0,0.010850694444444444,49.90234375,0)" xlink:href="#bz"/><use transform="matrix(0.010850694444444444,0,0,0.010850694444444444,59.21223958333333,0)" xlink:href="#bD"/><use transform="matrix(0.010850694444444444,0,0,0.010850694444444444,70.26909722222221,0)" xlink:href="#bA"/><use transform="matrix(0.010850694444444444,0,0,0.010850694444444444,82.67144097222221,0)" xlink:href="#bE"/></g><path d="M86-1355h132V0H86v-1355" id="bF"/><path d="M483-108c191 0 291-169 291-370v-479h130V0H774v-137C701-31 604 22 483 22 219 22 67-183 67-456v-501h130v501c-4 182 112 348 286 348" id="bG"/><path d="M-2-478c0-256 249-501 505-501 147 0 261 65 343 196v-572h132V0H846v-174C761-43 645 22 498 22 243 22-2-223-2-478zm843 0c0-191-151-371-338-371S128-665 128-478s183 370 370 370c188 0 343-180 343-370" id="bH"/><path d="M898-260C898-89 674 20 489 20 280 20 75-78 57-254l126-27c2 114 176 171 313 171 113 0 265-50 265-150 0-60-40-102-120-127-21-6-104-22-252-42-166-23-242-71-302-158-134-339 365-481 654-327 94 50 148 120 161 213l-126 27c-25-116-134-174-329-174-116 0-251 47-251 149 0 73 54 127 164 147 83 15 168 18 253 29 83 11 158 46 225 101 40 33 60 87 60 162" id="bI"/><g id="V"><use transform="matrix(0.010850694444444444,0,0,0.010850694444444444,0,0)" xlink:href="#aT"/><use transform="matrix(0.010850694444444444,0,0,0.010850694444444444,4.340277777777778,0)" xlink:href="#aW"/><use transform="matrix(0.010850694444444444,0,0,0.010850694444444444,16.46050347222222,0)" xlink:href="#aY"/><use transform="matrix(0.010850694444444444,0,0,0.010850694444444444,28.22265625,0)" xlink:href="#bF"/><use transform="matrix(0.010850694444444444,0,0,0.010850694444444444,32.07465277777778,0)" xlink:href="#bG"/><use transform="matrix(0.010850694444444444,0,0,0.010850694444444444,43.359375,0)" xlink:href="#bH"/><use transform="matrix(0.010850694444444444,0,0,0.010850694444444444,55.436197916666664,0)" xlink:href="#bx"/><use transform="matrix(0.010850694444444444,0,0,0.010850694444444444,67.64322916666666,0)" xlink:href="#bI"/></g><path d="M651-959l122 734c100-170 201-341 300-512 40-69 57-142-17-175l48-120c87 34 131 96 131 187 0 58-34 145-103 262L794-5c-23 53-110 33-118-14l-78-465L307-9c-24 53-111 33-118-14L48-928l126-27 114 730 278-453-41-254" id="bJ"/><path d="M664-846c-234 0-462 241-462 478 0 150 130 261 284 261 231 0 472-224 472-457 0-166-128-282-294-282zM492 23C265 23 69-143 74-367c6-246 98-373 250-490 105-81 221-118 340-118 233 0 423 176 423 407 0 300-295 591-595 591" id="bK"/><g id="W"><use transform="matrix(0.010850694444444444,0,0,0.010850694444444444,0,0)" xlink:href="#by"/><use transform="matrix(0.010850694444444444,0,0,0.010850694444444444,6.911892361111111,0)" xlink:href="#bJ"/><use transform="matrix(0.010850694444444444,0,0,0.010850694444444444,20.735677083333332,0)" xlink:href="#bK"/></g><path d="M936-581c0-145-106-274-248-272-229 3-374 133-416 329l-89 412c206 8 376-24 518-100 157-85 235-208 235-369zM676-981c226 0 389 176 389 401 0 201-92 356-275 465C638-24 454 21 239 21 99 21 28-1 42-69l271-1288h132l-99 480c95-69 205-104 330-104" id="bL"/><path d="M943-513c35-176-82-336-243-335-227 2-374 133-416 329L173 1H45l198-957h132l-17 84c95-69 205-104 330-104 252 0 438 207 384 472L968 1H837" id="bM"/><path d="M636-851c-239 0-464 241-464 478 0 150 131 261 283 261 129 0 240-48 334-144l108 75C773-48 628 18 462 18 235 18 39-148 44-372c6-245 98-373 250-490 162-124 367-162 556-65 70 36 121 89 158 155l-121 51c-55-87-138-130-251-130" id="bN"/><path d="M937-514c35-176-82-336-243-335-227 2-374 133-416 329L167 0H39l280-1353h132l-99 480c95-69 205-104 330-104 252 0 438 207 384 472L962 0H831" id="bO"/><path d="M182 0C123 0 72-49 72-109c0-61 49-111 110-111s109 50 109 111C291-49 242 0 182 0" id="bP"/><g id="X"><use transform="matrix(0.010850694444444444,0,0,0.010850694444444444,0,0)" xlink:href="#bL"/><use transform="matrix(0.010850694444444444,0,0,0.010850694444444444,11.79470486111111,0)" xlink:href="#bz"/><use transform="matrix(0.010850694444444444,0,0,0.010850694444444444,20.25824652777778,0)" xlink:href="#bA"/><use transform="matrix(0.010850694444444444,0,0,0.010850694444444444,31.65147569444445,0)" xlink:href="#bM"/><use transform="matrix(0.010850694444444444,0,0,0.010850694444444444,44.03211805555556,0)" xlink:href="#bN"/><use transform="matrix(0.010850694444444444,0,0,0.010850694444444444,54.42708333333333,0)" xlink:href="#bO"/><use transform="matrix(0.010850694444444444,0,0,0.010850694444444444,66.78602430555556,0)" xlink:href="#bC"/><use transform="matrix(0.010850694444444444,0,0,0.010850694444444444,78.41796875,0)" xlink:href="#bD"/><use transform="matrix(0.010850694444444444,0,0,0.010850694444444444,89.47482638888889,0)" xlink:href="#bP"/></g><path d="M1188-1355h137L1082 0H941L688-1071 431 0H296L53-1355h135L376-296l246-1059h129l252 1059" id="bQ"/><g id="Y"><use transform="matrix(0.010850694444444444,0,0,0.010850694444444444,0,0)" xlink:href="#bQ"/><use transform="matrix(0.010850694444444444,0,0,0.010850694444444444,15.831163194444445,0)" xlink:href="#bx"/></g><g id="Z"><use transform="matrix(0.010850694444444444,0,0,0.010850694444444444,0,0)" xlink:href="#aY"/><use transform="matrix(0.010850694444444444,0,0,0.010850694444444444,11.762152777777777,0)" xlink:href="#bd"/><use transform="matrix(0.010850694444444444,0,0,0.010850694444444444,20.19314236111111,0)" xlink:href="#bx"/><use transform="matrix(0.010850694444444444,0,0,0.010850694444444444,32.400173611111114,0)" xlink:href="#aX"/><use transform="matrix(0.010850694444444444,0,0,0.010850694444444444,43.44618055555556,0)" xlink:href="#bw"/><use transform="matrix(0.010850694444444444,0,0,0.010850694444444444,50.08680555555556,0)" xlink:href="#bx"/></g><g id="aa"><use transform="matrix(0.010850694444444444,0,0,0.010850694444444444,0,0)" xlink:href="#bx"/><use transform="matrix(0.010850694444444444,0,0,0.010850694444444444,12.20703125,0)" xlink:href="#aW"/><use transform="matrix(0.010850694444444444,0,0,0.010850694444444444,24.327256944444443,0)" xlink:href="#bw"/><use transform="matrix(0.010850694444444444,0,0,0.010850694444444444,30.967881944444443,0)" xlink:href="#aT"/><use transform="matrix(0.010850694444444444,0,0,0.010850694444444444,35.30815972222222,0)" xlink:href="#bd"/><use transform="matrix(0.010850694444444444,0,0,0.010850694444444444,43.73914930555556,0)" xlink:href="#bx"/></g><g id="ab"><use transform="matrix(0.010850694444444444,0,0,0.010850694444444444,0,0)" xlink:href="#bw"/><use transform="matrix(0.010850694444444444,0,0,0.010850694444444444,6.640625,0)" xlink:href="#bd"/><use transform="matrix(0.010850694444444444,0,0,0.010850694444444444,15.071614583333332,0)" xlink:href="#bx"/><use transform="matrix(0.010850694444444444,0,0,0.010850694444444444,27.278645833333336,0)" xlink:href="#bx"/><use transform="matrix(0.010850694444444444,0,0,0.010850694444444444,39.485677083333336,0)" xlink:href="#bP"/></g><path d="M204-1355v708h570v-708h130V0H774v-517H204V0H74v-1355h130" id="bR"/><path d="M178-957l334 813 331-813h142L595 0H424L33-957h145" id="bS"/><g id="ac"><use transform="matrix(0.010850694444444444,0,0,0.010850694444444444,0,0)" xlink:href="#bR"/><use transform="matrix(0.010850694444444444,0,0,0.010850694444444444,11.284722222222221,0)" xlink:href="#aV"/><use transform="matrix(0.010850694444444444,0,0,0.010850694444444444,22.450086805555554,0)" xlink:href="#bb"/><use transform="matrix(0.010850694444444444,0,0,0.010850694444444444,38.064236111111114,0)" xlink:href="#bx"/><use transform="matrix(0.010850694444444444,0,0,0.010850694444444444,49.75043402777778,0)" xlink:href="#bS"/><use transform="matrix(0.010850694444444444,0,0,0.010850694444444444,60.611979166666664,0)" xlink:href="#bx"/><use transform="matrix(0.010850694444444444,0,0,0.010850694444444444,72.81901041666666,0)" xlink:href="#bd"/><use transform="matrix(0.010850694444444444,0,0,0.010850694444444444,82.11805555555554,0)" xlink:href="#bj"/></g><path d="M173-379c0 146 106 275 248 273 226-3 375-133 416-329l86-412c-205-8-374 25-516 101-156 85-234 207-234 367zM433 22C209 22 44-153 44-379c0-204 92-360 276-467 168-97 378-142 630-130l79-380h133c-41 202-137 659-287 1372L746 1l17-83C668-13 558 22 433 22" id="bT"/><g id="ad"><use transform="matrix(0.010850694444444444,0,0,0.010850694444444444,0,0)" xlink:href="#bK"/><use transform="matrix(0.010850694444444444,0,0,0.010850694444444444,12.369791666666666,0)" xlink:href="#bz"/><use transform="matrix(0.010850694444444444,0,0,0.010850694444444444,22.352430555555554,0)" xlink:href="#bT"/><use transform="matrix(0.010850694444444444,0,0,0.010850694444444444,34.895833333333336,0)" xlink:href="#bC"/><use transform="matrix(0.010850694444444444,0,0,0.010850694444444444,46.52777777777778,0)" xlink:href="#bz"/></g><g id="ae"><use transform="matrix(0.010850694444444444,0,0,0.010850694444444444,0,0)" xlink:href="#aV"/><use transform="matrix(0.010850694444444444,0,0,0.010850694444444444,12.20703125,0)" xlink:href="#bg"/></g><path d="M936-559c0-193-157-291-361-291-76 0-148 5-216 15L214-137c50 22 114 33 193 33 247 0 529-215 529-455zm43-253C1266-432 821 14 413 14c-81 0-154-15-221-44L99 416c-29-3-72-9-129-16L220-804c-34 12-64 25-90 39L73-882c55-29 114-50 177-65 3-18 9-45 17-82l129 16-9 44c77-11 286-11 371 13 87 24 163 68 221 144" id="bU"/><path d="M288-1267c0-45 51-90 96-90 43 0 64 20 64 60 0 47-49 92-96 92-43 0-64-21-64-62zM107-957h257L166 0H36l171-827H80" id="bV"/><path d="M262-377c0 145 105 274 248 272 229-3 373-133 416-329l89-403c-203-10-373 23-516 98-158 83-237 204-237 362zM522 23c-224 0-389-175-389-398 0-200 92-354 276-461 152-89 335-134 550-134 140 0 212 22 197 90L984-81c-46 251-276 483-562 482-197-1-347-116-390-277 38-21 77-44 117-69 36 145 126 217 271 217 189 0 415-182 432-353C757-12 647 23 522 23" id="bW"/><g id="af"><use transform="matrix(0.010850694444444444,0,0,0.010850694444444444,0,0)" xlink:href="#bU"/><use transform="matrix(0.010850694444444444,0,0,0.010850694444444444,12.543402777777777,0)" xlink:href="#bz"/><use transform="matrix(0.010850694444444444,0,0,0.010850694444444444,22.526041666666664,0)" xlink:href="#bK"/><use transform="matrix(0.010850694444444444,0,0,0.010850694444444444,34.89583333333333,0)" xlink:href="#bN"/><use transform="matrix(0.010850694444444444,0,0,0.010850694444444444,46.02864583333333,0)" xlink:href="#bC"/><use transform="matrix(0.010850694444444444,0,0,0.010850694444444444,57.66059027777778,0)" xlink:href="#bD"/><use transform="matrix(0.010850694444444444,0,0,0.010850694444444444,68.71744791666666,0)" xlink:href="#bD"/><use transform="matrix(0.010850694444444444,0,0,0.010850694444444444,79.77430555555554,0)" xlink:href="#bV"/><use transform="matrix(0.010850694444444444,0,0,0.010850694444444444,84.79817708333331,0)" xlink:href="#bM"/><use transform="matrix(0.010850694444444444,0,0,0.010850694444444444,97.17881944444441,0)" xlink:href="#bW"/></g><path d="M455-849c-173 0-251 180-251 371V0H74v-957h130v106c60-85 144-128 251-128 146 0 245 69 296 208 37-139 135-208 295-208 233 0 349 167 349 501V0h-130v-478c0-247-73-371-219-371-169 0-241 180-241 371V0H675l-1-478c0-247-73-371-219-371" id="bX"/><g id="ag"><use transform="matrix(0.010850694444444444,0,0,0.010850694444444444,0,0)" xlink:href="#bX"/><use transform="matrix(0.010850694444444444,0,0,0.010850694444444444,16.786024305555554,0)" xlink:href="#aX"/><use transform="matrix(0.010850694444444444,0,0,0.010850694444444444,27.83203125,0)" xlink:href="#bw"/><use transform="matrix(0.010850694444444444,0,0,0.010850694444444444,34.47265625,0)" xlink:href="#bw"/><use transform="matrix(0.010850694444444444,0,0,0.010850694444444444,41.11328125,0)" xlink:href="#bx"/><use transform="matrix(0.010850694444444444,0,0,0.010850694444444444,53.3203125,0)" xlink:href="#bd"/><use transform="matrix(0.010850694444444444,0,0,0.010850694444444444,62.619357638888886,0)" xlink:href="#bI"/></g><g id="ah"><use transform="matrix(0.010850694444444444,0,0,0.010850694444444444,0,0)" xlink:href="#be"/><use transform="matrix(0.010850694444444444,0,0,0.010850694444444444,11.555989583333332,0)" xlink:href="#bx"/><use transform="matrix(0.010850694444444444,0,0,0.010850694444444444,23.763020833333332,0)" xlink:href="#bd"/><use transform="matrix(0.010850694444444444,0,0,0.010850694444444444,32.194010416666664,0)" xlink:href="#bx"/><use transform="matrix(0.010850694444444444,0,0,0.010850694444444444,44.401041666666664,0)" xlink:href="#bP"/></g><g id="ai"><use transform="matrix(0.010850694444444444,0,0,0.010850694444444444,0,0)" xlink:href="#ba"/><use transform="matrix(0.010850694444444444,0,0,0.010850694444444444,11.50173611111111,0)" xlink:href="#be"/><use transform="matrix(0.010850694444444444,0,0,0.010850694444444444,23.057725694444443,0)" xlink:href="#bx"/></g><path d="M162-956h172c27-126 45-202 56-228 43-96 120-168 248-168 93 0 156 41 187 124l-120 48c-9-29-32-43-71-43-58 0-100 34-127 101-7 17-21 72-40 166h195l-27 130H440L230 182c-17 98-104 218-210 216l5-129c42-28 69-69 80-122l202-973H135" id="bY"/><g id="aj"><use transform="matrix(0.010850694444444444,0,0,0.010850694444444444,0,0)" xlink:href="#bE"/><use transform="matrix(0.010850694444444444,0,0,0.010850694444444444,4.524739583333333,0)" xlink:href="#bC"/><use transform="matrix(0.010850694444444444,0,0,0.010850694444444444,16.15668402777778,0)" xlink:href="#bY"/><use transform="matrix(0.010850694444444444,0,0,0.010850694444444444,22.50434027777778,0)" xlink:href="#by"/></g><g id="ak"><use transform="matrix(0.010850694444444444,0,0,0.010850694444444444,0,0)" xlink:href="#bN"/><use transform="matrix(0.010850694444444444,0,0,0.010850694444444444,10.394965277777779,0)" xlink:href="#bO"/><use transform="matrix(0.010850694444444444,0,0,0.010850694444444444,22.60199652777778,0)" xlink:href="#bV"/><use transform="matrix(0.010850694444444444,0,0,0.010850694444444444,27.62586805555556,0)" xlink:href="#bE"/><use transform="matrix(0.010850694444444444,0,0,0.010850694444444444,32.15060763888889,0)" xlink:href="#bT"/></g><g id="al"><use transform="matrix(0.010850694444444444,0,0,0.010850694444444444,0,0)" xlink:href="#aT"/><use transform="matrix(0.010850694444444444,0,0,0.010850694444444444,4.340277777777778,0)" xlink:href="#bI"/></g><path d="M209-478c0 191 154 370 342 370 187 0 348-181 348-370S737-849 551-849c-188 0-342 180-342 371zm820 0c0 258-224 500-478 500-147 0-262-65-347-196v573H74V-957h130v174c85-131 200-196 347-196 256 0 478 244 478 501" id="bZ"/><g id="am"><use transform="matrix(0.010850694444444444,0,0,0.010850694444444444,0,0)" xlink:href="#bZ"/><use transform="matrix(0.010850694444444444,0,0,0.010850694444444444,12.076822916666666,0)" xlink:href="#bd"/><use transform="matrix(0.010850694444444444,0,0,0.010850694444444444,20.16059027777778,0)" xlink:href="#aV"/><use transform="matrix(0.010850694444444444,0,0,0.010850694444444444,32.36762152777778,0)" xlink:href="#aY"/><use transform="matrix(0.010850694444444444,0,0,0.010850694444444444,44.12977430555556,0)" xlink:href="#bx"/><use transform="matrix(0.010850694444444444,0,0,0.010850694444444444,56.33680555555555,0)" xlink:href="#bI"/><use transform="matrix(0.010850694444444444,0,0,0.010850694444444444,67.22005208333333,0)" xlink:href="#bI"/><use transform="matrix(0.010850694444444444,0,0,0.010850694444444444,78.1032986111111,0)" xlink:href="#bx"/><use transform="matrix(0.010850694444444444,0,0,0.010850694444444444,90.31032986111111,0)" xlink:href="#bH"/><use transform="matrix(0.010850694444444444,0,0,0.010850694444444444,102.38715277777777,0)" xlink:href="#bj"/></g><g id="an"><use transform="matrix(0.010850694444444444,0,0,0.010850694444444444,0,0)" xlink:href="#bw"/><use transform="matrix(0.010850694444444444,0,0,0.010850694444444444,6.640625,0)" xlink:href="#be"/><use transform="matrix(0.010850694444444444,0,0,0.010850694444444444,18.196614583333332,0)" xlink:href="#bx"/><use transform="matrix(0.010850694444444444,0,0,0.010850694444444444,30.403645833333332,0)" xlink:href="#aW"/></g><g id="ao"><use transform="matrix(0.010850694444444444,0,0,0.010850694444444444,0,0)" xlink:href="#bz"/><use transform="matrix(0.010850694444444444,0,0,0.010850694444444444,9.98263888888889,0)" xlink:href="#bV"/><use transform="matrix(0.010850694444444444,0,0,0.010850694444444444,15.006510416666668,0)" xlink:href="#bW"/><use transform="matrix(0.010850694444444444,0,0,0.010850694444444444,27.940538194444443,0)" xlink:href="#bO"/><use transform="matrix(0.010850694444444444,0,0,0.010850694444444444,40.14756944444444,0)" xlink:href="#by"/></g><g id="ap"><use transform="matrix(0.010850694444444444,0,0,0.010850694444444444,0,0)" xlink:href="#bN"/><use transform="matrix(0.010850694444444444,0,0,0.010850694444444444,10.394965277777779,0)" xlink:href="#bO"/><use transform="matrix(0.010850694444444444,0,0,0.010850694444444444,22.60199652777778,0)" xlink:href="#bV"/><use transform="matrix(0.010850694444444444,0,0,0.010850694444444444,27.62586805555556,0)" xlink:href="#bE"/><use transform="matrix(0.010850694444444444,0,0,0.010850694444444444,32.15060763888889,0)" xlink:href="#bT"/><use transform="matrix(0.010850694444444444,0,0,0.010850694444444444,44.69401041666667,0)" xlink:href="#bP"/></g><g id="aq"><use transform="matrix(0.010850694444444444,0,0,0.010850694444444444,0,0)" xlink:href="#bU"/><use transform="matrix(0.010850694444444444,0,0,0.010850694444444444,12.543402777777777,0)" xlink:href="#bA"/><use transform="matrix(0.010850694444444444,0,0,0.010850694444444444,24.94574652777778,0)" xlink:href="#bz"/><use transform="matrix(0.010850694444444444,0,0,0.010850694444444444,34.060329861111114,0)" xlink:href="#bC"/><use transform="matrix(0.010850694444444444,0,0,0.010850694444444444,45.69227430555556,0)" xlink:href="#bM"/><use transform="matrix(0.010850694444444444,0,0,0.010850694444444444,58.07291666666667,0)" xlink:href="#by"/></g><g id="ar"><use transform="matrix(0.010850694444444444,0,0,0.010850694444444444,0,0)" xlink:href="#aV"/><use transform="matrix(0.010850694444444444,0,0,0.010850694444444444,12.20703125,0)" xlink:href="#bg"/></g><g id="as"><use transform="matrix(0.010850694444444444,0,0,0.010850694444444444,0,0)" xlink:href="#bw"/><use transform="matrix(0.010850694444444444,0,0,0.010850694444444444,6.640625,0)" xlink:href="#bb"/><use transform="matrix(0.010850694444444444,0,0,0.010850694444444444,21.21310763888889,0)" xlink:href="#aV"/></g><g id="at"><use transform="matrix(0.010850694444444444,0,0,0.010850694444444444,0,0)" xlink:href="#aT"/><use transform="matrix(0.010850694444444444,0,0,0.010850694444444444,4.340277777777778,0)" xlink:href="#bI"/></g><path d="M21-282l157-35c-10 78 23 127 101 150 63 19 111 20 141 20 106 0 291-63 291-158 0-14-6-28-13-35-62-68-245-62-363-88s-220-89-224-223c-7-225 226-336 471-336 204 0 411 96 389 301l-153 34c-3-115-96-173-278-173-113 0-260 53-260 153 0 49 37 82 113 94 78 12 158 18 237 31 101 17 172 59 215 118 22 30 33 68 33 113-1 120-50 172-139 236C511 85-11 56 21-282" id="ca"/><path d="M435 20C179 20-17-188 39-461l104-508h168L203-447c-33 170 66 304 217 304 210 0 348-123 386-305l110-521h166L877 18 713-3l11-54c-78 46-187 77-289 77" id="cb"/><path d="M1122-826c-166 0-256 181-290 345L733 0H565l100-488c12-59 18-108 18-148 0-127-45-190-136-190-176 0-266 181-300 345L148 0H-19l200-970h167l-12 64c70-57 149-85 237-85 132 0 211 55 238 164 77-109 190-164 337-164 194 0 278 136 278 331 0 157-86 488-119 660h-168l101-488c19-93 29-155 29-184 0-103-49-154-147-154" id="cc"/><g id="au"><use transform="matrix(0.010850694444444444,0,0,0.010850694444444444,0,0)" xlink:href="#ca"/><use transform="matrix(0.010850694444444444,0,0,0.010850694444444444,11.382378472222221,0)" xlink:href="#cb"/><use transform="matrix(0.010850694444444444,0,0,0.010850694444444444,23.990885416666664,0)" xlink:href="#cc"/></g><path d="M201-147c190 7 357-25 471-95 147-91 219-207 219-342 0-139-93-246-222-246-209 0-346 127-385 305-27 126-55 252-83 378zm455-846c243 0 400 159 400 407 0 202-91 358-272 468C632-26 448 20 233 20 81 20 4-7 21-90l267-1269h169l-91 444c85-52 182-78 290-78" id="cd"/><path d="M896-586c0-134-128-241-264-237-203 7-394 175-424 357-7 40-8 67-8 82-5 186 186 279 379 223 163-48 317-225 317-425zM464 22C228 22 29-149 36-383c7-227 88-349 238-471 111-91 231-133 356-133 235 0 431 177 431 413 0 305-292 596-597 596" id="ce"/><path d="M237 0C123 2 33-81 36-195c0-19 40-223 120-610H10l34-165c74 0 122-16 145-49 13-17 27-68 43-151h167l-42 200h234l-34 165H323c-27 128-119 501-119 581 0 39 20 59 60 59h161L391 0H237" id="cf"/><path d="M661-989c255 0 453 207 396 482L952 0H784l108-522c33-172-65-304-217-304-210 0-346 123-385 305L179 0H14l280-1355h169l-91 443c76-46 189-77 289-77" id="cg"/><g id="av"><use transform="matrix(0.010850694444444444,0,0,0.010850694444444444,0,0)" xlink:href="#cd"/><use transform="matrix(0.010850694444444444,0,0,0.010850694444444444,12.120225694444445,0)" xlink:href="#ce"/><use transform="matrix(0.010850694444444444,0,0,0.010850694444444444,24.641927083333336,0)" xlink:href="#cf"/><use transform="matrix(0.010850694444444444,0,0,0.010850694444444444,31.380208333333336,0)" xlink:href="#cg"/><use transform="matrix(0.010850694444444444,0,0,0.010850694444444444,43.91276041666667,0)" xlink:href="#bP"/></g><g id="aw"><use transform="matrix(0.010850694444444444,0,0,0.010850694444444444,0,0)" xlink:href="#bl"/><use transform="matrix(0.010850694444444444,0,0,0.010850694444444444,6.640625,0)" xlink:href="#bw"/></g><g id="ax"><use transform="matrix(0.010850694444444444,0,0,0.010850694444444444,0,0)" xlink:href="#aT"/><use transform="matrix(0.010850694444444444,0,0,0.010850694444444444,4.340277777777778,0)" xlink:href="#bX"/><use transform="matrix(0.010850694444444444,0,0,0.010850694444444444,21.126302083333332,0)" xlink:href="#bZ"/><use transform="matrix(0.010850694444444444,0,0,0.010850694444444444,33.203125,0)" xlink:href="#aV"/><use transform="matrix(0.010850694444444444,0,0,0.010850694444444444,45.41015625,0)" xlink:href="#bd"/><use transform="matrix(0.010850694444444444,0,0,0.010850694444444444,54.709201388888886,0)" xlink:href="#bw"/><use transform="matrix(0.010850694444444444,0,0,0.010850694444444444,61.349826388888886,0)" xlink:href="#aX"/><use transform="matrix(0.010850694444444444,0,0,0.010850694444444444,72.91666666666666,0)" xlink:href="#aW"/><use transform="matrix(0.010850694444444444,0,0,0.010850694444444444,85.0368923611111,0)" xlink:href="#bw"/></g><g id="ay"><use transform="matrix(0.010850694444444444,0,0,0.010850694444444444,0,0)" xlink:href="#bw"/><use transform="matrix(0.010850694444444444,0,0,0.010850694444444444,6.640625,0)" xlink:href="#aV"/></g><g id="az"><use transform="matrix(0.010850694444444444,0,0,0.010850694444444444,0,0)" xlink:href="#bI"/><use transform="matrix(0.010850694444444444,0,0,0.010850694444444444,10.883246527777777,0)" xlink:href="#bw"/><use transform="matrix(0.010850694444444444,0,0,0.010850694444444444,17.52387152777778,0)" xlink:href="#aX"/><use transform="matrix(0.010850694444444444,0,0,0.010850694444444444,29.09071180555556,0)" xlink:href="#bd"/><use transform="matrix(0.010850694444444444,0,0,0.010850694444444444,38.38975694444444,0)" xlink:href="#bw"/></g><g id="aA"><use transform="matrix(0.010850694444444444,0,0,0.010850694444444444,0,0)" xlink:href="#aX"/><use transform="matrix(0.010850694444444444,0,0,0.010850694444444444,11.046006944444443,0)" xlink:href="#bw"/></g><g id="aB"><use transform="matrix(0.010850694444444444,0,0,0.010850694444444444,0,0)" xlink:href="#cd"/><use transform="matrix(0.010850694444444444,0,0,0.010850694444444444,12.120225694444445,0)" xlink:href="#ce"/><use transform="matrix(0.010850694444444444,0,0,0.010850694444444444,24.641927083333336,0)" xlink:href="#cf"/><use transform="matrix(0.010850694444444444,0,0,0.010850694444444444,31.380208333333336,0)" xlink:href="#cf"/><use transform="matrix(0.010850694444444444,0,0,0.010850694444444444,38.118489583333336,0)" xlink:href="#ce"/><use transform="matrix(0.010850694444444444,0,0,0.010850694444444444,50.64019097222223,0)" xlink:href="#cc"/></g><g id="aC"><use transform="matrix(0.010850694444444444,0,0,0.010850694444444444,0,0)" xlink:href="#aU"/><use transform="matrix(0.010850694444444444,0,0,0.010850694444444444,12.348090277777777,0)" xlink:href="#bx"/><use transform="matrix(0.010850694444444444,0,0,0.010850694444444444,24.55512152777778,0)" xlink:href="#bg"/><use transform="matrix(0.010850694444444444,0,0,0.010850694444444444,29.817708333333336,0)" xlink:href="#aV"/><use transform="matrix(0.010850694444444444,0,0,0.010850694444444444,42.024739583333336,0)" xlink:href="#bd"/><use transform="matrix(0.010850694444444444,0,0,0.010850694444444444,50.45572916666667,0)" xlink:href="#bx"/></g><path d="M177-478c0 192 146 370 333 370s324-179 324-370c0-193-136-371-324-371-187 0-333 180-333 371zm332 742c191 3 334-157 330-347v-91C756-43 647 22 510 22 246 22 47-209 47-478c0-259 208-501 463-501 140 0 250 67 329 201v-179h130v888c6 260-201 463-461 463C272 394 95 221 61 14L188-7c30 151 149 268 321 271" id="ch"/><g id="aD"><use transform="matrix(0.010850694444444444,0,0,0.010850694444444444,0,0)" xlink:href="#bZ"/><use transform="matrix(0.010850694444444444,0,0,0.010850694444444444,12.076822916666666,0)" xlink:href="#bd"/><use transform="matrix(0.010850694444444444,0,0,0.010850694444444444,20.16059027777778,0)" xlink:href="#aV"/><use transform="matrix(0.010850694444444444,0,0,0.010850694444444444,32.36762152777778,0)" xlink:href="#aY"/><use transform="matrix(0.010850694444444444,0,0,0.010850694444444444,44.12977430555556,0)" xlink:href="#bx"/><use transform="matrix(0.010850694444444444,0,0,0.010850694444444444,56.33680555555555,0)" xlink:href="#bI"/><use transform="matrix(0.010850694444444444,0,0,0.010850694444444444,67.22005208333333,0)" xlink:href="#bI"/><use transform="matrix(0.010850694444444444,0,0,0.010850694444444444,78.1032986111111,0)" xlink:href="#aT"/><use transform="matrix(0.010850694444444444,0,0,0.010850694444444444,82.44357638888887,0)" xlink:href="#aW"/><use transform="matrix(0.010850694444444444,0,0,0.010850694444444444,94.56380208333331,0)" xlink:href="#ch"/></g><path d="M966-563c0-175-147-264-331-264-72 0-137 4-194 13L306-164c46 16 101 24 165 24 230 0 495-197 495-423zm167-6c0 312-337 584-655 584-65 0-133-12-202-37-23 107-52 250-89 429L22 386 263-770c-27 12-50 23-70 34l-73-150c65-33 125-56 181-70 1-9 7-37 18-86l165 21c-1 9-4 21-9 36 115-5 249-11 342 17l-1-1c164 32 317 209 317 400" id="ci"/><path d="M892-817c-261-13-514 74-619 215-96 129-98 342 32 422 42 25 82 37 120 37 211 0 340-102 385-305zM439 20C199 20 39-142 39-387c0-199 91-353 274-462 153-91 336-136 549-136 152 0 229 28 211 111L884 18 718-3l11-54C641-6 544 20 439 20" id="cj"/><path d="M361-841c99-86 210-129 332-129h222l-44 217c-168-82-314-67-446 43-75 62-120 139-139 229L187 0H18l200-970h169" id="ck"/><path d="M624-826c-194 0-402 170-445 327 132-34 330-86 592-159 39-11 61-40 67-86l-7-20c-36-41-105-62-207-62zM1-401c0-291 317-589 610-589 35 0 81 4 137 9 122 11 257 116 257 244 0 101-80 204-180 235-23 6-240 65-650 174 26 112 133 182 273 182 134 0 258-66 373-197l117 116C831-102 655 18 450 22 204 28 1-158 1-401" id="cl"/><path d="M666-988c258 0 452 211 396 482L958 1H790l108-522c34-172-67-304-217-304-211 0-346 123-385 305L185 1H19l201-970h168l-11 58c79-46 188-77 289-77" id="cm"/><g id="aE"><use transform="matrix(0.010850694444444444,0,0,0.010850694444444444,0,0)" xlink:href="#ci"/><use transform="matrix(0.010850694444444444,0,0,0.010850694444444444,13.237847222222221,0)" xlink:href="#cj"/><use transform="matrix(0.010850694444444444,0,0,0.010850694444444444,25.965711805555554,0)" xlink:href="#ck"/><use transform="matrix(0.010850694444444444,0,0,0.010850694444444444,35.405815972222214,0)" xlink:href="#cl"/><use transform="matrix(0.010850694444444444,0,0,0.010850694444444444,47.363281249999986,0)" xlink:href="#cm"/><use transform="matrix(0.010850694444444444,0,0,0.010850694444444444,59.971788194444436,0)" xlink:href="#cf"/><use transform="matrix(0.010850694444444444,0,0,0.010850694444444444,66.71006944444443,0)" xlink:href="#ca"/><use transform="matrix(0.010850694444444444,0,0,0.010850694444444444,78.09244791666666,0)" xlink:href="#bP"/></g><path fill="#008a0e" d="M966-625c20-2 56 36 56 56V0H893v-141C803-32 685 22 540 22 268 22 57-229 57-506v-345c-8-277 211-528 483-528s491 251 483 528H893c5-220-139-398-353-398-205 0-353 174-353 382v377c-5 208 148 382 353 382 208 0 359-175 354-388H606c-1-25-2-91 0-129h360" id="cn"/><path fill="#008a0e" d="M550-827c-191 0-346 159-346 349V0H72v-957h132v174c85-116 198-174 339-174h204v174c-69-29-134-44-197-44" id="co"/><path fill="#008a0e" d="M52-478c0-256 228-501 485-501 264 0 489 248 480 516H180c0 180 174 355 357 355 148 0 301-110 347-219l130 23C955-140 749 17 537 22 280 28 52-222 52-478zm815-115c-38-129-172-257-330-256-158 0-295 130-340 256h670" id="cp"/><path fill="#008a0e" d="M545-849c-196 0-341 171-341 371V0H74v-957h130v174c77-131 190-196 341-196 285 0 449 200 449 493V0H862v-478c2-219-106-371-317-371" id="cq"/><g id="aG"><use transform="matrix(0.010850694444444444,0,0,0.010850694444444444,0,0)" xlink:href="#cn"/><use transform="matrix(0.010850694444444444,0,0,0.010850694444444444,12.358940972222221,0)" xlink:href="#co"/><use transform="matrix(0.010850694444444444,0,0,0.010850694444444444,20.789930555555557,0)" xlink:href="#cp"/><use transform="matrix(0.010850694444444444,0,0,0.010850694444444444,32.99696180555556,0)" xlink:href="#cp"/><use transform="matrix(0.010850694444444444,0,0,0.010850694444444444,45.20399305555556,0)" xlink:href="#cq"/></g><g id="aH"><use transform="matrix(0.010850694444444444,0,0,0.010850694444444444,0,0)" xlink:href="#bd"/><use transform="matrix(0.010850694444444444,0,0,0.010850694444444444,8.430989583333334,0)" xlink:href="#bx"/><use transform="matrix(0.010850694444444444,0,0,0.010850694444444444,20.638020833333336,0)" xlink:href="#bZ"/><use transform="matrix(0.010850694444444444,0,0,0.010850694444444444,32.71484375,0)" xlink:href="#bd"/><use transform="matrix(0.010850694444444444,0,0,0.010850694444444444,41.14583333333333,0)" xlink:href="#bx"/><use transform="matrix(0.010850694444444444,0,0,0.010850694444444444,53.35286458333333,0)" xlink:href="#bI"/><use transform="matrix(0.010850694444444444,0,0,0.010850694444444444,64.2361111111111,0)" xlink:href="#bx"/><use transform="matrix(0.010850694444444444,0,0,0.010850694444444444,76.4431423611111,0)" xlink:href="#aW"/><use transform="matrix(0.010850694444444444,0,0,0.010850694444444444,88.56336805555554,0)" xlink:href="#bw"/><use transform="matrix(0.010850694444444444,0,0,0.010850694444444444,95.20399305555556,0)" xlink:href="#bI"/></g><g id="aI"><use transform="matrix(0.010850694444444444,0,0,0.010850694444444444,0,0)" xlink:href="#bI"/><use transform="matrix(0.010850694444444444,0,0,0.010850694444444444,10.883246527777777,0)" xlink:href="#aV"/><use transform="matrix(0.010850694444444444,0,0,0.010850694444444444,23.09027777777778,0)" xlink:href="#bF"/><use transform="matrix(0.010850694444444444,0,0,0.010850694444444444,26.94227430555556,0)" xlink:href="#bG"/><use transform="matrix(0.010850694444444444,0,0,0.010850694444444444,38.22699652777778,0)" xlink:href="#bw"/><use transform="matrix(0.010850694444444444,0,0,0.010850694444444444,44.86762152777778,0)" xlink:href="#aT"/><use transform="matrix(0.010850694444444444,0,0,0.010850694444444444,49.20789930555556,0)" xlink:href="#aV"/><use transform="matrix(0.010850694444444444,0,0,0.010850694444444444,61.41493055555555,0)" xlink:href="#aW"/><use transform="matrix(0.010850694444444444,0,0,0.010850694444444444,73.53515625,0)" xlink:href="#bP"/></g><path fill="#1071e5" d="M880-366c0-134-176-225-319-225H204v461h357c139 5 319-103 319-236zm-69-609c0-143-156-250-304-250H204v500h299c154 4 308-103 308-250zm195 609C1006-152 783 0 561 0H74v-1355h426c233-5 441 155 441 380 0 122-53 220-159 294 149 71 224 176 224 315" id="cr"/><path fill="#1071e5" d="M86-1355h132V0H86v-1355" id="cs"/><path fill="#1071e5" d="M483-108c191 0 291-169 291-370v-479h130V0H774v-137C701-31 604 22 483 22 219 22 67-183 67-456v-501h130v501c-4 182 112 348 286 348" id="ct"/><path fill="#1071e5" d="M52-478c0-256 228-501 485-501 264 0 489 248 480 516H180c0 180 174 355 357 355 148 0 301-110 347-219l130 23C955-140 749 17 537 22 280 28 52-222 52-478zm815-115c-38-129-172-257-330-256-158 0-295 130-340 256h670" id="cu"/><g id="aJ"><use transform="matrix(0.010850694444444444,0,0,0.010850694444444444,0,0)" xlink:href="#cr"/><use transform="matrix(0.010850694444444444,0,0,0.010850694444444444,12.152777777777777,0)" xlink:href="#cs"/><use transform="matrix(0.010850694444444444,0,0,0.010850694444444444,16.004774305555554,0)" xlink:href="#ct"/><use transform="matrix(0.010850694444444444,0,0,0.010850694444444444,27.28949652777778,0)" xlink:href="#cu"/></g><g id="aK"><use transform="matrix(0.010850694444444444,0,0,0.010850694444444444,0,0)" xlink:href="#aU"/><use transform="matrix(0.010850694444444444,0,0,0.010850694444444444,12.348090277777777,0)" xlink:href="#aX"/><use transform="matrix(0.010850694444444444,0,0,0.010850694444444444,23.914930555555554,0)" xlink:href="#bI"/><use transform="matrix(0.010850694444444444,0,0,0.010850694444444444,34.79817708333333,0)" xlink:href="#bx"/></g><g id="aL"><use transform="matrix(0.010850694444444444,0,0,0.010850694444444444,0,0)" xlink:href="#aY"/><use transform="matrix(0.010850694444444444,0,0,0.010850694444444444,11.762152777777777,0)" xlink:href="#aX"/><use transform="matrix(0.010850694444444444,0,0,0.010850694444444444,23.328993055555554,0)" xlink:href="#bI"/><use transform="matrix(0.010850694444444444,0,0,0.010850694444444444,34.21223958333333,0)" xlink:href="#bx"/><use transform="matrix(0.010850694444444444,0,0,0.010850694444444444,46.41927083333333,0)" xlink:href="#bI"/><use transform="matrix(0.010850694444444444,0,0,0.010850694444444444,57.30251736111111,0)" xlink:href="#bP"/></g><path d="M-29-6l266-1287c11-51 38-76 81-76 37 0 61 14 74 43L841-316c17-79 89-427 216-1046 37 6 92 13 166 21-74 342-188 909-273 1310-18 83-126 86-159 10-118-271-313-708-442-999L135 15" id="cv"/><g id="aM"><use transform="matrix(0.010850694444444444,0,0,0.010850694444444444,0,0)" xlink:href="#cv"/><use transform="matrix(0.010850694444444444,0,0,0.010850694444444444,12.174479166666666,0)" xlink:href="#cb"/><use transform="matrix(0.010850694444444444,0,0,0.010850694444444444,24.78298611111111,0)" xlink:href="#cc"/><use transform="matrix(0.010850694444444444,0,0,0.010850694444444444,41.15668402777778,0)" xlink:href="#cd"/><use transform="matrix(0.010850694444444444,0,0,0.010850694444444444,53.27690972222222,0)" xlink:href="#cl"/><use transform="matrix(0.010850694444444444,0,0,0.010850694444444444,65.234375,0)" xlink:href="#ck"/><use transform="matrix(0.010850694444444444,0,0,0.010850694444444444,74.86979166666666,0)" xlink:href="#ca"/></g><g id="aN"><use transform="matrix(0.010850694444444444,0,0,0.010850694444444444,0,0)" xlink:href="#bd"/><use transform="matrix(0.010850694444444444,0,0,0.010850694444444444,8.430989583333334,0)" xlink:href="#bx"/><use transform="matrix(0.010850694444444444,0,0,0.010850694444444444,20.638020833333336,0)" xlink:href="#bZ"/><use transform="matrix(0.010850694444444444,0,0,0.010850694444444444,32.71484375,0)" xlink:href="#bd"/><use transform="matrix(0.010850694444444444,0,0,0.010850694444444444,41.14583333333333,0)" xlink:href="#bx"/><use transform="matrix(0.010850694444444444,0,0,0.010850694444444444,53.35286458333333,0)" xlink:href="#bI"/><use transform="matrix(0.010850694444444444,0,0,0.010850694444444444,64.2361111111111,0)" xlink:href="#bx"/><use transform="matrix(0.010850694444444444,0,0,0.010850694444444444,76.4431423611111,0)" xlink:href="#aW"/><use transform="matrix(0.010850694444444444,0,0,0.010850694444444444,88.56336805555554,0)" xlink:href="#bw"/></g><g id="aO"><use transform="matrix(0.010850694444444444,0,0,0.010850694444444444,0,0)" xlink:href="#bw"/><use transform="matrix(0.010850694444444444,0,0,0.010850694444444444,6.640625,0)" xlink:href="#bd"/><use transform="matrix(0.010850694444444444,0,0,0.010850694444444444,15.071614583333332,0)" xlink:href="#aX"/><use transform="matrix(0.010850694444444444,0,0,0.010850694444444444,26.63845486111111,0)" xlink:href="#bS"/><use transform="matrix(0.010850694444444444,0,0,0.010850694444444444,37.5,0)" xlink:href="#bx"/><use transform="matrix(0.010850694444444444,0,0,0.010850694444444444,49.70703125,0)" xlink:href="#bd"/><use transform="matrix(0.010850694444444444,0,0,0.010850694444444444,59.006076388888886,0)" xlink:href="#bI"/><use transform="matrix(0.010850694444444444,0,0,0.010850694444444444,69.88932291666666,0)" xlink:href="#aX"/><use transform="matrix(0.010850694444444444,0,0,0.010850694444444444,81.45616319444443,0)" xlink:href="#bF"/><use transform="matrix(0.010850694444444444,0,0,0.010850694444444444,85.3081597222222,0)" xlink:href="#bP"/></g><path d="M932-982c0-143-159-214-315-214H388c-25 117-61 293-110 528h240c187 6 414-135 414-314zm166-13c0 272-215 429-456 471 5 13 65 187 181 524H634L459-503H244C221-391 186-223 140 0H-29l281-1357h390c233-5 456 139 456 362" id="cw"/><g id="aP"><use transform="matrix(0.010850694444444444,0,0,0.010850694444444444,0,0)" xlink:href="#cw"/><use transform="matrix(0.010850694444444444,0,0,0.010850694444444444,12.369791666666666,0)" xlink:href="#ce"/><use transform="matrix(0.010850694444444444,0,0,0.010850694444444444,24.891493055555554,0)" xlink:href="#cc"/><use transform="matrix(0.010850694444444444,0,0,0.010850694444444444,41.26519097222223,0)" xlink:href="#cj"/><use transform="matrix(0.010850694444444444,0,0,0.010850694444444444,52.98394097222223,0)" xlink:href="#cm"/></g><path d="M268-1357h169L156 0H-14" id="cx"/><g id="aQ"><use transform="matrix(0.010850694444444444,0,0,0.010850694444444444,0,0)" xlink:href="#cm"/><use transform="matrix(0.010850694444444444,0,0,0.010850694444444444,12.413194444444445,0)" xlink:href="#cb"/><use transform="matrix(0.010850694444444444,0,0,0.010850694444444444,25.02170138888889,0)" xlink:href="#cc"/><use transform="matrix(0.010850694444444444,0,0,0.010850694444444444,41.39539930555556,0)" xlink:href="#cl"/><use transform="matrix(0.010850694444444444,0,0,0.010850694444444444,53.35286458333333,0)" xlink:href="#ck"/><use transform="matrix(0.010850694444444444,0,0,0.010850694444444444,62.14192708333333,0)" xlink:href="#cj"/><use transform="matrix(0.010850694444444444,0,0,0.010850694444444444,74.86979166666667,0)" xlink:href="#cx"/><use transform="matrix(0.010850694444444444,0,0,0.010850694444444444,79.72005208333334,0)" xlink:href="#ca"/></g><g id="aR"><use transform="matrix(0.010850694444444444,0,0,0.010850694444444444,0,0)" xlink:href="#bZ"/><use transform="matrix(0.010850694444444444,0,0,0.010850694444444444,12.076822916666666,0)" xlink:href="#bd"/><use transform="matrix(0.010850694444444444,0,0,0.010850694444444444,20.16059027777778,0)" xlink:href="#aV"/><use transform="matrix(0.010850694444444444,0,0,0.010850694444444444,32.36762152777778,0)" xlink:href="#aY"/><use transform="matrix(0.010850694444444444,0,0,0.010850694444444444,44.12977430555556,0)" xlink:href="#bx"/><use transform="matrix(0.010850694444444444,0,0,0.010850694444444444,56.33680555555555,0)" xlink:href="#bI"/><use transform="matrix(0.010850694444444444,0,0,0.010850694444444444,67.22005208333333,0)" xlink:href="#bI"/><use transform="matrix(0.010850694444444444,0,0,0.010850694444444444,78.1032986111111,0)" xlink:href="#aT"/><use transform="matrix(0.010850694444444444,0,0,0.010850694444444444,82.44357638888887,0)" xlink:href="#aW"/><use transform="matrix(0.010850694444444444,0,0,0.010850694444444444,94.56380208333331,0)" xlink:href="#ch"/><use transform="matrix(0.010850694444444444,0,0,0.010850694444444444,106.4995659722222,0)" xlink:href="#bP"/></g></defs></g></svg>