<svg xmlns="http://www.w3.org/2000/svg" xmlns:xlink="http://www.w3.org/1999/xlink" xmlns:lucid="lucid" width="462" height="2156.67"><g transform="translate(-139 -199)" lucid:page-tab-id="0_0"><path d="M420 240c0 22.1-17.9 40-40 40s-40-17.9-40-40 17.9-40 40-40 40 17.9 40 40z" stroke="#3a414a" stroke-width="2" fill="#4c535d"/><use xlink:href="#a" transform="matrix(1,0,0,1,345,205) translate(28.245442708333336 43.40277777777778)"/><path d="M380 281.5V314a6 6 0 0 1-6 6H266a6 6 0 0 0-6 6v16.62" stroke="#3a414a" fill="none"/><path d="M380 281l.48-.02v.53h-.96v-.53z" stroke="#3a414a" stroke-width=".05" fill="#3a414a"/><path d="M260 357.38l-4.63-14.26h9.26z" stroke="#3a414a" fill="#3a414a"/><path d="M300 400c0 22.1-17.9 40-40 40s-40-17.9-40-40 17.9-40 40-40 40 17.9 40 40z" stroke="#3a414a" stroke-width="2"/><use xlink:href="#b" transform="matrix(1,0,0,1,225,365) translate(30.48068576388889 43.40277777777778)"/><path d="M380 281.5V314a6 6 0 0 0 6 6h108a6 6 0 0 1 6 6v16.62" stroke="#3a414a" fill="none"/><path d="M380 281l.48-.02v.53h-.96v-.53z" stroke="#3a414a" stroke-width=".05" fill="#3a414a"/><path d="M500 357.38l-4.63-14.26h9.26z" stroke="#3a414a" fill="#3a414a"/><path d="M540 400c0 22.1-17.9 40-40 40s-40-17.9-40-40 17.9-40 40-40 40 17.9 40 40z" stroke="#3a414a" stroke-width="2"/><use xlink:href="#c" transform="matrix(1,0,0,1,465,365) translate(28.712022569444443 43.40277777777778)"/><path d="M260 441.5V474a6 6 0 0 1-6 6h-48a6 6 0 0 0-6 6v16.62" stroke="#3a414a" fill="none"/><path d="M260 441l.48-.02v.53h-.96v-.53z" stroke="#3a414a" stroke-width=".05" fill="#3a414a"/><path d="M200 517.38l-4.63-14.26h9.26z" stroke="#3a414a" fill="#3a414a"/><path d="M240 560c0 22.1-17.9 40-40 40s-40-17.9-40-40 17.9-40 40-40 40 17.9 40 40z" stroke="#3a414a" stroke-width="2"/><use xlink:href="#d" transform="matrix(1,0,0,1,165,525) translate(27.99045138888889 43.40277777777778)"/><path d="M260 441.5V474a6 6 0 0 0 6 6h48a6 6 0 0 1 6 6v16.62" stroke="#3a414a" fill="none"/><path d="M260 441l.48-.02v.53h-.96v-.53z" stroke="#3a414a" stroke-width=".05" fill="#3a414a"/><path d="M320 517.38l-4.63-14.26h9.26z" stroke="#3a414a" fill="#3a414a"/><path d="M360 560c0 22.1-17.9 40-40 40s-40-17.9-40-40 17.9-40 40-40 40 17.9 40 40z" stroke="#3a414a" stroke-width="2"/><use xlink:href="#e" transform="matrix(1,0,0,1,285,525) translate(28.13693576388889 43.40277777777778)"/><path d="M500 441.5V474a6 6 0 0 1-6 6h-48a6 6 0 0 0-6 6v16.62" stroke="#3a414a" fill="none"/><path d="M500 441l.48-.02v.53h-.96v-.53z" stroke="#3a414a" stroke-width=".05" fill="#3a414a"/><path d="M440 517.38l-4.63-14.26h9.26z" stroke="#3a414a" fill="#3a414a"/><path d="M480 560c0 22.1-17.9 40-40 40s-40-17.9-40-40 17.9-40 40-40 40 17.9 40 40z" stroke="#3a414a" stroke-width="2"/><use xlink:href="#f" transform="matrix(1,0,0,1,405,525) translate(28.10980902777778 43.40277777777778)"/><path d="M500 441.5V474a6 6 0 0 0 6 6h48a6 6 0 0 1 6 6v16.62" stroke="#3a414a" fill="none"/><path d="M500 441l.48-.02v.53h-.96v-.53z" stroke="#3a414a" stroke-width=".05" fill="#3a414a"/><path d="M560 517.38l-4.63-14.26h9.26z" stroke="#3a414a" fill="#3a414a"/><path d="M600 560c0 22.1-17.9 40-40 40s-40-17.9-40-40 17.9-40 40-40 40 17.9 40 40z" stroke="#3a414a" stroke-width="2"/><use xlink:href="#g" transform="matrix(1,0,0,1,525,525) translate(28.126085069444443 43.40277777777778)"/><path d="M320 601.5V634a6 6 0 0 1-6 6h-48a6 6 0 0 0-6 6v16.62" stroke="#3a414a" fill="none"/><path d="M320 601l.48-.02v.53h-.96v-.53z" stroke="#3a414a" stroke-width=".05" fill="#3a414a"/><path d="M260 677.38l-4.63-14.26h9.26z" stroke="#3a414a" fill="#3a414a"/><path d="M300 720c0 22.1-17.9 40-40 40s-40-17.9-40-40 17.9-40 40-40 40 17.9 40 40z" stroke="#3a414a" stroke-width="2"/><use xlink:href="#h" transform="matrix(1,0,0,1,225,685) translate(28.223741319444443 43.40277777777778)"/><path d="M320 601.5V634a6 6 0 0 0 6 6h48a6 6 0 0 1 6 6v16.62" stroke="#3a414a" fill="none"/><path d="M320 601l.48-.02v.53h-.96v-.53z" stroke="#3a414a" stroke-width=".05" fill="#3a414a"/><path d="M380 677.38l-4.63-14.26h9.26z" stroke="#3a414a" fill="#3a414a"/><path d="M420 720c0 22.1-17.9 40-40 40s-40-17.9-40-40 17.9-40 40-40 40 17.9 40 40z" stroke="#3a414a" stroke-width="2"/><use xlink:href="#i" transform="matrix(1,0,0,1,345,685) translate(27.822265625 43.40277777777778)"/><path d="M160 206a6 6 0 0 1 6-6h88a6 6 0 0 1 6 6v68a6 6 0 0 1-6 6h-88a6 6 0 0 1-6-6z" stroke="#3a414a" stroke-width="2" fill="#fff"/><use xlink:href="#j" transform="matrix(1,0,0,1,165,205) translate(17.819010416666664 30.27777777777778)"/><use xlink:href="#k" transform="matrix(1,0,0,1,165,205) translate(37.67578125 30.27777777777778)"/><use xlink:href="#l" transform="matrix(1,0,0,1,165,205) translate(58.62847222222222 30.27777777777778)"/><use xlink:href="#m" transform="matrix(1,0,0,1,165,205) translate(17.41753472222222 57.165798611111114)"/><use xlink:href="#k" transform="matrix(1,0,0,1,165,205) translate(37.27430555555556 57.165798611111114)"/><use xlink:href="#n" transform="matrix(1,0,0,1,165,205) translate(58.22699652777778 57.165798611111114)"/><path d="M460 216a6 6 0 0 1 6-6h108a6 6 0 0 1 6 6v48a6 6 0 0 1-6 6H466a6 6 0 0 1-6-6z" stroke="#3a414a" stroke-width="2" fill="#fff"/><use xlink:href="#o" transform="matrix(1,0,0,1,465,215) translate(3.33984375 34.02777777777778)"/><use xlink:href="#k" transform="matrix(1,0,0,1,465,215) translate(43.791232638888886 34.02777777777778)"/><use xlink:href="#p" transform="matrix(1,0,0,1,465,215) translate(64.74392361111111 34.02777777777778)"/><path d="M140 702.84a6 6 0 0 1 6-6h37.82a6 6 0 0 1 6 6v34.32a6 6 0 0 1-6 6H146a6 6 0 0 1-6-6z" stroke="#3a414a" stroke-width="2" fill="#fff"/><use xlink:href="#q" transform="matrix(1,0,0,1,145,701.8382840973028) translate(13.196614583333334 26.15277777777778)"/><path d="M440 702.84a6 6 0 0 1 6-6h37.82a6 6 0 0 1 6 6v34.32a6 6 0 0 1-6 6H446a6 6 0 0 1-6-6z" stroke="#3a414a" stroke-width="2" fill="#fff"/><use xlink:href="#r" transform="matrix(1,0,0,1,445,701.8382840973028) translate(13.196614583333334 26.15277777777778)"/><path d="M420 960c0 22.1-17.9 40-40 40s-40-17.9-40-40 17.9-40 40-40 40 17.9 40 40z" stroke="#3a414a" stroke-width="2" fill="#4c535d"/><use xlink:href="#a" transform="matrix(1,0,0,1,345,925) translate(28.245442708333336 43.40277777777778)"/><path d="M380 1001.5v32.5a6 6 0 0 1-6 6H266a6 6 0 0 0-6 6v16.62" stroke="#3a414a" fill="none"/><path d="M380 1001l.48-.02v.53h-.96v-.53z" stroke="#3a414a" stroke-width=".05" fill="#3a414a"/><path d="M260 1077.38l-4.63-14.27 9.26.02z" stroke="#3a414a" fill="#3a414a"/><path d="M300 1120c0 22.1-17.9 40-40 40s-40-17.9-40-40 17.9-40 40-40 40 17.9 40 40z" stroke="#3a414a" stroke-width="2" fill="#4c535d"/><use xlink:href="#b" transform="matrix(1,0,0,1,225,1085) translate(30.48068576388889 43.40277777777778)"/><path d="M380 1001.5v32.5a6 6 0 0 0 6 6h108a6 6 0 0 1 6 6v16.62" stroke="#3a414a" fill="none"/><path d="M380 1001l.48-.02v.53h-.96v-.53z" stroke="#3a414a" stroke-width=".05" fill="#3a414a"/><path d="M500 1077.38l-4.63-14.27 9.26.02z" stroke="#3a414a" fill="#3a414a"/><path d="M540 1120c0 22.1-17.9 40-40 40s-40-17.9-40-40 17.9-40 40-40 40 17.9 40 40z" stroke="#3a414a" stroke-width="2"/><use xlink:href="#c" transform="matrix(1,0,0,1,465,1085) translate(28.712022569444443 43.40277777777778)"/><path d="M260 1161.5v32.5a6 6 0 0 1-6 6h-48a6 6 0 0 0-6 6v16.62" stroke="#3a414a" fill="none"/><path d="M260 1161l.48-.02v.53h-.96v-.53z" stroke="#3a414a" stroke-width=".05" fill="#3a414a"/><path d="M200 1237.38l-4.63-14.27 9.26.02z" stroke="#3a414a" fill="#3a414a"/><path d="M240 1280c0 22.1-17.9 40-40 40s-40-17.9-40-40 17.9-40 40-40 40 17.9 40 40z" stroke="#3a414a" stroke-width="2"/><use xlink:href="#d" transform="matrix(1,0,0,1,165,1245) translate(27.99045138888889 43.40277777777778)"/><path d="M260 1161.5v32.5a6 6 0 0 0 6 6h48a6 6 0 0 1 6 6v16.62" stroke="#3a414a" fill="none"/><path d="M260 1161l.48-.02v.53h-.96v-.53z" stroke="#3a414a" stroke-width=".05" fill="#3a414a"/><path d="M320 1237.38l-4.63-14.27 9.26.02z" stroke="#3a414a" fill="#3a414a"/><path d="M360 1280c0 22.1-17.9 40-40 40s-40-17.9-40-40 17.9-40 40-40 40 17.9 40 40z" stroke="#3a414a" stroke-width="2"/><use xlink:href="#e" transform="matrix(1,0,0,1,285,1245) translate(28.13693576388889 43.40277777777778)"/><path d="M500 1161.5v32.5a6 6 0 0 1-6 6h-48a6 6 0 0 0-6 6v16.62" stroke="#3a414a" fill="none"/><path d="M500 1161l.48-.02v.53h-.96v-.53z" stroke="#3a414a" stroke-width=".05" fill="#3a414a"/><path d="M440 1237.38l-4.63-14.27 9.26.02z" stroke="#3a414a" fill="#3a414a"/><path d="M480 1280c0 22.1-17.9 40-40 40s-40-17.9-40-40 17.9-40 40-40 40 17.9 40 40z" stroke="#3a414a" stroke-width="2"/><use xlink:href="#f" transform="matrix(1,0,0,1,405,1245) translate(28.10980902777778 43.40277777777778)"/><path d="M500 1161.5v32.5a6 6 0 0 0 6 6h48a6 6 0 0 1 6 6v16.62" stroke="#3a414a" fill="none"/><path d="M500 1161l.48-.02v.53h-.96v-.53z" stroke="#3a414a" stroke-width=".05" fill="#3a414a"/><path d="M560 1237.38l-4.63-14.27 9.26.02z" stroke="#3a414a" fill="#3a414a"/><path d="M600 1280c0 22.1-17.9 40-40 40s-40-17.9-40-40 17.9-40 40-40 40 17.9 40 40z" stroke="#3a414a" stroke-width="2"/><use xlink:href="#g" transform="matrix(1,0,0,1,525,1245) translate(28.126085069444443 43.40277777777778)"/><path d="M320 1321.5v32.5a6 6 0 0 1-6 6h-48a6 6 0 0 0-6 6v16.62" stroke="#3a414a" fill="none"/><path d="M320 1321l.48-.02v.53h-.96v-.53z" stroke="#3a414a" stroke-width=".05" fill="#3a414a"/><path d="M260 1397.38l-4.63-14.27 9.26.02z" stroke="#3a414a" fill="#3a414a"/><path d="M300 1440c0 22.1-17.9 40-40 40s-40-17.9-40-40 17.9-40 40-40 40 17.9 40 40z" stroke="#3a414a" stroke-width="2"/><use xlink:href="#h" transform="matrix(1,0,0,1,225,1405) translate(28.223741319444443 43.40277777777778)"/><path d="M320 1321.5v32.5a6 6 0 0 0 6 6h48a6 6 0 0 1 6 6v16.62" stroke="#3a414a" fill="none"/><path d="M320 1321l.48-.02v.53h-.96v-.53z" stroke="#3a414a" stroke-width=".05" fill="#3a414a"/><path d="M380 1397.38l-4.63-14.27 9.26.02z" stroke="#3a414a" fill="#3a414a"/><path d="M420 1440c0 22.1-17.9 40-40 40s-40-17.9-40-40 17.9-40 40-40 40 17.9 40 40z" stroke="#3a414a" stroke-width="2"/><use xlink:href="#i" transform="matrix(1,0,0,1,345,1405) translate(27.822265625 43.40277777777778)"/><path d="M160 926a6 6 0 0 1 6-6h88a6 6 0 0 1 6 6v68a6 6 0 0 1-6 6h-88a6 6 0 0 1-6-6z" stroke="#3a414a" stroke-width="2" fill="#fff"/><use xlink:href="#j" transform="matrix(1,0,0,1,165,925) translate(17.819010416666664 30.27777777777778)"/><use xlink:href="#k" transform="matrix(1,0,0,1,165,925) translate(37.67578125 30.27777777777778)"/><use xlink:href="#l" transform="matrix(1,0,0,1,165,925) translate(58.62847222222222 30.27777777777778)"/><use xlink:href="#m" transform="matrix(1,0,0,1,165,925) translate(17.41753472222222 57.165798611111114)"/><use xlink:href="#k" transform="matrix(1,0,0,1,165,925) translate(37.27430555555556 57.165798611111114)"/><use xlink:href="#n" transform="matrix(1,0,0,1,165,925) translate(58.22699652777778 57.165798611111114)"/><path d="M460 936a6 6 0 0 1 6-6h108a6 6 0 0 1 6 6v48a6 6 0 0 1-6 6H466a6 6 0 0 1-6-6z" stroke="#3a414a" stroke-width="2" fill="#fff"/><use xlink:href="#o" transform="matrix(1,0,0,1,465,935) translate(3.33984375 34.02777777777778)"/><use xlink:href="#k" transform="matrix(1,0,0,1,465,935) translate(43.791232638888886 34.02777777777778)"/><use xlink:href="#p" transform="matrix(1,0,0,1,465,935) translate(64.74392361111111 34.02777777777778)"/><path d="M140 1422.84a6 6 0 0 1 6-6h37.82a6 6 0 0 1 6 6v34.32a6 6 0 0 1-6 6H146a6 6 0 0 1-6-6z" stroke="#3a414a" stroke-width="2" fill="#fff"/><use xlink:href="#q" transform="matrix(1,0,0,1,145,1421.8382840973027) translate(13.196614583333334 26.15277777777778)"/><path d="M440 1422.84a6 6 0 0 1 6-6h37.82a6 6 0 0 1 6 6v34.32a6 6 0 0 1-6 6H446a6 6 0 0 1-6-6z" stroke="#3a414a" stroke-width="2" fill="#fff"/><use xlink:href="#r" transform="matrix(1,0,0,1,445,1421.8382840973027) translate(13.196614583333334 26.15277777777778)"/><path d="M260 800.67a6 6 0 0 1 6-6h228a6 6 0 0 1 6 6v68a6 6 0 0 1-6 6H266a6 6 0 0 1-6-6z" stroke="#3a414a" stroke-width="2" fill="#fff"/><use xlink:href="#o" transform="matrix(1,0,0,1,265,799.66796875) translate(10.930989583333343 30.40277777777778)"/><use xlink:href="#s" transform="matrix(1,0,0,1,265,799.66796875) translate(51.38237847222223 30.40277777777778)"/><use xlink:href="#t" transform="matrix(1,0,0,1,265,799.66796875) translate(72.33506944444446 30.40277777777778)"/><use xlink:href="#u" transform="matrix(1,0,0,1,265,799.66796875) translate(92.19184027777779 30.40277777777778)"/><use xlink:href="#v" transform="matrix(1,0,0,1,265,799.66796875) translate(137.65625 30.40277777777778)"/><use xlink:href="#s" transform="matrix(1,0,0,1,265,799.66796875) translate(178.10763888888889 30.40277777777778)"/><use xlink:href="#w" transform="matrix(1,0,0,1,265,799.66796875) translate(199.06032986111111 30.40277777777778)"/><use xlink:href="#x" transform="matrix(1,0,0,1,265,799.66796875) translate(52.41319444444444 57.290798611111114)"/><use xlink:href="#y" transform="matrix(1,0,0,1,265,799.66796875) translate(144.51388888888889 57.290798611111114)"/><path d="M420 1705.33c0 22.1-17.9 40-40 40s-40-17.9-40-40 17.9-40 40-40 40 17.9 40 40z" stroke="#3a414a" stroke-width="2" fill="#4c535d"/><use xlink:href="#a" transform="matrix(1,0,0,1,345,1670.33203125) translate(28.245442708333336 43.40277777777778)"/><path d="M380 1746.83v32.5a6 6 0 0 1-6 6H266a6 6 0 0 0-6 6v16.62" stroke="#3a414a" fill="none"/><path d="M380 1746.33h.48v.52h-.96v-.55z" stroke="#3a414a" stroke-width=".05" fill="#3a414a"/><path d="M260 1822.7l-4.63-14.25h9.26z" stroke="#3a414a" fill="#3a414a"/><path d="M300 1865.33c0 22.1-17.9 40-40 40s-40-17.9-40-40 17.9-40 40-40 40 17.9 40 40z" stroke="#3a414a" stroke-width="2" fill="#4c535d"/><use xlink:href="#b" transform="matrix(1,0,0,1,225,1830.33203125) translate(30.48068576388889 43.40277777777778)"/><path d="M380 1746.83v32.5a6 6 0 0 0 6 6h108a6 6 0 0 1 6 6v16.62" stroke="#3a414a" fill="none"/><path d="M380 1746.33h.48v.52h-.96v-.55z" stroke="#3a414a" stroke-width=".05" fill="#3a414a"/><path d="M500 1822.7l-4.63-14.25h9.26z" stroke="#3a414a" fill="#3a414a"/><path d="M540 1865.33c0 22.1-17.9 40-40 40s-40-17.9-40-40 17.9-40 40-40 40 17.9 40 40z" stroke="#3a414a" stroke-width="2"/><use xlink:href="#c" transform="matrix(1,0,0,1,465,1830.33203125) translate(28.712022569444443 43.40277777777778)"/><path d="M260 1906.83v32.5a6 6 0 0 1-6 6h-48a6 6 0 0 0-6 6v16.62" stroke="#3a414a" fill="none"/><path d="M260 1906.33h.48v.52h-.96v-.55z" stroke="#3a414a" stroke-width=".05" fill="#3a414a"/><path d="M200 1982.7l-4.63-14.25h9.26z" stroke="#3a414a" fill="#3a414a"/><path d="M240 2025.33c0 22.1-17.9 40-40 40s-40-17.9-40-40 17.9-40 40-40 40 17.9 40 40z" stroke="#3a414a" stroke-width="2"/><use xlink:href="#d" transform="matrix(1,0,0,1,165,1990.33203125) translate(27.99045138888889 43.40277777777778)"/><path d="M260 1906.83v32.5a6 6 0 0 0 6 6h48a6 6 0 0 1 6 6v16.62" stroke="#3a414a" fill="none"/><path d="M260 1906.33h.48v.52h-.96v-.55z" stroke="#3a414a" stroke-width=".05" fill="#3a414a"/><path d="M320 1982.7l-4.63-14.25h9.26z" stroke="#3a414a" fill="#3a414a"/><path d="M360 2025.33c0 22.1-17.9 40-40 40s-40-17.9-40-40 17.9-40 40-40 40 17.9 40 40z" stroke="#3a414a" stroke-width="2" fill="#4c535d"/><use xlink:href="#e" transform="matrix(1,0,0,1,285,1990.33203125) translate(28.13693576388889 43.40277777777778)"/><path d="M500 1906.83v32.5a6 6 0 0 1-6 6h-48a6 6 0 0 0-6 6v16.62" stroke="#3a414a" fill="none"/><path d="M500 1906.33h.48v.52h-.96v-.55z" stroke="#3a414a" stroke-width=".05" fill="#3a414a"/><path d="M440 1982.7l-4.63-14.25h9.26z" stroke="#3a414a" fill="#3a414a"/><path d="M480 2025.33c0 22.1-17.9 40-40 40s-40-17.9-40-40 17.9-40 40-40 40 17.9 40 40z" stroke="#3a414a" stroke-width="2"/><use xlink:href="#f" transform="matrix(1,0,0,1,405,1990.33203125) translate(28.10980902777778 43.40277777777778)"/><path d="M500 1906.83v32.5a6 6 0 0 0 6 6h48a6 6 0 0 1 6 6v16.62" stroke="#3a414a" fill="none"/><path d="M500 1906.33h.48v.52h-.96v-.55z" stroke="#3a414a" stroke-width=".05" fill="#3a414a"/><path d="M560 1982.7l-4.63-14.25h9.26z" stroke="#3a414a" fill="#3a414a"/><path d="M600 2025.33c0 22.1-17.9 40-40 40s-40-17.9-40-40 17.9-40 40-40 40 17.9 40 40z" stroke="#3a414a" stroke-width="2"/><use xlink:href="#g" transform="matrix(1,0,0,1,525,1990.33203125) translate(28.126085069444443 43.40277777777778)"/><path d="M320 2066.83v32.5a6 6 0 0 1-6 6h-48a6 6 0 0 0-6 6v16.62" stroke="#3a414a" fill="none"/><path d="M320 2066.33h.48v.5h-.96v-.53z" stroke="#3a414a" stroke-width=".05" fill="#3a414a"/><path d="M260 2142.7l-4.63-14.25h9.26z" stroke="#3a414a" fill="#3a414a"/><path d="M300 2185.33c0 22.1-17.9 40-40 40s-40-17.9-40-40 17.9-40 40-40 40 17.9 40 40z" stroke="#3a414a" stroke-width="2"/><g><use xlink:href="#h" transform="matrix(1,0,0,1,225,2150.33203125) translate(28.223741319444443 43.40277777777778)"/></g><path d="M320 2066.83v32.5a6 6 0 0 0 6 6h48a6 6 0 0 1 6 6v16.62" stroke="#3a414a" fill="none"/><path d="M320 2066.33h.48v.5h-.96v-.53z" stroke="#3a414a" stroke-width=".05" fill="#3a414a"/><path d="M380 2142.7l-4.63-14.25h9.26z" stroke="#3a414a" fill="#3a414a"/><path d="M420 2185.33c0 22.1-17.9 40-40 40s-40-17.9-40-40 17.9-40 40-40 40 17.9 40 40z" stroke="#3a414a" stroke-width="2"/><g><use xlink:href="#i" transform="matrix(1,0,0,1,345,2150.33203125) translate(27.822265625 43.40277777777778)"/></g><path d="M160 1671.33a6 6 0 0 1 6-6h88a6 6 0 0 1 6 6v68a6 6 0 0 1-6 6h-88a6 6 0 0 1-6-6z" stroke="#3a414a" stroke-width="2" fill="#fff"/><g><use xlink:href="#j" transform="matrix(1,0,0,1,165,1670.33203125) translate(17.819010416666664 30.27777777777778)"/><use xlink:href="#k" transform="matrix(1,0,0,1,165,1670.33203125) translate(37.67578125 30.27777777777778)"/><use xlink:href="#l" transform="matrix(1,0,0,1,165,1670.33203125) translate(58.62847222222222 30.27777777777778)"/><use xlink:href="#m" transform="matrix(1,0,0,1,165,1670.33203125) translate(17.41753472222222 57.165798611111114)"/><use xlink:href="#k" transform="matrix(1,0,0,1,165,1670.33203125) translate(37.27430555555556 57.165798611111114)"/><use xlink:href="#n" transform="matrix(1,0,0,1,165,1670.33203125) translate(58.22699652777778 57.165798611111114)"/></g><path d="M460 1681.33a6 6 0 0 1 6-6h108a6 6 0 0 1 6 6v48a6 6 0 0 1-6 6H466a6 6 0 0 1-6-6z" stroke="#3a414a" stroke-width="2" fill="#fff"/><g><use xlink:href="#o" transform="matrix(1,0,0,1,465,1680.33203125) translate(3.33984375 34.02777777777778)"/><use xlink:href="#k" transform="matrix(1,0,0,1,465,1680.33203125) translate(43.791232638888886 34.02777777777778)"/><use xlink:href="#p" transform="matrix(1,0,0,1,465,1680.33203125) translate(64.74392361111111 34.02777777777778)"/></g><path d="M140 2168.17a6 6 0 0 1 6-6h37.82a6 6 0 0 1 6 6v34.32a6 6 0 0 1-6 6H146a6 6 0 0 1-6-6z" stroke="#3a414a" stroke-width="2" fill="#fff"/><g><use xlink:href="#q" transform="matrix(1,0,0,1,145,2167.1703153473027) translate(13.196614583333334 26.15277777777778)"/></g><path d="M440 2168.17a6 6 0 0 1 6-6h37.82a6 6 0 0 1 6 6v34.32a6 6 0 0 1-6 6H446a6 6 0 0 1-6-6z" stroke="#3a414a" stroke-width="2" fill="#fff"/><g><use xlink:href="#r" transform="matrix(1,0,0,1,445.00000000000006,2167.1703153473027) translate(13.196614583333334 26.15277777777778)"/></g><path d="M260 1546a6 6 0 0 1 6-6h228a6 6 0 0 1 6 6v68a6 6 0 0 1-6 6H266a6 6 0 0 1-6-6z" stroke="#3a414a" stroke-width="2" fill="#fff"/><g><use xlink:href="#o" transform="matrix(1,0,0,1,265,1545) translate(10.930989583333343 30.40277777777778)"/><use xlink:href="#z" transform="matrix(1,0,0,1,265,1545) translate(51.38237847222223 30.40277777777778)"/><use xlink:href="#t" transform="matrix(1,0,0,1,265,1545) translate(72.33506944444446 30.40277777777778)"/><use xlink:href="#u" transform="matrix(1,0,0,1,265,1545) translate(92.19184027777779 30.40277777777778)"/><use xlink:href="#v" transform="matrix(1,0,0,1,265,1545) translate(137.65625 30.40277777777778)"/><use xlink:href="#z" transform="matrix(1,0,0,1,265,1545) translate(178.10763888888889 30.40277777777778)"/><use xlink:href="#w" transform="matrix(1,0,0,1,265,1545) translate(199.06032986111111 30.40277777777778)"/><use xlink:href="#A" transform="matrix(1,0,0,1,265,1545) translate(26.333550347222214 57.290798611111114)"/><use xlink:href="#v" transform="matrix(1,0,0,1,265,1545) translate(128.75325520833331 57.290798611111114)"/><use xlink:href="#k" transform="matrix(1,0,0,1,265,1545) translate(169.20464409722223 57.290798611111114)"/><use xlink:href="#B" transform="matrix(1,0,0,1,265,1545) translate(190.15733506944446 57.290798611111114)"/></g><path d="M260 2280.67a6 6 0 0 1 6-6h258a6 6 0 0 1 6 6v68a6 6 0 0 1-6 6H266a6 6 0 0 1-6-6z" stroke="#3a414a" stroke-width="2" fill="#fff"/><g><use xlink:href="#o" transform="matrix(1,0,0,1,265,2279.66796875) translate(22.82769097222223 30.40277777777778)"/><use xlink:href="#s" transform="matrix(1,0,0,1,265,2279.66796875) translate(63.279079861111114 30.40277777777778)"/><use xlink:href="#t" transform="matrix(1,0,0,1,265,2279.66796875) translate(84.23177083333334 30.40277777777778)"/><use xlink:href="#C" transform="matrix(1,0,0,1,265,2279.66796875) translate(104.08854166666667 30.40277777777778)"/><use xlink:href="#v" transform="matrix(1,0,0,1,265,2279.66796875) translate(155.75954861111111 30.40277777777778)"/><use xlink:href="#z" transform="matrix(1,0,0,1,265,2279.66796875) translate(196.2109375 30.40277777777778)"/><use xlink:href="#D" transform="matrix(1,0,0,1,265,2279.66796875) translate(217.16362847222223 30.40277777777778)"/><use xlink:href="#A" transform="matrix(1,0,0,1,265,2279.66796875) translate(7.180989583333329 57.290798611111114)"/><use xlink:href="#E" transform="matrix(1,0,0,1,265,2279.66796875) translate(109.60069444444443 57.290798611111114)"/><use xlink:href="#F" transform="matrix(1,0,0,1,265,2279.66796875) translate(150.6814236111111 57.290798611111114)"/><use xlink:href="#G" transform="matrix(1,0,0,1,265,2279.66796875) translate(215.73133680555554 57.290798611111114)"/><use xlink:href="#H" transform="matrix(1,0,0,1,265,2279.66796875) translate(239.09288194444446 57.290798611111114)"/></g><defs><path fill="#fff" d="M626 20c-262 0-458-168-468-396h184c12 133 134 229 284 229 180 0 311-137 311-326 0-192-136-335-323-335-92 0-196 33-255 78l-178-22 88-738h784v167H429l-51 435h8c61-51 160-87 263-87 273 0 474 211 474 499 0 286-210 496-497 496" id="I"/><use transform="matrix(0.010850694444444444,0,0,0.010850694444444444,0,0)" xlink:href="#I" id="a"/><path fill="#fff" d="M653-1490V0H466v-1314h-10L96-1047v-204l324-239h233" id="J"/><use transform="matrix(0.010850694444444444,0,0,0.010850694444444444,0,0)" xlink:href="#J" id="b"/><path fill="#fff" d="M200 0l662-1311v-12H98v-167h963v177L400 0H200" id="K"/><use transform="matrix(0.010850694444444444,0,0,0.010850694444444444,0,0)" xlink:href="#K" id="c"/><path fill="#fff" d="M646 20c-332 0-524-278-524-764 0-483 194-766 524-766s524 283 524 766c0 485-191 764-524 764zm0-166c218 0 341-220 341-598 0-380-123-601-341-601s-341 222-341 601c0 378 123 598 341 598" id="L"/><use transform="matrix(0.010850694444444444,0,0,0.010850694444444444,0,0)" xlink:href="#L" id="d"/><path fill="#fff" d="M635 20c-292 0-500-160-510-396h192c11 142 145 229 315 229 187 0 323-105 323-260 0-161-125-274-346-274H488v-165h121c174 0 294-100 294-254 0-148-104-245-266-245-152 0-291 85-297 230H157c8-234 222-395 484-395 278 0 448 188 448 400 0 168-95 291-247 336v12c190 31 301 169 301 357 0 244-216 425-508 425" id="M"/><use transform="matrix(0.010850694444444444,0,0,0.010850694444444444,0,0)" xlink:href="#M" id="e"/><path fill="#fff" d="M646 20c-249 0-524-159-524-708 0-524 209-822 547-822 250 0 431 161 467 395H950c-33-129-126-227-281-227-229 0-367 208-367 566h12c80-124 212-198 367-198 255 0 467 205 467 493 0 278-198 501-502 501zm0-167c179 0 318-148 318-334 0-182-133-328-313-328-181 0-322 156-322 330 0 176 134 332 317 332" id="N"/><use transform="matrix(0.010850694444444444,0,0,0.010850694444444444,0,0)" xlink:href="#N" id="f"/><path fill="#fff" d="M633 20c-303 0-511-173-511-416 0-188 124-348 291-378v-8c-145-37-237-174-237-332 0-227 192-396 457-396 261 0 456 169 456 396 0 158-94 295-235 332v8c162 30 291 190 291 378 0 243-212 416-512 416zm0-165c197 0 322-103 322-261 0-165-138-283-322-283-188 0-324 118-324 283 0 158 123 261 324 261zm0-703c157 0 272-101 272-252 0-149-110-246-272-246-165 0-273 97-273 246 0 151 112 252 273 252" id="O"/><use transform="matrix(0.010850694444444444,0,0,0.010850694444444444,0,0)" xlink:href="#O" id="g"/><path fill="#fff" d="M154 0v-137l495-537c165-179 249-281 249-418 0-156-121-253-280-253-170 0-278 110-278 278H158c0-264 200-443 465-443 266 0 455 183 455 416 0 161-73 288-336 568L416-179v12h687V0H154" id="P"/><use transform="matrix(0.010850694444444444,0,0,0.010850694444444444,0,0)" xlink:href="#P" id="h"/><path fill="#fff" d="M120-303v-155l652-1032h231v1020h202v167h-202V0H821v-303H120zm702-167v-782h-12L323-482v12h499" id="Q"/><use transform="matrix(0.010850694444444444,0,0,0.010850694444444444,0,0)" xlink:href="#Q" id="i"/><path d="M158 418v-1536h174v179h20c37-59 106-193 324-193 279 0 474 222 474 576 0 356-194 580-473 580-213 0-288-135-325-197h-14v591H158zm492-555c209 0 317-186 317-421 0-232-105-413-317-413-206 0-314 166-314 413 0 249 111 421 314 421" id="R"/><use transform="matrix(0.010850694444444444,0,0,0.010850694444444444,0,0)" xlink:href="#R" id="j"/><path d="M226-283v-166h904v166H226zm0-434v-166h904v166H226" id="S"/><use transform="matrix(0.010850694444444444,0,0,0.010850694444444444,0,0)" xlink:href="#S" id="k"/><path d="M154 0v-137l495-537c165-179 249-281 249-418 0-156-121-253-280-253-170 0-278 110-278 278H158c0-264 200-443 465-443 266 0 455 183 455 416 0 161-73 288-336 568L416-179v12h687V0H154" id="T"/><use transform="matrix(0.010850694444444444,0,0,0.010850694444444444,0,0)" xlink:href="#T" id="l"/><path d="M1096 418H916v-591h-14C865-111 790 24 577 24c-279 0-473-224-473-580 0-354 195-576 474-576 218 0 287 134 324 193h20v-179h174V418zM604-137c203 0 314-172 314-421 0-247-108-413-314-413-212 0-317 181-317 413 0 235 108 421 317 421" id="U"/><use transform="matrix(0.010850694444444444,0,0,0.010850694444444444,0,0)" xlink:href="#U" id="m"/><path d="M120-303v-155l652-1032h231v1020h202v167h-202V0H821v-303H120zm702-167v-782h-12L323-482v12h499" id="V"/><use transform="matrix(0.010850694444444444,0,0,0.010850694444444444,0,0)" xlink:href="#V" id="n"/><path d="M613 24c-304 0-509-231-509-576 0-350 205-580 509-580 216 0 392 114 453 309l-173 49c-33-115-133-197-280-197-223 0-326 196-326 419 0 220 103 415 326 415 150 0 252-85 285-206l172 49C1010-95 832 24 613 24" id="W"/><path d="M537 14c-226 0-379-139-379-422v-710h180v695c0 172 97 275 253 275 160 0 281-109 281-300v-670h181V0H879v-209C806-46 684 14 537 14" id="X"/><path d="M158 0v-1118h174v172h12c41-113 157-188 290-188 26 0 70 2 91 3v181c-11-2-60-10-108-10-161 0-279 109-279 260V0H158" id="Y"/><g id="o"><use transform="matrix(0.010850694444444444,0,0,0.010850694444444444,0,0)" xlink:href="#W"/><use transform="matrix(0.010850694444444444,0,0,0.010850694444444444,12.6953125,0)" xlink:href="#X"/><use transform="matrix(0.010850694444444444,0,0,0.010850694444444444,25.83550347222222,0)" xlink:href="#Y"/></g><path d="M613 24c-304 0-509-231-509-576 0-350 205-580 509-580 305 0 511 230 511 580 0 345-206 576-511 576zm0-161c226 0 329-195 329-415 0-222-103-419-329-419-223 0-326 196-326 419 0 220 103 415 326 415" id="Z"/><path d="M598-1118v154H368v674c0 100 37 144 132 144 23 0 62-6 92-12L629-6c-37 13-88 20-134 20-193 0-307-107-307-290v-688H20v-154h168v-266h180v266h230" id="aa"/><g id="p"><use transform="matrix(0.010850694444444444,0,0,0.010850694444444444,0,0)" xlink:href="#Y"/><use transform="matrix(0.010850694444444444,0,0,0.010850694444444444,7.996961805555555,0)" xlink:href="#Z"/><use transform="matrix(0.010850694444444444,0,0,0.010850694444444444,21.321614583333332,0)" xlink:href="#Z"/><use transform="matrix(0.010850694444444444,0,0,0.010850694444444444,34.64626736111111,0)" xlink:href="#aa"/></g><use transform="matrix(0.010850694444444444,0,0,0.010850694444444444,0,0)" xlink:href="#R" id="q"/><use transform="matrix(0.010850694444444444,0,0,0.010850694444444444,0,0)" xlink:href="#U" id="r"/><path d="M1181-520L237-44v-194l712-338v-12L237-926v-196l944 476v126" id="ab"/><use transform="matrix(0.010850694444444444,0,0,0.010850694444444444,0,0)" xlink:href="#ab" id="s"/><use transform="matrix(0.010850694444444444,0,0,0.010850694444444444,0,0)" xlink:href="#R" id="t"/><path d="M471 26C259 26 90-98 90-318c0-256 228-303 435-329 202-27 287-16 287-108 0-139-79-219-234-219-161 0-248 86-283 164l-173-57c86-203 278-265 451-265 150 0 419 46 419 395V0H815v-152h-12C765-73 660 26 471 26zm31-159c199 0 310-134 310-271v-155c-30 35-226 55-295 64-131 17-246 59-246 186 0 116 97 176 231 176" id="ac"/><path d="M338-670V0H158v-1118h173l1 207c72-158 192-221 342-221 226 0 378 139 378 422V0H872v-695c0-172-96-275-252-275-161 0-282 109-282 300" id="ad"/><path d="M577 24c-279 0-473-224-473-580 0-354 195-576 474-576 218 0 287 134 324 193h14v-551h180V0H922v-173h-20C865-111 790 24 577 24zm27-161c203 0 314-172 314-421 0-247-108-413-314-413-212 0-317 181-317 413 0 235 108 421 317 421" id="ae"/><g id="u"><use transform="matrix(0.010850694444444444,0,0,0.010850694444444444,0,0)" xlink:href="#ac"/><use transform="matrix(0.010850694444444444,0,0,0.010850694444444444,12.47829861111111,0)" xlink:href="#ad"/><use transform="matrix(0.010850694444444444,0,0,0.010850694444444444,25.60763888888889,0)" xlink:href="#ae"/></g><g id="v"><use transform="matrix(0.010850694444444444,0,0,0.010850694444444444,0,0)" xlink:href="#W"/><use transform="matrix(0.010850694444444444,0,0,0.010850694444444444,12.6953125,0)" xlink:href="#X"/><use transform="matrix(0.010850694444444444,0,0,0.010850694444444444,25.83550347222222,0)" xlink:href="#Y"/></g><path d="M128 359l88-567h206L266 359H128" id="af"/><g id="w"><use transform="matrix(0.010850694444444444,0,0,0.010850694444444444,0,0)" xlink:href="#R"/><use transform="matrix(0.010850694444444444,0,0,0.010850694444444444,13.606770833333332,0)" xlink:href="#af"/></g><path d="M481 0L54-1118h197c107 314 236 620 325 951 87-331 217-637 324-951h197L670 0H481" id="ag"/><path d="M628 24c-324 0-524-230-524-574 0-343 198-582 503-582 237 0 487 146 487 559v75H286c9 234 145 362 343 362 132 0 231-58 273-172l174 48C1024-91 857 24 628 24zM287-650h624c-17-190-120-322-304-322-192 0-309 151-320 322" id="ah"/><path d="M538 24C308 24 148-78 108-271l171-41c32 123 123 178 257 178 156 0 256-77 256-169 0-77-54-128-164-154l-186-44c-203-48-300-148-300-305 0-192 176-326 414-326 230 0 351 112 402 269l-163 42c-31-80-94-158-238-158-133 0-233 69-233 162 0 83 57 129 188 160l169 40c203 48 298 149 298 302 0 196-179 339-441 339" id="ai"/><g id="x"><use transform="matrix(0.010850694444444444,0,0,0.010850694444444444,0,0)" xlink:href="#aa"/><use transform="matrix(0.010850694444444444,0,0,0.010850694444444444,7.269965277777778,0)" xlink:href="#Y"/><use transform="matrix(0.010850694444444444,0,0,0.010850694444444444,15.635850694444445,0)" xlink:href="#ac"/><use transform="matrix(0.010850694444444444,0,0,0.010850694444444444,27.78862847222222,0)" xlink:href="#ag"/><use transform="matrix(0.010850694444444444,0,0,0.010850694444444444,39.84375,0)" xlink:href="#ah"/><use transform="matrix(0.010850694444444444,0,0,0.010850694444444444,52.799479166666664,0)" xlink:href="#Y"/><use transform="matrix(0.010850694444444444,0,0,0.010850694444444444,61.16536458333333,0)" xlink:href="#ai"/><use transform="matrix(0.010850694444444444,0,0,0.010850694444444444,72.89496527777777,0)" xlink:href="#ah"/></g><path d="M338-1490V0H158v-1490h180" id="aj"/><path d="M678-1118v154H420V0H240v-964H20v-154h220v-149c0-194 155-293 318-293 85 0 141 18 168 30l-50 154c-19-6-47-17-97-17-111 0-159 58-159 166v109h258" id="ak"/><g id="y"><use transform="matrix(0.010850694444444444,0,0,0.010850694444444444,0,0)" xlink:href="#aj"/><use transform="matrix(0.010850694444444444,0,0,0.010850694444444444,5.381944444444445,0)" xlink:href="#ah"/><use transform="matrix(0.010850694444444444,0,0,0.010850694444444444,18.33767361111111,0)" xlink:href="#ak"/><use transform="matrix(0.010850694444444444,0,0,0.010850694444444444,25.80295138888889,0)" xlink:href="#aa"/></g><path d="M174-520v-126l944-476v196L406-588v12l712 338v194" id="al"/><use transform="matrix(0.010850694444444444,0,0,0.010850694444444444,0,0)" xlink:href="#al" id="z"/><path d="M338-670V0H158v-1490h180v566c73-149 190-208 336-208 226 0 379 139 379 422V0H872v-695c0-172-96-275-252-275-161 0-282 109-282 300" id="am"/><g id="A"><use transform="matrix(0.010850694444444444,0,0,0.010850694444444444,0,0)" xlink:href="#aa"/><use transform="matrix(0.010850694444444444,0,0,0.010850694444444444,7.269965277777778,0)" xlink:href="#am"/><use transform="matrix(0.010850694444444444,0,0,0.010850694444444444,20.41015625,0)" xlink:href="#ah"/><use transform="matrix(0.010850694444444444,0,0,0.010850694444444444,33.365885416666664,0)" xlink:href="#Y"/><use transform="matrix(0.010850694444444444,0,0,0.010850694444444444,41.362847222222214,0)" xlink:href="#ah"/><use transform="matrix(0.010850694444444444,0,0,0.010850694444444444,54.31857638888888,0)" xlink:href="#ak"/><use transform="matrix(0.010850694444444444,0,0,0.010850694444444444,61.8923611111111,0)" xlink:href="#Z"/><use transform="matrix(0.010850694444444444,0,0,0.010850694444444444,75.21701388888887,0)" xlink:href="#Y"/><use transform="matrix(0.010850694444444444,0,0,0.010850694444444444,83.21397569444443,0)" xlink:href="#ah"/></g><path d="M626 20c-262 0-458-168-468-396h184c12 133 134 229 284 229 180 0 311-137 311-326 0-192-136-335-323-335-92 0-196 33-255 78l-178-22 88-738h784v167H429l-51 435h8c61-51 160-87 263-87 273 0 474 211 474 499 0 286-210 496-497 496" id="an"/><use transform="matrix(0.010850694444444444,0,0,0.010850694444444444,0,0)" xlink:href="#an" id="B"/><path d="M180 0v-1490h528c311 0 458 177 458 395 0 191-114 278-244 313v14c139 9 302 137 302 371 0 225-148 397-499 397H180zm190-168h350c232 0 321-102 321-231 0-149-120-277-311-277H370v508zm0-668h328c160 0 286-101 286-255 0-129-87-231-280-231H370v486" id="ao"/><path d="M763 24c-353 0-583-224-583-531v-983h190v968c0 214 149 370 393 370 243 0 391-156 391-370v-968h190v983c0 307-230 531-581 531" id="ap"/><path d="M98-1322v-168h1126v168H757V0H567v-1322H98" id="aq"/><g id="C"><use transform="matrix(0.010850694444444444,0,0,0.010850694444444444,0,0)" xlink:href="#ao"/><use transform="matrix(0.010850694444444444,0,0,0.010850694444444444,14.539930555555555,0)" xlink:href="#ap"/><use transform="matrix(0.010850694444444444,0,0,0.010850694444444444,31.07638888888889,0)" xlink:href="#aq"/></g><g id="D"><use transform="matrix(0.010850694444444444,0,0,0.010850694444444444,0,0)" xlink:href="#U"/><use transform="matrix(0.010850694444444444,0,0,0.010850694444444444,13.606770833333332,0)" xlink:href="#af"/></g><g id="E"><use transform="matrix(0.010850694444444444,0,0,0.010850694444444444,0,0)" xlink:href="#Z"/><use transform="matrix(0.010850694444444444,0,0,0.010850694444444444,13.324652777777777,0)" xlink:href="#X"/><use transform="matrix(0.010850694444444444,0,0,0.010850694444444444,26.46484375,0)" xlink:href="#Y"/></g><g id="F"><use transform="matrix(0.010850694444444444,0,0,0.010850694444444444,0,0)" xlink:href="#Y"/><use transform="matrix(0.010850694444444444,0,0,0.010850694444444444,7.996961805555555,0)" xlink:href="#ah"/><use transform="matrix(0.010850694444444444,0,0,0.010850694444444444,20.95269097222222,0)" xlink:href="#ai"/><use transform="matrix(0.010850694444444444,0,0,0.010850694444444444,32.682291666666664,0)" xlink:href="#X"/><use transform="matrix(0.010850694444444444,0,0,0.010850694444444444,45.822482638888886,0)" xlink:href="#aj"/><use transform="matrix(0.010850694444444444,0,0,0.010850694444444444,51.529947916666664,0)" xlink:href="#aa"/></g><path d="M158 0v-1118h180V0H158zm91-1301c-68 0-125-53-125-119s57-119 125-119c69 0 126 53 126 119s-57 119-126 119" id="ar"/><g id="G"><use transform="matrix(0.010850694444444444,0,0,0.010850694444444444,0,0)" xlink:href="#ar"/><use transform="matrix(0.010850694444444444,0,0,0.010850694444444444,5.381944444444445,0)" xlink:href="#ai"/></g><path d="M635 20c-292 0-500-160-510-396h192c11 142 145 229 315 229 187 0 323-105 323-260 0-161-125-274-346-274H488v-165h121c174 0 294-100 294-254 0-148-104-245-266-245-152 0-291 85-297 230H157c8-234 222-395 484-395 278 0 448 188 448 400 0 168-95 291-247 336v12c190 31 301 169 301 357 0 244-216 425-508 425" id="as"/><use transform="matrix(0.010850694444444444,0,0,0.010850694444444444,0,0)" xlink:href="#as" id="H"/></defs></g></svg>