<svg xmlns="http://www.w3.org/2000/svg" xmlns:xlink="http://www.w3.org/1999/xlink" xmlns:lucid="lucid" width="502" height="1202"><g transform="translate(-99 -189)" lucid:page-tab-id="0_0"><path d="M420 240c0 22.1-17.9 40-40 40s-40-17.9-40-40 17.9-40 40-40 40 17.9 40 40z" stroke="#3a414a" stroke-width="2"/><use xlink:href="#a" transform="matrix(1,0,0,1,345,205) translate(28.245442708333336 43.40277777777778)"/><path d="M380 281.5V314a6 6 0 0 1-6 6H266a6 6 0 0 0-6 6v16.62" stroke="#3a414a" fill="none"/><path d="M380 281l.48-.02v.53h-.96v-.53z" stroke="#3a414a" stroke-width=".05" fill="#3a414a"/><path d="M260 357.38l-4.63-14.26h9.26z" stroke="#3a414a" fill="#3a414a"/><path d="M300 400c0 22.1-17.9 40-40 40s-40-17.9-40-40 17.9-40 40-40 40 17.9 40 40z" stroke="#3a414a" stroke-width="2"/><use xlink:href="#b" transform="matrix(1,0,0,1,225,365) translate(30.48068576388889 43.40277777777778)"/><path d="M380 281.5V314a6 6 0 0 0 6 6h108a6 6 0 0 1 6 6v16.62" stroke="#3a414a" fill="none"/><path d="M380 281l.48-.02v.53h-.96v-.53z" stroke="#3a414a" stroke-width=".05" fill="#3a414a"/><path d="M500 357.38l-4.63-14.26h9.26z" stroke="#3a414a" fill="#3a414a"/><path d="M540 400c0 22.1-17.9 40-40 40s-40-17.9-40-40 17.9-40 40-40 40 17.9 40 40z" stroke="#3a414a" stroke-width="2"/><use xlink:href="#c" transform="matrix(1,0,0,1,465,365) translate(28.712022569444443 43.40277777777778)"/><path d="M260 441.5V474a6 6 0 0 1-6 6h-48a6 6 0 0 0-6 6v16.62" stroke="#3a414a" fill="none"/><path d="M260 441l.48-.02v.53h-.96v-.53z" stroke="#3a414a" stroke-width=".05" fill="#3a414a"/><path d="M200 517.38l-4.63-14.26h9.26z" stroke="#3a414a" fill="#3a414a"/><path d="M240 560c0 22.1-17.9 40-40 40s-40-17.9-40-40 17.9-40 40-40 40 17.9 40 40z" stroke="#3a414a" stroke-width="2"/><use xlink:href="#d" transform="matrix(1,0,0,1,165,525) translate(27.99045138888889 43.40277777777778)"/><path d="M260 441.5V474a6 6 0 0 0 6 6h48a6 6 0 0 1 6 6v16.62" stroke="#3a414a" fill="none"/><path d="M260 441l.48-.02v.53h-.96v-.53z" stroke="#3a414a" stroke-width=".05" fill="#3a414a"/><path d="M320 517.38l-4.63-14.26h9.26z" stroke="#3a414a" fill="#3a414a"/><path d="M360 560c0 22.1-17.9 40-40 40s-40-17.9-40-40 17.9-40 40-40 40 17.9 40 40z" stroke="#3a414a" stroke-width="2"/><use xlink:href="#e" transform="matrix(1,0,0,1,285,525) translate(28.13693576388889 43.40277777777778)"/><path d="M500 441.5V474a6 6 0 0 1-6 6h-48a6 6 0 0 0-6 6v16.62" stroke="#3a414a" fill="none"/><path d="M500 441l.48-.02v.53h-.96v-.53z" stroke="#3a414a" stroke-width=".05" fill="#3a414a"/><path d="M440 517.38l-4.63-14.26h9.26z" stroke="#3a414a" fill="#3a414a"/><path d="M480 560c0 22.1-17.9 40-40 40s-40-17.9-40-40 17.9-40 40-40 40 17.9 40 40z" stroke="#3a414a" stroke-width="2"/><use xlink:href="#f" transform="matrix(1,0,0,1,405,525) translate(28.10980902777778 43.40277777777778)"/><path d="M500 441.5V474a6 6 0 0 0 6 6h48a6 6 0 0 1 6 6v16.62" stroke="#3a414a" fill="none"/><path d="M500 441l.48-.02v.53h-.96v-.53z" stroke="#3a414a" stroke-width=".05" fill="#3a414a"/><path d="M560 517.38l-4.63-14.26h9.26z" stroke="#3a414a" fill="#3a414a"/><path d="M600 560c0 22.1-17.9 40-40 40s-40-17.9-40-40 17.9-40 40-40 40 17.9 40 40z" stroke="#3a414a" stroke-width="2"/><use xlink:href="#g" transform="matrix(1,0,0,1,525,525) translate(28.126085069444443 43.40277777777778)"/><path d="M320 601.5V634a6 6 0 0 1-6 6h-48a6 6 0 0 0-6 6v16.62" stroke="#3a414a" fill="none"/><path d="M320 601l.48-.02v.53h-.96v-.53z" stroke="#3a414a" stroke-width=".05" fill="#3a414a"/><path d="M260 677.38l-4.63-14.26h9.26z" stroke="#3a414a" fill="#3a414a"/><path d="M300 720c0 22.1-17.9 40-40 40s-40-17.9-40-40 17.9-40 40-40 40 17.9 40 40z" stroke="#3a414a" stroke-width="2"/><use xlink:href="#h" transform="matrix(1,0,0,1,225,685) translate(28.223741319444443 43.40277777777778)"/><path d="M320 601.5V634a6 6 0 0 0 6 6h48a6 6 0 0 1 6 6v16.62" stroke="#3a414a" fill="none"/><path d="M320 601l.48-.02v.53h-.96v-.53z" stroke="#3a414a" stroke-width=".05" fill="#3a414a"/><path d="M380 677.38l-4.63-14.26h9.26z" stroke="#3a414a" fill="#3a414a"/><path d="M420 720c0 22.1-17.9 40-40 40s-40-17.9-40-40 17.9-40 40-40 40 17.9 40 40z" stroke="#3a414a" stroke-width="2"/><use xlink:href="#i" transform="matrix(1,0,0,1,345,685) translate(27.822265625 43.40277777777778)"/><path d="M100 196a6 6 0 0 1 6-6h148a6 6 0 0 1 6 6v88a6 6 0 0 1-6 6H106a6 6 0 0 1-6-6z" stroke="#3a414a" stroke-width="2" fill="#fff"/><use xlink:href="#j" transform="matrix(1,0,0,1,105,195) translate(22.667100694444443 27.15277777777778)"/><use xlink:href="#k" transform="matrix(1,0,0,1,105,195) translate(118.29427083333333 27.15277777777778)"/><use xlink:href="#l" transform="matrix(1,0,0,1,105,195) translate(47.585720486111114 54.040798611111114)"/><use xlink:href="#m" transform="matrix(1,0,0,1,105,195) translate(67.44249131944444 54.040798611111114)"/><use xlink:href="#n" transform="matrix(1,0,0,1,105,195) translate(88.39518229166667 54.040798611111114)"/><use xlink:href="#o" transform="matrix(1,0,0,1,105,195) translate(47.41753472222222 80.92881944444446)"/><use xlink:href="#m" transform="matrix(1,0,0,1,105,195) translate(67.27430555555556 80.92881944444446)"/><use xlink:href="#p" transform="matrix(1,0,0,1,105,195) translate(88.22699652777777 80.92881944444446)"/><path d="M420 870c0 22.1-17.9 40-40 40s-40-17.9-40-40 17.9-40 40-40 40 17.9 40 40z" stroke="#3a414a" stroke-width="2"/><use xlink:href="#a" transform="matrix(1,0,0,1,345,835) translate(28.245442708333336 43.40277777777778)"/><path d="M380 911.5V944a6 6 0 0 1-6 6H266a6 6 0 0 0-6 6v16.62" stroke="#3a414a" fill="none"/><path d="M380 911l.48-.02v.53h-.96v-.53z" stroke="#3a414a" stroke-width=".05" fill="#3a414a"/><path d="M260 987.38l-4.63-14.26h9.26z" stroke="#3a414a" fill="#3a414a"/><path d="M300 1030c0 22.1-17.9 40-40 40s-40-17.9-40-40 17.9-40 40-40 40 17.9 40 40z" stroke="#3a414a" stroke-width="2"/><use xlink:href="#b" transform="matrix(1,0,0,1,225,995) translate(30.48068576388889 43.40277777777778)"/><path d="M380 911.5V944a6 6 0 0 0 6 6h108a6 6 0 0 1 6 6v16.62" stroke="#3a414a" fill="none"/><path d="M380 911l.48-.02v.53h-.96v-.53z" stroke="#3a414a" stroke-width=".05" fill="#3a414a"/><path d="M500 987.38l-4.63-14.26h9.26z" stroke="#3a414a" fill="#3a414a"/><path d="M540 1030c0 22.1-17.9 40-40 40s-40-17.9-40-40 17.9-40 40-40 40 17.9 40 40z" stroke="#3a414a" stroke-width="2"/><use xlink:href="#c" transform="matrix(1,0,0,1,465,995) translate(28.712022569444443 43.40277777777778)"/><path d="M260 1071.5v32.5a6 6 0 0 1-6 6h-48a6 6 0 0 0-6 6v16.62" stroke="#3a414a" fill="none"/><path d="M260 1071l.48-.02v.53h-.96v-.53z" stroke="#3a414a" stroke-width=".05" fill="#3a414a"/><path d="M200 1147.38l-4.63-14.27 9.26.02z" stroke="#3a414a" fill="#3a414a"/><path d="M240 1190c0 22.1-17.9 40-40 40s-40-17.9-40-40 17.9-40 40-40 40 17.9 40 40z" stroke="#3a414a" stroke-width="2"/><use xlink:href="#d" transform="matrix(1,0,0,1,165,1155) translate(27.99045138888889 43.40277777777778)"/><path d="M260 1071.5v32.5a6 6 0 0 0 6 6h48a6 6 0 0 1 6 6v16.62" stroke="#3a414a" fill="none"/><path d="M260 1071l.48-.02v.53h-.96v-.53z" stroke="#3a414a" stroke-width=".05" fill="#3a414a"/><path d="M320 1147.38l-4.63-14.27 9.26.02z" stroke="#3a414a" fill="#3a414a"/><path d="M360 1190c0 22.1-17.9 40-40 40s-40-17.9-40-40 17.9-40 40-40 40 17.9 40 40z" stroke="#3a414a" stroke-width="2"/><use xlink:href="#e" transform="matrix(1,0,0,1,285,1155) translate(28.13693576388889 43.40277777777778)"/><path d="M500 1071.5v32.5a6 6 0 0 1-6 6h-48a6 6 0 0 0-6 6v16.62" stroke="#3a414a" fill="none"/><path d="M500 1071l.48-.02v.53h-.96v-.53z" stroke="#3a414a" stroke-width=".05" fill="#3a414a"/><path d="M440 1147.38l-4.63-14.27 9.26.02z" stroke="#3a414a" fill="#3a414a"/><path d="M480 1190c0 22.1-17.9 40-40 40s-40-17.9-40-40 17.9-40 40-40 40 17.9 40 40z" stroke="#3a414a" stroke-width="2"/><use xlink:href="#f" transform="matrix(1,0,0,1,405,1155) translate(28.10980902777778 43.40277777777778)"/><path d="M500 1071.5v32.5a6 6 0 0 0 6 6h48a6 6 0 0 1 6 6v16.62" stroke="#3a414a" fill="none"/><path d="M500 1071l.48-.02v.53h-.96v-.53z" stroke="#3a414a" stroke-width=".05" fill="#3a414a"/><path d="M560 1147.38l-4.63-14.27 9.26.02z" stroke="#3a414a" fill="#3a414a"/><path d="M600 1190c0 22.1-17.9 40-40 40s-40-17.9-40-40 17.9-40 40-40 40 17.9 40 40z" stroke="#3a414a" stroke-width="2"/><use xlink:href="#g" transform="matrix(1,0,0,1,525,1155) translate(28.126085069444443 43.40277777777778)"/><path d="M320 1231.5v32.5a6 6 0 0 1-6 6h-48a6 6 0 0 0-6 6v16.62" stroke="#3a414a" fill="none"/><path d="M320 1231l.48-.02v.53h-.96v-.53z" stroke="#3a414a" stroke-width=".05" fill="#3a414a"/><path d="M260 1307.38l-4.63-14.27 9.26.02z" stroke="#3a414a" fill="#3a414a"/><path d="M300 1350c0 22.1-17.9 40-40 40s-40-17.9-40-40 17.9-40 40-40 40 17.9 40 40z" stroke="#3a414a" stroke-width="2"/><use xlink:href="#h" transform="matrix(1,0,0,1,225,1315) translate(28.223741319444443 43.40277777777778)"/><path d="M320 1231.5v32.5a6 6 0 0 0 6 6h48a6 6 0 0 1 6 6v16.62" stroke="#3a414a" fill="none"/><path d="M320 1231l.48-.02v.53h-.96v-.53z" stroke="#3a414a" stroke-width=".05" fill="#3a414a"/><path d="M380 1307.38l-4.63-14.27 9.26.02z" stroke="#3a414a" fill="#3a414a"/><path d="M420 1350c0 22.1-17.9 40-40 40s-40-17.9-40-40 17.9-40 40-40 40 17.9 40 40z" stroke="#3a414a" stroke-width="2"/><use xlink:href="#i" transform="matrix(1,0,0,1,345,1315) translate(27.822265625 43.40277777777778)"/><path d="M100 826a6 6 0 0 1 6-6h148a6 6 0 0 1 6 6v88a6 6 0 0 1-6 6H106a6 6 0 0 1-6-6z" stroke="#3a414a" stroke-width="2" fill="#fff"/><g><use xlink:href="#j" transform="matrix(1,0,0,1,105,825) translate(22.667100694444443 27.15277777777778)"/><use xlink:href="#k" transform="matrix(1,0,0,1,105,825) translate(118.29427083333333 27.15277777777778)"/><use xlink:href="#l" transform="matrix(1,0,0,1,105,825) translate(47.819010416666664 54.040798611111114)"/><use xlink:href="#m" transform="matrix(1,0,0,1,105,825) translate(67.67578125 54.040798611111114)"/><use xlink:href="#q" transform="matrix(1,0,0,1,105,825) translate(88.62847222222223 54.040798611111114)"/><use xlink:href="#o" transform="matrix(1,0,0,1,105,825) translate(47.41753472222222 80.92881944444446)"/><use xlink:href="#m" transform="matrix(1,0,0,1,105,825) translate(67.27430555555556 80.92881944444446)"/><use xlink:href="#p" transform="matrix(1,0,0,1,105,825) translate(88.22699652777777 80.92881944444446)"/></g><path d="M460 666a6 6 0 0 1 6-6h128a6 6 0 0 1 6 6v48a6 6 0 0 1-6 6H466a6 6 0 0 1-6-6z" stroke="#3a414a" stroke-width="2" fill="#fff"/><g><use xlink:href="#r" transform="matrix(1,0,0,1,465,665) translate(22.763671875 34.02777777777778)"/><use xlink:href="#s" transform="matrix(1,0,0,1,465,665) translate(98.19769965277777 34.02777777777778)"/></g><path d="M460 1306a6 6 0 0 1 6-6h128a6 6 0 0 1 6 6v48a6 6 0 0 1-6 6H466a6 6 0 0 1-6-6z" stroke="#3a414a" stroke-width="2" fill="#fff"/><g><use xlink:href="#r" transform="matrix(1,0,0,1,465,1305) translate(20.419921875 34.02777777777778)"/><use xlink:href="#t" transform="matrix(1,0,0,1,465,1305) translate(95.85394965277777 34.02777777777778)"/></g><defs><path fill="#fff" d="M626 20c-262 0-458-168-468-396h184c12 133 134 229 284 229 180 0 311-137 311-326 0-192-136-335-323-335-92 0-196 33-255 78l-178-22 88-738h784v167H429l-51 435h8c61-51 160-87 263-87 273 0 474 211 474 499 0 286-210 496-497 496" id="u"/><use transform="matrix(0.010850694444444444,0,0,0.010850694444444444,0,0)" xlink:href="#u" id="a"/><path fill="#fff" d="M653-1490V0H466v-1314h-10L96-1047v-204l324-239h233" id="v"/><use transform="matrix(0.010850694444444444,0,0,0.010850694444444444,0,0)" xlink:href="#v" id="b"/><path fill="#fff" d="M200 0l662-1311v-12H98v-167h963v177L400 0H200" id="w"/><use transform="matrix(0.010850694444444444,0,0,0.010850694444444444,0,0)" xlink:href="#w" id="c"/><path fill="#fff" d="M646 20c-332 0-524-278-524-764 0-483 194-766 524-766s524 283 524 766c0 485-191 764-524 764zm0-166c218 0 341-220 341-598 0-380-123-601-341-601s-341 222-341 601c0 378 123 598 341 598" id="x"/><use transform="matrix(0.010850694444444444,0,0,0.010850694444444444,0,0)" xlink:href="#x" id="d"/><path fill="#fff" d="M635 20c-292 0-500-160-510-396h192c11 142 145 229 315 229 187 0 323-105 323-260 0-161-125-274-346-274H488v-165h121c174 0 294-100 294-254 0-148-104-245-266-245-152 0-291 85-297 230H157c8-234 222-395 484-395 278 0 448 188 448 400 0 168-95 291-247 336v12c190 31 301 169 301 357 0 244-216 425-508 425" id="y"/><use transform="matrix(0.010850694444444444,0,0,0.010850694444444444,0,0)" xlink:href="#y" id="e"/><path fill="#fff" d="M646 20c-249 0-524-159-524-708 0-524 209-822 547-822 250 0 431 161 467 395H950c-33-129-126-227-281-227-229 0-367 208-367 566h12c80-124 212-198 367-198 255 0 467 205 467 493 0 278-198 501-502 501zm0-167c179 0 318-148 318-334 0-182-133-328-313-328-181 0-322 156-322 330 0 176 134 332 317 332" id="z"/><use transform="matrix(0.010850694444444444,0,0,0.010850694444444444,0,0)" xlink:href="#z" id="f"/><path fill="#fff" d="M633 20c-303 0-511-173-511-416 0-188 124-348 291-378v-8c-145-37-237-174-237-332 0-227 192-396 457-396 261 0 456 169 456 396 0 158-94 295-235 332v8c162 30 291 190 291 378 0 243-212 416-512 416zm0-165c197 0 322-103 322-261 0-165-138-283-322-283-188 0-324 118-324 283 0 158 123 261 324 261zm0-703c157 0 272-101 272-252 0-149-110-246-272-246-165 0-273 97-273 246 0 151 112 252 273 252" id="A"/><use transform="matrix(0.010850694444444444,0,0,0.010850694444444444,0,0)" xlink:href="#A" id="g"/><path fill="#fff" d="M154 0v-137l495-537c165-179 249-281 249-418 0-156-121-253-280-253-170 0-278 110-278 278H158c0-264 200-443 465-443 266 0 455 183 455 416 0 161-73 288-336 568L416-179v12h687V0H154" id="B"/><use transform="matrix(0.010850694444444444,0,0,0.010850694444444444,0,0)" xlink:href="#B" id="h"/><path fill="#fff" d="M120-303v-155l652-1032h231v1020h202v167h-202V0H821v-303H120zm702-167v-782h-12L323-482v12h499" id="C"/><use transform="matrix(0.010850694444444444,0,0,0.010850694444444444,0,0)" xlink:href="#C" id="i"/><path d="M180 0v-1490h908v168H370v486h669v168H370v500h727V0H180" id="D"/><path d="M65 0l393-574-370-544h210c88 136 192 297 267 435 67-142 176-302 264-435h206L661-564 1053 0H844c-94-144-206-310-287-458C484-308 366-142 273 0H65" id="E"/><path d="M471 26C259 26 90-98 90-318c0-256 228-303 435-329 202-27 287-16 287-108 0-139-79-219-234-219-161 0-248 86-283 164l-173-57c86-203 278-265 451-265 150 0 419 46 419 395V0H815v-152h-12C765-73 660 26 471 26zm31-159c199 0 310-134 310-271v-155c-30 35-226 55-295 64-131 17-246 59-246 186 0 116 97 176 231 176" id="F"/><path d="M158 0v-1118h175l1 205c55-151 181-225 313-225 147 0 245 90 285 228 53-141 190-228 352-228 194 0 352 125 352 384V0h-181v-749c0-161-105-225-225-225-151 0-243 103-243 244V0H807v-767c0-124-93-207-219-207-131 0-250 92-250 270V0H158" id="G"/><path d="M158 418v-1536h174v179h20c37-59 106-193 324-193 279 0 474 222 474 576 0 356-194 580-473 580-213 0-288-135-325-197h-14v591H158zm492-555c209 0 317-186 317-421 0-232-105-413-317-413-206 0-314 166-314 413 0 249 111 421 314 421" id="H"/><path d="M338-1490V0H158v-1490h180" id="I"/><path d="M628 24c-324 0-524-230-524-574 0-343 198-582 503-582 237 0 487 146 487 559v75H286c9 234 145 362 343 362 132 0 231-58 273-172l174 48C1024-91 857 24 628 24zM287-650h624c-17-190-120-322-304-322-192 0-309 151-320 322" id="J"/><g id="j"><use transform="matrix(0.010850694444444444,0,0,0.010850694444444444,0,0)" xlink:href="#D"/><use transform="matrix(0.010850694444444444,0,0,0.010850694444444444,13.35720486111111,0)" xlink:href="#E"/><use transform="matrix(0.010850694444444444,0,0,0.010850694444444444,25.48828125,0)" xlink:href="#F"/><use transform="matrix(0.010850694444444444,0,0,0.010850694444444444,37.966579861111114,0)" xlink:href="#G"/><use transform="matrix(0.010850694444444444,0,0,0.010850694444444444,57.43272569444444,0)" xlink:href="#H"/><use transform="matrix(0.010850694444444444,0,0,0.010850694444444444,71.03949652777777,0)" xlink:href="#I"/><use transform="matrix(0.010850694444444444,0,0,0.010850694444444444,76.42144097222221,0)" xlink:href="#J"/></g><path d="M653-1490V0H466v-1314h-10L96-1047v-204l324-239h233" id="K"/><use transform="matrix(0.010850694444444444,0,0,0.010850694444444444,0,0)" xlink:href="#K" id="k"/><use transform="matrix(0.010850694444444444,0,0,0.010850694444444444,0,0)" xlink:href="#H" id="l"/><path d="M226-283v-166h904v166H226zm0-434v-166h904v166H226" id="L"/><use transform="matrix(0.010850694444444444,0,0,0.010850694444444444,0,0)" xlink:href="#L" id="m"/><path d="M646 20c-332 0-524-278-524-764 0-483 194-766 524-766s524 283 524 766c0 485-191 764-524 764zm0-166c218 0 341-220 341-598 0-380-123-601-341-601s-341 222-341 601c0 378 123 598 341 598" id="M"/><use transform="matrix(0.010850694444444444,0,0,0.010850694444444444,0,0)" xlink:href="#M" id="n"/><path d="M1096 418H916v-591h-14C865-111 790 24 577 24c-279 0-473-224-473-580 0-354 195-576 474-576 218 0 287 134 324 193h20v-179h174V418zM604-137c203 0 314-172 314-421 0-247-108-413-314-413-212 0-317 181-317 413 0 235 108 421 317 421" id="N"/><use transform="matrix(0.010850694444444444,0,0,0.010850694444444444,0,0)" xlink:href="#N" id="o"/><path d="M120-303v-155l652-1032h231v1020h202v167h-202V0H821v-303H120zm702-167v-782h-12L323-482v12h499" id="O"/><use transform="matrix(0.010850694444444444,0,0,0.010850694444444444,0,0)" xlink:href="#O" id="p"/><path d="M154 0v-137l495-537c165-179 249-281 249-418 0-156-121-253-280-253-170 0-278 110-278 278H158c0-264 200-443 465-443 266 0 455 183 455 416 0 161-73 288-336 568L416-179v12h687V0H154" id="P"/><use transform="matrix(0.010850694444444444,0,0,0.010850694444444444,0,0)" xlink:href="#P" id="q"/><path d="M180 0v-1490h510c348 0 508 194 508 460 0 198-88 351-276 417L1256 0h-220L726-579c-117 2-238 0-356 1V0H180zm190-747h312c235 0 327-108 327-283 0-177-92-293-329-293H370v576" id="Q"/><path d="M598-1118v154H368v674c0 100 37 144 132 144 23 0 62-6 92-12L629-6c-37 13-88 20-134 20-193 0-307-107-307-290v-688H20v-154h168v-266h180v266h230" id="R"/><path d="M537 14c-226 0-379-139-379-422v-710h180v695c0 172 97 275 253 275 160 0 281-109 281-300v-670h181V0H879v-209C806-46 684 14 537 14" id="S"/><path d="M158 0v-1118h174v172h12c41-113 157-188 290-188 26 0 70 2 91 3v181c-11-2-60-10-108-10-161 0-279 109-279 260V0H158" id="T"/><path d="M338-670V0H158v-1118h173l1 207c72-158 192-221 342-221 226 0 378 139 378 422V0H872v-695c0-172-96-275-252-275-161 0-282 109-282 300" id="U"/><g id="r"><use transform="matrix(0.010850694444444444,0,0,0.010850694444444444,0,0)" xlink:href="#Q"/><use transform="matrix(0.010850694444444444,0,0,0.010850694444444444,13.975694444444445,0)" xlink:href="#J"/><use transform="matrix(0.010850694444444444,0,0,0.010850694444444444,26.931423611111104,0)" xlink:href="#R"/><use transform="matrix(0.010850694444444444,0,0,0.010850694444444444,34.201388888888886,0)" xlink:href="#S"/><use transform="matrix(0.010850694444444444,0,0,0.010850694444444444,47.34157986111111,0)" xlink:href="#T"/><use transform="matrix(0.010850694444444444,0,0,0.010850694444444444,56.054687499999986,0)" xlink:href="#U"/></g><use transform="matrix(0.010850694444444444,0,0,0.010850694444444444,0,0)" xlink:href="#K" id="s"/><path d="M635 20c-292 0-500-160-510-396h192c11 142 145 229 315 229 187 0 323-105 323-260 0-161-125-274-346-274H488v-165h121c174 0 294-100 294-254 0-148-104-245-266-245-152 0-291 85-297 230H157c8-234 222-395 484-395 278 0 448 188 448 400 0 168-95 291-247 336v12c190 31 301 169 301 357 0 244-216 425-508 425" id="V"/><use transform="matrix(0.010850694444444444,0,0,0.010850694444444444,0,0)" xlink:href="#V" id="t"/></defs></g></svg>