<svg xmlns="http://www.w3.org/2000/svg" xmlns:xlink="http://www.w3.org/1999/xlink" xmlns:lucid="lucid" width="1129.25" height="4464.31"><g transform="translate(-1798.2150677789364 -1129.224955335627)" lucid:page-tab-id="0_0"><path d="M2445.97 1210.72c0 44.2-35.82 80-80 80-44.2 0-80-35.8-80-80 0-44.18 35.8-80 80-80 44.18 0 80 35.82 80 80z" stroke="#3a414a" stroke-width="3"/><use xlink:href="#a" transform="matrix(1,0,0,1,2293.9650677789364,1138.724955335627) translate(61.15364583333333 92.16666666666667)"/><path d="M2285.97 1698.7c0 44.17-35.82 80-80 80-44.2 0-80-35.83-80-80 0-44.2 35.8-80 80-80 44.18 0 80 35.8 80 80z" stroke="#3a414a" stroke-width="3"/><use xlink:href="#b" transform="matrix(1,0,0,1,2133.9650677789364,1626.68718494621) translate(55.736979166666664 92.16666666666667)"/><path d="M2605.97 1698.7c0 44.17-35.82 80-80 80-44.2 0-80-35.83-80-80 0-44.2 35.8-80 80-80 44.18 0 80 35.8 80 80z" stroke="#3a414a" stroke-width="3"/><use xlink:href="#c" transform="matrix(1,0,0,1,2453.9650677789364,1626.68718494621) translate(55.52864583333333 92.16666666666667)"/><path d="M2363.76 1296.7l-133.96 272.07" stroke="#3a414a" stroke-width="10" fill="none"/><path d="M2368.16 1299.02l-8.92-4.4 1.27-2.58.3.02 5.14.16h.73l4.94-.2z" stroke="#3a414a" stroke-width=".05" fill="#3a414a"/><path d="M2210.38 1608.22l-2.97-44.9 40.38 19.87z" stroke="#3a414a" stroke-width="10" fill="#3a414a"/><path d="M2368.17 1296.7l133.95 272.07" stroke="#3a414a" stroke-width="10" fill="none"/><path d="M2360.8 1292.06l5.14.16h.73l4.75-.18 1.27 2.6-8.93 4.38-3.45-7z" stroke="#3a414a" stroke-width=".05" fill="#3a414a"/><path d="M2521.55 1608.22l-37.4-25.03 40.37-19.9z" stroke="#3a414a" stroke-width="10" fill="#3a414a"/><path d="M1965.96 2157.65c0 44.18-35.8 80-80 80-44.18 0-80-35.82-80-80s35.82-80 80-80c44.2 0 80 35.82 80 80z" stroke="#3a414a" stroke-width="3"/><use xlink:href="#d" transform="matrix(1,0,0,1,1813.9650677789364,2085.6484929535623) translate(54.7734375 92.16666666666667)"/><path d="M2285.97 2157.65c0 44.18-35.82 80-80 80-44.2 0-80-35.82-80-80s35.8-80 80-80c44.18 0 80 35.82 80 80z" stroke="#3a414a" stroke-width="3"/><use xlink:href="#e" transform="matrix(1,0,0,1,2133.9650677789364,2085.6484929535623) translate(55.7890625 92.16666666666667)"/><path d="M2605.97 2157.65c0 44.18-35.82 80-80 80-44.2 0-80-35.82-80-80s35.8-80 80-80c44.18 0 80 35.82 80 80z" stroke="#3a414a" stroke-width="3"/><use xlink:href="#f" transform="matrix(1,0,0,1,2453.9650677789364,2085.6484929535623) translate(55.463541666666664 92.16666666666667)"/><path d="M2925.97 2157.65c0 44.18-35.82 80-80 80-44.2 0-80-35.82-80-80s35.8-80 80-80c44.18 0 80 35.82 80 80z" stroke="#3a414a" stroke-width="3"/><use xlink:href="#g" transform="matrix(1,0,0,1,2773.9650677789364,2085.6484929535623) translate(56.908854166666664 92.16666666666667)"/><path d="M2205.97 1785.2v236.98" stroke="#3a414a" stroke-width="10" fill="none"/><path d="M2210.94 1785.32H2201v-5.3l4.95.17.72-.02 4.27-.16z" stroke="#3a414a" stroke-width=".05" fill="#3a414a"/><path d="M2205.97 2066.15l-22.5-38.97h45z" stroke="#3a414a" stroke-width="10" fill="#3a414a"/><path d="M2202.43 1783.72l-257.08 257.08" stroke="#3a414a" stroke-width="10" fill="none"/><path d="M2200.8 1780.03l5.14.16.73-.02 3.4-.13 1.53 1.53-5.74 5.75-7.04-7.03.42-.42z" stroke="#3a414a" stroke-width=".05" fill="#3a414a"/><path d="M1914.26 2071.9l11.64-43.47 31.82 31.82z" stroke="#3a414a" stroke-width="10" fill="#3a414a"/><path d="M2525.97 1785.2v236.98" stroke="#3a414a" stroke-width="10" fill="none"/><path d="M2530.94 1785.32H2521v-5.3l4.95.17.72-.02 4.27-.16z" stroke="#3a414a" stroke-width=".05" fill="#3a414a"/><path d="M2525.97 2066.15l-22.5-38.97h45z" stroke="#3a414a" stroke-width="10" fill="#3a414a"/><path d="M2529.5 1783.72l257.07 257.07" stroke="#3a414a" stroke-width="10" fill="none"/><path d="M2533.1 1780.3l-7.03 7.03-5.74-5.75 1.52-1.52 4.1.13.72-.02 5.14-.2.9-.1z" stroke="#3a414a" stroke-width=".05" fill="#3a414a"/><path d="M2817.66 2071.88l-43.47-11.64 31.8-31.82z" stroke="#3a414a" stroke-width="10" fill="#3a414a"/><path d="M2439.72 2485.03c0 44.18-35.82 80-80 80-44.2 0-80-35.82-80-80s35.8-80 80-80c44.18 0 80 35.82 80 80z" stroke="#3a414a" stroke-width="3"/><use xlink:href="#a" transform="matrix(1,0,0,1,2287.7150677789364,2413.030390509542) translate(61.15364583333333 92.16666666666667)"/><path d="M2279.72 2973c0 44.18-35.82 80-80 80-44.2 0-80-35.82-80-80 0-44.2 35.8-80 80-80 44.18 0 80 35.8 80 80z" stroke="#3a414a" stroke-width="3"/><use xlink:href="#c" transform="matrix(1,0,0,1,2127.7150677789364,2900.9926201201256) translate(55.52864583333333 92.16666666666667)"/><path d="M2599.72 2973c0 44.18-35.82 80-80 80-44.2 0-80-35.82-80-80 0-44.2 35.8-80 80-80 44.18 0 80 35.8 80 80z" stroke="#3a414a" stroke-width="3"/><use xlink:href="#b" transform="matrix(1,0,0,1,2447.7150677789364,2900.9926201201256) translate(55.736979166666664 92.16666666666667)"/><path d="M2357.5 2571.02l-133.95 272.05" stroke="#3a414a" stroke-width="10" fill="none"/><path d="M2361.9 2573.33l-8.9-4.4 1.26-2.6.3.04 5.14.16h.72l4.94-.2z" stroke="#3a414a" stroke-width=".05" fill="#3a414a"/><path d="M2204.13 2882.52l-2.97-44.9 40.37 19.88z" stroke="#3a414a" stroke-width="10" fill="#3a414a"/><path d="M2361.92 2571.02l133.95 272.05" stroke="#3a414a" stroke-width="10" fill="none"/><path d="M2354.55 2566.37l5.14.16h.72l4.75-.2 1.27 2.6-8.92 4.4-3.45-7z" stroke="#3a414a" stroke-width=".05" fill="#3a414a"/><path d="M2515.3 2882.52l-37.4-25.02 40.37-19.88z" stroke="#3a414a" stroke-width="10" fill="#3a414a"/><path d="M2439.72 3295.6c0 44.17-35.82 80-80 80-44.2 0-80-35.83-80-80 0-44.2 35.8-80 80-80 44.18 0 80 35.8 80 80z" stroke="#3a414a" stroke-width="3"/><use xlink:href="#a" transform="matrix(1,0,0,1,2287.7150677789364,3223.5894477245465) translate(61.15364583333333 92.16666666666667)"/><path d="M2279.72 3783.55c0 44.18-35.82 80-80 80-44.2 0-80-35.82-80-80s35.8-80 80-80c44.18 0 80 35.82 80 80z" stroke="#3a414a" stroke-width="3"/><use xlink:href="#c" transform="matrix(1,0,0,1,2127.7150677789364,3711.5516773351296) translate(55.52864583333333 92.16666666666667)"/><path d="M2599.72 3783.55c0 44.18-35.82 80-80 80-44.2 0-80-35.82-80-80s35.8-80 80-80c44.18 0 80 35.82 80 80z" stroke="#3a414a" stroke-width="3"/><use xlink:href="#b" transform="matrix(1,0,0,1,2447.7150677789364,3711.5516773351296) translate(55.736979166666664 92.16666666666667)"/><path d="M2357.5 3381.57l-133.95 272.06" stroke="#3a414a" stroke-width="10" fill="none"/><path d="M2361.9 3383.9l-8.9-4.4 1.26-2.6.3.03 5.14.16h.72l4.94-.2z" stroke="#3a414a" stroke-width=".05" fill="#3a414a"/><path d="M2204.13 3693.08l-2.97-44.9 40.37 19.88z" stroke="#3a414a" stroke-width="10" fill="#3a414a"/><path d="M2361.92 3381.57l133.95 272.06" stroke="#3a414a" stroke-width="10" fill="none"/><path d="M2354.55 3376.93l5.14.16h.72l4.75-.2 1.27 2.6-8.92 4.4-3.45-7.02z" stroke="#3a414a" stroke-width=".05" fill="#3a414a"/><path d="M2515.3 3693.08l-37.4-25.02 40.37-19.88z" stroke="#3a414a" stroke-width="10" fill="#3a414a"/><path d="M1959.7 4242.5c0 44.2-35.8 80-80 80-44.17 0-80-35.8-80-80 0-44.17 35.83-80 80-80 44.2 0 80 35.83 80 80z" stroke="#3a414a" stroke-width="3"/><use xlink:href="#g" transform="matrix(1,0,0,1,1807.7150677789364,4170.512985342482) translate(56.908854166666664 92.16666666666667)"/><path d="M2279.72 4242.5c0 44.2-35.82 80-80 80-44.2 0-80-35.8-80-80 0-44.17 35.8-80 80-80 44.18 0 80 35.83 80 80z" stroke="#3a414a" stroke-width="3"/><use xlink:href="#f" transform="matrix(1,0,0,1,2127.7150677789364,4170.512985342482) translate(55.463541666666664 92.16666666666667)"/><path d="M2199.72 3870.05v237" stroke="#3a414a" stroke-width="10" fill="none"/><path d="M2204.7 3870.18h-9.96v-5.28l4.96.15h.72l4.27-.17z" stroke="#3a414a" stroke-width=".05" fill="#3a414a"/><path d="M2199.72 4151l-22.5-38.96h45z" stroke="#3a414a" stroke-width="10" fill="#3a414a"/><path d="M2196.18 3868.6l-257.08 257.07" stroke="#3a414a" stroke-width="10" fill="none"/><path d="M2194.55 3864.9l5.14.15h.72l3.4-.14 1.53 1.55-5.74 5.75-7.03-7.04.42-.42z" stroke="#3a414a" stroke-width=".05" fill="#3a414a"/><path d="M1908 4156.76l11.65-43.47 31.82 31.8z" stroke="#3a414a" stroke-width="10" fill="#3a414a"/><path d="M2445.97 4565.1c0 44.2-35.82 80-80 80-44.2 0-80-35.8-80-80 0-44.17 35.8-80 80-80 44.18 0 80 35.83 80 80z" stroke="#3a414a" stroke-width="3"/><use xlink:href="#a" transform="matrix(1,0,0,1,2293.9650677789364,4493.109812946903) translate(61.15364583333333 92.16666666666667)"/><path d="M2285.97 5053.07c0 44.2-35.82 80-80 80-44.2 0-80-35.8-80-80 0-44.18 35.8-80 80-80 44.18 0 80 35.82 80 80z" stroke="#3a414a" stroke-width="3"/><use xlink:href="#c" transform="matrix(1,0,0,1,2133.9650677789364,4981.0720425574855) translate(55.52864583333333 92.16666666666667)"/><path d="M2605.97 5053.07c0 44.2-35.82 80-80 80-44.2 0-80-35.8-80-80 0-44.18 35.8-80 80-80 44.18 0 80 35.82 80 80z" stroke="#3a414a" stroke-width="3"/><use xlink:href="#b" transform="matrix(1,0,0,1,2453.9650677789364,4981.0720425574855) translate(55.736979166666664 92.16666666666667)"/><path d="M2363.76 4651.1l-133.96 272.05" stroke="#3a414a" stroke-width="10" fill="none"/><path d="M2368.16 4653.4l-8.92-4.4 1.27-2.58.3.03 5.14.16h.73l4.94-.2z" stroke="#3a414a" stroke-width=".05" fill="#3a414a"/><path d="M2210.38 4962.6l-2.97-44.9 40.38 19.88z" stroke="#3a414a" stroke-width="10" fill="#3a414a"/><path d="M2368.17 4651.1l133.95 272.05" stroke="#3a414a" stroke-width="10" fill="none"/><path d="M2360.8 4646.45l5.14.16h.73l4.75-.18 1.27 2.6-8.93 4.4-3.45-7.02z" stroke="#3a414a" stroke-width=".05" fill="#3a414a"/><path d="M2521.55 4962.6l-37.4-25.02 40.37-19.88z" stroke="#3a414a" stroke-width="10" fill="#3a414a"/><path d="M1965.96 5512.03c0 44.2-35.8 80-80 80-44.18 0-80-35.8-80-80 0-44.18 35.82-80 80-80 44.2 0 80 35.82 80 80z" stroke="#3a414a" stroke-width="3"/><use xlink:href="#g" transform="matrix(1,0,0,1,1813.9650677789364,5440.033350564838) translate(56.908854166666664 92.16666666666667)"/><path d="M2285.97 5512.03c0 44.2-35.82 80-80 80-44.2 0-80-35.8-80-80 0-44.18 35.8-80 80-80 44.18 0 80 35.82 80 80z" stroke="#3a414a" stroke-width="3"/><use xlink:href="#f" transform="matrix(1,0,0,1,2133.9650677789364,5440.033350564838) translate(55.463541666666664 92.16666666666667)"/><path d="M2605.97 5512.03c0 44.2-35.82 80-80 80-44.2 0-80-35.8-80-80 0-44.18 35.8-80 80-80 44.18 0 80 35.82 80 80z" stroke="#3a414a" stroke-width="3"/><use xlink:href="#e" transform="matrix(1,0,0,1,2453.9650677789364,5440.033350564838) translate(55.7890625 92.16666666666667)"/><path d="M2925.97 5512.03c0 44.2-35.82 80-80 80-44.2 0-80-35.8-80-80 0-44.18 35.8-80 80-80 44.18 0 80 35.82 80 80z" stroke="#3a414a" stroke-width="3"/><use xlink:href="#d" transform="matrix(1,0,0,1,2773.9650677789364,5440.033350564838) translate(54.7734375 92.16666666666667)"/><path d="M2205.97 5139.57v237" stroke="#3a414a" stroke-width="10" fill="none"/><path d="M2210.94 5139.7H2201v-5.28l4.95.15h.72l4.27-.17z" stroke="#3a414a" stroke-width=".05" fill="#3a414a"/><path d="M2205.97 5420.53l-22.5-38.97h45z" stroke="#3a414a" stroke-width="10" fill="#3a414a"/><path d="M2202.43 5138.1l-257.08 257.1" stroke="#3a414a" stroke-width="10" fill="none"/><path d="M2200.8 5134.4l5.14.17h.73l3.4-.13 1.53 1.53-5.74 5.75-7.04-7.04.42-.4z" stroke="#3a414a" stroke-width=".05" fill="#3a414a"/><path d="M1914.26 5426.28l11.64-43.47 31.82 31.83z" stroke="#3a414a" stroke-width="10" fill="#3a414a"/><path d="M2525.97 5139.57v237" stroke="#3a414a" stroke-width="10" fill="none"/><path d="M2530.94 5139.7H2521v-5.28l4.95.15h.72l4.27-.17z" stroke="#3a414a" stroke-width=".05" fill="#3a414a"/><path d="M2525.97 5420.53l-22.5-38.97h45z" stroke="#3a414a" stroke-width="10" fill="#3a414a"/><path d="M2529.5 5138.1l257.07 257.07" stroke="#3a414a" stroke-width="10" fill="none"/><path d="M2533.1 5134.68l-7.03 7.04-5.74-5.75 1.52-1.53 4.1.13h.72l5.14-.2.9-.1z" stroke="#3a414a" stroke-width=".05" fill="#3a414a"/><path d="M2817.66 5426.27l-43.47-11.65 31.8-31.82z" stroke="#3a414a" stroke-width="10" fill="#3a414a"/><defs><path fill="#fff" d="M653-1490V0H466v-1314h-10L96-1047v-204l324-239h233" id="h"/><use transform="matrix(0.026041666666666668,0,0,0.026041666666666668,0,0)" xlink:href="#h" id="a"/><path fill="#fff" d="M154 0v-137l495-537c165-179 249-281 249-418 0-156-121-253-280-253-170 0-278 110-278 278H158c0-264 200-443 465-443 266 0 455 183 455 416 0 161-73 288-336 568L416-179v12h687V0H154" id="i"/><use transform="matrix(0.026041666666666668,0,0,0.026041666666666668,0,0)" xlink:href="#i" id="b"/><path fill="#fff" d="M635 20c-292 0-500-160-510-396h192c11 142 145 229 315 229 187 0 323-105 323-260 0-161-125-274-346-274H488v-165h121c174 0 294-100 294-254 0-148-104-245-266-245-152 0-291 85-297 230H157c8-234 222-395 484-395 278 0 448 188 448 400 0 168-95 291-247 336v12c190 31 301 169 301 357 0 244-216 425-508 425" id="j"/><use transform="matrix(0.026041666666666668,0,0,0.026041666666666668,0,0)" xlink:href="#j" id="c"/><path fill="#fff" d="M120-303v-155l652-1032h231v1020h202v167h-202V0H821v-303H120zm702-167v-782h-12L323-482v12h499" id="k"/><use transform="matrix(0.026041666666666668,0,0,0.026041666666666668,0,0)" xlink:href="#k" id="d"/><path fill="#fff" d="M626 20c-262 0-458-168-468-396h184c12 133 134 229 284 229 180 0 311-137 311-326 0-192-136-335-323-335-92 0-196 33-255 78l-178-22 88-738h784v167H429l-51 435h8c61-51 160-87 263-87 273 0 474 211 474 499 0 286-210 496-497 496" id="l"/><use transform="matrix(0.026041666666666668,0,0,0.026041666666666668,0,0)" xlink:href="#l" id="e"/><path fill="#fff" d="M646 20c-249 0-524-159-524-708 0-524 209-822 547-822 250 0 431 161 467 395H950c-33-129-126-227-281-227-229 0-367 208-367 566h12c80-124 212-198 367-198 255 0 467 205 467 493 0 278-198 501-502 501zm0-167c179 0 318-148 318-334 0-182-133-328-313-328-181 0-322 156-322 330 0 176 134 332 317 332" id="m"/><use transform="matrix(0.026041666666666668,0,0,0.026041666666666668,0,0)" xlink:href="#m" id="f"/><path fill="#fff" d="M200 0l662-1311v-12H98v-167h963v177L400 0H200" id="n"/><use transform="matrix(0.026041666666666668,0,0,0.026041666666666668,0,0)" xlink:href="#n" id="g"/></defs></g></svg>