<svg xmlns="http://www.w3.org/2000/svg" xmlns:xlink="http://www.w3.org/1999/xlink" xmlns:lucid="lucid" width="597.49" height="402"><g transform="translate(-99 -139)" lucid:page-tab-id="0_0"><path d="M420 180c0 22.1-17.9 40-40 40s-40-17.9-40-40 17.9-40 40-40 40 17.9 40 40z" stroke="#3a414a" stroke-width="2"/><use xlink:href="#a" transform="matrix(1,0,0,1,345,145) translate(28.13693576388889 43.40277777777778)"/><path d="M380 221.5V254a6 6 0 0 1-6 6h-68a6 6 0 0 0-6 6v16.62" stroke="#3a414a" fill="none"/><path d="M380 221l.48-.02v.53h-.96v-.53z" stroke="#3a414a" stroke-width=".05" fill="#3a414a"/><path d="M300 297.38l-4.63-14.26h9.26z" stroke="#3a414a" fill="#3a414a"/><path d="M340 340c0 22.1-17.9 40-40 40s-40-17.9-40-40 17.9-40 40-40 40 17.9 40 40z" stroke="#3a414a" stroke-width="2"/><use xlink:href="#b" transform="matrix(1,0,0,1,265,305) translate(28.10980902777778 43.40277777777778)"/><path d="M380 221.5V254a6 6 0 0 0 6 6h68a6 6 0 0 1 6 6v16.62" stroke="#3a414a" fill="none"/><path d="M380 221l.48-.02v.53h-.96v-.53z" stroke="#3a414a" stroke-width=".05" fill="#3a414a"/><path d="M460 297.38l-4.63-14.26h9.26z" stroke="#3a414a" fill="#3a414a"/><path d="M500 340c0 22.1-17.9 40-40 40s-40-17.9-40-40 17.9-40 40-40 40 17.9 40 40z" stroke="#3a414a" stroke-width="2"/><use xlink:href="#c" transform="matrix(1,0,0,1,425,305) translate(21.214192708333336 43.40277777777778)"/><path d="M460 381.5V414a6 6 0 0 1-6 6h-68a6 6 0 0 0-6 6v16.62" stroke="#3a414a" fill="none"/><path d="M460 381l.48-.02v.53h-.96v-.53z" stroke="#3a414a" stroke-width=".05" fill="#3a414a"/><path d="M380 457.38l-4.63-14.26h9.26z" stroke="#3a414a" fill="#3a414a"/><path d="M420 500c0 22.1-17.9 40-40 40s-40-17.9-40-40 17.9-40 40-40 40 17.9 40 40z" stroke="#3a414a" stroke-width="2"/><use xlink:href="#d" transform="matrix(1,0,0,1,345,465) translate(23.72612847222222 43.40277777777778)"/><path d="M460 381.5V414a6 6 0 0 0 6 6h68a6 6 0 0 1 6 6v16.62" stroke="#3a414a" fill="none"/><path d="M460 381l.48-.02v.53h-.96v-.53z" stroke="#3a414a" stroke-width=".05" fill="#3a414a"/><path d="M540 457.38l-4.63-14.26h9.26z" stroke="#3a414a" fill="#3a414a"/><path d="M580 500c0 22.1-17.9 40-40 40s-40-17.9-40-40 17.9-40 40-40 40 17.9 40 40z" stroke="#3a414a" stroke-width="2"/><use xlink:href="#e" transform="matrix(1,0,0,1,505,465) translate(28.712022569444443 43.40277777777778)"/><path d="M160 146a6 6 0 0 1 6-6h128a6 6 0 0 1 6 6v68a6 6 0 0 1-6 6H166a6 6 0 0 1-6-6z" stroke="#3a414a" stroke-width="2" fill="#fff"/><use xlink:href="#f" transform="matrix(1,0,0,1,165,145) translate(12.667100694444443 43.40277777777778)"/><use xlink:href="#g" transform="matrix(1,0,0,1,165,145) translate(108.29427083333333 43.40277777777778)"/><path d="M440 146a6 6 0 0 1 6-6h83.5a6 6 0 0 1 6 6v68a6 6 0 0 1-6 6H446a6 6 0 0 1-6-6z" stroke="#3a414a" stroke-width="2" fill="#fff"/><use xlink:href="#h" transform="matrix(1,0,0,1,445,145) translate(28.03146701388889 43.40277777777778)"/><path d="M520 306.73a6 6 0 0 1 6-6h83.5a6 6 0 0 1 6 6v66.54a6 6 0 0 1-6 6H526a6 6 0 0 1-6-6z" stroke="#3a414a" stroke-width="2" fill="#fff"/><use xlink:href="#i" transform="matrix(1,0,0,1,525,305.72944931089376) translate(8.174696180555557 43.09027777777778)"/><use xlink:href="#j" transform="matrix(1,0,0,1,525,305.72944931089376) translate(42.148220486111114 43.09027777777778)"/><path d="M600 467.46a6 6 0 0 1 6-6h83.5a6 6 0 0 1 6 6V534a6 6 0 0 1-6 6H606a6 6 0 0 1-6-6z" stroke="#3a414a" stroke-width="2" fill="#fff"/><use xlink:href="#k" transform="matrix(1,0,0,1,605,466.45889862178757) translate(11.006727430555557 43.09027777777778)"/><use xlink:href="#l" transform="matrix(1,0,0,1,605,466.45889862178757) translate(54.311848958333336 43.09027777777778)"/><path d="M100 466a6 6 0 0 1 6-6h204.7a6 6 0 0 1 6 6v68a6 6 0 0 1-6 6H106a6 6 0 0 1-6-6z" stroke="#3a414a" stroke-width="2" fill="#fff"/><g><use xlink:href="#m" transform="matrix(1,0,0,1,105,465) translate(68.90798611111111 30.27777777777778)"/><use xlink:href="#n" transform="matrix(1,0,0,1,105,465) translate(4.2378472222222285 57.165798611111114)"/><use xlink:href="#o" transform="matrix(1,0,0,1,105,465) translate(54.93229166666667 57.165798611111114)"/><use xlink:href="#p" transform="matrix(1,0,0,1,105,465) translate(88.90581597222223 57.165798611111114)"/><use xlink:href="#q" transform="matrix(1,0,0,1,105,465) translate(137.23480902777777 57.165798611111114)"/></g><defs><path fill="#fff" d="M635 20c-292 0-500-160-510-396h192c11 142 145 229 315 229 187 0 323-105 323-260 0-161-125-274-346-274H488v-165h121c174 0 294-100 294-254 0-148-104-245-266-245-152 0-291 85-297 230H157c8-234 222-395 484-395 278 0 448 188 448 400 0 168-95 291-247 336v12c190 31 301 169 301 357 0 244-216 425-508 425" id="r"/><use transform="matrix(0.010850694444444444,0,0,0.010850694444444444,0,0)" xlink:href="#r" id="a"/><path fill="#fff" d="M603 20c-253 0-434-161-469-399h188c31 132 124 231 281 231 227 0 367-207 367-568h-12c-80 122-211 199-367 199-257 0-469-206-469-493 0-278 200-505 506-500 245 4 520 158 520 706 0 527-208 824-545 824zm16-703c181 0 324-157 324-332 0-171-135-328-318-328-180 0-317 148-317 332 0 183 131 328 311 328" id="s"/><use transform="matrix(0.010850694444444444,0,0,0.010850694444444444,0,0)" xlink:href="#s" id="b"/><path fill="#fff" d="M154 0v-137l495-537c165-179 249-281 249-418 0-156-121-253-280-253-170 0-278 110-278 278H158c0-264 200-443 465-443 266 0 455 183 455 416 0 161-73 288-336 568L416-179v12h687V0H154" id="t"/><path fill="#fff" d="M646 20c-332 0-524-278-524-764 0-483 194-766 524-766s524 283 524 766c0 485-191 764-524 764zm0-166c218 0 341-220 341-598 0-380-123-601-341-601s-341 222-341 601c0 378 123 598 341 598" id="u"/><g id="c"><use transform="matrix(0.010850694444444444,0,0,0.010850694444444444,0,0)" xlink:href="#t"/><use transform="matrix(0.010850694444444444,0,0,0.010850694444444444,13.55251736111111,0)" xlink:href="#u"/></g><path fill="#fff" d="M653-1490V0H466v-1314h-10L96-1047v-204l324-239h233" id="v"/><path fill="#fff" d="M626 20c-262 0-458-168-468-396h184c12 133 134 229 284 229 180 0 311-137 311-326 0-192-136-335-323-335-92 0-196 33-255 78l-178-22 88-738h784v167H429l-51 435h8c61-51 160-87 263-87 273 0 474 211 474 499 0 286-210 496-497 496" id="w"/><g id="d"><use transform="matrix(0.010850694444444444,0,0,0.010850694444444444,0,0)" xlink:href="#v"/><use transform="matrix(0.010850694444444444,0,0,0.010850694444444444,9.038628472222221,0)" xlink:href="#w"/></g><path fill="#fff" d="M200 0l662-1311v-12H98v-167h963v177L400 0H200" id="x"/><use transform="matrix(0.010850694444444444,0,0,0.010850694444444444,0,0)" xlink:href="#x" id="e"/><path d="M180 0v-1490h908v168H370v486h669v168H370v500h727V0H180" id="y"/><path d="M65 0l393-574-370-544h210c88 136 192 297 267 435 67-142 176-302 264-435h206L661-564 1053 0H844c-94-144-206-310-287-458C484-308 366-142 273 0H65" id="z"/><path d="M471 26C259 26 90-98 90-318c0-256 228-303 435-329 202-27 287-16 287-108 0-139-79-219-234-219-161 0-248 86-283 164l-173-57c86-203 278-265 451-265 150 0 419 46 419 395V0H815v-152h-12C765-73 660 26 471 26zm31-159c199 0 310-134 310-271v-155c-30 35-226 55-295 64-131 17-246 59-246 186 0 116 97 176 231 176" id="A"/><path d="M158 0v-1118h175l1 205c55-151 181-225 313-225 147 0 245 90 285 228 53-141 190-228 352-228 194 0 352 125 352 384V0h-181v-749c0-161-105-225-225-225-151 0-243 103-243 244V0H807v-767c0-124-93-207-219-207-131 0-250 92-250 270V0H158" id="B"/><path d="M158 418v-1536h174v179h20c37-59 106-193 324-193 279 0 474 222 474 576 0 356-194 580-473 580-213 0-288-135-325-197h-14v591H158zm492-555c209 0 317-186 317-421 0-232-105-413-317-413-206 0-314 166-314 413 0 249 111 421 314 421" id="C"/><path d="M338-1490V0H158v-1490h180" id="D"/><path d="M628 24c-324 0-524-230-524-574 0-343 198-582 503-582 237 0 487 146 487 559v75H286c9 234 145 362 343 362 132 0 231-58 273-172l174 48C1024-91 857 24 628 24zM287-650h624c-17-190-120-322-304-322-192 0-309 151-320 322" id="E"/><g id="f"><use transform="matrix(0.010850694444444444,0,0,0.010850694444444444,0,0)" xlink:href="#y"/><use transform="matrix(0.010850694444444444,0,0,0.010850694444444444,13.35720486111111,0)" xlink:href="#z"/><use transform="matrix(0.010850694444444444,0,0,0.010850694444444444,25.48828125,0)" xlink:href="#A"/><use transform="matrix(0.010850694444444444,0,0,0.010850694444444444,37.966579861111114,0)" xlink:href="#B"/><use transform="matrix(0.010850694444444444,0,0,0.010850694444444444,57.43272569444444,0)" xlink:href="#C"/><use transform="matrix(0.010850694444444444,0,0,0.010850694444444444,71.03949652777777,0)" xlink:href="#D"/><use transform="matrix(0.010850694444444444,0,0,0.010850694444444444,76.42144097222221,0)" xlink:href="#E"/></g><path d="M653-1490V0H466v-1314h-10L96-1047v-204l324-239h233" id="F"/><use transform="matrix(0.010850694444444444,0,0,0.010850694444444444,0,0)" xlink:href="#F" id="g"/><path d="M226 279v-1860h398v153H398V126h226v153H226" id="G"/><path d="M635 20c-292 0-500-160-510-396h192c11 142 145 229 315 229 187 0 323-105 323-260 0-161-125-274-346-274H488v-165h121c174 0 294-100 294-254 0-148-104-245-266-245-152 0-291 85-297 230H157c8-234 222-395 484-395 278 0 448 188 448 400 0 168-95 291-247 336v12c190 31 301 169 301 357 0 244-216 425-508 425" id="H"/><path d="M123 279V126h226v-1554H123v-153h398V279H123" id="I"/><g id="h"><use transform="matrix(0.010850694444444444,0,0,0.010850694444444444,0,0)" xlink:href="#G"/><use transform="matrix(0.010850694444444444,0,0,0.010850694444444444,8.10546875,0)" xlink:href="#H"/><use transform="matrix(0.010850694444444444,0,0,0.010850694444444444,21.83159722222222,0)" xlink:href="#I"/></g><path d="M603 20c-253 0-434-161-469-399h188c31 132 124 231 281 231 227 0 367-207 367-568h-12c-80 122-211 199-367 199-257 0-469-206-469-493 0-278 200-505 506-500 245 4 520 158 520 706 0 527-208 824-545 824zm16-703c181 0 324-157 324-332 0-171-135-328-318-328-180 0-317 148-317 332 0 183 131 328 311 328" id="J"/><path d="M128 359l88-567h206L266 359H128" id="K"/><g id="i"><use transform="matrix(0.010850694444444444,0,0,0.010850694444444444,0,0)" xlink:href="#G"/><use transform="matrix(0.010850694444444444,0,0,0.010850694444444444,8.10546875,0)" xlink:href="#J"/><use transform="matrix(0.010850694444444444,0,0,0.010850694444444444,21.321614583333336,0)" xlink:href="#K"/></g><path d="M154 0v-137l495-537c165-179 249-281 249-418 0-156-121-253-280-253-170 0-278 110-278 278H158c0-264 200-443 465-443 266 0 455 183 455 416 0 161-73 288-336 568L416-179v12h687V0H154" id="L"/><path d="M646 20c-332 0-524-278-524-764 0-483 194-766 524-766s524 283 524 766c0 485-191 764-524 764zm0-166c218 0 341-220 341-598 0-380-123-601-341-601s-341 222-341 601c0 378 123 598 341 598" id="M"/><g id="j"><use transform="matrix(0.010850694444444444,0,0,0.010850694444444444,0,0)" xlink:href="#L"/><use transform="matrix(0.010850694444444444,0,0,0.010850694444444444,13.55251736111111,0)" xlink:href="#M"/><use transform="matrix(0.010850694444444444,0,0,0.010850694444444444,27.571614583333332,0)" xlink:href="#I"/></g><path d="M626 20c-262 0-458-168-468-396h184c12 133 134 229 284 229 180 0 311-137 311-326 0-192-136-335-323-335-92 0-196 33-255 78l-178-22 88-738h784v167H429l-51 435h8c61-51 160-87 263-87 273 0 474 211 474 499 0 286-210 496-497 496" id="N"/><g id="k"><use transform="matrix(0.010850694444444444,0,0,0.010850694444444444,0,0)" xlink:href="#G"/><use transform="matrix(0.010850694444444444,0,0,0.010850694444444444,8.10546875,0)" xlink:href="#F"/><use transform="matrix(0.010850694444444444,0,0,0.010850694444444444,17.14409722222222,0)" xlink:href="#N"/><use transform="matrix(0.010850694444444444,0,0,0.010850694444444444,30.653211805555554,0)" xlink:href="#K"/></g><path d="M200 0l662-1311v-12H98v-167h963v177L400 0H200" id="O"/><g id="l"><use transform="matrix(0.010850694444444444,0,0,0.010850694444444444,0,0)" xlink:href="#O"/><use transform="matrix(0.010850694444444444,0,0,0.010850694444444444,12.57595486111111,0)" xlink:href="#I"/></g><path d="M180 0v-1490h510c348 0 508 194 508 460 0 198-88 351-276 417L1256 0h-220L726-579c-117 2-238 0-356 1V0H180zm190-747h312c235 0 327-108 327-283 0-177-92-293-329-293H370v576" id="P"/><path d="M598-1118v154H368v674c0 100 37 144 132 144 23 0 62-6 92-12L629-6c-37 13-88 20-134 20-193 0-307-107-307-290v-688H20v-154h168v-266h180v266h230" id="Q"/><path d="M537 14c-226 0-379-139-379-422v-710h180v695c0 172 97 275 253 275 160 0 281-109 281-300v-670h181V0H879v-209C806-46 684 14 537 14" id="R"/><path d="M158 0v-1118h174v172h12c41-113 157-188 290-188 26 0 70 2 91 3v181c-11-2-60-10-108-10-161 0-279 109-279 260V0H158" id="S"/><path d="M338-670V0H158v-1118h173l1 207c72-158 192-221 342-221 226 0 378 139 378 422V0H872v-695c0-172-96-275-252-275-161 0-282 109-282 300" id="T"/><g id="m"><use transform="matrix(0.010850694444444444,0,0,0.010850694444444444,0,0)" xlink:href="#P"/><use transform="matrix(0.010850694444444444,0,0,0.010850694444444444,13.975694444444445,0)" xlink:href="#E"/><use transform="matrix(0.010850694444444444,0,0,0.010850694444444444,26.931423611111104,0)" xlink:href="#Q"/><use transform="matrix(0.010850694444444444,0,0,0.010850694444444444,34.201388888888886,0)" xlink:href="#R"/><use transform="matrix(0.010850694444444444,0,0,0.010850694444444444,47.34157986111111,0)" xlink:href="#S"/><use transform="matrix(0.010850694444444444,0,0,0.010850694444444444,56.054687499999986,0)" xlink:href="#T"/></g><g id="n"><use transform="matrix(0.010850694444444444,0,0,0.010850694444444444,0,0)" xlink:href="#G"/><use transform="matrix(0.010850694444444444,0,0,0.010850694444444444,8.10546875,0)" xlink:href="#G"/><use transform="matrix(0.010850694444444444,0,0,0.010850694444444444,16.2109375,0)" xlink:href="#H"/><use transform="matrix(0.010850694444444444,0,0,0.010850694444444444,29.93706597222222,0)" xlink:href="#I"/><use transform="matrix(0.010850694444444444,0,0,0.010850694444444444,38.04253472222222,0)" xlink:href="#K"/></g><g id="o"><use transform="matrix(0.010850694444444444,0,0,0.010850694444444444,0,0)" xlink:href="#G"/><use transform="matrix(0.010850694444444444,0,0,0.010850694444444444,8.10546875,0)" xlink:href="#J"/><use transform="matrix(0.010850694444444444,0,0,0.010850694444444444,21.321614583333336,0)" xlink:href="#K"/></g><g id="p"><use transform="matrix(0.010850694444444444,0,0,0.010850694444444444,0,0)" xlink:href="#L"/><use transform="matrix(0.010850694444444444,0,0,0.010850694444444444,13.55251736111111,0)" xlink:href="#M"/><use transform="matrix(0.010850694444444444,0,0,0.010850694444444444,27.571614583333332,0)" xlink:href="#I"/><use transform="matrix(0.010850694444444444,0,0,0.010850694444444444,35.67708333333333,0)" xlink:href="#K"/></g><g id="q"><use transform="matrix(0.010850694444444444,0,0,0.010850694444444444,0,0)" xlink:href="#G"/><use transform="matrix(0.010850694444444444,0,0,0.010850694444444444,8.10546875,0)" xlink:href="#F"/><use transform="matrix(0.010850694444444444,0,0,0.010850694444444444,17.14409722222222,0)" xlink:href="#N"/><use transform="matrix(0.010850694444444444,0,0,0.010850694444444444,30.653211805555554,0)" xlink:href="#K"/><use transform="matrix(0.010850694444444444,0,0,0.010850694444444444,36.740451388888886,0)" xlink:href="#O"/><use transform="matrix(0.010850694444444444,0,0,0.010850694444444444,49.31640625,0)" xlink:href="#I"/><use transform="matrix(0.010850694444444444,0,0,0.010850694444444444,57.421875,0)" xlink:href="#I"/></g></defs></g></svg>