<svg xmlns="http://www.w3.org/2000/svg" xmlns:xlink="http://www.w3.org/1999/xlink" xmlns:lucid="lucid" width="465" height="2866.68"><g transform="translate(-59.73333333333329 7.244010416666711)" lucid:page-tab-id="0_0"><path d="M329.93 47.2c0 22.1-17.9 40-40 40s-40-17.9-40-40 17.9-40 40-40 40 17.9 40 40z" stroke="#3a414a" stroke-width="2"/><use xlink:href="#a" transform="matrix(1,0,0,1,254.93333333333334,12.19999999999996) translate(30.48068576388889 43.40277777777778)"/><path d="M289.93 90.2v31a6 6 0 0 1-6 6h-108a6 6 0 0 0-6 6v10.26" stroke="#3a414a" stroke-width="4" fill="none"/><path d="M289.92 88.2l2-.07v2.12h-3.96v-2.17z" stroke="#3a414a" stroke-width=".05" fill="#3a414a"/><path d="M169.93 159.73l-4.63-14.27h9.27z" stroke="#3a414a" stroke-width="4" fill="#3a414a"/><path d="M209.93 207.2c0 22.1-17.9 40-40 40s-40-17.9-40-40 17.9-40 40-40 40 17.9 40 40z" stroke="#3a414a" stroke-width="2"/><use xlink:href="#b" transform="matrix(1,0,0,1,134.93333333333334,172.19999999999996) translate(28.223741319444443 43.40277777777778)"/><path d="M289.93 90.2v31a6 6 0 0 0 6 6h108a6 6 0 0 1 6 6v10.26" stroke="#3a414a" stroke-width="4" fill="none"/><path d="M289.92 88.2l2-.07v2.12h-3.96v-2.17z" stroke="#3a414a" stroke-width=".05" fill="#3a414a"/><path d="M409.93 159.73l-4.63-14.27h9.27z" stroke="#3a414a" stroke-width="4" fill="#3a414a"/><path d="M449.93 207.2c0 22.1-17.9 40-40 40s-40-17.9-40-40 17.9-40 40-40 40 17.9 40 40z" stroke="#3a414a" stroke-width="2"/><use xlink:href="#c" transform="matrix(1,0,0,1,374.93333333333334,172.19999999999996) translate(28.13693576388889 43.40277777777778)"/><path d="M169.93 250.2v31a6 6 0 0 1-6 6h-48a6 6 0 0 0-6 6v10.26" stroke="#3a414a" stroke-width="4" fill="none"/><path d="M169.92 248.2l2-.07v2.12h-3.96v-2.17z" stroke="#3a414a" stroke-width=".05" fill="#3a414a"/><path d="M109.93 319.73l-4.63-14.27h9.27z" stroke="#3a414a" stroke-width="4" fill="#3a414a"/><path d="M149.93 367.2c0 22.1-17.9 40-40 40s-40-17.9-40-40 17.9-40 40-40 40 17.9 40 40z" stroke="#3a414a" stroke-width="2" fill="#1071e5"/><use xlink:href="#d" transform="matrix(1,0,0,1,74.93333333333334,332.19999999999993) translate(16.483289930555557 43.40277777777778)"/><path d="M169.93 250.2v31a6 6 0 0 0 6 6h48a6 6 0 0 1 6 6v10.26" stroke="#3a414a" stroke-width="4" fill="none"/><path d="M169.92 248.2l2-.07v2.12h-3.96v-2.17z" stroke="#3a414a" stroke-width=".05" fill="#3a414a"/><path d="M229.93 319.73l-4.63-14.27h9.27z" stroke="#3a414a" stroke-width="4" fill="#3a414a"/><path d="M269.93 367.2c0 22.1-17.9 40-40 40s-40-17.9-40-40 17.9-40 40-40 40 17.9 40 40z" stroke="#3a414a" stroke-width="2" fill="#1071e5"/><use xlink:href="#d" transform="matrix(1,0,0,1,194.93333333333334,332.19999999999993) translate(16.483289930555557 43.40277777777778)"/><path d="M409.93 250.2v31a6 6 0 0 1-6 6h-48a6 6 0 0 0-6 6v10.26" stroke="#3a414a" stroke-width="4" fill="none"/><path d="M409.92 248.2l2-.07v2.12h-3.96v-2.17z" stroke="#3a414a" stroke-width=".05" fill="#3a414a"/><path d="M349.93 319.73l-4.63-14.27h9.27z" stroke="#3a414a" stroke-width="4" fill="#3a414a"/><path d="M389.93 367.2c0 22.1-17.9 40-40 40s-40-17.9-40-40 17.9-40 40-40 40 17.9 40 40z" stroke="#3a414a" stroke-width="2" fill="#6f7681"/><use xlink:href="#e" transform="matrix(1,0,0,1,314.93333333333334,332.19999999999993) translate(27.822265625 43.40277777777778)"/><path d="M409.93 250.2v31a6 6 0 0 0 6 6h48a6 6 0 0 1 6 6v10.26" stroke="#3a414a" stroke-width="4" fill="none"/><path d="M409.92 248.2l2-.07v2.12h-3.96v-2.17z" stroke="#3a414a" stroke-width=".05" fill="#3a414a"/><path d="M469.93 319.73l-4.63-14.27h9.27z" stroke="#3a414a" stroke-width="4" fill="#3a414a"/><path d="M509.93 367.2c0 22.1-17.9 40-40 40s-40-17.9-40-40 17.9-40 40-40 40 17.9 40 40z" stroke="#3a414a" stroke-width="2" fill="#6f7681"/><use xlink:href="#f" transform="matrix(1,0,0,1,434.93333333333334,332.19999999999993) translate(28.245442708333336 43.40277777777778)"/><path d="M60.73-.24a6 6 0 0 1 6-6h137.2a6 6 0 0 1 6 6v92.66a6 6 0 0 1-6 6H66.73a6 6 0 0 1-6-6z" stroke="#3a414a" stroke-width="2" fill="#fff"/><use xlink:href="#g" transform="matrix(1,0,0,1,72.73333333333329,5.755989583333289) translate(8.480685763888886 24.05902777777778)"/><use xlink:href="#h" transform="matrix(1,0,0,1,72.73333333333329,5.755989583333289) translate(59.32703993055555 24.05902777777778)"/><use xlink:href="#i" transform="matrix(1,0,0,1,72.73333333333329,5.755989583333289) translate(82.68858506944444 24.05902777777778)"/><use xlink:href="#j" transform="matrix(1,0,0,1,72.73333333333329,5.755989583333289) translate(4.07530381944445 50.947048611111114)"/><use xlink:href="#k" transform="matrix(1,0,0,1,72.73333333333329,5.755989583333289) translate(51.503689236111114 50.947048611111114)"/><use xlink:href="#l" transform="matrix(1,0,0,1,72.73333333333329,5.755989583333289) translate(88.49370659722223 50.947048611111114)"/><use xlink:href="#m" transform="matrix(1,0,0,1,72.73333333333329,5.755989583333289) translate(11.323567708333343 77.83506944444446)"/><path d="M329.93 540.64c0 22.1-17.9 40-40 40s-40-17.9-40-40 17.9-40 40-40 40 17.9 40 40z" stroke="#3a414a" stroke-width="2"/><use xlink:href="#n" transform="matrix(1,0,0,1,254.93333333333328,505.64401041666656) translate(30.48568576388889 30.27777777777778)"/><use xlink:href="#o" transform="matrix(1,0,0,1,254.93333333333328,505.64401041666656) translate(8.865677083333333 57.165798611111114)"/><use xlink:href="#p" transform="matrix(1,0,0,1,254.93333333333328,505.64401041666656) translate(31.153003472222224 57.165798611111114)"/><use xlink:href="#q" transform="matrix(1,0,0,1,254.93333333333328,505.64401041666656) translate(52.105694444444445 57.165798611111114)"/><path d="M289.93 583.64v31a6 6 0 0 1-6 6h-108a6 6 0 0 0-6 6v10.26" stroke="#3a414a" stroke-width="4" fill="none"/><path d="M289.92 581.64l2-.06v2.12h-3.96v-2.18z" stroke="#3a414a" stroke-width=".05" fill="#3a414a"/><path d="M169.93 653.17l-4.63-14.26h9.27z" stroke="#3a414a" stroke-width="4" fill="#3a414a"/><path d="M209.93 700.64c0 22.1-17.9 40-40 40s-40-17.9-40-40 17.9-40 40-40 40 17.9 40 40z" stroke="#3a414a" stroke-width="2"/><use xlink:href="#r" transform="matrix(1,0,0,1,134.93333333333334,665.6440104166666) translate(28.228741319444445 28.09027777777778)"/><use xlink:href="#o" transform="matrix(1,0,0,1,134.93333333333334,665.6440104166666) translate(6.60873263888889 54.978298611111114)"/><use xlink:href="#p" transform="matrix(1,0,0,1,134.93333333333334,665.6440104166666) translate(28.89605902777778 54.978298611111114)"/><use xlink:href="#s" transform="matrix(1,0,0,1,134.93333333333334,665.6440104166666) translate(49.84875 54.978298611111114)"/><path d="M60.73 493.2a6 6 0 0 1 6-6h137.2a6 6 0 0 1 6 6v92.66a6 6 0 0 1-6 6H66.73a6 6 0 0 1-6-6z" stroke="#3a414a" stroke-width="2" fill="#fff"/><use xlink:href="#t" transform="matrix(1,0,0,1,72.73333333333329,499.19999999999993) translate(6.321397569444443 34.18402777777778)"/><use xlink:href="#u" transform="matrix(1,0,0,1,72.73333333333329,499.19999999999993) translate(86.31271701388889 34.18402777777778)"/><use xlink:href="#v" transform="matrix(1,0,0,1,72.73333333333329,499.19999999999993) translate(16.830295138888893 61.072048611111114)"/><use xlink:href="#w" transform="matrix(1,0,0,1,72.73333333333329,499.19999999999993) translate(56.15321180555556 61.072048611111114)"/><path d="M329.93 853.44c0 22.1-17.9 40-40 40s-40-17.9-40-40 17.9-40 40-40 40 17.9 40 40z" stroke="#3a414a" stroke-width="2"/><use xlink:href="#n" transform="matrix(1,0,0,1,254.93333333333328,818.4440104166666) translate(30.48568576388889 30.27777777777778)"/><use xlink:href="#o" transform="matrix(1,0,0,1,254.93333333333328,818.4440104166666) translate(8.865677083333333 57.165798611111114)"/><use xlink:href="#p" transform="matrix(1,0,0,1,254.93333333333328,818.4440104166666) translate(31.153003472222224 57.165798611111114)"/><use xlink:href="#q" transform="matrix(1,0,0,1,254.93333333333328,818.4440104166666) translate(52.105694444444445 57.165798611111114)"/><path d="M289.93 896.45v31a6 6 0 0 1-6 6h-108a6 6 0 0 0-6 6v10.25" stroke="#3a414a" stroke-width="4" fill="none"/><path d="M289.92 894.45l2-.08v2.13h-3.96v-2.18z" stroke="#3a414a" stroke-width=".05" fill="#3a414a"/><path d="M169.93 965.97l-4.63-14.26h9.27z" stroke="#3a414a" stroke-width="4" fill="#3a414a"/><path d="M209.93 1013.44c0 22.1-17.9 40-40 40s-40-17.9-40-40 17.9-40 40-40 40 17.9 40 40z" stroke="#3a414a" stroke-width="2"/><use xlink:href="#r" transform="matrix(1,0,0,1,134.93333333333334,978.4440104166666) translate(28.228741319444445 28.09027777777778)"/><use xlink:href="#o" transform="matrix(1,0,0,1,134.93333333333334,978.4440104166666) translate(6.60873263888889 54.978298611111114)"/><use xlink:href="#p" transform="matrix(1,0,0,1,134.93333333333334,978.4440104166666) translate(28.89605902777778 54.978298611111114)"/><use xlink:href="#s" transform="matrix(1,0,0,1,134.93333333333334,978.4440104166666) translate(49.84875 54.978298611111114)"/><path d="M169.93 1056.44v31a6 6 0 0 1-6 6h-48a6 6 0 0 0-6 6v10.26" stroke="#3a414a" stroke-width="4" fill="none"/><path d="M169.92 1054.44l2-.07v2.13h-3.96v-2.18z" stroke="#3a414a" stroke-width=".05" fill="#3a414a"/><path d="M109.93 1125.97l-4.63-14.27h9.27z" stroke="#3a414a" stroke-width="4" fill="#3a414a"/><path d="M149.93 1173.44c0 22.1-17.9 40-40 40s-40-17.9-40-40 17.9-40 40-40 40 17.9 40 40z" stroke="#3a414a" stroke-width="2" fill="#1071e5"/><use xlink:href="#d" transform="matrix(1,0,0,1,74.93333333333334,1138.4440104166667) translate(16.483289930555557 43.40277777777778)"/><path d="M169.93 1056.44v31a6 6 0 0 0 6 6h48a6 6 0 0 1 6 6v10.26" stroke="#3a414a" stroke-width="4" fill="none"/><path d="M169.92 1054.44l2-.07v2.13h-3.96v-2.18z" stroke="#3a414a" stroke-width=".05" fill="#3a414a"/><path d="M229.93 1125.97l-4.63-14.27h9.27z" stroke="#3a414a" stroke-width="4" fill="#3a414a"/><path d="M269.93 1173.44c0 22.1-17.9 40-40 40s-40-17.9-40-40 17.9-40 40-40 40 17.9 40 40z" stroke="#3a414a" stroke-width="2" fill="#1071e5"/><use xlink:href="#d" transform="matrix(1,0,0,1,194.93333333333334,1138.4440104166667) translate(16.483289930555557 43.40277777777778)"/><path d="M60.73 806a6 6 0 0 1 6-6h137.2a6 6 0 0 1 6 6v92.66a6 6 0 0 1-6 6H66.73a6 6 0 0 1-6-6z" stroke="#3a414a" stroke-width="2" fill="#fff"/><use xlink:href="#x" transform="matrix(1,0,0,1,72.73333333333329,812) translate(1.2486979166666714 34.18402777777778)"/><use xlink:href="#h" transform="matrix(1,0,0,1,72.73333333333329,812) translate(21.051215277777782 34.18402777777778)"/><use xlink:href="#y" transform="matrix(1,0,0,1,72.73333333333329,812) translate(44.41276041666667 34.18402777777778)"/><use xlink:href="#z" transform="matrix(1,0,0,1,72.73333333333329,812) translate(85.49348958333333 34.18402777777778)"/><use xlink:href="#w" transform="matrix(1,0,0,1,72.73333333333329,812) translate(36.49175347222223 61.072048611111114)"/><path d="M334.53 1346.9c0 22.08-17.9 40-40 40s-40-17.92-40-40c0-22.1 17.9-40 40-40s40 17.9 40 40z" stroke="#3a414a" stroke-width="2"/><use xlink:href="#n" transform="matrix(1,0,0,1,259.5333333333333,1311.8880208333337) translate(30.48568576388889 30.27777777777778)"/><use xlink:href="#o" transform="matrix(1,0,0,1,259.5333333333333,1311.8880208333337) translate(8.865677083333333 57.165798611111114)"/><use xlink:href="#p" transform="matrix(1,0,0,1,259.5333333333333,1311.8880208333337) translate(31.153003472222224 57.165798611111114)"/><use xlink:href="#q" transform="matrix(1,0,0,1,259.5333333333333,1311.8880208333337) translate(52.105694444444445 57.165798611111114)"/><path d="M294.53 1389.9v31a6 6 0 0 1-6 6h-108a6 6 0 0 0-6 6v10.25" stroke="#3a414a" stroke-width="4" fill="none"/><path d="M294.52 1387.9l2-.08v2.12h-3.96v-2.17z" stroke="#3a414a" stroke-width=".05" fill="#3a414a"/><path d="M174.53 1459.4l-4.63-14.25h9.27z" stroke="#3a414a" stroke-width="4" fill="#3a414a"/><path d="M214.53 1506.9c0 22.08-17.9 40-40 40s-40-17.92-40-40c0-22.1 17.9-40 40-40s40 17.9 40 40z" stroke="#3a414a" stroke-width="2"/><use xlink:href="#r" transform="matrix(1,0,0,1,139.53333333333336,1471.8880208333337) translate(28.228741319444445 28.09027777777778)"/><use xlink:href="#o" transform="matrix(1,0,0,1,139.53333333333336,1471.8880208333337) translate(6.60873263888889 54.978298611111114)"/><use xlink:href="#p" transform="matrix(1,0,0,1,139.53333333333336,1471.8880208333337) translate(28.89605902777778 54.978298611111114)"/><use xlink:href="#s" transform="matrix(1,0,0,1,139.53333333333336,1471.8880208333337) translate(49.84875 54.978298611111114)"/><path d="M294.53 1389.9v31a6 6 0 0 0 6 6h108a6 6 0 0 1 6 6v10.25" stroke="#3a414a" stroke-width="4" fill="none"/><path d="M294.52 1387.9l2-.08v2.12h-3.96v-2.17z" stroke="#3a414a" stroke-width=".05" fill="#3a414a"/><path d="M414.53 1459.4l-4.63-14.25h9.27z" stroke="#3a414a" stroke-width="4" fill="#3a414a"/><path d="M454.53 1506.9c0 22.08-17.9 40-40 40s-40-17.92-40-40c0-22.1 17.9-40 40-40s40 17.9 40 40z" stroke="#3a414a" stroke-width="2"/><use xlink:href="#A" transform="matrix(1,0,0,1,379.53333333333336,1471.8880208333337) translate(28.14193576388889 28.09027777777778)"/><use xlink:href="#o" transform="matrix(1,0,0,1,379.53333333333336,1471.8880208333337) translate(6.60873263888889 54.978298611111114)"/><use xlink:href="#p" transform="matrix(1,0,0,1,379.53333333333336,1471.8880208333337) translate(28.89605902777778 54.978298611111114)"/><use xlink:href="#s" transform="matrix(1,0,0,1,379.53333333333336,1471.8880208333337) translate(49.84875 54.978298611111114)"/><path d="M174.53 1549.9v31a6 6 0 0 1-6 6h-48a6 6 0 0 0-6 6v10.25" stroke="#3a414a" stroke-width="4" fill="none"/><path d="M174.52 1547.9l2-.08v2.12h-3.96v-2.17z" stroke="#3a414a" stroke-width=".05" fill="#3a414a"/><path d="M114.53 1619.4l-4.63-14.25h9.27z" stroke="#3a414a" stroke-width="4" fill="#3a414a"/><path d="M154.53 1666.9c0 22.08-17.9 40-40 40s-40-17.92-40-40c0-22.1 17.9-40 40-40s40 17.9 40 40z" stroke="#3a414a" stroke-width="2" fill="#1071e5"/><use xlink:href="#d" transform="matrix(1,0,0,1,79.53333333333336,1631.8880208333335) translate(16.483289930555557 43.40277777777778)"/><path d="M174.53 1549.9v31a6 6 0 0 0 6 6h48a6 6 0 0 1 6 6v10.25" stroke="#3a414a" stroke-width="4" fill="none"/><path d="M174.52 1547.9l2-.08v2.12h-3.96v-2.17z" stroke="#3a414a" stroke-width=".05" fill="#3a414a"/><path d="M234.53 1619.4l-4.63-14.25h9.27z" stroke="#3a414a" stroke-width="4" fill="#3a414a"/><path d="M274.53 1666.9c0 22.08-17.9 40-40 40s-40-17.92-40-40c0-22.1 17.9-40 40-40s40 17.9 40 40z" stroke="#3a414a" stroke-width="2" fill="#1071e5"/><use xlink:href="#d" transform="matrix(1,0,0,1,199.53333333333336,1631.8880208333335) translate(16.483289930555557 43.40277777777778)"/><path d="M65.33 1299.44a6 6 0 0 1 6-6h137.2a6 6 0 0 1 6 6v92.67a6 6 0 0 1-6 6H71.33a6 6 0 0 1-6-6z" stroke="#3a414a" stroke-width="2" fill="#fff"/><use xlink:href="#t" transform="matrix(1,0,0,1,77.33333333333331,1305.444010416667) translate(6.321397569444443 24.05902777777778)"/><use xlink:href="#u" transform="matrix(1,0,0,1,77.33333333333331,1305.444010416667) translate(86.31271701388889 24.05902777777778)"/><use xlink:href="#B" transform="matrix(1,0,0,1,77.33333333333331,1305.444010416667) translate(9.29991319444445 50.947048611111114)"/><use xlink:href="#C" transform="matrix(1,0,0,1,77.33333333333331,1305.444010416667) translate(63.68359375 50.947048611111114)"/><use xlink:href="#D" transform="matrix(1,0,0,1,77.33333333333331,1305.444010416667) translate(14.410590277777779 77.83506944444446)"/><use xlink:href="#E" transform="matrix(1,0,0,1,77.33333333333331,1305.444010416667) translate(69.67317708333334 77.83506944444446)"/><path d="M339.13 1813.44c0 22.1-17.9 40-40 40s-40-17.9-40-40 17.9-40 40-40 40 17.9 40 40z" stroke="#3a414a" stroke-width="2"/><use xlink:href="#n" transform="matrix(1,0,0,1,264.1333333333333,1778.4440104166667) translate(30.48568576388889 30.27777777777778)"/><use xlink:href="#o" transform="matrix(1,0,0,1,264.1333333333333,1778.4440104166667) translate(8.865677083333333 57.165798611111114)"/><use xlink:href="#p" transform="matrix(1,0,0,1,264.1333333333333,1778.4440104166667) translate(31.153003472222224 57.165798611111114)"/><use xlink:href="#q" transform="matrix(1,0,0,1,264.1333333333333,1778.4440104166667) translate(52.105694444444445 57.165798611111114)"/><path d="M299.13 1856.44v31a6 6 0 0 1-6 6h-108a6 6 0 0 0-6 6v10.26" stroke="#3a414a" stroke-width="4" fill="none"/><path d="M299.12 1854.44l2-.07v2.13h-3.96v-2.18z" stroke="#3a414a" stroke-width=".05" fill="#3a414a"/><path d="M179.13 1925.97l-4.63-14.27h9.27z" stroke="#3a414a" stroke-width="4" fill="#3a414a"/><path d="M219.13 1973.44c0 22.1-17.9 40-40 40s-40-17.9-40-40 17.9-40 40-40 40 17.9 40 40z" stroke="#3a414a" stroke-width="2"/><use xlink:href="#r" transform="matrix(1,0,0,1,144.13333333333338,1938.4440104166667) translate(28.228741319444445 28.09027777777778)"/><use xlink:href="#o" transform="matrix(1,0,0,1,144.13333333333338,1938.4440104166667) translate(6.60873263888889 54.978298611111114)"/><use xlink:href="#p" transform="matrix(1,0,0,1,144.13333333333338,1938.4440104166667) translate(28.89605902777778 54.978298611111114)"/><use xlink:href="#s" transform="matrix(1,0,0,1,144.13333333333338,1938.4440104166667) translate(49.84875 54.978298611111114)"/><path d="M299.13 1856.44v31a6 6 0 0 0 6 6h108a6 6 0 0 1 6 6v10.26" stroke="#3a414a" stroke-width="4" fill="none"/><path d="M299.12 1854.44l2-.07v2.13h-3.96v-2.18z" stroke="#3a414a" stroke-width=".05" fill="#3a414a"/><path d="M419.13 1925.97l-4.63-14.27h9.27z" stroke="#3a414a" stroke-width="4" fill="#3a414a"/><path d="M459.13 1973.44c0 22.1-17.9 40-40 40s-40-17.9-40-40 17.9-40 40-40 40 17.9 40 40z" stroke="#3a414a" stroke-width="2"/><use xlink:href="#A" transform="matrix(1,0,0,1,384.1333333333334,1938.4440104166667) translate(28.14193576388889 28.09027777777778)"/><use xlink:href="#o" transform="matrix(1,0,0,1,384.1333333333334,1938.4440104166667) translate(6.60873263888889 54.978298611111114)"/><use xlink:href="#p" transform="matrix(1,0,0,1,384.1333333333334,1938.4440104166667) translate(28.89605902777778 54.978298611111114)"/><use xlink:href="#s" transform="matrix(1,0,0,1,384.1333333333334,1938.4440104166667) translate(49.84875 54.978298611111114)"/><path d="M179.13 2016.44v31a6 6 0 0 1-6 6h-48a6 6 0 0 0-6 6v10.26" stroke="#3a414a" stroke-width="4" fill="none"/><path d="M179.12 2014.44l2-.07v2.13h-3.96v-2.18z" stroke="#3a414a" stroke-width=".05" fill="#3a414a"/><path d="M119.13 2085.97l-4.63-14.26h9.27z" stroke="#3a414a" stroke-width="4" fill="#3a414a"/><path d="M159.13 2133.44c0 22.1-17.9 40-40 40s-40-17.9-40-40 17.9-40 40-40 40 17.9 40 40z" stroke="#3a414a" stroke-width="2" fill="#1071e5"/><use xlink:href="#d" transform="matrix(1,0,0,1,84.13333333333338,2098.444010416667) translate(16.483289930555557 43.40277777777778)"/><path d="M179.13 2016.44v31a6 6 0 0 0 6 6h48a6 6 0 0 1 6 6v10.26" stroke="#3a414a" stroke-width="4" fill="none"/><path d="M179.12 2014.44l2-.07v2.13h-3.96v-2.18z" stroke="#3a414a" stroke-width=".05" fill="#3a414a"/><path d="M239.13 2085.97l-4.63-14.26h9.27z" stroke="#3a414a" stroke-width="4" fill="#3a414a"/><path d="M279.13 2133.44c0 22.1-17.9 40-40 40s-40-17.9-40-40 17.9-40 40-40 40 17.9 40 40z" stroke="#3a414a" stroke-width="2" fill="#1071e5"/><g><use xlink:href="#d" transform="matrix(1,0,0,1,204.13333333333338,2098.444010416667) translate(16.483289930555557 43.40277777777778)"/></g><path d="M419.13 2016.44v31a6 6 0 0 1-6 6h-48a6 6 0 0 0-6 6v10.26" stroke="#3a414a" stroke-width="4" fill="none"/><path d="M419.12 2014.44l2-.07v2.13h-3.96v-2.18z" stroke="#3a414a" stroke-width=".05" fill="#3a414a"/><path d="M359.13 2085.97l-4.63-14.26h9.27z" stroke="#3a414a" stroke-width="4" fill="#3a414a"/><path d="M399.13 2133.44c0 22.1-17.9 40-40 40s-40-17.9-40-40 17.9-40 40-40 40 17.9 40 40z" stroke="#3a414a" stroke-width="2" fill="#6f7681"/><g><use xlink:href="#F" transform="matrix(1,0,0,1,324.1333333333334,2098.444010416667) translate(27.827265625000003 28.09027777777778)"/><use xlink:href="#o" transform="matrix(1,0,0,1,324.1333333333334,2098.444010416667) translate(6.521927083333333 54.978298611111114)"/><use xlink:href="#p" transform="matrix(1,0,0,1,324.1333333333334,2098.444010416667) translate(28.809253472222224 54.978298611111114)"/><use xlink:href="#G" transform="matrix(1,0,0,1,324.1333333333334,2098.444010416667) translate(49.761944444444445 54.978298611111114)"/></g><path d="M69.93 1766a6 6 0 0 1 6-6h137.2a6 6 0 0 1 6 6v92.66a6 6 0 0 1-6 6H75.93a6 6 0 0 1-6-6z" stroke="#3a414a" stroke-width="2" fill="#fff"/><g><use xlink:href="#t" transform="matrix(1,0,0,1,81.93333333333334,1772) translate(6.321397569444443 24.05902777777778)"/><use xlink:href="#u" transform="matrix(1,0,0,1,81.93333333333334,1772) translate(86.31271701388889 24.05902777777778)"/><use xlink:href="#v" transform="matrix(1,0,0,1,81.93333333333334,1772) translate(16.830295138888893 50.947048611111114)"/><use xlink:href="#C" transform="matrix(1,0,0,1,81.93333333333334,1772) translate(56.15321180555556 50.947048611111114)"/><use xlink:href="#D" transform="matrix(1,0,0,1,81.93333333333334,1772) translate(28.505642361111114 77.83506944444446)"/><use xlink:href="#H" transform="matrix(1,0,0,1,81.93333333333334,1772) translate(83.76822916666667 77.83506944444446)"/></g><path d="M343.73 2306.9c0 22.08-17.9 40-40 40s-40-17.92-40-40c0-22.1 17.9-40 40-40s40 17.9 40 40z" stroke="#3a414a" stroke-width="2"/><g><use xlink:href="#n" transform="matrix(1,0,0,1,268.73333333333335,2271.8880208333335) translate(30.48568576388889 30.27777777777778)"/><use xlink:href="#o" transform="matrix(1,0,0,1,268.73333333333335,2271.8880208333335) translate(8.865677083333333 57.165798611111114)"/><use xlink:href="#p" transform="matrix(1,0,0,1,268.73333333333335,2271.8880208333335) translate(31.153003472222224 57.165798611111114)"/><use xlink:href="#q" transform="matrix(1,0,0,1,268.73333333333335,2271.8880208333335) translate(52.105694444444445 57.165798611111114)"/></g><path d="M303.73 2349.9v31a6 6 0 0 1-6 6h-108a6 6 0 0 0-6 6v10.25" stroke="#3a414a" stroke-width="4" fill="none"/><path d="M303.72 2347.9l2-.08v2.12h-3.96v-2.17z" stroke="#3a414a" stroke-width=".05" fill="#3a414a"/><path d="M183.73 2419.4l-4.63-14.25h9.27z" stroke="#3a414a" stroke-width="4" fill="#3a414a"/><path d="M223.73 2466.9c0 22.08-17.9 40-40 40s-40-17.92-40-40c0-22.1 17.9-40 40-40s40 17.9 40 40z" stroke="#3a414a" stroke-width="2"/><g><use xlink:href="#r" transform="matrix(1,0,0,1,148.7333333333334,2431.8880208333335) translate(28.228741319444445 28.09027777777778)"/><use xlink:href="#o" transform="matrix(1,0,0,1,148.7333333333334,2431.8880208333335) translate(6.60873263888889 54.978298611111114)"/><use xlink:href="#p" transform="matrix(1,0,0,1,148.7333333333334,2431.8880208333335) translate(28.89605902777778 54.978298611111114)"/><use xlink:href="#s" transform="matrix(1,0,0,1,148.7333333333334,2431.8880208333335) translate(49.84875 54.978298611111114)"/></g><path d="M303.73 2349.9v31a6 6 0 0 0 6 6h108a6 6 0 0 1 6 6v10.25" stroke="#3a414a" stroke-width="4" fill="none"/><path d="M303.72 2347.9l2-.08v2.12h-3.96v-2.17z" stroke="#3a414a" stroke-width=".05" fill="#3a414a"/><path d="M423.73 2419.4l-4.63-14.25h9.27z" stroke="#3a414a" stroke-width="4" fill="#3a414a"/><path d="M463.73 2466.9c0 22.08-17.9 40-40 40s-40-17.92-40-40c0-22.1 17.9-40 40-40s40 17.9 40 40z" stroke="#3a414a" stroke-width="2"/><g><use xlink:href="#A" transform="matrix(1,0,0,1,388.7333333333334,2431.8880208333335) translate(28.14193576388889 28.09027777777778)"/><use xlink:href="#o" transform="matrix(1,0,0,1,388.7333333333334,2431.8880208333335) translate(6.60873263888889 54.978298611111114)"/><use xlink:href="#p" transform="matrix(1,0,0,1,388.7333333333334,2431.8880208333335) translate(28.89605902777778 54.978298611111114)"/><use xlink:href="#s" transform="matrix(1,0,0,1,388.7333333333334,2431.8880208333335) translate(49.84875 54.978298611111114)"/></g><path d="M183.73 2509.9v31a6 6 0 0 1-6 6h-48a6 6 0 0 0-6 6v10.25" stroke="#3a414a" stroke-width="4" fill="none"/><path d="M183.72 2507.9l2-.08v2.12h-3.96v-2.17z" stroke="#3a414a" stroke-width=".05" fill="#3a414a"/><path d="M123.73 2579.4l-4.63-14.25h9.27z" stroke="#3a414a" stroke-width="4" fill="#3a414a"/><path d="M163.73 2626.9c0 22.08-17.9 40-40 40s-40-17.92-40-40c0-22.1 17.9-40 40-40s40 17.9 40 40z" stroke="#3a414a" stroke-width="2" fill="#1071e5"/><g><use xlink:href="#d" transform="matrix(1,0,0,1,88.7333333333334,2591.8880208333335) translate(16.483289930555557 43.40277777777778)"/></g><path d="M183.73 2509.9v31a6 6 0 0 0 6 6h48a6 6 0 0 1 6 6v10.25" stroke="#3a414a" stroke-width="4" fill="none"/><path d="M183.72 2507.9l2-.08v2.12h-3.96v-2.17z" stroke="#3a414a" stroke-width=".05" fill="#3a414a"/><path d="M243.73 2579.4l-4.63-14.25h9.27z" stroke="#3a414a" stroke-width="4" fill="#3a414a"/><path d="M283.73 2626.9c0 22.08-17.9 40-40 40s-40-17.92-40-40c0-22.1 17.9-40 40-40s40 17.9 40 40z" stroke="#3a414a" stroke-width="2" fill="#1071e5"/><g><use xlink:href="#d" transform="matrix(1,0,0,1,208.7333333333334,2591.8880208333335) translate(16.483289930555557 43.40277777777778)"/></g><path d="M423.73 2509.9v31a6 6 0 0 1-6 6h-48a6 6 0 0 0-6 6v10.25" stroke="#3a414a" stroke-width="4" fill="none"/><path d="M423.72 2507.9l2-.08v2.12h-3.96v-2.17z" stroke="#3a414a" stroke-width=".05" fill="#3a414a"/><path d="M363.73 2579.4l-4.63-14.25h9.27z" stroke="#3a414a" stroke-width="4" fill="#3a414a"/><path d="M403.73 2626.9c0 22.08-17.9 40-40 40s-40-17.92-40-40c0-22.1 17.9-40 40-40s40 17.9 40 40z" stroke="#3a414a" stroke-width="2" fill="#6f7681"/><g><use xlink:href="#F" transform="matrix(1,0,0,1,328.7333333333334,2591.8880208333335) translate(27.827265625000003 28.09027777777778)"/><use xlink:href="#o" transform="matrix(1,0,0,1,328.7333333333334,2591.8880208333335) translate(6.521927083333333 54.978298611111114)"/><use xlink:href="#p" transform="matrix(1,0,0,1,328.7333333333334,2591.8880208333335) translate(28.809253472222224 54.978298611111114)"/><use xlink:href="#G" transform="matrix(1,0,0,1,328.7333333333334,2591.8880208333335) translate(49.761944444444445 54.978298611111114)"/></g><path d="M423.73 2509.9v31a6 6 0 0 0 6 6h48a6 6 0 0 1 6 6v10.25" stroke="#3a414a" stroke-width="4" fill="none"/><path d="M423.72 2507.9l2-.08v2.12h-3.96v-2.17z" stroke="#3a414a" stroke-width=".05" fill="#3a414a"/><path d="M483.73 2579.4l-4.63-14.25h9.27z" stroke="#3a414a" stroke-width="4" fill="#3a414a"/><path d="M523.73 2626.9c0 22.08-17.9 40-40 40s-40-17.92-40-40c0-22.1 17.9-40 40-40s40 17.9 40 40z" stroke="#3a414a" stroke-width="2" fill="#6f7681"/><g><use xlink:href="#I" transform="matrix(1,0,0,1,448.7333333333334,2591.8880208333335) translate(28.25044270833333 28.09027777777778)"/><use xlink:href="#o" transform="matrix(1,0,0,1,448.7333333333334,2591.8880208333335) translate(6.521927083333333 54.978298611111114)"/><use xlink:href="#p" transform="matrix(1,0,0,1,448.7333333333334,2591.8880208333335) translate(28.809253472222224 54.978298611111114)"/><use xlink:href="#G" transform="matrix(1,0,0,1,448.7333333333334,2591.8880208333335) translate(49.761944444444445 54.978298611111114)"/></g><path d="M74.53 2259.44a6 6 0 0 1 6-6h137.2a6 6 0 0 1 6 6v92.67a6 6 0 0 1-6 6H80.53a6 6 0 0 1-6-6z" stroke="#3a414a" stroke-width="2" fill="#fff"/><g><use xlink:href="#t" transform="matrix(1,0,0,1,86.53333333333336,2265.444010416667) translate(6.321397569444443 24.05902777777778)"/><use xlink:href="#u" transform="matrix(1,0,0,1,86.53333333333336,2265.444010416667) translate(86.31271701388889 24.05902777777778)"/><use xlink:href="#B" transform="matrix(1,0,0,1,86.53333333333336,2265.444010416667) translate(9.29991319444445 50.947048611111114)"/><use xlink:href="#C" transform="matrix(1,0,0,1,86.53333333333336,2265.444010416667) translate(63.68359375 50.947048611111114)"/><use xlink:href="#D" transform="matrix(1,0,0,1,86.53333333333336,2265.444010416667) translate(28.505642361111114 77.83506944444446)"/><use xlink:href="#H" transform="matrix(1,0,0,1,86.53333333333336,2265.444010416667) translate(83.76822916666667 77.83506944444446)"/></g><path d="M171 2706a6 6 0 0 1 6-6h253.47a6 6 0 0 1 6 6v146.44a6 6 0 0 1-6 6H177a6 6 0 0 1-6-6z" stroke="#3a414a" stroke-width="2" fill="#fff"/><g><use xlink:href="#J" transform="matrix(1,0,0,1,183.00000000000003,2712) translate(12.682942708333329 25.74652777777778)"/><use xlink:href="#K" transform="matrix(1,0,0,1,183.00000000000003,2712) translate(57.431206597222214 25.74652777777778)"/><use xlink:href="#h" transform="matrix(1,0,0,1,183.00000000000003,2712) translate(122.48111979166666 25.74652777777778)"/><use xlink:href="#L" transform="matrix(1,0,0,1,183.00000000000003,2712) translate(145.84266493055554 25.74652777777778)"/><use xlink:href="#M" transform="matrix(1,0,0,1,183.00000000000003,2712) translate(168.12999131944446 25.74652777777778)"/><use xlink:href="#N" transform="matrix(1,0,0,1,183.00000000000003,2712) translate(189.08268229166669 25.74652777777778)"/><use xlink:href="#O" transform="matrix(1,0,0,1,183.00000000000003,2712) translate(214.96158854166669 25.74652777777778)"/><use xlink:href="#P" transform="matrix(1,0,0,1,183.00000000000003,2712) translate(10.219835069444457 52.634548611111114)"/><use xlink:href="#Q" transform="matrix(1,0,0,1,183.00000000000003,2712) translate(55.68424479166667 52.634548611111114)"/><use xlink:href="#R" transform="matrix(1,0,0,1,183.00000000000003,2712) translate(75.443359375 52.634548611111114)"/><use xlink:href="#S" transform="matrix(1,0,0,1,183.00000000000003,2712) translate(115.12434895833333 52.634548611111114)"/><use xlink:href="#T" transform="matrix(1,0,0,1,183.00000000000003,2712) translate(160.63216145833331 52.634548611111114)"/><use xlink:href="#U" transform="matrix(1,0,0,1,183.00000000000003,2712) translate(121 79.52256944444446)"/><use xlink:href="#V" transform="matrix(1,0,0,1,183.00000000000003,2712) translate(11.196397569444457 106.41059027777777)"/><use xlink:href="#W" transform="matrix(1,0,0,1,183.00000000000003,2712) translate(105.43467881944446 106.41059027777777)"/><use xlink:href="#X" transform="matrix(1,0,0,1,183.00000000000003,2712) translate(2.7057291666666714 133.29861111111111)"/><use xlink:href="#Y" transform="matrix(1,0,0,1,183.00000000000003,2712) translate(63.74088541666668 133.29861111111111)"/><use xlink:href="#Z" transform="matrix(1,0,0,1,183.00000000000003,2712) translate(96.92230902777779 133.29861111111111)"/><use xlink:href="#aa" transform="matrix(1,0,0,1,183.00000000000003,2712) translate(148.59331597222223 133.29861111111111)"/><use xlink:href="#ab" transform="matrix(1,0,0,1,183.00000000000003,2712) translate(207.55598958333331 133.29861111111111)"/></g><defs><path fill="#fff" d="M653-1490V0H466v-1314h-10L96-1047v-204l324-239h233" id="ac"/><use transform="matrix(0.010850694444444444,0,0,0.010850694444444444,0,0)" xlink:href="#ac" id="a"/><path fill="#fff" d="M154 0v-137l495-537c165-179 249-281 249-418 0-156-121-253-280-253-170 0-278 110-278 278H158c0-264 200-443 465-443 266 0 455 183 455 416 0 161-73 288-336 568L416-179v12h687V0H154" id="ad"/><use transform="matrix(0.010850694444444444,0,0,0.010850694444444444,0,0)" xlink:href="#ad" id="b"/><path fill="#fff" d="M635 20c-292 0-500-160-510-396h192c11 142 145 229 315 229 187 0 323-105 323-260 0-161-125-274-346-274H488v-165h121c174 0 294-100 294-254 0-148-104-245-266-245-152 0-291 85-297 230H157c8-234 222-395 484-395 278 0 448 188 448 400 0 168-95 291-247 336v12c190 31 301 169 301 357 0 244-216 425-508 425" id="ae"/><use transform="matrix(0.010850694444444444,0,0,0.010850694444444444,0,0)" xlink:href="#ae" id="c"/><path fill="#fff" d="M338-670V0H158v-1118h173l1 207c72-158 192-221 342-221 226 0 378 139 378 422V0H872v-695c0-172-96-275-252-275-161 0-282 109-282 300" id="af"/><path fill="#fff" d="M537 14c-226 0-379-139-379-422v-710h180v695c0 172 97 275 253 275 160 0 281-109 281-300v-670h181V0H879v-209C806-46 684 14 537 14" id="ag"/><path fill="#fff" d="M338-1490V0H158v-1490h180" id="ah"/><g id="d"><use transform="matrix(0.010850694444444444,0,0,0.010850694444444444,0,0)" xlink:href="#af"/><use transform="matrix(0.010850694444444444,0,0,0.010850694444444444,13.129340277777777,0)" xlink:href="#ag"/><use transform="matrix(0.010850694444444444,0,0,0.010850694444444444,26.26953125,0)" xlink:href="#ah"/><use transform="matrix(0.010850694444444444,0,0,0.010850694444444444,31.651475694444443,0)" xlink:href="#ah"/></g><path fill="#fff" d="M120-303v-155l652-1032h231v1020h202v167h-202V0H821v-303H120zm702-167v-782h-12L323-482v12h499" id="ai"/><use transform="matrix(0.010850694444444444,0,0,0.010850694444444444,0,0)" xlink:href="#ai" id="e"/><path fill="#fff" d="M626 20c-262 0-458-168-468-396h184c12 133 134 229 284 229 180 0 311-137 311-326 0-192-136-335-323-335-92 0-196 33-255 78l-178-22 88-738h784v167H429l-51 435h8c61-51 160-87 263-87 273 0 474 211 474 499 0 286-210 496-497 496" id="aj"/><use transform="matrix(0.010850694444444444,0,0,0.010850694444444444,0,0)" xlink:href="#aj" id="f"/><path d="M98-1322v-168h1126v168H757V0H567v-1322H98" id="ak"/><path d="M338-670V0H158v-1490h180v566c73-149 190-208 336-208 226 0 379 139 379 422V0H872v-695c0-172-96-275-252-275-161 0-282 109-282 300" id="al"/><path d="M158 0v-1118h180V0H158zm91-1301c-68 0-125-53-125-119s57-119 125-119c69 0 126 53 126 119s-57 119-126 119" id="am"/><path d="M538 24C308 24 148-78 108-271l171-41c32 123 123 178 257 178 156 0 256-77 256-169 0-77-54-128-164-154l-186-44c-203-48-300-148-300-305 0-192 176-326 414-326 230 0 351 112 402 269l-163 42c-31-80-94-158-238-158-133 0-233 69-233 162 0 83 57 129 188 160l169 40c203 48 298 149 298 302 0 196-179 339-441 339" id="an"/><g id="g"><use transform="matrix(0.010850694444444444,0,0,0.010850694444444444,0,0)" xlink:href="#ak"/><use transform="matrix(0.010850694444444444,0,0,0.010850694444444444,14.344618055555555,0)" xlink:href="#al"/><use transform="matrix(0.010850694444444444,0,0,0.010850694444444444,27.48480902777778,0)" xlink:href="#am"/><use transform="matrix(0.010850694444444444,0,0,0.010850694444444444,32.86675347222222,0)" xlink:href="#an"/></g><g id="h"><use transform="matrix(0.010850694444444444,0,0,0.010850694444444444,0,0)" xlink:href="#am"/><use transform="matrix(0.010850694444444444,0,0,0.010850694444444444,5.381944444444445,0)" xlink:href="#an"/></g><path d="M613 24c-304 0-509-231-509-576 0-350 205-580 509-580 305 0 511 230 511 580 0 345-206 576-511 576zm0-161c226 0 329-195 329-415 0-222-103-419-329-419-223 0-326 196-326 419 0 220 103 415 326 415" id="ao"/><path d="M537 14c-226 0-379-139-379-422v-710h180v695c0 172 97 275 253 275 160 0 281-109 281-300v-670h181V0H879v-209C806-46 684 14 537 14" id="ap"/><path d="M158 0v-1118h174v172h12c41-113 157-188 290-188 26 0 70 2 91 3v181c-11-2-60-10-108-10-161 0-279 109-279 260V0H158" id="aq"/><g id="i"><use transform="matrix(0.010850694444444444,0,0,0.010850694444444444,0,0)" xlink:href="#ao"/><use transform="matrix(0.010850694444444444,0,0,0.010850694444444444,13.324652777777777,0)" xlink:href="#ap"/><use transform="matrix(0.010850694444444444,0,0,0.010850694444444444,26.46484375,0)" xlink:href="#aq"/></g><path d="M598-1118v154H368v674c0 100 37 144 132 144 23 0 62-6 92-12L629-6c-37 13-88 20-134 20-193 0-307-107-307-290v-688H20v-154h168v-266h180v266h230" id="ar"/><path d="M628 24c-324 0-524-230-524-574 0-343 198-582 503-582 237 0 487 146 487 559v75H286c9 234 145 362 343 362 132 0 231-58 273-172l174 48C1024-91 857 24 628 24zM287-650h624c-17-190-120-322-304-322-192 0-309 151-320 322" id="as"/><g id="j"><use transform="matrix(0.010850694444444444,0,0,0.010850694444444444,0,0)" xlink:href="#ar"/><use transform="matrix(0.010850694444444444,0,0,0.010850694444444444,7.269965277777778,0)" xlink:href="#aq"/><use transform="matrix(0.010850694444444444,0,0,0.010850694444444444,15.266927083333332,0)" xlink:href="#as"/><use transform="matrix(0.010850694444444444,0,0,0.010850694444444444,28.22265625,0)" xlink:href="#as"/></g><path d="M409 0L70-1118h191c89 329 165 560 243 925 75-353 154-601 240-925h192c85 325 161 564 235 922 77-354 157-598 244-922h191L1267 0h-179c-86-307-176-590-250-913C763-588 675-308 588 0H409" id="at"/><g id="k"><use transform="matrix(0.010850694444444444,0,0,0.010850694444444444,0,0)" xlink:href="#at"/><use transform="matrix(0.010850694444444444,0,0,0.010850694444444444,17.784288194444446,0)" xlink:href="#as"/></g><path d="M471 26C259 26 90-98 90-318c0-256 228-303 435-329 202-27 287-16 287-108 0-139-79-219-234-219-161 0-248 86-283 164l-173-57c86-203 278-265 451-265 150 0 419 46 419 395V0H815v-152h-12C765-73 660 26 471 26zm31-159c199 0 310-134 310-271v-155c-30 35-226 55-295 64-131 17-246 59-246 186 0 116 97 176 231 176" id="au"/><g id="l"><use transform="matrix(0.010850694444444444,0,0,0.010850694444444444,0,0)" xlink:href="#au"/><use transform="matrix(0.010850694444444444,0,0,0.010850694444444444,12.47829861111111,0)" xlink:href="#aq"/><use transform="matrix(0.010850694444444444,0,0,0.010850694444444444,20.475260416666664,0)" xlink:href="#as"/></g><path d="M613 24c-304 0-509-231-509-576 0-350 205-580 509-580 216 0 392 114 453 309l-173 49c-33-115-133-197-280-197-223 0-326 196-326 419 0 220 103 415 326 415 150 0 252-85 285-206l172 49C1010-95 832 24 613 24" id="av"/><path d="M338-670V0H158v-1118h173l1 207c72-158 192-221 342-221 226 0 378 139 378 422V0H872v-695c0-172-96-275-252-275-161 0-282 109-282 300" id="aw"/><path d="M611 442c-248 0-391-105-460-228l146-94c47 65 117 165 314 165 178 0 307-82 307-266v-224h-17C863-141 792-18 576-18c-268 0-472-195-472-546 0-346 197-568 476-568 216 0 288 133 326 193h17v-179h175V29c0 289-215 413-487 413zm-5-620c203 0 314-146 314-390 0-237-108-403-314-403-213 0-319 180-319 403 0 230 109 390 319 390" id="ax"/><g id="m"><use transform="matrix(0.010850694444444444,0,0,0.010850694444444444,0,0)" xlink:href="#an"/><use transform="matrix(0.010850694444444444,0,0,0.010850694444444444,11.729600694444445,0)" xlink:href="#as"/><use transform="matrix(0.010850694444444444,0,0,0.010850694444444444,24.90234375,0)" xlink:href="#au"/><use transform="matrix(0.010850694444444444,0,0,0.010850694444444444,37.380642361111114,0)" xlink:href="#aq"/><use transform="matrix(0.010850694444444444,0,0,0.010850694444444444,45.377604166666664,0)" xlink:href="#av"/><use transform="matrix(0.010850694444444444,0,0,0.010850694444444444,58.072916666666664,0)" xlink:href="#al"/><use transform="matrix(0.010850694444444444,0,0,0.010850694444444444,71.21310763888889,0)" xlink:href="#am"/><use transform="matrix(0.010850694444444444,0,0,0.010850694444444444,76.59505208333333,0)" xlink:href="#aw"/><use transform="matrix(0.010850694444444444,0,0,0.010850694444444444,89.72439236111111,0)" xlink:href="#ax"/></g><use transform="matrix(0.010850694444444444,0,0,0.010850694444444444,0,0)" xlink:href="#ac" id="n"/><path fill="#fff" d="M645 0H180v-1490h484c435 0 692 280 692 742 0 466-257 748-711 748zM370-168h263c363 0 539-218 539-580 0-358-176-574-521-574H370v1154" id="ay"/><use transform="matrix(0.010850694444444444,0,0,0.010850694444444444,0,0)" xlink:href="#ay" id="o"/><path fill="#fff" d="M226-283v-166h904v166H226zm0-434v-166h904v166H226" id="az"/><use transform="matrix(0.010850694444444444,0,0,0.010850694444444444,0,0)" xlink:href="#az" id="p"/><use transform="matrix(0.010850694444444444,0,0,0.010850694444444444,0,0)" xlink:href="#ac" id="q"/><use transform="matrix(0.010850694444444444,0,0,0.010850694444444444,0,0)" xlink:href="#ad" id="r"/><use transform="matrix(0.010850694444444444,0,0,0.010850694444444444,0,0)" xlink:href="#ad" id="s"/><path d="M657 26c-323 0-524-166-541-416h195c15 169 171 246 346 246 202 0 356-106 356-265 5-203-294-238-475-293-239-73-380-191-380-389 0-252 224-419 512-419 294 0 499 171 508 396H992c-17-145-151-228-328-228-193 0-321 102-321 242 0 156 175 211 284 241l149 41c160 44 422 134 422 412 0 244-197 432-541 432" id="aA"/><g id="t"><use transform="matrix(0.010850694444444444,0,0,0.010850694444444444,0,0)" xlink:href="#aA"/><use transform="matrix(0.010850694444444444,0,0,0.010850694444444444,14.2578125,0)" xlink:href="#as"/><use transform="matrix(0.010850694444444444,0,0,0.010850694444444444,27.43055555555556,0)" xlink:href="#au"/><use transform="matrix(0.010850694444444444,0,0,0.010850694444444444,39.90885416666667,0)" xlink:href="#aq"/><use transform="matrix(0.010850694444444444,0,0,0.010850694444444444,47.90581597222222,0)" xlink:href="#av"/><use transform="matrix(0.010850694444444444,0,0,0.010850694444444444,60.60112847222222,0)" xlink:href="#al"/></g><g id="u"><use transform="matrix(0.010850694444444444,0,0,0.010850694444444444,0,0)" xlink:href="#ar"/><use transform="matrix(0.010850694444444444,0,0,0.010850694444444444,7.269965277777778,0)" xlink:href="#al"/><use transform="matrix(0.010850694444444444,0,0,0.010850694444444444,20.41015625,0)" xlink:href="#as"/></g><path d="M338-1490V0H158v-1490h180" id="aB"/><path d="M678-1118v154H420V0H240v-964H20v-154h220v-149c0-194 155-293 318-293 85 0 141 18 168 30l-50 154c-19-6-47-17-97-17-111 0-159 58-159 166v109h258" id="aC"/><g id="v"><use transform="matrix(0.010850694444444444,0,0,0.010850694444444444,0,0)" xlink:href="#aB"/><use transform="matrix(0.010850694444444444,0,0,0.010850694444444444,5.381944444444445,0)" xlink:href="#as"/><use transform="matrix(0.010850694444444444,0,0,0.010850694444444444,18.33767361111111,0)" xlink:href="#aC"/><use transform="matrix(0.010850694444444444,0,0,0.010850694444444444,25.80295138888889,0)" xlink:href="#ar"/></g><path d="M577 24c-279 0-473-224-473-580 0-354 195-576 474-576 218 0 287 134 324 193h14v-551h180V0H922v-173h-20C865-111 790 24 577 24zm27-161c203 0 314-172 314-421 0-247-108-413-314-413-212 0-317 181-317 413 0 235 108 421 317 421" id="aD"/><g id="w"><use transform="matrix(0.010850694444444444,0,0,0.010850694444444444,0,0)" xlink:href="#aw"/><use transform="matrix(0.010850694444444444,0,0,0.010850694444444444,13.129340277777777,0)" xlink:href="#ao"/><use transform="matrix(0.010850694444444444,0,0,0.010850694444444444,26.453993055555554,0)" xlink:href="#aD"/><use transform="matrix(0.010850694444444444,0,0,0.010850694444444444,40.060763888888886,0)" xlink:href="#as"/></g><path d="M154 0v-137l495-537c165-179 249-281 249-418 0-156-121-253-280-253-170 0-278 110-278 278H158c0-264 200-443 465-443 266 0 455 183 455 416 0 161-73 288-336 568L416-179v12h687V0H154" id="aE"/><use transform="matrix(0.010850694444444444,0,0,0.010850694444444444,0,0)" xlink:href="#aE" id="x"/><g id="y"><use transform="matrix(0.010850694444444444,0,0,0.010850694444444444,0,0)" xlink:href="#ao"/><use transform="matrix(0.010850694444444444,0,0,0.010850694444444444,13.324652777777777,0)" xlink:href="#ap"/><use transform="matrix(0.010850694444444444,0,0,0.010850694444444444,26.46484375,0)" xlink:href="#aq"/></g><g id="z"><use transform="matrix(0.010850694444444444,0,0,0.010850694444444444,0,0)" xlink:href="#aB"/><use transform="matrix(0.010850694444444444,0,0,0.010850694444444444,5.381944444444445,0)" xlink:href="#as"/><use transform="matrix(0.010850694444444444,0,0,0.010850694444444444,18.5546875,0)" xlink:href="#au"/><use transform="matrix(0.010850694444444444,0,0,0.010850694444444444,31.03298611111111,0)" xlink:href="#aC"/></g><use transform="matrix(0.010850694444444444,0,0,0.010850694444444444,0,0)" xlink:href="#ae" id="A"/><g id="B"><use transform="matrix(0.010850694444444444,0,0,0.010850694444444444,0,0)" xlink:href="#aq"/><use transform="matrix(0.010850694444444444,0,0,0.010850694444444444,8.713107638888888,0)" xlink:href="#am"/><use transform="matrix(0.010850694444444444,0,0,0.010850694444444444,14.095052083333332,0)" xlink:href="#ax"/><use transform="matrix(0.010850694444444444,0,0,0.010850694444444444,27.723524305555554,0)" xlink:href="#al"/><use transform="matrix(0.010850694444444444,0,0,0.010850694444444444,40.86371527777777,0)" xlink:href="#ar"/></g><g id="C"><use transform="matrix(0.010850694444444444,0,0,0.010850694444444444,0,0)" xlink:href="#aw"/><use transform="matrix(0.010850694444444444,0,0,0.010850694444444444,13.129340277777777,0)" xlink:href="#ao"/><use transform="matrix(0.010850694444444444,0,0,0.010850694444444444,26.453993055555554,0)" xlink:href="#aD"/><use transform="matrix(0.010850694444444444,0,0,0.010850694444444444,40.060763888888886,0)" xlink:href="#as"/></g><path d="M158 0v-1118h175l1 205c55-151 181-225 313-225 147 0 245 90 285 228 53-141 190-228 352-228 194 0 352 125 352 384V0h-181v-749c0-161-105-225-225-225-151 0-243 103-243 244V0H807v-767c0-124-93-207-219-207-131 0-250 92-250 270V0H158" id="aF"/><g id="D"><use transform="matrix(0.010850694444444444,0,0,0.010850694444444444,0,0)" xlink:href="#aC"/><use transform="matrix(0.010850694444444444,0,0,0.010850694444444444,8.22482638888889,0)" xlink:href="#aq"/><use transform="matrix(0.010850694444444444,0,0,0.010850694444444444,16.221788194444443,0)" xlink:href="#ao"/><use transform="matrix(0.010850694444444444,0,0,0.010850694444444444,29.54644097222222,0)" xlink:href="#aF"/></g><g id="E"><use transform="matrix(0.010850694444444444,0,0,0.010850694444444444,0,0)" xlink:href="#aq"/><use transform="matrix(0.010850694444444444,0,0,0.010850694444444444,7.996961805555555,0)" xlink:href="#ao"/><use transform="matrix(0.010850694444444444,0,0,0.010850694444444444,21.321614583333332,0)" xlink:href="#ao"/><use transform="matrix(0.010850694444444444,0,0,0.010850694444444444,34.64626736111111,0)" xlink:href="#ar"/></g><use transform="matrix(0.010850694444444444,0,0,0.010850694444444444,0,0)" xlink:href="#ai" id="F"/><use transform="matrix(0.010850694444444444,0,0,0.010850694444444444,0,0)" xlink:href="#ae" id="G"/><path d="M635 20c-292 0-500-160-510-396h192c11 142 145 229 315 229 187 0 323-105 323-260 0-161-125-274-346-274H488v-165h121c174 0 294-100 294-254 0-148-104-245-266-245-152 0-291 85-297 230H157c8-234 222-395 484-395 278 0 448 188 448 400 0 168-95 291-247 336v12c190 31 301 169 301 357 0 244-216 425-508 425" id="aG"/><use transform="matrix(0.010850694444444444,0,0,0.010850694444444444,0,0)" xlink:href="#aG" id="H"/><use transform="matrix(0.010850694444444444,0,0,0.010850694444444444,0,0)" xlink:href="#aj" id="I"/><path d="M784 20c-382 0-662-292-662-764 0-473 280-766 662-766s660 293 660 766c0 472-278 764-660 764zm0-176c266 0 475-207 475-588 0-383-209-590-475-590-268 0-477 208-477 590 0 380 209 588 477 588" id="aH"/><g id="J"><use transform="matrix(0.010850694444444444,0,0,0.010850694444444444,0,0)" xlink:href="#aH"/><use transform="matrix(0.010850694444444444,0,0,0.010850694444444444,16.9921875,0)" xlink:href="#ap"/><use transform="matrix(0.010850694444444444,0,0,0.010850694444444444,30.13237847222222,0)" xlink:href="#aq"/></g><g id="K"><use transform="matrix(0.010850694444444444,0,0,0.010850694444444444,0,0)" xlink:href="#aq"/><use transform="matrix(0.010850694444444444,0,0,0.010850694444444444,7.996961805555555,0)" xlink:href="#as"/><use transform="matrix(0.010850694444444444,0,0,0.010850694444444444,20.95269097222222,0)" xlink:href="#an"/><use transform="matrix(0.010850694444444444,0,0,0.010850694444444444,32.682291666666664,0)" xlink:href="#ap"/><use transform="matrix(0.010850694444444444,0,0,0.010850694444444444,45.822482638888886,0)" xlink:href="#aB"/><use transform="matrix(0.010850694444444444,0,0,0.010850694444444444,51.529947916666664,0)" xlink:href="#ar"/></g><path d="M645 0H180v-1490h484c435 0 692 280 692 742 0 466-257 748-711 748zM370-168h263c363 0 539-218 539-580 0-358-176-574-521-574H370v1154" id="aI"/><use transform="matrix(0.010850694444444444,0,0,0.010850694444444444,0,0)" xlink:href="#aI" id="L"/><path d="M226-283v-166h904v166H226zm0-434v-166h904v166H226" id="aJ"/><use transform="matrix(0.010850694444444444,0,0,0.010850694444444444,0,0)" xlink:href="#aJ" id="M"/><path d="M295 13c-75 0-135-60-135-135s60-135 135-135 135 60 135 135S370 13 295 13" id="aK"/><g id="N"><use transform="matrix(0.010850694444444444,0,0,0.010850694444444444,0,0)" xlink:href="#aG"/><use transform="matrix(0.010850694444444444,0,0,0.010850694444444444,13.226996527777777,0)" xlink:href="#aK"/></g><path d="M120-303v-155l652-1032h231v1020h202v167h-202V0H821v-303H120zm702-167v-782h-12L323-482v12h499" id="aL"/><use transform="matrix(0.010850694444444444,0,0,0.010850694444444444,0,0)" xlink:href="#aL" id="O"/><g id="P"><use transform="matrix(0.010850694444444444,0,0,0.010850694444444444,0,0)" xlink:href="#au"/><use transform="matrix(0.010850694444444444,0,0,0.010850694444444444,12.47829861111111,0)" xlink:href="#aw"/><use transform="matrix(0.010850694444444444,0,0,0.010850694444444444,25.60763888888889,0)" xlink:href="#aD"/></g><path d="M626 20c-262 0-458-168-468-396h184c12 133 134 229 284 229 180 0 311-137 311-326 0-192-136-335-323-335-92 0-196 33-255 78l-178-22 88-738h784v167H429l-51 435h8c61-51 160-87 263-87 273 0 474 211 474 499 0 286-210 496-497 496" id="aM"/><use transform="matrix(0.010850694444444444,0,0,0.010850694444444444,0,0)" xlink:href="#aM" id="Q"/><g id="R"><use transform="matrix(0.010850694444444444,0,0,0.010850694444444444,0,0)" xlink:href="#au"/><use transform="matrix(0.010850694444444444,0,0,0.010850694444444444,12.47829861111111,0)" xlink:href="#aq"/><use transform="matrix(0.010850694444444444,0,0,0.010850694444444444,20.475260416666664,0)" xlink:href="#as"/></g><g id="S"><use transform="matrix(0.010850694444444444,0,0,0.010850694444444444,0,0)" xlink:href="#aB"/><use transform="matrix(0.010850694444444444,0,0,0.010850694444444444,5.381944444444445,0)" xlink:href="#as"/><use transform="matrix(0.010850694444444444,0,0,0.010850694444444444,18.5546875,0)" xlink:href="#au"/><use transform="matrix(0.010850694444444444,0,0,0.010850694444444444,31.03298611111111,0)" xlink:href="#aC"/></g><g id="T"><use transform="matrix(0.010850694444444444,0,0,0.010850694444444444,0,0)" xlink:href="#aw"/><use transform="matrix(0.010850694444444444,0,0,0.010850694444444444,13.129340277777777,0)" xlink:href="#ao"/><use transform="matrix(0.010850694444444444,0,0,0.010850694444444444,26.453993055555554,0)" xlink:href="#aD"/><use transform="matrix(0.010850694444444444,0,0,0.010850694444444444,40.060763888888886,0)" xlink:href="#as"/><use transform="matrix(0.010850694444444444,0,0,0.010850694444444444,53.01649305555556,0)" xlink:href="#an"/><use transform="matrix(0.010850694444444444,0,0,0.010850694444444444,64.74609375,0)" xlink:href="#aK"/></g><g id="V"><use transform="matrix(0.010850694444444444,0,0,0.010850694444444444,0,0)" xlink:href="#ak"/><use transform="matrix(0.010850694444444444,0,0,0.010850694444444444,14.344618055555555,0)" xlink:href="#al"/><use transform="matrix(0.010850694444444444,0,0,0.010850694444444444,27.48480902777778,0)" xlink:href="#ao"/><use transform="matrix(0.010850694444444444,0,0,0.010850694444444444,40.80946180555556,0)" xlink:href="#ap"/><use transform="matrix(0.010850694444444444,0,0,0.010850694444444444,53.94965277777778,0)" xlink:href="#ax"/><use transform="matrix(0.010850694444444444,0,0,0.010850694444444444,67.578125,0)" xlink:href="#al"/><use transform="matrix(0.010850694444444444,0,0,0.010850694444444444,80.71831597222223,0)" xlink:href="#ar"/></g><path d="M180 0v-1490h908v168H370v486h669v168H370v500h727V0H180" id="aN"/><path d="M65 0l393-574-370-544h210c88 136 192 297 267 435 67-142 176-302 264-435h206L661-564 1053 0H844c-94-144-206-310-287-458C484-308 366-142 273 0H65" id="aO"/><path d="M158 418v-1536h174v179h20c37-59 106-193 324-193 279 0 474 222 474 576 0 356-194 580-473 580-213 0-288-135-325-197h-14v591H158zm492-555c209 0 317-186 317-421 0-232-105-413-317-413-206 0-314 166-314 413 0 249 111 421 314 421" id="aP"/><path d="M295 13c-75 0-135-60-135-135s60-135 135-135 135 60 135 135S370 13 295 13zm0-809c-75 0-135-60-135-135s60-135 135-135 135 60 135 135-60 135-135 135" id="aQ"/><g id="W"><use transform="matrix(0.010850694444444444,0,0,0.010850694444444444,0,0)" xlink:href="#aN"/><use transform="matrix(0.010850694444444444,0,0,0.010850694444444444,13.35720486111111,0)" xlink:href="#aO"/><use transform="matrix(0.010850694444444444,0,0,0.010850694444444444,25.48828125,0)" xlink:href="#aP"/><use transform="matrix(0.010850694444444444,0,0,0.010850694444444444,39.09505208333333,0)" xlink:href="#as"/><use transform="matrix(0.010850694444444444,0,0,0.010850694444444444,52.050781249999986,0)" xlink:href="#aq"/><use transform="matrix(0.010850694444444444,0,0,0.010850694444444444,60.76388888888888,0)" xlink:href="#am"/><use transform="matrix(0.010850694444444444,0,0,0.010850694444444444,66.14583333333333,0)" xlink:href="#aF"/><use transform="matrix(0.010850694444444444,0,0,0.010850694444444444,85.61197916666666,0)" xlink:href="#as"/><use transform="matrix(0.010850694444444444,0,0,0.010850694444444444,98.56770833333333,0)" xlink:href="#aw"/><use transform="matrix(0.010850694444444444,0,0,0.010850694444444444,111.6970486111111,0)" xlink:href="#ar"/><use transform="matrix(0.010850694444444444,0,0,0.010850694444444444,118.96701388888887,0)" xlink:href="#aQ"/></g><path d="M458 0L52-1490h194c108 439 233 855 324 1313 92-459 221-873 331-1313h216c110 438 234 854 330 1307 92-455 216-869 323-1307h196L1558 0h-221l-256-944c-26-95-50-200-73-331-22 122-44 223-73 331L680 0H458" id="aR"/><g id="X"><use transform="matrix(0.010850694444444444,0,0,0.010850694444444444,0,0)" xlink:href="#aR"/><use transform="matrix(0.010850694444444444,0,0,0.010850694444444444,21.89670138888889,0)" xlink:href="#al"/><use transform="matrix(0.010850694444444444,0,0,0.010850694444444444,35.036892361111114,0)" xlink:href="#au"/><use transform="matrix(0.010850694444444444,0,0,0.010850694444444444,47.51519097222223,0)" xlink:href="#ar"/></g><g id="Y"><use transform="matrix(0.010850694444444444,0,0,0.010850694444444444,0,0)" xlink:href="#aD"/><use transform="matrix(0.010850694444444444,0,0,0.010850694444444444,13.606770833333332,0)" xlink:href="#ao"/></g><path d="M140 405l46-156c120 36 205 19 263-150l32-93L54-1118h197c107 313 237 620 324 950 87-331 219-637 326-950h196L606 167c-68 178-176 259-334 259-64 0-113-12-132-21" id="aS"/><g id="Z"><use transform="matrix(0.010850694444444444,0,0,0.010850694444444444,0,0)" xlink:href="#ar"/><use transform="matrix(0.010850694444444444,0,0,0.010850694444444444,7.269965277777778,0)" xlink:href="#al"/><use transform="matrix(0.010850694444444444,0,0,0.010850694444444444,20.41015625,0)" xlink:href="#as"/><use transform="matrix(0.010850694444444444,0,0,0.010850694444444444,32.931857638888886,0)" xlink:href="#aS"/></g><g id="aa"><use transform="matrix(0.010850694444444444,0,0,0.010850694444444444,0,0)" xlink:href="#aP"/><use transform="matrix(0.010850694444444444,0,0,0.010850694444444444,13.606770833333332,0)" xlink:href="#ao"/><use transform="matrix(0.010850694444444444,0,0,0.010850694444444444,26.931423611111104,0)" xlink:href="#am"/><use transform="matrix(0.010850694444444444,0,0,0.010850694444444444,32.31336805555555,0)" xlink:href="#aw"/><use transform="matrix(0.010850694444444444,0,0,0.010850694444444444,45.44270833333333,0)" xlink:href="#ar"/></g><path d="M383-449c-3-277 82-343 222-425 88-53 156-134 156-250 0-139-108-227-243-227-118 0-235 70-246 236H82c10-251 200-395 436-395 259 0 427 165 427 393 0 161-74 273-203 352-132 80-180 132-178 316H383zm93 462c-75 0-135-60-135-134 0-75 60-135 135-135 74 0 134 60 134 135 0 74-60 134-134 134" id="aT"/><g id="ab"><use transform="matrix(0.010850694444444444,0,0,0.010850694444444444,0,0)" xlink:href="#ar"/><use transform="matrix(0.010850694444444444,0,0,0.010850694444444444,7.052951388888888,0)" xlink:href="#ao"/><use transform="matrix(0.010850694444444444,0,0,0.010850694444444444,20.377604166666664,0)" xlink:href="#aT"/></g></defs></g></svg>