<svg xmlns="http://www.w3.org/2000/svg" xmlns:xlink="http://www.w3.org/1999/xlink" xmlns:lucid="lucid" width="451.2" height="1194.33"><g transform="translate(-149.79999999999995 -219)" lucid:page-tab-id="0_0"><path d="M420 260c0 22.1-17.9 40-40 40s-40-17.9-40-40 17.9-40 40-40 40 17.9 40 40z" stroke="#3a414a" stroke-width="2"/><use xlink:href="#a" transform="matrix(1,0,0,1,345,225) translate(30.48068576388889 43.40277777777778)"/><path d="M380 303v31a6 6 0 0 1-6 6H266a6 6 0 0 0-6 6v10.26" stroke="#3a414a" stroke-width="4" fill="none"/><path d="M380 301l1.98-.07v2.12h-3.96v-2.17z" stroke="#3a414a" stroke-width=".05" fill="#3a414a"/><path d="M260 372.53l-4.63-14.27h9.26z" stroke="#3a414a" stroke-width="4" fill="#3a414a"/><path d="M300 420c0 22.1-17.9 40-40 40s-40-17.9-40-40 17.9-40 40-40 40 17.9 40 40z" stroke="#3a414a" stroke-width="2"/><use xlink:href="#b" transform="matrix(1,0,0,1,225,385) translate(28.223741319444443 43.40277777777778)"/><path d="M380 303v31a6 6 0 0 0 6 6h108a6 6 0 0 1 6 6v10.26" stroke="#3a414a" stroke-width="4" fill="none"/><path d="M380 301l1.98-.07v2.12h-3.96v-2.17z" stroke="#3a414a" stroke-width=".05" fill="#3a414a"/><path d="M500 372.53l-4.63-14.27h9.26z" stroke="#3a414a" stroke-width="4" fill="#3a414a"/><path d="M540 420c0 22.1-17.9 40-40 40s-40-17.9-40-40 17.9-40 40-40 40 17.9 40 40z" stroke="#3a414a" stroke-width="2"/><use xlink:href="#c" transform="matrix(1,0,0,1,465,385) translate(28.13693576388889 43.40277777777778)"/><path d="M260 463v31a6 6 0 0 1-6 6h-48a6 6 0 0 0-6 6v10.26" stroke="#3a414a" stroke-width="4" fill="none"/><path d="M260 461l1.98-.07v2.12h-3.96v-2.17z" stroke="#3a414a" stroke-width=".05" fill="#3a414a"/><path d="M200 532.53l-4.63-14.27h9.26z" stroke="#3a414a" stroke-width="4" fill="#3a414a"/><path d="M240 580c0 22.1-17.9 40-40 40s-40-17.9-40-40 17.9-40 40-40 40 17.9 40 40z" stroke="#3a414a" stroke-width="2" fill="#1071e5"/><use xlink:href="#d" transform="matrix(1,0,0,1,165,545) translate(16.483289930555557 43.40277777777778)"/><path d="M260 463v31a6 6 0 0 0 6 6h48a6 6 0 0 1 6 6v10.26" stroke="#3a414a" stroke-width="4" fill="none"/><path d="M260 461l1.98-.07v2.12h-3.96v-2.17z" stroke="#3a414a" stroke-width=".05" fill="#3a414a"/><path d="M320 532.53l-4.63-14.27h9.26z" stroke="#3a414a" stroke-width="4" fill="#3a414a"/><path d="M360 580c0 22.1-17.9 40-40 40s-40-17.9-40-40 17.9-40 40-40 40 17.9 40 40z" stroke="#3a414a" stroke-width="2" fill="#1071e5"/><use xlink:href="#d" transform="matrix(1,0,0,1,285,545) translate(16.483289930555557 43.40277777777778)"/><path d="M500 463v31a6 6 0 0 1-6 6h-48a6 6 0 0 0-6 6v10.26" stroke="#3a414a" stroke-width="4" fill="none"/><path d="M500 461l1.98-.07v2.12h-3.96v-2.17z" stroke="#3a414a" stroke-width=".05" fill="#3a414a"/><path d="M440 532.53l-4.63-14.27h9.26z" stroke="#3a414a" stroke-width="4" fill="#3a414a"/><path d="M480 580c0 22.1-17.9 40-40 40s-40-17.9-40-40 17.9-40 40-40 40 17.9 40 40z" stroke="#3a414a" stroke-width="2" fill="#6f7681"/><use xlink:href="#e" transform="matrix(1,0,0,1,405,545) translate(27.822265625 43.40277777777778)"/><path d="M500 463v31a6 6 0 0 0 6 6h48a6 6 0 0 1 6 6v10.26" stroke="#3a414a" stroke-width="4" fill="none"/><path d="M500 461l1.98-.07v2.12h-3.96v-2.17z" stroke="#3a414a" stroke-width=".05" fill="#3a414a"/><path d="M560 532.53l-4.63-14.27h9.26z" stroke="#3a414a" stroke-width="4" fill="#3a414a"/><path d="M600 580c0 22.1-17.9 40-40 40s-40-17.9-40-40 17.9-40 40-40 40 17.9 40 40z" stroke="#3a414a" stroke-width="2" fill="#6f7681"/><use xlink:href="#f" transform="matrix(1,0,0,1,525,545) translate(28.245442708333336 43.40277777777778)"/><path d="M320 666a6 6 0 0 1 6-6h117.2a6 6 0 0 1 6 6v92.66a6 6 0 0 1-6 6H326a6 6 0 0 1-6-6z" stroke="#3a414a" stroke-width="2" fill="#fff"/><use xlink:href="#g" transform="matrix(1,0,0,1,332,672) translate(4.101345486111114 24.05902777777778)"/><use xlink:href="#h" transform="matrix(1,0,0,1,332,672) translate(88.17252604166666 24.05902777777778)"/><use xlink:href="#i" transform="matrix(1,0,0,1,332,672) translate(1.5622829861111143 50.947048611111114)"/><use xlink:href="#j" transform="matrix(1,0,0,1,332,672) translate(16.850911458333336 50.947048611111114)"/><use xlink:href="#k" transform="matrix(1,0,0,1,332,672) translate(43.478515625 50.947048611111114)"/><use xlink:href="#j" transform="matrix(1,0,0,1,332,672) translate(63.45464409722222 50.947048611111114)"/><use xlink:href="#l" transform="matrix(1,0,0,1,332,672) translate(90.08224826388889 50.947048611111114)"/><use xlink:href="#i" transform="matrix(1,0,0,1,332,672) translate(1.5622829861111143 77.83506944444446)"/><use xlink:href="#j" transform="matrix(1,0,0,1,332,672) translate(16.850911458333336 77.83506944444446)"/><use xlink:href="#k" transform="matrix(1,0,0,1,332,672) translate(43.478515625 77.83506944444446)"/><use xlink:href="#j" transform="matrix(1,0,0,1,332,672) translate(63.45464409722222 77.83506944444446)"/><use xlink:href="#m" transform="matrix(1,0,0,1,332,672) translate(90.08224826388889 77.83506944444446)"/><path d="M420 844.66c0 22.1-17.9 40-40 40s-40-17.9-40-40 17.9-40 40-40 40 17.9 40 40z" stroke="#3a414a" stroke-width="2"/><use xlink:href="#a" transform="matrix(1,0,0,1,345,809.6640625) translate(30.48068576388889 43.40277777777778)"/><path d="M380 887.66v31a6 6 0 0 1-6 6H266a6 6 0 0 0-6 6v10.26" stroke="#3a414a" stroke-width="4" fill="none"/><path d="M380 885.66l1.98-.06v2.12h-3.96v-2.18z" stroke="#3a414a" stroke-width=".05" fill="#3a414a"/><path d="M260 957.2l-4.63-14.28h9.26z" stroke="#3a414a" stroke-width="4" fill="#3a414a"/><path d="M380 887.66v31a6 6 0 0 0 6 6h108a6 6 0 0 1 6 6v10.26" stroke="#3a414a" stroke-width="4" fill="none"/><path d="M380 885.66l1.98-.06v2.12h-3.96v-2.18z" stroke="#3a414a" stroke-width=".05" fill="#3a414a"/><path d="M500 957.2l-4.63-14.28h9.26z" stroke="#3a414a" stroke-width="4" fill="#3a414a"/><path d="M540 1004.66c0 22.1-17.9 40-40 40s-40-17.9-40-40 17.9-40 40-40 40 17.9 40 40z" stroke="#3a414a" stroke-width="2" fill="#6f7681"/><use xlink:href="#b" transform="matrix(1,0,0,1,465,969.6640625) translate(28.223741319444443 43.40277777777778)"/><path d="M300 1004.66c0 22.1-17.9 40-40 40s-40-17.9-40-40 17.9-40 40-40 40 17.9 40 40z" stroke="#3a414a" stroke-width="2" fill="#1071e5"/><use xlink:href="#d" transform="matrix(1,0,0,1,225,969.6640625) translate(16.483289930555557 43.40277777777778)"/><path d="M150.8 810.66a6 6 0 0 1 6-6H294a6 6 0 0 1 6 6v65.78a6 6 0 0 1-6 6H156.8a6 6 0 0 1-6-6z" stroke="#3a414a" stroke-width="2" fill="#fff"/><use xlink:href="#n" transform="matrix(1,0,0,1,162.79999999999995,816.6640625) translate(8.41015625 35.02777777777778)"/><use xlink:href="#o" transform="matrix(1,0,0,1,162.79999999999995,816.6640625) translate(104.03732638888889 35.02777777777778)"/><path d="M315.4 1066a6 6 0 0 1 6-6h117.2a6 6 0 0 1 6 6v68a6 6 0 0 1-6 6H321.4a6 6 0 0 1-6-6z" stroke="#3a414a" stroke-width="2" fill="#fff"/><g><use xlink:href="#g" transform="matrix(1,0,0,1,327.4,1072) translate(4.188151041666671 25.09027777777778)"/><use xlink:href="#p" transform="matrix(1,0,0,1,327.4,1072) translate(88.25933159722221 25.09027777777778)"/><use xlink:href="#i" transform="matrix(1,0,0,1,327.4,1072) translate(25.265625 51.978298611111114)"/><use xlink:href="#j" transform="matrix(1,0,0,1,327.4,1072) translate(40.55425347222222 51.978298611111114)"/><use xlink:href="#o" transform="matrix(1,0,0,1,327.4,1072) translate(67.18185763888889 51.978298611111114)"/></g><path d="M150.8 226a6 6 0 0 1 6-6H294a6 6 0 0 1 6 6v65.78a6 6 0 0 1-6 6H156.8a6 6 0 0 1-6-6z" stroke="#3a414a" stroke-width="2" fill="#fff"/><g><use xlink:href="#n" transform="matrix(1,0,0,1,162.79999999999995,232) translate(10.667100694444443 35.02777777777778)"/><use xlink:href="#q" transform="matrix(1,0,0,1,162.79999999999995,232) translate(106.29427083333333 35.02777777777778)"/></g><path d="M420 1220c0 22.1-17.9 40-40 40s-40-17.9-40-40 17.9-40 40-40 40 17.9 40 40z" stroke="#3a414a" stroke-width="2" fill="#1071e5"/><g><use xlink:href="#d" transform="matrix(1,0,0,1,345,1185) translate(16.483289930555557 43.40277777777778)"/></g><path d="M150.8 1188.22a6 6 0 0 1 6-6H294a6 6 0 0 1 6 6V1254a6 6 0 0 1-6 6H156.8a6 6 0 0 1-6-6z" stroke="#3a414a" stroke-width="2" fill="#fff"/><g><use xlink:href="#n" transform="matrix(1,0,0,1,162.79999999999995,1194.2239583333333) translate(8.323350694444443 35.02777777777778)"/><use xlink:href="#r" transform="matrix(1,0,0,1,162.79999999999995,1194.2239583333333) translate(103.95052083333333 35.02777777777778)"/></g><path d="M315.4 1313.67a6 6 0 0 1 6-6h117.2a6 6 0 0 1 6 6v92.66a6 6 0 0 1-6 6H321.4a6 6 0 0 1-6-6z" stroke="#3a414a" stroke-width="2" fill="#fff"/><g><use xlink:href="#g" transform="matrix(1,0,0,1,327.4,1319.66796875) translate(3.9548611111111143 34.18402777777778)"/><use xlink:href="#s" transform="matrix(1,0,0,1,327.4,1319.66796875) translate(88.02604166666666 34.18402777777778)"/><use xlink:href="#t" transform="matrix(1,0,0,1,327.4,1319.66796875) translate(2.4683159722222214 61.072048611111114)"/><use xlink:href="#u" transform="matrix(1,0,0,1,327.4,1319.66796875) translate(38.78559027777778 61.072048611111114)"/></g><defs><path fill="#fff" d="M653-1490V0H466v-1314h-10L96-1047v-204l324-239h233" id="v"/><use transform="matrix(0.010850694444444444,0,0,0.010850694444444444,0,0)" xlink:href="#v" id="a"/><path fill="#fff" d="M154 0v-137l495-537c165-179 249-281 249-418 0-156-121-253-280-253-170 0-278 110-278 278H158c0-264 200-443 465-443 266 0 455 183 455 416 0 161-73 288-336 568L416-179v12h687V0H154" id="w"/><use transform="matrix(0.010850694444444444,0,0,0.010850694444444444,0,0)" xlink:href="#w" id="b"/><path fill="#fff" d="M635 20c-292 0-500-160-510-396h192c11 142 145 229 315 229 187 0 323-105 323-260 0-161-125-274-346-274H488v-165h121c174 0 294-100 294-254 0-148-104-245-266-245-152 0-291 85-297 230H157c8-234 222-395 484-395 278 0 448 188 448 400 0 168-95 291-247 336v12c190 31 301 169 301 357 0 244-216 425-508 425" id="x"/><use transform="matrix(0.010850694444444444,0,0,0.010850694444444444,0,0)" xlink:href="#x" id="c"/><path fill="#fff" d="M338-670V0H158v-1118h173l1 207c72-158 192-221 342-221 226 0 378 139 378 422V0H872v-695c0-172-96-275-252-275-161 0-282 109-282 300" id="y"/><path fill="#fff" d="M537 14c-226 0-379-139-379-422v-710h180v695c0 172 97 275 253 275 160 0 281-109 281-300v-670h181V0H879v-209C806-46 684 14 537 14" id="z"/><path fill="#fff" d="M338-1490V0H158v-1490h180" id="A"/><g id="d"><use transform="matrix(0.010850694444444444,0,0,0.010850694444444444,0,0)" xlink:href="#y"/><use transform="matrix(0.010850694444444444,0,0,0.010850694444444444,13.129340277777777,0)" xlink:href="#z"/><use transform="matrix(0.010850694444444444,0,0,0.010850694444444444,26.26953125,0)" xlink:href="#A"/><use transform="matrix(0.010850694444444444,0,0,0.010850694444444444,31.651475694444443,0)" xlink:href="#A"/></g><path fill="#fff" d="M120-303v-155l652-1032h231v1020h202v167h-202V0H821v-303H120zm702-167v-782h-12L323-482v12h499" id="B"/><use transform="matrix(0.010850694444444444,0,0,0.010850694444444444,0,0)" xlink:href="#B" id="e"/><path fill="#fff" d="M626 20c-262 0-458-168-468-396h184c12 133 134 229 284 229 180 0 311-137 311-326 0-192-136-335-323-335-92 0-196 33-255 78l-178-22 88-738h784v167H429l-51 435h8c61-51 160-87 263-87 273 0 474 211 474 499 0 286-210 496-497 496" id="C"/><use transform="matrix(0.010850694444444444,0,0,0.010850694444444444,0,0)" xlink:href="#C" id="f"/><path d="M784 20c-382 0-662-292-662-764 0-473 280-766 662-766s660 293 660 766c0 472-278 764-660 764zm0-176c266 0 475-207 475-588 0-383-209-590-475-590-268 0-477 208-477 590 0 380 209 588 477 588" id="D"/><path d="M537 14c-226 0-379-139-379-422v-710h180v695c0 172 97 275 253 275 160 0 281-109 281-300v-670h181V0H879v-209C806-46 684 14 537 14" id="E"/><path d="M598-1118v154H368v674c0 100 37 144 132 144 23 0 62-6 92-12L629-6c-37 13-88 20-134 20-193 0-307-107-307-290v-688H20v-154h168v-266h180v266h230" id="F"/><path d="M158 418v-1536h174v179h20c37-59 106-193 324-193 279 0 474 222 474 576 0 356-194 580-473 580-213 0-288-135-325-197h-14v591H158zm492-555c209 0 317-186 317-421 0-232-105-413-317-413-206 0-314 166-314 413 0 249 111 421 314 421" id="G"/><path d="M295 13c-75 0-135-60-135-135s60-135 135-135 135 60 135 135S370 13 295 13zm0-809c-75 0-135-60-135-135s60-135 135-135 135 60 135 135-60 135-135 135" id="H"/><g id="g"><use transform="matrix(0.010850694444444444,0,0,0.010850694444444444,0,0)" xlink:href="#D"/><use transform="matrix(0.010850694444444444,0,0,0.010850694444444444,16.9921875,0)" xlink:href="#E"/><use transform="matrix(0.010850694444444444,0,0,0.010850694444444444,30.13237847222222,0)" xlink:href="#F"/><use transform="matrix(0.010850694444444444,0,0,0.010850694444444444,37.40234375,0)" xlink:href="#G"/><use transform="matrix(0.010850694444444444,0,0,0.010850694444444444,51.00911458333333,0)" xlink:href="#E"/><use transform="matrix(0.010850694444444444,0,0,0.010850694444444444,64.14930555555554,0)" xlink:href="#F"/><use transform="matrix(0.010850694444444444,0,0,0.010850694444444444,71.41927083333331,0)" xlink:href="#H"/></g><path d="M635 20c-292 0-500-160-510-396h192c11 142 145 229 315 229 187 0 323-105 323-260 0-161-125-274-346-274H488v-165h121c174 0 294-100 294-254 0-148-104-245-266-245-152 0-291 85-297 230H157c8-234 222-395 484-395 278 0 448 188 448 400 0 168-95 291-247 336v12c190 31 301 169 301 357 0 244-216 425-508 425" id="I"/><use transform="matrix(0.010850694444444444,0,0,0.010850694444444444,0,0)" xlink:href="#I" id="h"/><path d="M653-1490V0H466v-1314h-10L96-1047v-204l324-239h233" id="J"/><use transform="matrix(0.010850694444444444,0,0,0.010850694444444444,0,0)" xlink:href="#J" id="i"/><path d="M613 24c-304 0-509-231-509-576 0-350 205-580 509-580 305 0 511 230 511 580 0 345-206 576-511 576zm0-161c226 0 329-195 329-415 0-222-103-419-329-419-223 0-326 196-326 419 0 220 103 415 326 415" id="K"/><g id="j"><use transform="matrix(0.010850694444444444,0,0,0.010850694444444444,0,0)" xlink:href="#F"/><use transform="matrix(0.010850694444444444,0,0,0.010850694444444444,7.052951388888888,0)" xlink:href="#K"/></g><use transform="matrix(0.010850694444444444,0,0,0.010850694444444444,0,0)" xlink:href="#I" id="k"/><path d="M120-303v-155l652-1032h231v1020h202v167h-202V0H821v-303H120zm702-167v-782h-12L323-482v12h499" id="L"/><use transform="matrix(0.010850694444444444,0,0,0.010850694444444444,0,0)" xlink:href="#L" id="l"/><use transform="matrix(0.010850694444444444,0,0,0.010850694444444444,0,0)" xlink:href="#L" id="m"/><path d="M180 0v-1490h908v168H370v486h669v168H370v500h727V0H180" id="M"/><path d="M65 0l393-574-370-544h210c88 136 192 297 267 435 67-142 176-302 264-435h206L661-564 1053 0H844c-94-144-206-310-287-458C484-308 366-142 273 0H65" id="N"/><path d="M471 26C259 26 90-98 90-318c0-256 228-303 435-329 202-27 287-16 287-108 0-139-79-219-234-219-161 0-248 86-283 164l-173-57c86-203 278-265 451-265 150 0 419 46 419 395V0H815v-152h-12C765-73 660 26 471 26zm31-159c199 0 310-134 310-271v-155c-30 35-226 55-295 64-131 17-246 59-246 186 0 116 97 176 231 176" id="O"/><path d="M158 0v-1118h175l1 205c55-151 181-225 313-225 147 0 245 90 285 228 53-141 190-228 352-228 194 0 352 125 352 384V0h-181v-749c0-161-105-225-225-225-151 0-243 103-243 244V0H807v-767c0-124-93-207-219-207-131 0-250 92-250 270V0H158" id="P"/><path d="M338-1490V0H158v-1490h180" id="Q"/><path d="M628 24c-324 0-524-230-524-574 0-343 198-582 503-582 237 0 487 146 487 559v75H286c9 234 145 362 343 362 132 0 231-58 273-172l174 48C1024-91 857 24 628 24zM287-650h624c-17-190-120-322-304-322-192 0-309 151-320 322" id="R"/><g id="n"><use transform="matrix(0.010850694444444444,0,0,0.010850694444444444,0,0)" xlink:href="#M"/><use transform="matrix(0.010850694444444444,0,0,0.010850694444444444,13.35720486111111,0)" xlink:href="#N"/><use transform="matrix(0.010850694444444444,0,0,0.010850694444444444,25.48828125,0)" xlink:href="#O"/><use transform="matrix(0.010850694444444444,0,0,0.010850694444444444,37.966579861111114,0)" xlink:href="#P"/><use transform="matrix(0.010850694444444444,0,0,0.010850694444444444,57.43272569444444,0)" xlink:href="#G"/><use transform="matrix(0.010850694444444444,0,0,0.010850694444444444,71.03949652777777,0)" xlink:href="#Q"/><use transform="matrix(0.010850694444444444,0,0,0.010850694444444444,76.42144097222221,0)" xlink:href="#R"/></g><path d="M154 0v-137l495-537c165-179 249-281 249-418 0-156-121-253-280-253-170 0-278 110-278 278H158c0-264 200-443 465-443 266 0 455 183 455 416 0 161-73 288-336 568L416-179v12h687V0H154" id="S"/><use transform="matrix(0.010850694444444444,0,0,0.010850694444444444,0,0)" xlink:href="#S" id="o"/><use transform="matrix(0.010850694444444444,0,0,0.010850694444444444,0,0)" xlink:href="#S" id="p"/><use transform="matrix(0.010850694444444444,0,0,0.010850694444444444,0,0)" xlink:href="#J" id="q"/><use transform="matrix(0.010850694444444444,0,0,0.010850694444444444,0,0)" xlink:href="#I" id="r"/><path d="M646 20c-332 0-524-278-524-764 0-483 194-766 524-766s524 283 524 766c0 485-191 764-524 764zm0-166c218 0 341-220 341-598 0-380-123-601-341-601s-341 222-341 601c0 378 123 598 341 598" id="T"/><use transform="matrix(0.010850694444444444,0,0,0.010850694444444444,0,0)" xlink:href="#T" id="s"/><path d="M180 0v-1490h224l606 953c40 63 108 177 176 312-27-437-7-821-13-1265h190V0h-226C860-448 622-778 356-1262c27 476 11 792 15 1262H180" id="U"/><g id="t"><use transform="matrix(0.010850694444444444,0,0,0.010850694444444444,0,0)" xlink:href="#U"/><use transform="matrix(0.010850694444444444,0,0,0.010850694444444444,16.74262152777778,0)" xlink:href="#K"/></g><path d="M338-670V0H158v-1118h173l1 207c72-158 192-221 342-221 226 0 378 139 378 422V0H872v-695c0-172-96-275-252-275-161 0-282 109-282 300" id="V"/><path d="M577 24c-279 0-473-224-473-580 0-354 195-576 474-576 218 0 287 134 324 193h14v-551h180V0H922v-173h-20C865-111 790 24 577 24zm27-161c203 0 314-172 314-421 0-247-108-413-314-413-212 0-317 181-317 413 0 235 108 421 317 421" id="W"/><path d="M538 24C308 24 148-78 108-271l171-41c32 123 123 178 257 178 156 0 256-77 256-169 0-77-54-128-164-154l-186-44c-203-48-300-148-300-305 0-192 176-326 414-326 230 0 351 112 402 269l-163 42c-31-80-94-158-238-158-133 0-233 69-233 162 0 83 57 129 188 160l169 40c203 48 298 149 298 302 0 196-179 339-441 339" id="X"/><g id="u"><use transform="matrix(0.010850694444444444,0,0,0.010850694444444444,0,0)" xlink:href="#V"/><use transform="matrix(0.010850694444444444,0,0,0.010850694444444444,13.129340277777777,0)" xlink:href="#K"/><use transform="matrix(0.010850694444444444,0,0,0.010850694444444444,26.453993055555554,0)" xlink:href="#W"/><use transform="matrix(0.010850694444444444,0,0,0.010850694444444444,40.060763888888886,0)" xlink:href="#R"/><use transform="matrix(0.010850694444444444,0,0,0.010850694444444444,53.01649305555556,0)" xlink:href="#X"/></g></defs></g></svg>