<svg xmlns="http://www.w3.org/2000/svg" xmlns:xlink="http://www.w3.org/1999/xlink" xmlns:lucid="lucid" width="630.6" height="3711.07"><g transform="translate(-72.99999999999989 -29.933333333333394)" lucid:page-tab-id="0_0"><path d="M294 70.93c0 22.1-17.9 40-40 40s-40-17.9-40-40 17.9-40 40-40 40 17.9 40 40z" stroke="#3a414a" stroke-width="2" fill="#1071e5"/><use xlink:href="#a" transform="matrix(1,0,0,1,219,35.933333333333394) translate(30.48068576388889 43.40277777777778)"/><path d="M254 112.43v32.5a6 6 0 0 1-6 6h-68a6 6 0 0 0-6 6v16.62" stroke="#3a414a" fill="none"/><path d="M254 111.93h.47v.52h-.94v-.54z" stroke="#3a414a" stroke-width=".05" fill="#3a414a"/><path d="M174 188.3l-4.63-14.25h9.26z" stroke="#3a414a" fill="#3a414a"/><path d="M214 230.93c0 22.1-17.9 40-40 40s-40-17.9-40-40 17.9-40 40-40 40 17.9 40 40z" stroke="#3a414a" stroke-width="2"/><use xlink:href="#b" transform="matrix(1,0,0,1,139,195.9333333333334) translate(28.223741319444443 43.40277777777778)"/><path d="M254 112.43v32.5a6 6 0 0 0 6 6h68a6 6 0 0 1 6 6v16.62" stroke="#3a414a" fill="none"/><path d="M254 111.93h.47v.52h-.94v-.54z" stroke="#3a414a" stroke-width=".05" fill="#3a414a"/><path d="M334 188.3l-4.63-14.25h9.26z" stroke="#3a414a" fill="#3a414a"/><path d="M374 230.93c0 22.1-17.9 40-40 40s-40-17.9-40-40 17.9-40 40-40 40 17.9 40 40z" stroke="#3a414a" stroke-width="2"/><use xlink:href="#c" transform="matrix(1,0,0,1,299,195.9333333333334) translate(28.13693576388889 43.40277777777778)"/><path d="M174 272.43v32.5a6 6 0 0 1-6 6h-48a6 6 0 0 0-6 6v16.62" stroke="#3a414a" fill="none"/><path d="M174 271.93h.47v.52h-.94v-.54z" stroke="#3a414a" stroke-width=".05" fill="#3a414a"/><path d="M114 348.3l-4.64-14.25h9.28z" stroke="#3a414a" fill="#3a414a"/><path d="M154 390.93c0 22.1-17.9 40-40 40s-40-17.9-40-40 17.9-40 40-40 40 17.9 40 40z" stroke="#3a414a" stroke-width="2"/><use xlink:href="#d" transform="matrix(1,0,0,1,79,355.9333333333334) translate(27.822265625 43.40277777777778)"/><path d="M174 272.43v32.5a6 6 0 0 0 6 6h48a6 6 0 0 1 6 6v16.62" stroke="#3a414a" fill="none"/><path d="M174 271.93h.47v.52h-.94v-.54z" stroke="#3a414a" stroke-width=".05" fill="#3a414a"/><path d="M234 348.3l-4.63-14.25h9.26z" stroke="#3a414a" fill="#3a414a"/><path d="M274 390.93c0 22.1-17.9 40-40 40s-40-17.9-40-40 17.9-40 40-40 40 17.9 40 40z" stroke="#3a414a" stroke-width="2"/><use xlink:href="#e" transform="matrix(1,0,0,1,199,355.9333333333334) translate(28.245442708333336 43.40277777777778)"/><path d="M614 70.93c0 22.1-17.9 40-40 40s-40-17.9-40-40 17.9-40 40-40 40 17.9 40 40z" stroke="#3a414a" stroke-width="2" fill="#1071e5"/><use xlink:href="#b" transform="matrix(1,0,0,1,539,35.933333333333394) translate(28.223741319444443 43.40277777777778)"/><path d="M574 112.43v32.5a6 6 0 0 1-6 6h-68a6 6 0 0 0-6 6v16.62" stroke="#3a414a" fill="none"/><path d="M574 111.93h.48v.52h-.96v-.54z" stroke="#3a414a" stroke-width=".05" fill="#3a414a"/><path d="M494 188.3l-4.63-14.25h9.26z" stroke="#3a414a" fill="#3a414a"/><path d="M534 230.93c0 22.1-17.9 40-40 40s-40-17.9-40-40 17.9-40 40-40 40 17.9 40 40z" stroke="#3a414a" stroke-width="2"/><use xlink:href="#d" transform="matrix(1,0,0,1,459,195.9333333333334) translate(27.822265625 43.40277777777778)"/><path d="M574 112.43v32.5a6 6 0 0 0 6 6h68a6 6 0 0 1 6 6v16.62" stroke="#3a414a" fill="none"/><path d="M574 111.93h.48v.52h-.96v-.54z" stroke="#3a414a" stroke-width=".05" fill="#3a414a"/><path d="M654 188.3l-4.63-14.25h9.26z" stroke="#3a414a" fill="#3a414a"/><path d="M694 230.93c0 22.1-17.9 40-40 40s-40-17.9-40-40 17.9-40 40-40 40 17.9 40 40z" stroke="#3a414a" stroke-width="2"/><use xlink:href="#e" transform="matrix(1,0,0,1,619,195.9333333333334) translate(28.245442708333336 43.40277777777778)"/><path d="M294 520c0 22.1-17.9 40-40 40s-40-17.9-40-40 17.9-40 40-40 40 17.9 40 40z" stroke="#3a414a" stroke-width="2"/><use xlink:href="#a" transform="matrix(1,0,0,1,219,485) translate(30.48068576388889 43.40277777777778)"/><path d="M254 561.5V594a6 6 0 0 1-6 6h-68a6 6 0 0 0-6 6v16.62" stroke="#3a414a" fill="none"/><path d="M254 561l.47-.02v.53h-.94v-.53z" stroke="#3a414a" stroke-width=".05" fill="#3a414a"/><path d="M174 637.38l-4.63-14.26h9.26z" stroke="#3a414a" fill="#3a414a"/><path d="M214 680c0 22.1-17.9 40-40 40s-40-17.9-40-40 17.9-40 40-40 40 17.9 40 40z" stroke="#3a414a" stroke-width="2" fill="#1071e5"/><use xlink:href="#b" transform="matrix(1,0,0,1,139,645) translate(28.223741319444443 43.40277777777778)"/><path d="M614 520c0 22.1-17.9 40-40 40s-40-17.9-40-40 17.9-40 40-40 40 17.9 40 40z" stroke="#3a414a" stroke-width="2" fill="#1071e5"/><use xlink:href="#b" transform="matrix(1,0,0,1,539,485) translate(28.223741319444443 43.40277777777778)"/><path d="M294 800c0 22.1-17.9 40-40 40s-40-17.9-40-40 17.9-40 40-40 40 17.9 40 40z" stroke="#3a414a" stroke-width="2"/><use xlink:href="#a" transform="matrix(1,0,0,1,218.9999999999999,765) translate(30.48068576388889 43.40277777777778)"/><path d="M254 841.5V874a6 6 0 0 1-6 6h-68a6 6 0 0 0-6 6v16.62" stroke="#3a414a" fill="none"/><path d="M254 841l.47-.02v.53h-.94v-.53z" stroke="#3a414a" stroke-width=".05" fill="#3a414a"/><path d="M174 917.38l-4.63-14.26h9.26z" stroke="#3a414a" fill="#3a414a"/><path d="M214 960c0 22.1-17.9 40-40 40s-40-17.9-40-40 17.9-40 40-40 40 17.9 40 40z" stroke="#3a414a" stroke-width="2" fill="#1071e5"/><use xlink:href="#b" transform="matrix(1,0,0,1,138.9999999999999,925) translate(28.223741319444443 43.40277777777778)"/><path d="M174 1001.5v32.5a6 6 0 0 1-6 6h-48a6 6 0 0 0-6 6v16.62" stroke="#3a414a" fill="none"/><path d="M174 1001l.47-.02v.53h-.94v-.53z" stroke="#3a414a" stroke-width=".05" fill="#3a414a"/><path d="M114 1077.38l-4.64-14.27 9.28.02z" stroke="#3a414a" fill="#3a414a"/><path d="M154 1120c0 22.1-17.9 40-40 40s-40-17.9-40-40 17.9-40 40-40 40 17.9 40 40z" stroke="#3a414a" stroke-width="2" fill="#1071e5"/><use xlink:href="#d" transform="matrix(1,0,0,1,78.99999999999989,1085) translate(27.822265625 43.40277777777778)"/><path d="M614 800c0 22.1-17.9 40-40 40s-40-17.9-40-40 17.9-40 40-40 40 17.9 40 40z" stroke="#3a414a" stroke-width="2" fill="#1071e5"/><use xlink:href="#b" transform="matrix(1,0,0,1,539,765) translate(28.223741319444443 43.40277777777778)"/><path d="M574 841.5V874a6 6 0 0 1-6 6h-68a6 6 0 0 0-6 6v16.62" stroke="#3a414a" fill="none"/><path d="M574 841l.48-.02v.53h-.96v-.53z" stroke="#3a414a" stroke-width=".05" fill="#3a414a"/><path d="M494 917.38l-4.63-14.26h9.26z" stroke="#3a414a" fill="#3a414a"/><path d="M534 960c0 22.1-17.9 40-40 40s-40-17.9-40-40 17.9-40 40-40 40 17.9 40 40z" stroke="#3a414a" stroke-width="2" fill="#1071e5"/><use xlink:href="#d" transform="matrix(1,0,0,1,458.9999999999999,925) translate(27.822265625 43.40277777777778)"/><path d="M294 1280c0 22.1-17.9 40-40 40s-40-17.9-40-40 17.9-40 40-40 40 17.9 40 40z" stroke="#3a414a" stroke-width="2"/><use xlink:href="#a" transform="matrix(1,0,0,1,218.9999999999999,1245) translate(30.48068576388889 43.40277777777778)"/><path d="M254 1321.5v32.5a6 6 0 0 1-6 6h-68a6 6 0 0 0-6 6v16.62" stroke="#3a414a" fill="none"/><path d="M254 1321l.47-.02v.53h-.94v-.53z" stroke="#3a414a" stroke-width=".05" fill="#3a414a"/><path d="M174 1397.38l-4.63-14.27 9.26.02z" stroke="#3a414a" fill="#3a414a"/><path d="M214 1440c0 22.1-17.9 40-40 40s-40-17.9-40-40 17.9-40 40-40 40 17.9 40 40z" stroke="#3a414a" stroke-width="2" fill="#1071e5"/><use xlink:href="#b" transform="matrix(1,0,0,1,138.9999999999999,1405) translate(28.223741319444443 43.40277777777778)"/><path d="M174 1481.5v32.5a6 6 0 0 1-6 6h-48a6 6 0 0 0-6 6v16.62" stroke="#3a414a" fill="none"/><path d="M174 1481l.47-.02v.53h-.94v-.53z" stroke="#3a414a" stroke-width=".05" fill="#3a414a"/><path d="M114 1557.38l-4.64-14.27 9.28.02z" stroke="#3a414a" fill="#3a414a"/><path d="M154 1600c0 22.1-17.9 40-40 40s-40-17.9-40-40 17.9-40 40-40 40 17.9 40 40z" stroke="#3a414a" stroke-width="2" fill="#1071e5"/><use xlink:href="#d" transform="matrix(1,0,0,1,78.99999999999989,1565) translate(27.822265625 43.40277777777778)"/><path d="M174 1481.5v32.5a6 6 0 0 0 6 6h48a6 6 0 0 1 6 6v16.62" stroke="#3a414a" fill="none"/><path d="M174 1481l.47-.02v.53h-.94v-.53z" stroke="#3a414a" stroke-width=".05" fill="#3a414a"/><path d="M234 1557.38l-4.63-14.27 9.26.02z" stroke="#3a414a" fill="#3a414a"/><path d="M274 1600c0 22.1-17.9 40-40 40s-40-17.9-40-40 17.9-40 40-40 40 17.9 40 40z" stroke="#3a414a" stroke-width="2" fill="#1071e5"/><use xlink:href="#e" transform="matrix(1,0,0,1,198.9999999999999,1565) translate(28.245442708333336 43.40277777777778)"/><path d="M614 1280c0 22.1-17.9 40-40 40s-40-17.9-40-40 17.9-40 40-40 40 17.9 40 40z" stroke="#3a414a" stroke-width="2" fill="#1071e5"/><use xlink:href="#b" transform="matrix(1,0,0,1,539,1245) translate(28.223741319444443 43.40277777777778)"/><path d="M574 1321.5v32.5a6 6 0 0 1-6 6h-68a6 6 0 0 0-6 6v16.62" stroke="#3a414a" fill="none"/><path d="M574 1321l.48-.02v.53h-.96v-.53z" stroke="#3a414a" stroke-width=".05" fill="#3a414a"/><path d="M494 1397.38l-4.63-14.27 9.26.02z" stroke="#3a414a" fill="#3a414a"/><path d="M534 1440c0 22.1-17.9 40-40 40s-40-17.9-40-40 17.9-40 40-40 40 17.9 40 40z" stroke="#3a414a" stroke-width="2" fill="#1071e5"/><use xlink:href="#d" transform="matrix(1,0,0,1,458.99999999999983,1405) translate(27.822265625 43.40277777777778)"/><path d="M574 1321.5v32.5a6 6 0 0 0 6 6h68a6 6 0 0 1 6 6v16.62" stroke="#3a414a" fill="none"/><path d="M574 1321l.48-.02v.53h-.96v-.53z" stroke="#3a414a" stroke-width=".05" fill="#3a414a"/><path d="M654 1397.38l-4.63-14.27 9.26.02z" stroke="#3a414a" fill="#3a414a"/><path d="M694 1440c0 22.1-17.9 40-40 40s-40-17.9-40-40 17.9-40 40-40 40 17.9 40 40z" stroke="#3a414a" stroke-width="2" fill="#1071e5"/><use xlink:href="#e" transform="matrix(1,0,0,1,618.9999999999999,1405) translate(28.245442708333336 43.40277777777778)"/><path d="M302.6 1800c0 22.1-17.9 40-40 40s-40-17.9-40-40 17.9-40 40-40 40 17.9 40 40z" stroke="#3a414a" stroke-width="2" fill="#1071e5"/><use xlink:href="#a" transform="matrix(1,0,0,1,227.5990853817774,1765) translate(30.48068576388889 43.40277777777778)"/><path d="M262.6 1841.5v32.5a6 6 0 0 1-6 6h-68a6 6 0 0 0-6 6v16.62" stroke="#3a414a" fill="none"/><path d="M262.6 1841l.47-.02v.53h-.95v-.53z" stroke="#3a414a" stroke-width=".05" fill="#3a414a"/><path d="M182.6 1917.38l-4.64-14.27 9.27.02z" stroke="#3a414a" fill="#3a414a"/><path d="M222.6 1960c0 22.1-17.9 40-40 40s-40-17.9-40-40 17.9-40 40-40 40 17.9 40 40z" stroke="#3a414a" stroke-width="2"/><use xlink:href="#b" transform="matrix(1,0,0,1,147.5990853817774,1925) translate(28.223741319444443 43.40277777777778)"/><path d="M262.6 1841.5v32.5a6 6 0 0 0 6 6h68a6 6 0 0 1 6 6v16.62" stroke="#3a414a" fill="none"/><path d="M262.6 1841l.47-.02v.53h-.95v-.53z" stroke="#3a414a" stroke-width=".05" fill="#3a414a"/><path d="M342.6 1917.38l-4.64-14.27 9.27.02z" stroke="#3a414a" fill="#3a414a"/><path d="M382.6 1960c0 22.1-17.9 40-40 40s-40-17.9-40-40 17.9-40 40-40 40 17.9 40 40z" stroke="#3a414a" stroke-width="2"/><use xlink:href="#c" transform="matrix(1,0,0,1,307.5990853817774,1925) translate(28.13693576388889 43.40277777777778)"/><path d="M182.6 2001.5v32.5a6 6 0 0 1-6 6h-48a6 6 0 0 0-6 6v16.6" stroke="#3a414a" fill="none"/><path d="M182.6 2001l.47-.02v.53h-.95v-.53z" stroke="#3a414a" stroke-width=".05" fill="#3a414a"/><path d="M122.6 2077.38l-4.64-14.27h9.27z" stroke="#3a414a" fill="#3a414a"/><path d="M162.6 2120c0 22.1-17.9 40-40 40s-40-17.9-40-40 17.9-40 40-40 40 17.9 40 40z" stroke="#3a414a" stroke-width="2"/><use xlink:href="#d" transform="matrix(1,0,0,1,87.5990853817774,2085) translate(27.822265625 43.40277777777778)"/><path d="M182.6 2001.5v32.5a6 6 0 0 0 6 6h48a6 6 0 0 1 6 6v16.6" stroke="#3a414a" fill="none"/><path d="M182.6 2001l.47-.02v.53h-.95v-.53z" stroke="#3a414a" stroke-width=".05" fill="#3a414a"/><path d="M242.6 2077.38l-4.64-14.27h9.27z" stroke="#3a414a" fill="#3a414a"/><path d="M282.6 2120c0 22.1-17.9 40-40 40s-40-17.9-40-40 17.9-40 40-40 40 17.9 40 40z" stroke="#3a414a" stroke-width="2"/><use xlink:href="#e" transform="matrix(1,0,0,1,207.5990853817774,2085) translate(28.245442708333336 43.40277777777778)"/><path d="M622.6 1800c0 22.1-17.9 40-40 40s-40-17.9-40-40 17.9-40 40-40 40 17.9 40 40z" stroke="#3a414a" stroke-width="2" fill="#1071e5"/><use xlink:href="#a" transform="matrix(1,0,0,1,547.5990853817773,1765) translate(30.48068576388889 43.40277777777778)"/><path d="M582.6 1841.5v32.5a6 6 0 0 1-6 6h-68a6 6 0 0 0-6 6v16.62" stroke="#3a414a" fill="none"/><path d="M582.6 1841l.47-.02v.53h-.95v-.53z" stroke="#3a414a" stroke-width=".05" fill="#3a414a"/><path d="M502.6 1917.38l-4.64-14.27 9.27.02z" stroke="#3a414a" fill="#3a414a"/><path d="M542.6 1960c0 22.1-17.9 40-40 40s-40-17.9-40-40 17.9-40 40-40 40 17.9 40 40z" stroke="#3a414a" stroke-width="2"/><use xlink:href="#b" transform="matrix(1,0,0,1,467.59908538177734,1925) translate(28.223741319444443 43.40277777777778)"/><path d="M582.6 1841.5v32.5a6 6 0 0 0 6 6h68a6 6 0 0 1 6 6v16.62" stroke="#3a414a" fill="none"/><path d="M582.6 1841l.47-.02v.53h-.95v-.53z" stroke="#3a414a" stroke-width=".05" fill="#3a414a"/><path d="M662.6 1917.38l-4.64-14.27 9.27.02z" stroke="#3a414a" fill="#3a414a"/><path d="M702.6 1960c0 22.1-17.9 40-40 40s-40-17.9-40-40 17.9-40 40-40 40 17.9 40 40z" stroke="#3a414a" stroke-width="2"/><use xlink:href="#c" transform="matrix(1,0,0,1,627.5990853817774,1925) translate(28.13693576388889 43.40277777777778)"/><path d="M302.6 2240c0 22.1-17.9 40-40 40s-40-17.9-40-40 17.9-40 40-40 40 17.9 40 40z" stroke="#3a414a" stroke-width="2" fill="#1071e5"/><use xlink:href="#a" transform="matrix(1,0,0,1,227.5990853817775,2205) translate(30.48068576388889 43.40277777777778)"/><path d="M262.6 2281.5v32.5a6 6 0 0 1-6 6h-68a6 6 0 0 0-6 6v16.6" stroke="#3a414a" fill="none"/><path d="M262.6 2281l.47-.02v.53h-.95v-.53z" stroke="#3a414a" stroke-width=".05" fill="#3a414a"/><path d="M182.6 2357.38l-4.64-14.27h9.27z" stroke="#3a414a" fill="#3a414a"/><path d="M222.6 2400c0 22.1-17.9 40-40 40s-40-17.9-40-40 17.9-40 40-40 40 17.9 40 40z" stroke="#3a414a" stroke-width="2" fill="#1071e5"/><use xlink:href="#b" transform="matrix(1,0,0,1,147.5990853817775,2365) translate(28.223741319444443 43.40277777777778)"/><path d="M622.6 2240c0 22.1-17.9 40-40 40s-40-17.9-40-40 17.9-40 40-40 40 17.9 40 40z" stroke="#3a414a" stroke-width="2" fill="#1071e5"/><use xlink:href="#a" transform="matrix(1,0,0,1,547.5990853817774,2205) translate(30.48068576388889 43.40277777777778)"/><path d="M582.6 2281.5v32.5a6 6 0 0 1-6 6h-68a6 6 0 0 0-6 6v16.6" stroke="#3a414a" fill="none"/><path d="M582.6 2281l.47-.02v.53h-.95v-.53z" stroke="#3a414a" stroke-width=".05" fill="#3a414a"/><path d="M502.6 2357.38l-4.64-14.27h9.27z" stroke="#3a414a" fill="#3a414a"/><path d="M542.6 2400c0 22.1-17.9 40-40 40s-40-17.9-40-40 17.9-40 40-40 40 17.9 40 40z" stroke="#3a414a" stroke-width="2" fill="#1071e5"/><use xlink:href="#b" transform="matrix(1,0,0,1,467.59908538177746,2365) translate(28.223741319444443 43.40277777777778)"/><path d="M302.6 2732.6c0 22.1-17.9 40-40 40s-40-17.9-40-40c0-22.08 17.9-40 40-40s40 17.92 40 40z" stroke="#3a414a" stroke-width="2" fill="#1071e5"/><use xlink:href="#a" transform="matrix(1,0,0,1,227.5990853817774,2697.608072916667) translate(30.48068576388889 43.40277777777778)"/><path d="M262.6 2774.1v32.5a6 6 0 0 1-6 6h-68a6 6 0 0 0-6 6v16.62" stroke="#3a414a" fill="none"/><path d="M262.6 2773.6h.47v.52h-.95v-.54z" stroke="#3a414a" stroke-width=".05" fill="#3a414a"/><path d="M182.6 2850l-4.64-14.28h9.27z" stroke="#3a414a" fill="#3a414a"/><path d="M222.6 2892.6c0 22.1-17.9 40-40 40s-40-17.9-40-40c0-22.08 17.9-40 40-40s40 17.92 40 40z" stroke="#3a414a" stroke-width="2" fill="#1071e5"/><use xlink:href="#b" transform="matrix(1,0,0,1,147.5990853817774,2857.6080729166665) translate(28.223741319444443 43.40277777777778)"/><path d="M262.6 2774.1v32.5a6 6 0 0 0 6 6h68a6 6 0 0 1 6 6v16.62" stroke="#3a414a" fill="none"/><path d="M262.6 2773.6h.47v.52h-.95v-.54z" stroke="#3a414a" stroke-width=".05" fill="#3a414a"/><path d="M342.6 2850l-4.64-14.28h9.27z" stroke="#3a414a" fill="#3a414a"/><path d="M382.6 2892.6c0 22.1-17.9 40-40 40s-40-17.9-40-40c0-22.08 17.9-40 40-40s40 17.92 40 40z" stroke="#3a414a" stroke-width="2" fill="#1071e5"/><use xlink:href="#c" transform="matrix(1,0,0,1,307.5990853817774,2857.6080729166665) translate(28.13693576388889 43.40277777777778)"/><path d="M622.6 2732.6c0 22.1-17.9 40-40 40s-40-17.9-40-40c0-22.08 17.9-40 40-40s40 17.92 40 40z" stroke="#3a414a" stroke-width="2" fill="#1071e5"/><use xlink:href="#a" transform="matrix(1,0,0,1,547.5990853817773,2697.608072916667) translate(30.48068576388889 43.40277777777778)"/><path d="M582.6 2774.1v32.5a6 6 0 0 1-6 6h-68a6 6 0 0 0-6 6v16.62" stroke="#3a414a" fill="none"/><path d="M582.6 2773.6h.47v.52h-.95v-.54z" stroke="#3a414a" stroke-width=".05" fill="#3a414a"/><path d="M502.6 2850l-4.64-14.28h9.27z" stroke="#3a414a" fill="#3a414a"/><path d="M542.6 2892.6c0 22.1-17.9 40-40 40s-40-17.9-40-40c0-22.08 17.9-40 40-40s40 17.92 40 40z" stroke="#3a414a" stroke-width="2" fill="#1071e5"/><use xlink:href="#b" transform="matrix(1,0,0,1,467.59908538177734,2857.6080729166665) translate(28.223741319444443 43.40277777777778)"/><path d="M582.6 2774.1v32.5a6 6 0 0 0 6 6h68a6 6 0 0 1 6 6v16.62" stroke="#3a414a" fill="none"/><path d="M582.6 2773.6h.47v.52h-.95v-.54z" stroke="#3a414a" stroke-width=".05" fill="#3a414a"/><path d="M662.6 2850l-4.64-14.28h9.27z" stroke="#3a414a" fill="#3a414a"/><path d="M702.6 2892.6c0 22.1-17.9 40-40 40s-40-17.9-40-40c0-22.08 17.9-40 40-40s40 17.92 40 40z" stroke="#3a414a" stroke-width="2" fill="#1071e5"/><use xlink:href="#c" transform="matrix(1,0,0,1,627.5990853817774,2857.6080729166665) translate(28.13693576388889 43.40277777777778)"/><path d="M302.6 3200c0 22.1-17.9 40-40 40s-40-17.9-40-40 17.9-40 40-40 40 17.9 40 40z" stroke="#3a414a" stroke-width="2" fill="#1071e5"/><use xlink:href="#a" transform="matrix(1,0,0,1,227.5990853817774,3165) translate(30.48068576388889 43.40277777777778)"/><path d="M262.6 3241.5v32.5a6 6 0 0 1-6 6h-68a6 6 0 0 0-6 6v16.6" stroke="#3a414a" fill="none"/><path d="M262.6 3241l.47-.02v.53h-.95v-.53z" stroke="#3a414a" stroke-width=".05" fill="#3a414a"/><path d="M182.6 3317.38l-4.64-14.27h9.27z" stroke="#3a414a" fill="#3a414a"/><path d="M222.6 3360c0 22.1-17.9 40-40 40s-40-17.9-40-40 17.9-40 40-40 40 17.9 40 40z" stroke="#3a414a" stroke-width="2" fill="#1071e5"/><use xlink:href="#b" transform="matrix(1,0,0,1,147.5990853817774,3325) translate(28.223741319444443 43.40277777777778)"/><path d="M262.6 3241.5v32.5a6 6 0 0 0 6 6h68a6 6 0 0 1 6 6v16.6" stroke="#3a414a" fill="none"/><path d="M262.6 3241l.47-.02v.53h-.95v-.53z" stroke="#3a414a" stroke-width=".05" fill="#3a414a"/><path d="M342.6 3317.38l-4.64-14.27h9.27z" stroke="#3a414a" fill="#3a414a"/><path d="M382.6 3360c0 22.1-17.9 40-40 40s-40-17.9-40-40 17.9-40 40-40 40 17.9 40 40z" stroke="#3a414a" stroke-width="2" fill="#1071e5"/><use xlink:href="#c" transform="matrix(1,0,0,1,307.5990853817774,3325) translate(28.13693576388889 43.40277777777778)"/><path d="M182.6 3401.5v32.5a6 6 0 0 1-6 6h-48a6 6 0 0 0-6 6v16.6" stroke="#3a414a" fill="none"/><path d="M182.6 3401l.47-.02v.53h-.95v-.53z" stroke="#3a414a" stroke-width=".05" fill="#3a414a"/><path d="M122.6 3477.38l-4.64-14.27h9.27z" stroke="#3a414a" fill="#3a414a"/><path d="M162.6 3520c0 22.1-17.9 40-40 40s-40-17.9-40-40 17.9-40 40-40 40 17.9 40 40z" stroke="#3a414a" stroke-width="2"/><use xlink:href="#d" transform="matrix(1,0,0,1,87.5990853817774,3485) translate(27.822265625 43.40277777777778)"/><path d="M182.6 3401.5v32.5a6 6 0 0 0 6 6h48a6 6 0 0 1 6 6v16.6" stroke="#3a414a" fill="none"/><path d="M182.6 3401l.47-.02v.53h-.95v-.53z" stroke="#3a414a" stroke-width=".05" fill="#3a414a"/><path d="M242.6 3477.38l-4.64-14.27h9.27z" stroke="#3a414a" fill="#3a414a"/><path d="M282.6 3520c0 22.1-17.9 40-40 40s-40-17.9-40-40 17.9-40 40-40 40 17.9 40 40z" stroke="#3a414a" stroke-width="2"/><use xlink:href="#e" transform="matrix(1,0,0,1,207.5990853817774,3485) translate(28.245442708333336 43.40277777777778)"/><path d="M622.6 3200c0 22.1-17.9 40-40 40s-40-17.9-40-40 17.9-40 40-40 40 17.9 40 40z" stroke="#3a414a" stroke-width="2" fill="#1071e5"/><use xlink:href="#a" transform="matrix(1,0,0,1,547.5990853817773,3165) translate(30.48068576388889 43.40277777777778)"/><path d="M582.6 3241.5v32.5a6 6 0 0 1-6 6h-68a6 6 0 0 0-6 6v16.6" stroke="#3a414a" fill="none"/><path d="M582.6 3241l.47-.02v.53h-.95v-.53z" stroke="#3a414a" stroke-width=".05" fill="#3a414a"/><path d="M502.6 3317.38l-4.64-14.27h9.27z" stroke="#3a414a" fill="#3a414a"/><path d="M542.6 3360c0 22.1-17.9 40-40 40s-40-17.9-40-40 17.9-40 40-40 40 17.9 40 40z" stroke="#3a414a" stroke-width="2" fill="#1071e5"/><use xlink:href="#b" transform="matrix(1,0,0,1,467.59908538177734,3325) translate(28.223741319444443 43.40277777777778)"/><path d="M582.6 3241.5v32.5a6 6 0 0 0 6 6h68a6 6 0 0 1 6 6v16.6" stroke="#3a414a" fill="none"/><path d="M582.6 3241l.47-.02v.53h-.95v-.53z" stroke="#3a414a" stroke-width=".05" fill="#3a414a"/><path d="M662.6 3317.38l-4.64-14.27h9.27z" stroke="#3a414a" fill="#3a414a"/><path d="M702.6 3360c0 22.1-17.9 40-40 40s-40-17.9-40-40 17.9-40 40-40 40 17.9 40 40z" stroke="#3a414a" stroke-width="2" fill="#1071e5"/><use xlink:href="#c" transform="matrix(1,0,0,1,627.5990853817774,3325) translate(28.13693576388889 43.40277777777778)"/><path d="M502.6 3401.5v32.5a6 6 0 0 1-6 6h-62a6 6 0 0 0-6 6v16.6" stroke="#3a414a" fill="none"/><path d="M502.6 3401l.47-.02v.53h-.95v-.53z" stroke="#3a414a" stroke-width=".05" fill="#3a414a"/><path d="M428.6 3477.38l-4.64-14.27h9.27z" stroke="#3a414a" fill="#3a414a"/><path d="M468.6 3520c0 22.1-17.9 40-40 40s-40-17.9-40-40 17.9-40 40-40 40 17.9 40 40z" stroke="#3a414a" stroke-width="2" fill="#e81313"/><use xlink:href="#f" transform="matrix(1,0,0,1,393.5990853817774,3485) translate(16.483289930555557 43.40277777777778)"/><path d="M502.6 3401.5v32.5a6 6 0 0 0 6 6h68a6 6 0 0 1 6 6v16.6" stroke="#3a414a" fill="none"/><path d="M502.6 3401l.47-.02v.53h-.95v-.53z" stroke="#3a414a" stroke-width=".05" fill="#3a414a"/><path d="M582.6 3477.38l-4.64-14.27h9.27z" stroke="#3a414a" fill="#3a414a"/><path d="M622.6 3520c0 22.1-17.9 40-40 40s-40-17.9-40-40 17.9-40 40-40 40 17.9 40 40z" stroke="#3a414a" stroke-width="2" fill="#e81313"/><use xlink:href="#f" transform="matrix(1,0,0,1,547.5990853817772,3485) translate(16.483289930555557 43.40277777777778)"/><path d="M340 326a6 6 0 0 1 6-6h242.85a6 6 0 0 1 6 6v88a6 6 0 0 1-6 6H346a6 6 0 0 1-6-6z" stroke="#3a414a" stroke-width="2" fill="#fff"/><use xlink:href="#g" transform="matrix(1,0,0,1,345,325) translate(7.7267795138889 27.15277777777778)"/><use xlink:href="#h" transform="matrix(1,0,0,1,345,325) translate(64.07443576388889 27.15277777777778)"/><use xlink:href="#i" transform="matrix(1,0,0,1,345,325) translate(90.07269965277779 27.15277777777778)"/><use xlink:href="#j" transform="matrix(1,0,0,1,345,325) translate(129.68858506944446 27.15277777777778)"/><use xlink:href="#k" transform="matrix(1,0,0,1,345,325) translate(177.85481770833331 27.15277777777778)"/><use xlink:href="#l" transform="matrix(1,0,0,1,345,325) translate(18.946397569444457 54.040798611111114)"/><use xlink:href="#i" transform="matrix(1,0,0,1,345,325) translate(54.55837673611112 54.040798611111114)"/><use xlink:href="#m" transform="matrix(1,0,0,1,345,325) translate(94.17426215277779 54.040798611111114)"/><use xlink:href="#n" transform="matrix(1,0,0,1,345,325) translate(168.49066840277777 54.040798611111114)"/><use xlink:href="#o" transform="matrix(1,0,0,1,345,325) translate(39.06358506944446 80.92881944444446)"/><use xlink:href="#p" transform="matrix(1,0,0,1,345,325) translate(96.80013020833334 80.92881944444446)"/><use xlink:href="#q" transform="matrix(1,0,0,1,345,325) translate(169.46723090277777 80.92881944444446)"/><path d="M320 606a6 6 0 0 1 6-6h242.85a6 6 0 0 1 6 6v88a6 6 0 0 1-6 6H326a6 6 0 0 1-6-6z" stroke="#3a414a" stroke-width="2" fill="#fff"/><use xlink:href="#r" transform="matrix(1,0,0,1,325.00000000000006,605) translate(13.325737847222229 27.15277777777778)"/><use xlink:href="#i" transform="matrix(1,0,0,1,325.00000000000006,605) translate(93.31705729166667 27.15277777777778)"/><use xlink:href="#s" transform="matrix(1,0,0,1,325.00000000000006,605) translate(132.93294270833334 27.15277777777778)"/><use xlink:href="#k" transform="matrix(1,0,0,1,325.00000000000006,605) translate(172.255859375 27.15277777777778)"/><use xlink:href="#t" transform="matrix(1,0,0,1,325.00000000000006,605) translate(34.310980902777786 54.040798611111114)"/><use xlink:href="#u" transform="matrix(1,0,0,1,325.00000000000006,605) translate(94.60828993055556 54.040798611111114)"/><use xlink:href="#v" transform="matrix(1,0,0,1,325.00000000000006,605) translate(113.51019965277779 54.040798611111114)"/><use xlink:href="#w" transform="matrix(1,0,0,1,325.00000000000006,605) translate(177.32313368055554 54.040798611111114)"/><use xlink:href="#x" transform="matrix(1,0,0,1,325.00000000000006,605) translate(18.64257812500003 80.92881944444446)"/><use xlink:href="#y" transform="matrix(1,0,0,1,325.00000000000006,605) translate(111.26410590277779 80.92881944444446)"/><use xlink:href="#z" transform="matrix(1,0,0,1,325.00000000000006,605) translate(181.89127604166666 80.92881944444446)"/><path d="M265.2 1037.22a6 6 0 0 1 6-6H514a6 6 0 0 1 6 6V1154a6 6 0 0 1-6 6H271.2a6 6 0 0 1-6-6z" stroke="#3a414a" stroke-width="2" fill="#fff"/><g><use xlink:href="#r" transform="matrix(1,0,0,1,270.1981707635548,1036.2239583333333) translate(3.5275607638889 28.96527777777778)"/><use xlink:href="#i" transform="matrix(1,0,0,1,270.1981707635548,1036.2239583333333) translate(83.51888020833334 28.96527777777778)"/><use xlink:href="#s" transform="matrix(1,0,0,1,270.1981707635548,1036.2239583333333) translate(123.13476562500001 28.96527777777778)"/><use xlink:href="#A" transform="matrix(1,0,0,1,270.1981707635548,1036.2239583333333) translate(162.45768229166669 28.96527777777778)"/><use xlink:href="#B" transform="matrix(1,0,0,1,270.1981707635548,1036.2239583333333) translate(221.72417534722223 28.96527777777778)"/><use xlink:href="#C" transform="matrix(1,0,0,1,270.1981707635548,1036.2239583333333) translate(20.55230034722223 55.853298611111114)"/><use xlink:href="#t" transform="matrix(1,0,0,1,270.1981707635548,1036.2239583333333) translate(46.75672743055556 55.853298611111114)"/><use xlink:href="#i" transform="matrix(1,0,0,1,270.1981707635548,1036.2239583333333) translate(107.05403645833333 55.853298611111114)"/><use xlink:href="#A" transform="matrix(1,0,0,1,270.1981707635548,1036.2239583333333) translate(146.669921875 55.853298611111114)"/><use xlink:href="#D" transform="matrix(1,0,0,1,270.1981707635548,1036.2239583333333) translate(205.93641493055554 55.853298611111114)"/><use xlink:href="#j" transform="matrix(1,0,0,1,270.1981707635548,1036.2239583333333) translate(32.49891493055557 82.74131944444446)"/><use xlink:href="#E" transform="matrix(1,0,0,1,270.1981707635548,1036.2239583333333) translate(80.66514756944446 82.74131944444446)"/><use xlink:href="#F" transform="matrix(1,0,0,1,270.1981707635548,1036.2239583333333) translate(126.12955729166667 82.74131944444446)"/><use xlink:href="#G" transform="matrix(1,0,0,1,270.1981707635548,1036.2239583333333) translate(62.680121527777786 109.62934027777777)"/><use xlink:href="#z" transform="matrix(1,0,0,1,270.1981707635548,1036.2239583333333) translate(137.85373263888889 109.62934027777777)"/></g><path d="M363.97 1513.4a6 6 0 0 1 6-6H634a6 6 0 0 1 6 6V1634a6 6 0 0 1-6 6H369.97a6 6 0 0 1-6-6z" stroke="#3a414a" stroke-width="2" fill="#fff"/><g><use xlink:href="#r" transform="matrix(1,0,0,1,368.9733051927037,1512.3919270833333) translate(6.997178819444457 29.21527777777778)"/><use xlink:href="#i" transform="matrix(1,0,0,1,368.9733051927037,1512.3919270833333) translate(86.9884982638889 29.21527777777778)"/><use xlink:href="#H" transform="matrix(1,0,0,1,368.9733051927037,1512.3919270833333) translate(126.60438368055557 29.21527777777778)"/><use xlink:href="#A" transform="matrix(1,0,0,1,368.9733051927037,1512.3919270833333) translate(180.98806423611111 29.21527777777778)"/><use xlink:href="#B" transform="matrix(1,0,0,1,368.9733051927037,1512.3919270833333) translate(240.25455729166666 29.21527777777778)"/><use xlink:href="#C" transform="matrix(1,0,0,1,368.9733051927037,1512.3919270833333) translate(7.469184027777786 56.103298611111114)"/><use xlink:href="#t" transform="matrix(1,0,0,1,368.9733051927037,1512.3919270833333) translate(33.673611111111114 56.103298611111114)"/><use xlink:href="#i" transform="matrix(1,0,0,1,368.9733051927037,1512.3919270833333) translate(93.97092013888889 56.103298611111114)"/><use xlink:href="#A" transform="matrix(1,0,0,1,368.9733051927037,1512.3919270833333) translate(133.58680555555554 56.103298611111114)"/><use xlink:href="#I" transform="matrix(1,0,0,1,368.9733051927037,1512.3919270833333) translate(192.8532986111111 56.103298611111114)"/><use xlink:href="#J" transform="matrix(1,0,0,1,368.9733051927037,1512.3919270833333) translate(217.61458333333331 56.103298611111114)"/><use xlink:href="#E" transform="matrix(1,0,0,1,368.9733051927037,1512.3919270833333) translate(4.6371527777778 82.99131944444446)"/><use xlink:href="#x" transform="matrix(1,0,0,1,368.9733051927037,1512.3919270833333) translate(50.101562500000014 82.99131944444446)"/><use xlink:href="#G" transform="matrix(1,0,0,1,368.9733051927037,1512.3919270833333) translate(142.72309027777777 82.99131944444446)"/><use xlink:href="#K" transform="matrix(1,0,0,1,368.9733051927037,1512.3919270833333) translate(217.89670138888889 82.99131944444446)"/><use xlink:href="#L" transform="matrix(1,0,0,1,368.9733051927037,1512.3919270833333) translate(68.80815972222223 109.87934027777777)"/><use xlink:href="#M" transform="matrix(1,0,0,1,368.9733051927037,1512.3919270833333) translate(144.2421875 109.87934027777777)"/></g><path d="M374 2046a6 6 0 0 1 6-6h274a6 6 0 0 1 6 6v88a6 6 0 0 1-6 6H380a6 6 0 0 1-6-6z" stroke="#3a414a" stroke-width="2" fill="#fff"/><g><use xlink:href="#g" transform="matrix(1,0,0,1,379,2045) translate(5.420789930555571 27.21527777777778)"/><use xlink:href="#h" transform="matrix(1,0,0,1,379,2045) translate(61.768446180555564 27.21527777777778)"/><use xlink:href="#i" transform="matrix(1,0,0,1,379,2045) translate(87.76671006944446 27.21527777777778)"/><use xlink:href="#j" transform="matrix(1,0,0,1,379,2045) translate(127.38259548611111 27.21527777777778)"/><use xlink:href="#N" transform="matrix(1,0,0,1,379,2045) translate(175.548828125 27.21527777777778)"/><use xlink:href="#O" transform="matrix(1,0,0,1,379,2045) translate(241.21723090277777 27.21527777777778)"/><use xlink:href="#i" transform="matrix(1,0,0,1,379,2045) translate(29.248914930555557 54.103298611111114)"/><use xlink:href="#P" transform="matrix(1,0,0,1,379,2045) translate(68.86480034722223 54.103298611111114)"/><use xlink:href="#v" transform="matrix(1,0,0,1,379,2045) translate(131.45160590277777 54.103298611111114)"/><use xlink:href="#Q" transform="matrix(1,0,0,1,379,2045) translate(195.26453993055554 54.103298611111114)"/><use xlink:href="#p" transform="matrix(1,0,0,1,379,2045) translate(79.43337673611111 80.99131944444446)"/><use xlink:href="#z" transform="matrix(1,0,0,1,379,2045) translate(152.10047743055554 80.99131944444446)"/></g><path d="M274 2506a6 6 0 0 1 6-6h264.03a6 6 0 0 1 6 6v120.6a6 6 0 0 1-6 6H280a6 6 0 0 1-6-6z" stroke="#3a414a" stroke-width="2" fill="#fff"/><g><use xlink:href="#r" transform="matrix(1,0,0,1,279,2505) translate(3.6822916666666856 29.21527777777778)"/><use xlink:href="#i" transform="matrix(1,0,0,1,279,2505) translate(83.67361111111113 29.21527777777778)"/><use xlink:href="#s" transform="matrix(1,0,0,1,279,2505) translate(123.2894965277778 29.21527777777778)"/><use xlink:href="#A" transform="matrix(1,0,0,1,279,2505) translate(162.61241319444446 29.21527777777778)"/><use xlink:href="#h" transform="matrix(1,0,0,1,279,2505) translate(221.87890625 29.21527777777778)"/><use xlink:href="#R" transform="matrix(1,0,0,1,279,2505) translate(247.87717013888889 29.21527777777778)"/><use xlink:href="#t" transform="matrix(1,0,0,1,279,2505) translate(20.571397569444457 56.103298611111114)"/><use xlink:href="#i" transform="matrix(1,0,0,1,279,2505) translate(80.86870659722223 56.103298611111114)"/><use xlink:href="#A" transform="matrix(1,0,0,1,279,2505) translate(120.48459201388889 56.103298611111114)"/><use xlink:href="#I" transform="matrix(1,0,0,1,279,2505) translate(179.75108506944443 56.103298611111114)"/><use xlink:href="#J" transform="matrix(1,0,0,1,279,2505) translate(204.51236979166666 56.103298611111114)"/><use xlink:href="#E" transform="matrix(1,0,0,1,279,2505) translate(4.6371527777778 82.99131944444446)"/><use xlink:href="#x" transform="matrix(1,0,0,1,279,2505) translate(50.101562500000014 82.99131944444446)"/><use xlink:href="#G" transform="matrix(1,0,0,1,279,2505) translate(142.72309027777777 82.99131944444446)"/><use xlink:href="#K" transform="matrix(1,0,0,1,279,2505) translate(217.89670138888889 82.99131944444446)"/><use xlink:href="#L" transform="matrix(1,0,0,1,279,2505) translate(68.80815972222223 109.87934027777777)"/><use xlink:href="#M" transform="matrix(1,0,0,1,279,2505) translate(144.2421875 109.87934027777777)"/></g><path d="M294 2986a6 6 0 0 1 6-6h264.03a6 6 0 0 1 6 6v120.6a6 6 0 0 1-6 6H300a6 6 0 0 1-6-6z" stroke="#3a414a" stroke-width="2" fill="#fff"/><g><use xlink:href="#r" transform="matrix(1,0,0,1,299,2985) translate(6.997178819444457 29.21527777777778)"/><use xlink:href="#i" transform="matrix(1,0,0,1,299,2985) translate(86.9884982638889 29.21527777777778)"/><use xlink:href="#H" transform="matrix(1,0,0,1,299,2985) translate(126.60438368055557 29.21527777777778)"/><use xlink:href="#A" transform="matrix(1,0,0,1,299,2985) translate(180.98806423611111 29.21527777777778)"/><use xlink:href="#B" transform="matrix(1,0,0,1,299,2985) translate(240.25455729166666 29.21527777777778)"/><use xlink:href="#S" transform="matrix(1,0,0,1,299,2985) translate(9.726128472222229 56.103298611111114)"/><use xlink:href="#t" transform="matrix(1,0,0,1,299,2985) translate(31.41666666666667 56.103298611111114)"/><use xlink:href="#i" transform="matrix(1,0,0,1,299,2985) translate(91.71397569444444 56.103298611111114)"/><use xlink:href="#A" transform="matrix(1,0,0,1,299,2985) translate(131.32986111111111 56.103298611111114)"/><use xlink:href="#I" transform="matrix(1,0,0,1,299,2985) translate(190.59635416666666 56.103298611111114)"/><use xlink:href="#J" transform="matrix(1,0,0,1,299,2985) translate(215.35763888888889 56.103298611111114)"/><use xlink:href="#E" transform="matrix(1,0,0,1,299,2985) translate(4.6371527777778 82.99131944444446)"/><use xlink:href="#x" transform="matrix(1,0,0,1,299,2985) translate(50.101562500000014 82.99131944444446)"/><use xlink:href="#G" transform="matrix(1,0,0,1,299,2985) translate(142.72309027777777 82.99131944444446)"/><use xlink:href="#K" transform="matrix(1,0,0,1,299,2985) translate(217.89670138888889 82.99131944444446)"/><use xlink:href="#L" transform="matrix(1,0,0,1,299,2985) translate(68.80815972222223 109.87934027777777)"/><use xlink:href="#M" transform="matrix(1,0,0,1,299,2985) translate(144.2421875 109.87934027777777)"/></g><path d="M282.13 3620.08a6 6 0 0 1 6-6h318.6a6 6 0 0 1 6 6V3734a6 6 0 0 1-6 6h-318.6a6 6 0 0 1-6-6z" stroke="#3a414a" stroke-width="2" fill="#fff"/><g><use xlink:href="#T" transform="matrix(1,0,0,1,287.13336850912003,3619.0839843749995) translate(11.671875000000028 25.15277777777778)"/><use xlink:href="#U" transform="matrix(1,0,0,1,287.13336850912003,3619.0839843749995) translate(86.29210069444447 25.15277777777778)"/><use xlink:href="#i" transform="matrix(1,0,0,1,287.13336850912003,3619.0839843749995) translate(136.7912326388889 25.15277777777778)"/><use xlink:href="#s" transform="matrix(1,0,0,1,287.13336850912003,3619.0839843749995) translate(176.40711805555557 25.15277777777778)"/><use xlink:href="#E" transform="matrix(1,0,0,1,287.13336850912003,3619.0839843749995) translate(215.73003472222223 25.15277777777778)"/><use xlink:href="#V" transform="matrix(1,0,0,1,287.13336850912003,3619.0839843749995) translate(261.19444444444446 25.15277777777778)"/><use xlink:href="#W" transform="matrix(1,0,0,1,287.13336850912003,3619.0839843749995) translate(14.102430555555543 52.040798611111114)"/><use xlink:href="#X" transform="matrix(1,0,0,1,287.13336850912003,3619.0839843749995) translate(118.45355902777777 52.040798611111114)"/><use xlink:href="#Y" transform="matrix(1,0,0,1,287.13336850912003,3619.0839843749995) translate(146.25303819444443 52.040798611111114)"/><use xlink:href="#Z" transform="matrix(1,0,0,1,287.13336850912003,3619.0839843749995) translate(166.05555555555554 52.040798611111114)"/><use xlink:href="#aa" transform="matrix(1,0,0,1,287.13336850912003,3619.0839843749995) translate(222.609375 52.040798611111114)"/><use xlink:href="#ab" transform="matrix(1,0,0,1,287.13336850912003,3619.0839843749995) translate(4.8793402777778 78.92881944444446)"/><use xlink:href="#ac" transform="matrix(1,0,0,1,287.13336850912003,3619.0839843749995) translate(40.393663194444464 78.92881944444446)"/><use xlink:href="#ad" transform="matrix(1,0,0,1,287.13336850912003,3619.0839843749995) translate(94.96180555555557 78.92881944444446)"/><use xlink:href="#ab" transform="matrix(1,0,0,1,287.13336850912003,3619.0839843749995) translate(136.16189236111111 78.92881944444446)"/><use xlink:href="#ae" transform="matrix(1,0,0,1,287.13336850912003,3619.0839843749995) translate(171.67621527777777 78.92881944444446)"/><use xlink:href="#af" transform="matrix(1,0,0,1,287.13336850912003,3619.0839843749995) translate(270.6996527777777 78.92881944444446)"/><use xlink:href="#ag" transform="matrix(1,0,0,1,287.13336850912003,3619.0839843749995) translate(58.69878472222223 105.81684027777777)"/><use xlink:href="#L" transform="matrix(1,0,0,1,287.13336850912003,3619.0839843749995) translate(125.34375 105.81684027777777)"/><use xlink:href="#ah" transform="matrix(1,0,0,1,287.13336850912003,3619.0839843749995) translate(200.77777777777777 105.81684027777777)"/></g><path d="M359.5 1774.8a6 6 0 0 1 6-6h126.2a6 6 0 0 1 6 6v50.4a6 6 0 0 1-6 6H365.5a6 6 0 0 1-6-6z" stroke="#3a414a" stroke-width="2" fill="#fff"/><g><use xlink:href="#ai" transform="matrix(1,0,0,1,364.49954269088875,1773.7999999999997) translate(9.91015625 34.77777777777778)"/><use xlink:href="#aj" transform="matrix(1,0,0,1,364.49954269088875,1773.7999999999997) translate(105.53732638888889 34.77777777777778)"/></g><path d="M344.9 45.73a6 6 0 0 1 6-6h126.2a6 6 0 0 1 6 6v50.4a6 6 0 0 1-6 6H350.9a6 6 0 0 1-6-6z" stroke="#3a414a" stroke-width="2" fill="#fff"/><g><use xlink:href="#ai" transform="matrix(1,0,0,1,349.90045730911135,44.73333333333301) translate(12.167100694444443 34.77777777777778)"/><use xlink:href="#ak" transform="matrix(1,0,0,1,349.90045730911135,44.73333333333301) translate(107.79427083333333 34.77777777777778)"/></g><defs><path fill="#fff" d="M653-1490V0H466v-1314h-10L96-1047v-204l324-239h233" id="al"/><use transform="matrix(0.010850694444444444,0,0,0.010850694444444444,0,0)" xlink:href="#al" id="a"/><path fill="#fff" d="M154 0v-137l495-537c165-179 249-281 249-418 0-156-121-253-280-253-170 0-278 110-278 278H158c0-264 200-443 465-443 266 0 455 183 455 416 0 161-73 288-336 568L416-179v12h687V0H154" id="am"/><use transform="matrix(0.010850694444444444,0,0,0.010850694444444444,0,0)" xlink:href="#am" id="b"/><path fill="#fff" d="M635 20c-292 0-500-160-510-396h192c11 142 145 229 315 229 187 0 323-105 323-260 0-161-125-274-346-274H488v-165h121c174 0 294-100 294-254 0-148-104-245-266-245-152 0-291 85-297 230H157c8-234 222-395 484-395 278 0 448 188 448 400 0 168-95 291-247 336v12c190 31 301 169 301 357 0 244-216 425-508 425" id="an"/><use transform="matrix(0.010850694444444444,0,0,0.010850694444444444,0,0)" xlink:href="#an" id="c"/><path fill="#fff" d="M120-303v-155l652-1032h231v1020h202v167h-202V0H821v-303H120zm702-167v-782h-12L323-482v12h499" id="ao"/><use transform="matrix(0.010850694444444444,0,0,0.010850694444444444,0,0)" xlink:href="#ao" id="d"/><path fill="#fff" d="M626 20c-262 0-458-168-468-396h184c12 133 134 229 284 229 180 0 311-137 311-326 0-192-136-335-323-335-92 0-196 33-255 78l-178-22 88-738h784v167H429l-51 435h8c61-51 160-87 263-87 273 0 474 211 474 499 0 286-210 496-497 496" id="ap"/><use transform="matrix(0.010850694444444444,0,0,0.010850694444444444,0,0)" xlink:href="#ap" id="e"/><path fill="#fff" d="M338-670V0H158v-1118h173l1 207c72-158 192-221 342-221 226 0 378 139 378 422V0H872v-695c0-172-96-275-252-275-161 0-282 109-282 300" id="aq"/><path fill="#fff" d="M537 14c-226 0-379-139-379-422v-710h180v695c0 172 97 275 253 275 160 0 281-109 281-300v-670h181V0H879v-209C806-46 684 14 537 14" id="ar"/><path fill="#fff" d="M338-1490V0H158v-1490h180" id="as"/><g id="f"><use transform="matrix(0.010850694444444444,0,0,0.010850694444444444,0,0)" xlink:href="#aq"/><use transform="matrix(0.010850694444444444,0,0,0.010850694444444444,13.129340277777777,0)" xlink:href="#ar"/><use transform="matrix(0.010850694444444444,0,0,0.010850694444444444,26.26953125,0)" xlink:href="#as"/><use transform="matrix(0.010850694444444444,0,0,0.010850694444444444,31.651475694444443,0)" xlink:href="#as"/></g><path d="M657 26c-323 0-524-166-541-416h195c15 169 171 246 346 246 202 0 356-106 356-265 5-203-294-238-475-293-239-73-380-191-380-389 0-252 224-419 512-419 294 0 499 171 508 396H992c-17-145-151-228-328-228-193 0-321 102-321 242 0 156 175 211 284 241l149 41c160 44 422 134 422 412 0 244-197 432-541 432" id="at"/><path d="M598-1118v154H368v674c0 100 37 144 132 144 23 0 62-6 92-12L629-6c-37 13-88 20-134 20-193 0-307-107-307-290v-688H20v-154h168v-266h180v266h230" id="au"/><path d="M471 26C259 26 90-98 90-318c0-256 228-303 435-329 202-27 287-16 287-108 0-139-79-219-234-219-161 0-248 86-283 164l-173-57c86-203 278-265 451-265 150 0 419 46 419 395V0H815v-152h-12C765-73 660 26 471 26zm31-159c199 0 310-134 310-271v-155c-30 35-226 55-295 64-131 17-246 59-246 186 0 116 97 176 231 176" id="av"/><path d="M158 0v-1118h174v172h12c41-113 157-188 290-188 26 0 70 2 91 3v181c-11-2-60-10-108-10-161 0-279 109-279 260V0H158" id="aw"/><g id="g"><use transform="matrix(0.010850694444444444,0,0,0.010850694444444444,0,0)" xlink:href="#at"/><use transform="matrix(0.010850694444444444,0,0,0.010850694444444444,14.2578125,0)" xlink:href="#au"/><use transform="matrix(0.010850694444444444,0,0,0.010850694444444444,21.63628472222222,0)" xlink:href="#av"/><use transform="matrix(0.010850694444444444,0,0,0.010850694444444444,34.11458333333333,0)" xlink:href="#aw"/><use transform="matrix(0.010850694444444444,0,0,0.010850694444444444,42.827690972222214,0)" xlink:href="#au"/></g><g id="h"><use transform="matrix(0.010850694444444444,0,0,0.010850694444444444,0,0)" xlink:href="#av"/><use transform="matrix(0.010850694444444444,0,0,0.010850694444444444,12.47829861111111,0)" xlink:href="#au"/></g><path d="M338-670V0H158v-1490h180v566c73-149 190-208 336-208 226 0 379 139 379 422V0H872v-695c0-172-96-275-252-275-161 0-282 109-282 300" id="ax"/><path d="M628 24c-324 0-524-230-524-574 0-343 198-582 503-582 237 0 487 146 487 559v75H286c9 234 145 362 343 362 132 0 231-58 273-172l174 48C1024-91 857 24 628 24zM287-650h624c-17-190-120-322-304-322-192 0-309 151-320 322" id="ay"/><g id="i"><use transform="matrix(0.010850694444444444,0,0,0.010850694444444444,0,0)" xlink:href="#au"/><use transform="matrix(0.010850694444444444,0,0,0.010850694444444444,7.269965277777778,0)" xlink:href="#ax"/><use transform="matrix(0.010850694444444444,0,0,0.010850694444444444,20.41015625,0)" xlink:href="#ay"/></g><path d="M613 24c-304 0-509-231-509-576 0-350 205-580 509-580 305 0 511 230 511 580 0 345-206 576-511 576zm0-161c226 0 329-195 329-415 0-222-103-419-329-419-223 0-326 196-326 419 0 220 103 415 326 415" id="az"/><g id="j"><use transform="matrix(0.010850694444444444,0,0,0.010850694444444444,0,0)" xlink:href="#aw"/><use transform="matrix(0.010850694444444444,0,0,0.010850694444444444,7.996961805555555,0)" xlink:href="#az"/><use transform="matrix(0.010850694444444444,0,0,0.010850694444444444,21.321614583333332,0)" xlink:href="#az"/><use transform="matrix(0.010850694444444444,0,0,0.010850694444444444,34.64626736111111,0)" xlink:href="#au"/></g><path d="M338-670V0H158v-1118h173l1 207c72-158 192-221 342-221 226 0 378 139 378 422V0H872v-695c0-172-96-275-252-275-161 0-282 109-282 300" id="aA"/><path d="M577 24c-279 0-473-224-473-580 0-354 195-576 474-576 218 0 287 134 324 193h14v-551h180V0H922v-173h-20C865-111 790 24 577 24zm27-161c203 0 314-172 314-421 0-247-108-413-314-413-212 0-317 181-317 413 0 235 108 421 317 421" id="aB"/><path d="M295 13c-75 0-135-60-135-135s60-135 135-135 135 60 135 135S370 13 295 13" id="aC"/><g id="k"><use transform="matrix(0.010850694444444444,0,0,0.010850694444444444,0,0)" xlink:href="#aA"/><use transform="matrix(0.010850694444444444,0,0,0.010850694444444444,13.129340277777777,0)" xlink:href="#az"/><use transform="matrix(0.010850694444444444,0,0,0.010850694444444444,26.453993055555554,0)" xlink:href="#aB"/><use transform="matrix(0.010850694444444444,0,0,0.010850694444444444,40.060763888888886,0)" xlink:href="#ay"/><use transform="matrix(0.010850694444444444,0,0,0.010850694444444444,53.01649305555556,0)" xlink:href="#aC"/></g><path d="M645 0H180v-1490h484c435 0 692 280 692 742 0 466-257 748-711 748zM370-168h263c363 0 539-218 539-580 0-358-176-574-521-574H370v1154" id="aD"/><g id="l"><use transform="matrix(0.010850694444444444,0,0,0.010850694444444444,0,0)" xlink:href="#aD"/><use transform="matrix(0.010850694444444444,0,0,0.010850694444444444,16.03732638888889,0)" xlink:href="#az"/></g><path d="M481 0L54-1118h197c107 314 236 620 325 951 87-331 217-637 324-951h197L670 0H481" id="aE"/><path d="M338-1490V0H158v-1490h180" id="aF"/><path d="M537 14c-226 0-379-139-379-422v-710h180v695c0 172 97 275 253 275 160 0 281-109 281-300v-670h181V0H879v-209C806-46 684 14 537 14" id="aG"/><path d="M538 24C308 24 148-78 108-271l171-41c32 123 123 178 257 178 156 0 256-77 256-169 0-77-54-128-164-154l-186-44c-203-48-300-148-300-305 0-192 176-326 414-326 230 0 351 112 402 269l-163 42c-31-80-94-158-238-158-133 0-233 69-233 162 0 83 57 129 188 160l169 40c203 48 298 149 298 302 0 196-179 339-441 339" id="aH"/><g id="m"><use transform="matrix(0.010850694444444444,0,0,0.010850694444444444,0,0)" xlink:href="#aE"/><use transform="matrix(0.010850694444444444,0,0,0.010850694444444444,12.38064236111111,0)" xlink:href="#av"/><use transform="matrix(0.010850694444444444,0,0,0.010850694444444444,24.85894097222222,0)" xlink:href="#aF"/><use transform="matrix(0.010850694444444444,0,0,0.010850694444444444,30.240885416666664,0)" xlink:href="#aG"/><use transform="matrix(0.010850694444444444,0,0,0.010850694444444444,43.381076388888886,0)" xlink:href="#ay"/><use transform="matrix(0.010850694444444444,0,0,0.010850694444444444,56.33680555555555,0)" xlink:href="#aH"/></g><path d="M1096 418H916v-591h-14C865-111 790 24 577 24c-279 0-473-224-473-580 0-354 195-576 474-576 218 0 287 134 324 193h20v-179h174V418zM604-137c203 0 314-172 314-421 0-247-108-413-314-413-212 0-317 181-317 413 0 235 108 421 317 421" id="aI"/><g id="n"><use transform="matrix(0.010850694444444444,0,0,0.010850694444444444,0,0)" xlink:href="#ay"/><use transform="matrix(0.010850694444444444,0,0,0.010850694444444444,12.955729166666666,0)" xlink:href="#aI"/><use transform="matrix(0.010850694444444444,0,0,0.010850694444444444,26.5625,0)" xlink:href="#aG"/><use transform="matrix(0.010850694444444444,0,0,0.010850694444444444,39.70269097222222,0)" xlink:href="#av"/><use transform="matrix(0.010850694444444444,0,0,0.010850694444444444,52.18098958333333,0)" xlink:href="#aF"/></g><path d="M613 24c-304 0-509-231-509-576 0-350 205-580 509-580 216 0 392 114 453 309l-173 49c-33-115-133-197-280-197-223 0-326 196-326 419 0 220 103 415 326 415 150 0 252-85 285-206l172 49C1010-95 832 24 613 24" id="aJ"/><g id="o"><use transform="matrix(0.010850694444444444,0,0,0.010850694444444444,0,0)" xlink:href="#ay"/><use transform="matrix(0.010850694444444444,0,0,0.010850694444444444,13.172743055555555,0)" xlink:href="#av"/><use transform="matrix(0.010850694444444444,0,0,0.010850694444444444,25.651041666666664,0)" xlink:href="#aJ"/><use transform="matrix(0.010850694444444444,0,0,0.010850694444444444,38.346354166666664,0)" xlink:href="#ax"/></g><path d="M383-449c-3-277 82-343 222-425 88-53 156-134 156-250 0-139-108-227-243-227-118 0-235 70-246 236H82c10-251 200-395 436-395 259 0 427 165 427 393 0 161-74 273-203 352-132 80-180 132-178 316H383zm93 462c-75 0-135-60-135-134 0-75 60-135 135-135 74 0 134 60 134 135 0 74-60 134-134 134" id="aK"/><g id="p"><use transform="matrix(0.010850694444444444,0,0,0.010850694444444444,0,0)" xlink:href="#az"/><use transform="matrix(0.010850694444444444,0,0,0.010850694444444444,13.324652777777777,0)" xlink:href="#au"/><use transform="matrix(0.010850694444444444,0,0,0.010850694444444444,20.594618055555554,0)" xlink:href="#ax"/><use transform="matrix(0.010850694444444444,0,0,0.010850694444444444,33.73480902777777,0)" xlink:href="#ay"/><use transform="matrix(0.010850694444444444,0,0,0.010850694444444444,46.690538194444436,0)" xlink:href="#aw"/><use transform="matrix(0.010850694444444444,0,0,0.010850694444444444,55.0564236111111,0)" xlink:href="#aK"/></g><path d="M180 0v-1490h224l606 953c40 63 108 177 176 312-27-437-7-821-13-1265h190V0h-226C860-448 622-778 356-1262c27 476 11 792 15 1262H180" id="aL"/><g id="q"><use transform="matrix(0.010850694444444444,0,0,0.010850694444444444,0,0)" xlink:href="#aL"/><use transform="matrix(0.010850694444444444,0,0,0.010850694444444444,16.74262152777778,0)" xlink:href="#az"/><use transform="matrix(0.010850694444444444,0,0,0.010850694444444444,30.06727430555556,0)" xlink:href="#aC"/></g><g id="r"><use transform="matrix(0.010850694444444444,0,0,0.010850694444444444,0,0)" xlink:href="#at"/><use transform="matrix(0.010850694444444444,0,0,0.010850694444444444,14.2578125,0)" xlink:href="#ay"/><use transform="matrix(0.010850694444444444,0,0,0.010850694444444444,27.43055555555556,0)" xlink:href="#av"/><use transform="matrix(0.010850694444444444,0,0,0.010850694444444444,39.90885416666667,0)" xlink:href="#aw"/><use transform="matrix(0.010850694444444444,0,0,0.010850694444444444,47.90581597222222,0)" xlink:href="#aJ"/><use transform="matrix(0.010850694444444444,0,0,0.010850694444444444,60.60112847222222,0)" xlink:href="#ax"/></g><path d="M678-1118v154H420V0H240v-964H20v-154h220v-149c0-194 155-293 318-293 85 0 141 18 168 30l-50 154c-19-6-47-17-97-17-111 0-159 58-159 166v109h258" id="aM"/><g id="s"><use transform="matrix(0.010850694444444444,0,0,0.010850694444444444,0,0)" xlink:href="#aF"/><use transform="matrix(0.010850694444444444,0,0,0.010850694444444444,5.381944444444445,0)" xlink:href="#ay"/><use transform="matrix(0.010850694444444444,0,0,0.010850694444444444,18.33767361111111,0)" xlink:href="#aM"/><use transform="matrix(0.010850694444444444,0,0,0.010850694444444444,25.80295138888889,0)" xlink:href="#au"/></g><g id="t"><use transform="matrix(0.010850694444444444,0,0,0.010850694444444444,0,0)" xlink:href="#aD"/><use transform="matrix(0.010850694444444444,0,0,0.010850694444444444,16.03732638888889,0)" xlink:href="#az"/><use transform="matrix(0.010850694444444444,0,0,0.010850694444444444,29.361979166666664,0)" xlink:href="#ay"/><use transform="matrix(0.010850694444444444,0,0,0.010850694444444444,42.31770833333333,0)" xlink:href="#aH"/></g><path d="M158 0v-1118h180V0H158zm91-1301c-68 0-125-53-125-119s57-119 125-119c69 0 126 53 126 119s-57 119-126 119" id="aN"/><g id="u"><use transform="matrix(0.010850694444444444,0,0,0.010850694444444444,0,0)" xlink:href="#aN"/><use transform="matrix(0.010850694444444444,0,0,0.010850694444444444,5.381944444444445,0)" xlink:href="#au"/></g><g id="v"><use transform="matrix(0.010850694444444444,0,0,0.010850694444444444,0,0)" xlink:href="#ay"/><use transform="matrix(0.010850694444444444,0,0,0.010850694444444444,12.955729166666666,0)" xlink:href="#aI"/><use transform="matrix(0.010850694444444444,0,0,0.010850694444444444,26.5625,0)" xlink:href="#aG"/><use transform="matrix(0.010850694444444444,0,0,0.010850694444444444,39.70269097222222,0)" xlink:href="#av"/><use transform="matrix(0.010850694444444444,0,0,0.010850694444444444,52.18098958333333,0)" xlink:href="#aF"/></g><g id="w"><use transform="matrix(0.010850694444444444,0,0,0.010850694444444444,0,0)" xlink:href="#au"/><use transform="matrix(0.010850694444444444,0,0,0.010850694444444444,7.269965277777778,0)" xlink:href="#ax"/><use transform="matrix(0.010850694444444444,0,0,0.010850694444444444,20.41015625,0)" xlink:href="#ay"/></g><path d="M677 24c-213 0-288-135-325-197h-20V0H158v-1490h180v551h14c37-59 106-193 324-193 279 0 474 222 474 576 0 356-194 580-473 580zm-27-161c209 0 317-186 317-421 0-232-105-413-317-413-206 0-314 166-314 413 0 249 111 421 314 421" id="aO"/><path d="M180 0v-1490h510c348 0 508 194 508 460 0 198-88 351-276 417L1256 0h-220L726-579c-117 2-238 0-356 1V0H180zm190-747h312c235 0 327-108 327-283 0-177-92-293-329-293H370v576" id="aP"/><g id="x"><use transform="matrix(0.010850694444444444,0,0,0.010850694444444444,0,0)" xlink:href="#aH"/><use transform="matrix(0.010850694444444444,0,0,0.010850694444444444,11.729600694444445,0)" xlink:href="#aG"/><use transform="matrix(0.010850694444444444,0,0,0.010850694444444444,24.869791666666664,0)" xlink:href="#aO"/><use transform="matrix(0.010850694444444444,0,0,0.010850694444444444,38.4765625,0)" xlink:href="#aP"/><use transform="matrix(0.010850694444444444,0,0,0.010850694444444444,52.45225694444444,0)" xlink:href="#az"/><use transform="matrix(0.010850694444444444,0,0,0.010850694444444444,65.77690972222221,0)" xlink:href="#az"/><use transform="matrix(0.010850694444444444,0,0,0.010850694444444444,79.10156249999999,0)" xlink:href="#au"/></g><g id="y"><use transform="matrix(0.010850694444444444,0,0,0.010850694444444444,0,0)" xlink:href="#aA"/><use transform="matrix(0.010850694444444444,0,0,0.010850694444444444,13.129340277777777,0)" xlink:href="#az"/><use transform="matrix(0.010850694444444444,0,0,0.010850694444444444,26.453993055555554,0)" xlink:href="#aB"/><use transform="matrix(0.010850694444444444,0,0,0.010850694444444444,40.060763888888886,0)" xlink:href="#ay"/><use transform="matrix(0.010850694444444444,0,0,0.010850694444444444,53.01649305555556,0)" xlink:href="#aK"/></g><path d="M600 0v-610L52-1490h220l295 481c50 82 90 150 130 243 40-96 80-164 128-243l294-481h219L790-610V0H600" id="aQ"/><g id="z"><use transform="matrix(0.010850694444444444,0,0,0.010850694444444444,0,0)" xlink:href="#aQ"/><use transform="matrix(0.010850694444444444,0,0,0.010850694444444444,13.37890625,0)" xlink:href="#ay"/><use transform="matrix(0.010850694444444444,0,0,0.010850694444444444,26.334635416666664,0)" xlink:href="#aH"/><use transform="matrix(0.010850694444444444,0,0,0.010850694444444444,38.06423611111111,0)" xlink:href="#aC"/></g><g id="A"><use transform="matrix(0.010850694444444444,0,0,0.010850694444444444,0,0)" xlink:href="#aA"/><use transform="matrix(0.010850694444444444,0,0,0.010850694444444444,13.129340277777777,0)" xlink:href="#az"/><use transform="matrix(0.010850694444444444,0,0,0.010850694444444444,26.453993055555554,0)" xlink:href="#aB"/><use transform="matrix(0.010850694444444444,0,0,0.010850694444444444,40.060763888888886,0)" xlink:href="#ay"/></g><g id="B"><use transform="matrix(0.010850694444444444,0,0,0.010850694444444444,0,0)" xlink:href="#av"/><use transform="matrix(0.010850694444444444,0,0,0.010850694444444444,12.47829861111111,0)" xlink:href="#au"/></g><path d="M154 0v-137l495-537c165-179 249-281 249-418 0-156-121-253-280-253-170 0-278 110-278 278H158c0-264 200-443 465-443 266 0 455 183 455 416 0 161-73 288-336 568L416-179v12h687V0H154" id="aR"/><g id="C"><use transform="matrix(0.010850694444444444,0,0,0.010850694444444444,0,0)" xlink:href="#aR"/><use transform="matrix(0.010850694444444444,0,0,0.010850694444444444,13.55251736111111,0)" xlink:href="#aC"/></g><g id="D"><use transform="matrix(0.010850694444444444,0,0,0.010850694444444444,0,0)" xlink:href="#aN"/><use transform="matrix(0.010850694444444444,0,0,0.010850694444444444,5.381944444444445,0)" xlink:href="#aA"/></g><g id="E"><use transform="matrix(0.010850694444444444,0,0,0.010850694444444444,0,0)" xlink:href="#av"/><use transform="matrix(0.010850694444444444,0,0,0.010850694444444444,12.47829861111111,0)" xlink:href="#aA"/><use transform="matrix(0.010850694444444444,0,0,0.010850694444444444,25.60763888888889,0)" xlink:href="#aB"/></g><g id="F"><use transform="matrix(0.010850694444444444,0,0,0.010850694444444444,0,0)" xlink:href="#aH"/><use transform="matrix(0.010850694444444444,0,0,0.010850694444444444,11.729600694444445,0)" xlink:href="#aG"/><use transform="matrix(0.010850694444444444,0,0,0.010850694444444444,24.869791666666664,0)" xlink:href="#aO"/><use transform="matrix(0.010850694444444444,0,0,0.010850694444444444,38.4765625,0)" xlink:href="#aP"/><use transform="matrix(0.010850694444444444,0,0,0.010850694444444444,52.45225694444444,0)" xlink:href="#az"/><use transform="matrix(0.010850694444444444,0,0,0.010850694444444444,65.77690972222221,0)" xlink:href="#az"/><use transform="matrix(0.010850694444444444,0,0,0.010850694444444444,79.10156249999999,0)" xlink:href="#au"/></g><g id="G"><use transform="matrix(0.010850694444444444,0,0,0.010850694444444444,0,0)" xlink:href="#ay"/><use transform="matrix(0.010850694444444444,0,0,0.010850694444444444,12.955729166666666,0)" xlink:href="#aI"/><use transform="matrix(0.010850694444444444,0,0,0.010850694444444444,26.5625,0)" xlink:href="#aG"/><use transform="matrix(0.010850694444444444,0,0,0.010850694444444444,39.70269097222222,0)" xlink:href="#av"/><use transform="matrix(0.010850694444444444,0,0,0.010850694444444444,52.18098958333333,0)" xlink:href="#aF"/><use transform="matrix(0.010850694444444444,0,0,0.010850694444444444,57.56293402777778,0)" xlink:href="#aK"/></g><path d="M611 442c-248 0-391-105-460-228l146-94c47 65 117 165 314 165 178 0 307-82 307-266v-224h-17C863-141 792-18 576-18c-268 0-472-195-472-546 0-346 197-568 476-568 216 0 288 133 326 193h17v-179h175V29c0 289-215 413-487 413zm-5-620c203 0 314-146 314-390 0-237-108-403-314-403-213 0-319 180-319 403 0 230 109 390 319 390" id="aS"/><g id="H"><use transform="matrix(0.010850694444444444,0,0,0.010850694444444444,0,0)" xlink:href="#aw"/><use transform="matrix(0.010850694444444444,0,0,0.010850694444444444,8.713107638888888,0)" xlink:href="#aN"/><use transform="matrix(0.010850694444444444,0,0,0.010850694444444444,14.095052083333332,0)" xlink:href="#aS"/><use transform="matrix(0.010850694444444444,0,0,0.010850694444444444,27.723524305555554,0)" xlink:href="#ax"/><use transform="matrix(0.010850694444444444,0,0,0.010850694444444444,40.86371527777777,0)" xlink:href="#au"/></g><g id="I"><use transform="matrix(0.010850694444444444,0,0,0.010850694444444444,0,0)" xlink:href="#aN"/><use transform="matrix(0.010850694444444444,0,0,0.010850694444444444,5.381944444444445,0)" xlink:href="#aA"/></g><g id="J"><use transform="matrix(0.010850694444444444,0,0,0.010850694444444444,0,0)" xlink:href="#aw"/><use transform="matrix(0.010850694444444444,0,0,0.010850694444444444,7.996961805555555,0)" xlink:href="#az"/><use transform="matrix(0.010850694444444444,0,0,0.010850694444444444,21.321614583333332,0)" xlink:href="#az"/><use transform="matrix(0.010850694444444444,0,0,0.010850694444444444,34.64626736111111,0)" xlink:href="#au"/></g><g id="K"><use transform="matrix(0.010850694444444444,0,0,0.010850694444444444,0,0)" xlink:href="#aQ"/><use transform="matrix(0.010850694444444444,0,0,0.010850694444444444,13.37890625,0)" xlink:href="#ay"/><use transform="matrix(0.010850694444444444,0,0,0.010850694444444444,26.334635416666664,0)" xlink:href="#aH"/><use transform="matrix(0.010850694444444444,0,0,0.010850694444444444,38.06423611111111,0)" xlink:href="#aC"/></g><g id="L"><use transform="matrix(0.010850694444444444,0,0,0.010850694444444444,0,0)" xlink:href="#aP"/><use transform="matrix(0.010850694444444444,0,0,0.010850694444444444,13.975694444444445,0)" xlink:href="#ay"/><use transform="matrix(0.010850694444444444,0,0,0.010850694444444444,26.931423611111104,0)" xlink:href="#au"/><use transform="matrix(0.010850694444444444,0,0,0.010850694444444444,34.201388888888886,0)" xlink:href="#aG"/><use transform="matrix(0.010850694444444444,0,0,0.010850694444444444,47.34157986111111,0)" xlink:href="#aw"/><use transform="matrix(0.010850694444444444,0,0,0.010850694444444444,56.054687499999986,0)" xlink:href="#aA"/></g><path d="M98-1322v-168h1126v168H757V0H567v-1322H98" id="aT"/><g id="M"><use transform="matrix(0.010850694444444444,0,0,0.010850694444444444,0,0)" xlink:href="#aT"/><use transform="matrix(0.010850694444444444,0,0,0.010850694444444444,13.0859375,0)" xlink:href="#aw"/><use transform="matrix(0.010850694444444444,0,0,0.010850694444444444,21.451822916666664,0)" xlink:href="#aG"/><use transform="matrix(0.010850694444444444,0,0,0.010850694444444444,34.592013888888886,0)" xlink:href="#ay"/><use transform="matrix(0.010850694444444444,0,0,0.010850694444444444,47.54774305555556,0)" xlink:href="#aC"/></g><g id="N"><use transform="matrix(0.010850694444444444,0,0,0.010850694444444444,0,0)" xlink:href="#aA"/><use transform="matrix(0.010850694444444444,0,0,0.010850694444444444,13.129340277777777,0)" xlink:href="#az"/><use transform="matrix(0.010850694444444444,0,0,0.010850694444444444,26.453993055555554,0)" xlink:href="#aB"/><use transform="matrix(0.010850694444444444,0,0,0.010850694444444444,40.060763888888886,0)" xlink:href="#ay"/><use transform="matrix(0.010850694444444444,0,0,0.010850694444444444,53.01649305555556,0)" xlink:href="#aC"/></g><g id="O"><use transform="matrix(0.010850694444444444,0,0,0.010850694444444444,0,0)" xlink:href="#aD"/><use transform="matrix(0.010850694444444444,0,0,0.010850694444444444,16.03732638888889,0)" xlink:href="#az"/></g><g id="P"><use transform="matrix(0.010850694444444444,0,0,0.010850694444444444,0,0)" xlink:href="#aE"/><use transform="matrix(0.010850694444444444,0,0,0.010850694444444444,12.38064236111111,0)" xlink:href="#av"/><use transform="matrix(0.010850694444444444,0,0,0.010850694444444444,24.85894097222222,0)" xlink:href="#aF"/><use transform="matrix(0.010850694444444444,0,0,0.010850694444444444,30.240885416666664,0)" xlink:href="#aG"/><use transform="matrix(0.010850694444444444,0,0,0.010850694444444444,43.381076388888886,0)" xlink:href="#ay"/></g><g id="Q"><use transform="matrix(0.010850694444444444,0,0,0.010850694444444444,0,0)" xlink:href="#ay"/><use transform="matrix(0.010850694444444444,0,0,0.010850694444444444,13.172743055555555,0)" xlink:href="#av"/><use transform="matrix(0.010850694444444444,0,0,0.010850694444444444,25.651041666666664,0)" xlink:href="#aJ"/><use transform="matrix(0.010850694444444444,0,0,0.010850694444444444,38.346354166666664,0)" xlink:href="#ax"/></g><path d="M653-1490V0H466v-1314h-10L96-1047v-204l324-239h233" id="aU"/><g id="R"><use transform="matrix(0.010850694444444444,0,0,0.010850694444444444,0,0)" xlink:href="#aU"/><use transform="matrix(0.010850694444444444,0,0,0.010850694444444444,9.038628472222221,0)" xlink:href="#aC"/></g><g id="S"><use transform="matrix(0.010850694444444444,0,0,0.010850694444444444,0,0)" xlink:href="#aU"/><use transform="matrix(0.010850694444444444,0,0,0.010850694444444444,9.038628472222221,0)" xlink:href="#aC"/></g><g id="T"><use transform="matrix(0.010850694444444444,0,0,0.010850694444444444,0,0)" xlink:href="#aL"/><use transform="matrix(0.010850694444444444,0,0,0.010850694444444444,16.74262152777778,0)" xlink:href="#az"/><use transform="matrix(0.010850694444444444,0,0,0.010850694444444444,30.06727430555556,0)" xlink:href="#au"/><use transform="matrix(0.010850694444444444,0,0,0.010850694444444444,37.337239583333336,0)" xlink:href="#aN"/><use transform="matrix(0.010850694444444444,0,0,0.010850694444444444,42.71918402777778,0)" xlink:href="#aJ"/><use transform="matrix(0.010850694444444444,0,0,0.010850694444444444,55.41449652777778,0)" xlink:href="#ay"/></g><path d="M409 0L70-1118h191c89 329 165 560 243 925 75-353 154-601 240-925h192c85 325 161 564 235 922 77-354 157-598 244-922h191L1267 0h-179c-86-307-176-590-250-913C763-588 675-308 588 0H409" id="aV"/><g id="U"><use transform="matrix(0.010850694444444444,0,0,0.010850694444444444,0,0)" xlink:href="#ax"/><use transform="matrix(0.010850694444444444,0,0,0.010850694444444444,13.140190972222221,0)" xlink:href="#az"/><use transform="matrix(0.010850694444444444,0,0,0.010850694444444444,26.063368055555554,0)" xlink:href="#aV"/></g><g id="V"><use transform="matrix(0.010850694444444444,0,0,0.010850694444444444,0,0)" xlink:href="#aw"/><use transform="matrix(0.010850694444444444,0,0,0.010850694444444444,8.713107638888888,0)" xlink:href="#aN"/><use transform="matrix(0.010850694444444444,0,0,0.010850694444444444,14.095052083333332,0)" xlink:href="#aS"/><use transform="matrix(0.010850694444444444,0,0,0.010850694444444444,27.723524305555554,0)" xlink:href="#ax"/><use transform="matrix(0.010850694444444444,0,0,0.010850694444444444,40.86371527777777,0)" xlink:href="#au"/></g><g id="W"><use transform="matrix(0.010850694444444444,0,0,0.010850694444444444,0,0)" xlink:href="#aO"/><use transform="matrix(0.010850694444444444,0,0,0.010850694444444444,13.606770833333332,0)" xlink:href="#aw"/><use transform="matrix(0.010850694444444444,0,0,0.010850694444444444,21.97265625,0)" xlink:href="#av"/><use transform="matrix(0.010850694444444444,0,0,0.010850694444444444,34.450954861111114,0)" xlink:href="#aA"/><use transform="matrix(0.010850694444444444,0,0,0.010850694444444444,47.5802951388889,0)" xlink:href="#aJ"/><use transform="matrix(0.010850694444444444,0,0,0.010850694444444444,60.2756076388889,0)" xlink:href="#ax"/><use transform="matrix(0.010850694444444444,0,0,0.010850694444444444,73.41579861111111,0)" xlink:href="#ay"/><use transform="matrix(0.010850694444444444,0,0,0.010850694444444444,86.37152777777779,0)" xlink:href="#aH"/></g><g id="X"><use transform="matrix(0.010850694444444444,0,0,0.010850694444444444,0,0)" xlink:href="#az"/><use transform="matrix(0.010850694444444444,0,0,0.010850694444444444,13.324652777777777,0)" xlink:href="#aM"/></g><use transform="matrix(0.010850694444444444,0,0,0.010850694444444444,0,0)" xlink:href="#aR" id="Y"/><g id="Z"><use transform="matrix(0.010850694444444444,0,0,0.010850694444444444,0,0)" xlink:href="#ax"/><use transform="matrix(0.010850694444444444,0,0,0.010850694444444444,13.140190972222221,0)" xlink:href="#av"/><use transform="matrix(0.010850694444444444,0,0,0.010850694444444444,25.29296875,0)" xlink:href="#aE"/><use transform="matrix(0.010850694444444444,0,0,0.010850694444444444,37.34809027777778,0)" xlink:href="#ay"/></g><g id="aa"><use transform="matrix(0.010850694444444444,0,0,0.010850694444444444,0,0)" xlink:href="#aJ"/><use transform="matrix(0.010850694444444444,0,0,0.010850694444444444,12.6953125,0)" xlink:href="#ax"/><use transform="matrix(0.010850694444444444,0,0,0.010850694444444444,25.83550347222222,0)" xlink:href="#aN"/><use transform="matrix(0.010850694444444444,0,0,0.010850694444444444,31.217447916666664,0)" xlink:href="#aF"/><use transform="matrix(0.010850694444444444,0,0,0.010850694444444444,36.59939236111111,0)" xlink:href="#aB"/><use transform="matrix(0.010850694444444444,0,0,0.010850694444444444,50.20616319444444,0)" xlink:href="#aw"/><use transform="matrix(0.010850694444444444,0,0,0.010850694444444444,58.203124999999986,0)" xlink:href="#ay"/><use transform="matrix(0.010850694444444444,0,0,0.010850694444444444,71.15885416666666,0)" xlink:href="#aA"/></g><g id="ab"><use transform="matrix(0.010850694444444444,0,0,0.010850694444444444,0,0)" xlink:href="#aM"/><use transform="matrix(0.010850694444444444,0,0,0.010850694444444444,7.573784722222222,0)" xlink:href="#az"/><use transform="matrix(0.010850694444444444,0,0,0.010850694444444444,20.8984375,0)" xlink:href="#aw"/></g><g id="ac"><use transform="matrix(0.010850694444444444,0,0,0.010850694444444444,0,0)" xlink:href="#aw"/><use transform="matrix(0.010850694444444444,0,0,0.010850694444444444,7.996961805555555,0)" xlink:href="#az"/><use transform="matrix(0.010850694444444444,0,0,0.010850694444444444,21.321614583333332,0)" xlink:href="#az"/><use transform="matrix(0.010850694444444444,0,0,0.010850694444444444,34.64626736111111,0)" xlink:href="#au"/><use transform="matrix(0.010850694444444444,0,0,0.010850694444444444,41.916232638888886,0)" xlink:href="#aC"/></g><path d="M180 0v-1490h528c311 0 458 177 458 395 0 191-114 278-244 313v14c139 9 302 137 302 371 0 225-148 397-499 397H180zm190-168h350c232 0 321-102 321-231 0-149-120-277-311-277H370v508zm0-668h328c160 0 286-101 286-255 0-129-87-231-280-231H370v486" id="aW"/><g id="ad"><use transform="matrix(0.010850694444444444,0,0,0.010850694444444444,0,0)" xlink:href="#aW"/><use transform="matrix(0.010850694444444444,0,0,0.010850694444444444,14.539930555555555,0)" xlink:href="#aG"/><use transform="matrix(0.010850694444444444,0,0,0.010850694444444444,27.68012152777778,0)" xlink:href="#au"/></g><path d="M128 359l88-567h206L266 359H128" id="aX"/><g id="ae"><use transform="matrix(0.010850694444444444,0,0,0.010850694444444444,0,0)" xlink:href="#aH"/><use transform="matrix(0.010850694444444444,0,0,0.010850694444444444,11.729600694444445,0)" xlink:href="#aG"/><use transform="matrix(0.010850694444444444,0,0,0.010850694444444444,24.869791666666664,0)" xlink:href="#aO"/><use transform="matrix(0.010850694444444444,0,0,0.010850694444444444,38.4765625,0)" xlink:href="#aP"/><use transform="matrix(0.010850694444444444,0,0,0.010850694444444444,52.45225694444444,0)" xlink:href="#az"/><use transform="matrix(0.010850694444444444,0,0,0.010850694444444444,65.77690972222221,0)" xlink:href="#az"/><use transform="matrix(0.010850694444444444,0,0,0.010850694444444444,79.10156249999999,0)" xlink:href="#au"/><use transform="matrix(0.010850694444444444,0,0,0.010850694444444444,86.37152777777776,0)" xlink:href="#aX"/></g><path d="M140 405l46-156c120 36 205 19 263-150l32-93L54-1118h197c107 313 237 620 324 950 87-331 219-637 326-950h196L606 167c-68 178-176 259-334 259-64 0-113-12-132-21" id="aY"/><g id="af"><use transform="matrix(0.010850694444444444,0,0,0.010850694444444444,0,0)" xlink:href="#au"/><use transform="matrix(0.010850694444444444,0,0,0.010850694444444444,7.269965277777778,0)" xlink:href="#ax"/><use transform="matrix(0.010850694444444444,0,0,0.010850694444444444,20.41015625,0)" xlink:href="#ay"/><use transform="matrix(0.010850694444444444,0,0,0.010850694444444444,32.931857638888886,0)" xlink:href="#aY"/></g><path d="M232-923l-22-567h194l-22 567H232" id="aZ"/><g id="ag"><use transform="matrix(0.010850694444444444,0,0,0.010850694444444444,0,0)" xlink:href="#aB"/><use transform="matrix(0.010850694444444444,0,0,0.010850694444444444,13.606770833333332,0)" xlink:href="#az"/><use transform="matrix(0.010850694444444444,0,0,0.010850694444444444,26.931423611111104,0)" xlink:href="#aA"/><use transform="matrix(0.010850694444444444,0,0,0.010850694444444444,40.060763888888886,0)" xlink:href="#aZ"/><use transform="matrix(0.010850694444444444,0,0,0.010850694444444444,46.72309027777778,0)" xlink:href="#au"/><use transform="matrix(0.010850694444444444,0,0,0.010850694444444444,53.99305555555556,0)" xlink:href="#aC"/></g><path d="M180 0v-1490h901v168H370v510h643v168H370V0H180" id="ba"/><g id="ah"><use transform="matrix(0.010850694444444444,0,0,0.010850694444444444,0,0)" xlink:href="#ba"/><use transform="matrix(0.010850694444444444,0,0,0.010850694444444444,12.57595486111111,0)" xlink:href="#av"/><use transform="matrix(0.010850694444444444,0,0,0.010850694444444444,25.05425347222222,0)" xlink:href="#aF"/><use transform="matrix(0.010850694444444444,0,0,0.010850694444444444,30.436197916666664,0)" xlink:href="#aH"/><use transform="matrix(0.010850694444444444,0,0,0.010850694444444444,42.16579861111111,0)" xlink:href="#ay"/><use transform="matrix(0.010850694444444444,0,0,0.010850694444444444,55.12152777777778,0)" xlink:href="#aC"/></g><path d="M180 0v-1490h908v168H370v486h669v168H370v500h727V0H180" id="bb"/><path d="M65 0l393-574-370-544h210c88 136 192 297 267 435 67-142 176-302 264-435h206L661-564 1053 0H844c-94-144-206-310-287-458C484-308 366-142 273 0H65" id="bc"/><path d="M158 0v-1118h175l1 205c55-151 181-225 313-225 147 0 245 90 285 228 53-141 190-228 352-228 194 0 352 125 352 384V0h-181v-749c0-161-105-225-225-225-151 0-243 103-243 244V0H807v-767c0-124-93-207-219-207-131 0-250 92-250 270V0H158" id="bd"/><path d="M158 418v-1536h174v179h20c37-59 106-193 324-193 279 0 474 222 474 576 0 356-194 580-473 580-213 0-288-135-325-197h-14v591H158zm492-555c209 0 317-186 317-421 0-232-105-413-317-413-206 0-314 166-314 413 0 249 111 421 314 421" id="be"/><g id="ai"><use transform="matrix(0.010850694444444444,0,0,0.010850694444444444,0,0)" xlink:href="#bb"/><use transform="matrix(0.010850694444444444,0,0,0.010850694444444444,13.35720486111111,0)" xlink:href="#bc"/><use transform="matrix(0.010850694444444444,0,0,0.010850694444444444,25.48828125,0)" xlink:href="#av"/><use transform="matrix(0.010850694444444444,0,0,0.010850694444444444,37.966579861111114,0)" xlink:href="#bd"/><use transform="matrix(0.010850694444444444,0,0,0.010850694444444444,57.43272569444444,0)" xlink:href="#be"/><use transform="matrix(0.010850694444444444,0,0,0.010850694444444444,71.03949652777777,0)" xlink:href="#aF"/><use transform="matrix(0.010850694444444444,0,0,0.010850694444444444,76.42144097222221,0)" xlink:href="#ay"/></g><use transform="matrix(0.010850694444444444,0,0,0.010850694444444444,0,0)" xlink:href="#aR" id="aj"/><use transform="matrix(0.010850694444444444,0,0,0.010850694444444444,0,0)" xlink:href="#aU" id="ak"/></defs></g></svg>